%TF.GenerationSoftware,KiCad,Pcbnew,(6.0.9)*%
%TF.CreationDate,2023-01-12T20:26:10+01:00*%
%TF.ProjectId,pallas-ethernet-adapter,70616c6c-6173-42d6-9574-6865726e6574,rev?*%
%TF.SameCoordinates,Original*%
%TF.FileFunction,Copper,L2,Inr*%
%TF.FilePolarity,Positive*%
%FSLAX46Y46*%
G04 Gerber Fmt 4.6, Leading zero omitted, Abs format (unit mm)*
G04 Created by KiCad (PCBNEW (6.0.9)) date 2023-01-12 20:26:10*
%MOMM*%
%LPD*%
G01*
G04 APERTURE LIST*
%ADD10C,0.250000*%
%TA.AperFunction,NonConductor*%
%ADD11C,0.250000*%
%TD*%
%TA.AperFunction,ComponentPad*%
%ADD12R,1.500000X1.500000*%
%TD*%
%TA.AperFunction,ComponentPad*%
%ADD13C,1.500000*%
%TD*%
%TA.AperFunction,ComponentPad*%
%ADD14C,2.300000*%
%TD*%
%TA.AperFunction,ComponentPad*%
%ADD15R,1.000000X1.000000*%
%TD*%
%TA.AperFunction,ComponentPad*%
%ADD16O,1.000000X1.000000*%
%TD*%
%TA.AperFunction,ComponentPad*%
%ADD17C,5.600000*%
%TD*%
%TA.AperFunction,ViaPad*%
%ADD18C,0.550000*%
%TD*%
%TA.AperFunction,ViaPad*%
%ADD19C,0.450000*%
%TD*%
%TA.AperFunction,ViaPad*%
%ADD20C,0.500000*%
%TD*%
%TA.AperFunction,Conductor*%
%ADD21C,0.400000*%
%TD*%
%TA.AperFunction,Conductor*%
%ADD22C,0.127000*%
%TD*%
G04 APERTURE END LIST*
D10*
D11*
X-19120715Y16537381D02*
X-19073096Y16585000D01*
X-18977858Y16632620D01*
X-18739762Y16632620D01*
X-18644524Y16585000D01*
X-18596905Y16537381D01*
X-18549286Y16442143D01*
X-18549286Y16346905D01*
X-18596905Y16204048D01*
X-19168334Y15632620D01*
X-18549286Y15632620D01*
D12*
%TO.N,/Ethernet/MDI_A_P*%
%TO.C,J5*%
X-37910000Y26225000D03*
D13*
%TO.N,/Ethernet/MDI_A_N*%
X-36130000Y27241000D03*
%TO.N,/Ethernet/MDI_B_P*%
X-37910000Y28257000D03*
%TO.N,/Ethernet/MDI_C_P*%
X-36130000Y29273000D03*
%TO.N,/Ethernet/MDI_C_N*%
X-37910000Y30289000D03*
%TO.N,/Ethernet/MDI_B_N*%
X-36130000Y31305000D03*
%TO.N,/Ethernet/MDI_D_P*%
X-37910000Y32321000D03*
%TO.N,/Ethernet/MDI_D_N*%
X-36130000Y33337000D03*
%TO.N,/~{LED1}*%
X-31310000Y22925000D03*
%TO.N,+3V3*%
X-31310000Y25215000D03*
%TO.N,/~{LED0}*%
X-31310000Y34355000D03*
%TO.N,+3V3*%
X-31310000Y36645000D03*
D14*
%TO.N,/CASE*%
X-37020000Y37915000D03*
X-37020000Y21655000D03*
%TD*%
D15*
%TO.N,/RESET*%
%TO.C,J6*%
X965000Y46235000D03*
D16*
%TO.N,GND*%
X965000Y47505000D03*
%TD*%
D17*
%TO.N,/CASE*%
%TO.C,H2*%
X-37685000Y45585000D03*
%TD*%
D15*
%TO.N,+3V3*%
%TO.C,J7*%
X11114992Y47110003D03*
D16*
%TO.N,/LAN_JTAG_TDI*%
X11114992Y45840003D03*
%TO.N,GND*%
X9844992Y47110003D03*
%TO.N,/LAN_JTAG_TCK*%
X9844992Y45840003D03*
%TO.N,GND*%
X8574992Y47110003D03*
%TO.N,/LAN_JTAG_TDO*%
X8574992Y45840003D03*
%TO.N,unconnected-(J7-Pad7)*%
X7304992Y47110003D03*
%TO.N,/LAN_JTAG_TMS*%
X7304992Y45840003D03*
%TO.N,GND*%
X6034992Y47110003D03*
%TO.N,/RESET*%
X6034992Y45840003D03*
%TD*%
D17*
%TO.N,/CASE*%
%TO.C,H1*%
X-37650000Y9350000D03*
%TD*%
D18*
%TO.N,GND*%
X605600Y25685300D03*
D19*
X-9535000Y14385000D03*
X20965000Y50285000D03*
X19965000Y25535000D03*
X17665000Y23285000D03*
X15615000Y23535000D03*
X15315000Y11335000D03*
X13440000Y14635000D03*
X14915000Y10485000D03*
X15265000Y21085000D03*
X9565000Y31585000D03*
X-20535000Y44285000D03*
X-17960000Y48810000D03*
D18*
X12465000Y20585000D03*
D19*
X22465000Y17785000D03*
X22472715Y29781913D03*
X13665000Y11835000D03*
X12365000Y37135000D03*
X1765000Y23885000D03*
X15565000Y25035000D03*
D18*
X14065000Y6985000D03*
D19*
X22472715Y39781913D03*
D18*
X2315000Y29035000D03*
D19*
X19915000Y34885000D03*
X22465000Y49285000D03*
X-11535000Y14385000D03*
X-11535000Y36785000D03*
X8615000Y14785000D03*
D18*
X19465000Y6185000D03*
D19*
X16515000Y11985000D03*
X22465000Y14785000D03*
X9665000Y13585000D03*
X15365000Y25985000D03*
X-11535000Y30785000D03*
D18*
X3565000Y6985000D03*
D19*
X22472715Y27781913D03*
X11665000Y9235000D03*
X16115000Y9235000D03*
X16865000Y13635000D03*
X17465000Y50285000D03*
X-11535000Y26785000D03*
D18*
X6515000Y6985000D03*
D19*
X22465000Y16235000D03*
X11765000Y31785000D03*
X9465000Y50285000D03*
X-2531913Y50292715D03*
X-11535000Y32785000D03*
X17015000Y20235000D03*
X-17985000Y45735000D03*
X12165000Y10585000D03*
D18*
X-4785000Y29510000D03*
X6515000Y6185000D03*
D19*
X7465000Y50285000D03*
D18*
X-4794400Y32485300D03*
D19*
X8365000Y31585000D03*
X20465000Y14785000D03*
D18*
X9265000Y20585000D03*
D19*
X-11535000Y28785000D03*
X22472715Y41781913D03*
X13465000Y50285000D03*
D18*
X-1589400Y26795300D03*
D19*
X-18535000Y50285000D03*
X11765000Y32785000D03*
D18*
X-4785000Y26510000D03*
D19*
X5365000Y19235000D03*
X-6535000Y50285000D03*
X17265000Y11185000D03*
X22472715Y47781913D03*
X12215000Y16785000D03*
X-11535000Y18785000D03*
X-3535000Y14385000D03*
X11615000Y40435000D03*
X8965000Y27985000D03*
X-16531913Y44292715D03*
X9765000Y17985000D03*
X1465000Y50285000D03*
X-20535000Y50285000D03*
X-22535000Y44285000D03*
X14465000Y36135000D03*
D18*
X-3994400Y24345300D03*
D19*
X17815000Y12635000D03*
X14115000Y13885000D03*
D18*
X2315000Y31685000D03*
D19*
X-11860000Y42560000D03*
X22465000Y31785000D03*
X5465000Y50285000D03*
X22465000Y23785000D03*
X-24535000Y44285000D03*
X18715000Y11185000D03*
X-12535000Y50285000D03*
X22465000Y45785000D03*
X22465000Y19785000D03*
D18*
X-4794400Y34085300D03*
D19*
X14215000Y8385000D03*
D18*
X15565000Y18485000D03*
X-3994400Y27285300D03*
D19*
X-8535000Y50285000D03*
X19165000Y46335000D03*
X11468087Y50292715D03*
X8365000Y30385000D03*
D18*
X9265000Y23485000D03*
D19*
X12165000Y27985000D03*
X14515000Y40435000D03*
X15465000Y16285000D03*
X-26535000Y44285000D03*
X-1535000Y14385000D03*
D18*
X-4794400Y23485300D03*
X4325000Y27325000D03*
D19*
X22472715Y25781913D03*
X22465000Y50285000D03*
X1765000Y22285000D03*
X-11535000Y24785000D03*
D18*
X12265000Y17885000D03*
D19*
X-5535000Y14385000D03*
X10565000Y29185000D03*
X10865000Y12385000D03*
X-11835000Y38485000D03*
D18*
X13365000Y16785000D03*
D19*
X-22535000Y50285000D03*
X-30535000Y50285000D03*
D18*
X-1684400Y33650300D03*
D19*
X13015000Y9735000D03*
X-16531913Y50292715D03*
X-14535000Y44285000D03*
X-4535000Y50285000D03*
X-14535000Y50285000D03*
X-26535000Y50285000D03*
X-11542715Y20788087D03*
X18795000Y28890000D03*
X4765000Y37260000D03*
X-11535000Y16785000D03*
D18*
X14665000Y17585000D03*
D19*
X-11535000Y22785000D03*
D18*
X17015000Y6985000D03*
D19*
X-30535000Y46785000D03*
X17165000Y37535000D03*
X9565000Y32785000D03*
X22472715Y35781913D03*
X-535000Y50285000D03*
X8565000Y15835000D03*
X9815000Y24685000D03*
X5315000Y14585000D03*
X22472715Y43781913D03*
X-28535000Y44285000D03*
X-30535000Y44785000D03*
D18*
X-3994400Y33240300D03*
D19*
X12215000Y15935000D03*
X-26835000Y48810000D03*
X17065000Y36135000D03*
X15315000Y38985000D03*
X-30535000Y48785000D03*
D18*
X9265000Y22085000D03*
D19*
X20165000Y30785000D03*
X-11542715Y34788087D03*
D18*
X605600Y31885300D03*
D19*
X-18535000Y44285000D03*
D18*
X605600Y35085300D03*
D19*
X15715000Y34935000D03*
D20*
X19165000Y48785000D03*
D18*
X605600Y27285300D03*
D19*
X-24535000Y50285000D03*
D18*
X-4794400Y31083500D03*
D19*
X22472715Y33781913D03*
X8365000Y29185000D03*
D18*
X605600Y28885300D03*
D19*
X9765000Y19085000D03*
X-7535000Y14385000D03*
X11665000Y13785000D03*
X-28535000Y50285000D03*
D18*
X3565000Y6185000D03*
D19*
X16765000Y7985000D03*
D18*
X-4794400Y28085300D03*
D19*
X8251808Y12646433D03*
D18*
X605600Y33485300D03*
D19*
X11565000Y11685000D03*
X-26860000Y45810000D03*
X15468087Y50292715D03*
X18968087Y50292715D03*
D18*
X4965000Y34035000D03*
D19*
X8615000Y16635000D03*
X22457285Y21788087D03*
X-10535000Y50285000D03*
X11615000Y38785000D03*
D18*
X-3994400Y30285300D03*
D19*
X22472715Y37781913D03*
D18*
X19465000Y6985000D03*
D19*
X9565000Y30385000D03*
X8365000Y32785000D03*
X3465000Y50285000D03*
X10565000Y27985000D03*
%TO.N,/PCIexpress_connector/~{PRSNT1}*%
X465000Y9585000D03*
D18*
X15965000Y14085000D03*
%TO.N,+3V3*%
X8565000Y19185000D03*
X12265000Y18985000D03*
D20*
X15365000Y46285000D03*
D18*
X18115000Y26785000D03*
X14665000Y38135000D03*
D20*
X18665000Y36075000D03*
D18*
X15065000Y20185000D03*
X8565000Y19785000D03*
X12965000Y46385000D03*
X12265000Y19785000D03*
X7615000Y38635000D03*
D20*
X14875000Y31625000D03*
D18*
X15465000Y19785000D03*
%TO.N,/LAN7430/VDD12_SW_FB*%
X7215000Y22085000D03*
D20*
X20065000Y32985000D03*
D18*
X13465000Y22805000D03*
D20*
X20065000Y34035000D03*
D18*
X14065000Y33835000D03*
D20*
%TO.N,/LAN7430/VDD12CORE*%
X6715000Y25485000D03*
D19*
X12415000Y35935000D03*
X14815000Y30635000D03*
D18*
%TO.N,/LAN7430/AVDDH*%
X6015000Y26635000D03*
X6215000Y33235000D03*
X4365000Y26485000D03*
D19*
%TO.N,/LAN7430/VPTX*%
X11415000Y26135000D03*
D18*
%TO.N,/LAN7430/AVDDL*%
X5775000Y25625000D03*
X6215000Y29135000D03*
X6005000Y31625000D03*
D20*
%TO.N,/LAN7430/AVDD12*%
X8915000Y35385000D03*
%TO.N,/LAN7430/TEST*%
X13815000Y36035000D03*
D18*
%TO.N,/LAN7430/VDD_2V5*%
X17265000Y25485000D03*
D20*
X14225000Y22925000D03*
D18*
X4175000Y22925000D03*
D20*
X15565000Y28535000D03*
D18*
%TO.N,/PCIexpress_connector/3V3*%
X4015000Y12735000D03*
X4515000Y12235000D03*
%TO.N,/LAN7430/PCIE_TX_P*%
X14581301Y11501301D03*
%TO.N,/LAN7430/PCIE_TX_N*%
X15165000Y12085000D03*
%TO.N,/LAN7430/PCIE_CLK_P*%
X14331301Y14618699D03*
%TO.N,/LAN7430/PCIE_CLK_N*%
X14865000Y14085000D03*
D19*
%TO.N,/LAN_JTAG_TCK*%
X9665000Y38535000D03*
X15215000Y35385000D03*
X2965000Y21085000D03*
X-1335000Y43185000D03*
%TO.N,/Ethernet/MDI_A_P*%
X-29033344Y34583344D03*
%TO.N,/Ethernet/MDI_A_N*%
X-28610000Y34160000D03*
%TO.N,/Ethernet/MDI_B_P*%
X-33835000Y31485000D03*
X-30345844Y31545844D03*
%TO.N,/Ethernet/MDI_C_P*%
X-27436656Y29458344D03*
%TO.N,/Ethernet/MDI_C_N*%
X-27935000Y28985000D03*
%TO.N,/Ethernet/MDI_B_N*%
X-29835000Y31085000D03*
X-33835000Y30854500D03*
%TO.N,/Ethernet/MDI_D_P*%
X-32885000Y32765500D03*
%TO.N,/Ethernet/MDI_D_N*%
X-32935000Y32085000D03*
%TO.N,/CASE*%
X-23041593Y38797064D03*
X-19035000Y38785000D03*
X-15035000Y14385000D03*
X-42035000Y14385000D03*
X-22835000Y30785000D03*
X-33035000Y50285000D03*
X-43735000Y31785000D03*
X-31035000Y20785000D03*
X-19035000Y20785000D03*
X-27035000Y41785000D03*
X-43735000Y17785000D03*
X-34535000Y50285000D03*
X-21035000Y41785000D03*
X-25035000Y14385000D03*
X-15035000Y22785000D03*
X-17031913Y41792715D03*
X-21035000Y38785000D03*
X-23035000Y41785000D03*
X-43735000Y25785000D03*
X-25035000Y20785000D03*
X-33535000Y14385000D03*
X-43735000Y44785000D03*
X-15025000Y40315000D03*
X-22835000Y27985000D03*
X-31035000Y41785000D03*
X-40335000Y31760000D03*
X-40535000Y50285000D03*
X-35535000Y20785000D03*
X-28535000Y31085000D03*
X-22835000Y33285000D03*
X-31035000Y33285000D03*
X-31035000Y38785000D03*
X-43735000Y46785000D03*
X-15035000Y16785000D03*
X-43735000Y41785000D03*
X-19035000Y41785000D03*
X-35360000Y25760000D03*
X-38535000Y50285000D03*
X-15035000Y32785000D03*
X-43735000Y37785000D03*
X-15035000Y26785000D03*
X-27035000Y20785000D03*
X-42835000Y20485000D03*
X-31035000Y26785000D03*
X-25035000Y41785000D03*
X-34860000Y27810000D03*
X-29035000Y14385000D03*
X-25035000Y24785000D03*
X-23035000Y20785000D03*
X-43735000Y39785000D03*
X-43735000Y21785000D03*
X-42535000Y50285000D03*
X-33035000Y46785000D03*
X-29035000Y41785000D03*
X-15035000Y18785000D03*
X-43735000Y29785000D03*
X-33035000Y20785000D03*
X-43735000Y19785000D03*
X-43735000Y33785000D03*
X-21035000Y20785000D03*
X-27035000Y14385000D03*
X-33035000Y44785000D03*
X-34835000Y38785000D03*
X-33685000Y32560000D03*
X-27535000Y35785000D03*
X-22835000Y24785000D03*
X-23035000Y35785000D03*
X-28585000Y29485000D03*
X-43735000Y23785000D03*
X-15035000Y38785000D03*
X-40235000Y26560000D03*
X-43735000Y50285000D03*
X-30435000Y23885000D03*
X-30535000Y21785000D03*
X-19035000Y14385000D03*
X-33035000Y38785000D03*
X-24035000Y33285000D03*
X-17035000Y38785000D03*
X-33835000Y21885000D03*
X-35635000Y35335000D03*
X-38335000Y35360000D03*
X-23035000Y14385000D03*
X-40235000Y20485000D03*
X-33035000Y48785000D03*
X-21035000Y14385000D03*
X-15035000Y30785000D03*
X-43735000Y15785000D03*
X-30198327Y32337031D03*
X-15035000Y41785000D03*
X-43735000Y14385000D03*
X-31035000Y14385000D03*
X-15035000Y34785000D03*
X-31035000Y28785000D03*
X-43735000Y27785000D03*
X-43735000Y35785000D03*
X-15035000Y24785000D03*
X-34610000Y33810000D03*
X-37535000Y14385000D03*
X-15035000Y36785000D03*
X-26035000Y35785000D03*
X-18535000Y22785000D03*
X-31035000Y32185000D03*
X-35535000Y14385000D03*
X-17035000Y20785000D03*
X-17035000Y14385000D03*
X-26935000Y27960000D03*
X-39535000Y14385000D03*
X-38335000Y20785000D03*
X-21035000Y35785000D03*
X-15035000Y28785000D03*
X-43735000Y48685000D03*
X-36535000Y50285000D03*
X-34085000Y29335000D03*
X-33035000Y41785000D03*
X-26710000Y32485000D03*
X-29035000Y20785000D03*
X-15035000Y20785000D03*
X-24135000Y27985000D03*
X-28285000Y26685000D03*
%TO.N,/RESET*%
X14865000Y29535000D03*
D20*
X17885000Y34975000D03*
D19*
%TO.N,/LAN_JTAG_TDI*%
X13315000Y34635000D03*
X12465000Y41285000D03*
%TO.N,/LAN_JTAG_TDO*%
X17740000Y39285000D03*
X13915000Y34485000D03*
%TO.N,/LAN7430/RESREF*%
X13915000Y26435000D03*
%TO.N,/PCIexpress_connector/12V*%
X1480000Y6175000D03*
%TO.N,/LAN7430/~{PCIE_CLKREQ}*%
X10765000Y36285000D03*
D18*
X9765000Y12785000D03*
D19*
%TO.N,/LAN7430/~{PCIE_PERST}*%
X10225000Y35425000D03*
X2465000Y36785000D03*
%TO.N,/LAN7430/~{PCIE_WAKE}*%
X10425000Y34825000D03*
D18*
X9365000Y12085000D03*
D19*
%TO.N,/Ethernet/TXRX_A_P*%
X-1594400Y36835000D03*
%TO.N,/Ethernet/TXRX_A_N*%
X-1594400Y36204800D03*
%TO.N,/Ethernet/TXRX_B_P*%
X-1594400Y31365800D03*
%TO.N,/Ethernet/TXRX_B_N*%
X-1610000Y30760000D03*
%TO.N,/Ethernet/TXRX_C_P*%
X-1594400Y29965800D03*
%TO.N,/Ethernet/TXRX_C_N*%
X-1585000Y29360000D03*
%TO.N,/Ethernet/TXRX_D_P*%
X-1594400Y24165800D03*
%TO.N,/Ethernet/TXRX_D_N*%
X-1594400Y23485000D03*
%TO.N,/Ethernet/BOB_SMITH*%
X-21835000Y24385000D03*
D18*
X-21835000Y33285000D03*
D19*
X-21835000Y27285000D03*
X-21835000Y30285000D03*
%TD*%
D21*
%TO.N,/LAN7430/VDD12_SW_FB*%
X14495000Y26715000D02*
X14495000Y25005000D01*
X12705000Y32475000D02*
X12705000Y28505000D01*
X13465000Y23975000D02*
X13465000Y22805000D01*
X14065000Y33835000D02*
X12705000Y32475000D01*
X14495000Y25005000D02*
X13465000Y23975000D01*
X12705000Y28505000D02*
X14495000Y26715000D01*
D22*
%TO.N,/LAN_JTAG_TCK*%
X7465000Y38035000D02*
X9165000Y38035000D01*
X6965000Y38535000D02*
X7465000Y38035000D01*
X3315000Y38535000D02*
X6965000Y38535000D01*
X9165000Y38035000D02*
X9665000Y38535000D01*
X-1335000Y43185000D02*
X3315000Y38535000D01*
%TO.N,/RESET*%
X17525000Y35335000D02*
X16905000Y35335000D01*
X6035000Y43865000D02*
X6035000Y45840000D01*
X15765000Y32185000D02*
X14565000Y32185000D01*
X16565000Y33655000D02*
X16565000Y32985000D01*
X16905000Y35335000D02*
X16265000Y35975000D01*
X14815000Y29535000D02*
X14865000Y29535000D01*
X17885000Y34975000D02*
X16565000Y33655000D01*
X13665000Y41935000D02*
X7965000Y41935000D01*
X14365000Y29985000D02*
X14815000Y29535000D01*
X17885000Y34975000D02*
X17525000Y35335000D01*
X14565000Y32185000D02*
X14365000Y31985000D01*
X7965000Y41935000D02*
X6035000Y43865000D01*
X14365000Y31985000D02*
X14365000Y29985000D01*
X16565000Y32985000D02*
X15765000Y32185000D01*
X16265000Y39335000D02*
X13665000Y41935000D01*
X16265000Y35975000D02*
X16265000Y39335000D01*
%TO.N,/LAN_JTAG_TDI*%
X14115000Y39635000D02*
X14115000Y38035000D01*
X12465000Y41285000D02*
X14115000Y39635000D01*
X13315000Y37235000D02*
X13315000Y34635000D01*
X14115000Y38035000D02*
X13315000Y37235000D01*
%TO.N,/LAN7430/~{PCIE_PERST}*%
X2465000Y36785000D02*
X2915000Y36335000D01*
X8865000Y36335000D02*
X9775000Y35425000D01*
X9775000Y35425000D02*
X10225000Y35425000D01*
X2915000Y36335000D02*
X8865000Y36335000D01*
%TD*%
%TA.AperFunction,Conductor*%
%TO.N,/LAN_JTAG_TDI*%
G36*
X12571741Y41360907D02*
G01*
X12669103Y41359004D01*
X12677307Y41355416D01*
X12680045Y41350783D01*
X12690807Y41316206D01*
X12690994Y41315537D01*
X12700355Y41277676D01*
X12700456Y41277231D01*
X12707598Y41242597D01*
X12714037Y41210316D01*
X12721292Y41179619D01*
X12730928Y41149515D01*
X12744509Y41119016D01*
X12763599Y41087130D01*
X12789762Y41052868D01*
X12789946Y41052670D01*
X12789946Y41052669D01*
X12816923Y41023500D01*
X12820024Y41015100D01*
X12816606Y41007283D01*
X12742717Y40933394D01*
X12734444Y40929967D01*
X12726500Y40933077D01*
X12697331Y40960054D01*
X12697330Y40960054D01*
X12697132Y40960238D01*
X12662870Y40986401D01*
X12651548Y40993180D01*
X12631287Y41005310D01*
X12631282Y41005313D01*
X12630984Y41005491D01*
X12600485Y41019072D01*
X12583902Y41024380D01*
X12570591Y41028641D01*
X12570586Y41028642D01*
X12570381Y41028708D01*
X12539684Y41035963D01*
X12539612Y41035977D01*
X12539600Y41035980D01*
X12527764Y41038341D01*
X12507403Y41042402D01*
X12488781Y41046242D01*
X12472769Y41049544D01*
X12472324Y41049645D01*
X12434463Y41059006D01*
X12433794Y41059193D01*
X12399217Y41069955D01*
X12392336Y41075685D01*
X12390996Y41080897D01*
X12390869Y41087421D01*
X12385689Y41352384D01*
X12388954Y41360723D01*
X12397616Y41364311D01*
X12571741Y41360907D01*
G37*
%TD.AperFunction*%
%TD*%
%TA.AperFunction,Conductor*%
%TO.N,/RESET*%
G36*
X16411264Y36112096D02*
G01*
X16506859Y36087127D01*
X16513996Y36081721D01*
X16515573Y36076606D01*
X16518178Y36038482D01*
X16526804Y35999506D01*
X16539516Y35965988D01*
X16554952Y35935846D01*
X16555023Y35935725D01*
X16555029Y35935713D01*
X16571708Y35907070D01*
X16571776Y35906952D01*
X16588342Y35877724D01*
X16588732Y35876973D01*
X16603695Y35845458D01*
X16604194Y35844230D01*
X16616444Y35808130D01*
X16616847Y35806609D01*
X16625175Y35763644D01*
X16625367Y35762126D01*
X16625897Y35753187D01*
X16627766Y35721657D01*
X16624834Y35713196D01*
X16616086Y35709265D01*
X16511950Y35709265D01*
X16503677Y35712692D01*
X16500324Y35719648D01*
X16496524Y35753187D01*
X16496524Y35753188D01*
X16496421Y35754095D01*
X16496044Y35754926D01*
X16496043Y35754929D01*
X16482504Y35784759D01*
X16482026Y35785812D01*
X16459578Y35806761D01*
X16430338Y35819287D01*
X16429705Y35819404D01*
X16429703Y35819405D01*
X16417261Y35821712D01*
X16395569Y35825734D01*
X16356532Y35828447D01*
X16314592Y35829767D01*
X16314389Y35829775D01*
X16298194Y35830618D01*
X16271135Y35832026D01*
X16270281Y35832102D01*
X16227181Y35837532D01*
X16225720Y35837811D01*
X16215505Y35840447D01*
X16191557Y35846627D01*
X16184403Y35852011D01*
X16182783Y35857726D01*
X16182400Y35877361D01*
X16176612Y36173388D01*
X16411264Y36112096D01*
G37*
%TD.AperFunction*%
%TD*%
%TA.AperFunction,Conductor*%
%TO.N,/LAN_JTAG_TCK*%
G36*
X9740723Y38611046D02*
G01*
X9744311Y38602384D01*
X9741536Y38460400D01*
X9739132Y38337421D01*
X9739004Y38330897D01*
X9735416Y38322693D01*
X9730783Y38319955D01*
X9696205Y38309193D01*
X9695536Y38309006D01*
X9657675Y38299645D01*
X9657230Y38299544D01*
X9641218Y38296242D01*
X9622596Y38292402D01*
X9602235Y38288341D01*
X9590399Y38285980D01*
X9590387Y38285977D01*
X9590315Y38285963D01*
X9559618Y38278708D01*
X9559413Y38278642D01*
X9559408Y38278641D01*
X9546097Y38274380D01*
X9529514Y38269072D01*
X9499015Y38255491D01*
X9498717Y38255313D01*
X9498712Y38255310D01*
X9478451Y38243180D01*
X9467129Y38236401D01*
X9432867Y38210238D01*
X9403500Y38183077D01*
X9395101Y38179975D01*
X9387284Y38183393D01*
X9313394Y38257283D01*
X9309967Y38265556D01*
X9313077Y38273500D01*
X9340053Y38302669D01*
X9340053Y38302670D01*
X9340237Y38302868D01*
X9366400Y38337130D01*
X9385490Y38369016D01*
X9399071Y38399515D01*
X9408707Y38429619D01*
X9415962Y38460316D01*
X9422401Y38492597D01*
X9429543Y38527231D01*
X9429644Y38527676D01*
X9439005Y38565537D01*
X9439192Y38566206D01*
X9449954Y38600783D01*
X9455684Y38607664D01*
X9460895Y38609004D01*
X9569212Y38611121D01*
X9732384Y38614311D01*
X9740723Y38611046D01*
G37*
%TD.AperFunction*%
%TD*%
%TA.AperFunction,Conductor*%
%TO.N,/RESET*%
G36*
X6043421Y46081233D02*
G01*
X6479035Y45628263D01*
X6482300Y45619926D01*
X6480861Y45614528D01*
X6433957Y45529001D01*
X6433359Y45528028D01*
X6381075Y45451481D01*
X6380550Y45450771D01*
X6365404Y45431852D01*
X6328157Y45385328D01*
X6327880Y45384996D01*
X6304493Y45357898D01*
X6276971Y45326009D01*
X6276947Y45325980D01*
X6229405Y45269077D01*
X6229400Y45269070D01*
X6229267Y45268911D01*
X6186561Y45209183D01*
X6150493Y45142126D01*
X6122700Y45063042D01*
X6122617Y45062595D01*
X6122615Y45062589D01*
X6104895Y44967621D01*
X6104823Y44967233D01*
X6104802Y44966842D01*
X6099097Y44861070D01*
X6095230Y44852993D01*
X6087414Y44850000D01*
X5982586Y44850000D01*
X5974313Y44853427D01*
X5970903Y44861070D01*
X5965197Y44966841D01*
X5965197Y44966842D01*
X5965176Y44967232D01*
X5965104Y44967620D01*
X5947384Y45062586D01*
X5947382Y45062592D01*
X5947299Y45063039D01*
X5919506Y45142122D01*
X5883438Y45209178D01*
X5840731Y45268905D01*
X5793026Y45326002D01*
X5742109Y45384996D01*
X5742091Y45385017D01*
X5741815Y45385350D01*
X5689454Y45450750D01*
X5688926Y45451462D01*
X5688913Y45451481D01*
X5636615Y45528042D01*
X5636046Y45528969D01*
X5589130Y45614514D01*
X5588157Y45623414D01*
X5590956Y45628248D01*
X5855354Y45903199D01*
X6026556Y46081233D01*
X6034759Y46084821D01*
X6043421Y46081233D01*
G37*
%TD.AperFunction*%
%TD*%
%TA.AperFunction,Conductor*%
%TO.N,/RESET*%
G36*
X6043421Y46081233D02*
G01*
X6479035Y45628263D01*
X6482300Y45619926D01*
X6480861Y45614528D01*
X6433957Y45529001D01*
X6433359Y45528028D01*
X6381075Y45451481D01*
X6380550Y45450771D01*
X6365404Y45431852D01*
X6328157Y45385328D01*
X6327880Y45384996D01*
X6304493Y45357898D01*
X6276971Y45326009D01*
X6276947Y45325980D01*
X6229405Y45269077D01*
X6229400Y45269070D01*
X6229267Y45268911D01*
X6186561Y45209183D01*
X6150493Y45142126D01*
X6122700Y45063042D01*
X6122617Y45062595D01*
X6122615Y45062589D01*
X6104895Y44967621D01*
X6104823Y44967233D01*
X6104802Y44966842D01*
X6099097Y44861070D01*
X6095230Y44852993D01*
X6087414Y44850000D01*
X5982586Y44850000D01*
X5974313Y44853427D01*
X5970903Y44861070D01*
X5965197Y44966841D01*
X5965197Y44966842D01*
X5965176Y44967232D01*
X5965104Y44967620D01*
X5947384Y45062586D01*
X5947382Y45062592D01*
X5947299Y45063039D01*
X5919506Y45142122D01*
X5883438Y45209178D01*
X5840731Y45268905D01*
X5793026Y45326002D01*
X5742109Y45384996D01*
X5742091Y45385017D01*
X5741815Y45385350D01*
X5689454Y45450750D01*
X5688926Y45451462D01*
X5688913Y45451481D01*
X5636615Y45528042D01*
X5636046Y45528969D01*
X5589130Y45614514D01*
X5588157Y45623414D01*
X5590956Y45628248D01*
X5855354Y45903199D01*
X6026556Y46081233D01*
X6034759Y46084821D01*
X6043421Y46081233D01*
G37*
%TD.AperFunction*%
%TD*%
%TA.AperFunction,Conductor*%
%TO.N,/LAN7430/VDD12_SW_FB*%
G36*
X14158401Y33928724D02*
G01*
X14161989Y33920062D01*
X14155401Y33583055D01*
X14151813Y33574851D01*
X14147958Y33572386D01*
X14118879Y33561036D01*
X14118666Y33560932D01*
X14118657Y33560928D01*
X14086098Y33545019D01*
X14086088Y33545014D01*
X14085874Y33544909D01*
X14055215Y33526534D01*
X14025888Y33505592D01*
X14025750Y33505479D01*
X14025740Y33505471D01*
X13996991Y33481856D01*
X13996879Y33481764D01*
X13996788Y33481681D01*
X13996775Y33481670D01*
X13967238Y33454795D01*
X13967170Y33454733D01*
X13935748Y33424180D01*
X13901598Y33389787D01*
X13863703Y33351235D01*
X13829321Y33316552D01*
X13821064Y33313089D01*
X13812740Y33316516D01*
X13546516Y33582740D01*
X13543089Y33591013D01*
X13546552Y33599322D01*
X13581199Y33633669D01*
X13581234Y33633704D01*
X13619786Y33671599D01*
X13654122Y33705692D01*
X13654138Y33705709D01*
X13654179Y33705749D01*
X13684732Y33737171D01*
X13684794Y33737239D01*
X13711669Y33766776D01*
X13711680Y33766789D01*
X13711763Y33766880D01*
X13711855Y33766992D01*
X13735470Y33795741D01*
X13735478Y33795751D01*
X13735591Y33795889D01*
X13756533Y33825216D01*
X13774908Y33855875D01*
X13775013Y33856089D01*
X13775018Y33856099D01*
X13790927Y33888658D01*
X13790931Y33888667D01*
X13791035Y33888880D01*
X13802385Y33917957D01*
X13808585Y33924418D01*
X13813055Y33925401D01*
X13881485Y33926739D01*
X14150062Y33931989D01*
X14158401Y33928724D01*
G37*
%TD.AperFunction*%
%TD*%
%TA.AperFunction,Conductor*%
%TO.N,/LAN_JTAG_TCK*%
G36*
X-1228259Y43260907D02*
G01*
X-1130897Y43259004D01*
X-1122693Y43255416D01*
X-1119955Y43250783D01*
X-1109193Y43216206D01*
X-1109006Y43215537D01*
X-1099645Y43177676D01*
X-1099544Y43177231D01*
X-1092402Y43142597D01*
X-1085963Y43110316D01*
X-1078708Y43079619D01*
X-1069072Y43049515D01*
X-1055491Y43019016D01*
X-1036401Y42987130D01*
X-1010238Y42952868D01*
X-1010054Y42952670D01*
X-1010054Y42952669D01*
X-983077Y42923500D01*
X-979976Y42915100D01*
X-983394Y42907283D01*
X-1057283Y42833394D01*
X-1065556Y42829967D01*
X-1073500Y42833077D01*
X-1102669Y42860054D01*
X-1102670Y42860054D01*
X-1102868Y42860238D01*
X-1137130Y42886401D01*
X-1148452Y42893180D01*
X-1168713Y42905310D01*
X-1168718Y42905313D01*
X-1169016Y42905491D01*
X-1199515Y42919072D01*
X-1216098Y42924380D01*
X-1229409Y42928641D01*
X-1229414Y42928642D01*
X-1229619Y42928708D01*
X-1260316Y42935963D01*
X-1260388Y42935977D01*
X-1260400Y42935980D01*
X-1272236Y42938341D01*
X-1292597Y42942402D01*
X-1311219Y42946242D01*
X-1327231Y42949544D01*
X-1327676Y42949645D01*
X-1365537Y42959006D01*
X-1366206Y42959193D01*
X-1400783Y42969955D01*
X-1407664Y42975685D01*
X-1409004Y42980897D01*
X-1409131Y42987421D01*
X-1414311Y43252384D01*
X-1411046Y43260723D01*
X-1402384Y43264311D01*
X-1228259Y43260907D01*
G37*
%TD.AperFunction*%
%TD*%
%TA.AperFunction,Conductor*%
%TO.N,/LAN7430/~{PCIE_PERST}*%
G36*
X2571741Y36860907D02*
G01*
X2669103Y36859004D01*
X2677307Y36855416D01*
X2680045Y36850783D01*
X2690807Y36816206D01*
X2690994Y36815537D01*
X2700355Y36777676D01*
X2700456Y36777231D01*
X2707598Y36742597D01*
X2714037Y36710316D01*
X2721292Y36679619D01*
X2730928Y36649515D01*
X2744509Y36619016D01*
X2763599Y36587130D01*
X2789762Y36552868D01*
X2789946Y36552670D01*
X2789946Y36552669D01*
X2816923Y36523500D01*
X2820024Y36515100D01*
X2816606Y36507283D01*
X2742717Y36433394D01*
X2734444Y36429967D01*
X2726500Y36433077D01*
X2697331Y36460054D01*
X2697330Y36460054D01*
X2697132Y36460238D01*
X2662870Y36486401D01*
X2651548Y36493180D01*
X2631287Y36505310D01*
X2631282Y36505313D01*
X2630984Y36505491D01*
X2600485Y36519072D01*
X2583902Y36524380D01*
X2570591Y36528641D01*
X2570586Y36528642D01*
X2570381Y36528708D01*
X2539684Y36535963D01*
X2539612Y36535977D01*
X2539600Y36535980D01*
X2527764Y36538341D01*
X2507403Y36542402D01*
X2488781Y36546242D01*
X2472769Y36549544D01*
X2472324Y36549645D01*
X2434463Y36559006D01*
X2433794Y36559193D01*
X2399217Y36569955D01*
X2392336Y36575685D01*
X2390996Y36580897D01*
X2390869Y36587421D01*
X2385689Y36852384D01*
X2388954Y36860723D01*
X2397616Y36864311D01*
X2571741Y36860907D01*
G37*
%TD.AperFunction*%
%TD*%
%TA.AperFunction,Conductor*%
%TO.N,/RESET*%
G36*
X14574711Y29865743D02*
G01*
X14590731Y29850986D01*
X14602389Y29840246D01*
X14602396Y29840240D01*
X14602609Y29840044D01*
X14635728Y29815192D01*
X14666758Y29797426D01*
X14667119Y29797281D01*
X14667124Y29797278D01*
X14680714Y29791799D01*
X14696645Y29785376D01*
X14726336Y29777672D01*
X14726615Y29777629D01*
X14726623Y29777627D01*
X14756603Y29772971D01*
X14756614Y29772970D01*
X14756779Y29772944D01*
X14788920Y29769825D01*
X14805854Y29768422D01*
X14823556Y29766955D01*
X14823807Y29766932D01*
X14861835Y29762955D01*
X14862374Y29762885D01*
X14896703Y29757674D01*
X14904368Y29753045D01*
X14906468Y29748146D01*
X14907343Y29743202D01*
X14948401Y29511214D01*
X14953797Y29480723D01*
X14951864Y29471979D01*
X14943863Y29467092D01*
X14770170Y29443310D01*
X14674831Y29430256D01*
X14666171Y29432529D01*
X14662749Y29436679D01*
X14645376Y29471960D01*
X14645071Y29472631D01*
X14629222Y29510684D01*
X14629016Y29511214D01*
X14616449Y29546075D01*
X14616401Y29546212D01*
X14605419Y29578886D01*
X14594333Y29610273D01*
X14581426Y29641345D01*
X14564951Y29673154D01*
X14543161Y29706756D01*
X14514309Y29743202D01*
X14484362Y29775284D01*
X14481223Y29783669D01*
X14484643Y29791540D01*
X14558513Y29865410D01*
X14566786Y29868837D01*
X14574711Y29865743D01*
G37*
%TD.AperFunction*%
%TD*%
%TA.AperFunction,Conductor*%
%TO.N,/LAN7430/VDD12_SW_FB*%
G36*
X13661522Y23346573D02*
G01*
X13664949Y23338250D01*
X13664735Y23289414D01*
X13664271Y23235358D01*
X13664100Y23186890D01*
X13664714Y23143067D01*
X13666607Y23102946D01*
X13670271Y23065584D01*
X13676200Y23030038D01*
X13684886Y22995366D01*
X13696821Y22960624D01*
X13696911Y22960418D01*
X13696916Y22960406D01*
X13709357Y22932037D01*
X13709541Y22923084D01*
X13707075Y22919228D01*
X13473433Y22676269D01*
X13465229Y22672681D01*
X13456567Y22676269D01*
X13222925Y22919228D01*
X13219660Y22927567D01*
X13220643Y22932036D01*
X13233075Y22960389D01*
X13233082Y22960406D01*
X13233178Y22960624D01*
X13245113Y22995366D01*
X13253799Y23030038D01*
X13259728Y23065584D01*
X13263392Y23102946D01*
X13265285Y23143067D01*
X13265899Y23186890D01*
X13265728Y23235358D01*
X13265264Y23289414D01*
X13265051Y23338249D01*
X13268442Y23346537D01*
X13276751Y23350000D01*
X13653249Y23350000D01*
X13661522Y23346573D01*
G37*
%TD.AperFunction*%
%TD*%
%TA.AperFunction,Conductor*%
%TO.N,/RESET*%
G36*
X6043421Y46081233D02*
G01*
X6479035Y45628263D01*
X6482300Y45619926D01*
X6480861Y45614528D01*
X6433957Y45529001D01*
X6433359Y45528028D01*
X6381075Y45451481D01*
X6380550Y45450771D01*
X6365404Y45431852D01*
X6328157Y45385328D01*
X6327880Y45384996D01*
X6304493Y45357898D01*
X6276971Y45326009D01*
X6276947Y45325980D01*
X6229405Y45269077D01*
X6229400Y45269070D01*
X6229267Y45268911D01*
X6186561Y45209183D01*
X6150493Y45142126D01*
X6122700Y45063042D01*
X6122617Y45062595D01*
X6122615Y45062589D01*
X6104895Y44967621D01*
X6104823Y44967233D01*
X6104802Y44966842D01*
X6099097Y44861070D01*
X6095230Y44852993D01*
X6087414Y44850000D01*
X5982586Y44850000D01*
X5974313Y44853427D01*
X5970903Y44861070D01*
X5965197Y44966841D01*
X5965197Y44966842D01*
X5965176Y44967232D01*
X5965104Y44967620D01*
X5947384Y45062586D01*
X5947382Y45062592D01*
X5947299Y45063039D01*
X5919506Y45142122D01*
X5883438Y45209178D01*
X5840731Y45268905D01*
X5793026Y45326002D01*
X5742109Y45384996D01*
X5742091Y45385017D01*
X5741815Y45385350D01*
X5689454Y45450750D01*
X5688926Y45451462D01*
X5688913Y45451481D01*
X5636615Y45528042D01*
X5636046Y45528969D01*
X5589130Y45614514D01*
X5588157Y45623414D01*
X5590956Y45628248D01*
X5855354Y45903199D01*
X6026556Y46081233D01*
X6034759Y46084821D01*
X6043421Y46081233D01*
G37*
%TD.AperFunction*%
%TD*%
%TA.AperFunction,Conductor*%
%TO.N,/LAN7430/~{PCIE_PERST}*%
G36*
X10133457Y35621219D02*
G01*
X10326358Y35435715D01*
X10329946Y35427511D01*
X10326681Y35419172D01*
X10324162Y35417187D01*
X10266421Y35383363D01*
X10072886Y35269993D01*
X10064016Y35268768D01*
X10059610Y35270996D01*
X10033798Y35291900D01*
X10033797Y35291901D01*
X10033268Y35292329D01*
X10000830Y35307925D01*
X9968405Y35315531D01*
X9935810Y35317987D01*
X9935600Y35317988D01*
X9935598Y35317988D01*
X9902977Y35318134D01*
X9902793Y35318136D01*
X9885854Y35318478D01*
X9869952Y35318800D01*
X9868832Y35318877D01*
X9836176Y35322745D01*
X9834268Y35323134D01*
X9801283Y35332782D01*
X9799062Y35333688D01*
X9765030Y35351867D01*
X9763049Y35353202D01*
X9736398Y35375432D01*
X9732240Y35383363D01*
X9734907Y35391911D01*
X9735619Y35392690D01*
X9809047Y35466118D01*
X9817320Y35469545D01*
X9824519Y35467066D01*
X9851219Y35446210D01*
X9882839Y35436150D01*
X9884150Y35436339D01*
X9884151Y35436339D01*
X9911053Y35440217D01*
X9912121Y35440371D01*
X9939961Y35455989D01*
X9967256Y35480119D01*
X9994903Y35509878D01*
X9994921Y35509898D01*
X9994942Y35509921D01*
X10023648Y35542212D01*
X10023948Y35542537D01*
X10054449Y35574339D01*
X10055260Y35575107D01*
X10088205Y35603467D01*
X10089700Y35604561D01*
X10106985Y35615213D01*
X10119210Y35622746D01*
X10128051Y35624168D01*
X10133457Y35621219D01*
G37*
%TD.AperFunction*%
%TD*%
%TA.AperFunction,Conductor*%
%TO.N,/RESET*%
G36*
X16325562Y36571573D02*
G01*
X16328978Y36563799D01*
X16330913Y36518404D01*
X16337798Y36471398D01*
X16348622Y36431926D01*
X16362854Y36397933D01*
X16379961Y36367366D01*
X16399411Y36338168D01*
X16420645Y36308322D01*
X16420703Y36308239D01*
X16443049Y36275895D01*
X16443357Y36275427D01*
X16466290Y36238576D01*
X16466690Y36237880D01*
X16486026Y36201458D01*
X16486879Y36192544D01*
X16484126Y36187864D01*
X16265000Y35960000D01*
X16045875Y36187863D01*
X16042610Y36196201D01*
X16043974Y36201458D01*
X16063309Y36237880D01*
X16063709Y36238576D01*
X16086642Y36275427D01*
X16086950Y36275895D01*
X16109296Y36308239D01*
X16109354Y36308322D01*
X16130588Y36338168D01*
X16150038Y36367366D01*
X16167145Y36397933D01*
X16181377Y36431926D01*
X16192201Y36471398D01*
X16199086Y36518404D01*
X16201022Y36563800D01*
X16204798Y36571918D01*
X16212711Y36575000D01*
X16317289Y36575000D01*
X16325562Y36571573D01*
G37*
%TD.AperFunction*%
%TD*%
%TA.AperFunction,Conductor*%
%TO.N,/LAN_JTAG_TDI*%
G36*
X13375521Y35076573D02*
G01*
X13378939Y35068756D01*
X13380488Y35029056D01*
X13380489Y35029046D01*
X13380499Y35028786D01*
X13386225Y34986059D01*
X13395274Y34950014D01*
X13407237Y34918844D01*
X13421710Y34890744D01*
X13438286Y34863907D01*
X13438345Y34863819D01*
X13456559Y34836528D01*
X13456600Y34836465D01*
X13475990Y34807002D01*
X13476234Y34806616D01*
X13496393Y34773215D01*
X13496734Y34772610D01*
X13513577Y34740544D01*
X13514390Y34731626D01*
X13511653Y34726995D01*
X13323433Y34531269D01*
X13315229Y34527681D01*
X13306567Y34531269D01*
X13118348Y34726994D01*
X13115083Y34735333D01*
X13116423Y34740544D01*
X13133261Y34772602D01*
X13133602Y34773208D01*
X13153765Y34806616D01*
X13154009Y34807002D01*
X13173399Y34836465D01*
X13173440Y34836528D01*
X13191654Y34863819D01*
X13191713Y34863907D01*
X13208289Y34890744D01*
X13222762Y34918844D01*
X13234725Y34950014D01*
X13243774Y34986059D01*
X13249500Y35028786D01*
X13251061Y35068757D01*
X13254808Y35076890D01*
X13262752Y35080000D01*
X13367248Y35080000D01*
X13375521Y35076573D01*
G37*
%TD.AperFunction*%
%TD*%
%TA.AperFunction,Conductor*%
%TO.N,/RESET*%
G36*
X6043421Y46081233D02*
G01*
X6479035Y45628263D01*
X6482300Y45619926D01*
X6480861Y45614528D01*
X6433957Y45529001D01*
X6433359Y45528028D01*
X6381075Y45451481D01*
X6380550Y45450771D01*
X6365404Y45431852D01*
X6328157Y45385328D01*
X6327880Y45384996D01*
X6304493Y45357898D01*
X6276971Y45326009D01*
X6276947Y45325980D01*
X6229405Y45269077D01*
X6229400Y45269070D01*
X6229267Y45268911D01*
X6186561Y45209183D01*
X6150493Y45142126D01*
X6122700Y45063042D01*
X6122617Y45062595D01*
X6122615Y45062589D01*
X6104895Y44967621D01*
X6104823Y44967233D01*
X6104802Y44966842D01*
X6099097Y44861070D01*
X6095230Y44852993D01*
X6087414Y44850000D01*
X5982586Y44850000D01*
X5974313Y44853427D01*
X5970903Y44861070D01*
X5965197Y44966841D01*
X5965197Y44966842D01*
X5965176Y44967232D01*
X5965104Y44967620D01*
X5947384Y45062586D01*
X5947382Y45062592D01*
X5947299Y45063039D01*
X5919506Y45142122D01*
X5883438Y45209178D01*
X5840731Y45268905D01*
X5793026Y45326002D01*
X5742109Y45384996D01*
X5742091Y45385017D01*
X5741815Y45385350D01*
X5689454Y45450750D01*
X5688926Y45451462D01*
X5688913Y45451481D01*
X5636615Y45528042D01*
X5636046Y45528969D01*
X5589130Y45614514D01*
X5588157Y45623414D01*
X5590956Y45628248D01*
X5855354Y45903199D01*
X6026556Y46081233D01*
X6034759Y46084821D01*
X6043421Y46081233D01*
G37*
%TD.AperFunction*%
%TD*%
%TA.AperFunction,Conductor*%
%TO.N,/CASE*%
G36*
X-32588448Y50581573D02*
G01*
X-32585021Y50573280D01*
X-32592767Y46307983D01*
X-32599885Y42388136D01*
X-32600000Y42325000D01*
X-14036700Y42325000D01*
X-14028427Y42321573D01*
X-14025000Y42313300D01*
X-14025000Y13811700D01*
X-14028427Y13803427D01*
X-14036700Y13800000D01*
X-44138295Y13800000D01*
X-44146568Y13803427D01*
X-44149995Y13811705D01*
X-44149512Y15035000D01*
X-20785000Y15035000D01*
X-19538390Y15035000D01*
X-19530117Y15031573D01*
X-19526690Y15023300D01*
X-19526690Y15002000D01*
X-18143309Y15002000D01*
X-18143309Y15023300D01*
X-18139882Y15031573D01*
X-18131609Y15035000D01*
X-15585000Y15035000D01*
X-15585000Y17135000D01*
X-18131609Y17135000D01*
X-18139882Y17138427D01*
X-18143309Y17146700D01*
X-18143309Y17168000D01*
X-19526690Y17168000D01*
X-19526690Y17146700D01*
X-19530117Y17138427D01*
X-19538390Y17135000D01*
X-20785000Y17135000D01*
X-20785000Y15035000D01*
X-44149512Y15035000D01*
X-44147448Y20261232D01*
X-37917829Y20261232D01*
X-37917501Y20260440D01*
X-37775436Y20173383D01*
X-37774616Y20172966D01*
X-37534361Y20073448D01*
X-37533491Y20073165D01*
X-37280613Y20012455D01*
X-37279715Y20012313D01*
X-37020457Y19991909D01*
X-37019543Y19991909D01*
X-36760285Y20012313D01*
X-36759387Y20012455D01*
X-36506509Y20073165D01*
X-36505639Y20073448D01*
X-36265384Y20172966D01*
X-36264564Y20173383D01*
X-36123190Y20260017D01*
X-36122144Y20261457D01*
X-36122278Y20262303D01*
X-37018354Y21158379D01*
X-37020000Y21159061D01*
X-37021646Y21158379D01*
X-37917147Y20262878D01*
X-37917829Y20261232D01*
X-44147448Y20261232D01*
X-44146212Y23392245D01*
X-42334042Y23392245D01*
X-42334002Y23391827D01*
X-42334002Y23391822D01*
X-42316249Y23205749D01*
X-42308136Y23120720D01*
X-42243305Y22855778D01*
X-42243147Y22855388D01*
X-42200172Y22749288D01*
X-42140908Y22602970D01*
X-42003088Y22367592D01*
X-42002824Y22367262D01*
X-42002822Y22367259D01*
X-41844559Y22169361D01*
X-41832734Y22154575D01*
X-41633413Y21968380D01*
X-41409302Y21812908D01*
X-41408925Y21812721D01*
X-41408926Y21812721D01*
X-41165476Y21691606D01*
X-41165470Y21691603D01*
X-41165095Y21691417D01*
X-41164698Y21691287D01*
X-41164696Y21691286D01*
X-40906309Y21606583D01*
X-40906303Y21606582D01*
X-40905908Y21606452D01*
X-40905499Y21606381D01*
X-40905495Y21606380D01*
X-40697011Y21570181D01*
X-40637171Y21559791D01*
X-40602961Y21558088D01*
X-40551124Y21555507D01*
X-40551114Y21555507D01*
X-40550978Y21555500D01*
X-40380718Y21555500D01*
X-40380517Y21555515D01*
X-40380505Y21555515D01*
X-40222639Y21566970D01*
X-40177957Y21570212D01*
X-40177543Y21570303D01*
X-40177539Y21570304D01*
X-39912028Y21628923D01*
X-39912023Y21628924D01*
X-39911613Y21629015D01*
X-39844233Y21654543D01*
X-38683091Y21654543D01*
X-38662687Y21395285D01*
X-38662545Y21394387D01*
X-38601835Y21141509D01*
X-38601552Y21140639D01*
X-38502034Y20900384D01*
X-38501617Y20899564D01*
X-38414983Y20758190D01*
X-38413543Y20757144D01*
X-38412697Y20757278D01*
X-37516621Y21653354D01*
X-37515939Y21655000D01*
X-36524061Y21655000D01*
X-36523379Y21653354D01*
X-35627878Y20757853D01*
X-35626232Y20757171D01*
X-35625440Y20757499D01*
X-35538383Y20899564D01*
X-35537966Y20900384D01*
X-35438448Y21140639D01*
X-35438165Y21141509D01*
X-35377455Y21394387D01*
X-35377313Y21395285D01*
X-35356909Y21654543D01*
X-35356909Y21655457D01*
X-35377313Y21914715D01*
X-35377455Y21915613D01*
X-35438165Y22168491D01*
X-35438448Y22169361D01*
X-35537966Y22409616D01*
X-35538383Y22410436D01*
X-35625017Y22551810D01*
X-35626457Y22552856D01*
X-35627303Y22552722D01*
X-36523379Y21656646D01*
X-36524061Y21655000D01*
X-37515939Y21655000D01*
X-37516621Y21656646D01*
X-38412122Y22552147D01*
X-38413768Y22552829D01*
X-38414560Y22552501D01*
X-38501617Y22410436D01*
X-38502034Y22409616D01*
X-38601552Y22169361D01*
X-38601835Y22168491D01*
X-38662545Y21915613D01*
X-38662687Y21914715D01*
X-38683091Y21655457D01*
X-38683091Y21654543D01*
X-39844233Y21654543D01*
X-39656547Y21725651D01*
X-39418102Y21858095D01*
X-39201275Y22023573D01*
X-39035555Y22193096D01*
X-39010905Y22218312D01*
X-39010904Y22218313D01*
X-39010606Y22218618D01*
X-38850090Y22439144D01*
X-38723090Y22680531D01*
X-38632266Y22937724D01*
X-38610703Y23047122D01*
X-38610423Y23048543D01*
X-37917856Y23048543D01*
X-37917722Y23047697D01*
X-37021646Y22151621D01*
X-37020000Y22150939D01*
X-37018354Y22151621D01*
X-36244975Y22925000D01*
X-32155130Y22925000D01*
X-32136662Y22749288D01*
X-32136471Y22748700D01*
X-32089246Y22603357D01*
X-32082065Y22581255D01*
X-31993725Y22428245D01*
X-31875502Y22296946D01*
X-31732565Y22193096D01*
X-31571160Y22121234D01*
X-31517578Y22109845D01*
X-31398944Y22084628D01*
X-31398940Y22084628D01*
X-31398340Y22084500D01*
X-31221660Y22084500D01*
X-31221060Y22084628D01*
X-31221056Y22084628D01*
X-31102422Y22109845D01*
X-31048840Y22121234D01*
X-30887435Y22193096D01*
X-30744498Y22296946D01*
X-30626275Y22428245D01*
X-30537935Y22581255D01*
X-30530753Y22603357D01*
X-30483529Y22748700D01*
X-30483338Y22749288D01*
X-30464870Y22925000D01*
X-30483338Y23100712D01*
X-30517198Y23204923D01*
X-30537746Y23268164D01*
X-30537747Y23268166D01*
X-30537935Y23268745D01*
X-30626275Y23421755D01*
X-30744498Y23553054D01*
X-30887435Y23656904D01*
X-31048840Y23728766D01*
X-31102422Y23740155D01*
X-31221056Y23765372D01*
X-31221060Y23765372D01*
X-31221660Y23765500D01*
X-31398340Y23765500D01*
X-31398940Y23765372D01*
X-31398944Y23765372D01*
X-31517578Y23740155D01*
X-31571160Y23728766D01*
X-31732565Y23656904D01*
X-31875502Y23553054D01*
X-31993725Y23421755D01*
X-32082065Y23268745D01*
X-32082253Y23268166D01*
X-32082254Y23268164D01*
X-32102802Y23204923D01*
X-32136662Y23100712D01*
X-32155130Y22925000D01*
X-36244975Y22925000D01*
X-36122853Y23047122D01*
X-36122171Y23048768D01*
X-36122499Y23049560D01*
X-36264564Y23136617D01*
X-36265384Y23137034D01*
X-36505639Y23236552D01*
X-36506509Y23236835D01*
X-36759387Y23297545D01*
X-36760285Y23297687D01*
X-37019543Y23318091D01*
X-37020457Y23318091D01*
X-37279715Y23297687D01*
X-37280613Y23297545D01*
X-37533491Y23236835D01*
X-37534361Y23236552D01*
X-37774616Y23137034D01*
X-37775436Y23136617D01*
X-37916810Y23049983D01*
X-37917856Y23048543D01*
X-38610423Y23048543D01*
X-38579601Y23204923D01*
X-38579520Y23205334D01*
X-38577951Y23236835D01*
X-38565979Y23477335D01*
X-38565958Y23477755D01*
X-38573176Y23553414D01*
X-38591823Y23748853D01*
X-38591824Y23748857D01*
X-38591864Y23749280D01*
X-38656695Y24014222D01*
X-38669369Y24045513D01*
X-38758935Y24266643D01*
X-38758936Y24266646D01*
X-38759092Y24267030D01*
X-38896912Y24502408D01*
X-38914055Y24523845D01*
X-39066997Y24715089D01*
X-39066999Y24715091D01*
X-39067266Y24715425D01*
X-39266587Y24901620D01*
X-39490698Y25057092D01*
X-39514128Y25068748D01*
X-39734524Y25178394D01*
X-39734530Y25178397D01*
X-39734905Y25178583D01*
X-39735302Y25178713D01*
X-39735304Y25178714D01*
X-39845995Y25215000D01*
X-32165185Y25215000D01*
X-32146497Y25037197D01*
X-32091250Y24867165D01*
X-32001859Y24712335D01*
X-31882230Y24579474D01*
X-31737593Y24474388D01*
X-31574267Y24401671D01*
X-31526844Y24391591D01*
X-31399995Y24364628D01*
X-31399991Y24364628D01*
X-31399391Y24364500D01*
X-31220609Y24364500D01*
X-31220009Y24364628D01*
X-31220005Y24364628D01*
X-31097018Y24390770D01*
X-22307272Y24390770D01*
X-22289908Y24257987D01*
X-22235975Y24135415D01*
X-22149808Y24032906D01*
X-22149115Y24032444D01*
X-22149113Y24032443D01*
X-22122325Y24014612D01*
X-22038333Y23958703D01*
X-21910513Y23918769D01*
X-21834506Y23917376D01*
X-21777453Y23916330D01*
X-21777451Y23916330D01*
X-21776622Y23916315D01*
X-21647424Y23951538D01*
X-21635754Y23958703D01*
X-21534010Y24021174D01*
X-21534009Y24021175D01*
X-21533305Y24021607D01*
X-21522497Y24033547D01*
X-21510496Y24046806D01*
X-21443440Y24120889D01*
X-21385051Y24241403D01*
X-21380739Y24267030D01*
X-21362908Y24373021D01*
X-21362834Y24373461D01*
X-21362693Y24385000D01*
X-21381677Y24517561D01*
X-21437104Y24639465D01*
X-21441813Y24644930D01*
X-21523974Y24740283D01*
X-21523975Y24740284D01*
X-21524517Y24740913D01*
X-21525212Y24741364D01*
X-21525215Y24741366D01*
X-21636191Y24813297D01*
X-21636890Y24813750D01*
X-21745149Y24846126D01*
X-21764389Y24851880D01*
X-21764391Y24851880D01*
X-21765189Y24852119D01*
X-21834510Y24852542D01*
X-21898267Y24852932D01*
X-21898268Y24852932D01*
X-21899099Y24852937D01*
X-21979170Y24830053D01*
X-22027060Y24816366D01*
X-22027061Y24816365D01*
X-22027857Y24816138D01*
X-22141112Y24744680D01*
X-22141660Y24744059D01*
X-22141664Y24744056D01*
X-22166693Y24715715D01*
X-22229758Y24644307D01*
X-22286669Y24523089D01*
X-22307272Y24390770D01*
X-31097018Y24390770D01*
X-31093156Y24391591D01*
X-31045733Y24401671D01*
X-30882407Y24474388D01*
X-30737770Y24579474D01*
X-30618141Y24712335D01*
X-30528750Y24867165D01*
X-30473503Y25037197D01*
X-30454815Y25215000D01*
X-30473503Y25392803D01*
X-30528750Y25562835D01*
X-30618141Y25717665D01*
X-30737770Y25850526D01*
X-30882407Y25955612D01*
X-31045733Y26028329D01*
X-31099943Y26039852D01*
X-31220005Y26065372D01*
X-31220009Y26065372D01*
X-31220609Y26065500D01*
X-31399391Y26065500D01*
X-31399991Y26065372D01*
X-31399995Y26065372D01*
X-31520057Y26039852D01*
X-31574267Y26028329D01*
X-31737592Y25955612D01*
X-31882230Y25850526D01*
X-32001859Y25717665D01*
X-32091250Y25562835D01*
X-32146497Y25392803D01*
X-32165185Y25215000D01*
X-39845995Y25215000D01*
X-39993691Y25263417D01*
X-39993697Y25263418D01*
X-39994092Y25263548D01*
X-39994501Y25263619D01*
X-39994505Y25263620D01*
X-40262489Y25310150D01*
X-40262490Y25310150D01*
X-40262829Y25310209D01*
X-40297039Y25311912D01*
X-40348876Y25314493D01*
X-40348886Y25314493D01*
X-40349022Y25314500D01*
X-40519282Y25314500D01*
X-40519483Y25314485D01*
X-40519495Y25314485D01*
X-40677361Y25303030D01*
X-40722043Y25299788D01*
X-40722457Y25299697D01*
X-40722461Y25299696D01*
X-40987972Y25241077D01*
X-40987977Y25241076D01*
X-40988387Y25240985D01*
X-41243453Y25144349D01*
X-41481898Y25011905D01*
X-41626089Y24901861D01*
X-41690201Y24852932D01*
X-41698725Y24846427D01*
X-41889394Y24651382D01*
X-42049910Y24430856D01*
X-42176910Y24189469D01*
X-42267734Y23932276D01*
X-42267816Y23931862D01*
X-42267817Y23931857D01*
X-42270837Y23916534D01*
X-42320480Y23664666D01*
X-42320500Y23664256D01*
X-42320501Y23664251D01*
X-42326059Y23552601D01*
X-42334042Y23392245D01*
X-44146212Y23392245D01*
X-44144788Y26998885D01*
X-38902500Y26998885D01*
X-38902499Y25451116D01*
X-38902386Y25450550D01*
X-38902386Y25450546D01*
X-38890779Y25392193D01*
X-38888430Y25380381D01*
X-38834833Y25300167D01*
X-38833875Y25299527D01*
X-38779832Y25263417D01*
X-38754619Y25246570D01*
X-38753490Y25246345D01*
X-38753489Y25246345D01*
X-38684454Y25232613D01*
X-38684452Y25232613D01*
X-38683885Y25232500D01*
X-37910000Y25232500D01*
X-37136116Y25232501D01*
X-37135550Y25232614D01*
X-37135546Y25232614D01*
X-37066515Y25246344D01*
X-37066513Y25246345D01*
X-37065381Y25246570D01*
X-37040167Y25263417D01*
X-36986125Y25299527D01*
X-36985167Y25300167D01*
X-36931570Y25380381D01*
X-36917500Y25451115D01*
X-36917501Y26603065D01*
X-36914074Y26611338D01*
X-36905801Y26614765D01*
X-36897528Y26611338D01*
X-36896632Y26610332D01*
X-36847399Y26548216D01*
X-36699174Y26422066D01*
X-36529269Y26327110D01*
X-36528730Y26326935D01*
X-36528728Y26326934D01*
X-36481079Y26311452D01*
X-36344156Y26266963D01*
X-36150886Y26243917D01*
X-36150326Y26243960D01*
X-36150324Y26243960D01*
X-35957390Y26258805D01*
X-35957389Y26258805D01*
X-35956820Y26258849D01*
X-35769351Y26311192D01*
X-35737838Y26327110D01*
X-35596132Y26398691D01*
X-35595619Y26398950D01*
X-35566391Y26421785D01*
X-35547755Y26436345D01*
X-35442241Y26518782D01*
X-35315060Y26666123D01*
X-35286324Y26716708D01*
X-35219202Y26834862D01*
X-35219200Y26834866D01*
X-35218919Y26835361D01*
X-35213610Y26851318D01*
X-35157661Y27019510D01*
X-35157660Y27019513D01*
X-35157482Y27020049D01*
X-35151099Y27070577D01*
X-35133128Y27212826D01*
X-35133087Y27213154D01*
X-35133025Y27217541D01*
X-35132703Y27240668D01*
X-35132698Y27241000D01*
X-35137578Y27290770D01*
X-22307272Y27290770D01*
X-22289908Y27157987D01*
X-22235975Y27035415D01*
X-22149808Y26932906D01*
X-22149115Y26932444D01*
X-22149113Y26932443D01*
X-22049126Y26865887D01*
X-22038333Y26858703D01*
X-21910513Y26818769D01*
X-21834506Y26817376D01*
X-21777453Y26816330D01*
X-21777451Y26816330D01*
X-21776622Y26816315D01*
X-21647424Y26851538D01*
X-21635754Y26858703D01*
X-21534010Y26921174D01*
X-21534009Y26921175D01*
X-21533305Y26921607D01*
X-21522497Y26933547D01*
X-21462842Y26999454D01*
X-21443440Y27020889D01*
X-21385051Y27141403D01*
X-21362834Y27273461D01*
X-21362764Y27279230D01*
X-21362698Y27284553D01*
X-21362698Y27284559D01*
X-21362693Y27285000D01*
X-21368772Y27327452D01*
X-21381303Y27414950D01*
X-21381677Y27417561D01*
X-21395418Y27447783D01*
X-21436761Y27538711D01*
X-21436762Y27538712D01*
X-21437104Y27539465D01*
X-21524517Y27640913D01*
X-21525212Y27641364D01*
X-21525215Y27641366D01*
X-21636191Y27713297D01*
X-21636890Y27713750D01*
X-21701039Y27732934D01*
X-21764389Y27751880D01*
X-21764391Y27751880D01*
X-21765189Y27752119D01*
X-21834510Y27752542D01*
X-21898267Y27752932D01*
X-21898268Y27752932D01*
X-21899099Y27752937D01*
X-21979170Y27730053D01*
X-22027060Y27716366D01*
X-22027061Y27716365D01*
X-22027857Y27716138D01*
X-22141112Y27644680D01*
X-22141660Y27644059D01*
X-22141664Y27644056D01*
X-22162475Y27620491D01*
X-22229758Y27544307D01*
X-22286669Y27423089D01*
X-22307272Y27290770D01*
X-35137578Y27290770D01*
X-35151691Y27434710D01*
X-35152816Y27438439D01*
X-35207782Y27620491D01*
X-35207948Y27621042D01*
X-35214484Y27633335D01*
X-35299056Y27792391D01*
X-35299058Y27792394D01*
X-35299326Y27792898D01*
X-35308335Y27803945D01*
X-35421985Y27943293D01*
X-35421986Y27943294D01*
X-35422344Y27943733D01*
X-35572316Y28067801D01*
X-35588256Y28076420D01*
X-35743023Y28160102D01*
X-35743024Y28160102D01*
X-35743530Y28160376D01*
X-35929465Y28217932D01*
X-35930026Y28217991D01*
X-35930031Y28217992D01*
X-36122467Y28238218D01*
X-36123038Y28238278D01*
X-36316876Y28220637D01*
X-36399981Y28196178D01*
X-36503050Y28165843D01*
X-36503053Y28165842D01*
X-36503596Y28165682D01*
X-36504094Y28165421D01*
X-36504098Y28165420D01*
X-36675584Y28075770D01*
X-36675588Y28075767D01*
X-36676086Y28075507D01*
X-36676528Y28075152D01*
X-36676532Y28075149D01*
X-36827331Y27953903D01*
X-36827776Y27953545D01*
X-36828136Y27953116D01*
X-36828141Y27953111D01*
X-36913937Y27850862D01*
X-36952887Y27804443D01*
X-36953160Y27803947D01*
X-36953161Y27803945D01*
X-37043135Y27640283D01*
X-37046656Y27633879D01*
X-37046827Y27633339D01*
X-37046829Y27633335D01*
X-37092999Y27487786D01*
X-37105509Y27448351D01*
X-37105572Y27447786D01*
X-37105573Y27447783D01*
X-37123092Y27291591D01*
X-37127205Y27254925D01*
X-37127157Y27254353D01*
X-37125127Y27230179D01*
X-37127850Y27221648D01*
X-37135807Y27217541D01*
X-37136786Y27217500D01*
X-37966293Y27217499D01*
X-38683884Y27217499D01*
X-38684450Y27217386D01*
X-38684454Y27217386D01*
X-38753485Y27203656D01*
X-38753487Y27203655D01*
X-38754619Y27203430D01*
X-38834833Y27149833D01*
X-38888430Y27069619D01*
X-38888655Y27068490D01*
X-38888655Y27068489D01*
X-38902387Y26999454D01*
X-38902500Y26998885D01*
X-44144788Y26998885D01*
X-44144286Y28270925D01*
X-38907205Y28270925D01*
X-38890918Y28076968D01*
X-38890761Y28076421D01*
X-38890761Y28076420D01*
X-38888186Y28067439D01*
X-38837268Y27889869D01*
X-38837004Y27889356D01*
X-38766892Y27752932D01*
X-38748299Y27716753D01*
X-38627399Y27564216D01*
X-38479174Y27438066D01*
X-38309269Y27343110D01*
X-38308730Y27342935D01*
X-38308728Y27342934D01*
X-38261079Y27327452D01*
X-38124156Y27282963D01*
X-37930886Y27259917D01*
X-37930326Y27259960D01*
X-37930324Y27259960D01*
X-37737390Y27274805D01*
X-37737389Y27274805D01*
X-37736820Y27274849D01*
X-37549351Y27327192D01*
X-37517838Y27343110D01*
X-37376132Y27414691D01*
X-37375619Y27414950D01*
X-37371305Y27418320D01*
X-37327755Y27452345D01*
X-37222241Y27534782D01*
X-37148259Y27620491D01*
X-37095431Y27681693D01*
X-37095430Y27681694D01*
X-37095060Y27682123D01*
X-37055432Y27751880D01*
X-36999202Y27850862D01*
X-36999200Y27850866D01*
X-36998919Y27851361D01*
X-36986279Y27889356D01*
X-36937661Y28035510D01*
X-36937660Y28035513D01*
X-36937482Y28036049D01*
X-36921754Y28160546D01*
X-36913128Y28228826D01*
X-36913087Y28229154D01*
X-36912959Y28238278D01*
X-36912703Y28256668D01*
X-36912698Y28257000D01*
X-36931691Y28450710D01*
X-36932816Y28454439D01*
X-36983288Y28621607D01*
X-36987948Y28637042D01*
X-36994484Y28649335D01*
X-37079056Y28808391D01*
X-37079058Y28808394D01*
X-37079326Y28808898D01*
X-37088335Y28819945D01*
X-37201985Y28959293D01*
X-37201986Y28959294D01*
X-37202344Y28959733D01*
X-37352316Y29083801D01*
X-37368256Y29092420D01*
X-37523023Y29176102D01*
X-37523024Y29176102D01*
X-37523530Y29176376D01*
X-37709465Y29233932D01*
X-37710026Y29233991D01*
X-37710031Y29233992D01*
X-37902467Y29254218D01*
X-37903038Y29254278D01*
X-38096876Y29236637D01*
X-38179981Y29212178D01*
X-38283050Y29181843D01*
X-38283053Y29181842D01*
X-38283596Y29181682D01*
X-38284094Y29181421D01*
X-38284098Y29181420D01*
X-38455584Y29091770D01*
X-38455588Y29091767D01*
X-38456086Y29091507D01*
X-38456528Y29091152D01*
X-38456532Y29091149D01*
X-38603453Y28973021D01*
X-38607776Y28969545D01*
X-38608136Y28969116D01*
X-38608141Y28969111D01*
X-38693937Y28866862D01*
X-38732887Y28820443D01*
X-38733160Y28819947D01*
X-38733161Y28819945D01*
X-38800133Y28698123D01*
X-38826656Y28649879D01*
X-38826827Y28649339D01*
X-38826829Y28649335D01*
X-38868168Y28519018D01*
X-38885509Y28464351D01*
X-38885572Y28463786D01*
X-38885573Y28463783D01*
X-38904040Y28299142D01*
X-38907205Y28270925D01*
X-44144286Y28270925D01*
X-44143885Y29286925D01*
X-37127205Y29286925D01*
X-37127157Y29286353D01*
X-37119369Y29193614D01*
X-37110918Y29092968D01*
X-37110761Y29092421D01*
X-37110761Y29092420D01*
X-37108186Y29083439D01*
X-37057268Y28905869D01*
X-36968299Y28732753D01*
X-36847399Y28580216D01*
X-36846962Y28579844D01*
X-36846961Y28579843D01*
X-36821831Y28558456D01*
X-36699174Y28454066D01*
X-36529269Y28359110D01*
X-36528730Y28358935D01*
X-36528728Y28358934D01*
X-36481079Y28343452D01*
X-36344156Y28298963D01*
X-36150886Y28275917D01*
X-36150326Y28275960D01*
X-36150324Y28275960D01*
X-35957390Y28290805D01*
X-35957389Y28290805D01*
X-35956820Y28290849D01*
X-35769351Y28343192D01*
X-35737838Y28359110D01*
X-35596132Y28430691D01*
X-35595619Y28430950D01*
X-35566391Y28453785D01*
X-35486338Y28516330D01*
X-35442241Y28550782D01*
X-35368259Y28636491D01*
X-35315431Y28697693D01*
X-35315430Y28697694D01*
X-35315060Y28698123D01*
X-35245325Y28820878D01*
X-35219202Y28866862D01*
X-35219200Y28866866D01*
X-35218919Y28867361D01*
X-35206279Y28905356D01*
X-35177866Y28990770D01*
X-28407272Y28990770D01*
X-28389908Y28857987D01*
X-28335975Y28735415D01*
X-28335436Y28734774D01*
X-28252821Y28636491D01*
X-28249808Y28632906D01*
X-28249115Y28632444D01*
X-28249113Y28632443D01*
X-28170652Y28580216D01*
X-28138333Y28558703D01*
X-28010513Y28518769D01*
X-27934506Y28517376D01*
X-27877453Y28516330D01*
X-27877451Y28516330D01*
X-27876622Y28516315D01*
X-27747424Y28551538D01*
X-27735754Y28558703D01*
X-27634010Y28621174D01*
X-27634009Y28621175D01*
X-27633305Y28621607D01*
X-27622497Y28633547D01*
X-27563599Y28698618D01*
X-27543440Y28720889D01*
X-27485051Y28841403D01*
X-27480592Y28867904D01*
X-27462908Y28973021D01*
X-27462834Y28973461D01*
X-27462761Y28979434D01*
X-27459233Y28987665D01*
X-27450848Y28990989D01*
X-27379109Y28989674D01*
X-27379107Y28989674D01*
X-27378278Y28989659D01*
X-27249080Y29024882D01*
X-27153120Y29083801D01*
X-27135666Y29094518D01*
X-27135665Y29094519D01*
X-27134961Y29094951D01*
X-27045096Y29194233D01*
X-26986707Y29314747D01*
X-26964490Y29446805D01*
X-26964349Y29458344D01*
X-26965161Y29464018D01*
X-26983215Y29590080D01*
X-26983333Y29590905D01*
X-27011818Y29653554D01*
X-27038417Y29712055D01*
X-27038418Y29712056D01*
X-27038760Y29712809D01*
X-27069731Y29748753D01*
X-27125630Y29813627D01*
X-27125631Y29813628D01*
X-27126173Y29814257D01*
X-27126868Y29814708D01*
X-27126871Y29814710D01*
X-27237847Y29886641D01*
X-27238546Y29887094D01*
X-27352503Y29921174D01*
X-27366045Y29925224D01*
X-27366047Y29925224D01*
X-27366845Y29925463D01*
X-27436166Y29925886D01*
X-27499923Y29926276D01*
X-27499924Y29926276D01*
X-27500755Y29926281D01*
X-27580826Y29903397D01*
X-27628716Y29889710D01*
X-27628717Y29889709D01*
X-27629513Y29889482D01*
X-27742768Y29818024D01*
X-27743316Y29817403D01*
X-27743320Y29817400D01*
X-27790114Y29764415D01*
X-27831414Y29717651D01*
X-27888325Y29596433D01*
X-27908928Y29464114D01*
X-27908891Y29463831D01*
X-27912336Y29455787D01*
X-27920581Y29452458D01*
X-27998267Y29452932D01*
X-27998268Y29452932D01*
X-27999099Y29452937D01*
X-28079170Y29430053D01*
X-28127060Y29416366D01*
X-28127061Y29416365D01*
X-28127857Y29416138D01*
X-28241112Y29344680D01*
X-28241660Y29344059D01*
X-28241664Y29344056D01*
X-28267199Y29315142D01*
X-28329758Y29244307D01*
X-28386669Y29123089D01*
X-28407272Y28990770D01*
X-35177866Y28990770D01*
X-35157661Y29051510D01*
X-35157660Y29051513D01*
X-35157482Y29052049D01*
X-35148612Y29122265D01*
X-35133128Y29244826D01*
X-35133087Y29245154D01*
X-35132959Y29254278D01*
X-35132703Y29272668D01*
X-35132698Y29273000D01*
X-35151691Y29466710D01*
X-35152816Y29470439D01*
X-35207782Y29652491D01*
X-35207948Y29653042D01*
X-35214484Y29665335D01*
X-35299056Y29824391D01*
X-35299058Y29824394D01*
X-35299326Y29824898D01*
X-35308335Y29835945D01*
X-35421985Y29975293D01*
X-35421986Y29975294D01*
X-35422344Y29975733D01*
X-35572316Y30099801D01*
X-35588256Y30108420D01*
X-35743023Y30192102D01*
X-35743024Y30192102D01*
X-35743530Y30192376D01*
X-35929465Y30249932D01*
X-35930026Y30249991D01*
X-35930031Y30249992D01*
X-36122467Y30270218D01*
X-36123038Y30270278D01*
X-36316876Y30252637D01*
X-36399981Y30228178D01*
X-36503050Y30197843D01*
X-36503053Y30197842D01*
X-36503596Y30197682D01*
X-36504094Y30197421D01*
X-36504098Y30197420D01*
X-36675584Y30107770D01*
X-36675588Y30107767D01*
X-36676086Y30107507D01*
X-36676528Y30107152D01*
X-36676532Y30107149D01*
X-36783817Y30020889D01*
X-36827776Y29985545D01*
X-36828136Y29985116D01*
X-36828141Y29985111D01*
X-36952522Y29836878D01*
X-36952887Y29836443D01*
X-36953160Y29835947D01*
X-36953161Y29835945D01*
X-37021270Y29712055D01*
X-37046656Y29665879D01*
X-37046827Y29665339D01*
X-37046829Y29665335D01*
X-37092999Y29519786D01*
X-37105509Y29480351D01*
X-37105572Y29479786D01*
X-37105573Y29479783D01*
X-37120677Y29345125D01*
X-37127205Y29286925D01*
X-44143885Y29286925D01*
X-44143629Y29933547D01*
X-44143483Y30302925D01*
X-38907205Y30302925D01*
X-38890918Y30108968D01*
X-38890761Y30108421D01*
X-38890761Y30108420D01*
X-38888186Y30099439D01*
X-38837268Y29921869D01*
X-38820623Y29889482D01*
X-38783133Y29816534D01*
X-38748299Y29748753D01*
X-38627399Y29596216D01*
X-38626962Y29595844D01*
X-38626961Y29595843D01*
X-38593321Y29567213D01*
X-38479174Y29470066D01*
X-38309269Y29375110D01*
X-38308730Y29374935D01*
X-38308728Y29374934D01*
X-38261079Y29359452D01*
X-38124156Y29314963D01*
X-37930886Y29291917D01*
X-37930326Y29291960D01*
X-37930324Y29291960D01*
X-37737390Y29306805D01*
X-37737389Y29306805D01*
X-37736820Y29306849D01*
X-37549351Y29359192D01*
X-37517838Y29375110D01*
X-37376132Y29446691D01*
X-37375619Y29446950D01*
X-37368672Y29452377D01*
X-37327755Y29484345D01*
X-37222241Y29566782D01*
X-37148259Y29652491D01*
X-37095431Y29713693D01*
X-37095430Y29713694D01*
X-37095060Y29714123D01*
X-37066324Y29764708D01*
X-36999202Y29882862D01*
X-36999200Y29882866D01*
X-36998919Y29883361D01*
X-36997597Y29887333D01*
X-36937661Y30067510D01*
X-36937660Y30067513D01*
X-36937482Y30068049D01*
X-36928111Y30142228D01*
X-36913128Y30260826D01*
X-36913087Y30261154D01*
X-36912959Y30270278D01*
X-36912703Y30288668D01*
X-36912698Y30289000D01*
X-36912872Y30290770D01*
X-22307272Y30290770D01*
X-22289908Y30157987D01*
X-22235975Y30035415D01*
X-22149808Y29932906D01*
X-22149115Y29932444D01*
X-22149113Y29932443D01*
X-22075377Y29883361D01*
X-22038333Y29858703D01*
X-21910513Y29818769D01*
X-21835820Y29817400D01*
X-21777453Y29816330D01*
X-21777451Y29816330D01*
X-21776622Y29816315D01*
X-21647424Y29851538D01*
X-21635754Y29858703D01*
X-21534010Y29921174D01*
X-21534009Y29921175D01*
X-21533305Y29921607D01*
X-21529281Y29926052D01*
X-21484313Y29975733D01*
X-21443440Y30020889D01*
X-21385051Y30141403D01*
X-21376521Y30192102D01*
X-21362908Y30273021D01*
X-21362834Y30273461D01*
X-21362693Y30285000D01*
X-21365984Y30307984D01*
X-21381559Y30416736D01*
X-21381677Y30417561D01*
X-21386725Y30428663D01*
X-21436761Y30538711D01*
X-21436762Y30538712D01*
X-21437104Y30539465D01*
X-21474428Y30582782D01*
X-21523974Y30640283D01*
X-21523975Y30640284D01*
X-21524517Y30640913D01*
X-21525212Y30641364D01*
X-21525215Y30641366D01*
X-21636191Y30713297D01*
X-21636890Y30713750D01*
X-21703088Y30733547D01*
X-21764389Y30751880D01*
X-21764391Y30751880D01*
X-21765189Y30752119D01*
X-21834510Y30752542D01*
X-21898267Y30752932D01*
X-21898268Y30752932D01*
X-21899099Y30752937D01*
X-21977192Y30730618D01*
X-22027060Y30716366D01*
X-22027061Y30716365D01*
X-22027857Y30716138D01*
X-22141112Y30644680D01*
X-22141660Y30644059D01*
X-22141664Y30644056D01*
X-22163776Y30619018D01*
X-22229758Y30544307D01*
X-22286669Y30423089D01*
X-22307272Y30290770D01*
X-36912872Y30290770D01*
X-36931691Y30482710D01*
X-36932816Y30486439D01*
X-36979265Y30640283D01*
X-36987948Y30669042D01*
X-36994484Y30681335D01*
X-37079056Y30840391D01*
X-37079058Y30840394D01*
X-37079326Y30840898D01*
X-37080649Y30842521D01*
X-37201985Y30991293D01*
X-37201986Y30991294D01*
X-37202344Y30991733D01*
X-37352316Y31115801D01*
X-37360094Y31120007D01*
X-37523023Y31208102D01*
X-37523024Y31208102D01*
X-37523530Y31208376D01*
X-37709465Y31265932D01*
X-37710026Y31265991D01*
X-37710031Y31265992D01*
X-37902467Y31286218D01*
X-37903038Y31286278D01*
X-38096876Y31268637D01*
X-38179981Y31244178D01*
X-38283050Y31213843D01*
X-38283053Y31213842D01*
X-38283596Y31213682D01*
X-38284094Y31213421D01*
X-38284098Y31213420D01*
X-38455584Y31123770D01*
X-38455588Y31123767D01*
X-38456086Y31123507D01*
X-38456528Y31123152D01*
X-38456532Y31123149D01*
X-38607331Y31001903D01*
X-38607776Y31001545D01*
X-38608136Y31001116D01*
X-38608141Y31001111D01*
X-38730791Y30854941D01*
X-38732887Y30852443D01*
X-38733160Y30851947D01*
X-38733161Y30851945D01*
X-38811114Y30710149D01*
X-38826656Y30681879D01*
X-38826827Y30681339D01*
X-38826829Y30681335D01*
X-38870099Y30544930D01*
X-38885509Y30496351D01*
X-38885572Y30495786D01*
X-38885573Y30495783D01*
X-38904040Y30331142D01*
X-38907205Y30302925D01*
X-44143483Y30302925D01*
X-44143082Y31318925D01*
X-37127205Y31318925D01*
X-37127157Y31318353D01*
X-37120192Y31235415D01*
X-37110918Y31124968D01*
X-37110761Y31124421D01*
X-37110761Y31124420D01*
X-37106509Y31109593D01*
X-37057268Y30937869D01*
X-36968299Y30764753D01*
X-36847399Y30612216D01*
X-36846962Y30611844D01*
X-36846961Y30611843D01*
X-36821025Y30589770D01*
X-36699174Y30486066D01*
X-36529269Y30391110D01*
X-36528730Y30390935D01*
X-36528728Y30390934D01*
X-36513647Y30386034D01*
X-36344156Y30330963D01*
X-36150886Y30307917D01*
X-36150326Y30307960D01*
X-36150324Y30307960D01*
X-35957390Y30322805D01*
X-35957389Y30322805D01*
X-35956820Y30322849D01*
X-35769351Y30375192D01*
X-35743492Y30388254D01*
X-35596132Y30462691D01*
X-35595619Y30462950D01*
X-35566391Y30485785D01*
X-35544297Y30503047D01*
X-35442241Y30582782D01*
X-35368259Y30668491D01*
X-35315431Y30729693D01*
X-35315430Y30729694D01*
X-35315060Y30730123D01*
X-35263849Y30820270D01*
X-35241126Y30860270D01*
X-34307272Y30860270D01*
X-34289908Y30727487D01*
X-34289572Y30726724D01*
X-34289572Y30726723D01*
X-34283969Y30713989D01*
X-34235975Y30604915D01*
X-34149808Y30502406D01*
X-34149115Y30501944D01*
X-34149113Y30501943D01*
X-34090144Y30462691D01*
X-34038333Y30428203D01*
X-33910513Y30388269D01*
X-33834506Y30386876D01*
X-33777453Y30385830D01*
X-33777451Y30385830D01*
X-33776622Y30385815D01*
X-33647424Y30421038D01*
X-33645425Y30422265D01*
X-33534010Y30490674D01*
X-33534009Y30490675D01*
X-33533305Y30491107D01*
X-33529072Y30495783D01*
X-33510496Y30516306D01*
X-33443440Y30590389D01*
X-33385051Y30710903D01*
X-33364103Y30835415D01*
X-33362908Y30842521D01*
X-33362834Y30842961D01*
X-33362718Y30852443D01*
X-33362698Y30854053D01*
X-33362698Y30854059D01*
X-33362693Y30854500D01*
X-33369117Y30899361D01*
X-33375138Y30941403D01*
X-33381677Y30987061D01*
X-33388065Y31001111D01*
X-33436761Y31108211D01*
X-33436762Y31108212D01*
X-33437104Y31108965D01*
X-33482856Y31162063D01*
X-33485660Y31170567D01*
X-33482666Y31177551D01*
X-33444003Y31220266D01*
X-33444000Y31220270D01*
X-33443440Y31220889D01*
X-33385051Y31341403D01*
X-33384115Y31346963D01*
X-33362908Y31473021D01*
X-33362834Y31473461D01*
X-33362693Y31485000D01*
X-33366528Y31511783D01*
X-33372232Y31551614D01*
X-30818116Y31551614D01*
X-30800752Y31418831D01*
X-30746819Y31296259D01*
X-30703735Y31245004D01*
X-30677406Y31213682D01*
X-30660652Y31193750D01*
X-30659959Y31193288D01*
X-30659957Y31193287D01*
X-30622991Y31168681D01*
X-30549177Y31119547D01*
X-30421357Y31079613D01*
X-30315614Y31077675D01*
X-30307406Y31074097D01*
X-30304228Y31067494D01*
X-30289908Y30957987D01*
X-30235975Y30835415D01*
X-30235436Y30834774D01*
X-30166641Y30752932D01*
X-30149808Y30732906D01*
X-30149115Y30732444D01*
X-30149113Y30732443D01*
X-30049126Y30665887D01*
X-30038333Y30658703D01*
X-29910513Y30618769D01*
X-29834506Y30617376D01*
X-29777453Y30616330D01*
X-29777451Y30616330D01*
X-29776622Y30616315D01*
X-29647424Y30651538D01*
X-29635754Y30658703D01*
X-29534010Y30721174D01*
X-29534009Y30721175D01*
X-29533305Y30721607D01*
X-29522497Y30733547D01*
X-29494660Y30764302D01*
X-29443440Y30820889D01*
X-29385051Y30941403D01*
X-29376522Y30992096D01*
X-29362908Y31073021D01*
X-29362834Y31073461D01*
X-29362711Y31083510D01*
X-29362698Y31084553D01*
X-29362698Y31084559D01*
X-29362693Y31085000D01*
X-29381677Y31217561D01*
X-29383190Y31220889D01*
X-29436761Y31338711D01*
X-29436762Y31338712D01*
X-29437104Y31339465D01*
X-29452405Y31357223D01*
X-29523974Y31440283D01*
X-29523975Y31440284D01*
X-29524517Y31440913D01*
X-29525212Y31441364D01*
X-29525215Y31441366D01*
X-29636191Y31513297D01*
X-29636890Y31513750D01*
X-29763500Y31551614D01*
X-29764389Y31551880D01*
X-29764391Y31551880D01*
X-29765189Y31552119D01*
X-29864450Y31552725D01*
X-29872702Y31556203D01*
X-29875960Y31562766D01*
X-29889664Y31658456D01*
X-29892521Y31678405D01*
X-29919941Y31738711D01*
X-29947605Y31799555D01*
X-29947606Y31799556D01*
X-29947948Y31800309D01*
X-29982392Y31840283D01*
X-30034818Y31901127D01*
X-30034819Y31901128D01*
X-30035361Y31901757D01*
X-30036056Y31902208D01*
X-30036059Y31902210D01*
X-30147035Y31974141D01*
X-30147734Y31974594D01*
X-30211883Y31993778D01*
X-30275233Y32012724D01*
X-30275235Y32012724D01*
X-30276033Y32012963D01*
X-30345354Y32013386D01*
X-30409111Y32013776D01*
X-30409112Y32013776D01*
X-30409943Y32013781D01*
X-30490014Y31990897D01*
X-30537904Y31977210D01*
X-30537905Y31977209D01*
X-30538701Y31976982D01*
X-30651956Y31905524D01*
X-30652504Y31904903D01*
X-30652508Y31904900D01*
X-30694510Y31857341D01*
X-30740602Y31805151D01*
X-30797513Y31683933D01*
X-30818116Y31551614D01*
X-33372232Y31551614D01*
X-33381559Y31616736D01*
X-33381677Y31617561D01*
X-33386352Y31627843D01*
X-33436761Y31738711D01*
X-33436762Y31738712D01*
X-33437104Y31739465D01*
X-33489530Y31800309D01*
X-33523974Y31840283D01*
X-33523975Y31840284D01*
X-33524517Y31840913D01*
X-33525212Y31841364D01*
X-33525215Y31841366D01*
X-33636191Y31913297D01*
X-33636890Y31913750D01*
X-33726835Y31940649D01*
X-33764389Y31951880D01*
X-33764391Y31951880D01*
X-33765189Y31952119D01*
X-33834510Y31952542D01*
X-33898267Y31952932D01*
X-33898268Y31952932D01*
X-33899099Y31952937D01*
X-33942094Y31940649D01*
X-34027060Y31916366D01*
X-34027061Y31916365D01*
X-34027857Y31916138D01*
X-34141112Y31844680D01*
X-34141660Y31844059D01*
X-34141664Y31844056D01*
X-34176023Y31805151D01*
X-34229758Y31744307D01*
X-34286669Y31623089D01*
X-34307272Y31490770D01*
X-34289908Y31357987D01*
X-34289572Y31357224D01*
X-34289572Y31357223D01*
X-34281758Y31339465D01*
X-34235975Y31235415D01*
X-34235436Y31234774D01*
X-34187057Y31177219D01*
X-34184357Y31168681D01*
X-34187243Y31161946D01*
X-34229758Y31113807D01*
X-34286669Y30992589D01*
X-34307272Y30860270D01*
X-35241126Y30860270D01*
X-35219202Y30898862D01*
X-35219200Y30898866D01*
X-35218919Y30899361D01*
X-35206279Y30937356D01*
X-35157661Y31083510D01*
X-35157660Y31083513D01*
X-35157482Y31084049D01*
X-35146687Y31169502D01*
X-35133128Y31276826D01*
X-35133087Y31277154D01*
X-35132959Y31286278D01*
X-35132820Y31296259D01*
X-35132698Y31305000D01*
X-35151691Y31498710D01*
X-35152816Y31502439D01*
X-35187803Y31618320D01*
X-35207948Y31685042D01*
X-35214484Y31697335D01*
X-35299056Y31856391D01*
X-35299058Y31856394D01*
X-35299326Y31856898D01*
X-35308335Y31867945D01*
X-35421985Y32007293D01*
X-35421986Y32007294D01*
X-35422344Y32007733D01*
X-35522718Y32090770D01*
X-33407272Y32090770D01*
X-33389908Y31957987D01*
X-33335975Y31835415D01*
X-33335436Y31834774D01*
X-33255321Y31739465D01*
X-33249808Y31732906D01*
X-33249115Y31732444D01*
X-33249113Y31732443D01*
X-33197934Y31698376D01*
X-33138333Y31658703D01*
X-33010513Y31618769D01*
X-32934506Y31617376D01*
X-32877453Y31616330D01*
X-32877451Y31616330D01*
X-32876622Y31616315D01*
X-32747424Y31651538D01*
X-32735754Y31658703D01*
X-32634010Y31721174D01*
X-32634009Y31721175D01*
X-32633305Y31721607D01*
X-32622497Y31733547D01*
X-32610496Y31746806D01*
X-32543440Y31820889D01*
X-32485051Y31941403D01*
X-32483110Y31952937D01*
X-32462908Y32073021D01*
X-32462834Y32073461D01*
X-32462693Y32085000D01*
X-32469343Y32131439D01*
X-32481559Y32216736D01*
X-32481677Y32217561D01*
X-32487261Y32229843D01*
X-32536758Y32338705D01*
X-32536760Y32338707D01*
X-32537104Y32339465D01*
X-32580543Y32389878D01*
X-32583348Y32398382D01*
X-32580354Y32405367D01*
X-32544770Y32444680D01*
X-32493440Y32501389D01*
X-32435051Y32621903D01*
X-32412834Y32753961D01*
X-32412763Y32759731D01*
X-32412698Y32765053D01*
X-32412698Y32765059D01*
X-32412693Y32765500D01*
X-32431677Y32898061D01*
X-32487104Y33019965D01*
X-32487645Y33020593D01*
X-32573974Y33120783D01*
X-32573975Y33120784D01*
X-32574517Y33121413D01*
X-32575212Y33121864D01*
X-32575215Y33121866D01*
X-32686191Y33193797D01*
X-32686890Y33194250D01*
X-32751039Y33213434D01*
X-32814389Y33232380D01*
X-32814391Y33232380D01*
X-32815189Y33232619D01*
X-32884510Y33233042D01*
X-32948267Y33233432D01*
X-32948268Y33233432D01*
X-32949099Y33233437D01*
X-33029170Y33210553D01*
X-33077060Y33196866D01*
X-33077061Y33196865D01*
X-33077857Y33196638D01*
X-33191112Y33125180D01*
X-33191660Y33124559D01*
X-33191664Y33124556D01*
X-33238458Y33071571D01*
X-33279758Y33024807D01*
X-33336669Y32903589D01*
X-33357272Y32771270D01*
X-33339908Y32638487D01*
X-33285975Y32515915D01*
X-33285436Y32515274D01*
X-33239765Y32460941D01*
X-33237065Y32452403D01*
X-33241015Y32444741D01*
X-33241112Y32444680D01*
X-33241660Y32444060D01*
X-33241663Y32444057D01*
X-33274220Y32407192D01*
X-33329758Y32344307D01*
X-33386669Y32223089D01*
X-33407272Y32090770D01*
X-35522718Y32090770D01*
X-35572316Y32131801D01*
X-35588256Y32140420D01*
X-35743023Y32224102D01*
X-35743024Y32224102D01*
X-35743530Y32224376D01*
X-35929465Y32281932D01*
X-35930026Y32281991D01*
X-35930031Y32281992D01*
X-36122467Y32302218D01*
X-36123038Y32302278D01*
X-36316876Y32284637D01*
X-36399981Y32260178D01*
X-36503050Y32229843D01*
X-36503053Y32229842D01*
X-36503596Y32229682D01*
X-36504094Y32229421D01*
X-36504098Y32229420D01*
X-36675584Y32139770D01*
X-36675588Y32139767D01*
X-36676086Y32139507D01*
X-36676528Y32139152D01*
X-36676532Y32139149D01*
X-36744435Y32084553D01*
X-36827776Y32017545D01*
X-36828136Y32017116D01*
X-36828141Y32017111D01*
X-36925462Y31901127D01*
X-36952887Y31868443D01*
X-36953160Y31867947D01*
X-36953161Y31867945D01*
X-37033849Y31721174D01*
X-37046656Y31697879D01*
X-37046827Y31697339D01*
X-37046829Y31697335D01*
X-37089516Y31562766D01*
X-37105509Y31512351D01*
X-37105572Y31511786D01*
X-37105573Y31511783D01*
X-37122731Y31358814D01*
X-37127205Y31318925D01*
X-44143082Y31318925D01*
X-44142681Y32334925D01*
X-38907205Y32334925D01*
X-38907157Y32334353D01*
X-38897280Y32216736D01*
X-38890918Y32140968D01*
X-38890761Y32140421D01*
X-38890761Y32140420D01*
X-38888186Y32131439D01*
X-38837268Y31953869D01*
X-38810719Y31902210D01*
X-38758349Y31800309D01*
X-38748299Y31780753D01*
X-38627399Y31628216D01*
X-38626962Y31627844D01*
X-38626961Y31627843D01*
X-38593321Y31599213D01*
X-38479174Y31502066D01*
X-38309269Y31407110D01*
X-38308730Y31406935D01*
X-38308728Y31406934D01*
X-38261079Y31391452D01*
X-38124156Y31346963D01*
X-37930886Y31323917D01*
X-37930326Y31323960D01*
X-37930324Y31323960D01*
X-37737390Y31338805D01*
X-37737389Y31338805D01*
X-37736820Y31338849D01*
X-37549351Y31391192D01*
X-37517838Y31407110D01*
X-37450023Y31441366D01*
X-37375619Y31478950D01*
X-37346391Y31501785D01*
X-37283671Y31550788D01*
X-37222241Y31598782D01*
X-37170122Y31659163D01*
X-37095431Y31745693D01*
X-37095430Y31745694D01*
X-37095060Y31746123D01*
X-37041569Y31840283D01*
X-36999202Y31914862D01*
X-36999200Y31914866D01*
X-36998919Y31915361D01*
X-36998660Y31916138D01*
X-36937661Y32099510D01*
X-36937660Y32099513D01*
X-36937482Y32100049D01*
X-36922741Y32216736D01*
X-36913128Y32292826D01*
X-36913087Y32293154D01*
X-36912959Y32302278D01*
X-36912703Y32320668D01*
X-36912698Y32321000D01*
X-36931691Y32514710D01*
X-36932054Y32515915D01*
X-36987782Y32700491D01*
X-36987948Y32701042D01*
X-36994484Y32713335D01*
X-37079056Y32872391D01*
X-37079058Y32872394D01*
X-37079326Y32872898D01*
X-37088335Y32883945D01*
X-37201985Y33023293D01*
X-37201986Y33023294D01*
X-37202344Y33023733D01*
X-37352316Y33147801D01*
X-37368256Y33156420D01*
X-37523023Y33240102D01*
X-37523024Y33240102D01*
X-37523530Y33240376D01*
X-37709465Y33297932D01*
X-37710026Y33297991D01*
X-37710031Y33297992D01*
X-37902467Y33318218D01*
X-37903038Y33318278D01*
X-38096876Y33300637D01*
X-38152588Y33284240D01*
X-38283050Y33245843D01*
X-38283053Y33245842D01*
X-38283596Y33245682D01*
X-38284094Y33245421D01*
X-38284098Y33245420D01*
X-38455584Y33155770D01*
X-38455588Y33155767D01*
X-38456086Y33155507D01*
X-38456528Y33155152D01*
X-38456532Y33155149D01*
X-38607331Y33033903D01*
X-38607776Y33033545D01*
X-38608136Y33033116D01*
X-38608141Y33033111D01*
X-38732522Y32884878D01*
X-38732887Y32884443D01*
X-38733160Y32883947D01*
X-38733161Y32883945D01*
X-38804862Y32753521D01*
X-38826656Y32713879D01*
X-38826827Y32713339D01*
X-38826829Y32713335D01*
X-38872999Y32567786D01*
X-38885509Y32528351D01*
X-38885572Y32527786D01*
X-38885573Y32527783D01*
X-38900020Y32398985D01*
X-38907205Y32334925D01*
X-44142681Y32334925D01*
X-44142280Y33350925D01*
X-37127205Y33350925D01*
X-37110918Y33156968D01*
X-37110761Y33156421D01*
X-37110761Y33156420D01*
X-37108186Y33147439D01*
X-37057268Y32969869D01*
X-37029300Y32915449D01*
X-36986909Y32832965D01*
X-36968299Y32796753D01*
X-36847399Y32644216D01*
X-36846962Y32643844D01*
X-36846961Y32643843D01*
X-36820296Y32621149D01*
X-36699174Y32518066D01*
X-36529269Y32423110D01*
X-36528730Y32422935D01*
X-36528728Y32422934D01*
X-36481079Y32407452D01*
X-36344156Y32362963D01*
X-36150886Y32339917D01*
X-36150326Y32339960D01*
X-36150324Y32339960D01*
X-35957390Y32354805D01*
X-35957389Y32354805D01*
X-35956820Y32354849D01*
X-35769351Y32407192D01*
X-35737838Y32423110D01*
X-35596132Y32494691D01*
X-35595619Y32494950D01*
X-35588169Y32500770D01*
X-35547755Y32532345D01*
X-35442241Y32614782D01*
X-35368259Y32700491D01*
X-35315431Y32761693D01*
X-35315430Y32761694D01*
X-35315060Y32762123D01*
X-35286324Y32812708D01*
X-35219202Y32930862D01*
X-35219200Y32930866D01*
X-35218919Y32931361D01*
X-35206279Y32969356D01*
X-35157661Y33115510D01*
X-35157660Y33115513D01*
X-35157482Y33116049D01*
X-35142786Y33232380D01*
X-35136138Y33285000D01*
X-22356965Y33285000D01*
X-22339179Y33149906D01*
X-22287035Y33024018D01*
X-22286564Y33023405D01*
X-22286564Y33023404D01*
X-22260891Y32989946D01*
X-22204085Y32915915D01*
X-22203479Y32915450D01*
X-22203478Y32915449D01*
X-22179742Y32897236D01*
X-22095983Y32832965D01*
X-21970094Y32780821D01*
X-21835000Y32763035D01*
X-21699906Y32780821D01*
X-21574017Y32832965D01*
X-21490258Y32897236D01*
X-21466522Y32915449D01*
X-21466521Y32915450D01*
X-21465915Y32915915D01*
X-21409109Y32989946D01*
X-21383436Y33023404D01*
X-21383436Y33023405D01*
X-21382965Y33024018D01*
X-21330821Y33149906D01*
X-21313035Y33285000D01*
X-21330821Y33420094D01*
X-21382965Y33545982D01*
X-21387187Y33551485D01*
X-21441944Y33622845D01*
X-21465915Y33654085D01*
X-21574017Y33737035D01*
X-21699906Y33789179D01*
X-21835000Y33806965D01*
X-21970094Y33789179D01*
X-22095982Y33737035D01*
X-22096593Y33736566D01*
X-22096596Y33736564D01*
X-22122756Y33716491D01*
X-22204085Y33654085D01*
X-22204552Y33653476D01*
X-22204553Y33653475D01*
X-22282812Y33551485D01*
X-22287035Y33545982D01*
X-22339179Y33420094D01*
X-22356965Y33285000D01*
X-35136138Y33285000D01*
X-35133128Y33308826D01*
X-35133087Y33309154D01*
X-35132959Y33318278D01*
X-35132703Y33336668D01*
X-35132698Y33337000D01*
X-35151691Y33530710D01*
X-35157887Y33551234D01*
X-35189081Y33654551D01*
X-35207948Y33717042D01*
X-35212997Y33726538D01*
X-35299056Y33888391D01*
X-35299058Y33888394D01*
X-35299326Y33888898D01*
X-35305027Y33895889D01*
X-35421985Y34039293D01*
X-35421986Y34039294D01*
X-35422344Y34039733D01*
X-35572316Y34163801D01*
X-35600958Y34179288D01*
X-35743023Y34256102D01*
X-35743024Y34256102D01*
X-35743530Y34256376D01*
X-35929465Y34313932D01*
X-35930026Y34313991D01*
X-35930031Y34313992D01*
X-36122467Y34334218D01*
X-36123038Y34334278D01*
X-36316876Y34316637D01*
X-36351036Y34306583D01*
X-36503050Y34261843D01*
X-36503053Y34261842D01*
X-36503596Y34261682D01*
X-36504094Y34261421D01*
X-36504098Y34261420D01*
X-36675584Y34171770D01*
X-36675588Y34171767D01*
X-36676086Y34171507D01*
X-36676528Y34171152D01*
X-36676532Y34171149D01*
X-36827331Y34049903D01*
X-36827776Y34049545D01*
X-36828136Y34049116D01*
X-36828141Y34049111D01*
X-36860346Y34010730D01*
X-36952887Y33900443D01*
X-36953160Y33899947D01*
X-36953161Y33899945D01*
X-37014055Y33789179D01*
X-37046656Y33729879D01*
X-37046827Y33729339D01*
X-37046829Y33729335D01*
X-37080530Y33623096D01*
X-37105509Y33544351D01*
X-37105572Y33543786D01*
X-37105573Y33543783D01*
X-37119367Y33420806D01*
X-37127205Y33350925D01*
X-44142280Y33350925D01*
X-44141197Y36092245D01*
X-42334042Y36092245D01*
X-42334002Y36091827D01*
X-42334002Y36091822D01*
X-42316119Y35904388D01*
X-42308136Y35820720D01*
X-42243305Y35555778D01*
X-42140908Y35302970D01*
X-42003088Y35067592D01*
X-42002824Y35067262D01*
X-42002822Y35067259D01*
X-41883706Y34918312D01*
X-41832734Y34854575D01*
X-41633413Y34668380D01*
X-41409302Y34512908D01*
X-41408925Y34512721D01*
X-41408926Y34512721D01*
X-41165476Y34391606D01*
X-41165470Y34391603D01*
X-41165095Y34391417D01*
X-41164698Y34391287D01*
X-41164696Y34391286D01*
X-40906309Y34306583D01*
X-40906303Y34306582D01*
X-40905908Y34306452D01*
X-40905499Y34306381D01*
X-40905495Y34306380D01*
X-40697011Y34270181D01*
X-40637171Y34259791D01*
X-40602961Y34258088D01*
X-40551124Y34255507D01*
X-40551114Y34255507D01*
X-40550978Y34255500D01*
X-40380718Y34255500D01*
X-40380517Y34255515D01*
X-40380505Y34255515D01*
X-40222639Y34266970D01*
X-40177957Y34270212D01*
X-40177543Y34270303D01*
X-40177539Y34270304D01*
X-39912028Y34328923D01*
X-39912023Y34328924D01*
X-39911613Y34329015D01*
X-39843027Y34355000D01*
X-32155130Y34355000D01*
X-32136662Y34179288D01*
X-32136471Y34178700D01*
X-32094622Y34049903D01*
X-32082065Y34011255D01*
X-31993725Y33858245D01*
X-31993316Y33857791D01*
X-31878590Y33730376D01*
X-31875502Y33726946D01*
X-31826481Y33691330D01*
X-31774379Y33653476D01*
X-31732565Y33623096D01*
X-31571160Y33551234D01*
X-31517578Y33539845D01*
X-31398944Y33514628D01*
X-31398940Y33514628D01*
X-31398340Y33514500D01*
X-31221660Y33514500D01*
X-31221060Y33514628D01*
X-31221056Y33514628D01*
X-31102422Y33539845D01*
X-31048840Y33551234D01*
X-30887435Y33623096D01*
X-30845620Y33653476D01*
X-30793519Y33691330D01*
X-30744498Y33726946D01*
X-30741409Y33730376D01*
X-30626684Y33857791D01*
X-30626275Y33858245D01*
X-30537935Y34011255D01*
X-30525377Y34049903D01*
X-30483529Y34178700D01*
X-30483338Y34179288D01*
X-30464870Y34355000D01*
X-30483338Y34530712D01*
X-30502048Y34588297D01*
X-30502313Y34589114D01*
X-29505616Y34589114D01*
X-29488252Y34456331D01*
X-29487916Y34455568D01*
X-29487916Y34455567D01*
X-29446527Y34361503D01*
X-29434319Y34333759D01*
X-29411475Y34306583D01*
X-29369272Y34256376D01*
X-29348152Y34231250D01*
X-29347459Y34230788D01*
X-29347457Y34230787D01*
X-29271009Y34179900D01*
X-29236677Y34157047D01*
X-29108857Y34117113D01*
X-29085909Y34116693D01*
X-29077701Y34113115D01*
X-29074523Y34106512D01*
X-29064908Y34032987D01*
X-29010975Y33910415D01*
X-28924808Y33807906D01*
X-28924115Y33807444D01*
X-28924113Y33807443D01*
X-28824126Y33740887D01*
X-28813333Y33733703D01*
X-28685513Y33693769D01*
X-28609506Y33692376D01*
X-28552453Y33691330D01*
X-28552451Y33691330D01*
X-28551622Y33691315D01*
X-28422424Y33726538D01*
X-28421021Y33727399D01*
X-28309010Y33796174D01*
X-28309009Y33796175D01*
X-28308305Y33796607D01*
X-28297497Y33808547D01*
X-28285496Y33821806D01*
X-28218440Y33895889D01*
X-28216233Y33900443D01*
X-28162800Y34010730D01*
X-28160051Y34016403D01*
X-28143178Y34116693D01*
X-28137908Y34148021D01*
X-28137834Y34148461D01*
X-28137693Y34160000D01*
X-28139378Y34171770D01*
X-28151984Y34259791D01*
X-28156677Y34292561D01*
X-28163052Y34306583D01*
X-28211761Y34413711D01*
X-28211762Y34413712D01*
X-28212104Y34414465D01*
X-28248178Y34456331D01*
X-28298974Y34515283D01*
X-28298975Y34515284D01*
X-28299517Y34515913D01*
X-28300212Y34516364D01*
X-28300215Y34516366D01*
X-28411191Y34588297D01*
X-28411890Y34588750D01*
X-28476039Y34607934D01*
X-28539389Y34626880D01*
X-28539391Y34626880D01*
X-28540189Y34627119D01*
X-28557249Y34627223D01*
X-28565500Y34630700D01*
X-28568759Y34637264D01*
X-28579903Y34715080D01*
X-28580021Y34715905D01*
X-28582878Y34722189D01*
X-28635105Y34837055D01*
X-28635106Y34837056D01*
X-28635448Y34837809D01*
X-28647009Y34851226D01*
X-28722318Y34938627D01*
X-28722319Y34938628D01*
X-28722861Y34939257D01*
X-28723556Y34939708D01*
X-28723559Y34939710D01*
X-28834535Y35011641D01*
X-28835234Y35012094D01*
X-28899384Y35031279D01*
X-28962733Y35050224D01*
X-28962735Y35050224D01*
X-28963533Y35050463D01*
X-29032854Y35050886D01*
X-29096611Y35051276D01*
X-29096612Y35051276D01*
X-29097443Y35051281D01*
X-29177514Y35028397D01*
X-29225404Y35014710D01*
X-29225405Y35014709D01*
X-29226201Y35014482D01*
X-29339456Y34943024D01*
X-29340004Y34942403D01*
X-29340008Y34942400D01*
X-29361011Y34918618D01*
X-29428102Y34842651D01*
X-29485013Y34721433D01*
X-29505616Y34589114D01*
X-30502313Y34589114D01*
X-30537746Y34698164D01*
X-30537747Y34698166D01*
X-30537935Y34698745D01*
X-30626275Y34851755D01*
X-30744498Y34983054D01*
X-30860854Y35067592D01*
X-30886935Y35086541D01*
X-30886937Y35086542D01*
X-30887435Y35086904D01*
X-31048840Y35158766D01*
X-31102422Y35170155D01*
X-31221056Y35195372D01*
X-31221060Y35195372D01*
X-31221660Y35195500D01*
X-31398340Y35195500D01*
X-31398940Y35195372D01*
X-31398944Y35195372D01*
X-31517578Y35170155D01*
X-31571160Y35158766D01*
X-31732565Y35086904D01*
X-31733063Y35086542D01*
X-31733065Y35086541D01*
X-31759146Y35067592D01*
X-31875502Y34983054D01*
X-31993725Y34851755D01*
X-32082065Y34698745D01*
X-32082253Y34698166D01*
X-32082254Y34698164D01*
X-32117952Y34588297D01*
X-32136662Y34530712D01*
X-32155130Y34355000D01*
X-39843027Y34355000D01*
X-39656547Y34425651D01*
X-39418102Y34558095D01*
X-39201275Y34723573D01*
X-39010606Y34918618D01*
X-38850090Y35139144D01*
X-38723090Y35380531D01*
X-38632266Y35637724D01*
X-38593989Y35831922D01*
X-38579601Y35904923D01*
X-38579520Y35905334D01*
X-38574335Y36009474D01*
X-38565979Y36177335D01*
X-38565958Y36177755D01*
X-38574979Y36272313D01*
X-38591823Y36448853D01*
X-38591824Y36448857D01*
X-38591864Y36449280D01*
X-38596397Y36467807D01*
X-38609470Y36521232D01*
X-37917829Y36521232D01*
X-37917501Y36520440D01*
X-37775436Y36433383D01*
X-37774616Y36432966D01*
X-37534361Y36333448D01*
X-37533491Y36333165D01*
X-37280613Y36272455D01*
X-37279715Y36272313D01*
X-37020457Y36251909D01*
X-37019543Y36251909D01*
X-36760285Y36272313D01*
X-36759387Y36272455D01*
X-36506509Y36333165D01*
X-36505639Y36333448D01*
X-36265384Y36432966D01*
X-36264564Y36433383D01*
X-36123190Y36520017D01*
X-36122144Y36521457D01*
X-36122278Y36522303D01*
X-36244975Y36645000D01*
X-32165185Y36645000D01*
X-32146497Y36467197D01*
X-32091250Y36297165D01*
X-32001859Y36142335D01*
X-31882230Y36009474D01*
X-31737593Y35904388D01*
X-31574267Y35831671D01*
X-31520804Y35820307D01*
X-31399995Y35794628D01*
X-31399991Y35794628D01*
X-31399391Y35794500D01*
X-31220609Y35794500D01*
X-31220009Y35794628D01*
X-31220005Y35794628D01*
X-31099196Y35820307D01*
X-31045733Y35831671D01*
X-30882407Y35904388D01*
X-30737770Y36009474D01*
X-30618141Y36142335D01*
X-30528750Y36297165D01*
X-30473503Y36467197D01*
X-30454815Y36645000D01*
X-30473503Y36822803D01*
X-30528750Y36992835D01*
X-30618141Y37147665D01*
X-30737770Y37280526D01*
X-30820552Y37340671D01*
X-30881907Y37385249D01*
X-30881909Y37385250D01*
X-30882407Y37385612D01*
X-31045733Y37458329D01*
X-31099943Y37469852D01*
X-31220005Y37495372D01*
X-31220009Y37495372D01*
X-31220609Y37495500D01*
X-31399391Y37495500D01*
X-31399991Y37495372D01*
X-31399995Y37495372D01*
X-31520057Y37469852D01*
X-31574267Y37458329D01*
X-31737592Y37385612D01*
X-31882230Y37280526D01*
X-32001859Y37147665D01*
X-32091250Y36992835D01*
X-32146497Y36822803D01*
X-32165185Y36645000D01*
X-36244975Y36645000D01*
X-37018354Y37418379D01*
X-37020000Y37419061D01*
X-37021646Y37418379D01*
X-37917147Y36522878D01*
X-37917829Y36521232D01*
X-38609470Y36521232D01*
X-38639607Y36644391D01*
X-38656695Y36714222D01*
X-38759092Y36967030D01*
X-38896912Y37202408D01*
X-38959384Y37280526D01*
X-39066997Y37415089D01*
X-39066999Y37415091D01*
X-39067266Y37415425D01*
X-39266587Y37601620D01*
X-39490698Y37757092D01*
X-39514128Y37768748D01*
X-39734524Y37878394D01*
X-39734530Y37878397D01*
X-39734905Y37878583D01*
X-39735302Y37878713D01*
X-39735304Y37878714D01*
X-39844601Y37914543D01*
X-38683091Y37914543D01*
X-38662687Y37655285D01*
X-38662545Y37654387D01*
X-38601835Y37401509D01*
X-38601552Y37400639D01*
X-38502034Y37160384D01*
X-38501617Y37159564D01*
X-38414983Y37018190D01*
X-38413543Y37017144D01*
X-38412697Y37017278D01*
X-37516621Y37913354D01*
X-37515939Y37915000D01*
X-36524061Y37915000D01*
X-36523379Y37913354D01*
X-35627878Y37017853D01*
X-35626232Y37017171D01*
X-35625440Y37017499D01*
X-35538383Y37159564D01*
X-35537966Y37160384D01*
X-35438448Y37400639D01*
X-35438165Y37401509D01*
X-35377455Y37654387D01*
X-35377313Y37655285D01*
X-35356909Y37914543D01*
X-35356909Y37915457D01*
X-35377313Y38174715D01*
X-35377455Y38175613D01*
X-35438165Y38428491D01*
X-35438448Y38429361D01*
X-35537966Y38669616D01*
X-35538383Y38670436D01*
X-35625017Y38811810D01*
X-35626457Y38812856D01*
X-35627303Y38812722D01*
X-36523379Y37916646D01*
X-36524061Y37915000D01*
X-37515939Y37915000D01*
X-37516621Y37916646D01*
X-38412122Y38812147D01*
X-38413768Y38812829D01*
X-38414560Y38812501D01*
X-38501617Y38670436D01*
X-38502034Y38669616D01*
X-38601552Y38429361D01*
X-38601835Y38428491D01*
X-38662545Y38175613D01*
X-38662687Y38174715D01*
X-38683091Y37915457D01*
X-38683091Y37914543D01*
X-39844601Y37914543D01*
X-39993691Y37963417D01*
X-39993697Y37963418D01*
X-39994092Y37963548D01*
X-39994501Y37963619D01*
X-39994505Y37963620D01*
X-40262489Y38010150D01*
X-40262490Y38010150D01*
X-40262829Y38010209D01*
X-40297039Y38011912D01*
X-40348876Y38014493D01*
X-40348886Y38014493D01*
X-40349022Y38014500D01*
X-40519282Y38014500D01*
X-40519483Y38014485D01*
X-40519495Y38014485D01*
X-40677361Y38003030D01*
X-40722043Y37999788D01*
X-40722457Y37999697D01*
X-40722461Y37999696D01*
X-40987972Y37941077D01*
X-40987977Y37941076D01*
X-40988387Y37940985D01*
X-41243453Y37844349D01*
X-41481898Y37711905D01*
X-41698725Y37546427D01*
X-41889394Y37351382D01*
X-42049910Y37130856D01*
X-42176910Y36889469D01*
X-42267734Y36632276D01*
X-42267816Y36631862D01*
X-42267817Y36631857D01*
X-42300151Y36467807D01*
X-42320480Y36364666D01*
X-42320500Y36364256D01*
X-42320501Y36364251D01*
X-42329764Y36178178D01*
X-42334042Y36092245D01*
X-44141197Y36092245D01*
X-44139927Y39308543D01*
X-37917856Y39308543D01*
X-37917722Y39307697D01*
X-37021646Y38411621D01*
X-37020000Y38410939D01*
X-37018354Y38411621D01*
X-36122853Y39307122D01*
X-36122171Y39308768D01*
X-36122499Y39309560D01*
X-36264564Y39396617D01*
X-36265384Y39397034D01*
X-36505639Y39496552D01*
X-36506509Y39496835D01*
X-36759387Y39557545D01*
X-36760285Y39557687D01*
X-37019543Y39578091D01*
X-37020457Y39578091D01*
X-37279715Y39557687D01*
X-37280613Y39557545D01*
X-37533491Y39496835D01*
X-37534361Y39496552D01*
X-37774616Y39397034D01*
X-37775436Y39396617D01*
X-37916810Y39309983D01*
X-37917856Y39308543D01*
X-44139927Y39308543D01*
X-44138465Y43010793D01*
X-39763268Y43010793D01*
X-39762819Y43009709D01*
X-39556911Y42851711D01*
X-39556382Y42851349D01*
X-39250774Y42665536D01*
X-39250198Y42665227D01*
X-38926315Y42513510D01*
X-38925711Y42513265D01*
X-38587326Y42397410D01*
X-38586719Y42397238D01*
X-38237780Y42318601D01*
X-38237176Y42318499D01*
X-37881778Y42278007D01*
X-37881168Y42277970D01*
X-37523483Y42276098D01*
X-37522853Y42276129D01*
X-37167070Y42312895D01*
X-37166446Y42312994D01*
X-36816713Y42387970D01*
X-36816102Y42388136D01*
X-36476510Y42500445D01*
X-36475937Y42500670D01*
X-36150447Y42649004D01*
X-36149894Y42649294D01*
X-35842354Y42831898D01*
X-35841809Y42832262D01*
X-35606884Y43008649D01*
X-35605977Y43010183D01*
X-35606259Y43011284D01*
X-37683354Y45088379D01*
X-37685000Y45089061D01*
X-37686646Y45088379D01*
X-39762586Y43012439D01*
X-39763268Y43010793D01*
X-44138465Y43010793D01*
X-44137444Y45596248D01*
X-40997823Y45596248D01*
X-40979727Y45239025D01*
X-40979662Y45238404D01*
X-40923092Y44885227D01*
X-40922955Y44884598D01*
X-40828576Y44539606D01*
X-40828377Y44539007D01*
X-40697288Y44206216D01*
X-40697023Y44205638D01*
X-40530761Y43888956D01*
X-40530435Y43888409D01*
X-40330940Y43591530D01*
X-40330567Y43591035D01*
X-40260468Y43507788D01*
X-40258885Y43506968D01*
X-40257599Y43507376D01*
X-38181621Y45583354D01*
X-38180939Y45585000D01*
X-37189061Y45585000D01*
X-37188379Y45583354D01*
X-35112047Y43507022D01*
X-35110640Y43506439D01*
X-35108735Y43507313D01*
X-35060463Y43563434D01*
X-35060074Y43563939D01*
X-34857483Y43858712D01*
X-34857162Y43859238D01*
X-34687583Y44174180D01*
X-34687317Y44174746D01*
X-34552752Y44506139D01*
X-34552541Y44506752D01*
X-34454557Y44850730D01*
X-34454414Y44851354D01*
X-34394149Y45203917D01*
X-34394076Y45204549D01*
X-34372233Y45561691D01*
X-34372221Y45562048D01*
X-34372142Y45584844D01*
X-34372149Y45585155D01*
X-34391501Y45942476D01*
X-34391569Y45943098D01*
X-34449369Y46296063D01*
X-34449511Y46296708D01*
X-34545092Y46641361D01*
X-34545293Y46641958D01*
X-34677543Y46974291D01*
X-34677810Y46974868D01*
X-34845180Y47290974D01*
X-34845504Y47291511D01*
X-35046028Y47587685D01*
X-35046413Y47588193D01*
X-35109347Y47662400D01*
X-35110929Y47663213D01*
X-35112229Y47662796D01*
X-37188379Y45586646D01*
X-37189061Y45585000D01*
X-38180939Y45585000D01*
X-38181621Y45586646D01*
X-40257714Y47662739D01*
X-40259109Y47663317D01*
X-40261027Y47662433D01*
X-40316576Y47597394D01*
X-40316969Y47596880D01*
X-40518517Y47301420D01*
X-40518852Y47300867D01*
X-40687324Y46985348D01*
X-40687585Y46984788D01*
X-40820999Y46652913D01*
X-40821203Y46652311D01*
X-40917989Y46307983D01*
X-40918126Y46307374D01*
X-40977162Y45954583D01*
X-40977231Y45953975D01*
X-40997821Y45596876D01*
X-40997823Y45596248D01*
X-44137444Y45596248D01*
X-44136431Y48159542D01*
X-39763746Y48159542D01*
X-39763456Y48158431D01*
X-37686646Y46081621D01*
X-37685000Y46080939D01*
X-37683354Y46081621D01*
X-35607195Y48157780D01*
X-35606513Y48159426D01*
X-35606957Y48160499D01*
X-35822644Y48324808D01*
X-35823173Y48325167D01*
X-36129434Y48509916D01*
X-36129996Y48510215D01*
X-36454421Y48660808D01*
X-36455013Y48661045D01*
X-36793810Y48775722D01*
X-36794407Y48775889D01*
X-37143615Y48853305D01*
X-37144244Y48853409D01*
X-37499744Y48892657D01*
X-37500397Y48892694D01*
X-37858068Y48893318D01*
X-37858693Y48893286D01*
X-38214358Y48855276D01*
X-38214971Y48855176D01*
X-38564430Y48778982D01*
X-38565060Y48778808D01*
X-38904232Y48665323D01*
X-38904836Y48665084D01*
X-39229784Y48515625D01*
X-39230353Y48515324D01*
X-39537248Y48331652D01*
X-39537778Y48331295D01*
X-39762844Y48161079D01*
X-39763746Y48159542D01*
X-44136431Y48159542D01*
X-44135478Y50573306D01*
X-44132049Y50581576D01*
X-44123779Y50585000D01*
X-32596721Y50585000D01*
X-32588448Y50581573D01*
G37*
%TD.AperFunction*%
%TD*%
%TA.AperFunction,Conductor*%
%TO.N,/CASE*%
G36*
X-34235000Y41985000D02*
G01*
X-41235000Y41985000D01*
X-41235000Y48985000D01*
X-34235000Y48985000D01*
X-34235000Y41985000D01*
G37*
%TD.AperFunction*%
%TD*%
%TA.AperFunction,Conductor*%
%TO.N,GND*%
G36*
X22808016Y50577251D02*
G01*
X22853783Y50524458D01*
X22865000Y50472921D01*
X22865000Y14159000D01*
X22845315Y14091961D01*
X22792511Y14046206D01*
X22741000Y14035000D01*
X20165000Y14035000D01*
X20165000Y12918257D01*
X20145315Y12851218D01*
X20111453Y12820923D01*
X20110243Y12819654D01*
X20109828Y12819581D01*
X20106568Y12815696D01*
X20105630Y12814816D01*
X20104725Y12813867D01*
X20098355Y12811548D01*
X20093869Y12803778D01*
X20093343Y12802868D01*
X20087345Y12794301D01*
X20085961Y12791139D01*
X20074500Y12777480D01*
X20074500Y12770229D01*
X20070876Y12763952D01*
X20072618Y12754073D01*
X20074500Y12732552D01*
X20074500Y5724000D01*
X20054815Y5656961D01*
X20002011Y5611206D01*
X19950500Y5600000D01*
X13149500Y5600000D01*
X13082461Y5619685D01*
X13036706Y5672489D01*
X13025500Y5724000D01*
X13025500Y7438043D01*
X13029857Y7438043D01*
X13028605Y7447601D01*
X13029385Y7450000D01*
X13029893Y7450000D01*
X13012357Y7639242D01*
X12960347Y7822040D01*
X12875633Y7992169D01*
X12872184Y7996736D01*
X12872181Y7996741D01*
X12764557Y8139256D01*
X12761100Y8143834D01*
X12620649Y8271872D01*
X12459063Y8371922D01*
X12364878Y8408409D01*
X12287191Y8438506D01*
X12287187Y8438507D01*
X12281844Y8440577D01*
X12276209Y8441630D01*
X12276207Y8441631D01*
X12100657Y8474448D01*
X12100652Y8474448D01*
X12095027Y8475500D01*
X11904973Y8475500D01*
X11899348Y8474448D01*
X11899343Y8474448D01*
X11723793Y8441631D01*
X11723791Y8441630D01*
X11718156Y8440577D01*
X11712813Y8438507D01*
X11712809Y8438506D01*
X11635122Y8408409D01*
X11540937Y8371922D01*
X11379351Y8271872D01*
X11238900Y8143834D01*
X11235443Y8139256D01*
X11127819Y7996741D01*
X11127816Y7996736D01*
X11124367Y7992169D01*
X11039653Y7822040D01*
X10987643Y7639242D01*
X10970107Y7450000D01*
X10970615Y7450000D01*
X10971544Y7447141D01*
X10970701Y7438043D01*
X10974500Y7438043D01*
X10974500Y5724000D01*
X10954815Y5656961D01*
X10902011Y5611206D01*
X10850500Y5600000D01*
X1648849Y5600000D01*
X1581810Y5619685D01*
X1536055Y5672489D01*
X1526111Y5741647D01*
X1555136Y5805203D01*
X1592555Y5834485D01*
X1623008Y5850001D01*
X1690967Y5884628D01*
X1770372Y5964033D01*
X1821352Y6064088D01*
X1838919Y6175000D01*
X1821352Y6285912D01*
X1770372Y6385967D01*
X1690967Y6465372D01*
X1590912Y6516352D01*
X1581277Y6517878D01*
X1581274Y6517879D01*
X1489641Y6532392D01*
X1480000Y6533919D01*
X1470359Y6532392D01*
X1378726Y6517879D01*
X1378723Y6517878D01*
X1369088Y6516352D01*
X1269033Y6465372D01*
X1189628Y6385967D01*
X1138648Y6285912D01*
X1121081Y6175000D01*
X1138648Y6064088D01*
X1189628Y5964033D01*
X1269033Y5884628D01*
X1336992Y5850001D01*
X1367445Y5834485D01*
X1418242Y5786511D01*
X1435037Y5718690D01*
X1412500Y5652555D01*
X1357785Y5609103D01*
X1311151Y5600000D01*
X49500Y5600000D01*
X-17539Y5619685D01*
X-63294Y5672489D01*
X-74500Y5724000D01*
X-74500Y9346478D01*
X-54815Y9413517D01*
X-2011Y9459272D01*
X67147Y9469216D01*
X130703Y9440191D01*
X159985Y9402772D01*
X174628Y9374033D01*
X254033Y9294628D01*
X354088Y9243648D01*
X363723Y9242122D01*
X363726Y9242121D01*
X455359Y9227608D01*
X465000Y9226081D01*
X474641Y9227608D01*
X566274Y9242121D01*
X566277Y9242122D01*
X575912Y9243648D01*
X675967Y9294628D01*
X755372Y9374033D01*
X806352Y9474088D01*
X823919Y9585000D01*
X806352Y9695912D01*
X755372Y9795967D01*
X675967Y9875372D01*
X575912Y9926352D01*
X566277Y9927878D01*
X566274Y9927879D01*
X474641Y9942392D01*
X465000Y9943919D01*
X455359Y9942392D01*
X363726Y9927879D01*
X363723Y9927878D01*
X354088Y9926352D01*
X254033Y9875372D01*
X174628Y9795967D01*
X170198Y9787272D01*
X159985Y9767228D01*
X112011Y9716432D01*
X44190Y9699636D01*
X-21945Y9722173D01*
X-65397Y9776888D01*
X-74500Y9823522D01*
X-74500Y10910653D01*
X-74201Y10913963D01*
X-70615Y10925000D01*
X-70059Y10925000D01*
X-78559Y11049266D01*
X-87513Y11180168D01*
X-87514Y11180172D01*
X-87802Y11184389D01*
X-140699Y11438947D01*
X-142840Y11444971D01*
X-143084Y11446385D01*
X-143262Y11447021D01*
X-143197Y11447039D01*
X-150000Y11486497D01*
X-150000Y11501301D01*
X14059336Y11501301D01*
X14077122Y11366207D01*
X14129266Y11240319D01*
X14212216Y11132216D01*
X14320318Y11049266D01*
X14327830Y11046155D01*
X14327829Y11046155D01*
X14438693Y11000234D01*
X14438695Y11000233D01*
X14446207Y10997122D01*
X14581301Y10979336D01*
X14716395Y10997122D01*
X14723907Y11000233D01*
X14723909Y11000234D01*
X14834773Y11046155D01*
X14834772Y11046155D01*
X14842284Y11049266D01*
X14950386Y11132216D01*
X15033336Y11240319D01*
X15085480Y11366207D01*
X15086542Y11374270D01*
X15098029Y11461519D01*
X15126296Y11525416D01*
X15184621Y11563886D01*
X15204782Y11568272D01*
X15292031Y11579759D01*
X15292034Y11579760D01*
X15300094Y11580821D01*
X15307606Y11583932D01*
X15307608Y11583933D01*
X15418472Y11629854D01*
X15418471Y11629854D01*
X15425983Y11632965D01*
X15534085Y11715915D01*
X15617035Y11824018D01*
X15625301Y11843975D01*
X15666067Y11942392D01*
X15666068Y11942395D01*
X15669179Y11949906D01*
X15686965Y12085000D01*
X15669179Y12220094D01*
X15659012Y12244641D01*
X15620147Y12338469D01*
X15617035Y12345982D01*
X15605086Y12361555D01*
X15539031Y12447639D01*
X15534085Y12454085D01*
X15425983Y12537035D01*
X15344572Y12570756D01*
X15307608Y12586067D01*
X15307606Y12586068D01*
X15300094Y12589179D01*
X15165000Y12606965D01*
X15029906Y12589179D01*
X15022395Y12586068D01*
X15022392Y12586067D01*
X14921502Y12544277D01*
X14904018Y12537035D01*
X14897571Y12532088D01*
X14897568Y12532086D01*
X14833109Y12482625D01*
X14795915Y12454085D01*
X14790969Y12447639D01*
X14790968Y12447638D01*
X14724915Y12361555D01*
X14712965Y12345982D01*
X14709853Y12338469D01*
X14670989Y12244641D01*
X14660821Y12220094D01*
X14659760Y12212034D01*
X14659759Y12212031D01*
X14648272Y12124782D01*
X14620005Y12060885D01*
X14561680Y12022415D01*
X14541519Y12018029D01*
X14454270Y12006542D01*
X14454267Y12006541D01*
X14446207Y12005480D01*
X14438696Y12002369D01*
X14438693Y12002368D01*
X14419160Y11994277D01*
X14320319Y11953336D01*
X14313870Y11948388D01*
X14313869Y11948387D01*
X14218663Y11875333D01*
X14212216Y11870386D01*
X14129266Y11762283D01*
X14126154Y11754770D01*
X14093935Y11676985D01*
X14077122Y11636395D01*
X14059336Y11501301D01*
X-150000Y11501301D01*
X-150000Y12735000D01*
X3605458Y12735000D01*
X3625502Y12608445D01*
X3683674Y12494277D01*
X3774277Y12403674D01*
X3888445Y12345502D01*
X3956849Y12334668D01*
X4004108Y12327183D01*
X4067242Y12297254D01*
X4104174Y12237943D01*
X4107183Y12224108D01*
X4125502Y12108445D01*
X4183674Y11994277D01*
X4274277Y11903674D01*
X4388445Y11845502D01*
X4515000Y11825458D01*
X4641555Y11845502D01*
X4755723Y11903674D01*
X4846326Y11994277D01*
X4892552Y12085000D01*
X8955458Y12085000D01*
X8975502Y11958445D01*
X9033674Y11844277D01*
X9124277Y11753674D01*
X9238445Y11695502D01*
X9365000Y11675458D01*
X9491555Y11695502D01*
X9605723Y11753674D01*
X9696326Y11844277D01*
X9754498Y11958445D01*
X9774542Y12085000D01*
X9754498Y12211555D01*
X9750067Y12220251D01*
X9747701Y12227533D01*
X9745706Y12297374D01*
X9781786Y12357207D01*
X9846234Y12388324D01*
X9891555Y12395502D01*
X10005723Y12453674D01*
X10096326Y12544277D01*
X10154498Y12658445D01*
X10174542Y12785000D01*
X10154498Y12911555D01*
X10096326Y13025723D01*
X10005723Y13116326D01*
X9891555Y13174498D01*
X9765000Y13194542D01*
X9638445Y13174498D01*
X9524277Y13116326D01*
X9433674Y13025723D01*
X9375502Y12911555D01*
X9355458Y12785000D01*
X9375502Y12658445D01*
X9379933Y12649749D01*
X9382299Y12642467D01*
X9384294Y12572626D01*
X9348214Y12512793D01*
X9283766Y12481676D01*
X9238445Y12474498D01*
X9124277Y12416326D01*
X9033674Y12325723D01*
X8975502Y12211555D01*
X8955458Y12085000D01*
X4892552Y12085000D01*
X4904498Y12108445D01*
X4924542Y12235000D01*
X4904498Y12361555D01*
X4846326Y12475723D01*
X4755723Y12566326D01*
X4641555Y12624498D01*
X4573151Y12635332D01*
X4525892Y12642817D01*
X4462758Y12672746D01*
X4425826Y12732057D01*
X4422817Y12745892D01*
X4406025Y12851913D01*
X4404498Y12861555D01*
X4346326Y12975723D01*
X4255723Y13066326D01*
X4141555Y13124498D01*
X4015000Y13144542D01*
X3888445Y13124498D01*
X3774277Y13066326D01*
X3683674Y12975723D01*
X3625502Y12861555D01*
X3605458Y12735000D01*
X-150000Y12735000D01*
X-150000Y13750000D01*
X-12101000Y13750000D01*
X-12168039Y13769685D01*
X-12213794Y13822489D01*
X-12225000Y13874000D01*
X-12225000Y14618699D01*
X13809336Y14618699D01*
X13827122Y14483605D01*
X13830233Y14476094D01*
X13830234Y14476091D01*
X13857848Y14409424D01*
X13879266Y14357717D01*
X13884214Y14351268D01*
X13884215Y14351267D01*
X13898520Y14332625D01*
X13962216Y14249614D01*
X14070318Y14166664D01*
X14077830Y14163553D01*
X14077829Y14163553D01*
X14188693Y14117632D01*
X14188695Y14117631D01*
X14196207Y14114520D01*
X14226070Y14110588D01*
X14247337Y14107788D01*
X14311233Y14079520D01*
X14349704Y14021195D01*
X14354089Y14001036D01*
X14360821Y13949906D01*
X14363932Y13942395D01*
X14363933Y13942392D01*
X14407432Y13837375D01*
X14412965Y13824018D01*
X14417913Y13817569D01*
X14417914Y13817568D01*
X14450443Y13775176D01*
X14495915Y13715915D01*
X14604017Y13632965D01*
X14611529Y13629854D01*
X14611528Y13629854D01*
X14722392Y13583933D01*
X14722394Y13583932D01*
X14729906Y13580821D01*
X14865000Y13563035D01*
X15000094Y13580821D01*
X15007606Y13583932D01*
X15007608Y13583933D01*
X15118472Y13629854D01*
X15118471Y13629854D01*
X15125983Y13632965D01*
X15234085Y13715915D01*
X15279557Y13775176D01*
X15312086Y13817568D01*
X15312087Y13817569D01*
X15317035Y13824018D01*
X15325427Y13844277D01*
X15360714Y13929470D01*
X15404554Y13983874D01*
X15470849Y14005939D01*
X15538548Y13988660D01*
X15585760Y13938313D01*
X15633674Y13844277D01*
X15724277Y13753674D01*
X15838445Y13695502D01*
X15965000Y13675458D01*
X16091555Y13695502D01*
X16205723Y13753674D01*
X16296326Y13844277D01*
X16354498Y13958445D01*
X16374542Y14085000D01*
X16354498Y14211555D01*
X16296326Y14325723D01*
X16205723Y14416326D01*
X16091555Y14474498D01*
X15965000Y14494542D01*
X15838445Y14474498D01*
X15724277Y14416326D01*
X15633674Y14325723D01*
X15629244Y14317028D01*
X15585760Y14231687D01*
X15537785Y14180891D01*
X15469964Y14164096D01*
X15403829Y14186634D01*
X15360714Y14240530D01*
X15356952Y14249614D01*
X15329028Y14317028D01*
X15320147Y14338470D01*
X15320145Y14338473D01*
X15317035Y14345982D01*
X15308031Y14357717D01*
X15239031Y14447639D01*
X15234085Y14454085D01*
X15125983Y14537035D01*
X15093084Y14550662D01*
X15007608Y14586067D01*
X15007606Y14586068D01*
X15000094Y14589179D01*
X14970231Y14593111D01*
X14948964Y14595911D01*
X14885068Y14624179D01*
X14846597Y14682504D01*
X14842212Y14702663D01*
X14839412Y14723930D01*
X14835480Y14753793D01*
X14783336Y14879681D01*
X14700386Y14987784D01*
X14592284Y15070734D01*
X14559385Y15084361D01*
X14473909Y15119766D01*
X14473907Y15119767D01*
X14466395Y15122878D01*
X14331301Y15140664D01*
X14196207Y15122878D01*
X14188696Y15119767D01*
X14188693Y15119766D01*
X14077832Y15073846D01*
X14070319Y15070734D01*
X13962216Y14987784D01*
X13879266Y14879681D01*
X13827122Y14753793D01*
X13809336Y14618699D01*
X-12225000Y14618699D01*
X-12225000Y19185000D01*
X8155458Y19185000D01*
X8175502Y19058445D01*
X8233674Y18944277D01*
X8324277Y18853674D01*
X8438445Y18795502D01*
X8565000Y18775458D01*
X8691555Y18795502D01*
X8805723Y18853674D01*
X8896326Y18944277D01*
X8917076Y18985000D01*
X11855458Y18985000D01*
X11875502Y18858445D01*
X11933674Y18744277D01*
X12024277Y18653674D01*
X12138445Y18595502D01*
X12265000Y18575458D01*
X12391555Y18595502D01*
X12505723Y18653674D01*
X12596326Y18744277D01*
X12654498Y18858445D01*
X12674542Y18985000D01*
X12654498Y19111555D01*
X12596326Y19225723D01*
X12524730Y19297319D01*
X12491245Y19358642D01*
X12496229Y19428334D01*
X12524730Y19472681D01*
X12596326Y19544277D01*
X12654498Y19658445D01*
X12674542Y19785000D01*
X12654498Y19911555D01*
X12596326Y20025723D01*
X12505723Y20116326D01*
X12391555Y20174498D01*
X12325247Y20185000D01*
X14655458Y20185000D01*
X14675502Y20058445D01*
X14733674Y19944277D01*
X14824277Y19853674D01*
X14880118Y19825221D01*
X14929748Y19799933D01*
X14929750Y19799932D01*
X14938445Y19795502D01*
X14967780Y19790856D01*
X15030915Y19760927D01*
X15067847Y19701616D01*
X15070856Y19687780D01*
X15075502Y19658445D01*
X15133674Y19544277D01*
X15224277Y19453674D01*
X15338445Y19395502D01*
X15465000Y19375458D01*
X15591555Y19395502D01*
X15705723Y19453674D01*
X15796326Y19544277D01*
X15854498Y19658445D01*
X15874542Y19785000D01*
X15854498Y19911555D01*
X15796326Y20025723D01*
X15705723Y20116326D01*
X15649882Y20144779D01*
X15600252Y20170067D01*
X15600250Y20170068D01*
X15591555Y20174498D01*
X15562220Y20179144D01*
X15499085Y20209073D01*
X15462153Y20268384D01*
X15459144Y20282220D01*
X15456025Y20301912D01*
X15456025Y20301913D01*
X15454498Y20311555D01*
X15396326Y20425723D01*
X15305723Y20516326D01*
X15191555Y20574498D01*
X15065000Y20594542D01*
X14938445Y20574498D01*
X14824277Y20516326D01*
X14733674Y20425723D01*
X14675502Y20311555D01*
X14655458Y20185000D01*
X12325247Y20185000D01*
X12265000Y20194542D01*
X12138445Y20174498D01*
X12024277Y20116326D01*
X11933674Y20025723D01*
X11875502Y19911555D01*
X11855458Y19785000D01*
X11875502Y19658445D01*
X11933674Y19544277D01*
X12005270Y19472681D01*
X12038755Y19411358D01*
X12033771Y19341666D01*
X12005270Y19297319D01*
X11933674Y19225723D01*
X11875502Y19111555D01*
X11855458Y18985000D01*
X8917076Y18985000D01*
X8954498Y19058445D01*
X8974542Y19185000D01*
X8954498Y19311555D01*
X8896326Y19425723D01*
X8898988Y19427080D01*
X8880847Y19477909D01*
X8896257Y19544208D01*
X8896326Y19544277D01*
X8954498Y19658445D01*
X8974542Y19785000D01*
X8954498Y19911555D01*
X8896326Y20025723D01*
X8805723Y20116326D01*
X8691555Y20174498D01*
X8565000Y20194542D01*
X8438445Y20174498D01*
X8324277Y20116326D01*
X8233674Y20025723D01*
X8175502Y19911555D01*
X8155458Y19785000D01*
X8175502Y19658445D01*
X8229244Y19552972D01*
X8233674Y19544277D01*
X8231012Y19542920D01*
X8249153Y19492091D01*
X8233743Y19425792D01*
X8233674Y19425723D01*
X8175502Y19311555D01*
X8155458Y19185000D01*
X-12225000Y19185000D01*
X-12225000Y21085000D01*
X2606081Y21085000D01*
X2623648Y20974088D01*
X2674628Y20874033D01*
X2754033Y20794628D01*
X2854088Y20743648D01*
X2863723Y20742122D01*
X2863726Y20742121D01*
X2955359Y20727608D01*
X2965000Y20726081D01*
X2974641Y20727608D01*
X3066274Y20742121D01*
X3066277Y20742122D01*
X3075912Y20743648D01*
X3175967Y20794628D01*
X3255372Y20874033D01*
X3306352Y20974088D01*
X3323919Y21085000D01*
X3318071Y21121922D01*
X3307879Y21186274D01*
X3307878Y21186277D01*
X3306352Y21195912D01*
X3255372Y21295967D01*
X3175967Y21375372D01*
X3075912Y21426352D01*
X3066277Y21427878D01*
X3066274Y21427879D01*
X2974641Y21442392D01*
X2965000Y21443919D01*
X2955359Y21442392D01*
X2863726Y21427879D01*
X2863723Y21427878D01*
X2854088Y21426352D01*
X2754033Y21375372D01*
X2674628Y21295967D01*
X2623648Y21195912D01*
X2622122Y21186277D01*
X2622121Y21186274D01*
X2611929Y21121922D01*
X2606081Y21085000D01*
X-12225000Y21085000D01*
X-12225000Y22085000D01*
X6805458Y22085000D01*
X6825502Y21958445D01*
X6883674Y21844277D01*
X6974277Y21753674D01*
X7088445Y21695502D01*
X7215000Y21675458D01*
X7341555Y21695502D01*
X7455723Y21753674D01*
X7546326Y21844277D01*
X7604498Y21958445D01*
X7624542Y22085000D01*
X7604498Y22211555D01*
X7546326Y22325723D01*
X7455723Y22416326D01*
X7341555Y22474498D01*
X7215000Y22494542D01*
X7088445Y22474498D01*
X6974277Y22416326D01*
X6883674Y22325723D01*
X6825502Y22211555D01*
X6805458Y22085000D01*
X-12225000Y22085000D01*
X-12225000Y22925000D01*
X3765458Y22925000D01*
X3785502Y22798445D01*
X3843674Y22684277D01*
X3934277Y22593674D01*
X4048445Y22535502D01*
X4175000Y22515458D01*
X4301555Y22535502D01*
X4415723Y22593674D01*
X4506326Y22684277D01*
X4564498Y22798445D01*
X4584542Y22925000D01*
X4564498Y23051555D01*
X4506326Y23165723D01*
X4415723Y23256326D01*
X4301555Y23314498D01*
X4175000Y23334542D01*
X4048445Y23314498D01*
X3934277Y23256326D01*
X3843674Y23165723D01*
X3785502Y23051555D01*
X3765458Y22925000D01*
X-12225000Y22925000D01*
X-12225000Y23490770D01*
X-2066672Y23490770D01*
X-2063792Y23468746D01*
X-2051556Y23375181D01*
X-2049308Y23357987D01*
X-2045751Y23349902D01*
X-2045750Y23349900D01*
X-2037726Y23331664D01*
X-1995375Y23235415D01*
X-1989690Y23228652D01*
X-1920457Y23146289D01*
X-1909208Y23132906D01*
X-1797733Y23058703D01*
X-1789305Y23056070D01*
X-1789303Y23056069D01*
X-1756187Y23045723D01*
X-1669913Y23018769D01*
X-1661080Y23018607D01*
X-1661079Y23018607D01*
X-1620133Y23017857D01*
X-1536022Y23016315D01*
X-1406824Y23051538D01*
X-1292705Y23121607D01*
X-1274348Y23141887D01*
X-1221063Y23200756D01*
X-1202840Y23220889D01*
X-1198936Y23228947D01*
X-1148302Y23333454D01*
X-1148301Y23333456D01*
X-1144451Y23341403D01*
X-1122234Y23473461D01*
X-1122093Y23485000D01*
X-1141077Y23617561D01*
X-1196504Y23739465D01*
X-1202270Y23746156D01*
X-1207029Y23753598D01*
X-1205287Y23754712D01*
X-1229301Y23807684D01*
X-1219164Y23876815D01*
X-1209316Y23894326D01*
X-1208764Y23895144D01*
X-1202840Y23901689D01*
X-1177316Y23954370D01*
X-1148302Y24014254D01*
X-1148301Y24014256D01*
X-1144451Y24022203D01*
X-1122234Y24154261D01*
X-1122093Y24165800D01*
X-1122919Y24171570D01*
X-1139824Y24289615D01*
X-1139825Y24289618D01*
X-1141077Y24298361D01*
X-1196504Y24420265D01*
X-1283917Y24521713D01*
X-1291329Y24526517D01*
X-1291331Y24526519D01*
X-1388877Y24589745D01*
X-1388876Y24589745D01*
X-1396290Y24594550D01*
X-1438915Y24607297D01*
X-1516124Y24630388D01*
X-1516128Y24630389D01*
X-1524589Y24632919D01*
X-1533423Y24632973D01*
X-1574500Y24633224D01*
X-1658499Y24633737D01*
X-1787257Y24596938D01*
X-1900512Y24525480D01*
X-1989158Y24425107D01*
X-2046069Y24303889D01*
X-2066672Y24171570D01*
X-2049308Y24038787D01*
X-2045751Y24030702D01*
X-2045750Y24030700D01*
X-2041933Y24022025D01*
X-1995375Y23916215D01*
X-1989690Y23909452D01*
X-1987055Y23906317D01*
X-1985423Y23902598D01*
X-1985024Y23901956D01*
X-1985117Y23901898D01*
X-1958987Y23842333D01*
X-1969968Y23773331D01*
X-1979463Y23758968D01*
X-1978461Y23758310D01*
X-1983309Y23750930D01*
X-1989158Y23744307D01*
X-2046069Y23623089D01*
X-2066672Y23490770D01*
X-12225000Y23490770D01*
X-12225000Y25625000D01*
X5365458Y25625000D01*
X5385502Y25498445D01*
X5443674Y25384277D01*
X5534277Y25293674D01*
X5648445Y25235502D01*
X5775000Y25215458D01*
X5901555Y25235502D01*
X6015723Y25293674D01*
X6106326Y25384277D01*
X6110757Y25392973D01*
X6116460Y25404165D01*
X6164436Y25454960D01*
X6232257Y25471754D01*
X6298392Y25449215D01*
X6341842Y25394499D01*
X6344481Y25385004D01*
X6345034Y25385184D01*
X6348048Y25375908D01*
X6349575Y25366266D01*
X6404151Y25259155D01*
X6489155Y25174151D01*
X6596266Y25119575D01*
X6715000Y25100769D01*
X6833734Y25119575D01*
X6940845Y25174151D01*
X7025849Y25259155D01*
X7080425Y25366266D01*
X7099231Y25485000D01*
X7080425Y25603734D01*
X7025849Y25710845D01*
X6940845Y25795849D01*
X6833734Y25850425D01*
X6715000Y25869231D01*
X6596266Y25850425D01*
X6489155Y25795849D01*
X6404151Y25710845D01*
X6399721Y25702150D01*
X6399719Y25702147D01*
X6399503Y25701724D01*
X6399105Y25701303D01*
X6393983Y25694253D01*
X6393072Y25694915D01*
X6351528Y25650928D01*
X6283707Y25634134D01*
X6217572Y25656672D01*
X6174122Y25711388D01*
X6166547Y25738620D01*
X6164498Y25751555D01*
X6106326Y25865723D01*
X6015723Y25956326D01*
X5944728Y25992500D01*
X5893932Y26040475D01*
X5884007Y26080552D01*
X5835610Y26042118D01*
X5788977Y26033015D01*
X5784641Y26033015D01*
X5775000Y26034542D01*
X5648445Y26014498D01*
X5534277Y25956326D01*
X5443674Y25865723D01*
X5385502Y25751555D01*
X5365458Y25625000D01*
X-12225000Y25625000D01*
X-12225000Y26485000D01*
X3955458Y26485000D01*
X3975502Y26358445D01*
X4033674Y26244277D01*
X4124277Y26153674D01*
X4238445Y26095502D01*
X4365000Y26075458D01*
X4491555Y26095502D01*
X4569074Y26135000D01*
X11056081Y26135000D01*
X11057608Y26125359D01*
X11071053Y26040475D01*
X11073648Y26024088D01*
X11124628Y25924033D01*
X11204033Y25844628D01*
X11304088Y25793648D01*
X11313723Y25792122D01*
X11313726Y25792121D01*
X11405359Y25777608D01*
X11415000Y25776081D01*
X11424641Y25777608D01*
X11516274Y25792121D01*
X11516277Y25792122D01*
X11525912Y25793648D01*
X11625967Y25844628D01*
X11705372Y25924033D01*
X11756352Y26024088D01*
X11758948Y26040475D01*
X11772392Y26125359D01*
X11773919Y26135000D01*
X11766879Y26179448D01*
X11757879Y26236274D01*
X11757878Y26236277D01*
X11756352Y26245912D01*
X11705372Y26345967D01*
X11625967Y26425372D01*
X11525912Y26476352D01*
X11516277Y26477878D01*
X11516274Y26477879D01*
X11424641Y26492392D01*
X11415000Y26493919D01*
X11405359Y26492392D01*
X11313726Y26477879D01*
X11313723Y26477878D01*
X11304088Y26476352D01*
X11204033Y26425372D01*
X11124628Y26345967D01*
X11073648Y26245912D01*
X11072122Y26236277D01*
X11072121Y26236274D01*
X11063121Y26179448D01*
X11056081Y26135000D01*
X4569074Y26135000D01*
X4605723Y26153674D01*
X4696326Y26244277D01*
X4754498Y26358445D01*
X4774542Y26485000D01*
X4754498Y26611555D01*
X4742552Y26635000D01*
X5605458Y26635000D01*
X5625502Y26508445D01*
X5683674Y26394277D01*
X5774277Y26303674D01*
X5845272Y26267500D01*
X5896068Y26219525D01*
X5905993Y26179448D01*
X5954390Y26217882D01*
X6001023Y26226985D01*
X6005359Y26226985D01*
X6015000Y26225458D01*
X6141555Y26245502D01*
X6255723Y26303674D01*
X6346326Y26394277D01*
X6404498Y26508445D01*
X6424542Y26635000D01*
X6404498Y26761555D01*
X6346326Y26875723D01*
X6255723Y26966326D01*
X6141555Y27024498D01*
X6015000Y27044542D01*
X5888445Y27024498D01*
X5774277Y26966326D01*
X5683674Y26875723D01*
X5625502Y26761555D01*
X5605458Y26635000D01*
X4742552Y26635000D01*
X4696326Y26725723D01*
X4605723Y26816326D01*
X4491555Y26874498D01*
X4365000Y26894542D01*
X4238445Y26874498D01*
X4124277Y26816326D01*
X4033674Y26725723D01*
X3975502Y26611555D01*
X3955458Y26485000D01*
X-12225000Y26485000D01*
X-12225000Y30765770D01*
X-2082272Y30765770D01*
X-2064908Y30632987D01*
X-2010975Y30510415D01*
X-2005290Y30503652D01*
X-1946211Y30433368D01*
X-1918142Y30369384D01*
X-1929122Y30300383D01*
X-1948188Y30271497D01*
X-1989158Y30225107D01*
X-2046069Y30103889D01*
X-2066672Y29971570D01*
X-2062418Y29939043D01*
X-2054208Y29876261D01*
X-2049308Y29838787D01*
X-2045751Y29830702D01*
X-2045750Y29830700D01*
X-2011503Y29752868D01*
X-1995375Y29716215D01*
X-1994509Y29715185D01*
X-1976804Y29651497D01*
X-1988546Y29600590D01*
X-2032917Y29506081D01*
X-2036669Y29498089D01*
X-2057272Y29365770D01*
X-2039908Y29232987D01*
X-2036351Y29224902D01*
X-2036350Y29224900D01*
X-2021927Y29192121D01*
X-1985975Y29110415D01*
X-1899808Y29007906D01*
X-1788333Y28933703D01*
X-1779905Y28931070D01*
X-1779903Y28931069D01*
X-1742011Y28919231D01*
X-1660513Y28893769D01*
X-1651680Y28893607D01*
X-1651679Y28893607D01*
X-1610733Y28892857D01*
X-1526622Y28891315D01*
X-1397424Y28926538D01*
X-1283305Y28996607D01*
X-1193440Y29095889D01*
X-1179162Y29125359D01*
X-1174491Y29135000D01*
X5805458Y29135000D01*
X5825502Y29008445D01*
X5883674Y28894277D01*
X5974277Y28803674D01*
X6088445Y28745502D01*
X6215000Y28725458D01*
X6341555Y28745502D01*
X6455723Y28803674D01*
X6546326Y28894277D01*
X6604498Y29008445D01*
X6624542Y29135000D01*
X6604498Y29261555D01*
X6546326Y29375723D01*
X6455723Y29466326D01*
X6341555Y29524498D01*
X6215000Y29544542D01*
X6088445Y29524498D01*
X5974277Y29466326D01*
X5883674Y29375723D01*
X5825502Y29261555D01*
X5805458Y29135000D01*
X-1174491Y29135000D01*
X-1138902Y29208454D01*
X-1138901Y29208456D01*
X-1135051Y29216403D01*
X-1130787Y29241749D01*
X-1113627Y29343746D01*
X-1113627Y29343749D01*
X-1112834Y29348461D01*
X-1112693Y29360000D01*
X-1114769Y29374499D01*
X-1130424Y29483815D01*
X-1130425Y29483818D01*
X-1131677Y29492561D01*
X-1146589Y29525359D01*
X-1187104Y29614465D01*
X-1185904Y29615011D01*
X-1202902Y29673381D01*
X-1190494Y29727170D01*
X-1148302Y29814254D01*
X-1148301Y29814256D01*
X-1144451Y29822203D01*
X-1141661Y29838787D01*
X-1123027Y29949546D01*
X-1123027Y29949549D01*
X-1122234Y29954261D01*
X-1122093Y29965800D01*
X-1124169Y29980299D01*
X-1139824Y30089615D01*
X-1139825Y30089618D01*
X-1141077Y30098361D01*
X-1196504Y30220265D01*
X-1257386Y30290922D01*
X-1286234Y30354558D01*
X-1276099Y30423688D01*
X-1255381Y30455077D01*
X-1224368Y30489340D01*
X-1218440Y30495889D01*
X-1207485Y30518500D01*
X-1163902Y30608454D01*
X-1163901Y30608456D01*
X-1160051Y30616403D01*
X-1137834Y30748461D01*
X-1137693Y30760000D01*
X-1150004Y30845967D01*
X-1155424Y30883815D01*
X-1155425Y30883818D01*
X-1156677Y30892561D01*
X-1168457Y30918471D01*
X-1202068Y30992392D01*
X-1203982Y30996602D01*
X-1213810Y31065776D01*
X-1202695Y31101987D01*
X-1144451Y31222203D01*
X-1122234Y31354261D01*
X-1122093Y31365800D01*
X-1122919Y31371570D01*
X-1139824Y31489615D01*
X-1139825Y31489618D01*
X-1141077Y31498361D01*
X-1196504Y31620265D01*
X-1200584Y31625000D01*
X5595458Y31625000D01*
X5615502Y31498445D01*
X5673674Y31384277D01*
X5764277Y31293674D01*
X5878445Y31235502D01*
X6005000Y31215458D01*
X6131555Y31235502D01*
X6245723Y31293674D01*
X6336326Y31384277D01*
X6394498Y31498445D01*
X6414542Y31625000D01*
X6394498Y31751555D01*
X6336326Y31865723D01*
X6245723Y31956326D01*
X6131555Y32014498D01*
X6005000Y32034542D01*
X5878445Y32014498D01*
X5764277Y31956326D01*
X5673674Y31865723D01*
X5615502Y31751555D01*
X5595458Y31625000D01*
X-1200584Y31625000D01*
X-1283917Y31721713D01*
X-1291329Y31726517D01*
X-1291331Y31726519D01*
X-1388877Y31789745D01*
X-1388876Y31789745D01*
X-1396290Y31794550D01*
X-1438915Y31807297D01*
X-1516124Y31830388D01*
X-1516128Y31830389D01*
X-1524589Y31832919D01*
X-1533423Y31832973D01*
X-1574500Y31833224D01*
X-1658499Y31833737D01*
X-1787257Y31796938D01*
X-1900512Y31725480D01*
X-1989158Y31625107D01*
X-2046069Y31503889D01*
X-2048579Y31487768D01*
X-2064693Y31384277D01*
X-2066672Y31371570D01*
X-2063792Y31349546D01*
X-2052026Y31259575D01*
X-2049308Y31238787D01*
X-2045751Y31230702D01*
X-2045750Y31230700D01*
X-2000146Y31127058D01*
X-1991164Y31057768D01*
X-2005838Y31019814D01*
X-2004758Y31019307D01*
X-2016677Y30993919D01*
X-2061669Y30898089D01*
X-2082272Y30765770D01*
X-12225000Y30765770D01*
X-12225000Y33235000D01*
X5805458Y33235000D01*
X5825502Y33108445D01*
X5883674Y32994277D01*
X5974277Y32903674D01*
X6088445Y32845502D01*
X6215000Y32825458D01*
X6341555Y32845502D01*
X6455723Y32903674D01*
X6546326Y32994277D01*
X6604498Y33108445D01*
X6624542Y33235000D01*
X6604498Y33361555D01*
X6546326Y33475723D01*
X6455723Y33566326D01*
X6341555Y33624498D01*
X6215000Y33644542D01*
X6088445Y33624498D01*
X5974277Y33566326D01*
X5883674Y33475723D01*
X5825502Y33361555D01*
X5805458Y33235000D01*
X-12225000Y33235000D01*
X-12225000Y36210570D01*
X-2066672Y36210570D01*
X-2062805Y36181000D01*
X-2055817Y36127565D01*
X-2049308Y36077787D01*
X-2045751Y36069702D01*
X-2045750Y36069700D01*
X-2034027Y36043059D01*
X-1995375Y35955215D01*
X-1909208Y35852706D01*
X-1866215Y35824088D01*
X-1805869Y35783919D01*
X-1797733Y35778503D01*
X-1789305Y35775870D01*
X-1789303Y35775869D01*
X-1750390Y35763712D01*
X-1669913Y35738569D01*
X-1661080Y35738407D01*
X-1661079Y35738407D01*
X-1620133Y35737657D01*
X-1536022Y35736115D01*
X-1406824Y35771338D01*
X-1308324Y35831817D01*
X-1300234Y35836784D01*
X-1300233Y35836785D01*
X-1292705Y35841407D01*
X-1282477Y35852706D01*
X-1232818Y35907570D01*
X-1202840Y35940689D01*
X-1195293Y35956266D01*
X-1148302Y36053254D01*
X-1148301Y36053256D01*
X-1144451Y36061203D01*
X-1140172Y36086639D01*
X-1123027Y36188546D01*
X-1123027Y36188549D01*
X-1122234Y36193261D01*
X-1122093Y36204800D01*
X-1122919Y36210570D01*
X-1139824Y36328615D01*
X-1139825Y36328618D01*
X-1141077Y36337361D01*
X-1145763Y36347669D01*
X-1192848Y36451225D01*
X-1192849Y36451227D01*
X-1196504Y36459265D01*
X-1195967Y36459509D01*
X-1213680Y36520337D01*
X-1201272Y36574125D01*
X-1148302Y36683454D01*
X-1148301Y36683456D01*
X-1144451Y36691403D01*
X-1134033Y36753329D01*
X-1128705Y36785000D01*
X2106081Y36785000D01*
X2107608Y36775359D01*
X2121412Y36688207D01*
X2123648Y36674088D01*
X2174628Y36574033D01*
X2254033Y36494628D01*
X2354088Y36443648D01*
X2363723Y36442122D01*
X2363726Y36442121D01*
X2455359Y36427608D01*
X2465000Y36426081D01*
X2509530Y36433134D01*
X2579268Y36423980D01*
X2579945Y36423679D01*
X2593276Y36416759D01*
X2603206Y36410814D01*
X2614753Y36402984D01*
X2630941Y36390623D01*
X2639877Y36383108D01*
X2661657Y36362965D01*
X2669829Y36357845D01*
X2670077Y36357689D01*
X2691917Y36340294D01*
X2835284Y36196927D01*
X2851057Y36192701D01*
X2855096Y36190369D01*
X2859597Y36189163D01*
X2873735Y36181000D01*
X2956234Y36180999D01*
X2956264Y36180999D01*
X2956266Y36181000D01*
X8749849Y36181000D01*
X8816888Y36161315D01*
X8837530Y36144681D01*
X9002826Y35979385D01*
X9036311Y35918062D01*
X9031327Y35848370D01*
X8989455Y35792437D01*
X8923991Y35768020D01*
X8922893Y35767981D01*
X8915000Y35769231D01*
X8796266Y35750425D01*
X8689155Y35695849D01*
X8604151Y35610845D01*
X8549575Y35503734D01*
X8530769Y35385000D01*
X8549575Y35266266D01*
X8604151Y35159155D01*
X8689155Y35074151D01*
X8796266Y35019575D01*
X8915000Y35000769D01*
X9033734Y35019575D01*
X9140845Y35074151D01*
X9225849Y35159155D01*
X9280425Y35266266D01*
X9299231Y35385000D01*
X9298681Y35388473D01*
X9317389Y35452185D01*
X9370193Y35497940D01*
X9439351Y35507884D01*
X9502907Y35478859D01*
X9509385Y35472827D01*
X9636923Y35345289D01*
X9636927Y35345284D01*
X9650072Y35332139D01*
X9658869Y35322355D01*
X9675227Y35302095D01*
X9701878Y35279865D01*
X9709679Y35274007D01*
X9711660Y35272672D01*
X9720034Y35267632D01*
X9754066Y35249453D01*
X9755513Y35248773D01*
X9755528Y35248766D01*
X9761530Y35245948D01*
X9762991Y35245262D01*
X9765212Y35244356D01*
X9766720Y35243829D01*
X9766729Y35243826D01*
X9772963Y35241649D01*
X9772974Y35241646D01*
X9774473Y35241122D01*
X9807458Y35231474D01*
X9810536Y35230712D01*
X9813932Y35229870D01*
X9813958Y35229864D01*
X9815190Y35229559D01*
X9817098Y35229170D01*
X9824943Y35227908D01*
X9826235Y35227755D01*
X9826242Y35227754D01*
X9835135Y35226701D01*
X9857599Y35224040D01*
X9858332Y35223971D01*
X9858355Y35223969D01*
X9861153Y35223708D01*
X9862282Y35223602D01*
X9863402Y35223525D01*
X9868022Y35223320D01*
X9876633Y35223146D01*
X9943261Y35202111D01*
X9961809Y35186852D01*
X10014033Y35134628D01*
X10022726Y35130199D01*
X10022727Y35130198D01*
X10027747Y35127640D01*
X10039196Y35121807D01*
X10089992Y35073835D01*
X10106789Y35006014D01*
X10093388Y34955028D01*
X10083648Y34935912D01*
X10082122Y34926277D01*
X10082121Y34926274D01*
X10068890Y34842733D01*
X10066081Y34825000D01*
X10067608Y34815359D01*
X10081099Y34730182D01*
X10083648Y34714088D01*
X10134628Y34614033D01*
X10214033Y34534628D01*
X10314088Y34483648D01*
X10323723Y34482122D01*
X10323726Y34482121D01*
X10415359Y34467608D01*
X10425000Y34466081D01*
X10434641Y34467608D01*
X10526274Y34482121D01*
X10526277Y34482122D01*
X10535912Y34483648D01*
X10635967Y34534628D01*
X10715372Y34614033D01*
X10766352Y34714088D01*
X10768902Y34730182D01*
X10782392Y34815359D01*
X10783919Y34825000D01*
X10781110Y34842733D01*
X10767879Y34926274D01*
X10767878Y34926277D01*
X10766352Y34935912D01*
X10715372Y35035967D01*
X10635967Y35115372D01*
X10623336Y35121808D01*
X10622253Y35122360D01*
X10610804Y35128193D01*
X10560008Y35176165D01*
X10543211Y35243986D01*
X10556612Y35294972D01*
X10561922Y35305394D01*
X10566352Y35314088D01*
X10568474Y35327480D01*
X10582392Y35415359D01*
X10583919Y35425000D01*
X10575445Y35478505D01*
X10567879Y35526274D01*
X10567878Y35526277D01*
X10566352Y35535912D01*
X10515372Y35635967D01*
X10435967Y35715372D01*
X10335912Y35766352D01*
X10326277Y35767878D01*
X10326274Y35767879D01*
X10234641Y35782392D01*
X10225000Y35783919D01*
X10215359Y35782392D01*
X10123726Y35767879D01*
X10123723Y35767878D01*
X10114088Y35766352D01*
X10014033Y35715372D01*
X9945906Y35647245D01*
X9884583Y35613760D01*
X9814891Y35618744D01*
X9770544Y35647245D01*
X9132789Y36285000D01*
X10406081Y36285000D01*
X10407608Y36275359D01*
X10420031Y36196927D01*
X10423648Y36174088D01*
X10474628Y36074033D01*
X10554033Y35994628D01*
X10654088Y35943648D01*
X10663723Y35942122D01*
X10663726Y35942121D01*
X10755359Y35927608D01*
X10765000Y35926081D01*
X10774641Y35927608D01*
X10821313Y35935000D01*
X12056081Y35935000D01*
X12057608Y35925359D01*
X12071821Y35835626D01*
X12073648Y35824088D01*
X12124628Y35724033D01*
X12204033Y35644628D01*
X12304088Y35593648D01*
X12313723Y35592122D01*
X12313726Y35592121D01*
X12405359Y35577608D01*
X12415000Y35576081D01*
X12424641Y35577608D01*
X12516274Y35592121D01*
X12516277Y35592122D01*
X12525912Y35593648D01*
X12625967Y35644628D01*
X12705372Y35724033D01*
X12756352Y35824088D01*
X12758180Y35835626D01*
X12772392Y35925359D01*
X12773919Y35935000D01*
X12769024Y35965908D01*
X12757879Y36036274D01*
X12757878Y36036277D01*
X12756352Y36045912D01*
X12705372Y36145967D01*
X12625967Y36225372D01*
X12525912Y36276352D01*
X12516277Y36277878D01*
X12516274Y36277879D01*
X12424641Y36292392D01*
X12415000Y36293919D01*
X12405359Y36292392D01*
X12313726Y36277879D01*
X12313723Y36277878D01*
X12304088Y36276352D01*
X12204033Y36225372D01*
X12124628Y36145967D01*
X12073648Y36045912D01*
X12072122Y36036277D01*
X12072121Y36036274D01*
X12060976Y35965908D01*
X12056081Y35935000D01*
X10821313Y35935000D01*
X10866274Y35942121D01*
X10866277Y35942122D01*
X10875912Y35943648D01*
X10975967Y35994628D01*
X11055372Y36074033D01*
X11106352Y36174088D01*
X11109970Y36196927D01*
X11122392Y36275359D01*
X11123919Y36285000D01*
X11117489Y36325599D01*
X11107879Y36386274D01*
X11107878Y36386277D01*
X11106352Y36395912D01*
X11055372Y36495967D01*
X10975967Y36575372D01*
X10875912Y36626352D01*
X10866277Y36627878D01*
X10866274Y36627879D01*
X10774641Y36642392D01*
X10765000Y36643919D01*
X10755359Y36642392D01*
X10663726Y36627879D01*
X10663723Y36627878D01*
X10654088Y36626352D01*
X10554033Y36575372D01*
X10474628Y36495967D01*
X10423648Y36395912D01*
X10422122Y36386277D01*
X10422121Y36386274D01*
X10412511Y36325599D01*
X10406081Y36285000D01*
X9132789Y36285000D01*
X8944716Y36473073D01*
X8928943Y36477299D01*
X8924904Y36479631D01*
X8920403Y36480837D01*
X8906265Y36489000D01*
X8823766Y36489001D01*
X8823736Y36489001D01*
X8823734Y36489000D01*
X3030151Y36489000D01*
X2963112Y36508685D01*
X2942470Y36525319D01*
X2909431Y36558358D01*
X2891401Y36581223D01*
X2890219Y36583150D01*
X2887035Y36588343D01*
X2882268Y36593498D01*
X2866896Y36610118D01*
X2859377Y36619059D01*
X2847016Y36635247D01*
X2839186Y36646794D01*
X2833241Y36656724D01*
X2826321Y36670055D01*
X2826020Y36670732D01*
X2816866Y36740470D01*
X2823919Y36785000D01*
X2816000Y36835000D01*
X2807879Y36886274D01*
X2807878Y36886277D01*
X2806352Y36895912D01*
X2755372Y36995967D01*
X2675967Y37075372D01*
X2575912Y37126352D01*
X2566277Y37127878D01*
X2566274Y37127879D01*
X2474641Y37142392D01*
X2465000Y37143919D01*
X2455359Y37142392D01*
X2363726Y37127879D01*
X2363723Y37127878D01*
X2354088Y37126352D01*
X2254033Y37075372D01*
X2174628Y36995967D01*
X2123648Y36895912D01*
X2122122Y36886277D01*
X2122121Y36886274D01*
X2114000Y36835000D01*
X2106081Y36785000D01*
X-1128705Y36785000D01*
X-1123027Y36818746D01*
X-1123027Y36818749D01*
X-1122234Y36823461D01*
X-1122093Y36835000D01*
X-1141077Y36967561D01*
X-1153992Y36995967D01*
X-1192848Y37081425D01*
X-1192849Y37081427D01*
X-1196504Y37089465D01*
X-1229603Y37127879D01*
X-1278149Y37184219D01*
X-1283917Y37190913D01*
X-1291329Y37195717D01*
X-1291331Y37195719D01*
X-1388877Y37258945D01*
X-1388876Y37258945D01*
X-1396290Y37263750D01*
X-1440191Y37276879D01*
X-1516124Y37299588D01*
X-1516128Y37299589D01*
X-1524589Y37302119D01*
X-1533423Y37302173D01*
X-1574500Y37302424D01*
X-1658499Y37302937D01*
X-1787257Y37266138D01*
X-1900512Y37194680D01*
X-1906362Y37188056D01*
X-1964769Y37121922D01*
X-1989158Y37094307D01*
X-2046069Y36973089D01*
X-2066672Y36840770D01*
X-2049308Y36707987D01*
X-2045751Y36699902D01*
X-2045750Y36699900D01*
X-2003765Y36604483D01*
X-1995375Y36585415D01*
X-1993255Y36582893D01*
X-1975285Y36518263D01*
X-1991561Y36465235D01*
X-1989158Y36464107D01*
X-2036643Y36362965D01*
X-2046069Y36342889D01*
X-2056429Y36276352D01*
X-2063677Y36229802D01*
X-2066672Y36210570D01*
X-12225000Y36210570D01*
X-12225000Y43185000D01*
X-1693919Y43185000D01*
X-1692392Y43175359D01*
X-1681278Y43105191D01*
X-1676352Y43074088D01*
X-1625372Y42974033D01*
X-1545967Y42894628D01*
X-1445912Y42843648D01*
X-1436277Y42842122D01*
X-1436274Y42842121D01*
X-1344641Y42827608D01*
X-1335000Y42826081D01*
X-1290470Y42833134D01*
X-1220732Y42823980D01*
X-1220055Y42823679D01*
X-1206724Y42816759D01*
X-1196794Y42810814D01*
X-1185247Y42802984D01*
X-1169059Y42790623D01*
X-1160123Y42783108D01*
X-1138343Y42762965D01*
X-1130171Y42757845D01*
X-1129923Y42757689D01*
X-1108083Y42740294D01*
X3235284Y38396927D01*
X3251057Y38392701D01*
X3255096Y38390369D01*
X3259597Y38389163D01*
X3273735Y38381000D01*
X3356234Y38380999D01*
X3356264Y38380999D01*
X3356266Y38381000D01*
X6849849Y38381000D01*
X6916888Y38361315D01*
X6937530Y38344681D01*
X7385284Y37896927D01*
X7401056Y37892701D01*
X7405093Y37890370D01*
X7409596Y37889163D01*
X7423736Y37881000D01*
X7506234Y37880999D01*
X7506264Y37880999D01*
X7506266Y37881000D01*
X9206265Y37881000D01*
X9220405Y37889164D01*
X9224909Y37890371D01*
X9228946Y37892702D01*
X9244716Y37896927D01*
X9303073Y37955283D01*
X9303073Y37955284D01*
X9438357Y38090568D01*
X9461216Y38108595D01*
X9463152Y38109782D01*
X9463153Y38109783D01*
X9468344Y38112966D01*
X9490118Y38133104D01*
X9499056Y38140621D01*
X9515243Y38152982D01*
X9526793Y38160814D01*
X9536723Y38166759D01*
X9550054Y38173679D01*
X9550731Y38173980D01*
X9620469Y38183134D01*
X9665000Y38176081D01*
X9674641Y38177608D01*
X9766274Y38192121D01*
X9766277Y38192122D01*
X9775912Y38193648D01*
X9875967Y38244628D01*
X9955372Y38324033D01*
X10006352Y38424088D01*
X10011279Y38455191D01*
X10022392Y38525359D01*
X10023919Y38535000D01*
X10015278Y38589558D01*
X10007879Y38636274D01*
X10007878Y38636277D01*
X10006352Y38645912D01*
X9955372Y38745967D01*
X9875967Y38825372D01*
X9775912Y38876352D01*
X9766277Y38877878D01*
X9766274Y38877879D01*
X9674641Y38892392D01*
X9665000Y38893919D01*
X9655359Y38892392D01*
X9563726Y38877879D01*
X9563723Y38877878D01*
X9554088Y38876352D01*
X9454033Y38825372D01*
X9374628Y38745967D01*
X9323648Y38645912D01*
X9322122Y38636277D01*
X9322121Y38636274D01*
X9314722Y38589558D01*
X9306081Y38535000D01*
X9307608Y38525359D01*
X9313133Y38490475D01*
X9303945Y38420656D01*
X9303642Y38419974D01*
X9296758Y38406724D01*
X9290813Y38396794D01*
X9282983Y38385247D01*
X9270622Y38369059D01*
X9263109Y38360125D01*
X9242964Y38338342D01*
X9237687Y38329921D01*
X9220294Y38308083D01*
X9137530Y38225319D01*
X9076207Y38191834D01*
X9049849Y38189000D01*
X8038660Y38189000D01*
X7971621Y38208685D01*
X7925866Y38261489D01*
X7915922Y38330647D01*
X7938343Y38385887D01*
X7939424Y38387375D01*
X7946326Y38394277D01*
X8004498Y38508445D01*
X8024542Y38635000D01*
X8004498Y38761555D01*
X7946326Y38875723D01*
X7855723Y38966326D01*
X7741555Y39024498D01*
X7615000Y39044542D01*
X7488445Y39024498D01*
X7374277Y38966326D01*
X7283674Y38875723D01*
X7225502Y38761555D01*
X7223975Y38751913D01*
X7220961Y38742637D01*
X7217939Y38743619D01*
X7195094Y38695440D01*
X7135779Y38658514D01*
X7065917Y38659518D01*
X7052342Y38665447D01*
X7044716Y38673073D01*
X7028943Y38677299D01*
X7024904Y38679631D01*
X7020403Y38680837D01*
X7006265Y38689000D01*
X6923766Y38689001D01*
X6923736Y38689001D01*
X6923734Y38689000D01*
X3430151Y38689000D01*
X3363112Y38708685D01*
X3342470Y38725319D01*
X-890569Y42958358D01*
X-908599Y42981223D01*
X-909781Y42983150D01*
X-912965Y42988343D01*
X-933108Y43010123D01*
X-940623Y43019059D01*
X-952984Y43035247D01*
X-960814Y43046794D01*
X-966759Y43056724D01*
X-973679Y43070055D01*
X-973980Y43070732D01*
X-983134Y43140470D01*
X-976081Y43185000D01*
X-993648Y43295912D01*
X-1044628Y43395967D01*
X-1124033Y43475372D01*
X-1224088Y43526352D01*
X-1233723Y43527878D01*
X-1233726Y43527879D01*
X-1325359Y43542392D01*
X-1335000Y43543919D01*
X-1344641Y43542392D01*
X-1436274Y43527879D01*
X-1436277Y43527878D01*
X-1445912Y43526352D01*
X-1545967Y43475372D01*
X-1625372Y43395967D01*
X-1676352Y43295912D01*
X-1693919Y43185000D01*
X-12225000Y43185000D01*
X-12225000Y43925000D01*
X-30676000Y43925000D01*
X-30743039Y43944685D01*
X-30788794Y43997489D01*
X-30800000Y44049000D01*
X-30800000Y47239212D01*
X-7453Y47239212D01*
X21578Y47137970D01*
X26024Y47126739D01*
X110837Y46961709D01*
X117375Y46951565D01*
X232636Y46806142D01*
X241008Y46797472D01*
X330867Y46720997D01*
X369162Y46662557D01*
X374500Y46626566D01*
X374501Y46175908D01*
X374501Y45726088D01*
X379751Y45699689D01*
X399753Y45669753D01*
X409908Y45662968D01*
X419533Y45656536D01*
X419536Y45656535D01*
X429689Y45649751D01*
X441667Y45647368D01*
X441668Y45647368D01*
X450108Y45645689D01*
X450111Y45645689D01*
X456087Y45644500D01*
X462182Y45644500D01*
X965125Y45644501D01*
X1473912Y45644501D01*
X1500311Y45649751D01*
X1530247Y45669753D01*
X1541004Y45685852D01*
X1543464Y45689533D01*
X1543465Y45689536D01*
X1550249Y45699689D01*
X1555500Y45726087D01*
X1555499Y46626644D01*
X1575183Y46693683D01*
X1603157Y46724357D01*
X1658720Y46767767D01*
X1667460Y46776090D01*
X1726263Y46844215D01*
X5062539Y46844215D01*
X5091570Y46742973D01*
X5096016Y46731742D01*
X5180829Y46566712D01*
X5187367Y46556568D01*
X5302628Y46411145D01*
X5311001Y46402475D01*
X5452311Y46282211D01*
X5467200Y46271863D01*
X5465835Y46269898D01*
X5507368Y46227563D01*
X5521567Y46159151D01*
X5512534Y46121727D01*
X5459691Y45994154D01*
X5439397Y45840003D01*
X5459691Y45685852D01*
X5493864Y45603353D01*
X5494208Y45602522D01*
X5497907Y45592356D01*
X5505396Y45568591D01*
X5510988Y45558393D01*
X5515185Y45550740D01*
X5515187Y45550738D01*
X5517110Y45547231D01*
X5519192Y45542206D01*
X5521202Y45539587D01*
X5521342Y45539008D01*
X5521556Y45539125D01*
X5552312Y45483046D01*
X5554655Y45479011D01*
X5555224Y45478084D01*
X5557757Y45474175D01*
X5610055Y45397614D01*
X5610376Y45397163D01*
X5611827Y45395121D01*
X5611855Y45395082D01*
X5612149Y45394669D01*
X5612690Y45393938D01*
X5614904Y45391063D01*
X5667265Y45325663D01*
X5668287Y45324408D01*
X5668563Y45324075D01*
X5669795Y45322619D01*
X5669899Y45322499D01*
X5670013Y45322365D01*
X5719545Y45264975D01*
X5720830Y45263463D01*
X5762149Y45214010D01*
X5767859Y45206628D01*
X5797621Y45165005D01*
X5805959Y45151620D01*
X5827297Y45111949D01*
X5835077Y45094325D01*
X5851605Y45047298D01*
X5856514Y45028934D01*
X5868665Y44963819D01*
X5870588Y44947758D01*
X5875542Y44855926D01*
X5876874Y44850407D01*
X5876874Y44850405D01*
X5877540Y44847646D01*
X5881000Y44818559D01*
X5881000Y43823735D01*
X5889164Y43809595D01*
X5890371Y43805091D01*
X5892702Y43801054D01*
X5896927Y43785284D01*
X5955283Y43726927D01*
X5955284Y43726927D01*
X7885284Y41796927D01*
X7901057Y41792701D01*
X7905096Y41790369D01*
X7909597Y41789163D01*
X7923735Y41781000D01*
X8006234Y41780999D01*
X8006264Y41780999D01*
X8006266Y41781000D01*
X12160299Y41781000D01*
X12227338Y41761315D01*
X12273093Y41708511D01*
X12283037Y41639353D01*
X12254012Y41575797D01*
X12247980Y41569319D01*
X12174628Y41495967D01*
X12123648Y41395912D01*
X12106081Y41285000D01*
X12107608Y41275359D01*
X12118722Y41205191D01*
X12123648Y41174088D01*
X12174628Y41074033D01*
X12254033Y40994628D01*
X12354088Y40943648D01*
X12363723Y40942122D01*
X12363726Y40942121D01*
X12455359Y40927608D01*
X12465000Y40926081D01*
X12509530Y40933134D01*
X12579268Y40923980D01*
X12579945Y40923679D01*
X12593276Y40916759D01*
X12603206Y40910814D01*
X12614753Y40902984D01*
X12630941Y40890623D01*
X12639877Y40883108D01*
X12661657Y40862965D01*
X12669829Y40857845D01*
X12670077Y40857689D01*
X12691917Y40840294D01*
X13924681Y39607531D01*
X13958166Y39546208D01*
X13961000Y39519850D01*
X13961000Y38150151D01*
X13941315Y38083112D01*
X13924681Y38062470D01*
X13176927Y37314716D01*
X13172701Y37298943D01*
X13170369Y37294904D01*
X13169163Y37290403D01*
X13161000Y37276265D01*
X13160999Y37193736D01*
X13161000Y37193734D01*
X13161000Y35109521D01*
X13157580Y35080601D01*
X13157056Y35078415D01*
X13155634Y35072484D01*
X13155396Y35066400D01*
X13155396Y35066397D01*
X13154477Y35042848D01*
X13153472Y35031221D01*
X13151708Y35018048D01*
X13150766Y35011022D01*
X13148136Y34997312D01*
X13146268Y34989871D01*
X13110856Y34929643D01*
X13108352Y34927573D01*
X13104033Y34925372D01*
X13024628Y34845967D01*
X12973648Y34745912D01*
X12972122Y34736277D01*
X12972121Y34736274D01*
X12970134Y34723726D01*
X12956081Y34635000D01*
X12957608Y34625359D01*
X12971979Y34534628D01*
X12973648Y34524088D01*
X13024628Y34424033D01*
X13104033Y34344628D01*
X13204088Y34293648D01*
X13213723Y34292122D01*
X13213726Y34292121D01*
X13305359Y34277608D01*
X13315000Y34276081D01*
X13324641Y34277608D01*
X13416274Y34292121D01*
X13416277Y34292122D01*
X13425912Y34293648D01*
X13467554Y34314865D01*
X13536222Y34327762D01*
X13600962Y34301486D01*
X13621633Y34279910D01*
X13624628Y34274033D01*
X13700100Y34198561D01*
X13733585Y34137238D01*
X13728601Y34067546D01*
X13722903Y34054584D01*
X13675502Y33961555D01*
X13666525Y33904877D01*
X13639878Y33845579D01*
X13633898Y33838299D01*
X13629817Y33833580D01*
X13609269Y33810997D01*
X13606455Y33808005D01*
X13579922Y33780717D01*
X13578429Y33779207D01*
X13545597Y33746608D01*
X13507278Y33708942D01*
X13506959Y33708627D01*
X13502580Y33704286D01*
X13476624Y33678555D01*
X13476621Y33678552D01*
X13472277Y33674245D01*
X13464585Y33662814D01*
X13449389Y33644360D01*
X12529607Y32724578D01*
X12527492Y32722752D01*
X12522731Y32720425D01*
X12489402Y32684496D01*
X12486174Y32681145D01*
X12472752Y32667723D01*
X12470040Y32663770D01*
X12467642Y32661039D01*
X12446599Y32638354D01*
X12442357Y32627723D01*
X12440162Y32624250D01*
X12433647Y32612047D01*
X12431985Y32608295D01*
X12425508Y32598854D01*
X12419795Y32574779D01*
X12419783Y32574729D01*
X12414306Y32557411D01*
X12405117Y32534378D01*
X12404500Y32528085D01*
X12404500Y32524840D01*
X12404482Y32524689D01*
X12404352Y32522025D01*
X12404172Y32522034D01*
X12402724Y32509663D01*
X12402304Y32501075D01*
X12399660Y32489934D01*
X12401204Y32478589D01*
X12401204Y32478588D01*
X12403367Y32462695D01*
X12404500Y32445974D01*
X12404500Y28557455D01*
X12404295Y28554669D01*
X12402575Y28549658D01*
X12403004Y28538222D01*
X12403004Y28538220D01*
X12404413Y28500692D01*
X12404500Y28496041D01*
X12404500Y28477052D01*
X12405378Y28472338D01*
X12405613Y28468708D01*
X12406774Y28437792D01*
X12411293Y28427274D01*
X12412196Y28423266D01*
X12416220Y28410021D01*
X12417696Y28406197D01*
X12419791Y28394947D01*
X12425797Y28385203D01*
X12425798Y28385201D01*
X12432803Y28373836D01*
X12441175Y28357721D01*
X12450964Y28334937D01*
X12454978Y28330051D01*
X12457270Y28327759D01*
X12457362Y28327643D01*
X12459151Y28325670D01*
X12459017Y28325549D01*
X12466746Y28315771D01*
X12472523Y28309400D01*
X12478532Y28299652D01*
X12500425Y28283004D01*
X12513040Y28271989D01*
X13818937Y26966091D01*
X13852422Y26904768D01*
X13847438Y26835076D01*
X13805566Y26779143D01*
X13787555Y26767928D01*
X13704033Y26725372D01*
X13624628Y26645967D01*
X13573648Y26545912D01*
X13572122Y26536277D01*
X13572121Y26536274D01*
X13562473Y26475359D01*
X13556081Y26435000D01*
X13557608Y26425359D01*
X13571560Y26337272D01*
X13573648Y26324088D01*
X13624628Y26224033D01*
X13704033Y26144628D01*
X13804088Y26093648D01*
X13813723Y26092122D01*
X13813726Y26092121D01*
X13905359Y26077608D01*
X13915000Y26076081D01*
X14025912Y26093648D01*
X14033114Y26097318D01*
X14102022Y26099287D01*
X14161855Y26063207D01*
X14192684Y26000506D01*
X14194500Y25979360D01*
X14194500Y25180833D01*
X14174815Y25113794D01*
X14158181Y25093152D01*
X13289607Y24224578D01*
X13287492Y24222752D01*
X13282731Y24220425D01*
X13249402Y24184496D01*
X13246174Y24181145D01*
X13232752Y24167723D01*
X13230040Y24163770D01*
X13227642Y24161039D01*
X13206599Y24138354D01*
X13202357Y24127723D01*
X13200162Y24124250D01*
X13193647Y24112047D01*
X13191985Y24108295D01*
X13185508Y24098854D01*
X13179795Y24074779D01*
X13179783Y24074729D01*
X13174306Y24057411D01*
X13165117Y24034378D01*
X13164500Y24028085D01*
X13164500Y24024840D01*
X13164482Y24024689D01*
X13164352Y24022025D01*
X13164172Y24022034D01*
X13162724Y24009663D01*
X13162304Y24001075D01*
X13159660Y23989934D01*
X13161204Y23978589D01*
X13161204Y23978588D01*
X13163367Y23962695D01*
X13164500Y23945974D01*
X13164500Y23375181D01*
X13162221Y23351518D01*
X13159552Y23337789D01*
X13159579Y23331702D01*
X13159765Y23288987D01*
X13159765Y23288954D01*
X13159766Y23288752D01*
X13159768Y23288522D01*
X13159768Y23288508D01*
X13160227Y23235028D01*
X13160231Y23234403D01*
X13160393Y23188597D01*
X13160382Y23186420D01*
X13159848Y23148331D01*
X13159723Y23144248D01*
X13158282Y23113706D01*
X13157831Y23107487D01*
X13157593Y23105055D01*
X13135903Y23047952D01*
X13133674Y23045723D01*
X13075502Y22931555D01*
X13055458Y22805000D01*
X13075502Y22678445D01*
X13133674Y22564277D01*
X13224277Y22473674D01*
X13338445Y22415502D01*
X13465000Y22395458D01*
X13591555Y22415502D01*
X13705723Y22473674D01*
X13796326Y22564277D01*
X13804462Y22580244D01*
X13852438Y22631039D01*
X13920259Y22647833D01*
X13987832Y22624265D01*
X13992253Y22621053D01*
X13999155Y22614151D01*
X14106266Y22559575D01*
X14225000Y22540769D01*
X14343734Y22559575D01*
X14450845Y22614151D01*
X14535849Y22699155D01*
X14590425Y22806266D01*
X14609231Y22925000D01*
X14590425Y23043734D01*
X14535849Y23150845D01*
X14450845Y23235849D01*
X14343734Y23290425D01*
X14225000Y23309231D01*
X14106266Y23290425D01*
X13999155Y23235849D01*
X13981993Y23218687D01*
X13920670Y23185202D01*
X13850978Y23190186D01*
X13795045Y23232058D01*
X13770628Y23297522D01*
X13770313Y23306910D01*
X13770421Y23331664D01*
X13770448Y23337788D01*
X13767805Y23351305D01*
X13765500Y23375101D01*
X13765500Y23799167D01*
X13785185Y23866206D01*
X13801819Y23886848D01*
X14670393Y24755422D01*
X14672508Y24757248D01*
X14677269Y24759575D01*
X14710599Y24795505D01*
X14713826Y24798855D01*
X14727248Y24812277D01*
X14729960Y24816230D01*
X14732358Y24818961D01*
X14753401Y24841646D01*
X14757643Y24852277D01*
X14759838Y24855750D01*
X14766353Y24867953D01*
X14768015Y24871705D01*
X14774492Y24881146D01*
X14780217Y24905271D01*
X14785694Y24922590D01*
X14791639Y24937492D01*
X14794883Y24945622D01*
X14795500Y24951915D01*
X14795500Y24955160D01*
X14795518Y24955311D01*
X14795648Y24957975D01*
X14795828Y24957966D01*
X14797276Y24970337D01*
X14797696Y24978925D01*
X14800340Y24990066D01*
X14796633Y25017305D01*
X14795500Y25034026D01*
X14795500Y25485000D01*
X16855458Y25485000D01*
X16875502Y25358445D01*
X16933674Y25244277D01*
X17024277Y25153674D01*
X17138445Y25095502D01*
X17265000Y25075458D01*
X17391555Y25095502D01*
X17505723Y25153674D01*
X17596326Y25244277D01*
X17654498Y25358445D01*
X17674542Y25485000D01*
X17654498Y25611555D01*
X17596326Y25725723D01*
X17505723Y25816326D01*
X17391555Y25874498D01*
X17265000Y25894542D01*
X17138445Y25874498D01*
X17024277Y25816326D01*
X16933674Y25725723D01*
X16875502Y25611555D01*
X16855458Y25485000D01*
X14795500Y25485000D01*
X14795500Y26662545D01*
X14795705Y26665331D01*
X14797425Y26670342D01*
X14795587Y26719309D01*
X14795500Y26723960D01*
X14795500Y26742948D01*
X14794622Y26747662D01*
X14794386Y26751304D01*
X14793762Y26767925D01*
X14793226Y26782209D01*
X14792027Y26785000D01*
X17705458Y26785000D01*
X17725502Y26658445D01*
X17783674Y26544277D01*
X17874277Y26453674D01*
X17988445Y26395502D01*
X18115000Y26375458D01*
X18241555Y26395502D01*
X18355723Y26453674D01*
X18446326Y26544277D01*
X18504498Y26658445D01*
X18524542Y26785000D01*
X18504498Y26911555D01*
X18446326Y27025723D01*
X18355723Y27116326D01*
X18241555Y27174498D01*
X18115000Y27194542D01*
X17988445Y27174498D01*
X17874277Y27116326D01*
X17783674Y27025723D01*
X17725502Y26911555D01*
X17705458Y26785000D01*
X14792027Y26785000D01*
X14788705Y26792731D01*
X14787800Y26796747D01*
X14783786Y26809959D01*
X14782305Y26813798D01*
X14780209Y26825053D01*
X14774203Y26834796D01*
X14774201Y26834802D01*
X14767197Y26846164D01*
X14758824Y26862281D01*
X14749036Y26885063D01*
X14745022Y26889949D01*
X14742730Y26892241D01*
X14742638Y26892357D01*
X14740849Y26894330D01*
X14740983Y26894451D01*
X14733254Y26904229D01*
X14727477Y26910600D01*
X14721468Y26920348D01*
X14699575Y26936996D01*
X14686960Y26948011D01*
X13099971Y28535000D01*
X15180769Y28535000D01*
X15199575Y28416266D01*
X15254151Y28309155D01*
X15339155Y28224151D01*
X15446266Y28169575D01*
X15565000Y28150769D01*
X15683734Y28169575D01*
X15790845Y28224151D01*
X15875849Y28309155D01*
X15930425Y28416266D01*
X15949231Y28535000D01*
X15930425Y28653734D01*
X15875849Y28760845D01*
X15790845Y28845849D01*
X15683734Y28900425D01*
X15565000Y28919231D01*
X15446266Y28900425D01*
X15339155Y28845849D01*
X15254151Y28760845D01*
X15199575Y28653734D01*
X15180769Y28535000D01*
X13099971Y28535000D01*
X13041819Y28593152D01*
X13008334Y28654475D01*
X13005500Y28680833D01*
X13005500Y32299167D01*
X13025185Y32366206D01*
X13041819Y32386848D01*
X13874305Y33219334D01*
X13892642Y33234451D01*
X13899195Y33238871D01*
X13899198Y33238874D01*
X13904245Y33242278D01*
X13908531Y33246601D01*
X13908534Y33246604D01*
X13938627Y33276961D01*
X13938671Y33277006D01*
X13938941Y33277279D01*
X13950410Y33288947D01*
X13976607Y33315598D01*
X14009206Y33348430D01*
X14010716Y33349923D01*
X14038004Y33376456D01*
X14040996Y33379270D01*
X14051677Y33388988D01*
X14063590Y33399827D01*
X14068291Y33403893D01*
X14075573Y33409875D01*
X14134875Y33436525D01*
X14191555Y33445502D01*
X14200250Y33449932D01*
X14200252Y33449933D01*
X14264412Y33482625D01*
X14305723Y33503674D01*
X14396326Y33594277D01*
X14454498Y33708445D01*
X14474542Y33835000D01*
X14454498Y33961555D01*
X14396326Y34075723D01*
X14305723Y34166326D01*
X14297027Y34170757D01*
X14297024Y34170759D01*
X14292968Y34172826D01*
X14242173Y34220802D01*
X14225380Y34288624D01*
X14238780Y34339601D01*
X14256352Y34374088D01*
X14258844Y34389818D01*
X14272392Y34475359D01*
X14273919Y34485000D01*
X14266760Y34530198D01*
X14257879Y34586274D01*
X14257878Y34586277D01*
X14256352Y34595912D01*
X14205372Y34695967D01*
X14125967Y34775372D01*
X14025912Y34826352D01*
X14016277Y34827878D01*
X14016274Y34827879D01*
X13924641Y34842392D01*
X13915000Y34843919D01*
X13905359Y34842392D01*
X13813726Y34827879D01*
X13813723Y34827878D01*
X13804088Y34826352D01*
X13762446Y34805135D01*
X13693778Y34792238D01*
X13629038Y34818514D01*
X13608367Y34840090D01*
X13605372Y34845967D01*
X13525967Y34925372D01*
X13526423Y34925828D01*
X13488449Y34975072D01*
X13483731Y34989871D01*
X13481865Y34997305D01*
X13479233Y35011022D01*
X13478292Y35018048D01*
X13476527Y35031221D01*
X13475522Y35042851D01*
X13475522Y35042868D01*
X13475181Y35051584D01*
X13474592Y35066700D01*
X13474591Y35066705D01*
X13474366Y35072480D01*
X13472502Y35080601D01*
X13472142Y35082172D01*
X13469000Y35109908D01*
X13469000Y35385000D01*
X14856081Y35385000D01*
X14857608Y35375359D01*
X14871084Y35290279D01*
X14873648Y35274088D01*
X14924628Y35174033D01*
X15004033Y35094628D01*
X15104088Y35043648D01*
X15113723Y35042122D01*
X15113726Y35042121D01*
X15205359Y35027608D01*
X15215000Y35026081D01*
X15224641Y35027608D01*
X15316274Y35042121D01*
X15316277Y35042122D01*
X15325912Y35043648D01*
X15425967Y35094628D01*
X15505372Y35174033D01*
X15556352Y35274088D01*
X15558917Y35290279D01*
X15572392Y35375359D01*
X15573919Y35385000D01*
X15561798Y35461527D01*
X15557879Y35486274D01*
X15557878Y35486277D01*
X15556352Y35495912D01*
X15505372Y35595967D01*
X15425967Y35675372D01*
X15325912Y35726352D01*
X15316277Y35727878D01*
X15316274Y35727879D01*
X15224641Y35742392D01*
X15215000Y35743919D01*
X15205359Y35742392D01*
X15113726Y35727879D01*
X15113723Y35727878D01*
X15104088Y35726352D01*
X15004033Y35675372D01*
X14924628Y35595967D01*
X14873648Y35495912D01*
X14872122Y35486277D01*
X14872121Y35486274D01*
X14868202Y35461527D01*
X14856081Y35385000D01*
X13469000Y35385000D01*
X13469000Y35583023D01*
X13488685Y35650062D01*
X13541489Y35695817D01*
X13610647Y35705761D01*
X13649295Y35693508D01*
X13696266Y35669575D01*
X13815000Y35650769D01*
X13933734Y35669575D01*
X14040845Y35724151D01*
X14125849Y35809155D01*
X14180425Y35916266D01*
X14199231Y36035000D01*
X14180425Y36153734D01*
X14125849Y36260845D01*
X14040845Y36345849D01*
X13933734Y36400425D01*
X13815000Y36419231D01*
X13696266Y36400425D01*
X13675555Y36389872D01*
X13649295Y36376492D01*
X13580626Y36363596D01*
X13515885Y36389872D01*
X13475628Y36446979D01*
X13469000Y36486977D01*
X13469000Y37119849D01*
X13488685Y37186888D01*
X13505319Y37207530D01*
X14175189Y37877400D01*
X14236512Y37910885D01*
X14306204Y37905901D01*
X14350551Y37877400D01*
X14424277Y37803674D01*
X14538445Y37745502D01*
X14665000Y37725458D01*
X14791555Y37745502D01*
X14905723Y37803674D01*
X14996326Y37894277D01*
X15054498Y38008445D01*
X15074542Y38135000D01*
X15054498Y38261555D01*
X14996326Y38375723D01*
X14905723Y38466326D01*
X14791555Y38524498D01*
X14665000Y38544542D01*
X14538445Y38524498D01*
X14529748Y38520067D01*
X14529746Y38520066D01*
X14449296Y38479074D01*
X14380627Y38466177D01*
X14315886Y38492453D01*
X14275628Y38549559D01*
X14269000Y38589558D01*
X14269000Y39676265D01*
X14260836Y39690405D01*
X14259629Y39694910D01*
X14257299Y39698946D01*
X14253073Y39714716D01*
X14194717Y39773073D01*
X14194714Y39773074D01*
X12909431Y41058358D01*
X12891401Y41081223D01*
X12890219Y41083150D01*
X12887035Y41088343D01*
X12866892Y41110123D01*
X12859377Y41119059D01*
X12847016Y41135247D01*
X12839186Y41146794D01*
X12833241Y41156724D01*
X12826321Y41170055D01*
X12826020Y41170732D01*
X12816866Y41240470D01*
X12823919Y41285000D01*
X12806352Y41395912D01*
X12755372Y41495967D01*
X12682020Y41569319D01*
X12648535Y41630642D01*
X12653519Y41700334D01*
X12695391Y41756267D01*
X12760855Y41780684D01*
X12769701Y41781000D01*
X13549849Y41781000D01*
X13616888Y41761315D01*
X13637530Y41744681D01*
X16074681Y39307530D01*
X16108166Y39246207D01*
X16111000Y39219849D01*
X16111000Y36604886D01*
X16107476Y36575533D01*
X16107052Y36573794D01*
X16107051Y36573788D01*
X16105609Y36567869D01*
X16105349Y36561777D01*
X16105349Y36561775D01*
X16104155Y36533768D01*
X16102959Y36521079D01*
X16099655Y36498522D01*
X16096548Y36483696D01*
X16093021Y36470836D01*
X16087821Y36455755D01*
X16085925Y36451225D01*
X16084148Y36446979D01*
X16083886Y36446354D01*
X16077707Y36433672D01*
X16070847Y36421415D01*
X16065845Y36413235D01*
X16052982Y36393926D01*
X16050831Y36390803D01*
X16050459Y36390279D01*
X16031703Y36363917D01*
X16031564Y36363720D01*
X16031538Y36363684D01*
X16030783Y36362607D01*
X16008379Y36330180D01*
X16008189Y36329898D01*
X16007381Y36328701D01*
X16007363Y36328674D01*
X16007176Y36328396D01*
X16006868Y36327928D01*
X16005561Y36325885D01*
X15982628Y36289034D01*
X15980909Y36286162D01*
X15980509Y36285466D01*
X15978958Y36282659D01*
X15978751Y36282270D01*
X15978745Y36282258D01*
X15961326Y36249446D01*
X15961323Y36249439D01*
X15959623Y36246237D01*
X15951535Y36225443D01*
X15950171Y36220186D01*
X15953685Y36161380D01*
X15956950Y36153042D01*
X15960234Y36147913D01*
X15973263Y36127565D01*
X15977039Y36121667D01*
X15981258Y36117280D01*
X15981261Y36117276D01*
X16021917Y36075000D01*
X16049890Y36045912D01*
X16050636Y36045136D01*
X16082916Y35983171D01*
X16085234Y35961610D01*
X16087301Y35855859D01*
X16087889Y35851914D01*
X16087889Y35851911D01*
X16090143Y35836784D01*
X16090903Y35831681D01*
X16092523Y35825966D01*
X16098226Y35817647D01*
X16121273Y35784026D01*
X16121275Y35784024D01*
X16126977Y35775706D01*
X16134131Y35770322D01*
X16139619Y35767679D01*
X16139620Y35767678D01*
X16162200Y35756802D01*
X16162202Y35756801D01*
X16167694Y35754156D01*
X16173590Y35752635D01*
X16173594Y35752633D01*
X16186020Y35749427D01*
X16201857Y35745340D01*
X16207807Y35744006D01*
X16209268Y35743727D01*
X16210216Y35743577D01*
X16214263Y35742936D01*
X16214281Y35742933D01*
X16215244Y35742781D01*
X16230304Y35740884D01*
X16246539Y35738838D01*
X16310592Y35710928D01*
X16318719Y35703492D01*
X16825284Y35196927D01*
X16841056Y35192701D01*
X16845093Y35190370D01*
X16849596Y35189163D01*
X16863736Y35181000D01*
X16946234Y35180999D01*
X16946264Y35180999D01*
X16946266Y35181000D01*
X17388211Y35181000D01*
X17455250Y35161315D01*
X17501005Y35108511D01*
X17510684Y35037602D01*
X17504301Y34997300D01*
X17500769Y34975000D01*
X17508630Y34925372D01*
X17513643Y34893719D01*
X17504689Y34824426D01*
X17478851Y34786640D01*
X16426927Y33734716D01*
X16422701Y33718943D01*
X16420369Y33714904D01*
X16419163Y33710403D01*
X16411000Y33696265D01*
X16410999Y33613736D01*
X16411000Y33613734D01*
X16411000Y33100151D01*
X16391315Y33033112D01*
X16374681Y33012470D01*
X15737530Y32375319D01*
X15676207Y32341834D01*
X15649849Y32339000D01*
X14523736Y32339000D01*
X14509597Y32330837D01*
X14505091Y32329630D01*
X14501053Y32327298D01*
X14485284Y32323073D01*
X14426927Y32264717D01*
X14426927Y32264716D01*
X14226927Y32064716D01*
X14222701Y32048943D01*
X14220369Y32044904D01*
X14219163Y32040403D01*
X14211000Y32026265D01*
X14210999Y31943736D01*
X14211000Y31943734D01*
X14211000Y29943735D01*
X14219164Y29929595D01*
X14220371Y29925091D01*
X14222702Y29921054D01*
X14226927Y29905284D01*
X14285283Y29846927D01*
X14285284Y29846927D01*
X14392107Y29740104D01*
X14409840Y29717721D01*
X14411338Y29715302D01*
X14411343Y29715296D01*
X14414550Y29710118D01*
X14418708Y29705664D01*
X14418713Y29705657D01*
X14438402Y29684564D01*
X14444977Y29676920D01*
X14461858Y29655597D01*
X14468669Y29646107D01*
X14475045Y29636274D01*
X14479003Y29630171D01*
X14485064Y29619746D01*
X14492376Y29605627D01*
X14496779Y29596172D01*
X14498125Y29592931D01*
X14507608Y29545372D01*
X14507608Y29544642D01*
X14506081Y29535000D01*
X14523648Y29424088D01*
X14574628Y29324033D01*
X14654033Y29244628D01*
X14754088Y29193648D01*
X14763723Y29192122D01*
X14763726Y29192121D01*
X14855359Y29177608D01*
X14865000Y29176081D01*
X14874641Y29177608D01*
X14966274Y29192121D01*
X14966277Y29192122D01*
X14975912Y29193648D01*
X15075967Y29244628D01*
X15155372Y29324033D01*
X15206352Y29424088D01*
X15223919Y29535000D01*
X15217422Y29576018D01*
X15207879Y29636274D01*
X15207878Y29636277D01*
X15206352Y29645912D01*
X15155372Y29745967D01*
X15075967Y29825372D01*
X14975912Y29876352D01*
X14966277Y29877878D01*
X14966274Y29877879D01*
X14874641Y29892392D01*
X14865000Y29893919D01*
X14772280Y29879233D01*
X14702988Y29888187D01*
X14678457Y29902526D01*
X14668769Y29909796D01*
X14659182Y29917774D01*
X14650732Y29925558D01*
X14639415Y29935983D01*
X14634522Y29939039D01*
X14634517Y29939043D01*
X14631137Y29941154D01*
X14609145Y29958644D01*
X14555319Y30012470D01*
X14521834Y30073793D01*
X14519000Y30100151D01*
X14519000Y30185606D01*
X14538685Y30252645D01*
X14591489Y30298400D01*
X14660647Y30308344D01*
X14685868Y30300347D01*
X14686111Y30301094D01*
X14695395Y30298077D01*
X14704088Y30293648D01*
X14713723Y30292122D01*
X14713726Y30292121D01*
X14805359Y30277608D01*
X14815000Y30276081D01*
X14824641Y30277608D01*
X14916274Y30292121D01*
X14916277Y30292122D01*
X14925912Y30293648D01*
X15025967Y30344628D01*
X15105372Y30424033D01*
X15156352Y30524088D01*
X15169715Y30608454D01*
X15172392Y30625359D01*
X15173919Y30635000D01*
X15156352Y30745912D01*
X15105372Y30845967D01*
X15025967Y30925372D01*
X14925912Y30976352D01*
X14916277Y30977878D01*
X14916274Y30977879D01*
X14824641Y30992392D01*
X14815000Y30993919D01*
X14805359Y30992392D01*
X14713726Y30977879D01*
X14713723Y30977878D01*
X14704088Y30976352D01*
X14695395Y30971923D01*
X14686111Y30968906D01*
X14685337Y30971289D01*
X14630632Y30961012D01*
X14565891Y30987285D01*
X14525630Y31044389D01*
X14519000Y31084394D01*
X14519000Y31178118D01*
X14538685Y31245157D01*
X14591489Y31290912D01*
X14660647Y31300856D01*
X14699295Y31288603D01*
X14747569Y31264006D01*
X14747571Y31264005D01*
X14756266Y31259575D01*
X14875000Y31240769D01*
X14993734Y31259575D01*
X15100845Y31314151D01*
X15185849Y31399155D01*
X15240425Y31506266D01*
X15259231Y31625000D01*
X15240425Y31743734D01*
X15185920Y31850706D01*
X15173024Y31919374D01*
X15199300Y31984114D01*
X15256406Y32024372D01*
X15296405Y32031000D01*
X15806265Y32031000D01*
X15820405Y32039164D01*
X15824909Y32040371D01*
X15828946Y32042702D01*
X15844716Y32046927D01*
X15903073Y32105283D01*
X15903073Y32105284D01*
X16703073Y32905284D01*
X16707299Y32921057D01*
X16709631Y32925096D01*
X16710837Y32929597D01*
X16719000Y32943735D01*
X16719001Y32985000D01*
X19680769Y32985000D01*
X19699575Y32866266D01*
X19754151Y32759155D01*
X19839155Y32674151D01*
X19946266Y32619575D01*
X20065000Y32600769D01*
X20183734Y32619575D01*
X20290845Y32674151D01*
X20375849Y32759155D01*
X20430425Y32866266D01*
X20449231Y32985000D01*
X20430425Y33103734D01*
X20375849Y33210845D01*
X20290845Y33295849D01*
X20183734Y33350425D01*
X20065000Y33369231D01*
X19946266Y33350425D01*
X19839155Y33295849D01*
X19754151Y33210845D01*
X19699575Y33103734D01*
X19680769Y32985000D01*
X16719001Y32985000D01*
X16719001Y33026264D01*
X16719000Y33026266D01*
X16719000Y33539849D01*
X16738685Y33606888D01*
X16755319Y33627530D01*
X17162789Y34035000D01*
X19680769Y34035000D01*
X19699575Y33916266D01*
X19754151Y33809155D01*
X19839155Y33724151D01*
X19946266Y33669575D01*
X20065000Y33650769D01*
X20183734Y33669575D01*
X20290845Y33724151D01*
X20375849Y33809155D01*
X20430425Y33916266D01*
X20449231Y34035000D01*
X20430425Y34153734D01*
X20375849Y34260845D01*
X20290845Y34345849D01*
X20183734Y34400425D01*
X20065000Y34419231D01*
X19946266Y34400425D01*
X19839155Y34345849D01*
X19754151Y34260845D01*
X19699575Y34153734D01*
X19680769Y34035000D01*
X17162789Y34035000D01*
X17696640Y34568851D01*
X17757963Y34602336D01*
X17803719Y34603643D01*
X17885000Y34590769D01*
X18003734Y34609575D01*
X18110845Y34664151D01*
X18195849Y34749155D01*
X18250425Y34856266D01*
X18269231Y34975000D01*
X18250425Y35093734D01*
X18195849Y35200845D01*
X18110845Y35285849D01*
X18003734Y35340425D01*
X17885000Y35359231D01*
X17803719Y35346357D01*
X17734426Y35355311D01*
X17696640Y35381149D01*
X17604716Y35473073D01*
X17588943Y35477299D01*
X17584904Y35479631D01*
X17580403Y35480837D01*
X17566265Y35489000D01*
X17483766Y35489001D01*
X17483736Y35489001D01*
X17483734Y35489000D01*
X17020151Y35489000D01*
X16953112Y35508685D01*
X16932470Y35525319D01*
X16755400Y35702389D01*
X16721915Y35763712D01*
X16720220Y35773600D01*
X16720194Y35773596D01*
X16720060Y35774529D01*
X16720056Y35774554D01*
X16720051Y35774595D01*
X16720048Y35774615D01*
X16719920Y35775628D01*
X16718930Y35781817D01*
X16710602Y35824782D01*
X16709162Y35831068D01*
X16708759Y35832589D01*
X16707493Y35836784D01*
X16707178Y35837829D01*
X16707169Y35837856D01*
X16706879Y35838818D01*
X16706001Y35841407D01*
X16694917Y35874069D01*
X16694629Y35874918D01*
X16692668Y35880182D01*
X16692169Y35881410D01*
X16689965Y35886418D01*
X16675002Y35917933D01*
X16674812Y35918315D01*
X16674786Y35918369D01*
X16673754Y35920445D01*
X16673746Y35920461D01*
X16673485Y35920986D01*
X16673095Y35921737D01*
X16671425Y35924814D01*
X16654859Y35954042D01*
X16654305Y35955006D01*
X16649476Y35963300D01*
X16640458Y35978789D01*
X16637249Y35984659D01*
X16630072Y35998673D01*
X16624498Y36011226D01*
X16621739Y36018501D01*
X16616611Y36035676D01*
X16614977Y36043059D01*
X16612336Y36061400D01*
X16611406Y36075000D01*
X18280769Y36075000D01*
X18299575Y35956266D01*
X18354151Y35849155D01*
X18439155Y35764151D01*
X18546266Y35709575D01*
X18665000Y35690769D01*
X18783734Y35709575D01*
X18890845Y35764151D01*
X18975849Y35849155D01*
X19030425Y35956266D01*
X19049231Y36075000D01*
X19030425Y36193734D01*
X18975849Y36300845D01*
X18890845Y36385849D01*
X18783734Y36440425D01*
X18665000Y36459231D01*
X18546266Y36440425D01*
X18439155Y36385849D01*
X18354151Y36300845D01*
X18299575Y36193734D01*
X18280769Y36075000D01*
X16611406Y36075000D01*
X16611097Y36079528D01*
X16611095Y36079543D01*
X16610851Y36083116D01*
X16606834Y36104743D01*
X16605257Y36109858D01*
X16599704Y36117789D01*
X16595448Y36126491D01*
X16597643Y36127565D01*
X16579761Y36180591D01*
X16579889Y36192367D01*
X16581945Y36201641D01*
X16581092Y36210555D01*
X16570376Y36246239D01*
X16567525Y36251610D01*
X16567523Y36251614D01*
X16551300Y36282171D01*
X16551040Y36282661D01*
X16549490Y36285466D01*
X16549090Y36286162D01*
X16547371Y36289034D01*
X16524438Y36325885D01*
X16523131Y36327928D01*
X16522823Y36328396D01*
X16522618Y36328701D01*
X16521810Y36329898D01*
X16521621Y36330179D01*
X16499275Y36362523D01*
X16498520Y36363599D01*
X16479149Y36390828D01*
X16477051Y36393875D01*
X16464151Y36413240D01*
X16459156Y36421407D01*
X16452292Y36433671D01*
X16446113Y36446354D01*
X16445852Y36446979D01*
X16444074Y36451225D01*
X16442178Y36455755D01*
X16436978Y36470836D01*
X16433451Y36483696D01*
X16430344Y36498520D01*
X16430344Y36498522D01*
X16427040Y36521079D01*
X16425844Y36533763D01*
X16425800Y36534791D01*
X16424391Y36567866D01*
X16422218Y36577218D01*
X16419000Y36605283D01*
X16419000Y39285000D01*
X17381081Y39285000D01*
X17398648Y39174088D01*
X17449628Y39074033D01*
X17529033Y38994628D01*
X17629088Y38943648D01*
X17638723Y38942122D01*
X17638726Y38942121D01*
X17730359Y38927608D01*
X17740000Y38926081D01*
X17749641Y38927608D01*
X17841274Y38942121D01*
X17841277Y38942122D01*
X17850912Y38943648D01*
X17950967Y38994628D01*
X18030372Y39074033D01*
X18081352Y39174088D01*
X18098919Y39285000D01*
X18094722Y39311501D01*
X18082879Y39386274D01*
X18082878Y39386277D01*
X18081352Y39395912D01*
X18030372Y39495967D01*
X17950967Y39575372D01*
X17850912Y39626352D01*
X17841277Y39627878D01*
X17841274Y39627879D01*
X17749641Y39642392D01*
X17740000Y39643919D01*
X17730359Y39642392D01*
X17638726Y39627879D01*
X17638723Y39627878D01*
X17629088Y39626352D01*
X17529033Y39575372D01*
X17449628Y39495967D01*
X17398648Y39395912D01*
X17397122Y39386277D01*
X17397121Y39386274D01*
X17385278Y39311501D01*
X17381081Y39285000D01*
X16419000Y39285000D01*
X16419000Y39376265D01*
X16410836Y39390405D01*
X16409629Y39394909D01*
X16407298Y39398946D01*
X16403073Y39414716D01*
X16344717Y39473073D01*
X16344716Y39473073D01*
X13744716Y42073073D01*
X13728943Y42077299D01*
X13724904Y42079631D01*
X13720403Y42080837D01*
X13706265Y42089000D01*
X13623766Y42089001D01*
X13623736Y42089001D01*
X13623734Y42089000D01*
X8080151Y42089000D01*
X8013112Y42108685D01*
X7992470Y42125319D01*
X6225319Y43892470D01*
X6191834Y43953793D01*
X6189000Y43980151D01*
X6189000Y44818973D01*
X6192145Y44843986D01*
X6192028Y44844004D01*
X6192694Y44848354D01*
X6192860Y44849671D01*
X6192950Y44850024D01*
X6192951Y44850028D01*
X6194458Y44855927D01*
X6199411Y44947757D01*
X6201334Y44963821D01*
X6213484Y45028933D01*
X6218394Y45047299D01*
X6234920Y45094324D01*
X6242701Y45111951D01*
X6264046Y45151635D01*
X6272377Y45165010D01*
X6302148Y45206646D01*
X6307852Y45214020D01*
X6349111Y45263404D01*
X6350396Y45264917D01*
X6399883Y45322258D01*
X6399975Y45322365D01*
X6400178Y45322600D01*
X6401209Y45323815D01*
X6401486Y45324147D01*
X6401700Y45324408D01*
X6401978Y45324749D01*
X6402709Y45325643D01*
X6455102Y45391086D01*
X6457338Y45393991D01*
X6457863Y45394701D01*
X6458899Y45396159D01*
X6459617Y45397169D01*
X6459633Y45397192D01*
X6459935Y45397617D01*
X6474441Y45418854D01*
X6511798Y45473547D01*
X6511821Y45473581D01*
X6512219Y45474164D01*
X6514721Y45478023D01*
X6515319Y45478996D01*
X6517692Y45483080D01*
X6548427Y45539124D01*
X6548486Y45539092D01*
X6548542Y45539274D01*
X6550792Y45542206D01*
X6552874Y45547233D01*
X6561986Y45563848D01*
X6611481Y45613163D01*
X6679781Y45627890D01*
X6745201Y45603353D01*
X6781544Y45556480D01*
X6782018Y45556753D01*
X6784018Y45553289D01*
X6785270Y45551674D01*
X6789192Y45542206D01*
X6883843Y45418854D01*
X7007194Y45324203D01*
X7014699Y45321094D01*
X7014703Y45321092D01*
X7143332Y45267812D01*
X7143334Y45267811D01*
X7150841Y45264702D01*
X7304992Y45244408D01*
X7313051Y45245469D01*
X7451084Y45263641D01*
X7459143Y45264702D01*
X7466650Y45267811D01*
X7466652Y45267812D01*
X7595281Y45321092D01*
X7595285Y45321094D01*
X7602790Y45324203D01*
X7726141Y45418854D01*
X7820792Y45542206D01*
X7823902Y45549714D01*
X7823903Y45549715D01*
X7825432Y45553407D01*
X7827555Y45556042D01*
X7827966Y45556753D01*
X7828077Y45556689D01*
X7869274Y45607809D01*
X7935568Y45629873D01*
X8003267Y45612593D01*
X8050877Y45561455D01*
X8054552Y45553407D01*
X8056081Y45549715D01*
X8056082Y45549714D01*
X8059192Y45542206D01*
X8153843Y45418854D01*
X8277194Y45324203D01*
X8284699Y45321094D01*
X8284703Y45321092D01*
X8413332Y45267812D01*
X8413334Y45267811D01*
X8420841Y45264702D01*
X8574992Y45244408D01*
X8583051Y45245469D01*
X8721084Y45263641D01*
X8729143Y45264702D01*
X8736650Y45267811D01*
X8736652Y45267812D01*
X8865281Y45321092D01*
X8865285Y45321094D01*
X8872790Y45324203D01*
X8996141Y45418854D01*
X9090792Y45542206D01*
X9093902Y45549714D01*
X9093903Y45549715D01*
X9095432Y45553407D01*
X9097555Y45556042D01*
X9097966Y45556753D01*
X9098077Y45556689D01*
X9139274Y45607809D01*
X9205568Y45629873D01*
X9273267Y45612593D01*
X9320877Y45561455D01*
X9324552Y45553407D01*
X9326081Y45549715D01*
X9326082Y45549714D01*
X9329192Y45542206D01*
X9423843Y45418854D01*
X9547194Y45324203D01*
X9554699Y45321094D01*
X9554703Y45321092D01*
X9683332Y45267812D01*
X9683334Y45267811D01*
X9690841Y45264702D01*
X9844992Y45244408D01*
X9853051Y45245469D01*
X9991084Y45263641D01*
X9999143Y45264702D01*
X10006650Y45267811D01*
X10006652Y45267812D01*
X10135281Y45321092D01*
X10135285Y45321094D01*
X10142790Y45324203D01*
X10266141Y45418854D01*
X10360792Y45542206D01*
X10363902Y45549714D01*
X10363903Y45549715D01*
X10365432Y45553407D01*
X10367555Y45556042D01*
X10367966Y45556753D01*
X10368077Y45556689D01*
X10409274Y45607809D01*
X10475568Y45629873D01*
X10543267Y45612593D01*
X10590877Y45561455D01*
X10594552Y45553407D01*
X10596081Y45549715D01*
X10596082Y45549714D01*
X10599192Y45542206D01*
X10693843Y45418854D01*
X10817194Y45324203D01*
X10824699Y45321094D01*
X10824703Y45321092D01*
X10953332Y45267812D01*
X10953334Y45267811D01*
X10960841Y45264702D01*
X11114992Y45244408D01*
X11123051Y45245469D01*
X11261084Y45263641D01*
X11269143Y45264702D01*
X11276650Y45267811D01*
X11276652Y45267812D01*
X11405281Y45321092D01*
X11405285Y45321094D01*
X11412790Y45324203D01*
X11536141Y45418854D01*
X11630792Y45542206D01*
X11650560Y45589929D01*
X11687183Y45678343D01*
X11687184Y45678346D01*
X11690293Y45685852D01*
X11710587Y45840003D01*
X11690293Y45994154D01*
X11663369Y46059155D01*
X11633902Y46130292D01*
X11630792Y46137800D01*
X11536141Y46261152D01*
X11529698Y46266096D01*
X11529693Y46266101D01*
X11502289Y46287129D01*
X11461086Y46343557D01*
X11458618Y46385000D01*
X12555458Y46385000D01*
X12575502Y46258445D01*
X12633674Y46144277D01*
X12724277Y46053674D01*
X12838445Y45995502D01*
X12965000Y45975458D01*
X13091555Y45995502D01*
X13205723Y46053674D01*
X13296326Y46144277D01*
X13354498Y46258445D01*
X13358704Y46285000D01*
X14980769Y46285000D01*
X14999575Y46166266D01*
X15054151Y46059155D01*
X15139155Y45974151D01*
X15246266Y45919575D01*
X15365000Y45900769D01*
X15483734Y45919575D01*
X15590845Y45974151D01*
X15675849Y46059155D01*
X15730425Y46166266D01*
X15749231Y46285000D01*
X15730425Y46403734D01*
X15675849Y46510845D01*
X15590845Y46595849D01*
X15483734Y46650425D01*
X15365000Y46669231D01*
X15246266Y46650425D01*
X15139155Y46595849D01*
X15054151Y46510845D01*
X14999575Y46403734D01*
X14980769Y46285000D01*
X13358704Y46285000D01*
X13374542Y46385000D01*
X13354498Y46511555D01*
X13296326Y46625723D01*
X13205723Y46716326D01*
X13091555Y46774498D01*
X12965000Y46794542D01*
X12838445Y46774498D01*
X12724277Y46716326D01*
X12633674Y46625723D01*
X12575502Y46511555D01*
X12555458Y46385000D01*
X11458618Y46385000D01*
X11456932Y46413303D01*
X11491145Y46474223D01*
X11552863Y46506975D01*
X11577776Y46509504D01*
X11624890Y46509504D01*
X11630862Y46510692D01*
X11630865Y46510692D01*
X11636148Y46511743D01*
X11654205Y46515334D01*
X11664357Y46522117D01*
X11664359Y46522118D01*
X11677297Y46530763D01*
X11687449Y46537546D01*
X11709661Y46570790D01*
X11715492Y46600104D01*
X11715492Y47110003D01*
X11715491Y47613810D01*
X11715491Y47619901D01*
X11709661Y47649216D01*
X11687449Y47682460D01*
X11654205Y47704672D01*
X11637698Y47707956D01*
X11630870Y47709314D01*
X11630867Y47709314D01*
X11624891Y47710503D01*
X11571267Y47710503D01*
X10714911Y47710502D01*
X10647872Y47730186D01*
X10618818Y47756130D01*
X10567530Y47819016D01*
X10559033Y47827572D01*
X10416057Y47945852D01*
X10406048Y47952602D01*
X10242838Y48040850D01*
X10231702Y48045531D01*
X10116023Y48081339D01*
X10102146Y48081541D01*
X10098992Y48074893D01*
X10098992Y46980003D01*
X10079307Y46912964D01*
X10026503Y46867209D01*
X9974992Y46856003D01*
X8444992Y46856003D01*
X8377953Y46875688D01*
X8332198Y46928492D01*
X8320992Y46980003D01*
X8320992Y47381833D01*
X8828992Y47381833D01*
X8833396Y47366834D01*
X8834766Y47365647D01*
X8842324Y47364003D01*
X9573162Y47364003D01*
X9588161Y47368407D01*
X9589348Y47369777D01*
X9590992Y47377335D01*
X9590992Y48068212D01*
X9587082Y48081529D01*
X9579408Y48082633D01*
X9471382Y48050839D01*
X9460186Y48046315D01*
X9295750Y47960350D01*
X9280576Y47950421D01*
X9279497Y47952070D01*
X9223291Y47928866D01*
X9154546Y47941352D01*
X9140845Y47949367D01*
X9136048Y47952602D01*
X8972838Y48040850D01*
X8961702Y48045531D01*
X8846023Y48081339D01*
X8832146Y48081541D01*
X8828992Y48074893D01*
X8828992Y47381833D01*
X8320992Y47381833D01*
X8320992Y48068212D01*
X8317082Y48081529D01*
X8309408Y48082633D01*
X8201382Y48050839D01*
X8190186Y48046315D01*
X8025750Y47960350D01*
X8015654Y47953744D01*
X7871045Y47837476D01*
X7862420Y47829029D01*
X7743151Y47686890D01*
X7736382Y47677004D01*
X7682264Y47632812D01*
X7612844Y47624893D01*
X7586617Y47632502D01*
X7586591Y47632513D01*
X7554711Y47645718D01*
X7466652Y47682194D01*
X7466650Y47682195D01*
X7459143Y47685304D01*
X7304992Y47705598D01*
X7150841Y47685304D01*
X7143335Y47682195D01*
X7143332Y47682194D01*
X7023394Y47632513D01*
X6953925Y47625044D01*
X6891446Y47656319D01*
X6879082Y47670883D01*
X6878639Y47670521D01*
X6757529Y47819016D01*
X6749033Y47827572D01*
X6606057Y47945852D01*
X6596048Y47952602D01*
X6432838Y48040850D01*
X6421702Y48045531D01*
X6306023Y48081339D01*
X6292146Y48081541D01*
X6288992Y48074893D01*
X6288992Y46980003D01*
X6269307Y46912964D01*
X6216503Y46867209D01*
X6164992Y46856003D01*
X5076989Y46856003D01*
X5063672Y46852093D01*
X5062539Y46844215D01*
X1726263Y46844215D01*
X1788705Y46916555D01*
X1795664Y46926420D01*
X1887313Y47087752D01*
X1892222Y47098777D01*
X1937232Y47234083D01*
X1937725Y47247952D01*
X1931634Y47251000D01*
X6997Y47251000D01*
X-6320Y47247090D01*
X-7453Y47239212D01*
X-30800000Y47239212D01*
X-30800000Y47367121D01*
X5063111Y47367121D01*
X5069567Y47364003D01*
X5763162Y47364003D01*
X5778161Y47368407D01*
X5779348Y47369777D01*
X5780992Y47377335D01*
X5780992Y48068212D01*
X5777082Y48081529D01*
X5769408Y48082633D01*
X5661382Y48050839D01*
X5650186Y48046315D01*
X5485750Y47960350D01*
X5475654Y47953744D01*
X5331045Y47837476D01*
X5322420Y47829029D01*
X5203150Y47686888D01*
X5196335Y47676935D01*
X5106940Y47514328D01*
X5102189Y47503243D01*
X5063410Y47380996D01*
X5063111Y47367121D01*
X-30800000Y47367121D01*
X-30800000Y47762118D01*
X-6881Y47762118D01*
X-425Y47759000D01*
X693170Y47759000D01*
X708169Y47763404D01*
X709356Y47764774D01*
X711000Y47772332D01*
X711000Y47776830D01*
X1219000Y47776830D01*
X1223404Y47761831D01*
X1224774Y47760644D01*
X1232332Y47759000D01*
X1923468Y47759000D01*
X1936785Y47762910D01*
X1937860Y47770386D01*
X1903206Y47885165D01*
X1898602Y47896335D01*
X1811494Y48060164D01*
X1804814Y48070217D01*
X1687537Y48214013D01*
X1679041Y48222569D01*
X1536065Y48340849D01*
X1526056Y48347599D01*
X1362846Y48435847D01*
X1351710Y48440528D01*
X1236031Y48476336D01*
X1222154Y48476538D01*
X1219000Y48469890D01*
X1219000Y47776830D01*
X711000Y47776830D01*
X711000Y48463209D01*
X707090Y48476526D01*
X699416Y48477630D01*
X591390Y48445836D01*
X580194Y48441312D01*
X415758Y48355347D01*
X405662Y48348741D01*
X261053Y48232473D01*
X252428Y48224026D01*
X133158Y48081885D01*
X126343Y48071932D01*
X36948Y47909325D01*
X32197Y47898240D01*
X-6582Y47775993D01*
X-6881Y47762118D01*
X-30800000Y47762118D01*
X-30800000Y50461035D01*
X-30780315Y50528074D01*
X-30727511Y50573829D01*
X-30676028Y50585035D01*
X22740972Y50596921D01*
X22808016Y50577251D01*
G37*
%TD.AperFunction*%
%TD*%
M02*
