%TF.GenerationSoftware,KiCad,Pcbnew,(6.0.9)*%
%TF.CreationDate,2023-01-12T20:26:10+01:00*%
%TF.ProjectId,pallas-ethernet-adapter,70616c6c-6173-42d6-9574-6865726e6574,rev?*%
%TF.SameCoordinates,Original*%
%TF.FileFunction,Copper,L3,Inr*%
%TF.FilePolarity,Positive*%
%FSLAX46Y46*%
G04 Gerber Fmt 4.6, Leading zero omitted, Abs format (unit mm)*
G04 Created by KiCad (PCBNEW (6.0.9)) date 2023-01-12 20:26:10*
%MOMM*%
%LPD*%
G01*
G04 APERTURE LIST*
%ADD10C,0.250000*%
%TA.AperFunction,NonConductor*%
%ADD11C,0.250000*%
%TD*%
%TA.AperFunction,ComponentPad*%
%ADD12R,1.500000X1.500000*%
%TD*%
%TA.AperFunction,ComponentPad*%
%ADD13C,1.500000*%
%TD*%
%TA.AperFunction,ComponentPad*%
%ADD14C,2.300000*%
%TD*%
%TA.AperFunction,ComponentPad*%
%ADD15R,1.000000X1.000000*%
%TD*%
%TA.AperFunction,ComponentPad*%
%ADD16O,1.000000X1.000000*%
%TD*%
%TA.AperFunction,ComponentPad*%
%ADD17C,5.600000*%
%TD*%
%TA.AperFunction,ViaPad*%
%ADD18C,0.550000*%
%TD*%
%TA.AperFunction,ViaPad*%
%ADD19C,0.450000*%
%TD*%
%TA.AperFunction,ViaPad*%
%ADD20C,0.500000*%
%TD*%
%TA.AperFunction,Conductor*%
%ADD21C,0.127000*%
%TD*%
G04 APERTURE END LIST*
D10*
D11*
X-17918334Y16632620D02*
X-17299286Y16632620D01*
X-17632620Y16251667D01*
X-17489762Y16251667D01*
X-17394524Y16204048D01*
X-17346905Y16156429D01*
X-17299286Y16061191D01*
X-17299286Y15823096D01*
X-17346905Y15727858D01*
X-17394524Y15680239D01*
X-17489762Y15632620D01*
X-17775477Y15632620D01*
X-17870715Y15680239D01*
X-17918334Y15727858D01*
D12*
%TO.N,/Ethernet/MDI_A_P*%
%TO.C,J5*%
X-37910000Y26225000D03*
D13*
%TO.N,/Ethernet/MDI_A_N*%
X-36130000Y27241000D03*
%TO.N,/Ethernet/MDI_B_P*%
X-37910000Y28257000D03*
%TO.N,/Ethernet/MDI_C_P*%
X-36130000Y29273000D03*
%TO.N,/Ethernet/MDI_C_N*%
X-37910000Y30289000D03*
%TO.N,/Ethernet/MDI_B_N*%
X-36130000Y31305000D03*
%TO.N,/Ethernet/MDI_D_P*%
X-37910000Y32321000D03*
%TO.N,/Ethernet/MDI_D_N*%
X-36130000Y33337000D03*
%TO.N,/~{LED1}*%
X-31310000Y22925000D03*
%TO.N,+3V3*%
X-31310000Y25215000D03*
%TO.N,/~{LED0}*%
X-31310000Y34355000D03*
%TO.N,+3V3*%
X-31310000Y36645000D03*
D14*
%TO.N,/CASE*%
X-37020000Y37915000D03*
X-37020000Y21655000D03*
%TD*%
D15*
%TO.N,/RESET*%
%TO.C,J6*%
X965000Y46235000D03*
D16*
%TO.N,GND*%
X965000Y47505000D03*
%TD*%
D17*
%TO.N,/CASE*%
%TO.C,H2*%
X-37685000Y45585000D03*
%TD*%
D15*
%TO.N,+3V3*%
%TO.C,J7*%
X11114992Y47110003D03*
D16*
%TO.N,/LAN_JTAG_TDI*%
X11114992Y45840003D03*
%TO.N,GND*%
X9844992Y47110003D03*
%TO.N,/LAN_JTAG_TCK*%
X9844992Y45840003D03*
%TO.N,GND*%
X8574992Y47110003D03*
%TO.N,/LAN_JTAG_TDO*%
X8574992Y45840003D03*
%TO.N,unconnected-(J7-Pad7)*%
X7304992Y47110003D03*
%TO.N,/LAN_JTAG_TMS*%
X7304992Y45840003D03*
%TO.N,GND*%
X6034992Y47110003D03*
%TO.N,/RESET*%
X6034992Y45840003D03*
%TD*%
D17*
%TO.N,/CASE*%
%TO.C,H1*%
X-37650000Y9350000D03*
%TD*%
D18*
%TO.N,GND*%
X605600Y25685300D03*
D19*
X-9535000Y14385000D03*
X20965000Y50285000D03*
X19965000Y25535000D03*
X17665000Y23285000D03*
X15615000Y23535000D03*
X15315000Y11335000D03*
X13440000Y14635000D03*
X14915000Y10485000D03*
X15265000Y21085000D03*
X9565000Y31585000D03*
X-20535000Y44285000D03*
X-17960000Y48810000D03*
D18*
X12465000Y20585000D03*
D19*
X22465000Y17785000D03*
X22472715Y29781913D03*
X13665000Y11835000D03*
X12365000Y37135000D03*
X1765000Y23885000D03*
X15565000Y25035000D03*
D18*
X14065000Y6985000D03*
D19*
X22472715Y39781913D03*
D18*
X2315000Y29035000D03*
D19*
X19915000Y34885000D03*
X22465000Y49285000D03*
X-11535000Y14385000D03*
X-11535000Y36785000D03*
X8615000Y14785000D03*
D18*
X19465000Y6185000D03*
D19*
X16515000Y11985000D03*
X22465000Y14785000D03*
X9665000Y13585000D03*
X15365000Y25985000D03*
X-11535000Y30785000D03*
D18*
X3565000Y6985000D03*
D19*
X22472715Y27781913D03*
X11665000Y9235000D03*
X16115000Y9235000D03*
X16865000Y13635000D03*
X17465000Y50285000D03*
X-11535000Y26785000D03*
D18*
X6515000Y6985000D03*
D19*
X22465000Y16235000D03*
X11765000Y31785000D03*
X9465000Y50285000D03*
X-2531913Y50292715D03*
X-11535000Y32785000D03*
X17015000Y20235000D03*
X-17985000Y45735000D03*
X12165000Y10585000D03*
D18*
X-4785000Y29510000D03*
X6515000Y6185000D03*
D19*
X7465000Y50285000D03*
D18*
X-4794400Y32485300D03*
D19*
X8365000Y31585000D03*
X20465000Y14785000D03*
D18*
X9265000Y20585000D03*
D19*
X-11535000Y28785000D03*
X22472715Y41781913D03*
X13465000Y50285000D03*
D18*
X-1589400Y26795300D03*
D19*
X-18535000Y50285000D03*
X11765000Y32785000D03*
D18*
X-4785000Y26510000D03*
D19*
X5365000Y19235000D03*
X-6535000Y50285000D03*
X17265000Y11185000D03*
X22472715Y47781913D03*
X12215000Y16785000D03*
X-11535000Y18785000D03*
X-3535000Y14385000D03*
X11615000Y40435000D03*
X8965000Y27985000D03*
X-16531913Y44292715D03*
X9765000Y17985000D03*
X1465000Y50285000D03*
X-20535000Y50285000D03*
X-22535000Y44285000D03*
X14465000Y36135000D03*
D18*
X-3994400Y24345300D03*
D19*
X17815000Y12635000D03*
X14115000Y13885000D03*
D18*
X2315000Y31685000D03*
D19*
X-11860000Y42560000D03*
X22465000Y31785000D03*
X5465000Y50285000D03*
X22465000Y23785000D03*
X-24535000Y44285000D03*
X18715000Y11185000D03*
X-12535000Y50285000D03*
X22465000Y45785000D03*
X22465000Y19785000D03*
D18*
X-4794400Y34085300D03*
D19*
X14215000Y8385000D03*
D18*
X15565000Y18485000D03*
X-3994400Y27285300D03*
D19*
X-8535000Y50285000D03*
X19165000Y46335000D03*
X11468087Y50292715D03*
X8365000Y30385000D03*
D18*
X9265000Y23485000D03*
D19*
X12165000Y27985000D03*
X14515000Y40435000D03*
X15465000Y16285000D03*
X-26535000Y44285000D03*
X-1535000Y14385000D03*
D18*
X-4794400Y23485300D03*
X4325000Y27325000D03*
D19*
X22472715Y25781913D03*
X22465000Y50285000D03*
X1765000Y22285000D03*
X-11535000Y24785000D03*
D18*
X12265000Y17885000D03*
D19*
X-5535000Y14385000D03*
X10565000Y29185000D03*
X10865000Y12385000D03*
X-11835000Y38485000D03*
D18*
X13365000Y16785000D03*
D19*
X-22535000Y50285000D03*
X-30535000Y50285000D03*
D18*
X-1684400Y33650300D03*
D19*
X13015000Y9735000D03*
X-16531913Y50292715D03*
X-14535000Y44285000D03*
X-4535000Y50285000D03*
X-14535000Y50285000D03*
X-26535000Y50285000D03*
X-11542715Y20788087D03*
X18795000Y28890000D03*
X4765000Y37260000D03*
X-11535000Y16785000D03*
D18*
X14665000Y17585000D03*
D19*
X-11535000Y22785000D03*
D18*
X17015000Y6985000D03*
D19*
X-30535000Y46785000D03*
X17165000Y37535000D03*
X9565000Y32785000D03*
X22472715Y35781913D03*
X-535000Y50285000D03*
X8565000Y15835000D03*
X9815000Y24685000D03*
X5315000Y14585000D03*
X22472715Y43781913D03*
X-28535000Y44285000D03*
X-30535000Y44785000D03*
D18*
X-3994400Y33240300D03*
D19*
X12215000Y15935000D03*
X-26835000Y48810000D03*
X17065000Y36135000D03*
X15315000Y38985000D03*
X-30535000Y48785000D03*
D18*
X9265000Y22085000D03*
D19*
X20165000Y30785000D03*
X-11542715Y34788087D03*
D18*
X605600Y31885300D03*
D19*
X-18535000Y44285000D03*
D18*
X605600Y35085300D03*
D19*
X15715000Y34935000D03*
D20*
X19165000Y48785000D03*
D18*
X605600Y27285300D03*
D19*
X-24535000Y50285000D03*
D18*
X-4794400Y31083500D03*
D19*
X22472715Y33781913D03*
X8365000Y29185000D03*
D18*
X605600Y28885300D03*
D19*
X9765000Y19085000D03*
X-7535000Y14385000D03*
X11665000Y13785000D03*
X-28535000Y50285000D03*
D18*
X3565000Y6185000D03*
D19*
X16765000Y7985000D03*
D18*
X-4794400Y28085300D03*
D19*
X8251808Y12646433D03*
D18*
X605600Y33485300D03*
D19*
X11565000Y11685000D03*
X-26860000Y45810000D03*
X15468087Y50292715D03*
X18968087Y50292715D03*
D18*
X4965000Y34035000D03*
D19*
X8615000Y16635000D03*
X22457285Y21788087D03*
X-10535000Y50285000D03*
X11615000Y38785000D03*
D18*
X-3994400Y30285300D03*
D19*
X22472715Y37781913D03*
D18*
X19465000Y6985000D03*
D19*
X9565000Y30385000D03*
X8365000Y32785000D03*
X3465000Y50285000D03*
X10565000Y27985000D03*
%TO.N,/PCIexpress_connector/~{PRSNT1}*%
X465000Y9585000D03*
D18*
X15965000Y14085000D03*
%TO.N,+3V3*%
X8565000Y19185000D03*
X12265000Y18985000D03*
D20*
X15365000Y46285000D03*
D18*
X18115000Y26785000D03*
X14665000Y38135000D03*
D20*
X18665000Y36075000D03*
D18*
X15065000Y20185000D03*
X8565000Y19785000D03*
X12965000Y46385000D03*
X12265000Y19785000D03*
X7615000Y38635000D03*
D20*
X14875000Y31625000D03*
D18*
X15465000Y19785000D03*
%TO.N,/LAN7430/VDD12_SW_FB*%
X7215000Y22085000D03*
D20*
X20065000Y32985000D03*
D18*
X13465000Y22805000D03*
D20*
X20065000Y34035000D03*
D18*
X14065000Y33835000D03*
D20*
%TO.N,/LAN7430/VDD12CORE*%
X6715000Y25485000D03*
D19*
X12415000Y35935000D03*
X14815000Y30635000D03*
D18*
%TO.N,/LAN7430/AVDDH*%
X6015000Y26635000D03*
X6215000Y33235000D03*
X4365000Y26485000D03*
D19*
%TO.N,/LAN7430/VPTX*%
X11415000Y26135000D03*
D18*
%TO.N,/LAN7430/AVDDL*%
X5775000Y25625000D03*
X6215000Y29135000D03*
X6005000Y31625000D03*
D20*
%TO.N,/LAN7430/AVDD12*%
X8915000Y35385000D03*
%TO.N,/LAN7430/TEST*%
X13815000Y36035000D03*
D18*
%TO.N,/LAN7430/VDD_2V5*%
X17265000Y25485000D03*
D20*
X14225000Y22925000D03*
D18*
X4175000Y22925000D03*
D20*
X15565000Y28535000D03*
D18*
%TO.N,/PCIexpress_connector/3V3*%
X4015000Y12735000D03*
X4515000Y12235000D03*
%TO.N,/LAN7430/PCIE_TX_P*%
X14581301Y11501301D03*
%TO.N,/LAN7430/PCIE_TX_N*%
X15165000Y12085000D03*
%TO.N,/LAN7430/PCIE_CLK_P*%
X14331301Y14618699D03*
%TO.N,/LAN7430/PCIE_CLK_N*%
X14865000Y14085000D03*
D19*
%TO.N,/LAN_JTAG_TCK*%
X9665000Y38535000D03*
X15215000Y35385000D03*
X2965000Y21085000D03*
X-1335000Y43185000D03*
%TO.N,/Ethernet/MDI_A_P*%
X-29033344Y34583344D03*
%TO.N,/Ethernet/MDI_A_N*%
X-28610000Y34160000D03*
%TO.N,/Ethernet/MDI_B_P*%
X-33835000Y31485000D03*
X-30345844Y31545844D03*
%TO.N,/Ethernet/MDI_C_P*%
X-27436656Y29458344D03*
%TO.N,/Ethernet/MDI_C_N*%
X-27935000Y28985000D03*
%TO.N,/Ethernet/MDI_B_N*%
X-29835000Y31085000D03*
X-33835000Y30854500D03*
%TO.N,/Ethernet/MDI_D_P*%
X-32885000Y32765500D03*
%TO.N,/Ethernet/MDI_D_N*%
X-32935000Y32085000D03*
%TO.N,/CASE*%
X-23041593Y38797064D03*
X-19035000Y38785000D03*
X-15035000Y14385000D03*
X-42035000Y14385000D03*
X-22835000Y30785000D03*
X-33035000Y50285000D03*
X-43735000Y31785000D03*
X-31035000Y20785000D03*
X-19035000Y20785000D03*
X-27035000Y41785000D03*
X-43735000Y17785000D03*
X-34535000Y50285000D03*
X-21035000Y41785000D03*
X-25035000Y14385000D03*
X-15035000Y22785000D03*
X-17031913Y41792715D03*
X-21035000Y38785000D03*
X-23035000Y41785000D03*
X-43735000Y25785000D03*
X-25035000Y20785000D03*
X-33535000Y14385000D03*
X-43735000Y44785000D03*
X-15025000Y40315000D03*
X-22835000Y27985000D03*
X-31035000Y41785000D03*
X-40335000Y31760000D03*
X-40535000Y50285000D03*
X-35535000Y20785000D03*
X-28535000Y31085000D03*
X-22835000Y33285000D03*
X-31035000Y33285000D03*
X-31035000Y38785000D03*
X-43735000Y46785000D03*
X-15035000Y16785000D03*
X-43735000Y41785000D03*
X-19035000Y41785000D03*
X-35360000Y25760000D03*
X-38535000Y50285000D03*
X-15035000Y32785000D03*
X-43735000Y37785000D03*
X-15035000Y26785000D03*
X-27035000Y20785000D03*
X-42835000Y20485000D03*
X-31035000Y26785000D03*
X-25035000Y41785000D03*
X-34860000Y27810000D03*
X-29035000Y14385000D03*
X-25035000Y24785000D03*
X-23035000Y20785000D03*
X-43735000Y39785000D03*
X-43735000Y21785000D03*
X-42535000Y50285000D03*
X-33035000Y46785000D03*
X-29035000Y41785000D03*
X-15035000Y18785000D03*
X-43735000Y29785000D03*
X-33035000Y20785000D03*
X-43735000Y19785000D03*
X-43735000Y33785000D03*
X-21035000Y20785000D03*
X-27035000Y14385000D03*
X-33035000Y44785000D03*
X-34835000Y38785000D03*
X-33685000Y32560000D03*
X-27535000Y35785000D03*
X-22835000Y24785000D03*
X-23035000Y35785000D03*
X-28585000Y29485000D03*
X-43735000Y23785000D03*
X-15035000Y38785000D03*
X-40235000Y26560000D03*
X-43735000Y50285000D03*
X-30435000Y23885000D03*
X-30535000Y21785000D03*
X-19035000Y14385000D03*
X-33035000Y38785000D03*
X-24035000Y33285000D03*
X-17035000Y38785000D03*
X-33835000Y21885000D03*
X-35635000Y35335000D03*
X-38335000Y35360000D03*
X-23035000Y14385000D03*
X-40235000Y20485000D03*
X-33035000Y48785000D03*
X-21035000Y14385000D03*
X-15035000Y30785000D03*
X-43735000Y15785000D03*
X-30198327Y32337031D03*
X-15035000Y41785000D03*
X-43735000Y14385000D03*
X-31035000Y14385000D03*
X-15035000Y34785000D03*
X-31035000Y28785000D03*
X-43735000Y27785000D03*
X-43735000Y35785000D03*
X-15035000Y24785000D03*
X-34610000Y33810000D03*
X-37535000Y14385000D03*
X-15035000Y36785000D03*
X-26035000Y35785000D03*
X-18535000Y22785000D03*
X-31035000Y32185000D03*
X-35535000Y14385000D03*
X-17035000Y20785000D03*
X-17035000Y14385000D03*
X-26935000Y27960000D03*
X-39535000Y14385000D03*
X-38335000Y20785000D03*
X-21035000Y35785000D03*
X-15035000Y28785000D03*
X-43735000Y48685000D03*
X-36535000Y50285000D03*
X-34085000Y29335000D03*
X-33035000Y41785000D03*
X-26710000Y32485000D03*
X-29035000Y20785000D03*
X-15035000Y20785000D03*
X-24135000Y27985000D03*
X-28285000Y26685000D03*
%TO.N,/RESET*%
X14865000Y29535000D03*
D20*
X17885000Y34975000D03*
D19*
%TO.N,/LAN_JTAG_TDI*%
X13315000Y34635000D03*
X12465000Y41285000D03*
%TO.N,/LAN_JTAG_TDO*%
X17740000Y39285000D03*
X13915000Y34485000D03*
%TO.N,/LAN7430/RESREF*%
X13915000Y26435000D03*
%TO.N,/PCIexpress_connector/12V*%
X1480000Y6175000D03*
%TO.N,/LAN7430/~{PCIE_CLKREQ}*%
X10765000Y36285000D03*
D18*
X9765000Y12785000D03*
D19*
%TO.N,/LAN7430/~{PCIE_PERST}*%
X10225000Y35425000D03*
X2465000Y36785000D03*
%TO.N,/LAN7430/~{PCIE_WAKE}*%
X10425000Y34825000D03*
D18*
X9365000Y12085000D03*
D19*
%TO.N,/Ethernet/TXRX_A_P*%
X-1594400Y36835000D03*
%TO.N,/Ethernet/TXRX_A_N*%
X-1594400Y36204800D03*
%TO.N,/Ethernet/TXRX_B_P*%
X-1594400Y31365800D03*
%TO.N,/Ethernet/TXRX_B_N*%
X-1610000Y30760000D03*
%TO.N,/Ethernet/TXRX_C_P*%
X-1594400Y29965800D03*
%TO.N,/Ethernet/TXRX_C_N*%
X-1585000Y29360000D03*
%TO.N,/Ethernet/TXRX_D_P*%
X-1594400Y24165800D03*
%TO.N,/Ethernet/TXRX_D_N*%
X-1594400Y23485000D03*
%TO.N,/Ethernet/BOB_SMITH*%
X-21835000Y24385000D03*
D18*
X-21835000Y33285000D03*
D19*
X-21835000Y27285000D03*
X-21835000Y30285000D03*
%TD*%
D21*
%TO.N,/PCIexpress_connector/~{PRSNT1}*%
X15165000Y15785000D02*
X12665000Y15785000D01*
X15965000Y14085000D02*
X15965000Y14985000D01*
X8765000Y10285000D02*
X1165000Y10285000D01*
X12665000Y15785000D02*
X10265000Y13385000D01*
X10265000Y13385000D02*
X10265000Y11785000D01*
X1165000Y10285000D02*
X465000Y9585000D01*
X15965000Y14985000D02*
X15165000Y15785000D01*
X10265000Y11785000D02*
X8765000Y10285000D01*
%TO.N,/LAN_JTAG_TCK*%
X9665000Y38535000D02*
X9665000Y45660000D01*
X9665000Y45660000D02*
X9845000Y45840000D01*
%TO.N,/LAN_JTAG_TDO*%
X13915000Y34685000D02*
X13915000Y34485000D01*
X12865000Y35735000D02*
X13915000Y34685000D01*
X12865000Y36985000D02*
X12865000Y35735000D01*
X16515000Y37585000D02*
X13465000Y37585000D01*
X17740000Y38810000D02*
X16515000Y37585000D01*
X17740000Y39285000D02*
X17740000Y38810000D01*
X13465000Y37585000D02*
X12865000Y36985000D01*
%TD*%
%TA.AperFunction,Conductor*%
%TO.N,/LAN_JTAG_TDO*%
G36*
X13780791Y34909176D02*
G01*
X13812579Y34878019D01*
X13847241Y34845516D01*
X13877702Y34818234D01*
X13905164Y34794634D01*
X13930825Y34773176D01*
X13955884Y34752319D01*
X13961877Y34747228D01*
X13981463Y34730590D01*
X13981638Y34730438D01*
X14008889Y34706343D01*
X14009103Y34706149D01*
X14039322Y34678072D01*
X14039535Y34677870D01*
X14067806Y34650247D01*
X14071328Y34642014D01*
X14069939Y34636346D01*
X13935523Y34385825D01*
X13928592Y34380155D01*
X13919681Y34381047D01*
X13917844Y34382270D01*
X13708374Y34552241D01*
X13704109Y34560115D01*
X13704707Y34565202D01*
X13713128Y34589186D01*
X13713137Y34589213D01*
X13723553Y34618649D01*
X13723566Y34618685D01*
X13732448Y34646316D01*
X13738967Y34672574D01*
X13742306Y34697926D01*
X13741648Y34722841D01*
X13736177Y34747786D01*
X13725076Y34773229D01*
X13707527Y34799638D01*
X13690063Y34819236D01*
X13687118Y34827690D01*
X13690526Y34835291D01*
X13764328Y34909093D01*
X13772601Y34912520D01*
X13780791Y34909176D01*
G37*
%TD.AperFunction*%
%TD*%
%TA.AperFunction,Conductor*%
%TO.N,/LAN_JTAG_TCK*%
G36*
X9939138Y46062262D02*
G01*
X10176745Y45500464D01*
X10183971Y45483378D01*
X10184037Y45474423D01*
X10180851Y45469972D01*
X10115145Y45413132D01*
X10114548Y45412651D01*
X10045574Y45360722D01*
X10045266Y45360500D01*
X9980067Y45314992D01*
X9919879Y45272317D01*
X9919762Y45272223D01*
X9919753Y45272216D01*
X9866228Y45229091D01*
X9866224Y45229087D01*
X9865953Y45228869D01*
X9819383Y45180934D01*
X9781260Y45124795D01*
X9781034Y45124256D01*
X9781032Y45124253D01*
X9757366Y45067901D01*
X9752677Y45056737D01*
X9734726Y44973044D01*
X9734700Y44972609D01*
X9729164Y44880994D01*
X9725244Y44872943D01*
X9717485Y44870000D01*
X9612665Y44870000D01*
X9604392Y44873427D01*
X9600978Y44881153D01*
X9595363Y45001053D01*
X9595362Y45001060D01*
X9595348Y45001365D01*
X9578494Y45110378D01*
X9574694Y45124253D01*
X9553422Y45201910D01*
X9553342Y45202203D01*
X9522295Y45282003D01*
X9487757Y45354941D01*
X9487735Y45354984D01*
X9487720Y45355016D01*
X9452220Y45426001D01*
X9452052Y45426351D01*
X9418011Y45500464D01*
X9417660Y45501315D01*
X9387438Y45583635D01*
X9387076Y45584808D01*
X9362913Y45680705D01*
X9362667Y45681972D01*
X9347981Y45788883D01*
X9350250Y45797545D01*
X9354597Y45801065D01*
X9923387Y46068294D01*
X9932332Y46068710D01*
X9939138Y46062262D01*
G37*
%TD.AperFunction*%
%TD*%
%TA.AperFunction,Conductor*%
%TO.N,/LAN_JTAG_TDO*%
G36*
X17748433Y39388731D02*
G01*
X17936653Y39193006D01*
X17939917Y39184668D01*
X17938577Y39179456D01*
X17921734Y39147391D01*
X17921393Y39146786D01*
X17901234Y39113385D01*
X17900990Y39112999D01*
X17881559Y39083473D01*
X17863286Y39056094D01*
X17846710Y39029257D01*
X17832237Y39001157D01*
X17820274Y38969987D01*
X17811225Y38933942D01*
X17805499Y38891215D01*
X17805489Y38890955D01*
X17805488Y38890945D01*
X17803939Y38851244D01*
X17800192Y38843111D01*
X17792248Y38840000D01*
X17687752Y38840000D01*
X17679479Y38843427D01*
X17676061Y38851243D01*
X17674511Y38890946D01*
X17674510Y38890956D01*
X17674500Y38891215D01*
X17668774Y38933942D01*
X17659725Y38969987D01*
X17647762Y39001157D01*
X17633289Y39029257D01*
X17616713Y39056094D01*
X17598440Y39083473D01*
X17579009Y39112999D01*
X17578765Y39113385D01*
X17558606Y39146786D01*
X17558265Y39147391D01*
X17541423Y39179456D01*
X17540610Y39188374D01*
X17543347Y39193005D01*
X17731567Y39388731D01*
X17739771Y39392319D01*
X17748433Y39388731D01*
G37*
%TD.AperFunction*%
%TD*%
%TA.AperFunction,Conductor*%
%TO.N,/LAN_JTAG_TCK*%
G36*
X9725521Y38976573D02*
G01*
X9728939Y38968756D01*
X9730488Y38929056D01*
X9730489Y38929046D01*
X9730499Y38928786D01*
X9736225Y38886059D01*
X9745274Y38850014D01*
X9757237Y38818844D01*
X9771710Y38790744D01*
X9788286Y38763907D01*
X9788345Y38763819D01*
X9806559Y38736528D01*
X9806600Y38736465D01*
X9825990Y38707002D01*
X9826234Y38706616D01*
X9846393Y38673215D01*
X9846734Y38672610D01*
X9863577Y38640544D01*
X9864390Y38631626D01*
X9861653Y38626995D01*
X9673433Y38431269D01*
X9665229Y38427681D01*
X9656567Y38431269D01*
X9468348Y38626994D01*
X9465083Y38635333D01*
X9466423Y38640544D01*
X9483261Y38672602D01*
X9483602Y38673208D01*
X9503765Y38706616D01*
X9504009Y38707002D01*
X9523399Y38736465D01*
X9523440Y38736528D01*
X9541654Y38763819D01*
X9541713Y38763907D01*
X9558289Y38790744D01*
X9572762Y38818844D01*
X9584725Y38850014D01*
X9593774Y38886059D01*
X9599500Y38928786D01*
X9601061Y38968757D01*
X9604808Y38976890D01*
X9612752Y38980000D01*
X9717248Y38980000D01*
X9725521Y38976573D01*
G37*
%TD.AperFunction*%
%TD*%
%TA.AperFunction,Conductor*%
%TO.N,/PCIexpress_connector/~{PRSNT1}*%
G36*
X16025575Y14626573D02*
G01*
X16028991Y14618814D01*
X16031280Y14566710D01*
X16039204Y14514255D01*
X16051643Y14470303D01*
X16067972Y14432524D01*
X16087562Y14398585D01*
X16109788Y14366154D01*
X16109846Y14366074D01*
X16109847Y14366073D01*
X16133968Y14332972D01*
X16134081Y14332814D01*
X16159462Y14296734D01*
X16159795Y14296234D01*
X16185779Y14254946D01*
X16186202Y14254216D01*
X16208507Y14212361D01*
X16209374Y14203449D01*
X16206615Y14198749D01*
X15973433Y13956269D01*
X15965229Y13952681D01*
X15956567Y13956269D01*
X15723385Y14198750D01*
X15720120Y14207089D01*
X15721493Y14212362D01*
X15743794Y14254210D01*
X15744217Y14254940D01*
X15770204Y14296234D01*
X15770537Y14296734D01*
X15795918Y14332814D01*
X15796031Y14332972D01*
X15820152Y14366073D01*
X15820153Y14366074D01*
X15820211Y14366154D01*
X15842437Y14398585D01*
X15862027Y14432524D01*
X15878356Y14470303D01*
X15890795Y14514255D01*
X15898719Y14566710D01*
X15901009Y14618815D01*
X15904795Y14626928D01*
X15912697Y14630000D01*
X16017302Y14630000D01*
X16025575Y14626573D01*
G37*
%TD.AperFunction*%
%TD*%
%TA.AperFunction,Conductor*%
%TO.N,/LAN_JTAG_TCK*%
G36*
X9939138Y46062262D02*
G01*
X10176745Y45500464D01*
X10183971Y45483378D01*
X10184037Y45474423D01*
X10180851Y45469972D01*
X10115145Y45413132D01*
X10114548Y45412651D01*
X10045574Y45360722D01*
X10045266Y45360500D01*
X9980067Y45314992D01*
X9919879Y45272317D01*
X9919762Y45272223D01*
X9919753Y45272216D01*
X9866228Y45229091D01*
X9866224Y45229087D01*
X9865953Y45228869D01*
X9819383Y45180934D01*
X9781260Y45124795D01*
X9781034Y45124256D01*
X9781032Y45124253D01*
X9757366Y45067901D01*
X9752677Y45056737D01*
X9734726Y44973044D01*
X9734700Y44972609D01*
X9729164Y44880994D01*
X9725244Y44872943D01*
X9717485Y44870000D01*
X9612665Y44870000D01*
X9604392Y44873427D01*
X9600978Y44881153D01*
X9595363Y45001053D01*
X9595362Y45001060D01*
X9595348Y45001365D01*
X9578494Y45110378D01*
X9574694Y45124253D01*
X9553422Y45201910D01*
X9553342Y45202203D01*
X9522295Y45282003D01*
X9487757Y45354941D01*
X9487735Y45354984D01*
X9487720Y45355016D01*
X9452220Y45426001D01*
X9452052Y45426351D01*
X9418011Y45500464D01*
X9417660Y45501315D01*
X9387438Y45583635D01*
X9387076Y45584808D01*
X9362913Y45680705D01*
X9362667Y45681972D01*
X9347981Y45788883D01*
X9350250Y45797545D01*
X9354597Y45801065D01*
X9923387Y46068294D01*
X9932332Y46068710D01*
X9939138Y46062262D01*
G37*
%TD.AperFunction*%
%TD*%
%TA.AperFunction,Conductor*%
%TO.N,/LAN_JTAG_TCK*%
G36*
X9939138Y46062262D02*
G01*
X10176745Y45500464D01*
X10183971Y45483378D01*
X10184037Y45474423D01*
X10180851Y45469972D01*
X10115145Y45413132D01*
X10114548Y45412651D01*
X10045574Y45360722D01*
X10045266Y45360500D01*
X9980067Y45314992D01*
X9919879Y45272317D01*
X9919762Y45272223D01*
X9919753Y45272216D01*
X9866228Y45229091D01*
X9866224Y45229087D01*
X9865953Y45228869D01*
X9819383Y45180934D01*
X9781260Y45124795D01*
X9781034Y45124256D01*
X9781032Y45124253D01*
X9757366Y45067901D01*
X9752677Y45056737D01*
X9734726Y44973044D01*
X9734700Y44972609D01*
X9729164Y44880994D01*
X9725244Y44872943D01*
X9717485Y44870000D01*
X9612665Y44870000D01*
X9604392Y44873427D01*
X9600978Y44881153D01*
X9595363Y45001053D01*
X9595362Y45001060D01*
X9595348Y45001365D01*
X9578494Y45110378D01*
X9574694Y45124253D01*
X9553422Y45201910D01*
X9553342Y45202203D01*
X9522295Y45282003D01*
X9487757Y45354941D01*
X9487735Y45354984D01*
X9487720Y45355016D01*
X9452220Y45426001D01*
X9452052Y45426351D01*
X9418011Y45500464D01*
X9417660Y45501315D01*
X9387438Y45583635D01*
X9387076Y45584808D01*
X9362913Y45680705D01*
X9362667Y45681972D01*
X9347981Y45788883D01*
X9350250Y45797545D01*
X9354597Y45801065D01*
X9923387Y46068294D01*
X9932332Y46068710D01*
X9939138Y46062262D01*
G37*
%TD.AperFunction*%
%TD*%
%TA.AperFunction,Conductor*%
%TO.N,/LAN_JTAG_TCK*%
G36*
X9939138Y46062262D02*
G01*
X10176745Y45500464D01*
X10183971Y45483378D01*
X10184037Y45474423D01*
X10180851Y45469972D01*
X10115145Y45413132D01*
X10114548Y45412651D01*
X10045574Y45360722D01*
X10045266Y45360500D01*
X9980067Y45314992D01*
X9919879Y45272317D01*
X9919762Y45272223D01*
X9919753Y45272216D01*
X9866228Y45229091D01*
X9866224Y45229087D01*
X9865953Y45228869D01*
X9819383Y45180934D01*
X9781260Y45124795D01*
X9781034Y45124256D01*
X9781032Y45124253D01*
X9757366Y45067901D01*
X9752677Y45056737D01*
X9734726Y44973044D01*
X9734700Y44972609D01*
X9729164Y44880994D01*
X9725244Y44872943D01*
X9717485Y44870000D01*
X9612665Y44870000D01*
X9604392Y44873427D01*
X9600978Y44881153D01*
X9595363Y45001053D01*
X9595362Y45001060D01*
X9595348Y45001365D01*
X9578494Y45110378D01*
X9574694Y45124253D01*
X9553422Y45201910D01*
X9553342Y45202203D01*
X9522295Y45282003D01*
X9487757Y45354941D01*
X9487735Y45354984D01*
X9487720Y45355016D01*
X9452220Y45426001D01*
X9452052Y45426351D01*
X9418011Y45500464D01*
X9417660Y45501315D01*
X9387438Y45583635D01*
X9387076Y45584808D01*
X9362913Y45680705D01*
X9362667Y45681972D01*
X9347981Y45788883D01*
X9350250Y45797545D01*
X9354597Y45801065D01*
X9923387Y46068294D01*
X9932332Y46068710D01*
X9939138Y46062262D01*
G37*
%TD.AperFunction*%
%TD*%
%TA.AperFunction,Conductor*%
%TO.N,/PCIexpress_connector/~{PRSNT1}*%
G36*
X742717Y9936606D02*
G01*
X816607Y9862716D01*
X820034Y9854443D01*
X816923Y9846500D01*
X789762Y9817133D01*
X763599Y9782871D01*
X744509Y9750985D01*
X730928Y9720486D01*
X721292Y9690382D01*
X714037Y9659685D01*
X714023Y9659613D01*
X714020Y9659601D01*
X707613Y9627478D01*
X707598Y9627404D01*
X700456Y9592770D01*
X700355Y9592325D01*
X690994Y9554464D01*
X690807Y9553795D01*
X680045Y9519217D01*
X674315Y9512336D01*
X669103Y9510996D01*
X571741Y9509093D01*
X397616Y9505689D01*
X389277Y9508954D01*
X385689Y9517616D01*
X389655Y9720486D01*
X390996Y9789104D01*
X394584Y9797308D01*
X399215Y9800045D01*
X433794Y9810808D01*
X434463Y9810995D01*
X472324Y9820356D01*
X472769Y9820457D01*
X488781Y9823759D01*
X507403Y9827599D01*
X527764Y9831660D01*
X539600Y9834021D01*
X539612Y9834024D01*
X539684Y9834038D01*
X570381Y9841293D01*
X570586Y9841359D01*
X570591Y9841360D01*
X586645Y9846499D01*
X600485Y9850929D01*
X630984Y9864510D01*
X631282Y9864688D01*
X631287Y9864691D01*
X662579Y9883426D01*
X662870Y9883600D01*
X697132Y9909763D01*
X697331Y9909947D01*
X726500Y9936923D01*
X734901Y9940024D01*
X742717Y9936606D01*
G37*
%TD.AperFunction*%
%TD*%
%TA.AperFunction,Conductor*%
%TO.N,/CASE*%
G36*
X-32588448Y50581573D02*
G01*
X-32585021Y50573280D01*
X-32592767Y46307983D01*
X-32599885Y42388136D01*
X-32600000Y42325000D01*
X-14036700Y42325000D01*
X-14028427Y42321573D01*
X-14025000Y42313300D01*
X-14025000Y13811700D01*
X-14028427Y13803427D01*
X-14036700Y13800000D01*
X-44138295Y13800000D01*
X-44146568Y13803427D01*
X-44149995Y13811705D01*
X-44149512Y15035000D01*
X-20785000Y15035000D01*
X-18288390Y15035000D01*
X-18280117Y15031573D01*
X-18276690Y15023300D01*
X-18276690Y15002000D01*
X-16893309Y15002000D01*
X-16893309Y15023300D01*
X-16889882Y15031573D01*
X-16881609Y15035000D01*
X-15585000Y15035000D01*
X-15585000Y17135000D01*
X-16881609Y17135000D01*
X-16889882Y17138427D01*
X-16893309Y17146700D01*
X-16893309Y17168000D01*
X-18276690Y17168000D01*
X-18276690Y17146700D01*
X-18280117Y17138427D01*
X-18288390Y17135000D01*
X-20785000Y17135000D01*
X-20785000Y15035000D01*
X-44149512Y15035000D01*
X-44147448Y20261232D01*
X-37917829Y20261232D01*
X-37917501Y20260440D01*
X-37775436Y20173383D01*
X-37774616Y20172966D01*
X-37534361Y20073448D01*
X-37533491Y20073165D01*
X-37280613Y20012455D01*
X-37279715Y20012313D01*
X-37020457Y19991909D01*
X-37019543Y19991909D01*
X-36760285Y20012313D01*
X-36759387Y20012455D01*
X-36506509Y20073165D01*
X-36505639Y20073448D01*
X-36265384Y20172966D01*
X-36264564Y20173383D01*
X-36123190Y20260017D01*
X-36122144Y20261457D01*
X-36122278Y20262303D01*
X-37018354Y21158379D01*
X-37020000Y21159061D01*
X-37021646Y21158379D01*
X-37917147Y20262878D01*
X-37917829Y20261232D01*
X-44147448Y20261232D01*
X-44146212Y23392245D01*
X-42334042Y23392245D01*
X-42334002Y23391827D01*
X-42334002Y23391822D01*
X-42316249Y23205749D01*
X-42308136Y23120720D01*
X-42243305Y22855778D01*
X-42243147Y22855388D01*
X-42200172Y22749288D01*
X-42140908Y22602970D01*
X-42003088Y22367592D01*
X-42002824Y22367262D01*
X-42002822Y22367259D01*
X-41844559Y22169361D01*
X-41832734Y22154575D01*
X-41633413Y21968380D01*
X-41409302Y21812908D01*
X-41408925Y21812721D01*
X-41408926Y21812721D01*
X-41165476Y21691606D01*
X-41165470Y21691603D01*
X-41165095Y21691417D01*
X-41164698Y21691287D01*
X-41164696Y21691286D01*
X-40906309Y21606583D01*
X-40906303Y21606582D01*
X-40905908Y21606452D01*
X-40905499Y21606381D01*
X-40905495Y21606380D01*
X-40697011Y21570181D01*
X-40637171Y21559791D01*
X-40602961Y21558088D01*
X-40551124Y21555507D01*
X-40551114Y21555507D01*
X-40550978Y21555500D01*
X-40380718Y21555500D01*
X-40380517Y21555515D01*
X-40380505Y21555515D01*
X-40222639Y21566970D01*
X-40177957Y21570212D01*
X-40177543Y21570303D01*
X-40177539Y21570304D01*
X-39912028Y21628923D01*
X-39912023Y21628924D01*
X-39911613Y21629015D01*
X-39844233Y21654543D01*
X-38683091Y21654543D01*
X-38662687Y21395285D01*
X-38662545Y21394387D01*
X-38601835Y21141509D01*
X-38601552Y21140639D01*
X-38502034Y20900384D01*
X-38501617Y20899564D01*
X-38414983Y20758190D01*
X-38413543Y20757144D01*
X-38412697Y20757278D01*
X-37516621Y21653354D01*
X-37515939Y21655000D01*
X-36524061Y21655000D01*
X-36523379Y21653354D01*
X-35627878Y20757853D01*
X-35626232Y20757171D01*
X-35625440Y20757499D01*
X-35538383Y20899564D01*
X-35537966Y20900384D01*
X-35438448Y21140639D01*
X-35438165Y21141509D01*
X-35377455Y21394387D01*
X-35377313Y21395285D01*
X-35356909Y21654543D01*
X-35356909Y21655457D01*
X-35377313Y21914715D01*
X-35377455Y21915613D01*
X-35438165Y22168491D01*
X-35438448Y22169361D01*
X-35537966Y22409616D01*
X-35538383Y22410436D01*
X-35625017Y22551810D01*
X-35626457Y22552856D01*
X-35627303Y22552722D01*
X-36523379Y21656646D01*
X-36524061Y21655000D01*
X-37515939Y21655000D01*
X-37516621Y21656646D01*
X-38412122Y22552147D01*
X-38413768Y22552829D01*
X-38414560Y22552501D01*
X-38501617Y22410436D01*
X-38502034Y22409616D01*
X-38601552Y22169361D01*
X-38601835Y22168491D01*
X-38662545Y21915613D01*
X-38662687Y21914715D01*
X-38683091Y21655457D01*
X-38683091Y21654543D01*
X-39844233Y21654543D01*
X-39656547Y21725651D01*
X-39418102Y21858095D01*
X-39201275Y22023573D01*
X-39035555Y22193096D01*
X-39010905Y22218312D01*
X-39010904Y22218313D01*
X-39010606Y22218618D01*
X-38850090Y22439144D01*
X-38723090Y22680531D01*
X-38632266Y22937724D01*
X-38610703Y23047122D01*
X-38610423Y23048543D01*
X-37917856Y23048543D01*
X-37917722Y23047697D01*
X-37021646Y22151621D01*
X-37020000Y22150939D01*
X-37018354Y22151621D01*
X-36244975Y22925000D01*
X-32155130Y22925000D01*
X-32136662Y22749288D01*
X-32136471Y22748700D01*
X-32089246Y22603357D01*
X-32082065Y22581255D01*
X-31993725Y22428245D01*
X-31875502Y22296946D01*
X-31732565Y22193096D01*
X-31571160Y22121234D01*
X-31517578Y22109845D01*
X-31398944Y22084628D01*
X-31398940Y22084628D01*
X-31398340Y22084500D01*
X-31221660Y22084500D01*
X-31221060Y22084628D01*
X-31221056Y22084628D01*
X-31102422Y22109845D01*
X-31048840Y22121234D01*
X-30887435Y22193096D01*
X-30744498Y22296946D01*
X-30626275Y22428245D01*
X-30537935Y22581255D01*
X-30530753Y22603357D01*
X-30483529Y22748700D01*
X-30483338Y22749288D01*
X-30464870Y22925000D01*
X-30483338Y23100712D01*
X-30517198Y23204923D01*
X-30537746Y23268164D01*
X-30537747Y23268166D01*
X-30537935Y23268745D01*
X-30626275Y23421755D01*
X-30744498Y23553054D01*
X-30887435Y23656904D01*
X-31048840Y23728766D01*
X-31102422Y23740155D01*
X-31221056Y23765372D01*
X-31221060Y23765372D01*
X-31221660Y23765500D01*
X-31398340Y23765500D01*
X-31398940Y23765372D01*
X-31398944Y23765372D01*
X-31517578Y23740155D01*
X-31571160Y23728766D01*
X-31732565Y23656904D01*
X-31875502Y23553054D01*
X-31993725Y23421755D01*
X-32082065Y23268745D01*
X-32082253Y23268166D01*
X-32082254Y23268164D01*
X-32102802Y23204923D01*
X-32136662Y23100712D01*
X-32155130Y22925000D01*
X-36244975Y22925000D01*
X-36122853Y23047122D01*
X-36122171Y23048768D01*
X-36122499Y23049560D01*
X-36264564Y23136617D01*
X-36265384Y23137034D01*
X-36505639Y23236552D01*
X-36506509Y23236835D01*
X-36759387Y23297545D01*
X-36760285Y23297687D01*
X-37019543Y23318091D01*
X-37020457Y23318091D01*
X-37279715Y23297687D01*
X-37280613Y23297545D01*
X-37533491Y23236835D01*
X-37534361Y23236552D01*
X-37774616Y23137034D01*
X-37775436Y23136617D01*
X-37916810Y23049983D01*
X-37917856Y23048543D01*
X-38610423Y23048543D01*
X-38579601Y23204923D01*
X-38579520Y23205334D01*
X-38577951Y23236835D01*
X-38565979Y23477335D01*
X-38565958Y23477755D01*
X-38573176Y23553414D01*
X-38591823Y23748853D01*
X-38591824Y23748857D01*
X-38591864Y23749280D01*
X-38656695Y24014222D01*
X-38669369Y24045513D01*
X-38758935Y24266643D01*
X-38758936Y24266646D01*
X-38759092Y24267030D01*
X-38896912Y24502408D01*
X-38914055Y24523845D01*
X-39066997Y24715089D01*
X-39066999Y24715091D01*
X-39067266Y24715425D01*
X-39266587Y24901620D01*
X-39490698Y25057092D01*
X-39514128Y25068748D01*
X-39734524Y25178394D01*
X-39734530Y25178397D01*
X-39734905Y25178583D01*
X-39735302Y25178713D01*
X-39735304Y25178714D01*
X-39845995Y25215000D01*
X-32165185Y25215000D01*
X-32146497Y25037197D01*
X-32091250Y24867165D01*
X-32001859Y24712335D01*
X-31882230Y24579474D01*
X-31737593Y24474388D01*
X-31574267Y24401671D01*
X-31526844Y24391591D01*
X-31399995Y24364628D01*
X-31399991Y24364628D01*
X-31399391Y24364500D01*
X-31220609Y24364500D01*
X-31220009Y24364628D01*
X-31220005Y24364628D01*
X-31097018Y24390770D01*
X-22307272Y24390770D01*
X-22289908Y24257987D01*
X-22235975Y24135415D01*
X-22149808Y24032906D01*
X-22149115Y24032444D01*
X-22149113Y24032443D01*
X-22122325Y24014612D01*
X-22038333Y23958703D01*
X-21910513Y23918769D01*
X-21834506Y23917376D01*
X-21777453Y23916330D01*
X-21777451Y23916330D01*
X-21776622Y23916315D01*
X-21647424Y23951538D01*
X-21635754Y23958703D01*
X-21534010Y24021174D01*
X-21534009Y24021175D01*
X-21533305Y24021607D01*
X-21522497Y24033547D01*
X-21510496Y24046806D01*
X-21443440Y24120889D01*
X-21385051Y24241403D01*
X-21380739Y24267030D01*
X-21362908Y24373021D01*
X-21362834Y24373461D01*
X-21362693Y24385000D01*
X-21381677Y24517561D01*
X-21437104Y24639465D01*
X-21441813Y24644930D01*
X-21523974Y24740283D01*
X-21523975Y24740284D01*
X-21524517Y24740913D01*
X-21525212Y24741364D01*
X-21525215Y24741366D01*
X-21636191Y24813297D01*
X-21636890Y24813750D01*
X-21745149Y24846126D01*
X-21764389Y24851880D01*
X-21764391Y24851880D01*
X-21765189Y24852119D01*
X-21834510Y24852542D01*
X-21898267Y24852932D01*
X-21898268Y24852932D01*
X-21899099Y24852937D01*
X-21979170Y24830053D01*
X-22027060Y24816366D01*
X-22027061Y24816365D01*
X-22027857Y24816138D01*
X-22141112Y24744680D01*
X-22141660Y24744059D01*
X-22141664Y24744056D01*
X-22166693Y24715715D01*
X-22229758Y24644307D01*
X-22286669Y24523089D01*
X-22307272Y24390770D01*
X-31097018Y24390770D01*
X-31093156Y24391591D01*
X-31045733Y24401671D01*
X-30882407Y24474388D01*
X-30737770Y24579474D01*
X-30618141Y24712335D01*
X-30528750Y24867165D01*
X-30473503Y25037197D01*
X-30454815Y25215000D01*
X-30473503Y25392803D01*
X-30528750Y25562835D01*
X-30618141Y25717665D01*
X-30737770Y25850526D01*
X-30882407Y25955612D01*
X-31045733Y26028329D01*
X-31099943Y26039852D01*
X-31220005Y26065372D01*
X-31220009Y26065372D01*
X-31220609Y26065500D01*
X-31399391Y26065500D01*
X-31399991Y26065372D01*
X-31399995Y26065372D01*
X-31520057Y26039852D01*
X-31574267Y26028329D01*
X-31737592Y25955612D01*
X-31882230Y25850526D01*
X-32001859Y25717665D01*
X-32091250Y25562835D01*
X-32146497Y25392803D01*
X-32165185Y25215000D01*
X-39845995Y25215000D01*
X-39993691Y25263417D01*
X-39993697Y25263418D01*
X-39994092Y25263548D01*
X-39994501Y25263619D01*
X-39994505Y25263620D01*
X-40262489Y25310150D01*
X-40262490Y25310150D01*
X-40262829Y25310209D01*
X-40297039Y25311912D01*
X-40348876Y25314493D01*
X-40348886Y25314493D01*
X-40349022Y25314500D01*
X-40519282Y25314500D01*
X-40519483Y25314485D01*
X-40519495Y25314485D01*
X-40677361Y25303030D01*
X-40722043Y25299788D01*
X-40722457Y25299697D01*
X-40722461Y25299696D01*
X-40987972Y25241077D01*
X-40987977Y25241076D01*
X-40988387Y25240985D01*
X-41243453Y25144349D01*
X-41481898Y25011905D01*
X-41626089Y24901861D01*
X-41690201Y24852932D01*
X-41698725Y24846427D01*
X-41889394Y24651382D01*
X-42049910Y24430856D01*
X-42176910Y24189469D01*
X-42267734Y23932276D01*
X-42267816Y23931862D01*
X-42267817Y23931857D01*
X-42270837Y23916534D01*
X-42320480Y23664666D01*
X-42320500Y23664256D01*
X-42320501Y23664251D01*
X-42326059Y23552601D01*
X-42334042Y23392245D01*
X-44146212Y23392245D01*
X-44144788Y26998885D01*
X-38902500Y26998885D01*
X-38902499Y25451116D01*
X-38902386Y25450550D01*
X-38902386Y25450546D01*
X-38890779Y25392193D01*
X-38888430Y25380381D01*
X-38834833Y25300167D01*
X-38833875Y25299527D01*
X-38779832Y25263417D01*
X-38754619Y25246570D01*
X-38753490Y25246345D01*
X-38753489Y25246345D01*
X-38684454Y25232613D01*
X-38684452Y25232613D01*
X-38683885Y25232500D01*
X-37910000Y25232500D01*
X-37136116Y25232501D01*
X-37135550Y25232614D01*
X-37135546Y25232614D01*
X-37066515Y25246344D01*
X-37066513Y25246345D01*
X-37065381Y25246570D01*
X-37040167Y25263417D01*
X-36986125Y25299527D01*
X-36985167Y25300167D01*
X-36931570Y25380381D01*
X-36917500Y25451115D01*
X-36917501Y26603065D01*
X-36914074Y26611338D01*
X-36905801Y26614765D01*
X-36897528Y26611338D01*
X-36896632Y26610332D01*
X-36847399Y26548216D01*
X-36699174Y26422066D01*
X-36529269Y26327110D01*
X-36528730Y26326935D01*
X-36528728Y26326934D01*
X-36481079Y26311452D01*
X-36344156Y26266963D01*
X-36150886Y26243917D01*
X-36150326Y26243960D01*
X-36150324Y26243960D01*
X-35957390Y26258805D01*
X-35957389Y26258805D01*
X-35956820Y26258849D01*
X-35769351Y26311192D01*
X-35737838Y26327110D01*
X-35596132Y26398691D01*
X-35595619Y26398950D01*
X-35566391Y26421785D01*
X-35547755Y26436345D01*
X-35442241Y26518782D01*
X-35315060Y26666123D01*
X-35286324Y26716708D01*
X-35219202Y26834862D01*
X-35219200Y26834866D01*
X-35218919Y26835361D01*
X-35213610Y26851318D01*
X-35157661Y27019510D01*
X-35157660Y27019513D01*
X-35157482Y27020049D01*
X-35151099Y27070577D01*
X-35133128Y27212826D01*
X-35133087Y27213154D01*
X-35133025Y27217541D01*
X-35132703Y27240668D01*
X-35132698Y27241000D01*
X-35137578Y27290770D01*
X-22307272Y27290770D01*
X-22289908Y27157987D01*
X-22235975Y27035415D01*
X-22149808Y26932906D01*
X-22149115Y26932444D01*
X-22149113Y26932443D01*
X-22049126Y26865887D01*
X-22038333Y26858703D01*
X-21910513Y26818769D01*
X-21834506Y26817376D01*
X-21777453Y26816330D01*
X-21777451Y26816330D01*
X-21776622Y26816315D01*
X-21647424Y26851538D01*
X-21635754Y26858703D01*
X-21534010Y26921174D01*
X-21534009Y26921175D01*
X-21533305Y26921607D01*
X-21522497Y26933547D01*
X-21462842Y26999454D01*
X-21443440Y27020889D01*
X-21385051Y27141403D01*
X-21362834Y27273461D01*
X-21362764Y27279230D01*
X-21362698Y27284553D01*
X-21362698Y27284559D01*
X-21362693Y27285000D01*
X-21368772Y27327452D01*
X-21381303Y27414950D01*
X-21381677Y27417561D01*
X-21395418Y27447783D01*
X-21436761Y27538711D01*
X-21436762Y27538712D01*
X-21437104Y27539465D01*
X-21524517Y27640913D01*
X-21525212Y27641364D01*
X-21525215Y27641366D01*
X-21636191Y27713297D01*
X-21636890Y27713750D01*
X-21701039Y27732934D01*
X-21764389Y27751880D01*
X-21764391Y27751880D01*
X-21765189Y27752119D01*
X-21834510Y27752542D01*
X-21898267Y27752932D01*
X-21898268Y27752932D01*
X-21899099Y27752937D01*
X-21979170Y27730053D01*
X-22027060Y27716366D01*
X-22027061Y27716365D01*
X-22027857Y27716138D01*
X-22141112Y27644680D01*
X-22141660Y27644059D01*
X-22141664Y27644056D01*
X-22162475Y27620491D01*
X-22229758Y27544307D01*
X-22286669Y27423089D01*
X-22307272Y27290770D01*
X-35137578Y27290770D01*
X-35151691Y27434710D01*
X-35152816Y27438439D01*
X-35207782Y27620491D01*
X-35207948Y27621042D01*
X-35214484Y27633335D01*
X-35299056Y27792391D01*
X-35299058Y27792394D01*
X-35299326Y27792898D01*
X-35308335Y27803945D01*
X-35421985Y27943293D01*
X-35421986Y27943294D01*
X-35422344Y27943733D01*
X-35572316Y28067801D01*
X-35588256Y28076420D01*
X-35743023Y28160102D01*
X-35743024Y28160102D01*
X-35743530Y28160376D01*
X-35929465Y28217932D01*
X-35930026Y28217991D01*
X-35930031Y28217992D01*
X-36122467Y28238218D01*
X-36123038Y28238278D01*
X-36316876Y28220637D01*
X-36399981Y28196178D01*
X-36503050Y28165843D01*
X-36503053Y28165842D01*
X-36503596Y28165682D01*
X-36504094Y28165421D01*
X-36504098Y28165420D01*
X-36675584Y28075770D01*
X-36675588Y28075767D01*
X-36676086Y28075507D01*
X-36676528Y28075152D01*
X-36676532Y28075149D01*
X-36827331Y27953903D01*
X-36827776Y27953545D01*
X-36828136Y27953116D01*
X-36828141Y27953111D01*
X-36913937Y27850862D01*
X-36952887Y27804443D01*
X-36953160Y27803947D01*
X-36953161Y27803945D01*
X-37043135Y27640283D01*
X-37046656Y27633879D01*
X-37046827Y27633339D01*
X-37046829Y27633335D01*
X-37092999Y27487786D01*
X-37105509Y27448351D01*
X-37105572Y27447786D01*
X-37105573Y27447783D01*
X-37123092Y27291591D01*
X-37127205Y27254925D01*
X-37127157Y27254353D01*
X-37125127Y27230179D01*
X-37127850Y27221648D01*
X-37135807Y27217541D01*
X-37136786Y27217500D01*
X-37966293Y27217499D01*
X-38683884Y27217499D01*
X-38684450Y27217386D01*
X-38684454Y27217386D01*
X-38753485Y27203656D01*
X-38753487Y27203655D01*
X-38754619Y27203430D01*
X-38834833Y27149833D01*
X-38888430Y27069619D01*
X-38888655Y27068490D01*
X-38888655Y27068489D01*
X-38902387Y26999454D01*
X-38902500Y26998885D01*
X-44144788Y26998885D01*
X-44144286Y28270925D01*
X-38907205Y28270925D01*
X-38890918Y28076968D01*
X-38890761Y28076421D01*
X-38890761Y28076420D01*
X-38888186Y28067439D01*
X-38837268Y27889869D01*
X-38837004Y27889356D01*
X-38766892Y27752932D01*
X-38748299Y27716753D01*
X-38627399Y27564216D01*
X-38479174Y27438066D01*
X-38309269Y27343110D01*
X-38308730Y27342935D01*
X-38308728Y27342934D01*
X-38261079Y27327452D01*
X-38124156Y27282963D01*
X-37930886Y27259917D01*
X-37930326Y27259960D01*
X-37930324Y27259960D01*
X-37737390Y27274805D01*
X-37737389Y27274805D01*
X-37736820Y27274849D01*
X-37549351Y27327192D01*
X-37517838Y27343110D01*
X-37376132Y27414691D01*
X-37375619Y27414950D01*
X-37371305Y27418320D01*
X-37327755Y27452345D01*
X-37222241Y27534782D01*
X-37148259Y27620491D01*
X-37095431Y27681693D01*
X-37095430Y27681694D01*
X-37095060Y27682123D01*
X-37055432Y27751880D01*
X-36999202Y27850862D01*
X-36999200Y27850866D01*
X-36998919Y27851361D01*
X-36986279Y27889356D01*
X-36937661Y28035510D01*
X-36937660Y28035513D01*
X-36937482Y28036049D01*
X-36921754Y28160546D01*
X-36913128Y28228826D01*
X-36913087Y28229154D01*
X-36912959Y28238278D01*
X-36912703Y28256668D01*
X-36912698Y28257000D01*
X-36931691Y28450710D01*
X-36932816Y28454439D01*
X-36983288Y28621607D01*
X-36987948Y28637042D01*
X-36994484Y28649335D01*
X-37079056Y28808391D01*
X-37079058Y28808394D01*
X-37079326Y28808898D01*
X-37088335Y28819945D01*
X-37201985Y28959293D01*
X-37201986Y28959294D01*
X-37202344Y28959733D01*
X-37352316Y29083801D01*
X-37368256Y29092420D01*
X-37523023Y29176102D01*
X-37523024Y29176102D01*
X-37523530Y29176376D01*
X-37709465Y29233932D01*
X-37710026Y29233991D01*
X-37710031Y29233992D01*
X-37902467Y29254218D01*
X-37903038Y29254278D01*
X-38096876Y29236637D01*
X-38179981Y29212178D01*
X-38283050Y29181843D01*
X-38283053Y29181842D01*
X-38283596Y29181682D01*
X-38284094Y29181421D01*
X-38284098Y29181420D01*
X-38455584Y29091770D01*
X-38455588Y29091767D01*
X-38456086Y29091507D01*
X-38456528Y29091152D01*
X-38456532Y29091149D01*
X-38603453Y28973021D01*
X-38607776Y28969545D01*
X-38608136Y28969116D01*
X-38608141Y28969111D01*
X-38693937Y28866862D01*
X-38732887Y28820443D01*
X-38733160Y28819947D01*
X-38733161Y28819945D01*
X-38800133Y28698123D01*
X-38826656Y28649879D01*
X-38826827Y28649339D01*
X-38826829Y28649335D01*
X-38868168Y28519018D01*
X-38885509Y28464351D01*
X-38885572Y28463786D01*
X-38885573Y28463783D01*
X-38904040Y28299142D01*
X-38907205Y28270925D01*
X-44144286Y28270925D01*
X-44143885Y29286925D01*
X-37127205Y29286925D01*
X-37127157Y29286353D01*
X-37119369Y29193614D01*
X-37110918Y29092968D01*
X-37110761Y29092421D01*
X-37110761Y29092420D01*
X-37108186Y29083439D01*
X-37057268Y28905869D01*
X-36968299Y28732753D01*
X-36847399Y28580216D01*
X-36846962Y28579844D01*
X-36846961Y28579843D01*
X-36821831Y28558456D01*
X-36699174Y28454066D01*
X-36529269Y28359110D01*
X-36528730Y28358935D01*
X-36528728Y28358934D01*
X-36481079Y28343452D01*
X-36344156Y28298963D01*
X-36150886Y28275917D01*
X-36150326Y28275960D01*
X-36150324Y28275960D01*
X-35957390Y28290805D01*
X-35957389Y28290805D01*
X-35956820Y28290849D01*
X-35769351Y28343192D01*
X-35737838Y28359110D01*
X-35596132Y28430691D01*
X-35595619Y28430950D01*
X-35566391Y28453785D01*
X-35486338Y28516330D01*
X-35442241Y28550782D01*
X-35368259Y28636491D01*
X-35315431Y28697693D01*
X-35315430Y28697694D01*
X-35315060Y28698123D01*
X-35245325Y28820878D01*
X-35219202Y28866862D01*
X-35219200Y28866866D01*
X-35218919Y28867361D01*
X-35206279Y28905356D01*
X-35177866Y28990770D01*
X-28407272Y28990770D01*
X-28389908Y28857987D01*
X-28335975Y28735415D01*
X-28335436Y28734774D01*
X-28252821Y28636491D01*
X-28249808Y28632906D01*
X-28249115Y28632444D01*
X-28249113Y28632443D01*
X-28170652Y28580216D01*
X-28138333Y28558703D01*
X-28010513Y28518769D01*
X-27934506Y28517376D01*
X-27877453Y28516330D01*
X-27877451Y28516330D01*
X-27876622Y28516315D01*
X-27747424Y28551538D01*
X-27735754Y28558703D01*
X-27634010Y28621174D01*
X-27634009Y28621175D01*
X-27633305Y28621607D01*
X-27622497Y28633547D01*
X-27563599Y28698618D01*
X-27543440Y28720889D01*
X-27485051Y28841403D01*
X-27480592Y28867904D01*
X-27462908Y28973021D01*
X-27462834Y28973461D01*
X-27462761Y28979434D01*
X-27459233Y28987665D01*
X-27450848Y28990989D01*
X-27379109Y28989674D01*
X-27379107Y28989674D01*
X-27378278Y28989659D01*
X-27249080Y29024882D01*
X-27153120Y29083801D01*
X-27135666Y29094518D01*
X-27135665Y29094519D01*
X-27134961Y29094951D01*
X-27045096Y29194233D01*
X-26986707Y29314747D01*
X-26964490Y29446805D01*
X-26964349Y29458344D01*
X-26965161Y29464018D01*
X-26983215Y29590080D01*
X-26983333Y29590905D01*
X-27011818Y29653554D01*
X-27038417Y29712055D01*
X-27038418Y29712056D01*
X-27038760Y29712809D01*
X-27069731Y29748753D01*
X-27125630Y29813627D01*
X-27125631Y29813628D01*
X-27126173Y29814257D01*
X-27126868Y29814708D01*
X-27126871Y29814710D01*
X-27237847Y29886641D01*
X-27238546Y29887094D01*
X-27352503Y29921174D01*
X-27366045Y29925224D01*
X-27366047Y29925224D01*
X-27366845Y29925463D01*
X-27436166Y29925886D01*
X-27499923Y29926276D01*
X-27499924Y29926276D01*
X-27500755Y29926281D01*
X-27580826Y29903397D01*
X-27628716Y29889710D01*
X-27628717Y29889709D01*
X-27629513Y29889482D01*
X-27742768Y29818024D01*
X-27743316Y29817403D01*
X-27743320Y29817400D01*
X-27790114Y29764415D01*
X-27831414Y29717651D01*
X-27888325Y29596433D01*
X-27908928Y29464114D01*
X-27908891Y29463831D01*
X-27912336Y29455787D01*
X-27920581Y29452458D01*
X-27998267Y29452932D01*
X-27998268Y29452932D01*
X-27999099Y29452937D01*
X-28079170Y29430053D01*
X-28127060Y29416366D01*
X-28127061Y29416365D01*
X-28127857Y29416138D01*
X-28241112Y29344680D01*
X-28241660Y29344059D01*
X-28241664Y29344056D01*
X-28267199Y29315142D01*
X-28329758Y29244307D01*
X-28386669Y29123089D01*
X-28407272Y28990770D01*
X-35177866Y28990770D01*
X-35157661Y29051510D01*
X-35157660Y29051513D01*
X-35157482Y29052049D01*
X-35148612Y29122265D01*
X-35133128Y29244826D01*
X-35133087Y29245154D01*
X-35132959Y29254278D01*
X-35132703Y29272668D01*
X-35132698Y29273000D01*
X-35151691Y29466710D01*
X-35152816Y29470439D01*
X-35207782Y29652491D01*
X-35207948Y29653042D01*
X-35214484Y29665335D01*
X-35299056Y29824391D01*
X-35299058Y29824394D01*
X-35299326Y29824898D01*
X-35308335Y29835945D01*
X-35421985Y29975293D01*
X-35421986Y29975294D01*
X-35422344Y29975733D01*
X-35572316Y30099801D01*
X-35588256Y30108420D01*
X-35743023Y30192102D01*
X-35743024Y30192102D01*
X-35743530Y30192376D01*
X-35929465Y30249932D01*
X-35930026Y30249991D01*
X-35930031Y30249992D01*
X-36122467Y30270218D01*
X-36123038Y30270278D01*
X-36316876Y30252637D01*
X-36399981Y30228178D01*
X-36503050Y30197843D01*
X-36503053Y30197842D01*
X-36503596Y30197682D01*
X-36504094Y30197421D01*
X-36504098Y30197420D01*
X-36675584Y30107770D01*
X-36675588Y30107767D01*
X-36676086Y30107507D01*
X-36676528Y30107152D01*
X-36676532Y30107149D01*
X-36783817Y30020889D01*
X-36827776Y29985545D01*
X-36828136Y29985116D01*
X-36828141Y29985111D01*
X-36952522Y29836878D01*
X-36952887Y29836443D01*
X-36953160Y29835947D01*
X-36953161Y29835945D01*
X-37021270Y29712055D01*
X-37046656Y29665879D01*
X-37046827Y29665339D01*
X-37046829Y29665335D01*
X-37092999Y29519786D01*
X-37105509Y29480351D01*
X-37105572Y29479786D01*
X-37105573Y29479783D01*
X-37120677Y29345125D01*
X-37127205Y29286925D01*
X-44143885Y29286925D01*
X-44143629Y29933547D01*
X-44143483Y30302925D01*
X-38907205Y30302925D01*
X-38890918Y30108968D01*
X-38890761Y30108421D01*
X-38890761Y30108420D01*
X-38888186Y30099439D01*
X-38837268Y29921869D01*
X-38820623Y29889482D01*
X-38783133Y29816534D01*
X-38748299Y29748753D01*
X-38627399Y29596216D01*
X-38626962Y29595844D01*
X-38626961Y29595843D01*
X-38593321Y29567213D01*
X-38479174Y29470066D01*
X-38309269Y29375110D01*
X-38308730Y29374935D01*
X-38308728Y29374934D01*
X-38261079Y29359452D01*
X-38124156Y29314963D01*
X-37930886Y29291917D01*
X-37930326Y29291960D01*
X-37930324Y29291960D01*
X-37737390Y29306805D01*
X-37737389Y29306805D01*
X-37736820Y29306849D01*
X-37549351Y29359192D01*
X-37517838Y29375110D01*
X-37376132Y29446691D01*
X-37375619Y29446950D01*
X-37368672Y29452377D01*
X-37327755Y29484345D01*
X-37222241Y29566782D01*
X-37148259Y29652491D01*
X-37095431Y29713693D01*
X-37095430Y29713694D01*
X-37095060Y29714123D01*
X-37066324Y29764708D01*
X-36999202Y29882862D01*
X-36999200Y29882866D01*
X-36998919Y29883361D01*
X-36997597Y29887333D01*
X-36937661Y30067510D01*
X-36937660Y30067513D01*
X-36937482Y30068049D01*
X-36928111Y30142228D01*
X-36913128Y30260826D01*
X-36913087Y30261154D01*
X-36912959Y30270278D01*
X-36912703Y30288668D01*
X-36912698Y30289000D01*
X-36912872Y30290770D01*
X-22307272Y30290770D01*
X-22289908Y30157987D01*
X-22235975Y30035415D01*
X-22149808Y29932906D01*
X-22149115Y29932444D01*
X-22149113Y29932443D01*
X-22075377Y29883361D01*
X-22038333Y29858703D01*
X-21910513Y29818769D01*
X-21835820Y29817400D01*
X-21777453Y29816330D01*
X-21777451Y29816330D01*
X-21776622Y29816315D01*
X-21647424Y29851538D01*
X-21635754Y29858703D01*
X-21534010Y29921174D01*
X-21534009Y29921175D01*
X-21533305Y29921607D01*
X-21529281Y29926052D01*
X-21484313Y29975733D01*
X-21443440Y30020889D01*
X-21385051Y30141403D01*
X-21376521Y30192102D01*
X-21362908Y30273021D01*
X-21362834Y30273461D01*
X-21362693Y30285000D01*
X-21365984Y30307984D01*
X-21381559Y30416736D01*
X-21381677Y30417561D01*
X-21386725Y30428663D01*
X-21436761Y30538711D01*
X-21436762Y30538712D01*
X-21437104Y30539465D01*
X-21474428Y30582782D01*
X-21523974Y30640283D01*
X-21523975Y30640284D01*
X-21524517Y30640913D01*
X-21525212Y30641364D01*
X-21525215Y30641366D01*
X-21636191Y30713297D01*
X-21636890Y30713750D01*
X-21703088Y30733547D01*
X-21764389Y30751880D01*
X-21764391Y30751880D01*
X-21765189Y30752119D01*
X-21834510Y30752542D01*
X-21898267Y30752932D01*
X-21898268Y30752932D01*
X-21899099Y30752937D01*
X-21977192Y30730618D01*
X-22027060Y30716366D01*
X-22027061Y30716365D01*
X-22027857Y30716138D01*
X-22141112Y30644680D01*
X-22141660Y30644059D01*
X-22141664Y30644056D01*
X-22163776Y30619018D01*
X-22229758Y30544307D01*
X-22286669Y30423089D01*
X-22307272Y30290770D01*
X-36912872Y30290770D01*
X-36931691Y30482710D01*
X-36932816Y30486439D01*
X-36979265Y30640283D01*
X-36987948Y30669042D01*
X-36994484Y30681335D01*
X-37079056Y30840391D01*
X-37079058Y30840394D01*
X-37079326Y30840898D01*
X-37080649Y30842521D01*
X-37201985Y30991293D01*
X-37201986Y30991294D01*
X-37202344Y30991733D01*
X-37352316Y31115801D01*
X-37360094Y31120007D01*
X-37523023Y31208102D01*
X-37523024Y31208102D01*
X-37523530Y31208376D01*
X-37709465Y31265932D01*
X-37710026Y31265991D01*
X-37710031Y31265992D01*
X-37902467Y31286218D01*
X-37903038Y31286278D01*
X-38096876Y31268637D01*
X-38179981Y31244178D01*
X-38283050Y31213843D01*
X-38283053Y31213842D01*
X-38283596Y31213682D01*
X-38284094Y31213421D01*
X-38284098Y31213420D01*
X-38455584Y31123770D01*
X-38455588Y31123767D01*
X-38456086Y31123507D01*
X-38456528Y31123152D01*
X-38456532Y31123149D01*
X-38607331Y31001903D01*
X-38607776Y31001545D01*
X-38608136Y31001116D01*
X-38608141Y31001111D01*
X-38730791Y30854941D01*
X-38732887Y30852443D01*
X-38733160Y30851947D01*
X-38733161Y30851945D01*
X-38811114Y30710149D01*
X-38826656Y30681879D01*
X-38826827Y30681339D01*
X-38826829Y30681335D01*
X-38870099Y30544930D01*
X-38885509Y30496351D01*
X-38885572Y30495786D01*
X-38885573Y30495783D01*
X-38904040Y30331142D01*
X-38907205Y30302925D01*
X-44143483Y30302925D01*
X-44143082Y31318925D01*
X-37127205Y31318925D01*
X-37127157Y31318353D01*
X-37120192Y31235415D01*
X-37110918Y31124968D01*
X-37110761Y31124421D01*
X-37110761Y31124420D01*
X-37106509Y31109593D01*
X-37057268Y30937869D01*
X-36968299Y30764753D01*
X-36847399Y30612216D01*
X-36846962Y30611844D01*
X-36846961Y30611843D01*
X-36821025Y30589770D01*
X-36699174Y30486066D01*
X-36529269Y30391110D01*
X-36528730Y30390935D01*
X-36528728Y30390934D01*
X-36513647Y30386034D01*
X-36344156Y30330963D01*
X-36150886Y30307917D01*
X-36150326Y30307960D01*
X-36150324Y30307960D01*
X-35957390Y30322805D01*
X-35957389Y30322805D01*
X-35956820Y30322849D01*
X-35769351Y30375192D01*
X-35743492Y30388254D01*
X-35596132Y30462691D01*
X-35595619Y30462950D01*
X-35566391Y30485785D01*
X-35544297Y30503047D01*
X-35442241Y30582782D01*
X-35368259Y30668491D01*
X-35315431Y30729693D01*
X-35315430Y30729694D01*
X-35315060Y30730123D01*
X-35263849Y30820270D01*
X-35241126Y30860270D01*
X-34307272Y30860270D01*
X-34289908Y30727487D01*
X-34289572Y30726724D01*
X-34289572Y30726723D01*
X-34283969Y30713989D01*
X-34235975Y30604915D01*
X-34149808Y30502406D01*
X-34149115Y30501944D01*
X-34149113Y30501943D01*
X-34090144Y30462691D01*
X-34038333Y30428203D01*
X-33910513Y30388269D01*
X-33834506Y30386876D01*
X-33777453Y30385830D01*
X-33777451Y30385830D01*
X-33776622Y30385815D01*
X-33647424Y30421038D01*
X-33645425Y30422265D01*
X-33534010Y30490674D01*
X-33534009Y30490675D01*
X-33533305Y30491107D01*
X-33529072Y30495783D01*
X-33510496Y30516306D01*
X-33443440Y30590389D01*
X-33385051Y30710903D01*
X-33364103Y30835415D01*
X-33362908Y30842521D01*
X-33362834Y30842961D01*
X-33362718Y30852443D01*
X-33362698Y30854053D01*
X-33362698Y30854059D01*
X-33362693Y30854500D01*
X-33369117Y30899361D01*
X-33375138Y30941403D01*
X-33381677Y30987061D01*
X-33388065Y31001111D01*
X-33436761Y31108211D01*
X-33436762Y31108212D01*
X-33437104Y31108965D01*
X-33482856Y31162063D01*
X-33485660Y31170567D01*
X-33482666Y31177551D01*
X-33444003Y31220266D01*
X-33444000Y31220270D01*
X-33443440Y31220889D01*
X-33385051Y31341403D01*
X-33384115Y31346963D01*
X-33362908Y31473021D01*
X-33362834Y31473461D01*
X-33362693Y31485000D01*
X-33366528Y31511783D01*
X-33372232Y31551614D01*
X-30818116Y31551614D01*
X-30800752Y31418831D01*
X-30746819Y31296259D01*
X-30703735Y31245004D01*
X-30677406Y31213682D01*
X-30660652Y31193750D01*
X-30659959Y31193288D01*
X-30659957Y31193287D01*
X-30622991Y31168681D01*
X-30549177Y31119547D01*
X-30421357Y31079613D01*
X-30315614Y31077675D01*
X-30307406Y31074097D01*
X-30304228Y31067494D01*
X-30289908Y30957987D01*
X-30235975Y30835415D01*
X-30235436Y30834774D01*
X-30166641Y30752932D01*
X-30149808Y30732906D01*
X-30149115Y30732444D01*
X-30149113Y30732443D01*
X-30049126Y30665887D01*
X-30038333Y30658703D01*
X-29910513Y30618769D01*
X-29834506Y30617376D01*
X-29777453Y30616330D01*
X-29777451Y30616330D01*
X-29776622Y30616315D01*
X-29647424Y30651538D01*
X-29635754Y30658703D01*
X-29534010Y30721174D01*
X-29534009Y30721175D01*
X-29533305Y30721607D01*
X-29522497Y30733547D01*
X-29494660Y30764302D01*
X-29443440Y30820889D01*
X-29385051Y30941403D01*
X-29376522Y30992096D01*
X-29362908Y31073021D01*
X-29362834Y31073461D01*
X-29362711Y31083510D01*
X-29362698Y31084553D01*
X-29362698Y31084559D01*
X-29362693Y31085000D01*
X-29381677Y31217561D01*
X-29383190Y31220889D01*
X-29436761Y31338711D01*
X-29436762Y31338712D01*
X-29437104Y31339465D01*
X-29452405Y31357223D01*
X-29523974Y31440283D01*
X-29523975Y31440284D01*
X-29524517Y31440913D01*
X-29525212Y31441364D01*
X-29525215Y31441366D01*
X-29636191Y31513297D01*
X-29636890Y31513750D01*
X-29763500Y31551614D01*
X-29764389Y31551880D01*
X-29764391Y31551880D01*
X-29765189Y31552119D01*
X-29864450Y31552725D01*
X-29872702Y31556203D01*
X-29875960Y31562766D01*
X-29889664Y31658456D01*
X-29892521Y31678405D01*
X-29919941Y31738711D01*
X-29947605Y31799555D01*
X-29947606Y31799556D01*
X-29947948Y31800309D01*
X-29982392Y31840283D01*
X-30034818Y31901127D01*
X-30034819Y31901128D01*
X-30035361Y31901757D01*
X-30036056Y31902208D01*
X-30036059Y31902210D01*
X-30147035Y31974141D01*
X-30147734Y31974594D01*
X-30211883Y31993778D01*
X-30275233Y32012724D01*
X-30275235Y32012724D01*
X-30276033Y32012963D01*
X-30345354Y32013386D01*
X-30409111Y32013776D01*
X-30409112Y32013776D01*
X-30409943Y32013781D01*
X-30490014Y31990897D01*
X-30537904Y31977210D01*
X-30537905Y31977209D01*
X-30538701Y31976982D01*
X-30651956Y31905524D01*
X-30652504Y31904903D01*
X-30652508Y31904900D01*
X-30694510Y31857341D01*
X-30740602Y31805151D01*
X-30797513Y31683933D01*
X-30818116Y31551614D01*
X-33372232Y31551614D01*
X-33381559Y31616736D01*
X-33381677Y31617561D01*
X-33386352Y31627843D01*
X-33436761Y31738711D01*
X-33436762Y31738712D01*
X-33437104Y31739465D01*
X-33489530Y31800309D01*
X-33523974Y31840283D01*
X-33523975Y31840284D01*
X-33524517Y31840913D01*
X-33525212Y31841364D01*
X-33525215Y31841366D01*
X-33636191Y31913297D01*
X-33636890Y31913750D01*
X-33726835Y31940649D01*
X-33764389Y31951880D01*
X-33764391Y31951880D01*
X-33765189Y31952119D01*
X-33834510Y31952542D01*
X-33898267Y31952932D01*
X-33898268Y31952932D01*
X-33899099Y31952937D01*
X-33942094Y31940649D01*
X-34027060Y31916366D01*
X-34027061Y31916365D01*
X-34027857Y31916138D01*
X-34141112Y31844680D01*
X-34141660Y31844059D01*
X-34141664Y31844056D01*
X-34176023Y31805151D01*
X-34229758Y31744307D01*
X-34286669Y31623089D01*
X-34307272Y31490770D01*
X-34289908Y31357987D01*
X-34289572Y31357224D01*
X-34289572Y31357223D01*
X-34281758Y31339465D01*
X-34235975Y31235415D01*
X-34235436Y31234774D01*
X-34187057Y31177219D01*
X-34184357Y31168681D01*
X-34187243Y31161946D01*
X-34229758Y31113807D01*
X-34286669Y30992589D01*
X-34307272Y30860270D01*
X-35241126Y30860270D01*
X-35219202Y30898862D01*
X-35219200Y30898866D01*
X-35218919Y30899361D01*
X-35206279Y30937356D01*
X-35157661Y31083510D01*
X-35157660Y31083513D01*
X-35157482Y31084049D01*
X-35146687Y31169502D01*
X-35133128Y31276826D01*
X-35133087Y31277154D01*
X-35132959Y31286278D01*
X-35132820Y31296259D01*
X-35132698Y31305000D01*
X-35151691Y31498710D01*
X-35152816Y31502439D01*
X-35187803Y31618320D01*
X-35207948Y31685042D01*
X-35214484Y31697335D01*
X-35299056Y31856391D01*
X-35299058Y31856394D01*
X-35299326Y31856898D01*
X-35308335Y31867945D01*
X-35421985Y32007293D01*
X-35421986Y32007294D01*
X-35422344Y32007733D01*
X-35522718Y32090770D01*
X-33407272Y32090770D01*
X-33389908Y31957987D01*
X-33335975Y31835415D01*
X-33335436Y31834774D01*
X-33255321Y31739465D01*
X-33249808Y31732906D01*
X-33249115Y31732444D01*
X-33249113Y31732443D01*
X-33197934Y31698376D01*
X-33138333Y31658703D01*
X-33010513Y31618769D01*
X-32934506Y31617376D01*
X-32877453Y31616330D01*
X-32877451Y31616330D01*
X-32876622Y31616315D01*
X-32747424Y31651538D01*
X-32735754Y31658703D01*
X-32634010Y31721174D01*
X-32634009Y31721175D01*
X-32633305Y31721607D01*
X-32622497Y31733547D01*
X-32610496Y31746806D01*
X-32543440Y31820889D01*
X-32485051Y31941403D01*
X-32483110Y31952937D01*
X-32462908Y32073021D01*
X-32462834Y32073461D01*
X-32462693Y32085000D01*
X-32469343Y32131439D01*
X-32481559Y32216736D01*
X-32481677Y32217561D01*
X-32487261Y32229843D01*
X-32536758Y32338705D01*
X-32536760Y32338707D01*
X-32537104Y32339465D01*
X-32580543Y32389878D01*
X-32583348Y32398382D01*
X-32580354Y32405367D01*
X-32544770Y32444680D01*
X-32493440Y32501389D01*
X-32435051Y32621903D01*
X-32412834Y32753961D01*
X-32412763Y32759731D01*
X-32412698Y32765053D01*
X-32412698Y32765059D01*
X-32412693Y32765500D01*
X-32431677Y32898061D01*
X-32487104Y33019965D01*
X-32487645Y33020593D01*
X-32573974Y33120783D01*
X-32573975Y33120784D01*
X-32574517Y33121413D01*
X-32575212Y33121864D01*
X-32575215Y33121866D01*
X-32686191Y33193797D01*
X-32686890Y33194250D01*
X-32751039Y33213434D01*
X-32814389Y33232380D01*
X-32814391Y33232380D01*
X-32815189Y33232619D01*
X-32884510Y33233042D01*
X-32948267Y33233432D01*
X-32948268Y33233432D01*
X-32949099Y33233437D01*
X-33029170Y33210553D01*
X-33077060Y33196866D01*
X-33077061Y33196865D01*
X-33077857Y33196638D01*
X-33191112Y33125180D01*
X-33191660Y33124559D01*
X-33191664Y33124556D01*
X-33238458Y33071571D01*
X-33279758Y33024807D01*
X-33336669Y32903589D01*
X-33357272Y32771270D01*
X-33339908Y32638487D01*
X-33285975Y32515915D01*
X-33285436Y32515274D01*
X-33239765Y32460941D01*
X-33237065Y32452403D01*
X-33241015Y32444741D01*
X-33241112Y32444680D01*
X-33241660Y32444060D01*
X-33241663Y32444057D01*
X-33274220Y32407192D01*
X-33329758Y32344307D01*
X-33386669Y32223089D01*
X-33407272Y32090770D01*
X-35522718Y32090770D01*
X-35572316Y32131801D01*
X-35588256Y32140420D01*
X-35743023Y32224102D01*
X-35743024Y32224102D01*
X-35743530Y32224376D01*
X-35929465Y32281932D01*
X-35930026Y32281991D01*
X-35930031Y32281992D01*
X-36122467Y32302218D01*
X-36123038Y32302278D01*
X-36316876Y32284637D01*
X-36399981Y32260178D01*
X-36503050Y32229843D01*
X-36503053Y32229842D01*
X-36503596Y32229682D01*
X-36504094Y32229421D01*
X-36504098Y32229420D01*
X-36675584Y32139770D01*
X-36675588Y32139767D01*
X-36676086Y32139507D01*
X-36676528Y32139152D01*
X-36676532Y32139149D01*
X-36744435Y32084553D01*
X-36827776Y32017545D01*
X-36828136Y32017116D01*
X-36828141Y32017111D01*
X-36925462Y31901127D01*
X-36952887Y31868443D01*
X-36953160Y31867947D01*
X-36953161Y31867945D01*
X-37033849Y31721174D01*
X-37046656Y31697879D01*
X-37046827Y31697339D01*
X-37046829Y31697335D01*
X-37089516Y31562766D01*
X-37105509Y31512351D01*
X-37105572Y31511786D01*
X-37105573Y31511783D01*
X-37122731Y31358814D01*
X-37127205Y31318925D01*
X-44143082Y31318925D01*
X-44142681Y32334925D01*
X-38907205Y32334925D01*
X-38907157Y32334353D01*
X-38897280Y32216736D01*
X-38890918Y32140968D01*
X-38890761Y32140421D01*
X-38890761Y32140420D01*
X-38888186Y32131439D01*
X-38837268Y31953869D01*
X-38810719Y31902210D01*
X-38758349Y31800309D01*
X-38748299Y31780753D01*
X-38627399Y31628216D01*
X-38626962Y31627844D01*
X-38626961Y31627843D01*
X-38593321Y31599213D01*
X-38479174Y31502066D01*
X-38309269Y31407110D01*
X-38308730Y31406935D01*
X-38308728Y31406934D01*
X-38261079Y31391452D01*
X-38124156Y31346963D01*
X-37930886Y31323917D01*
X-37930326Y31323960D01*
X-37930324Y31323960D01*
X-37737390Y31338805D01*
X-37737389Y31338805D01*
X-37736820Y31338849D01*
X-37549351Y31391192D01*
X-37517838Y31407110D01*
X-37450023Y31441366D01*
X-37375619Y31478950D01*
X-37346391Y31501785D01*
X-37283671Y31550788D01*
X-37222241Y31598782D01*
X-37170122Y31659163D01*
X-37095431Y31745693D01*
X-37095430Y31745694D01*
X-37095060Y31746123D01*
X-37041569Y31840283D01*
X-36999202Y31914862D01*
X-36999200Y31914866D01*
X-36998919Y31915361D01*
X-36998660Y31916138D01*
X-36937661Y32099510D01*
X-36937660Y32099513D01*
X-36937482Y32100049D01*
X-36922741Y32216736D01*
X-36913128Y32292826D01*
X-36913087Y32293154D01*
X-36912959Y32302278D01*
X-36912703Y32320668D01*
X-36912698Y32321000D01*
X-36931691Y32514710D01*
X-36932054Y32515915D01*
X-36987782Y32700491D01*
X-36987948Y32701042D01*
X-36994484Y32713335D01*
X-37079056Y32872391D01*
X-37079058Y32872394D01*
X-37079326Y32872898D01*
X-37088335Y32883945D01*
X-37201985Y33023293D01*
X-37201986Y33023294D01*
X-37202344Y33023733D01*
X-37352316Y33147801D01*
X-37368256Y33156420D01*
X-37523023Y33240102D01*
X-37523024Y33240102D01*
X-37523530Y33240376D01*
X-37709465Y33297932D01*
X-37710026Y33297991D01*
X-37710031Y33297992D01*
X-37902467Y33318218D01*
X-37903038Y33318278D01*
X-38096876Y33300637D01*
X-38152588Y33284240D01*
X-38283050Y33245843D01*
X-38283053Y33245842D01*
X-38283596Y33245682D01*
X-38284094Y33245421D01*
X-38284098Y33245420D01*
X-38455584Y33155770D01*
X-38455588Y33155767D01*
X-38456086Y33155507D01*
X-38456528Y33155152D01*
X-38456532Y33155149D01*
X-38607331Y33033903D01*
X-38607776Y33033545D01*
X-38608136Y33033116D01*
X-38608141Y33033111D01*
X-38732522Y32884878D01*
X-38732887Y32884443D01*
X-38733160Y32883947D01*
X-38733161Y32883945D01*
X-38804862Y32753521D01*
X-38826656Y32713879D01*
X-38826827Y32713339D01*
X-38826829Y32713335D01*
X-38872999Y32567786D01*
X-38885509Y32528351D01*
X-38885572Y32527786D01*
X-38885573Y32527783D01*
X-38900020Y32398985D01*
X-38907205Y32334925D01*
X-44142681Y32334925D01*
X-44142280Y33350925D01*
X-37127205Y33350925D01*
X-37110918Y33156968D01*
X-37110761Y33156421D01*
X-37110761Y33156420D01*
X-37108186Y33147439D01*
X-37057268Y32969869D01*
X-37029300Y32915449D01*
X-36986909Y32832965D01*
X-36968299Y32796753D01*
X-36847399Y32644216D01*
X-36846962Y32643844D01*
X-36846961Y32643843D01*
X-36820296Y32621149D01*
X-36699174Y32518066D01*
X-36529269Y32423110D01*
X-36528730Y32422935D01*
X-36528728Y32422934D01*
X-36481079Y32407452D01*
X-36344156Y32362963D01*
X-36150886Y32339917D01*
X-36150326Y32339960D01*
X-36150324Y32339960D01*
X-35957390Y32354805D01*
X-35957389Y32354805D01*
X-35956820Y32354849D01*
X-35769351Y32407192D01*
X-35737838Y32423110D01*
X-35596132Y32494691D01*
X-35595619Y32494950D01*
X-35588169Y32500770D01*
X-35547755Y32532345D01*
X-35442241Y32614782D01*
X-35368259Y32700491D01*
X-35315431Y32761693D01*
X-35315430Y32761694D01*
X-35315060Y32762123D01*
X-35286324Y32812708D01*
X-35219202Y32930862D01*
X-35219200Y32930866D01*
X-35218919Y32931361D01*
X-35206279Y32969356D01*
X-35157661Y33115510D01*
X-35157660Y33115513D01*
X-35157482Y33116049D01*
X-35142786Y33232380D01*
X-35136138Y33285000D01*
X-22356965Y33285000D01*
X-22339179Y33149906D01*
X-22287035Y33024018D01*
X-22286564Y33023405D01*
X-22286564Y33023404D01*
X-22260891Y32989946D01*
X-22204085Y32915915D01*
X-22203479Y32915450D01*
X-22203478Y32915449D01*
X-22179742Y32897236D01*
X-22095983Y32832965D01*
X-21970094Y32780821D01*
X-21835000Y32763035D01*
X-21699906Y32780821D01*
X-21574017Y32832965D01*
X-21490258Y32897236D01*
X-21466522Y32915449D01*
X-21466521Y32915450D01*
X-21465915Y32915915D01*
X-21409109Y32989946D01*
X-21383436Y33023404D01*
X-21383436Y33023405D01*
X-21382965Y33024018D01*
X-21330821Y33149906D01*
X-21313035Y33285000D01*
X-21330821Y33420094D01*
X-21382965Y33545982D01*
X-21387187Y33551485D01*
X-21441944Y33622845D01*
X-21465915Y33654085D01*
X-21574017Y33737035D01*
X-21699906Y33789179D01*
X-21835000Y33806965D01*
X-21970094Y33789179D01*
X-22095982Y33737035D01*
X-22096593Y33736566D01*
X-22096596Y33736564D01*
X-22122756Y33716491D01*
X-22204085Y33654085D01*
X-22204552Y33653476D01*
X-22204553Y33653475D01*
X-22282812Y33551485D01*
X-22287035Y33545982D01*
X-22339179Y33420094D01*
X-22356965Y33285000D01*
X-35136138Y33285000D01*
X-35133128Y33308826D01*
X-35133087Y33309154D01*
X-35132959Y33318278D01*
X-35132703Y33336668D01*
X-35132698Y33337000D01*
X-35151691Y33530710D01*
X-35157887Y33551234D01*
X-35189081Y33654551D01*
X-35207948Y33717042D01*
X-35212997Y33726538D01*
X-35299056Y33888391D01*
X-35299058Y33888394D01*
X-35299326Y33888898D01*
X-35305027Y33895889D01*
X-35421985Y34039293D01*
X-35421986Y34039294D01*
X-35422344Y34039733D01*
X-35572316Y34163801D01*
X-35600958Y34179288D01*
X-35743023Y34256102D01*
X-35743024Y34256102D01*
X-35743530Y34256376D01*
X-35929465Y34313932D01*
X-35930026Y34313991D01*
X-35930031Y34313992D01*
X-36122467Y34334218D01*
X-36123038Y34334278D01*
X-36316876Y34316637D01*
X-36351036Y34306583D01*
X-36503050Y34261843D01*
X-36503053Y34261842D01*
X-36503596Y34261682D01*
X-36504094Y34261421D01*
X-36504098Y34261420D01*
X-36675584Y34171770D01*
X-36675588Y34171767D01*
X-36676086Y34171507D01*
X-36676528Y34171152D01*
X-36676532Y34171149D01*
X-36827331Y34049903D01*
X-36827776Y34049545D01*
X-36828136Y34049116D01*
X-36828141Y34049111D01*
X-36860346Y34010730D01*
X-36952887Y33900443D01*
X-36953160Y33899947D01*
X-36953161Y33899945D01*
X-37014055Y33789179D01*
X-37046656Y33729879D01*
X-37046827Y33729339D01*
X-37046829Y33729335D01*
X-37080530Y33623096D01*
X-37105509Y33544351D01*
X-37105572Y33543786D01*
X-37105573Y33543783D01*
X-37119367Y33420806D01*
X-37127205Y33350925D01*
X-44142280Y33350925D01*
X-44141197Y36092245D01*
X-42334042Y36092245D01*
X-42334002Y36091827D01*
X-42334002Y36091822D01*
X-42316119Y35904388D01*
X-42308136Y35820720D01*
X-42243305Y35555778D01*
X-42140908Y35302970D01*
X-42003088Y35067592D01*
X-42002824Y35067262D01*
X-42002822Y35067259D01*
X-41883706Y34918312D01*
X-41832734Y34854575D01*
X-41633413Y34668380D01*
X-41409302Y34512908D01*
X-41408925Y34512721D01*
X-41408926Y34512721D01*
X-41165476Y34391606D01*
X-41165470Y34391603D01*
X-41165095Y34391417D01*
X-41164698Y34391287D01*
X-41164696Y34391286D01*
X-40906309Y34306583D01*
X-40906303Y34306582D01*
X-40905908Y34306452D01*
X-40905499Y34306381D01*
X-40905495Y34306380D01*
X-40697011Y34270181D01*
X-40637171Y34259791D01*
X-40602961Y34258088D01*
X-40551124Y34255507D01*
X-40551114Y34255507D01*
X-40550978Y34255500D01*
X-40380718Y34255500D01*
X-40380517Y34255515D01*
X-40380505Y34255515D01*
X-40222639Y34266970D01*
X-40177957Y34270212D01*
X-40177543Y34270303D01*
X-40177539Y34270304D01*
X-39912028Y34328923D01*
X-39912023Y34328924D01*
X-39911613Y34329015D01*
X-39843027Y34355000D01*
X-32155130Y34355000D01*
X-32136662Y34179288D01*
X-32136471Y34178700D01*
X-32094622Y34049903D01*
X-32082065Y34011255D01*
X-31993725Y33858245D01*
X-31993316Y33857791D01*
X-31878590Y33730376D01*
X-31875502Y33726946D01*
X-31826481Y33691330D01*
X-31774379Y33653476D01*
X-31732565Y33623096D01*
X-31571160Y33551234D01*
X-31517578Y33539845D01*
X-31398944Y33514628D01*
X-31398940Y33514628D01*
X-31398340Y33514500D01*
X-31221660Y33514500D01*
X-31221060Y33514628D01*
X-31221056Y33514628D01*
X-31102422Y33539845D01*
X-31048840Y33551234D01*
X-30887435Y33623096D01*
X-30845620Y33653476D01*
X-30793519Y33691330D01*
X-30744498Y33726946D01*
X-30741409Y33730376D01*
X-30626684Y33857791D01*
X-30626275Y33858245D01*
X-30537935Y34011255D01*
X-30525377Y34049903D01*
X-30483529Y34178700D01*
X-30483338Y34179288D01*
X-30464870Y34355000D01*
X-30483338Y34530712D01*
X-30502048Y34588297D01*
X-30502313Y34589114D01*
X-29505616Y34589114D01*
X-29488252Y34456331D01*
X-29487916Y34455568D01*
X-29487916Y34455567D01*
X-29446527Y34361503D01*
X-29434319Y34333759D01*
X-29411475Y34306583D01*
X-29369272Y34256376D01*
X-29348152Y34231250D01*
X-29347459Y34230788D01*
X-29347457Y34230787D01*
X-29271009Y34179900D01*
X-29236677Y34157047D01*
X-29108857Y34117113D01*
X-29085909Y34116693D01*
X-29077701Y34113115D01*
X-29074523Y34106512D01*
X-29064908Y34032987D01*
X-29010975Y33910415D01*
X-28924808Y33807906D01*
X-28924115Y33807444D01*
X-28924113Y33807443D01*
X-28824126Y33740887D01*
X-28813333Y33733703D01*
X-28685513Y33693769D01*
X-28609506Y33692376D01*
X-28552453Y33691330D01*
X-28552451Y33691330D01*
X-28551622Y33691315D01*
X-28422424Y33726538D01*
X-28421021Y33727399D01*
X-28309010Y33796174D01*
X-28309009Y33796175D01*
X-28308305Y33796607D01*
X-28297497Y33808547D01*
X-28285496Y33821806D01*
X-28218440Y33895889D01*
X-28216233Y33900443D01*
X-28162800Y34010730D01*
X-28160051Y34016403D01*
X-28143178Y34116693D01*
X-28137908Y34148021D01*
X-28137834Y34148461D01*
X-28137693Y34160000D01*
X-28139378Y34171770D01*
X-28151984Y34259791D01*
X-28156677Y34292561D01*
X-28163052Y34306583D01*
X-28211761Y34413711D01*
X-28211762Y34413712D01*
X-28212104Y34414465D01*
X-28248178Y34456331D01*
X-28298974Y34515283D01*
X-28298975Y34515284D01*
X-28299517Y34515913D01*
X-28300212Y34516364D01*
X-28300215Y34516366D01*
X-28411191Y34588297D01*
X-28411890Y34588750D01*
X-28476039Y34607934D01*
X-28539389Y34626880D01*
X-28539391Y34626880D01*
X-28540189Y34627119D01*
X-28557249Y34627223D01*
X-28565500Y34630700D01*
X-28568759Y34637264D01*
X-28579903Y34715080D01*
X-28580021Y34715905D01*
X-28582878Y34722189D01*
X-28635105Y34837055D01*
X-28635106Y34837056D01*
X-28635448Y34837809D01*
X-28647009Y34851226D01*
X-28722318Y34938627D01*
X-28722319Y34938628D01*
X-28722861Y34939257D01*
X-28723556Y34939708D01*
X-28723559Y34939710D01*
X-28834535Y35011641D01*
X-28835234Y35012094D01*
X-28899384Y35031279D01*
X-28962733Y35050224D01*
X-28962735Y35050224D01*
X-28963533Y35050463D01*
X-29032854Y35050886D01*
X-29096611Y35051276D01*
X-29096612Y35051276D01*
X-29097443Y35051281D01*
X-29177514Y35028397D01*
X-29225404Y35014710D01*
X-29225405Y35014709D01*
X-29226201Y35014482D01*
X-29339456Y34943024D01*
X-29340004Y34942403D01*
X-29340008Y34942400D01*
X-29361011Y34918618D01*
X-29428102Y34842651D01*
X-29485013Y34721433D01*
X-29505616Y34589114D01*
X-30502313Y34589114D01*
X-30537746Y34698164D01*
X-30537747Y34698166D01*
X-30537935Y34698745D01*
X-30626275Y34851755D01*
X-30744498Y34983054D01*
X-30860854Y35067592D01*
X-30886935Y35086541D01*
X-30886937Y35086542D01*
X-30887435Y35086904D01*
X-31048840Y35158766D01*
X-31102422Y35170155D01*
X-31221056Y35195372D01*
X-31221060Y35195372D01*
X-31221660Y35195500D01*
X-31398340Y35195500D01*
X-31398940Y35195372D01*
X-31398944Y35195372D01*
X-31517578Y35170155D01*
X-31571160Y35158766D01*
X-31732565Y35086904D01*
X-31733063Y35086542D01*
X-31733065Y35086541D01*
X-31759146Y35067592D01*
X-31875502Y34983054D01*
X-31993725Y34851755D01*
X-32082065Y34698745D01*
X-32082253Y34698166D01*
X-32082254Y34698164D01*
X-32117952Y34588297D01*
X-32136662Y34530712D01*
X-32155130Y34355000D01*
X-39843027Y34355000D01*
X-39656547Y34425651D01*
X-39418102Y34558095D01*
X-39201275Y34723573D01*
X-39010606Y34918618D01*
X-38850090Y35139144D01*
X-38723090Y35380531D01*
X-38632266Y35637724D01*
X-38593989Y35831922D01*
X-38579601Y35904923D01*
X-38579520Y35905334D01*
X-38574335Y36009474D01*
X-38565979Y36177335D01*
X-38565958Y36177755D01*
X-38574979Y36272313D01*
X-38591823Y36448853D01*
X-38591824Y36448857D01*
X-38591864Y36449280D01*
X-38596397Y36467807D01*
X-38609470Y36521232D01*
X-37917829Y36521232D01*
X-37917501Y36520440D01*
X-37775436Y36433383D01*
X-37774616Y36432966D01*
X-37534361Y36333448D01*
X-37533491Y36333165D01*
X-37280613Y36272455D01*
X-37279715Y36272313D01*
X-37020457Y36251909D01*
X-37019543Y36251909D01*
X-36760285Y36272313D01*
X-36759387Y36272455D01*
X-36506509Y36333165D01*
X-36505639Y36333448D01*
X-36265384Y36432966D01*
X-36264564Y36433383D01*
X-36123190Y36520017D01*
X-36122144Y36521457D01*
X-36122278Y36522303D01*
X-36244975Y36645000D01*
X-32165185Y36645000D01*
X-32146497Y36467197D01*
X-32091250Y36297165D01*
X-32001859Y36142335D01*
X-31882230Y36009474D01*
X-31737593Y35904388D01*
X-31574267Y35831671D01*
X-31520804Y35820307D01*
X-31399995Y35794628D01*
X-31399991Y35794628D01*
X-31399391Y35794500D01*
X-31220609Y35794500D01*
X-31220009Y35794628D01*
X-31220005Y35794628D01*
X-31099196Y35820307D01*
X-31045733Y35831671D01*
X-30882407Y35904388D01*
X-30737770Y36009474D01*
X-30618141Y36142335D01*
X-30528750Y36297165D01*
X-30473503Y36467197D01*
X-30454815Y36645000D01*
X-30473503Y36822803D01*
X-30528750Y36992835D01*
X-30618141Y37147665D01*
X-30737770Y37280526D01*
X-30820552Y37340671D01*
X-30881907Y37385249D01*
X-30881909Y37385250D01*
X-30882407Y37385612D01*
X-31045733Y37458329D01*
X-31099943Y37469852D01*
X-31220005Y37495372D01*
X-31220009Y37495372D01*
X-31220609Y37495500D01*
X-31399391Y37495500D01*
X-31399991Y37495372D01*
X-31399995Y37495372D01*
X-31520057Y37469852D01*
X-31574267Y37458329D01*
X-31737592Y37385612D01*
X-31882230Y37280526D01*
X-32001859Y37147665D01*
X-32091250Y36992835D01*
X-32146497Y36822803D01*
X-32165185Y36645000D01*
X-36244975Y36645000D01*
X-37018354Y37418379D01*
X-37020000Y37419061D01*
X-37021646Y37418379D01*
X-37917147Y36522878D01*
X-37917829Y36521232D01*
X-38609470Y36521232D01*
X-38639607Y36644391D01*
X-38656695Y36714222D01*
X-38759092Y36967030D01*
X-38896912Y37202408D01*
X-38959384Y37280526D01*
X-39066997Y37415089D01*
X-39066999Y37415091D01*
X-39067266Y37415425D01*
X-39266587Y37601620D01*
X-39490698Y37757092D01*
X-39514128Y37768748D01*
X-39734524Y37878394D01*
X-39734530Y37878397D01*
X-39734905Y37878583D01*
X-39735302Y37878713D01*
X-39735304Y37878714D01*
X-39844601Y37914543D01*
X-38683091Y37914543D01*
X-38662687Y37655285D01*
X-38662545Y37654387D01*
X-38601835Y37401509D01*
X-38601552Y37400639D01*
X-38502034Y37160384D01*
X-38501617Y37159564D01*
X-38414983Y37018190D01*
X-38413543Y37017144D01*
X-38412697Y37017278D01*
X-37516621Y37913354D01*
X-37515939Y37915000D01*
X-36524061Y37915000D01*
X-36523379Y37913354D01*
X-35627878Y37017853D01*
X-35626232Y37017171D01*
X-35625440Y37017499D01*
X-35538383Y37159564D01*
X-35537966Y37160384D01*
X-35438448Y37400639D01*
X-35438165Y37401509D01*
X-35377455Y37654387D01*
X-35377313Y37655285D01*
X-35356909Y37914543D01*
X-35356909Y37915457D01*
X-35377313Y38174715D01*
X-35377455Y38175613D01*
X-35438165Y38428491D01*
X-35438448Y38429361D01*
X-35537966Y38669616D01*
X-35538383Y38670436D01*
X-35625017Y38811810D01*
X-35626457Y38812856D01*
X-35627303Y38812722D01*
X-36523379Y37916646D01*
X-36524061Y37915000D01*
X-37515939Y37915000D01*
X-37516621Y37916646D01*
X-38412122Y38812147D01*
X-38413768Y38812829D01*
X-38414560Y38812501D01*
X-38501617Y38670436D01*
X-38502034Y38669616D01*
X-38601552Y38429361D01*
X-38601835Y38428491D01*
X-38662545Y38175613D01*
X-38662687Y38174715D01*
X-38683091Y37915457D01*
X-38683091Y37914543D01*
X-39844601Y37914543D01*
X-39993691Y37963417D01*
X-39993697Y37963418D01*
X-39994092Y37963548D01*
X-39994501Y37963619D01*
X-39994505Y37963620D01*
X-40262489Y38010150D01*
X-40262490Y38010150D01*
X-40262829Y38010209D01*
X-40297039Y38011912D01*
X-40348876Y38014493D01*
X-40348886Y38014493D01*
X-40349022Y38014500D01*
X-40519282Y38014500D01*
X-40519483Y38014485D01*
X-40519495Y38014485D01*
X-40677361Y38003030D01*
X-40722043Y37999788D01*
X-40722457Y37999697D01*
X-40722461Y37999696D01*
X-40987972Y37941077D01*
X-40987977Y37941076D01*
X-40988387Y37940985D01*
X-41243453Y37844349D01*
X-41481898Y37711905D01*
X-41698725Y37546427D01*
X-41889394Y37351382D01*
X-42049910Y37130856D01*
X-42176910Y36889469D01*
X-42267734Y36632276D01*
X-42267816Y36631862D01*
X-42267817Y36631857D01*
X-42300151Y36467807D01*
X-42320480Y36364666D01*
X-42320500Y36364256D01*
X-42320501Y36364251D01*
X-42329764Y36178178D01*
X-42334042Y36092245D01*
X-44141197Y36092245D01*
X-44139927Y39308543D01*
X-37917856Y39308543D01*
X-37917722Y39307697D01*
X-37021646Y38411621D01*
X-37020000Y38410939D01*
X-37018354Y38411621D01*
X-36122853Y39307122D01*
X-36122171Y39308768D01*
X-36122499Y39309560D01*
X-36264564Y39396617D01*
X-36265384Y39397034D01*
X-36505639Y39496552D01*
X-36506509Y39496835D01*
X-36759387Y39557545D01*
X-36760285Y39557687D01*
X-37019543Y39578091D01*
X-37020457Y39578091D01*
X-37279715Y39557687D01*
X-37280613Y39557545D01*
X-37533491Y39496835D01*
X-37534361Y39496552D01*
X-37774616Y39397034D01*
X-37775436Y39396617D01*
X-37916810Y39309983D01*
X-37917856Y39308543D01*
X-44139927Y39308543D01*
X-44138465Y43010793D01*
X-39763268Y43010793D01*
X-39762819Y43009709D01*
X-39556911Y42851711D01*
X-39556382Y42851349D01*
X-39250774Y42665536D01*
X-39250198Y42665227D01*
X-38926315Y42513510D01*
X-38925711Y42513265D01*
X-38587326Y42397410D01*
X-38586719Y42397238D01*
X-38237780Y42318601D01*
X-38237176Y42318499D01*
X-37881778Y42278007D01*
X-37881168Y42277970D01*
X-37523483Y42276098D01*
X-37522853Y42276129D01*
X-37167070Y42312895D01*
X-37166446Y42312994D01*
X-36816713Y42387970D01*
X-36816102Y42388136D01*
X-36476510Y42500445D01*
X-36475937Y42500670D01*
X-36150447Y42649004D01*
X-36149894Y42649294D01*
X-35842354Y42831898D01*
X-35841809Y42832262D01*
X-35606884Y43008649D01*
X-35605977Y43010183D01*
X-35606259Y43011284D01*
X-37683354Y45088379D01*
X-37685000Y45089061D01*
X-37686646Y45088379D01*
X-39762586Y43012439D01*
X-39763268Y43010793D01*
X-44138465Y43010793D01*
X-44137444Y45596248D01*
X-40997823Y45596248D01*
X-40979727Y45239025D01*
X-40979662Y45238404D01*
X-40923092Y44885227D01*
X-40922955Y44884598D01*
X-40828576Y44539606D01*
X-40828377Y44539007D01*
X-40697288Y44206216D01*
X-40697023Y44205638D01*
X-40530761Y43888956D01*
X-40530435Y43888409D01*
X-40330940Y43591530D01*
X-40330567Y43591035D01*
X-40260468Y43507788D01*
X-40258885Y43506968D01*
X-40257599Y43507376D01*
X-38181621Y45583354D01*
X-38180939Y45585000D01*
X-37189061Y45585000D01*
X-37188379Y45583354D01*
X-35112047Y43507022D01*
X-35110640Y43506439D01*
X-35108735Y43507313D01*
X-35060463Y43563434D01*
X-35060074Y43563939D01*
X-34857483Y43858712D01*
X-34857162Y43859238D01*
X-34687583Y44174180D01*
X-34687317Y44174746D01*
X-34552752Y44506139D01*
X-34552541Y44506752D01*
X-34454557Y44850730D01*
X-34454414Y44851354D01*
X-34394149Y45203917D01*
X-34394076Y45204549D01*
X-34372233Y45561691D01*
X-34372221Y45562048D01*
X-34372142Y45584844D01*
X-34372149Y45585155D01*
X-34391501Y45942476D01*
X-34391569Y45943098D01*
X-34449369Y46296063D01*
X-34449511Y46296708D01*
X-34545092Y46641361D01*
X-34545293Y46641958D01*
X-34677543Y46974291D01*
X-34677810Y46974868D01*
X-34845180Y47290974D01*
X-34845504Y47291511D01*
X-35046028Y47587685D01*
X-35046413Y47588193D01*
X-35109347Y47662400D01*
X-35110929Y47663213D01*
X-35112229Y47662796D01*
X-37188379Y45586646D01*
X-37189061Y45585000D01*
X-38180939Y45585000D01*
X-38181621Y45586646D01*
X-40257714Y47662739D01*
X-40259109Y47663317D01*
X-40261027Y47662433D01*
X-40316576Y47597394D01*
X-40316969Y47596880D01*
X-40518517Y47301420D01*
X-40518852Y47300867D01*
X-40687324Y46985348D01*
X-40687585Y46984788D01*
X-40820999Y46652913D01*
X-40821203Y46652311D01*
X-40917989Y46307983D01*
X-40918126Y46307374D01*
X-40977162Y45954583D01*
X-40977231Y45953975D01*
X-40997821Y45596876D01*
X-40997823Y45596248D01*
X-44137444Y45596248D01*
X-44136431Y48159542D01*
X-39763746Y48159542D01*
X-39763456Y48158431D01*
X-37686646Y46081621D01*
X-37685000Y46080939D01*
X-37683354Y46081621D01*
X-35607195Y48157780D01*
X-35606513Y48159426D01*
X-35606957Y48160499D01*
X-35822644Y48324808D01*
X-35823173Y48325167D01*
X-36129434Y48509916D01*
X-36129996Y48510215D01*
X-36454421Y48660808D01*
X-36455013Y48661045D01*
X-36793810Y48775722D01*
X-36794407Y48775889D01*
X-37143615Y48853305D01*
X-37144244Y48853409D01*
X-37499744Y48892657D01*
X-37500397Y48892694D01*
X-37858068Y48893318D01*
X-37858693Y48893286D01*
X-38214358Y48855276D01*
X-38214971Y48855176D01*
X-38564430Y48778982D01*
X-38565060Y48778808D01*
X-38904232Y48665323D01*
X-38904836Y48665084D01*
X-39229784Y48515625D01*
X-39230353Y48515324D01*
X-39537248Y48331652D01*
X-39537778Y48331295D01*
X-39762844Y48161079D01*
X-39763746Y48159542D01*
X-44136431Y48159542D01*
X-44135478Y50573306D01*
X-44132049Y50581576D01*
X-44123779Y50585000D01*
X-32596721Y50585000D01*
X-32588448Y50581573D01*
G37*
%TD.AperFunction*%
%TD*%
%TA.AperFunction,Conductor*%
%TO.N,/CASE*%
G36*
X-34235000Y41985000D02*
G01*
X-41235000Y41985000D01*
X-41235000Y48985000D01*
X-34235000Y48985000D01*
X-34235000Y41985000D01*
G37*
%TD.AperFunction*%
%TD*%
%TA.AperFunction,Conductor*%
%TO.N,GND*%
G36*
X22808016Y50577251D02*
G01*
X22853783Y50524458D01*
X22865000Y50472921D01*
X22865000Y14159000D01*
X22845315Y14091961D01*
X22792511Y14046206D01*
X22741000Y14035000D01*
X20165000Y14035000D01*
X20165000Y12918257D01*
X20145315Y12851218D01*
X20111453Y12820923D01*
X20110243Y12819654D01*
X20109828Y12819581D01*
X20106568Y12815696D01*
X20105630Y12814816D01*
X20104725Y12813867D01*
X20098355Y12811548D01*
X20093869Y12803778D01*
X20093343Y12802868D01*
X20087345Y12794301D01*
X20085961Y12791139D01*
X20074500Y12777480D01*
X20074500Y12770229D01*
X20070876Y12763952D01*
X20072618Y12754073D01*
X20074500Y12732552D01*
X20074500Y5724000D01*
X20054815Y5656961D01*
X20002011Y5611206D01*
X19950500Y5600000D01*
X13149500Y5600000D01*
X13082461Y5619685D01*
X13036706Y5672489D01*
X13025500Y5724000D01*
X13025500Y7438043D01*
X13029857Y7438043D01*
X13028605Y7447601D01*
X13029385Y7450000D01*
X13029893Y7450000D01*
X13012357Y7639242D01*
X12960347Y7822040D01*
X12875633Y7992169D01*
X12872184Y7996736D01*
X12872181Y7996741D01*
X12764557Y8139256D01*
X12761100Y8143834D01*
X12620649Y8271872D01*
X12459063Y8371922D01*
X12364878Y8408409D01*
X12287191Y8438506D01*
X12287187Y8438507D01*
X12281844Y8440577D01*
X12276209Y8441630D01*
X12276207Y8441631D01*
X12100657Y8474448D01*
X12100652Y8474448D01*
X12095027Y8475500D01*
X11904973Y8475500D01*
X11899348Y8474448D01*
X11899343Y8474448D01*
X11723793Y8441631D01*
X11723791Y8441630D01*
X11718156Y8440577D01*
X11712813Y8438507D01*
X11712809Y8438506D01*
X11635122Y8408409D01*
X11540937Y8371922D01*
X11379351Y8271872D01*
X11238900Y8143834D01*
X11235443Y8139256D01*
X11127819Y7996741D01*
X11127816Y7996736D01*
X11124367Y7992169D01*
X11039653Y7822040D01*
X10987643Y7639242D01*
X10970107Y7450000D01*
X10970615Y7450000D01*
X10971544Y7447141D01*
X10970701Y7438043D01*
X10974500Y7438043D01*
X10974500Y5724000D01*
X10954815Y5656961D01*
X10902011Y5611206D01*
X10850500Y5600000D01*
X1648849Y5600000D01*
X1581810Y5619685D01*
X1536055Y5672489D01*
X1526111Y5741647D01*
X1555136Y5805203D01*
X1592555Y5834485D01*
X1623008Y5850001D01*
X1690967Y5884628D01*
X1770372Y5964033D01*
X1821352Y6064088D01*
X1838919Y6175000D01*
X1821352Y6285912D01*
X1770372Y6385967D01*
X1690967Y6465372D01*
X1590912Y6516352D01*
X1581277Y6517878D01*
X1581274Y6517879D01*
X1489641Y6532392D01*
X1480000Y6533919D01*
X1470359Y6532392D01*
X1378726Y6517879D01*
X1378723Y6517878D01*
X1369088Y6516352D01*
X1269033Y6465372D01*
X1189628Y6385967D01*
X1138648Y6285912D01*
X1121081Y6175000D01*
X1138648Y6064088D01*
X1189628Y5964033D01*
X1269033Y5884628D01*
X1336992Y5850001D01*
X1367445Y5834485D01*
X1418242Y5786511D01*
X1435037Y5718690D01*
X1412500Y5652555D01*
X1357785Y5609103D01*
X1311151Y5600000D01*
X49500Y5600000D01*
X-17539Y5619685D01*
X-63294Y5672489D01*
X-74500Y5724000D01*
X-74500Y9346478D01*
X-54815Y9413517D01*
X-2011Y9459272D01*
X67147Y9469216D01*
X130703Y9440191D01*
X159985Y9402772D01*
X174628Y9374033D01*
X254033Y9294628D01*
X354088Y9243648D01*
X363723Y9242122D01*
X363726Y9242121D01*
X455359Y9227608D01*
X465000Y9226081D01*
X474641Y9227608D01*
X566274Y9242121D01*
X566277Y9242122D01*
X575912Y9243648D01*
X675967Y9294628D01*
X755372Y9374033D01*
X806352Y9474088D01*
X823919Y9585000D01*
X816866Y9629531D01*
X826020Y9699270D01*
X826183Y9699636D01*
X826321Y9699946D01*
X833241Y9713277D01*
X839186Y9723207D01*
X847018Y9734757D01*
X859379Y9750944D01*
X866896Y9759882D01*
X883106Y9777409D01*
X887034Y9781656D01*
X892319Y9790090D01*
X909709Y9811921D01*
X1192469Y10094681D01*
X1253792Y10128166D01*
X1280150Y10131000D01*
X8806265Y10131000D01*
X8820405Y10139164D01*
X8824909Y10140371D01*
X8828946Y10142702D01*
X8844716Y10146927D01*
X8903073Y10205283D01*
X8903073Y10205284D01*
X10199089Y11501301D01*
X14059336Y11501301D01*
X14077122Y11366207D01*
X14129266Y11240319D01*
X14212216Y11132216D01*
X14320318Y11049266D01*
X14327830Y11046155D01*
X14327829Y11046155D01*
X14438693Y11000234D01*
X14438695Y11000233D01*
X14446207Y10997122D01*
X14581301Y10979336D01*
X14716395Y10997122D01*
X14723907Y11000233D01*
X14723909Y11000234D01*
X14834773Y11046155D01*
X14834772Y11046155D01*
X14842284Y11049266D01*
X14950386Y11132216D01*
X15033336Y11240319D01*
X15085480Y11366207D01*
X15086542Y11374270D01*
X15098029Y11461519D01*
X15126296Y11525416D01*
X15184621Y11563886D01*
X15204782Y11568272D01*
X15292031Y11579759D01*
X15292034Y11579760D01*
X15300094Y11580821D01*
X15307606Y11583932D01*
X15307608Y11583933D01*
X15418472Y11629854D01*
X15418471Y11629854D01*
X15425983Y11632965D01*
X15534085Y11715915D01*
X15617035Y11824018D01*
X15625301Y11843975D01*
X15666067Y11942392D01*
X15666068Y11942395D01*
X15669179Y11949906D01*
X15686965Y12085000D01*
X15669179Y12220094D01*
X15659012Y12244641D01*
X15620147Y12338469D01*
X15617035Y12345982D01*
X15605086Y12361555D01*
X15539031Y12447639D01*
X15534085Y12454085D01*
X15425983Y12537035D01*
X15344572Y12570756D01*
X15307608Y12586067D01*
X15307606Y12586068D01*
X15300094Y12589179D01*
X15165000Y12606965D01*
X15029906Y12589179D01*
X15022395Y12586068D01*
X15022392Y12586067D01*
X14974733Y12566326D01*
X14904018Y12537035D01*
X14897571Y12532088D01*
X14897568Y12532086D01*
X14833109Y12482625D01*
X14795915Y12454085D01*
X14790969Y12447639D01*
X14790968Y12447638D01*
X14724915Y12361555D01*
X14712965Y12345982D01*
X14709853Y12338469D01*
X14670989Y12244641D01*
X14660821Y12220094D01*
X14659760Y12212034D01*
X14659759Y12212031D01*
X14648272Y12124782D01*
X14620005Y12060885D01*
X14561680Y12022415D01*
X14541519Y12018029D01*
X14454270Y12006542D01*
X14454267Y12006541D01*
X14446207Y12005480D01*
X14438696Y12002369D01*
X14438693Y12002368D01*
X14419160Y11994277D01*
X14320319Y11953336D01*
X14313870Y11948388D01*
X14313869Y11948387D01*
X14218663Y11875333D01*
X14212216Y11870386D01*
X14207269Y11863939D01*
X14178356Y11826258D01*
X14129266Y11762283D01*
X14126154Y11754770D01*
X14081483Y11646923D01*
X14077122Y11636395D01*
X14059336Y11501301D01*
X10199089Y11501301D01*
X10344715Y11646927D01*
X10344716Y11646927D01*
X10403073Y11705284D01*
X10407299Y11721054D01*
X10409632Y11725095D01*
X10410839Y11729600D01*
X10419000Y11743735D01*
X10419001Y11826264D01*
X10419000Y11826266D01*
X10419000Y13269849D01*
X10438685Y13336888D01*
X10455319Y13357530D01*
X12692470Y15594681D01*
X12753793Y15628166D01*
X12780151Y15631000D01*
X15049849Y15631000D01*
X15116888Y15611315D01*
X15137530Y15594681D01*
X15774681Y14957530D01*
X15808166Y14896207D01*
X15811000Y14869849D01*
X15811000Y14660013D01*
X15807438Y14630506D01*
X15805601Y14623008D01*
X15805333Y14616916D01*
X15805333Y14616914D01*
X15803823Y14582545D01*
X15802552Y14569468D01*
X15798433Y14542198D01*
X15795136Y14526946D01*
X15790420Y14510285D01*
X15784934Y14494866D01*
X15779394Y14482051D01*
X15772967Y14469265D01*
X15766809Y14458597D01*
X15732545Y14420539D01*
X15724277Y14416326D01*
X15633674Y14325723D01*
X15629244Y14317028D01*
X15585760Y14231687D01*
X15537785Y14180891D01*
X15469964Y14164096D01*
X15403829Y14186634D01*
X15360714Y14240530D01*
X15356952Y14249614D01*
X15329028Y14317028D01*
X15320147Y14338470D01*
X15320145Y14338473D01*
X15317035Y14345982D01*
X15308031Y14357717D01*
X15239031Y14447639D01*
X15234085Y14454085D01*
X15125983Y14537035D01*
X15047706Y14569458D01*
X15007608Y14586067D01*
X15007606Y14586068D01*
X15000094Y14589179D01*
X14970231Y14593111D01*
X14948964Y14595911D01*
X14885068Y14624179D01*
X14846597Y14682504D01*
X14842212Y14702663D01*
X14839412Y14723930D01*
X14835480Y14753793D01*
X14783336Y14879681D01*
X14700386Y14987784D01*
X14592284Y15070734D01*
X14559385Y15084361D01*
X14473909Y15119766D01*
X14473907Y15119767D01*
X14466395Y15122878D01*
X14331301Y15140664D01*
X14196207Y15122878D01*
X14188696Y15119767D01*
X14188693Y15119766D01*
X14083660Y15076260D01*
X14070319Y15070734D01*
X14063872Y15065787D01*
X14063869Y15065785D01*
X13991086Y15009937D01*
X13962216Y14987784D01*
X13879266Y14879681D01*
X13827122Y14753793D01*
X13809336Y14618699D01*
X13827122Y14483605D01*
X13830233Y14476094D01*
X13830234Y14476091D01*
X13857848Y14409424D01*
X13879266Y14357717D01*
X13884214Y14351268D01*
X13884215Y14351267D01*
X13898520Y14332625D01*
X13962216Y14249614D01*
X14070318Y14166664D01*
X14077830Y14163553D01*
X14077829Y14163553D01*
X14188693Y14117632D01*
X14188695Y14117631D01*
X14196207Y14114520D01*
X14226070Y14110588D01*
X14247337Y14107788D01*
X14311233Y14079520D01*
X14349704Y14021195D01*
X14354089Y14001036D01*
X14360821Y13949906D01*
X14363932Y13942395D01*
X14363933Y13942392D01*
X14407432Y13837375D01*
X14412965Y13824018D01*
X14417913Y13817569D01*
X14417914Y13817568D01*
X14450443Y13775176D01*
X14495915Y13715915D01*
X14604017Y13632965D01*
X14611529Y13629854D01*
X14611528Y13629854D01*
X14722392Y13583933D01*
X14722394Y13583932D01*
X14729906Y13580821D01*
X14865000Y13563035D01*
X15000094Y13580821D01*
X15007606Y13583932D01*
X15007608Y13583933D01*
X15118472Y13629854D01*
X15118471Y13629854D01*
X15125983Y13632965D01*
X15234085Y13715915D01*
X15279557Y13775176D01*
X15312086Y13817568D01*
X15312087Y13817569D01*
X15317035Y13824018D01*
X15325427Y13844277D01*
X15360714Y13929470D01*
X15404554Y13983874D01*
X15470849Y14005939D01*
X15538548Y13988660D01*
X15585760Y13938313D01*
X15633674Y13844277D01*
X15724277Y13753674D01*
X15838445Y13695502D01*
X15965000Y13675458D01*
X16091555Y13695502D01*
X16205723Y13753674D01*
X16296326Y13844277D01*
X16354498Y13958445D01*
X16374542Y14085000D01*
X16354498Y14211555D01*
X16296326Y14325723D01*
X16205723Y14416326D01*
X16197453Y14420540D01*
X16163187Y14458601D01*
X16157030Y14469268D01*
X16150605Y14482051D01*
X16145065Y14494866D01*
X16139579Y14510285D01*
X16134863Y14526946D01*
X16131566Y14542197D01*
X16127448Y14569458D01*
X16126176Y14582539D01*
X16125885Y14589179D01*
X16124399Y14623005D01*
X16122246Y14632229D01*
X16119000Y14660415D01*
X16119000Y15026265D01*
X16110836Y15040405D01*
X16109629Y15044909D01*
X16107298Y15048946D01*
X16103073Y15064716D01*
X16044717Y15123073D01*
X16044716Y15123073D01*
X15244716Y15923073D01*
X15228943Y15927299D01*
X15224904Y15929631D01*
X15220403Y15930837D01*
X15206265Y15939000D01*
X15123766Y15939001D01*
X15123736Y15939001D01*
X15123734Y15939000D01*
X12623736Y15939000D01*
X12609597Y15930837D01*
X12605091Y15929630D01*
X12601053Y15927298D01*
X12585284Y15923073D01*
X12526927Y15864717D01*
X12526927Y15864716D01*
X10126927Y13464716D01*
X10122701Y13448943D01*
X10120369Y13444904D01*
X10119163Y13440403D01*
X10111000Y13426265D01*
X10110999Y13343736D01*
X10111000Y13343734D01*
X10111000Y13265035D01*
X10091315Y13197996D01*
X10038511Y13152241D01*
X9969353Y13142297D01*
X9930705Y13154550D01*
X9900251Y13170067D01*
X9900252Y13170067D01*
X9891555Y13174498D01*
X9765000Y13194542D01*
X9638445Y13174498D01*
X9524277Y13116326D01*
X9433674Y13025723D01*
X9375502Y12911555D01*
X9355458Y12785000D01*
X9375502Y12658445D01*
X9379933Y12649749D01*
X9382299Y12642467D01*
X9384294Y12572626D01*
X9348214Y12512793D01*
X9283766Y12481676D01*
X9238445Y12474498D01*
X9124277Y12416326D01*
X9033674Y12325723D01*
X8975502Y12211555D01*
X8955458Y12085000D01*
X8975502Y11958445D01*
X9033674Y11844277D01*
X9124277Y11753674D01*
X9238445Y11695502D01*
X9365000Y11675458D01*
X9491555Y11695502D01*
X9605723Y11753674D01*
X9696326Y11844277D01*
X9754498Y11958445D01*
X9774542Y12085000D01*
X9754498Y12211555D01*
X9750067Y12220251D01*
X9747701Y12227533D01*
X9745706Y12297374D01*
X9781786Y12357207D01*
X9846234Y12388324D01*
X9891555Y12395502D01*
X9930705Y12415450D01*
X9999374Y12428346D01*
X10064115Y12402070D01*
X10104372Y12344963D01*
X10111000Y12304965D01*
X10111000Y11900150D01*
X10091315Y11833111D01*
X10074681Y11812469D01*
X8737530Y10475319D01*
X8676207Y10441834D01*
X8649849Y10439000D01*
X1123735Y10439000D01*
X1109595Y10430836D01*
X1105090Y10429629D01*
X1101054Y10427299D01*
X1085284Y10423073D01*
X1026927Y10364717D01*
X1026926Y10364714D01*
X691645Y10029433D01*
X668770Y10011397D01*
X666856Y10010224D01*
X666846Y10010216D01*
X661658Y10007036D01*
X657187Y10002901D01*
X639880Y9986895D01*
X630941Y9979378D01*
X614753Y9967017D01*
X603206Y9959187D01*
X593276Y9953242D01*
X580026Y9946358D01*
X579344Y9946055D01*
X509525Y9936867D01*
X474641Y9942392D01*
X465000Y9943919D01*
X455359Y9942392D01*
X363726Y9927879D01*
X363723Y9927878D01*
X354088Y9926352D01*
X254033Y9875372D01*
X174628Y9795967D01*
X164907Y9776888D01*
X159985Y9767228D01*
X112011Y9716432D01*
X44190Y9699636D01*
X-21945Y9722173D01*
X-65397Y9776888D01*
X-74500Y9823522D01*
X-74500Y10910653D01*
X-74201Y10913963D01*
X-70615Y10925000D01*
X-70059Y10925000D01*
X-78559Y11049266D01*
X-87513Y11180168D01*
X-87514Y11180172D01*
X-87802Y11184389D01*
X-140699Y11438947D01*
X-142840Y11444971D01*
X-143084Y11446385D01*
X-143262Y11447021D01*
X-143197Y11447039D01*
X-150000Y11486497D01*
X-150000Y12735000D01*
X3605458Y12735000D01*
X3625502Y12608445D01*
X3683674Y12494277D01*
X3774277Y12403674D01*
X3888445Y12345502D01*
X3956849Y12334668D01*
X4004108Y12327183D01*
X4067242Y12297254D01*
X4104174Y12237943D01*
X4107183Y12224108D01*
X4125502Y12108445D01*
X4183674Y11994277D01*
X4274277Y11903674D01*
X4388445Y11845502D01*
X4515000Y11825458D01*
X4641555Y11845502D01*
X4755723Y11903674D01*
X4846326Y11994277D01*
X4904498Y12108445D01*
X4924542Y12235000D01*
X4904498Y12361555D01*
X4846326Y12475723D01*
X4755723Y12566326D01*
X4641555Y12624498D01*
X4573151Y12635332D01*
X4525892Y12642817D01*
X4462758Y12672746D01*
X4425826Y12732057D01*
X4422817Y12745892D01*
X4406025Y12851913D01*
X4404498Y12861555D01*
X4346326Y12975723D01*
X4255723Y13066326D01*
X4141555Y13124498D01*
X4015000Y13144542D01*
X3888445Y13124498D01*
X3774277Y13066326D01*
X3683674Y12975723D01*
X3625502Y12861555D01*
X3605458Y12735000D01*
X-150000Y12735000D01*
X-150000Y13750000D01*
X-12101000Y13750000D01*
X-12168039Y13769685D01*
X-12213794Y13822489D01*
X-12225000Y13874000D01*
X-12225000Y19185000D01*
X8155458Y19185000D01*
X8175502Y19058445D01*
X8233674Y18944277D01*
X8324277Y18853674D01*
X8438445Y18795502D01*
X8565000Y18775458D01*
X8691555Y18795502D01*
X8805723Y18853674D01*
X8896326Y18944277D01*
X8917076Y18985000D01*
X11855458Y18985000D01*
X11875502Y18858445D01*
X11933674Y18744277D01*
X12024277Y18653674D01*
X12138445Y18595502D01*
X12265000Y18575458D01*
X12391555Y18595502D01*
X12505723Y18653674D01*
X12596326Y18744277D01*
X12654498Y18858445D01*
X12674542Y18985000D01*
X12654498Y19111555D01*
X12596326Y19225723D01*
X12524730Y19297319D01*
X12491245Y19358642D01*
X12496229Y19428334D01*
X12524730Y19472681D01*
X12596326Y19544277D01*
X12654498Y19658445D01*
X12674542Y19785000D01*
X12654498Y19911555D01*
X12596326Y20025723D01*
X12505723Y20116326D01*
X12391555Y20174498D01*
X12325247Y20185000D01*
X14655458Y20185000D01*
X14675502Y20058445D01*
X14733674Y19944277D01*
X14824277Y19853674D01*
X14880118Y19825221D01*
X14929748Y19799933D01*
X14929750Y19799932D01*
X14938445Y19795502D01*
X14967780Y19790856D01*
X15030915Y19760927D01*
X15067847Y19701616D01*
X15070856Y19687780D01*
X15075502Y19658445D01*
X15133674Y19544277D01*
X15224277Y19453674D01*
X15338445Y19395502D01*
X15465000Y19375458D01*
X15591555Y19395502D01*
X15705723Y19453674D01*
X15796326Y19544277D01*
X15854498Y19658445D01*
X15874542Y19785000D01*
X15854498Y19911555D01*
X15796326Y20025723D01*
X15705723Y20116326D01*
X15649882Y20144779D01*
X15600252Y20170067D01*
X15600250Y20170068D01*
X15591555Y20174498D01*
X15562220Y20179144D01*
X15499085Y20209073D01*
X15462153Y20268384D01*
X15459144Y20282220D01*
X15456025Y20301912D01*
X15456025Y20301913D01*
X15454498Y20311555D01*
X15396326Y20425723D01*
X15305723Y20516326D01*
X15191555Y20574498D01*
X15065000Y20594542D01*
X14938445Y20574498D01*
X14824277Y20516326D01*
X14733674Y20425723D01*
X14675502Y20311555D01*
X14655458Y20185000D01*
X12325247Y20185000D01*
X12265000Y20194542D01*
X12138445Y20174498D01*
X12024277Y20116326D01*
X11933674Y20025723D01*
X11875502Y19911555D01*
X11855458Y19785000D01*
X11875502Y19658445D01*
X11933674Y19544277D01*
X12005270Y19472681D01*
X12038755Y19411358D01*
X12033771Y19341666D01*
X12005270Y19297319D01*
X11933674Y19225723D01*
X11875502Y19111555D01*
X11855458Y18985000D01*
X8917076Y18985000D01*
X8954498Y19058445D01*
X8974542Y19185000D01*
X8954498Y19311555D01*
X8896326Y19425723D01*
X8898988Y19427080D01*
X8880847Y19477909D01*
X8896257Y19544208D01*
X8896326Y19544277D01*
X8954498Y19658445D01*
X8974542Y19785000D01*
X8954498Y19911555D01*
X8896326Y20025723D01*
X8805723Y20116326D01*
X8691555Y20174498D01*
X8565000Y20194542D01*
X8438445Y20174498D01*
X8324277Y20116326D01*
X8233674Y20025723D01*
X8175502Y19911555D01*
X8155458Y19785000D01*
X8175502Y19658445D01*
X8229244Y19552972D01*
X8233674Y19544277D01*
X8231012Y19542920D01*
X8249153Y19492091D01*
X8233743Y19425792D01*
X8233674Y19425723D01*
X8175502Y19311555D01*
X8155458Y19185000D01*
X-12225000Y19185000D01*
X-12225000Y21085000D01*
X2606081Y21085000D01*
X2623648Y20974088D01*
X2674628Y20874033D01*
X2754033Y20794628D01*
X2854088Y20743648D01*
X2863723Y20742122D01*
X2863726Y20742121D01*
X2955359Y20727608D01*
X2965000Y20726081D01*
X2974641Y20727608D01*
X3066274Y20742121D01*
X3066277Y20742122D01*
X3075912Y20743648D01*
X3175967Y20794628D01*
X3255372Y20874033D01*
X3306352Y20974088D01*
X3323919Y21085000D01*
X3318071Y21121922D01*
X3307879Y21186274D01*
X3307878Y21186277D01*
X3306352Y21195912D01*
X3255372Y21295967D01*
X3175967Y21375372D01*
X3075912Y21426352D01*
X3066277Y21427878D01*
X3066274Y21427879D01*
X2974641Y21442392D01*
X2965000Y21443919D01*
X2955359Y21442392D01*
X2863726Y21427879D01*
X2863723Y21427878D01*
X2854088Y21426352D01*
X2754033Y21375372D01*
X2674628Y21295967D01*
X2623648Y21195912D01*
X2622122Y21186277D01*
X2622121Y21186274D01*
X2611929Y21121922D01*
X2606081Y21085000D01*
X-12225000Y21085000D01*
X-12225000Y22085000D01*
X6805458Y22085000D01*
X6825502Y21958445D01*
X6883674Y21844277D01*
X6974277Y21753674D01*
X7088445Y21695502D01*
X7215000Y21675458D01*
X7341555Y21695502D01*
X7455723Y21753674D01*
X7546326Y21844277D01*
X7604498Y21958445D01*
X7624542Y22085000D01*
X7604498Y22211555D01*
X7546326Y22325723D01*
X7455723Y22416326D01*
X7341555Y22474498D01*
X7215000Y22494542D01*
X7088445Y22474498D01*
X6974277Y22416326D01*
X6883674Y22325723D01*
X6825502Y22211555D01*
X6805458Y22085000D01*
X-12225000Y22085000D01*
X-12225000Y22925000D01*
X3765458Y22925000D01*
X3785502Y22798445D01*
X3843674Y22684277D01*
X3934277Y22593674D01*
X4048445Y22535502D01*
X4175000Y22515458D01*
X4301555Y22535502D01*
X4415723Y22593674D01*
X4506326Y22684277D01*
X4564498Y22798445D01*
X4565536Y22805000D01*
X13055458Y22805000D01*
X13075502Y22678445D01*
X13133674Y22564277D01*
X13224277Y22473674D01*
X13338445Y22415502D01*
X13465000Y22395458D01*
X13591555Y22415502D01*
X13705723Y22473674D01*
X13796326Y22564277D01*
X13804462Y22580244D01*
X13852438Y22631039D01*
X13920259Y22647833D01*
X13987832Y22624265D01*
X13992253Y22621053D01*
X13999155Y22614151D01*
X14106266Y22559575D01*
X14225000Y22540769D01*
X14343734Y22559575D01*
X14450845Y22614151D01*
X14535849Y22699155D01*
X14590425Y22806266D01*
X14609231Y22925000D01*
X14590425Y23043734D01*
X14535849Y23150845D01*
X14450845Y23235849D01*
X14343734Y23290425D01*
X14225000Y23309231D01*
X14106266Y23290425D01*
X13999155Y23235849D01*
X13914151Y23150845D01*
X13909721Y23142151D01*
X13906761Y23138077D01*
X13851429Y23095413D01*
X13781815Y23089437D01*
X13718764Y23123285D01*
X13705723Y23136326D01*
X13591555Y23194498D01*
X13465000Y23214542D01*
X13338445Y23194498D01*
X13224277Y23136326D01*
X13133674Y23045723D01*
X13075502Y22931555D01*
X13055458Y22805000D01*
X4565536Y22805000D01*
X4584542Y22925000D01*
X4564498Y23051555D01*
X4506326Y23165723D01*
X4415723Y23256326D01*
X4301555Y23314498D01*
X4175000Y23334542D01*
X4048445Y23314498D01*
X3934277Y23256326D01*
X3843674Y23165723D01*
X3785502Y23051555D01*
X3765458Y22925000D01*
X-12225000Y22925000D01*
X-12225000Y23490770D01*
X-2066672Y23490770D01*
X-2049308Y23357987D01*
X-1995375Y23235415D01*
X-1977660Y23214340D01*
X-1929484Y23157028D01*
X-1909208Y23132906D01*
X-1797733Y23058703D01*
X-1789305Y23056070D01*
X-1789303Y23056069D01*
X-1756187Y23045723D01*
X-1669913Y23018769D01*
X-1661080Y23018607D01*
X-1661079Y23018607D01*
X-1620133Y23017857D01*
X-1536022Y23016315D01*
X-1406824Y23051538D01*
X-1292705Y23121607D01*
X-1274348Y23141887D01*
X-1221063Y23200756D01*
X-1202840Y23220889D01*
X-1195592Y23235849D01*
X-1148302Y23333454D01*
X-1148301Y23333456D01*
X-1144451Y23341403D01*
X-1122234Y23473461D01*
X-1122093Y23485000D01*
X-1141077Y23617561D01*
X-1196504Y23739465D01*
X-1202270Y23746156D01*
X-1207029Y23753598D01*
X-1205287Y23754712D01*
X-1229301Y23807684D01*
X-1219164Y23876815D01*
X-1209316Y23894326D01*
X-1208764Y23895144D01*
X-1202840Y23901689D01*
X-1144451Y24022203D01*
X-1122234Y24154261D01*
X-1122093Y24165800D01*
X-1141077Y24298361D01*
X-1196504Y24420265D01*
X-1283917Y24521713D01*
X-1291329Y24526517D01*
X-1291331Y24526519D01*
X-1388877Y24589745D01*
X-1388876Y24589745D01*
X-1396290Y24594550D01*
X-1438915Y24607297D01*
X-1516124Y24630388D01*
X-1516128Y24630389D01*
X-1524589Y24632919D01*
X-1533423Y24632973D01*
X-1574500Y24633224D01*
X-1658499Y24633737D01*
X-1787257Y24596938D01*
X-1900512Y24525480D01*
X-1989158Y24425107D01*
X-2046069Y24303889D01*
X-2066672Y24171570D01*
X-2049308Y24038787D01*
X-1995375Y23916215D01*
X-1989690Y23909452D01*
X-1987055Y23906317D01*
X-1985423Y23902598D01*
X-1985024Y23901956D01*
X-1985117Y23901898D01*
X-1958987Y23842333D01*
X-1969968Y23773331D01*
X-1979463Y23758968D01*
X-1978461Y23758310D01*
X-1983309Y23750930D01*
X-1989158Y23744307D01*
X-2046069Y23623089D01*
X-2066672Y23490770D01*
X-12225000Y23490770D01*
X-12225000Y25625000D01*
X5365458Y25625000D01*
X5385502Y25498445D01*
X5443674Y25384277D01*
X5534277Y25293674D01*
X5648445Y25235502D01*
X5775000Y25215458D01*
X5901555Y25235502D01*
X6015723Y25293674D01*
X6106326Y25384277D01*
X6110757Y25392973D01*
X6116460Y25404165D01*
X6164436Y25454960D01*
X6232257Y25471754D01*
X6298392Y25449215D01*
X6341842Y25394499D01*
X6344481Y25385004D01*
X6345034Y25385184D01*
X6348048Y25375908D01*
X6349575Y25366266D01*
X6404151Y25259155D01*
X6489155Y25174151D01*
X6596266Y25119575D01*
X6715000Y25100769D01*
X6833734Y25119575D01*
X6940845Y25174151D01*
X7025849Y25259155D01*
X7080425Y25366266D01*
X7099231Y25485000D01*
X16855458Y25485000D01*
X16875502Y25358445D01*
X16933674Y25244277D01*
X17024277Y25153674D01*
X17138445Y25095502D01*
X17265000Y25075458D01*
X17391555Y25095502D01*
X17505723Y25153674D01*
X17596326Y25244277D01*
X17654498Y25358445D01*
X17674542Y25485000D01*
X17654498Y25611555D01*
X17596326Y25725723D01*
X17505723Y25816326D01*
X17391555Y25874498D01*
X17265000Y25894542D01*
X17138445Y25874498D01*
X17024277Y25816326D01*
X16933674Y25725723D01*
X16875502Y25611555D01*
X16855458Y25485000D01*
X7099231Y25485000D01*
X7080425Y25603734D01*
X7025849Y25710845D01*
X6940845Y25795849D01*
X6833734Y25850425D01*
X6715000Y25869231D01*
X6596266Y25850425D01*
X6489155Y25795849D01*
X6404151Y25710845D01*
X6399721Y25702150D01*
X6399719Y25702147D01*
X6399503Y25701724D01*
X6399105Y25701303D01*
X6393983Y25694253D01*
X6393072Y25694915D01*
X6351528Y25650928D01*
X6283707Y25634134D01*
X6217572Y25656672D01*
X6174122Y25711388D01*
X6166547Y25738620D01*
X6164498Y25751555D01*
X6106326Y25865723D01*
X6015723Y25956326D01*
X5944728Y25992500D01*
X5893932Y26040475D01*
X5884007Y26080552D01*
X5835610Y26042118D01*
X5788977Y26033015D01*
X5784641Y26033015D01*
X5775000Y26034542D01*
X5648445Y26014498D01*
X5534277Y25956326D01*
X5443674Y25865723D01*
X5385502Y25751555D01*
X5365458Y25625000D01*
X-12225000Y25625000D01*
X-12225000Y26485000D01*
X3955458Y26485000D01*
X3975502Y26358445D01*
X4033674Y26244277D01*
X4124277Y26153674D01*
X4238445Y26095502D01*
X4365000Y26075458D01*
X4491555Y26095502D01*
X4569074Y26135000D01*
X11056081Y26135000D01*
X11057608Y26125359D01*
X11071053Y26040475D01*
X11073648Y26024088D01*
X11124628Y25924033D01*
X11204033Y25844628D01*
X11304088Y25793648D01*
X11313723Y25792122D01*
X11313726Y25792121D01*
X11405359Y25777608D01*
X11415000Y25776081D01*
X11424641Y25777608D01*
X11516274Y25792121D01*
X11516277Y25792122D01*
X11525912Y25793648D01*
X11625967Y25844628D01*
X11705372Y25924033D01*
X11756352Y26024088D01*
X11758948Y26040475D01*
X11772392Y26125359D01*
X11773919Y26135000D01*
X11766879Y26179448D01*
X11757879Y26236274D01*
X11757878Y26236277D01*
X11756352Y26245912D01*
X11705372Y26345967D01*
X11625967Y26425372D01*
X11607071Y26435000D01*
X13556081Y26435000D01*
X13557608Y26425359D01*
X13571560Y26337272D01*
X13573648Y26324088D01*
X13624628Y26224033D01*
X13704033Y26144628D01*
X13804088Y26093648D01*
X13813723Y26092122D01*
X13813726Y26092121D01*
X13905359Y26077608D01*
X13915000Y26076081D01*
X13924641Y26077608D01*
X14016274Y26092121D01*
X14016277Y26092122D01*
X14025912Y26093648D01*
X14125967Y26144628D01*
X14205372Y26224033D01*
X14256352Y26324088D01*
X14258441Y26337272D01*
X14272392Y26425359D01*
X14273919Y26435000D01*
X14267527Y26475359D01*
X14257879Y26536274D01*
X14257878Y26536277D01*
X14256352Y26545912D01*
X14205372Y26645967D01*
X14125967Y26725372D01*
X14025912Y26776352D01*
X14016277Y26777878D01*
X14016274Y26777879D01*
X13971313Y26785000D01*
X17705458Y26785000D01*
X17725502Y26658445D01*
X17783674Y26544277D01*
X17874277Y26453674D01*
X17988445Y26395502D01*
X18115000Y26375458D01*
X18241555Y26395502D01*
X18355723Y26453674D01*
X18446326Y26544277D01*
X18504498Y26658445D01*
X18524542Y26785000D01*
X18504498Y26911555D01*
X18446326Y27025723D01*
X18355723Y27116326D01*
X18241555Y27174498D01*
X18115000Y27194542D01*
X17988445Y27174498D01*
X17874277Y27116326D01*
X17783674Y27025723D01*
X17725502Y26911555D01*
X17705458Y26785000D01*
X13971313Y26785000D01*
X13924641Y26792392D01*
X13915000Y26793919D01*
X13905359Y26792392D01*
X13813726Y26777879D01*
X13813723Y26777878D01*
X13804088Y26776352D01*
X13704033Y26725372D01*
X13624628Y26645967D01*
X13573648Y26545912D01*
X13572122Y26536277D01*
X13572121Y26536274D01*
X13562473Y26475359D01*
X13556081Y26435000D01*
X11607071Y26435000D01*
X11525912Y26476352D01*
X11516277Y26477878D01*
X11516274Y26477879D01*
X11424641Y26492392D01*
X11415000Y26493919D01*
X11405359Y26492392D01*
X11313726Y26477879D01*
X11313723Y26477878D01*
X11304088Y26476352D01*
X11204033Y26425372D01*
X11124628Y26345967D01*
X11073648Y26245912D01*
X11072122Y26236277D01*
X11072121Y26236274D01*
X11063121Y26179448D01*
X11056081Y26135000D01*
X4569074Y26135000D01*
X4605723Y26153674D01*
X4696326Y26244277D01*
X4754498Y26358445D01*
X4774542Y26485000D01*
X4754498Y26611555D01*
X4742552Y26635000D01*
X5605458Y26635000D01*
X5625502Y26508445D01*
X5683674Y26394277D01*
X5774277Y26303674D01*
X5845272Y26267500D01*
X5896068Y26219525D01*
X5905993Y26179448D01*
X5954390Y26217882D01*
X6001023Y26226985D01*
X6005359Y26226985D01*
X6015000Y26225458D01*
X6141555Y26245502D01*
X6255723Y26303674D01*
X6346326Y26394277D01*
X6404498Y26508445D01*
X6424542Y26635000D01*
X6404498Y26761555D01*
X6346326Y26875723D01*
X6255723Y26966326D01*
X6141555Y27024498D01*
X6015000Y27044542D01*
X5888445Y27024498D01*
X5774277Y26966326D01*
X5683674Y26875723D01*
X5625502Y26761555D01*
X5605458Y26635000D01*
X4742552Y26635000D01*
X4696326Y26725723D01*
X4605723Y26816326D01*
X4491555Y26874498D01*
X4365000Y26894542D01*
X4238445Y26874498D01*
X4124277Y26816326D01*
X4033674Y26725723D01*
X3975502Y26611555D01*
X3955458Y26485000D01*
X-12225000Y26485000D01*
X-12225000Y28535000D01*
X15180769Y28535000D01*
X15199575Y28416266D01*
X15254151Y28309155D01*
X15339155Y28224151D01*
X15446266Y28169575D01*
X15565000Y28150769D01*
X15683734Y28169575D01*
X15790845Y28224151D01*
X15875849Y28309155D01*
X15930425Y28416266D01*
X15949231Y28535000D01*
X15930425Y28653734D01*
X15875849Y28760845D01*
X15790845Y28845849D01*
X15683734Y28900425D01*
X15565000Y28919231D01*
X15446266Y28900425D01*
X15339155Y28845849D01*
X15254151Y28760845D01*
X15199575Y28653734D01*
X15180769Y28535000D01*
X-12225000Y28535000D01*
X-12225000Y30765770D01*
X-2082272Y30765770D01*
X-2064908Y30632987D01*
X-2010975Y30510415D01*
X-2005290Y30503652D01*
X-1946211Y30433368D01*
X-1918142Y30369384D01*
X-1929122Y30300383D01*
X-1948188Y30271497D01*
X-1989158Y30225107D01*
X-2046069Y30103889D01*
X-2066672Y29971570D01*
X-2049308Y29838787D01*
X-2045751Y29830702D01*
X-2045750Y29830700D01*
X-2011503Y29752868D01*
X-1995375Y29716215D01*
X-1994509Y29715185D01*
X-1976804Y29651497D01*
X-1988546Y29600590D01*
X-2032917Y29506081D01*
X-2036669Y29498089D01*
X-2057272Y29365770D01*
X-2039908Y29232987D01*
X-2036351Y29224902D01*
X-2036350Y29224900D01*
X-2021927Y29192121D01*
X-1985975Y29110415D01*
X-1899808Y29007906D01*
X-1788333Y28933703D01*
X-1779905Y28931070D01*
X-1779903Y28931069D01*
X-1742011Y28919231D01*
X-1660513Y28893769D01*
X-1651680Y28893607D01*
X-1651679Y28893607D01*
X-1610733Y28892857D01*
X-1526622Y28891315D01*
X-1397424Y28926538D01*
X-1283305Y28996607D01*
X-1193440Y29095889D01*
X-1179162Y29125359D01*
X-1174491Y29135000D01*
X5805458Y29135000D01*
X5825502Y29008445D01*
X5883674Y28894277D01*
X5974277Y28803674D01*
X6088445Y28745502D01*
X6215000Y28725458D01*
X6341555Y28745502D01*
X6455723Y28803674D01*
X6546326Y28894277D01*
X6604498Y29008445D01*
X6624542Y29135000D01*
X6604498Y29261555D01*
X6546326Y29375723D01*
X6455723Y29466326D01*
X6341555Y29524498D01*
X6275247Y29535000D01*
X14506081Y29535000D01*
X14523648Y29424088D01*
X14574628Y29324033D01*
X14654033Y29244628D01*
X14754088Y29193648D01*
X14763723Y29192122D01*
X14763726Y29192121D01*
X14855359Y29177608D01*
X14865000Y29176081D01*
X14874641Y29177608D01*
X14966274Y29192121D01*
X14966277Y29192122D01*
X14975912Y29193648D01*
X15075967Y29244628D01*
X15155372Y29324033D01*
X15206352Y29424088D01*
X15223919Y29535000D01*
X15222392Y29544641D01*
X15207879Y29636274D01*
X15207878Y29636277D01*
X15206352Y29645912D01*
X15155372Y29745967D01*
X15075967Y29825372D01*
X14975912Y29876352D01*
X14966277Y29877878D01*
X14966274Y29877879D01*
X14874641Y29892392D01*
X14865000Y29893919D01*
X14855359Y29892392D01*
X14763726Y29877879D01*
X14763723Y29877878D01*
X14754088Y29876352D01*
X14654033Y29825372D01*
X14574628Y29745967D01*
X14523648Y29645912D01*
X14522122Y29636277D01*
X14522121Y29636274D01*
X14507608Y29544641D01*
X14506081Y29535000D01*
X6275247Y29535000D01*
X6215000Y29544542D01*
X6088445Y29524498D01*
X5974277Y29466326D01*
X5883674Y29375723D01*
X5825502Y29261555D01*
X5805458Y29135000D01*
X-1174491Y29135000D01*
X-1138902Y29208454D01*
X-1138901Y29208456D01*
X-1135051Y29216403D01*
X-1130787Y29241749D01*
X-1113627Y29343746D01*
X-1113627Y29343749D01*
X-1112834Y29348461D01*
X-1112693Y29360000D01*
X-1114769Y29374499D01*
X-1130424Y29483815D01*
X-1130425Y29483818D01*
X-1131677Y29492561D01*
X-1146589Y29525359D01*
X-1187104Y29614465D01*
X-1185904Y29615011D01*
X-1202902Y29673381D01*
X-1190494Y29727170D01*
X-1148302Y29814254D01*
X-1148301Y29814256D01*
X-1144451Y29822203D01*
X-1122234Y29954261D01*
X-1122093Y29965800D01*
X-1141077Y30098361D01*
X-1196504Y30220265D01*
X-1257386Y30290922D01*
X-1286234Y30354558D01*
X-1276099Y30423688D01*
X-1255381Y30455077D01*
X-1224368Y30489340D01*
X-1218440Y30495889D01*
X-1207485Y30518500D01*
X-1163902Y30608454D01*
X-1163901Y30608456D01*
X-1160051Y30616403D01*
X-1156922Y30635000D01*
X14456081Y30635000D01*
X14457608Y30625359D01*
X14460286Y30608454D01*
X14473648Y30524088D01*
X14524628Y30424033D01*
X14604033Y30344628D01*
X14704088Y30293648D01*
X14713723Y30292122D01*
X14713726Y30292121D01*
X14805359Y30277608D01*
X14815000Y30276081D01*
X14824641Y30277608D01*
X14916274Y30292121D01*
X14916277Y30292122D01*
X14925912Y30293648D01*
X15025967Y30344628D01*
X15105372Y30424033D01*
X15156352Y30524088D01*
X15169715Y30608454D01*
X15172392Y30625359D01*
X15173919Y30635000D01*
X15156352Y30745912D01*
X15105372Y30845967D01*
X15025967Y30925372D01*
X14925912Y30976352D01*
X14916277Y30977878D01*
X14916274Y30977879D01*
X14824641Y30992392D01*
X14815000Y30993919D01*
X14805359Y30992392D01*
X14713726Y30977879D01*
X14713723Y30977878D01*
X14704088Y30976352D01*
X14604033Y30925372D01*
X14524628Y30845967D01*
X14473648Y30745912D01*
X14456081Y30635000D01*
X-1156922Y30635000D01*
X-1137834Y30748461D01*
X-1137693Y30760000D01*
X-1150004Y30845967D01*
X-1155424Y30883815D01*
X-1155425Y30883818D01*
X-1156677Y30892561D01*
X-1168457Y30918471D01*
X-1202068Y30992392D01*
X-1203982Y30996602D01*
X-1213810Y31065776D01*
X-1202695Y31101987D01*
X-1144451Y31222203D01*
X-1122234Y31354261D01*
X-1122093Y31365800D01*
X-1122919Y31371570D01*
X-1139824Y31489615D01*
X-1139825Y31489618D01*
X-1141077Y31498361D01*
X-1196504Y31620265D01*
X-1200584Y31625000D01*
X5595458Y31625000D01*
X5615502Y31498445D01*
X5673674Y31384277D01*
X5764277Y31293674D01*
X5878445Y31235502D01*
X6005000Y31215458D01*
X6131555Y31235502D01*
X6245723Y31293674D01*
X6336326Y31384277D01*
X6394498Y31498445D01*
X6414542Y31625000D01*
X14490769Y31625000D01*
X14509575Y31506266D01*
X14564151Y31399155D01*
X14649155Y31314151D01*
X14756266Y31259575D01*
X14875000Y31240769D01*
X14993734Y31259575D01*
X15100845Y31314151D01*
X15185849Y31399155D01*
X15240425Y31506266D01*
X15259231Y31625000D01*
X15240425Y31743734D01*
X15185849Y31850845D01*
X15100845Y31935849D01*
X14993734Y31990425D01*
X14875000Y32009231D01*
X14756266Y31990425D01*
X14649155Y31935849D01*
X14564151Y31850845D01*
X14509575Y31743734D01*
X14490769Y31625000D01*
X6414542Y31625000D01*
X6394498Y31751555D01*
X6336326Y31865723D01*
X6245723Y31956326D01*
X6131555Y32014498D01*
X6005000Y32034542D01*
X5878445Y32014498D01*
X5764277Y31956326D01*
X5673674Y31865723D01*
X5615502Y31751555D01*
X5595458Y31625000D01*
X-1200584Y31625000D01*
X-1283917Y31721713D01*
X-1291329Y31726517D01*
X-1291331Y31726519D01*
X-1388877Y31789745D01*
X-1388876Y31789745D01*
X-1396290Y31794550D01*
X-1438915Y31807297D01*
X-1516124Y31830388D01*
X-1516128Y31830389D01*
X-1524589Y31832919D01*
X-1533423Y31832973D01*
X-1574500Y31833224D01*
X-1658499Y31833737D01*
X-1787257Y31796938D01*
X-1900512Y31725480D01*
X-1989158Y31625107D01*
X-2046069Y31503889D01*
X-2057843Y31428274D01*
X-2064693Y31384277D01*
X-2066672Y31371570D01*
X-2063792Y31349546D01*
X-2052026Y31259575D01*
X-2049308Y31238787D01*
X-2045751Y31230702D01*
X-2045750Y31230700D01*
X-2000146Y31127058D01*
X-1991164Y31057768D01*
X-2005838Y31019814D01*
X-2004758Y31019307D01*
X-2016677Y30993919D01*
X-2061669Y30898089D01*
X-2082272Y30765770D01*
X-12225000Y30765770D01*
X-12225000Y33235000D01*
X5805458Y33235000D01*
X5825502Y33108445D01*
X5883674Y32994277D01*
X5974277Y32903674D01*
X6088445Y32845502D01*
X6215000Y32825458D01*
X6341555Y32845502D01*
X6455723Y32903674D01*
X6537049Y32985000D01*
X19680769Y32985000D01*
X19699575Y32866266D01*
X19754151Y32759155D01*
X19839155Y32674151D01*
X19946266Y32619575D01*
X20065000Y32600769D01*
X20183734Y32619575D01*
X20290845Y32674151D01*
X20375849Y32759155D01*
X20430425Y32866266D01*
X20449231Y32985000D01*
X20430425Y33103734D01*
X20375849Y33210845D01*
X20290845Y33295849D01*
X20183734Y33350425D01*
X20065000Y33369231D01*
X19946266Y33350425D01*
X19839155Y33295849D01*
X19754151Y33210845D01*
X19699575Y33103734D01*
X19680769Y32985000D01*
X6537049Y32985000D01*
X6546326Y32994277D01*
X6604498Y33108445D01*
X6624542Y33235000D01*
X6604498Y33361555D01*
X6546326Y33475723D01*
X6455723Y33566326D01*
X6341555Y33624498D01*
X6215000Y33644542D01*
X6088445Y33624498D01*
X5974277Y33566326D01*
X5883674Y33475723D01*
X5825502Y33361555D01*
X5805458Y33235000D01*
X-12225000Y33235000D01*
X-12225000Y35385000D01*
X8530769Y35385000D01*
X8549575Y35266266D01*
X8604151Y35159155D01*
X8689155Y35074151D01*
X8796266Y35019575D01*
X8915000Y35000769D01*
X9033734Y35019575D01*
X9140845Y35074151D01*
X9225849Y35159155D01*
X9280425Y35266266D01*
X9299231Y35385000D01*
X9292895Y35425000D01*
X9866081Y35425000D01*
X9867608Y35415359D01*
X9879477Y35340425D01*
X9883648Y35314088D01*
X9934628Y35214033D01*
X10014033Y35134628D01*
X10022726Y35130199D01*
X10022727Y35130198D01*
X10027747Y35127640D01*
X10039196Y35121807D01*
X10089992Y35073835D01*
X10106789Y35006014D01*
X10093388Y34955028D01*
X10083648Y34935912D01*
X10082122Y34926277D01*
X10082121Y34926274D01*
X10072812Y34867496D01*
X10066081Y34825000D01*
X10067608Y34815359D01*
X10076717Y34757850D01*
X10083648Y34714088D01*
X10134628Y34614033D01*
X10214033Y34534628D01*
X10314088Y34483648D01*
X10323723Y34482122D01*
X10323726Y34482121D01*
X10415359Y34467608D01*
X10425000Y34466081D01*
X10434641Y34467608D01*
X10526274Y34482121D01*
X10526277Y34482122D01*
X10535912Y34483648D01*
X10635967Y34534628D01*
X10715372Y34614033D01*
X10766352Y34714088D01*
X10773284Y34757850D01*
X10782392Y34815359D01*
X10783919Y34825000D01*
X10777188Y34867496D01*
X10767879Y34926274D01*
X10767878Y34926277D01*
X10766352Y34935912D01*
X10715372Y35035967D01*
X10635967Y35115372D01*
X10623336Y35121808D01*
X10622253Y35122360D01*
X10610804Y35128193D01*
X10560008Y35176165D01*
X10543211Y35243986D01*
X10556612Y35294972D01*
X10561922Y35305394D01*
X10566352Y35314088D01*
X10570524Y35340425D01*
X10582392Y35415359D01*
X10583919Y35425000D01*
X10572976Y35494092D01*
X10567879Y35526274D01*
X10567878Y35526277D01*
X10566352Y35535912D01*
X10515372Y35635967D01*
X10435967Y35715372D01*
X10335912Y35766352D01*
X10326277Y35767878D01*
X10326274Y35767879D01*
X10234641Y35782392D01*
X10225000Y35783919D01*
X10215359Y35782392D01*
X10123726Y35767879D01*
X10123723Y35767878D01*
X10114088Y35766352D01*
X10014033Y35715372D01*
X9934628Y35635967D01*
X9883648Y35535912D01*
X9882122Y35526277D01*
X9882121Y35526274D01*
X9877024Y35494092D01*
X9866081Y35425000D01*
X9292895Y35425000D01*
X9280425Y35503734D01*
X9225849Y35610845D01*
X9140845Y35695849D01*
X9033734Y35750425D01*
X8915000Y35769231D01*
X8796266Y35750425D01*
X8689155Y35695849D01*
X8604151Y35610845D01*
X8549575Y35503734D01*
X8530769Y35385000D01*
X-12225000Y35385000D01*
X-12225000Y36210570D01*
X-2066672Y36210570D01*
X-2049308Y36077787D01*
X-2045751Y36069702D01*
X-2045750Y36069700D01*
X-2031042Y36036274D01*
X-1995375Y35955215D01*
X-1909208Y35852706D01*
X-1885288Y35836784D01*
X-1805869Y35783919D01*
X-1797733Y35778503D01*
X-1789305Y35775870D01*
X-1789303Y35775869D01*
X-1746415Y35762470D01*
X-1669913Y35738569D01*
X-1661080Y35738407D01*
X-1661079Y35738407D01*
X-1620133Y35737657D01*
X-1536022Y35736115D01*
X-1406824Y35771338D01*
X-1292705Y35841407D01*
X-1277821Y35857850D01*
X-1232818Y35907570D01*
X-1202840Y35940689D01*
X-1178853Y35990198D01*
X-1148302Y36053254D01*
X-1148301Y36053256D01*
X-1144451Y36061203D01*
X-1130506Y36144092D01*
X-1123027Y36188546D01*
X-1123027Y36188549D01*
X-1122234Y36193261D01*
X-1122093Y36204800D01*
X-1122919Y36210570D01*
X-1133578Y36285000D01*
X10406081Y36285000D01*
X10407608Y36275359D01*
X10419854Y36198043D01*
X10423648Y36174088D01*
X10474628Y36074033D01*
X10554033Y35994628D01*
X10654088Y35943648D01*
X10663723Y35942122D01*
X10663726Y35942121D01*
X10755359Y35927608D01*
X10765000Y35926081D01*
X10774641Y35927608D01*
X10821313Y35935000D01*
X12056081Y35935000D01*
X12057608Y35925359D01*
X12070905Y35841407D01*
X12073648Y35824088D01*
X12124628Y35724033D01*
X12204033Y35644628D01*
X12304088Y35593648D01*
X12313723Y35592122D01*
X12313726Y35592121D01*
X12405359Y35577608D01*
X12415000Y35576081D01*
X12424641Y35577608D01*
X12516274Y35592121D01*
X12516277Y35592122D01*
X12525912Y35593648D01*
X12619638Y35641403D01*
X12688306Y35654299D01*
X12753046Y35628022D01*
X12763608Y35618602D01*
X12785283Y35596927D01*
X12785284Y35596927D01*
X13217070Y35165141D01*
X13250555Y35103818D01*
X13245571Y35034126D01*
X13203699Y34978193D01*
X13185684Y34966975D01*
X13162237Y34955028D01*
X13104033Y34925372D01*
X13024628Y34845967D01*
X12973648Y34745912D01*
X12956081Y34635000D01*
X12957608Y34625359D01*
X12971979Y34534628D01*
X12973648Y34524088D01*
X13024628Y34424033D01*
X13104033Y34344628D01*
X13204088Y34293648D01*
X13213723Y34292122D01*
X13213726Y34292121D01*
X13305359Y34277608D01*
X13315000Y34276081D01*
X13324641Y34277608D01*
X13416274Y34292121D01*
X13416277Y34292122D01*
X13425912Y34293648D01*
X13467554Y34314865D01*
X13536222Y34327762D01*
X13600962Y34301486D01*
X13621633Y34279910D01*
X13624628Y34274033D01*
X13700100Y34198561D01*
X13733585Y34137238D01*
X13728601Y34067546D01*
X13722903Y34054584D01*
X13675502Y33961555D01*
X13655458Y33835000D01*
X13675502Y33708445D01*
X13733674Y33594277D01*
X13824277Y33503674D01*
X13938445Y33445502D01*
X14065000Y33425458D01*
X14191555Y33445502D01*
X14305723Y33503674D01*
X14396326Y33594277D01*
X14454498Y33708445D01*
X14474542Y33835000D01*
X14454498Y33961555D01*
X14417076Y34035000D01*
X19680769Y34035000D01*
X19699575Y33916266D01*
X19754151Y33809155D01*
X19839155Y33724151D01*
X19946266Y33669575D01*
X20065000Y33650769D01*
X20183734Y33669575D01*
X20290845Y33724151D01*
X20375849Y33809155D01*
X20430425Y33916266D01*
X20449231Y34035000D01*
X20430425Y34153734D01*
X20375849Y34260845D01*
X20290845Y34345849D01*
X20183734Y34400425D01*
X20065000Y34419231D01*
X19946266Y34400425D01*
X19839155Y34345849D01*
X19754151Y34260845D01*
X19699575Y34153734D01*
X19680769Y34035000D01*
X14417076Y34035000D01*
X14396326Y34075723D01*
X14305723Y34166326D01*
X14297027Y34170757D01*
X14297024Y34170759D01*
X14292968Y34172826D01*
X14242173Y34220802D01*
X14225380Y34288624D01*
X14238780Y34339601D01*
X14256352Y34374088D01*
X14258844Y34389818D01*
X14272392Y34475359D01*
X14273919Y34485000D01*
X14266760Y34530198D01*
X14257879Y34586274D01*
X14257878Y34586277D01*
X14256352Y34595912D01*
X14205372Y34695967D01*
X14125967Y34775372D01*
X14025912Y34826352D01*
X14026171Y34826860D01*
X13994838Y34844148D01*
X13991919Y34846578D01*
X13967525Y34866976D01*
X13966250Y34868057D01*
X13941623Y34889221D01*
X13939790Y34890829D01*
X13912784Y34915016D01*
X13910755Y34916876D01*
X13879648Y34946046D01*
X13877736Y34947879D01*
X13850065Y34975000D01*
X17500769Y34975000D01*
X17519575Y34856266D01*
X17574151Y34749155D01*
X17659155Y34664151D01*
X17766266Y34609575D01*
X17885000Y34590769D01*
X18003734Y34609575D01*
X18110845Y34664151D01*
X18195849Y34749155D01*
X18250425Y34856266D01*
X18269231Y34975000D01*
X18250425Y35093734D01*
X18195849Y35200845D01*
X18110845Y35285849D01*
X18003734Y35340425D01*
X17885000Y35359231D01*
X17766266Y35340425D01*
X17659155Y35285849D01*
X17574151Y35200845D01*
X17519575Y35093734D01*
X17500769Y34975000D01*
X13850065Y34975000D01*
X13847639Y34977378D01*
X13837140Y34984279D01*
X13817574Y35000215D01*
X13432789Y35385000D01*
X14856081Y35385000D01*
X14857608Y35375359D01*
X14871084Y35290279D01*
X14873648Y35274088D01*
X14924628Y35174033D01*
X15004033Y35094628D01*
X15104088Y35043648D01*
X15113723Y35042122D01*
X15113726Y35042121D01*
X15205359Y35027608D01*
X15215000Y35026081D01*
X15224641Y35027608D01*
X15316274Y35042121D01*
X15316277Y35042122D01*
X15325912Y35043648D01*
X15425967Y35094628D01*
X15505372Y35174033D01*
X15556352Y35274088D01*
X15558917Y35290279D01*
X15572392Y35375359D01*
X15573919Y35385000D01*
X15556352Y35495912D01*
X15505372Y35595967D01*
X15425967Y35675372D01*
X15325912Y35726352D01*
X15316277Y35727878D01*
X15316274Y35727879D01*
X15224641Y35742392D01*
X15215000Y35743919D01*
X15205359Y35742392D01*
X15113726Y35727879D01*
X15113723Y35727878D01*
X15104088Y35726352D01*
X15004033Y35675372D01*
X14924628Y35595967D01*
X14873648Y35495912D01*
X14856081Y35385000D01*
X13432789Y35385000D01*
X13055319Y35762470D01*
X13021834Y35823793D01*
X13019000Y35850151D01*
X13019000Y36035000D01*
X13430769Y36035000D01*
X13449575Y35916266D01*
X13504151Y35809155D01*
X13589155Y35724151D01*
X13696266Y35669575D01*
X13815000Y35650769D01*
X13933734Y35669575D01*
X14040845Y35724151D01*
X14125849Y35809155D01*
X14180425Y35916266D01*
X14199231Y36035000D01*
X14192895Y36075000D01*
X18280769Y36075000D01*
X18299575Y35956266D01*
X18354151Y35849155D01*
X18439155Y35764151D01*
X18546266Y35709575D01*
X18665000Y35690769D01*
X18783734Y35709575D01*
X18890845Y35764151D01*
X18975849Y35849155D01*
X19030425Y35956266D01*
X19049231Y36075000D01*
X19030425Y36193734D01*
X18975849Y36300845D01*
X18890845Y36385849D01*
X18783734Y36440425D01*
X18665000Y36459231D01*
X18546266Y36440425D01*
X18439155Y36385849D01*
X18354151Y36300845D01*
X18299575Y36193734D01*
X18280769Y36075000D01*
X14192895Y36075000D01*
X14180425Y36153734D01*
X14125849Y36260845D01*
X14040845Y36345849D01*
X13933734Y36400425D01*
X13815000Y36419231D01*
X13696266Y36400425D01*
X13589155Y36345849D01*
X13504151Y36260845D01*
X13449575Y36153734D01*
X13430769Y36035000D01*
X13019000Y36035000D01*
X13019000Y36869849D01*
X13038685Y36936888D01*
X13055319Y36957530D01*
X13492470Y37394681D01*
X13553793Y37428166D01*
X13580151Y37431000D01*
X16556265Y37431000D01*
X16570405Y37439164D01*
X16574909Y37440371D01*
X16578946Y37442702D01*
X16594716Y37446927D01*
X16653073Y37505283D01*
X16653073Y37505284D01*
X17878073Y38730284D01*
X17882299Y38746056D01*
X17884630Y38750093D01*
X17885837Y38754596D01*
X17894000Y38768736D01*
X17894001Y38810488D01*
X17897419Y38839398D01*
X17897946Y38841596D01*
X17897947Y38841602D01*
X17899366Y38847520D01*
X17900522Y38877155D01*
X17901527Y38888786D01*
X17904234Y38908985D01*
X17906868Y38922709D01*
X17908733Y38930136D01*
X17944152Y38990363D01*
X17946649Y38992428D01*
X17950967Y38994628D01*
X18030372Y39074033D01*
X18081352Y39174088D01*
X18098919Y39285000D01*
X18094722Y39311501D01*
X18082879Y39386274D01*
X18082878Y39386277D01*
X18081352Y39395912D01*
X18030372Y39495967D01*
X17950967Y39575372D01*
X17850912Y39626352D01*
X17841277Y39627878D01*
X17841274Y39627879D01*
X17749641Y39642392D01*
X17740000Y39643919D01*
X17730359Y39642392D01*
X17638726Y39627879D01*
X17638723Y39627878D01*
X17629088Y39626352D01*
X17529033Y39575372D01*
X17449628Y39495967D01*
X17398648Y39395912D01*
X17397122Y39386277D01*
X17397121Y39386274D01*
X17385278Y39311501D01*
X17381081Y39285000D01*
X17398648Y39174088D01*
X17449628Y39074033D01*
X17529033Y38994628D01*
X17526529Y38992124D01*
X17558303Y38950949D01*
X17564307Y38881338D01*
X17530449Y38818238D01*
X16487530Y37775319D01*
X16426207Y37741834D01*
X16399849Y37739000D01*
X15119558Y37739000D01*
X15052519Y37758685D01*
X15006764Y37811489D01*
X14996820Y37880647D01*
X15009074Y37919296D01*
X15050066Y37999746D01*
X15050067Y37999748D01*
X15054498Y38008445D01*
X15074542Y38135000D01*
X15054498Y38261555D01*
X14996326Y38375723D01*
X14905723Y38466326D01*
X14791555Y38524498D01*
X14665000Y38544542D01*
X14538445Y38524498D01*
X14424277Y38466326D01*
X14333674Y38375723D01*
X14275502Y38261555D01*
X14255458Y38135000D01*
X14275502Y38008445D01*
X14279933Y37999748D01*
X14279934Y37999746D01*
X14320926Y37919296D01*
X14333823Y37850627D01*
X14307547Y37785886D01*
X14250441Y37745628D01*
X14210442Y37739000D01*
X13423735Y37739000D01*
X13409595Y37730836D01*
X13405091Y37729629D01*
X13401054Y37727298D01*
X13385284Y37723073D01*
X13326927Y37664717D01*
X13326927Y37664716D01*
X12726927Y37064716D01*
X12722701Y37048943D01*
X12720369Y37044904D01*
X12719163Y37040403D01*
X12711000Y37026265D01*
X12710999Y36943736D01*
X12711000Y36943734D01*
X12711000Y36384394D01*
X12691315Y36317355D01*
X12638511Y36271600D01*
X12569353Y36261656D01*
X12544132Y36269653D01*
X12543889Y36268906D01*
X12534605Y36271923D01*
X12525912Y36276352D01*
X12516277Y36277878D01*
X12516274Y36277879D01*
X12424641Y36292392D01*
X12415000Y36293919D01*
X12405359Y36292392D01*
X12313726Y36277879D01*
X12313723Y36277878D01*
X12304088Y36276352D01*
X12204033Y36225372D01*
X12124628Y36145967D01*
X12073648Y36045912D01*
X12072122Y36036277D01*
X12072121Y36036274D01*
X12060976Y35965908D01*
X12056081Y35935000D01*
X10821313Y35935000D01*
X10866274Y35942121D01*
X10866277Y35942122D01*
X10875912Y35943648D01*
X10975967Y35994628D01*
X11055372Y36074033D01*
X11106352Y36174088D01*
X11110147Y36198043D01*
X11122392Y36275359D01*
X11123919Y36285000D01*
X11120316Y36307747D01*
X11107879Y36386274D01*
X11107878Y36386277D01*
X11106352Y36395912D01*
X11055372Y36495967D01*
X10975967Y36575372D01*
X10875912Y36626352D01*
X10866277Y36627878D01*
X10866274Y36627879D01*
X10774641Y36642392D01*
X10765000Y36643919D01*
X10755359Y36642392D01*
X10663726Y36627879D01*
X10663723Y36627878D01*
X10654088Y36626352D01*
X10554033Y36575372D01*
X10474628Y36495967D01*
X10423648Y36395912D01*
X10422122Y36386277D01*
X10422121Y36386274D01*
X10409684Y36307747D01*
X10406081Y36285000D01*
X-1133578Y36285000D01*
X-1139824Y36328615D01*
X-1139825Y36328618D01*
X-1141077Y36337361D01*
X-1145763Y36347669D01*
X-1192848Y36451225D01*
X-1192849Y36451227D01*
X-1196504Y36459265D01*
X-1195967Y36459509D01*
X-1213680Y36520337D01*
X-1201272Y36574125D01*
X-1148302Y36683454D01*
X-1148301Y36683456D01*
X-1144451Y36691403D01*
X-1134033Y36753329D01*
X-1128705Y36785000D01*
X2106081Y36785000D01*
X2107608Y36775359D01*
X2121412Y36688207D01*
X2123648Y36674088D01*
X2174628Y36574033D01*
X2254033Y36494628D01*
X2354088Y36443648D01*
X2363723Y36442122D01*
X2363726Y36442121D01*
X2455359Y36427608D01*
X2465000Y36426081D01*
X2474641Y36427608D01*
X2566274Y36442121D01*
X2566277Y36442122D01*
X2575912Y36443648D01*
X2675967Y36494628D01*
X2755372Y36574033D01*
X2806352Y36674088D01*
X2808589Y36688207D01*
X2822392Y36775359D01*
X2823919Y36785000D01*
X2816000Y36835000D01*
X2807879Y36886274D01*
X2807878Y36886277D01*
X2806352Y36895912D01*
X2755372Y36995967D01*
X2675967Y37075372D01*
X2575912Y37126352D01*
X2566277Y37127878D01*
X2566274Y37127879D01*
X2474641Y37142392D01*
X2465000Y37143919D01*
X2455359Y37142392D01*
X2363726Y37127879D01*
X2363723Y37127878D01*
X2354088Y37126352D01*
X2254033Y37075372D01*
X2174628Y36995967D01*
X2123648Y36895912D01*
X2122122Y36886277D01*
X2122121Y36886274D01*
X2114000Y36835000D01*
X2106081Y36785000D01*
X-1128705Y36785000D01*
X-1123027Y36818746D01*
X-1123027Y36818749D01*
X-1122234Y36823461D01*
X-1122093Y36835000D01*
X-1124169Y36849499D01*
X-1139824Y36958815D01*
X-1139825Y36958818D01*
X-1141077Y36967561D01*
X-1153992Y36995967D01*
X-1192848Y37081425D01*
X-1192849Y37081427D01*
X-1196504Y37089465D01*
X-1229603Y37127879D01*
X-1278149Y37184219D01*
X-1283917Y37190913D01*
X-1291329Y37195717D01*
X-1291331Y37195719D01*
X-1388877Y37258945D01*
X-1388876Y37258945D01*
X-1396290Y37263750D01*
X-1440191Y37276879D01*
X-1516124Y37299588D01*
X-1516128Y37299589D01*
X-1524589Y37302119D01*
X-1533423Y37302173D01*
X-1574500Y37302424D01*
X-1658499Y37302937D01*
X-1787257Y37266138D01*
X-1900512Y37194680D01*
X-1906362Y37188056D01*
X-1964769Y37121922D01*
X-1989158Y37094307D01*
X-2046069Y36973089D01*
X-2066672Y36840770D01*
X-2049308Y36707987D01*
X-2045751Y36699902D01*
X-2045750Y36699900D01*
X-2003765Y36604483D01*
X-1995375Y36585415D01*
X-1993255Y36582893D01*
X-1975285Y36518263D01*
X-1991561Y36465235D01*
X-1989158Y36464107D01*
X-2007810Y36424378D01*
X-2046069Y36342889D01*
X-2056429Y36276352D01*
X-2063677Y36229802D01*
X-2066672Y36210570D01*
X-12225000Y36210570D01*
X-12225000Y38635000D01*
X7205458Y38635000D01*
X7225502Y38508445D01*
X7283674Y38394277D01*
X7374277Y38303674D01*
X7488445Y38245502D01*
X7615000Y38225458D01*
X7741555Y38245502D01*
X7855723Y38303674D01*
X7946326Y38394277D01*
X8004498Y38508445D01*
X8024542Y38635000D01*
X8004498Y38761555D01*
X7946326Y38875723D01*
X7855723Y38966326D01*
X7741555Y39024498D01*
X7615000Y39044542D01*
X7488445Y39024498D01*
X7374277Y38966326D01*
X7283674Y38875723D01*
X7225502Y38761555D01*
X7205458Y38635000D01*
X-12225000Y38635000D01*
X-12225000Y43185000D01*
X-1693919Y43185000D01*
X-1676352Y43074088D01*
X-1625372Y42974033D01*
X-1545967Y42894628D01*
X-1445912Y42843648D01*
X-1436277Y42842122D01*
X-1436274Y42842121D01*
X-1344641Y42827608D01*
X-1335000Y42826081D01*
X-1325359Y42827608D01*
X-1233726Y42842121D01*
X-1233723Y42842122D01*
X-1224088Y42843648D01*
X-1124033Y42894628D01*
X-1044628Y42974033D01*
X-993648Y43074088D01*
X-976081Y43185000D01*
X-993648Y43295912D01*
X-1044628Y43395967D01*
X-1124033Y43475372D01*
X-1224088Y43526352D01*
X-1233723Y43527878D01*
X-1233726Y43527879D01*
X-1325359Y43542392D01*
X-1335000Y43543919D01*
X-1344641Y43542392D01*
X-1436274Y43527879D01*
X-1436277Y43527878D01*
X-1445912Y43526352D01*
X-1545967Y43475372D01*
X-1625372Y43395967D01*
X-1676352Y43295912D01*
X-1693919Y43185000D01*
X-12225000Y43185000D01*
X-12225000Y43925000D01*
X-30676000Y43925000D01*
X-30743039Y43944685D01*
X-30788794Y43997489D01*
X-30800000Y44049000D01*
X-30800000Y47239212D01*
X-7453Y47239212D01*
X21578Y47137970D01*
X26024Y47126739D01*
X110837Y46961709D01*
X117375Y46951565D01*
X232636Y46806142D01*
X241008Y46797472D01*
X330867Y46720997D01*
X369162Y46662557D01*
X374500Y46626566D01*
X374501Y46175908D01*
X374501Y45726088D01*
X379751Y45699689D01*
X399753Y45669753D01*
X409908Y45662968D01*
X419533Y45656536D01*
X419536Y45656535D01*
X429689Y45649751D01*
X441667Y45647368D01*
X441668Y45647368D01*
X450108Y45645689D01*
X450111Y45645689D01*
X456087Y45644500D01*
X462182Y45644500D01*
X965125Y45644501D01*
X1473912Y45644501D01*
X1500311Y45649751D01*
X1511716Y45657371D01*
X1520092Y45662968D01*
X1530247Y45669753D01*
X1541004Y45685852D01*
X1543464Y45689533D01*
X1543465Y45689536D01*
X1550249Y45699689D01*
X1555500Y45726087D01*
X1555499Y46626644D01*
X1575183Y46693683D01*
X1603157Y46724357D01*
X1658720Y46767767D01*
X1667460Y46776090D01*
X1726263Y46844215D01*
X5062539Y46844215D01*
X5091570Y46742973D01*
X5096016Y46731742D01*
X5180829Y46566712D01*
X5187367Y46556568D01*
X5302628Y46411145D01*
X5311001Y46402475D01*
X5452311Y46282211D01*
X5467200Y46271863D01*
X5465835Y46269898D01*
X5507368Y46227563D01*
X5521567Y46159151D01*
X5512534Y46121727D01*
X5459691Y45994154D01*
X5439397Y45840003D01*
X5459691Y45685852D01*
X5462800Y45678346D01*
X5462801Y45678343D01*
X5516082Y45549715D01*
X5519192Y45542206D01*
X5613843Y45418854D01*
X5737194Y45324203D01*
X5744699Y45321094D01*
X5744703Y45321092D01*
X5873332Y45267812D01*
X5873334Y45267811D01*
X5880841Y45264702D01*
X6034992Y45244408D01*
X6043051Y45245469D01*
X6181084Y45263641D01*
X6189143Y45264702D01*
X6196650Y45267811D01*
X6196652Y45267812D01*
X6325281Y45321092D01*
X6325285Y45321094D01*
X6332790Y45324203D01*
X6456141Y45418854D01*
X6550792Y45542206D01*
X6553902Y45549714D01*
X6553903Y45549715D01*
X6555432Y45553407D01*
X6557555Y45556042D01*
X6557966Y45556753D01*
X6558077Y45556689D01*
X6599274Y45607809D01*
X6665568Y45629873D01*
X6733267Y45612593D01*
X6780877Y45561455D01*
X6784552Y45553407D01*
X6786081Y45549715D01*
X6786082Y45549714D01*
X6789192Y45542206D01*
X6883843Y45418854D01*
X7007194Y45324203D01*
X7014699Y45321094D01*
X7014703Y45321092D01*
X7143332Y45267812D01*
X7143334Y45267811D01*
X7150841Y45264702D01*
X7304992Y45244408D01*
X7313051Y45245469D01*
X7451084Y45263641D01*
X7459143Y45264702D01*
X7466650Y45267811D01*
X7466652Y45267812D01*
X7595281Y45321092D01*
X7595285Y45321094D01*
X7602790Y45324203D01*
X7726141Y45418854D01*
X7820792Y45542206D01*
X7823902Y45549714D01*
X7823903Y45549715D01*
X7825432Y45553407D01*
X7827555Y45556042D01*
X7827966Y45556753D01*
X7828077Y45556689D01*
X7869274Y45607809D01*
X7935568Y45629873D01*
X8003267Y45612593D01*
X8050877Y45561455D01*
X8054552Y45553407D01*
X8056081Y45549715D01*
X8056082Y45549714D01*
X8059192Y45542206D01*
X8153843Y45418854D01*
X8277194Y45324203D01*
X8284699Y45321094D01*
X8284703Y45321092D01*
X8413332Y45267812D01*
X8413334Y45267811D01*
X8420841Y45264702D01*
X8574992Y45244408D01*
X8583051Y45245469D01*
X8721084Y45263641D01*
X8729143Y45264702D01*
X8736650Y45267811D01*
X8736652Y45267812D01*
X8865281Y45321092D01*
X8865285Y45321094D01*
X8872790Y45324203D01*
X8996141Y45418854D01*
X9090792Y45542206D01*
X9091598Y45541588D01*
X9136853Y45584737D01*
X9205460Y45597959D01*
X9270325Y45571991D01*
X9310075Y45517257D01*
X9328011Y45468402D01*
X9329375Y45464901D01*
X9329726Y45464050D01*
X9329940Y45463558D01*
X9329959Y45463514D01*
X9330963Y45461211D01*
X9331228Y45460603D01*
X9365269Y45386490D01*
X9365413Y45386183D01*
X9365428Y45386151D01*
X9365832Y45385290D01*
X9365888Y45385172D01*
X9365957Y45385025D01*
X9366125Y45384675D01*
X9366806Y45383285D01*
X9366875Y45383147D01*
X9366917Y45383062D01*
X9401250Y45314410D01*
X9402414Y45312018D01*
X9432639Y45248193D01*
X9436132Y45240082D01*
X9453242Y45196105D01*
X9460213Y45178186D01*
X9464240Y45166001D01*
X9479195Y45111407D01*
X9483078Y45097232D01*
X9486027Y45083421D01*
X9499183Y44998327D01*
X9500501Y44985200D01*
X9505583Y44876685D01*
X9506897Y44871111D01*
X9507694Y44867727D01*
X9511000Y44839285D01*
X9511000Y39009521D01*
X9507580Y38980601D01*
X9507056Y38978415D01*
X9505634Y38972484D01*
X9505396Y38966400D01*
X9505396Y38966397D01*
X9504477Y38942848D01*
X9503472Y38931221D01*
X9501422Y38915916D01*
X9500766Y38911022D01*
X9498136Y38897312D01*
X9496268Y38889871D01*
X9460856Y38829643D01*
X9458352Y38827573D01*
X9454033Y38825372D01*
X9374628Y38745967D01*
X9323648Y38645912D01*
X9322122Y38636277D01*
X9322121Y38636274D01*
X9311688Y38570401D01*
X9306081Y38535000D01*
X9323648Y38424088D01*
X9374628Y38324033D01*
X9454033Y38244628D01*
X9554088Y38193648D01*
X9563723Y38192122D01*
X9563726Y38192121D01*
X9655359Y38177608D01*
X9665000Y38176081D01*
X9674641Y38177608D01*
X9766274Y38192121D01*
X9766277Y38192122D01*
X9775912Y38193648D01*
X9875967Y38244628D01*
X9955372Y38324033D01*
X10006352Y38424088D01*
X10023919Y38535000D01*
X10018312Y38570401D01*
X10007879Y38636274D01*
X10007878Y38636277D01*
X10006352Y38645912D01*
X9955372Y38745967D01*
X9875967Y38825372D01*
X9876423Y38825828D01*
X9838449Y38875072D01*
X9833731Y38889871D01*
X9831865Y38897305D01*
X9829233Y38911022D01*
X9828578Y38915916D01*
X9826527Y38931221D01*
X9825522Y38942851D01*
X9824592Y38966700D01*
X9824591Y38966705D01*
X9824366Y38972480D01*
X9822142Y38982172D01*
X9819000Y39009908D01*
X9819000Y41285000D01*
X12106081Y41285000D01*
X12123648Y41174088D01*
X12174628Y41074033D01*
X12254033Y40994628D01*
X12354088Y40943648D01*
X12363723Y40942122D01*
X12363726Y40942121D01*
X12455359Y40927608D01*
X12465000Y40926081D01*
X12474641Y40927608D01*
X12566274Y40942121D01*
X12566277Y40942122D01*
X12575912Y40943648D01*
X12675967Y40994628D01*
X12755372Y41074033D01*
X12806352Y41174088D01*
X12823919Y41285000D01*
X12806352Y41395912D01*
X12755372Y41495967D01*
X12675967Y41575372D01*
X12575912Y41626352D01*
X12566277Y41627878D01*
X12566274Y41627879D01*
X12474641Y41642392D01*
X12465000Y41643919D01*
X12455359Y41642392D01*
X12363726Y41627879D01*
X12363723Y41627878D01*
X12354088Y41626352D01*
X12254033Y41575372D01*
X12174628Y41495967D01*
X12123648Y41395912D01*
X12106081Y41285000D01*
X9819000Y41285000D01*
X9819000Y44838315D01*
X9822223Y44863283D01*
X9821981Y44863322D01*
X9822943Y44869343D01*
X9824490Y44875234D01*
X9829052Y44950722D01*
X9831581Y44969234D01*
X9841752Y45016660D01*
X9848669Y45038670D01*
X9860829Y45067621D01*
X9872569Y45089261D01*
X9887607Y45111407D01*
X9901254Y45128154D01*
X9925135Y45152735D01*
X9936276Y45162888D01*
X9940119Y45165984D01*
X9974542Y45193719D01*
X9980612Y45198309D01*
X10034628Y45236608D01*
X10035377Y45237135D01*
X10099778Y45282085D01*
X10099845Y45282133D01*
X10099926Y45282189D01*
X10101107Y45283027D01*
X10101415Y45283249D01*
X10101614Y45283396D01*
X10101657Y45283427D01*
X10102750Y45284233D01*
X10102791Y45284263D01*
X10103014Y45284428D01*
X10171988Y45336357D01*
X10174464Y45338285D01*
X10175061Y45338766D01*
X10177625Y45340906D01*
X10226357Y45383062D01*
X10240558Y45395347D01*
X10240560Y45395349D01*
X10243331Y45397746D01*
X10245801Y45400455D01*
X10245817Y45400470D01*
X10246884Y45401640D01*
X10253961Y45408142D01*
X10253945Y45408158D01*
X10259695Y45413908D01*
X10266141Y45418854D01*
X10360792Y45542206D01*
X10363902Y45549714D01*
X10363903Y45549715D01*
X10365432Y45553407D01*
X10367555Y45556042D01*
X10367966Y45556753D01*
X10368077Y45556689D01*
X10409274Y45607809D01*
X10475568Y45629873D01*
X10543267Y45612593D01*
X10590877Y45561455D01*
X10594552Y45553407D01*
X10596081Y45549715D01*
X10596082Y45549714D01*
X10599192Y45542206D01*
X10693843Y45418854D01*
X10817194Y45324203D01*
X10824699Y45321094D01*
X10824703Y45321092D01*
X10953332Y45267812D01*
X10953334Y45267811D01*
X10960841Y45264702D01*
X11114992Y45244408D01*
X11123051Y45245469D01*
X11261084Y45263641D01*
X11269143Y45264702D01*
X11276650Y45267811D01*
X11276652Y45267812D01*
X11405281Y45321092D01*
X11405285Y45321094D01*
X11412790Y45324203D01*
X11536141Y45418854D01*
X11630792Y45542206D01*
X11633902Y45549715D01*
X11687183Y45678343D01*
X11687184Y45678346D01*
X11690293Y45685852D01*
X11710587Y45840003D01*
X11690293Y45994154D01*
X11663369Y46059155D01*
X11633902Y46130292D01*
X11630792Y46137800D01*
X11536141Y46261152D01*
X11529698Y46266096D01*
X11529693Y46266101D01*
X11502289Y46287129D01*
X11461086Y46343557D01*
X11458618Y46385000D01*
X12555458Y46385000D01*
X12575502Y46258445D01*
X12633674Y46144277D01*
X12724277Y46053674D01*
X12838445Y45995502D01*
X12965000Y45975458D01*
X13091555Y45995502D01*
X13205723Y46053674D01*
X13296326Y46144277D01*
X13354498Y46258445D01*
X13358704Y46285000D01*
X14980769Y46285000D01*
X14999575Y46166266D01*
X15054151Y46059155D01*
X15139155Y45974151D01*
X15246266Y45919575D01*
X15365000Y45900769D01*
X15483734Y45919575D01*
X15590845Y45974151D01*
X15675849Y46059155D01*
X15730425Y46166266D01*
X15749231Y46285000D01*
X15730425Y46403734D01*
X15675849Y46510845D01*
X15590845Y46595849D01*
X15483734Y46650425D01*
X15365000Y46669231D01*
X15246266Y46650425D01*
X15139155Y46595849D01*
X15054151Y46510845D01*
X14999575Y46403734D01*
X14980769Y46285000D01*
X13358704Y46285000D01*
X13374542Y46385000D01*
X13354498Y46511555D01*
X13296326Y46625723D01*
X13205723Y46716326D01*
X13091555Y46774498D01*
X12965000Y46794542D01*
X12838445Y46774498D01*
X12724277Y46716326D01*
X12633674Y46625723D01*
X12575502Y46511555D01*
X12555458Y46385000D01*
X11458618Y46385000D01*
X11456932Y46413303D01*
X11491145Y46474223D01*
X11552863Y46506975D01*
X11577776Y46509504D01*
X11624890Y46509504D01*
X11630862Y46510692D01*
X11630865Y46510692D01*
X11636148Y46511743D01*
X11654205Y46515334D01*
X11664357Y46522117D01*
X11664359Y46522118D01*
X11677297Y46530763D01*
X11687449Y46537546D01*
X11709661Y46570790D01*
X11715492Y46600104D01*
X11715492Y47110003D01*
X11715491Y47613810D01*
X11715491Y47619901D01*
X11709661Y47649216D01*
X11687449Y47682460D01*
X11654205Y47704672D01*
X11637698Y47707956D01*
X11630870Y47709314D01*
X11630867Y47709314D01*
X11624891Y47710503D01*
X11571267Y47710503D01*
X10714911Y47710502D01*
X10647872Y47730186D01*
X10618818Y47756130D01*
X10567530Y47819016D01*
X10559033Y47827572D01*
X10416057Y47945852D01*
X10406048Y47952602D01*
X10242838Y48040850D01*
X10231702Y48045531D01*
X10116023Y48081339D01*
X10102146Y48081541D01*
X10098992Y48074893D01*
X10098992Y46980003D01*
X10079307Y46912964D01*
X10026503Y46867209D01*
X9974992Y46856003D01*
X8444992Y46856003D01*
X8377953Y46875688D01*
X8332198Y46928492D01*
X8320992Y46980003D01*
X8320992Y47381833D01*
X8828992Y47381833D01*
X8833396Y47366834D01*
X8834766Y47365647D01*
X8842324Y47364003D01*
X9573162Y47364003D01*
X9588161Y47368407D01*
X9589348Y47369777D01*
X9590992Y47377335D01*
X9590992Y48068212D01*
X9587082Y48081529D01*
X9579408Y48082633D01*
X9471382Y48050839D01*
X9460186Y48046315D01*
X9295750Y47960350D01*
X9280576Y47950421D01*
X9279497Y47952070D01*
X9223291Y47928866D01*
X9154546Y47941352D01*
X9140845Y47949367D01*
X9136048Y47952602D01*
X8972838Y48040850D01*
X8961702Y48045531D01*
X8846023Y48081339D01*
X8832146Y48081541D01*
X8828992Y48074893D01*
X8828992Y47381833D01*
X8320992Y47381833D01*
X8320992Y48068212D01*
X8317082Y48081529D01*
X8309408Y48082633D01*
X8201382Y48050839D01*
X8190186Y48046315D01*
X8025750Y47960350D01*
X8015654Y47953744D01*
X7871045Y47837476D01*
X7862420Y47829029D01*
X7743151Y47686890D01*
X7736382Y47677004D01*
X7682264Y47632812D01*
X7612844Y47624893D01*
X7586617Y47632502D01*
X7586591Y47632513D01*
X7554711Y47645718D01*
X7466652Y47682194D01*
X7466650Y47682195D01*
X7459143Y47685304D01*
X7304992Y47705598D01*
X7150841Y47685304D01*
X7143335Y47682195D01*
X7143332Y47682194D01*
X7023394Y47632513D01*
X6953925Y47625044D01*
X6891446Y47656319D01*
X6879082Y47670883D01*
X6878639Y47670521D01*
X6757529Y47819016D01*
X6749033Y47827572D01*
X6606057Y47945852D01*
X6596048Y47952602D01*
X6432838Y48040850D01*
X6421702Y48045531D01*
X6306023Y48081339D01*
X6292146Y48081541D01*
X6288992Y48074893D01*
X6288992Y46980003D01*
X6269307Y46912964D01*
X6216503Y46867209D01*
X6164992Y46856003D01*
X5076989Y46856003D01*
X5063672Y46852093D01*
X5062539Y46844215D01*
X1726263Y46844215D01*
X1788705Y46916555D01*
X1795664Y46926420D01*
X1887313Y47087752D01*
X1892222Y47098777D01*
X1937232Y47234083D01*
X1937725Y47247952D01*
X1931634Y47251000D01*
X6997Y47251000D01*
X-6320Y47247090D01*
X-7453Y47239212D01*
X-30800000Y47239212D01*
X-30800000Y47367121D01*
X5063111Y47367121D01*
X5069567Y47364003D01*
X5763162Y47364003D01*
X5778161Y47368407D01*
X5779348Y47369777D01*
X5780992Y47377335D01*
X5780992Y48068212D01*
X5777082Y48081529D01*
X5769408Y48082633D01*
X5661382Y48050839D01*
X5650186Y48046315D01*
X5485750Y47960350D01*
X5475654Y47953744D01*
X5331045Y47837476D01*
X5322420Y47829029D01*
X5203150Y47686888D01*
X5196335Y47676935D01*
X5106940Y47514328D01*
X5102189Y47503243D01*
X5063410Y47380996D01*
X5063111Y47367121D01*
X-30800000Y47367121D01*
X-30800000Y47762118D01*
X-6881Y47762118D01*
X-425Y47759000D01*
X693170Y47759000D01*
X708169Y47763404D01*
X709356Y47764774D01*
X711000Y47772332D01*
X711000Y47776830D01*
X1219000Y47776830D01*
X1223404Y47761831D01*
X1224774Y47760644D01*
X1232332Y47759000D01*
X1923468Y47759000D01*
X1936785Y47762910D01*
X1937860Y47770386D01*
X1903206Y47885165D01*
X1898602Y47896335D01*
X1811494Y48060164D01*
X1804814Y48070217D01*
X1687537Y48214013D01*
X1679041Y48222569D01*
X1536065Y48340849D01*
X1526056Y48347599D01*
X1362846Y48435847D01*
X1351710Y48440528D01*
X1236031Y48476336D01*
X1222154Y48476538D01*
X1219000Y48469890D01*
X1219000Y47776830D01*
X711000Y47776830D01*
X711000Y48463209D01*
X707090Y48476526D01*
X699416Y48477630D01*
X591390Y48445836D01*
X580194Y48441312D01*
X415758Y48355347D01*
X405662Y48348741D01*
X261053Y48232473D01*
X252428Y48224026D01*
X133158Y48081885D01*
X126343Y48071932D01*
X36948Y47909325D01*
X32197Y47898240D01*
X-6582Y47775993D01*
X-6881Y47762118D01*
X-30800000Y47762118D01*
X-30800000Y50461035D01*
X-30780315Y50528074D01*
X-30727511Y50573829D01*
X-30676028Y50585035D01*
X22740972Y50596921D01*
X22808016Y50577251D01*
G37*
%TD.AperFunction*%
%TD*%
M02*
