%TF.GenerationSoftware,KiCad,Pcbnew,(6.0.9)*%
%TF.CreationDate,2023-02-16T18:06:58+01:00*%
%TF.ProjectId,pallas-ethernet-adapter,70616c6c-6173-42d6-9574-6865726e6574,rev?*%
%TF.SameCoordinates,Original*%
%TF.FileFunction,Paste,Top*%
%TF.FilePolarity,Positive*%
%FSLAX46Y46*%
G04 Gerber Fmt 4.6, Leading zero omitted, Abs format (unit mm)*
G04 Created by KiCad (PCBNEW (6.0.9)) date 2023-02-16 18:06:58*
%MOMM*%
%LPD*%
G01*
G04 APERTURE LIST*
G04 Aperture macros list*
%AMRoundRect*
0 Rectangle with rounded corners*
0 $1 Rounding radius*
0 $2 $3 $4 $5 $6 $7 $8 $9 X,Y pos of 4 corners*
0 Add a 4 corners polygon primitive as box body*
4,1,4,$2,$3,$4,$5,$6,$7,$8,$9,$2,$3,0*
0 Add four circle primitives for the rounded corners*
1,1,$1+$1,$2,$3*
1,1,$1+$1,$4,$5*
1,1,$1+$1,$6,$7*
1,1,$1+$1,$8,$9*
0 Add four rect primitives between the rounded corners*
20,1,$1+$1,$2,$3,$4,$5,0*
20,1,$1+$1,$4,$5,$6,$7,0*
20,1,$1+$1,$6,$7,$8,$9,0*
20,1,$1+$1,$8,$9,$2,$3,0*%
G04 Aperture macros list end*
%ADD10RoundRect,0.140000X-0.170000X0.140000X-0.170000X-0.140000X0.170000X-0.140000X0.170000X0.140000X0*%
%ADD11RoundRect,0.150000X0.150000X-0.725000X0.150000X0.725000X-0.150000X0.725000X-0.150000X-0.725000X0*%
%ADD12R,4.500000X1.750000*%
%ADD13RoundRect,0.140000X0.170000X-0.140000X0.170000X0.140000X-0.170000X0.140000X-0.170000X-0.140000X0*%
%ADD14RoundRect,0.135000X0.135000X0.185000X-0.135000X0.185000X-0.135000X-0.185000X0.135000X-0.185000X0*%
%ADD15RoundRect,0.200000X0.200000X0.275000X-0.200000X0.275000X-0.200000X-0.275000X0.200000X-0.275000X0*%
%ADD16R,1.800000X2.500000*%
%ADD17RoundRect,0.218750X0.256250X-0.218750X0.256250X0.218750X-0.256250X0.218750X-0.256250X-0.218750X0*%
%ADD18RoundRect,0.140000X-0.140000X-0.170000X0.140000X-0.170000X0.140000X0.170000X-0.140000X0.170000X0*%
%ADD19RoundRect,0.250000X-0.285000X-0.285000X0.285000X-0.285000X0.285000X0.285000X-0.285000X0.285000X0*%
%ADD20RoundRect,0.062500X-0.337500X-0.062500X0.337500X-0.062500X0.337500X0.062500X-0.337500X0.062500X0*%
%ADD21RoundRect,0.062500X-0.062500X-0.337500X0.062500X-0.337500X0.062500X0.337500X-0.062500X0.337500X0*%
%ADD22RoundRect,0.200000X0.275000X-0.200000X0.275000X0.200000X-0.275000X0.200000X-0.275000X-0.200000X0*%
%ADD23RoundRect,0.200000X-0.200000X-0.275000X0.200000X-0.275000X0.200000X0.275000X-0.200000X0.275000X0*%
%ADD24R,1.200000X1.350000*%
%ADD25R,2.030000X0.640000*%
%ADD26R,1.050000X1.000000*%
%ADD27R,2.200000X1.050000*%
%ADD28RoundRect,0.225000X-0.250000X0.225000X-0.250000X-0.225000X0.250000X-0.225000X0.250000X0.225000X0*%
%ADD29RoundRect,0.140000X0.140000X0.170000X-0.140000X0.170000X-0.140000X-0.170000X0.140000X-0.170000X0*%
G04 APERTURE END LIST*
D10*
%TO.C,C22*%
X5275000Y39075000D03*
X5275000Y38115000D03*
%TD*%
D11*
%TO.C,U2*%
X15060000Y42410000D03*
X16330000Y42410000D03*
X17600000Y42410000D03*
X18870000Y42410000D03*
X18870000Y47560000D03*
X17600000Y47560000D03*
X16330000Y47560000D03*
X15060000Y47560000D03*
%TD*%
D12*
%TO.C,L5*%
X17475000Y30400000D03*
X17475000Y33650000D03*
%TD*%
D13*
%TO.C,C17*%
X9375000Y34995000D03*
X9375000Y35955000D03*
%TD*%
D14*
%TO.C,R24*%
X-22584400Y27305300D03*
X-23604400Y27305300D03*
%TD*%
D15*
%TO.C,R12*%
X-9310000Y39485000D03*
X-10960000Y39485000D03*
%TD*%
D16*
%TO.C,D2*%
X3515000Y18935000D03*
X3515000Y14935000D03*
%TD*%
D10*
%TO.C,C30*%
X7425000Y25755000D03*
X7425000Y24795000D03*
%TD*%
D14*
%TO.C,R25*%
X-22589400Y24335300D03*
X-23609400Y24335300D03*
%TD*%
D17*
%TO.C,L2*%
X3365000Y23997500D03*
X3365000Y25572500D03*
%TD*%
D18*
%TO.C,C3*%
X17115000Y27890000D03*
X18075000Y27890000D03*
%TD*%
D17*
%TO.C,L6*%
X8165000Y22037500D03*
X8165000Y23612500D03*
%TD*%
D19*
%TO.C,U1*%
X11335000Y29715000D03*
X8695000Y31035000D03*
X10015000Y31035000D03*
X11335000Y31035000D03*
X8695000Y32355000D03*
X10015000Y28395000D03*
X8695000Y28395000D03*
X12655000Y29715000D03*
X10015000Y32355000D03*
X10015000Y29715000D03*
X12655000Y28395000D03*
X11335000Y28395000D03*
X12655000Y32355000D03*
X11335000Y32355000D03*
X12655000Y31035000D03*
X8695000Y29715000D03*
D20*
X7225000Y33125000D03*
X7225000Y32625000D03*
X7225000Y32125000D03*
X7225000Y31625000D03*
X7225000Y31125000D03*
X7225000Y30625000D03*
X7225000Y30125000D03*
X7225000Y29625000D03*
X7225000Y29125000D03*
X7225000Y28625000D03*
X7225000Y28125000D03*
X7225000Y27625000D03*
D21*
X7925000Y26925000D03*
X8425000Y26925000D03*
X8925000Y26925000D03*
X9425000Y26925000D03*
X9925000Y26925000D03*
X10425000Y26925000D03*
X10925000Y26925000D03*
X11425000Y26925000D03*
X11925000Y26925000D03*
X12425000Y26925000D03*
X12925000Y26925000D03*
X13425000Y26925000D03*
D20*
X14125000Y27625000D03*
X14125000Y28125000D03*
X14125000Y28625000D03*
X14125000Y29125000D03*
X14125000Y29625000D03*
X14125000Y30125000D03*
X14125000Y30625000D03*
X14125000Y31125000D03*
X14125000Y31625000D03*
X14125000Y32125000D03*
X14125000Y32625000D03*
X14125000Y33125000D03*
D21*
X13425000Y33825000D03*
X12925000Y33825000D03*
X12425000Y33825000D03*
X11925000Y33825000D03*
X11425000Y33825000D03*
X10925000Y33825000D03*
X10425000Y33825000D03*
X9925000Y33825000D03*
X9425000Y33825000D03*
X8925000Y33825000D03*
X8425000Y33825000D03*
X7925000Y33825000D03*
%TD*%
D22*
%TO.C,R19*%
X14065000Y35260000D03*
X14065000Y36910000D03*
%TD*%
D10*
%TO.C,C4*%
X12925000Y25755000D03*
X12925000Y24795000D03*
%TD*%
D14*
%TO.C,R22*%
X-22574400Y33245300D03*
X-23594400Y33245300D03*
%TD*%
D17*
%TO.C,L1*%
X14225000Y23937500D03*
X14225000Y25512500D03*
%TD*%
D23*
%TO.C,R15*%
X10340000Y43285000D03*
X11990000Y43285000D03*
%TD*%
%TO.C,R6*%
X4140000Y21485000D03*
X5790000Y21485000D03*
%TD*%
D24*
%TO.C,X1*%
X6725000Y39850000D03*
X6725000Y37600000D03*
X8425000Y37600000D03*
X8425000Y39850000D03*
%TD*%
D25*
%TO.C,TR1*%
X-10616000Y24346700D03*
X-10616000Y25337300D03*
X-10616000Y26327900D03*
X-10616000Y27318500D03*
X-10616000Y28309100D03*
X-10616000Y29299700D03*
X-10616000Y30290300D03*
X-10616000Y31280900D03*
X-10616000Y32271500D03*
X-10616000Y33262100D03*
X-10616000Y34252700D03*
X-10616000Y35243300D03*
X-20014000Y35243300D03*
X-20014000Y34252700D03*
X-20014000Y33262100D03*
X-20014000Y32271500D03*
X-20014000Y31280900D03*
X-20014000Y30290300D03*
X-20014000Y29299700D03*
X-20014000Y28309100D03*
X-20014000Y27318500D03*
X-20014000Y26327900D03*
X-20014000Y25337300D03*
X-20014000Y24346700D03*
%TD*%
D18*
%TO.C,C27*%
X-8245000Y30295000D03*
X-7285000Y30295000D03*
%TD*%
D26*
%TO.C,J4*%
X-14985000Y47235000D03*
D27*
X-16510000Y48710000D03*
X-16510000Y45760000D03*
%TD*%
D23*
%TO.C,R3*%
X5865000Y35910000D03*
X7515000Y35910000D03*
%TD*%
D18*
%TO.C,C28*%
X-8224400Y33235300D03*
X-7264400Y33235300D03*
%TD*%
D16*
%TO.C,D1*%
X7165000Y18935000D03*
X7165000Y14935000D03*
%TD*%
D15*
%TO.C,R11*%
X-9310000Y41385000D03*
X-10960000Y41385000D03*
%TD*%
%TO.C,R5*%
X19290000Y40385000D03*
X17640000Y40385000D03*
%TD*%
D14*
%TO.C,R23*%
X-22569400Y30275300D03*
X-23589400Y30275300D03*
%TD*%
D28*
%TO.C,C24*%
X13365000Y19460000D03*
X13365000Y17910000D03*
%TD*%
D18*
%TO.C,C26*%
X-8245000Y27315000D03*
X-7285000Y27315000D03*
%TD*%
D15*
%TO.C,R26*%
X17890000Y36085000D03*
X16240000Y36085000D03*
%TD*%
D29*
%TO.C,C14*%
X5645000Y29125000D03*
X4685000Y29125000D03*
%TD*%
D10*
%TO.C,C16*%
X8425000Y25755000D03*
X8425000Y24795000D03*
%TD*%
D17*
%TO.C,L4*%
X4865000Y24037500D03*
X4865000Y25612500D03*
%TD*%
D13*
%TO.C,C32*%
X11915000Y35505000D03*
X11915000Y36465000D03*
%TD*%
D29*
%TO.C,C7*%
X6055000Y27375000D03*
X5095000Y27375000D03*
%TD*%
D18*
%TO.C,C25*%
X-8245000Y24345000D03*
X-7285000Y24345000D03*
%TD*%
D29*
%TO.C,C5*%
X5545000Y33285000D03*
X4585000Y33285000D03*
%TD*%
%TO.C,C12*%
X5195000Y31625000D03*
X4235000Y31625000D03*
%TD*%
D26*
%TO.C,J3*%
X-23905000Y47285000D03*
D27*
X-25430000Y45810000D03*
X-25430000Y48760000D03*
%TD*%
D10*
%TO.C,C29*%
X-24615000Y23225000D03*
X-24615000Y22265000D03*
%TD*%
%TO.C,C23*%
X14665000Y19465000D03*
X14665000Y18505000D03*
%TD*%
D18*
%TO.C,C6*%
X17135000Y28900000D03*
X18095000Y28900000D03*
%TD*%
M02*
