%TF.GenerationSoftware,KiCad,Pcbnew,(6.0.9)*%
%TF.CreationDate,2023-01-12T20:26:10+01:00*%
%TF.ProjectId,pallas-ethernet-adapter,70616c6c-6173-42d6-9574-6865726e6574,rev?*%
%TF.SameCoordinates,Original*%
%TF.FileFunction,Legend,Top*%
%TF.FilePolarity,Positive*%
%FSLAX46Y46*%
G04 Gerber Fmt 4.6, Leading zero omitted, Abs format (unit mm)*
G04 Created by KiCad (PCBNEW (6.0.9)) date 2023-01-12 20:26:10*
%MOMM*%
%LPD*%
G01*
G04 APERTURE LIST*
G04 Aperture macros list*
%AMRoundRect*
0 Rectangle with rounded corners*
0 $1 Rounding radius*
0 $2 $3 $4 $5 $6 $7 $8 $9 X,Y pos of 4 corners*
0 Add a 4 corners polygon primitive as box body*
4,1,4,$2,$3,$4,$5,$6,$7,$8,$9,$2,$3,0*
0 Add four circle primitives for the rounded corners*
1,1,$1+$1,$2,$3*
1,1,$1+$1,$4,$5*
1,1,$1+$1,$6,$7*
1,1,$1+$1,$8,$9*
0 Add four rect primitives between the rounded corners*
20,1,$1+$1,$2,$3,$4,$5,0*
20,1,$1+$1,$4,$5,$6,$7,0*
20,1,$1+$1,$6,$7,$8,$9,0*
20,1,$1+$1,$8,$9,$2,$3,0*%
G04 Aperture macros list end*
%ADD10C,0.150000*%
%ADD11C,0.120000*%
%ADD12C,0.200000*%
%ADD13C,1.000000*%
%ADD14C,3.250000*%
%ADD15R,1.500000X1.500000*%
%ADD16C,1.500000*%
%ADD17C,2.300000*%
%ADD18RoundRect,0.140000X-0.170000X0.140000X-0.170000X-0.140000X0.170000X-0.140000X0.170000X0.140000X0*%
%ADD19C,2.000000*%
%ADD20RoundRect,0.150000X0.150000X-0.725000X0.150000X0.725000X-0.150000X0.725000X-0.150000X-0.725000X0*%
%ADD21R,4.500000X1.750000*%
%ADD22RoundRect,0.140000X0.170000X-0.140000X0.170000X0.140000X-0.170000X0.140000X-0.170000X-0.140000X0*%
%ADD23R,1.000000X1.000000*%
%ADD24O,1.000000X1.000000*%
%ADD25RoundRect,0.135000X0.135000X0.185000X-0.135000X0.185000X-0.135000X-0.185000X0.135000X-0.185000X0*%
%ADD26RoundRect,0.200000X0.200000X0.275000X-0.200000X0.275000X-0.200000X-0.275000X0.200000X-0.275000X0*%
%ADD27R,1.800000X2.500000*%
%ADD28RoundRect,0.218750X0.256250X-0.218750X0.256250X0.218750X-0.256250X0.218750X-0.256250X-0.218750X0*%
%ADD29RoundRect,0.140000X-0.140000X-0.170000X0.140000X-0.170000X0.140000X0.170000X-0.140000X0.170000X0*%
%ADD30RoundRect,0.062500X-0.337500X-0.062500X0.337500X-0.062500X0.337500X0.062500X-0.337500X0.062500X0*%
%ADD31RoundRect,0.062500X-0.062500X-0.337500X0.062500X-0.337500X0.062500X0.337500X-0.062500X0.337500X0*%
%ADD32R,5.300000X5.300000*%
%ADD33RoundRect,0.200000X0.275000X-0.200000X0.275000X0.200000X-0.275000X0.200000X-0.275000X-0.200000X0*%
%ADD34C,5.600000*%
%ADD35RoundRect,0.200000X-0.200000X-0.275000X0.200000X-0.275000X0.200000X0.275000X-0.200000X0.275000X0*%
%ADD36R,1.200000X1.350000*%
%ADD37R,2.030000X0.640000*%
%ADD38R,1.050000X1.000000*%
%ADD39R,2.200000X1.050000*%
%ADD40RoundRect,0.225000X-0.250000X0.225000X-0.250000X-0.225000X0.250000X-0.225000X0.250000X0.225000X0*%
%ADD41RoundRect,0.140000X0.140000X0.170000X-0.140000X0.170000X-0.140000X-0.170000X0.140000X-0.170000X0*%
G04 APERTURE END LIST*
D10*
X-43344524Y16685239D02*
X-43201667Y16637620D01*
X-42963572Y16637620D01*
X-42868334Y16685239D01*
X-42820715Y16732858D01*
X-42773096Y16828096D01*
X-42773096Y16923334D01*
X-42820715Y17018572D01*
X-42868334Y17066191D01*
X-42963572Y17113810D01*
X-43154048Y17161429D01*
X-43249286Y17209048D01*
X-43296905Y17256667D01*
X-43344524Y17351905D01*
X-43344524Y17447143D01*
X-43296905Y17542381D01*
X-43249286Y17590000D01*
X-43154048Y17637620D01*
X-42915953Y17637620D01*
X-42773096Y17590000D01*
X-41963572Y16685239D02*
X-42058810Y16637620D01*
X-42249286Y16637620D01*
X-42344524Y16685239D01*
X-42392143Y16780477D01*
X-42392143Y17161429D01*
X-42344524Y17256667D01*
X-42249286Y17304286D01*
X-42058810Y17304286D01*
X-41963572Y17256667D01*
X-41915953Y17161429D01*
X-41915953Y17066191D01*
X-42392143Y16970953D01*
X-41487381Y16637620D02*
X-41487381Y17637620D01*
X-41487381Y17256667D02*
X-41392143Y17304286D01*
X-41201667Y17304286D01*
X-41106429Y17256667D01*
X-41058810Y17209048D01*
X-41011191Y17113810D01*
X-41011191Y16828096D01*
X-41058810Y16732858D01*
X-41106429Y16685239D01*
X-41201667Y16637620D01*
X-41392143Y16637620D01*
X-41487381Y16685239D01*
X-40154048Y16637620D02*
X-40154048Y17161429D01*
X-40201667Y17256667D01*
X-40296905Y17304286D01*
X-40487381Y17304286D01*
X-40582620Y17256667D01*
X-40154048Y16685239D02*
X-40249286Y16637620D01*
X-40487381Y16637620D01*
X-40582620Y16685239D01*
X-40630239Y16780477D01*
X-40630239Y16875715D01*
X-40582620Y16970953D01*
X-40487381Y17018572D01*
X-40249286Y17018572D01*
X-40154048Y17066191D01*
X-39725477Y16685239D02*
X-39630239Y16637620D01*
X-39439762Y16637620D01*
X-39344524Y16685239D01*
X-39296905Y16780477D01*
X-39296905Y16828096D01*
X-39344524Y16923334D01*
X-39439762Y16970953D01*
X-39582620Y16970953D01*
X-39677858Y17018572D01*
X-39725477Y17113810D01*
X-39725477Y17161429D01*
X-39677858Y17256667D01*
X-39582620Y17304286D01*
X-39439762Y17304286D01*
X-39344524Y17256667D01*
X-39011191Y17304286D02*
X-38630239Y17304286D01*
X-38868334Y17637620D02*
X-38868334Y16780477D01*
X-38820715Y16685239D01*
X-38725477Y16637620D01*
X-38630239Y16637620D01*
X-38296905Y16637620D02*
X-38296905Y17304286D01*
X-38296905Y17637620D02*
X-38344524Y17590000D01*
X-38296905Y17542381D01*
X-38249286Y17590000D01*
X-38296905Y17637620D01*
X-38296905Y17542381D01*
X-37392143Y16637620D02*
X-37392143Y17161429D01*
X-37439762Y17256667D01*
X-37535000Y17304286D01*
X-37725477Y17304286D01*
X-37820715Y17256667D01*
X-37392143Y16685239D02*
X-37487381Y16637620D01*
X-37725477Y16637620D01*
X-37820715Y16685239D01*
X-37868334Y16780477D01*
X-37868334Y16875715D01*
X-37820715Y16970953D01*
X-37725477Y17018572D01*
X-37487381Y17018572D01*
X-37392143Y17066191D01*
X-36915953Y17304286D02*
X-36915953Y16637620D01*
X-36915953Y17209048D02*
X-36868334Y17256667D01*
X-36773096Y17304286D01*
X-36630239Y17304286D01*
X-36535000Y17256667D01*
X-36487381Y17161429D01*
X-36487381Y16637620D01*
X-35249286Y16637620D02*
X-35249286Y17637620D01*
X-34677858Y16637620D01*
X-34677858Y17637620D01*
X-33820715Y16685239D02*
X-33915953Y16637620D01*
X-34106429Y16637620D01*
X-34201667Y16685239D01*
X-34249286Y16780477D01*
X-34249286Y17161429D01*
X-34201667Y17256667D01*
X-34106429Y17304286D01*
X-33915953Y17304286D01*
X-33820715Y17256667D01*
X-33773096Y17161429D01*
X-33773096Y17066191D01*
X-34249286Y16970953D01*
X-32915953Y17304286D02*
X-32915953Y16637620D01*
X-33344524Y17304286D02*
X-33344524Y16780477D01*
X-33296905Y16685239D01*
X-33201667Y16637620D01*
X-33058810Y16637620D01*
X-32963572Y16685239D01*
X-32915953Y16732858D01*
X-32487381Y16685239D02*
X-32392143Y16637620D01*
X-32201667Y16637620D01*
X-32106429Y16685239D01*
X-32058810Y16780477D01*
X-32058810Y16828096D01*
X-32106429Y16923334D01*
X-32201667Y16970953D01*
X-32344524Y16970953D01*
X-32439762Y17018572D01*
X-32487381Y17113810D01*
X-32487381Y17161429D01*
X-32439762Y17256667D01*
X-32344524Y17304286D01*
X-32201667Y17304286D01*
X-32106429Y17256667D01*
X-31201667Y16685239D02*
X-31296905Y16637620D01*
X-31487381Y16637620D01*
X-31582620Y16685239D01*
X-31630239Y16732858D01*
X-31677858Y16828096D01*
X-31677858Y17113810D01*
X-31630239Y17209048D01*
X-31582620Y17256667D01*
X-31487381Y17304286D01*
X-31296905Y17304286D01*
X-31201667Y17256667D01*
X-30773096Y16637620D02*
X-30773096Y17637620D01*
X-30344524Y16637620D02*
X-30344524Y17161429D01*
X-30392143Y17256667D01*
X-30487381Y17304286D01*
X-30630239Y17304286D01*
X-30725477Y17256667D01*
X-30773096Y17209048D01*
X-29106429Y17018572D02*
X-28344524Y17018572D01*
X-27154048Y17542381D02*
X-27106429Y17590000D01*
X-27011191Y17637620D01*
X-26773096Y17637620D01*
X-26677858Y17590000D01*
X-26630239Y17542381D01*
X-26582620Y17447143D01*
X-26582620Y17351905D01*
X-26630239Y17209048D01*
X-27201667Y16637620D01*
X-26582620Y16637620D01*
X-25963572Y17637620D02*
X-25868334Y17637620D01*
X-25773096Y17590000D01*
X-25725477Y17542381D01*
X-25677858Y17447143D01*
X-25630239Y17256667D01*
X-25630239Y17018572D01*
X-25677858Y16828096D01*
X-25725477Y16732858D01*
X-25773096Y16685239D01*
X-25868334Y16637620D01*
X-25963572Y16637620D01*
X-26058810Y16685239D01*
X-26106429Y16732858D01*
X-26154048Y16828096D01*
X-26201667Y17018572D01*
X-26201667Y17256667D01*
X-26154048Y17447143D01*
X-26106429Y17542381D01*
X-26058810Y17590000D01*
X-25963572Y17637620D01*
X-25249286Y17542381D02*
X-25201667Y17590000D01*
X-25106429Y17637620D01*
X-24868334Y17637620D01*
X-24773096Y17590000D01*
X-24725477Y17542381D01*
X-24677858Y17447143D01*
X-24677858Y17351905D01*
X-24725477Y17209048D01*
X-25296905Y16637620D01*
X-24677858Y16637620D01*
X-24344524Y17637620D02*
X-23725477Y17637620D01*
X-24058810Y17256667D01*
X-23915953Y17256667D01*
X-23820715Y17209048D01*
X-23773096Y17161429D01*
X-23725477Y17066191D01*
X-23725477Y16828096D01*
X-23773096Y16732858D01*
X-23820715Y16685239D01*
X-23915953Y16637620D01*
X-24201667Y16637620D01*
X-24296905Y16685239D01*
X-24344524Y16732858D01*
X-43582620Y15027620D02*
X-43582620Y16027620D01*
X-43201667Y16027620D01*
X-43106429Y15980000D01*
X-43058810Y15932381D01*
X-43011191Y15837143D01*
X-43011191Y15694286D01*
X-43058810Y15599048D01*
X-43106429Y15551429D01*
X-43201667Y15503810D01*
X-43582620Y15503810D01*
X-42154048Y15027620D02*
X-42154048Y15551429D01*
X-42201667Y15646667D01*
X-42296905Y15694286D01*
X-42487381Y15694286D01*
X-42582620Y15646667D01*
X-42154048Y15075239D02*
X-42249286Y15027620D01*
X-42487381Y15027620D01*
X-42582620Y15075239D01*
X-42630239Y15170477D01*
X-42630239Y15265715D01*
X-42582620Y15360953D01*
X-42487381Y15408572D01*
X-42249286Y15408572D01*
X-42154048Y15456191D01*
X-41535000Y15027620D02*
X-41630239Y15075239D01*
X-41677858Y15170477D01*
X-41677858Y16027620D01*
X-41011191Y15027620D02*
X-41106429Y15075239D01*
X-41154048Y15170477D01*
X-41154048Y16027620D01*
X-40201667Y15027620D02*
X-40201667Y15551429D01*
X-40249286Y15646667D01*
X-40344524Y15694286D01*
X-40535000Y15694286D01*
X-40630239Y15646667D01*
X-40201667Y15075239D02*
X-40296905Y15027620D01*
X-40535000Y15027620D01*
X-40630239Y15075239D01*
X-40677858Y15170477D01*
X-40677858Y15265715D01*
X-40630239Y15360953D01*
X-40535000Y15408572D01*
X-40296905Y15408572D01*
X-40201667Y15456191D01*
X-39773096Y15075239D02*
X-39677858Y15027620D01*
X-39487381Y15027620D01*
X-39392143Y15075239D01*
X-39344524Y15170477D01*
X-39344524Y15218096D01*
X-39392143Y15313334D01*
X-39487381Y15360953D01*
X-39630239Y15360953D01*
X-39725477Y15408572D01*
X-39773096Y15503810D01*
X-39773096Y15551429D01*
X-39725477Y15646667D01*
X-39630239Y15694286D01*
X-39487381Y15694286D01*
X-39392143Y15646667D01*
X-38154048Y15551429D02*
X-37820715Y15551429D01*
X-37677858Y15027620D02*
X-38154048Y15027620D01*
X-38154048Y16027620D01*
X-37677858Y16027620D01*
X-37392143Y15694286D02*
X-37011191Y15694286D01*
X-37249286Y16027620D02*
X-37249286Y15170477D01*
X-37201667Y15075239D01*
X-37106429Y15027620D01*
X-37011191Y15027620D01*
X-36677858Y15027620D02*
X-36677858Y16027620D01*
X-36249286Y15027620D02*
X-36249286Y15551429D01*
X-36296905Y15646667D01*
X-36392143Y15694286D01*
X-36535000Y15694286D01*
X-36630239Y15646667D01*
X-36677858Y15599048D01*
X-35392143Y15075239D02*
X-35487381Y15027620D01*
X-35677858Y15027620D01*
X-35773096Y15075239D01*
X-35820715Y15170477D01*
X-35820715Y15551429D01*
X-35773096Y15646667D01*
X-35677858Y15694286D01*
X-35487381Y15694286D01*
X-35392143Y15646667D01*
X-35344524Y15551429D01*
X-35344524Y15456191D01*
X-35820715Y15360953D01*
X-34915953Y15027620D02*
X-34915953Y15694286D01*
X-34915953Y15503810D02*
X-34868334Y15599048D01*
X-34820715Y15646667D01*
X-34725477Y15694286D01*
X-34630239Y15694286D01*
X-34296905Y15694286D02*
X-34296905Y15027620D01*
X-34296905Y15599048D02*
X-34249286Y15646667D01*
X-34154048Y15694286D01*
X-34011191Y15694286D01*
X-33915953Y15646667D01*
X-33868334Y15551429D01*
X-33868334Y15027620D01*
X-33011191Y15075239D02*
X-33106429Y15027620D01*
X-33296905Y15027620D01*
X-33392143Y15075239D01*
X-33439762Y15170477D01*
X-33439762Y15551429D01*
X-33392143Y15646667D01*
X-33296905Y15694286D01*
X-33106429Y15694286D01*
X-33011191Y15646667D01*
X-32963572Y15551429D01*
X-32963572Y15456191D01*
X-33439762Y15360953D01*
X-32677858Y15694286D02*
X-32296905Y15694286D01*
X-32535000Y16027620D02*
X-32535000Y15170477D01*
X-32487381Y15075239D01*
X-32392143Y15027620D01*
X-32296905Y15027620D01*
X-31249286Y15313334D02*
X-30773096Y15313334D01*
X-31344524Y15027620D02*
X-31011191Y16027620D01*
X-30677858Y15027620D01*
X-29915953Y15027620D02*
X-29915953Y16027620D01*
X-29915953Y15075239D02*
X-30011191Y15027620D01*
X-30201667Y15027620D01*
X-30296905Y15075239D01*
X-30344524Y15122858D01*
X-30392143Y15218096D01*
X-30392143Y15503810D01*
X-30344524Y15599048D01*
X-30296905Y15646667D01*
X-30201667Y15694286D01*
X-30011191Y15694286D01*
X-29915953Y15646667D01*
X-29011191Y15027620D02*
X-29011191Y15551429D01*
X-29058810Y15646667D01*
X-29154048Y15694286D01*
X-29344524Y15694286D01*
X-29439762Y15646667D01*
X-29011191Y15075239D02*
X-29106429Y15027620D01*
X-29344524Y15027620D01*
X-29439762Y15075239D01*
X-29487381Y15170477D01*
X-29487381Y15265715D01*
X-29439762Y15360953D01*
X-29344524Y15408572D01*
X-29106429Y15408572D01*
X-29011191Y15456191D01*
X-28535000Y15694286D02*
X-28535000Y14694286D01*
X-28535000Y15646667D02*
X-28439762Y15694286D01*
X-28249286Y15694286D01*
X-28154048Y15646667D01*
X-28106429Y15599048D01*
X-28058810Y15503810D01*
X-28058810Y15218096D01*
X-28106429Y15122858D01*
X-28154048Y15075239D01*
X-28249286Y15027620D01*
X-28439762Y15027620D01*
X-28535000Y15075239D01*
X-27773096Y15694286D02*
X-27392143Y15694286D01*
X-27630239Y16027620D02*
X-27630239Y15170477D01*
X-27582620Y15075239D01*
X-27487381Y15027620D01*
X-27392143Y15027620D01*
X-26677858Y15075239D02*
X-26773096Y15027620D01*
X-26963572Y15027620D01*
X-27058810Y15075239D01*
X-27106429Y15170477D01*
X-27106429Y15551429D01*
X-27058810Y15646667D01*
X-26963572Y15694286D01*
X-26773096Y15694286D01*
X-26677858Y15646667D01*
X-26630239Y15551429D01*
X-26630239Y15456191D01*
X-27106429Y15360953D01*
X-26201667Y15027620D02*
X-26201667Y15694286D01*
X-26201667Y15503810D02*
X-26154048Y15599048D01*
X-26106429Y15646667D01*
X-26011191Y15694286D01*
X-25915953Y15694286D01*
X-24963572Y16027620D02*
X-24630239Y15027620D01*
X-24296905Y16027620D01*
X-23439762Y15027620D02*
X-24011191Y15027620D01*
X-23725477Y15027620D02*
X-23725477Y16027620D01*
X-23820715Y15884762D01*
X-23915953Y15789524D01*
X-24011191Y15741905D01*
%TO.C,TP14*%
X-6582620Y17732620D02*
X-5963572Y17732620D01*
X-6296905Y17351667D01*
X-6154048Y17351667D01*
X-6058810Y17304048D01*
X-6011191Y17256429D01*
X-5963572Y17161191D01*
X-5963572Y16923096D01*
X-6011191Y16827858D01*
X-6058810Y16780239D01*
X-6154048Y16732620D01*
X-6439762Y16732620D01*
X-6535000Y16780239D01*
X-6582620Y16827858D01*
X-5677858Y17732620D02*
X-5344524Y16732620D01*
X-5011191Y17732620D01*
X-4773096Y17732620D02*
X-4154048Y17732620D01*
X-4487381Y17351667D01*
X-4344524Y17351667D01*
X-4249286Y17304048D01*
X-4201667Y17256429D01*
X-4154048Y17161191D01*
X-4154048Y16923096D01*
X-4201667Y16827858D01*
X-4249286Y16780239D01*
X-4344524Y16732620D01*
X-4630239Y16732620D01*
X-4725477Y16780239D01*
X-4773096Y16827858D01*
X-3963572Y16637381D02*
X-3201667Y16637381D01*
X-3011191Y17018334D02*
X-2535000Y17018334D01*
X-3106429Y16732620D02*
X-2773096Y17732620D01*
X-2439762Y16732620D01*
X-2106429Y17732620D02*
X-2106429Y16923096D01*
X-2058810Y16827858D01*
X-2011191Y16780239D01*
X-1915953Y16732620D01*
X-1725477Y16732620D01*
X-1630239Y16780239D01*
X-1582620Y16827858D01*
X-1535000Y16923096D01*
X-1535000Y17732620D01*
X-1154048Y17732620D02*
X-487381Y16732620D01*
X-487381Y17732620D02*
X-1154048Y16732620D01*
%TO.C,J5*%
X-30968334Y21132620D02*
X-30968334Y20418334D01*
X-31015953Y20275477D01*
X-31111191Y20180239D01*
X-31254048Y20132620D01*
X-31349286Y20132620D01*
X-30015953Y21132620D02*
X-30492143Y21132620D01*
X-30539762Y20656429D01*
X-30492143Y20704048D01*
X-30396905Y20751667D01*
X-30158810Y20751667D01*
X-30063572Y20704048D01*
X-30015953Y20656429D01*
X-29968334Y20561191D01*
X-29968334Y20323096D01*
X-30015953Y20227858D01*
X-30063572Y20180239D01*
X-30158810Y20132620D01*
X-30396905Y20132620D01*
X-30492143Y20180239D01*
X-30539762Y20227858D01*
%TO.C,C22*%
X2822142Y39027858D02*
X2774523Y38980239D01*
X2631666Y38932620D01*
X2536428Y38932620D01*
X2393571Y38980239D01*
X2298333Y39075477D01*
X2250714Y39170715D01*
X2203095Y39361191D01*
X2203095Y39504048D01*
X2250714Y39694524D01*
X2298333Y39789762D01*
X2393571Y39885000D01*
X2536428Y39932620D01*
X2631666Y39932620D01*
X2774523Y39885000D01*
X2822142Y39837381D01*
X3203095Y39837381D02*
X3250714Y39885000D01*
X3345952Y39932620D01*
X3584047Y39932620D01*
X3679285Y39885000D01*
X3726904Y39837381D01*
X3774523Y39742143D01*
X3774523Y39646905D01*
X3726904Y39504048D01*
X3155476Y38932620D01*
X3774523Y38932620D01*
X4155476Y39837381D02*
X4203095Y39885000D01*
X4298333Y39932620D01*
X4536428Y39932620D01*
X4631666Y39885000D01*
X4679285Y39837381D01*
X4726904Y39742143D01*
X4726904Y39646905D01*
X4679285Y39504048D01*
X4107857Y38932620D01*
X4726904Y38932620D01*
%TO.C,U2*%
X13217380Y44323096D02*
X14026904Y44323096D01*
X14122142Y44370715D01*
X14169761Y44418334D01*
X14217380Y44513572D01*
X14217380Y44704048D01*
X14169761Y44799286D01*
X14122142Y44846905D01*
X14026904Y44894524D01*
X13217380Y44894524D01*
X13312619Y45323096D02*
X13265000Y45370715D01*
X13217380Y45465953D01*
X13217380Y45704048D01*
X13265000Y45799286D01*
X13312619Y45846905D01*
X13407857Y45894524D01*
X13503095Y45894524D01*
X13645952Y45846905D01*
X14217380Y45275477D01*
X14217380Y45894524D01*
%TO.C,L5*%
X21017380Y31818334D02*
X21017380Y31342143D01*
X20017380Y31342143D01*
X20017380Y32627858D02*
X20017380Y32151667D01*
X20493571Y32104048D01*
X20445952Y32151667D01*
X20398333Y32246905D01*
X20398333Y32485000D01*
X20445952Y32580239D01*
X20493571Y32627858D01*
X20588809Y32675477D01*
X20826904Y32675477D01*
X20922142Y32627858D01*
X20969761Y32580239D01*
X21017380Y32485000D01*
X21017380Y32246905D01*
X20969761Y32151667D01*
X20922142Y32104048D01*
%TO.C,C17*%
X10222142Y37142143D02*
X10269761Y37094524D01*
X10317380Y36951667D01*
X10317380Y36856429D01*
X10269761Y36713572D01*
X10174523Y36618334D01*
X10079285Y36570715D01*
X9888809Y36523096D01*
X9745952Y36523096D01*
X9555476Y36570715D01*
X9460238Y36618334D01*
X9365000Y36713572D01*
X9317380Y36856429D01*
X9317380Y36951667D01*
X9365000Y37094524D01*
X9412619Y37142143D01*
X10317380Y38094524D02*
X10317380Y37523096D01*
X10317380Y37808810D02*
X9317380Y37808810D01*
X9460238Y37713572D01*
X9555476Y37618334D01*
X9603095Y37523096D01*
X9317380Y38427858D02*
X9317380Y39094524D01*
X10317380Y38665953D01*
%TO.C,J6*%
X3417380Y45332620D02*
X2941190Y44999286D01*
X3417380Y44761191D02*
X2417380Y44761191D01*
X2417380Y45142143D01*
X2465000Y45237381D01*
X2512619Y45285000D01*
X2607857Y45332620D01*
X2750714Y45332620D01*
X2845952Y45285000D01*
X2893571Y45237381D01*
X2941190Y45142143D01*
X2941190Y44761191D01*
X2893571Y45761191D02*
X2893571Y46094524D01*
X3417380Y46237381D02*
X3417380Y45761191D01*
X2417380Y45761191D01*
X2417380Y46237381D01*
X3369761Y46618334D02*
X3417380Y46761191D01*
X3417380Y46999286D01*
X3369761Y47094524D01*
X3322142Y47142143D01*
X3226904Y47189762D01*
X3131666Y47189762D01*
X3036428Y47142143D01*
X2988809Y47094524D01*
X2941190Y46999286D01*
X2893571Y46808810D01*
X2845952Y46713572D01*
X2798333Y46665953D01*
X2703095Y46618334D01*
X2607857Y46618334D01*
X2512619Y46665953D01*
X2465000Y46713572D01*
X2417380Y46808810D01*
X2417380Y47046905D01*
X2465000Y47189762D01*
X2893571Y47618334D02*
X2893571Y47951667D01*
X3417380Y48094524D02*
X3417380Y47618334D01*
X2417380Y47618334D01*
X2417380Y48094524D01*
X2417380Y48380239D02*
X2417380Y48951667D01*
X3417380Y48665953D02*
X2417380Y48665953D01*
%TO.C,R24*%
X-20967258Y25632620D02*
X-21300591Y26108810D01*
X-21538686Y25632620D02*
X-21538686Y26632620D01*
X-21157734Y26632620D01*
X-21062496Y26585000D01*
X-21014877Y26537381D01*
X-20967258Y26442143D01*
X-20967258Y26299286D01*
X-21014877Y26204048D01*
X-21062496Y26156429D01*
X-21157734Y26108810D01*
X-21538686Y26108810D01*
X-20586305Y26537381D02*
X-20538686Y26585000D01*
X-20443448Y26632620D01*
X-20205353Y26632620D01*
X-20110115Y26585000D01*
X-20062496Y26537381D01*
X-20014877Y26442143D01*
X-20014877Y26346905D01*
X-20062496Y26204048D01*
X-20633924Y25632620D01*
X-20014877Y25632620D01*
X-19157734Y26299286D02*
X-19157734Y25632620D01*
X-19395829Y26680239D02*
X-19633924Y25965953D01*
X-19014877Y25965953D01*
%TO.C,TP3*%
X-4011191Y46285000D02*
X-4106429Y46332620D01*
X-4249286Y46332620D01*
X-4392143Y46285000D01*
X-4487381Y46189762D01*
X-4535000Y46094524D01*
X-4582620Y45904048D01*
X-4582620Y45761191D01*
X-4535000Y45570715D01*
X-4487381Y45475477D01*
X-4392143Y45380239D01*
X-4249286Y45332620D01*
X-4154048Y45332620D01*
X-4011191Y45380239D01*
X-3963572Y45427858D01*
X-3963572Y45761191D01*
X-4154048Y45761191D01*
X-3535000Y45332620D02*
X-3535000Y46332620D01*
X-3154048Y46332620D01*
X-3058810Y46285000D01*
X-3011191Y46237381D01*
X-2963572Y46142143D01*
X-2963572Y45999286D01*
X-3011191Y45904048D01*
X-3058810Y45856429D01*
X-3154048Y45808810D01*
X-3535000Y45808810D01*
X-2535000Y45332620D02*
X-2535000Y46332620D01*
X-1868334Y46332620D02*
X-1677858Y46332620D01*
X-1582620Y46285000D01*
X-1487381Y46189762D01*
X-1439762Y45999286D01*
X-1439762Y45665953D01*
X-1487381Y45475477D01*
X-1582620Y45380239D01*
X-1677858Y45332620D01*
X-1868334Y45332620D01*
X-1963572Y45380239D01*
X-2058810Y45475477D01*
X-2106429Y45665953D01*
X-2106429Y45999286D01*
X-2058810Y46189762D01*
X-1963572Y46285000D01*
X-1868334Y46332620D01*
X-1106429Y46332620D02*
X-487381Y46332620D01*
X-820715Y45951667D01*
X-677858Y45951667D01*
X-582620Y45904048D01*
X-535000Y45856429D01*
X-487381Y45761191D01*
X-487381Y45523096D01*
X-535000Y45427858D01*
X-582620Y45380239D01*
X-677858Y45332620D01*
X-963572Y45332620D01*
X-1058810Y45380239D01*
X-1106429Y45427858D01*
%TO.C,R12*%
X-7877858Y38132620D02*
X-8211191Y38608810D01*
X-8449286Y38132620D02*
X-8449286Y39132620D01*
X-8068334Y39132620D01*
X-7973096Y39085000D01*
X-7925477Y39037381D01*
X-7877858Y38942143D01*
X-7877858Y38799286D01*
X-7925477Y38704048D01*
X-7973096Y38656429D01*
X-8068334Y38608810D01*
X-8449286Y38608810D01*
X-6925477Y38132620D02*
X-7496905Y38132620D01*
X-7211191Y38132620D02*
X-7211191Y39132620D01*
X-7306429Y38989762D01*
X-7401667Y38894524D01*
X-7496905Y38846905D01*
X-6544524Y39037381D02*
X-6496905Y39085000D01*
X-6401667Y39132620D01*
X-6163572Y39132620D01*
X-6068334Y39085000D01*
X-6020715Y39037381D01*
X-5973096Y38942143D01*
X-5973096Y38846905D01*
X-6020715Y38704048D01*
X-6592143Y38132620D01*
X-5973096Y38132620D01*
%TO.C,D2*%
X126904Y19332620D02*
X126904Y20332620D01*
X365000Y20332620D01*
X507857Y20285000D01*
X603095Y20189762D01*
X650714Y20094524D01*
X698333Y19904048D01*
X698333Y19761191D01*
X650714Y19570715D01*
X603095Y19475477D01*
X507857Y19380239D01*
X365000Y19332620D01*
X126904Y19332620D01*
X1079285Y20237381D02*
X1126904Y20285000D01*
X1222142Y20332620D01*
X1460238Y20332620D01*
X1555476Y20285000D01*
X1603095Y20237381D01*
X1650714Y20142143D01*
X1650714Y20046905D01*
X1603095Y19904048D01*
X1031666Y19332620D01*
X1650714Y19332620D01*
%TO.C,C30*%
X10022142Y24242143D02*
X10069761Y24194524D01*
X10117380Y24051667D01*
X10117380Y23956429D01*
X10069761Y23813572D01*
X9974523Y23718334D01*
X9879285Y23670715D01*
X9688809Y23623096D01*
X9545952Y23623096D01*
X9355476Y23670715D01*
X9260238Y23718334D01*
X9165000Y23813572D01*
X9117380Y23956429D01*
X9117380Y24051667D01*
X9165000Y24194524D01*
X9212619Y24242143D01*
X9117380Y24575477D02*
X9117380Y25194524D01*
X9498333Y24861191D01*
X9498333Y25004048D01*
X9545952Y25099286D01*
X9593571Y25146905D01*
X9688809Y25194524D01*
X9926904Y25194524D01*
X10022142Y25146905D01*
X10069761Y25099286D01*
X10117380Y25004048D01*
X10117380Y24718334D01*
X10069761Y24623096D01*
X10022142Y24575477D01*
X9117380Y25813572D02*
X9117380Y25908810D01*
X9165000Y26004048D01*
X9212619Y26051667D01*
X9307857Y26099286D01*
X9498333Y26146905D01*
X9736428Y26146905D01*
X9926904Y26099286D01*
X10022142Y26051667D01*
X10069761Y26004048D01*
X10117380Y25908810D01*
X10117380Y25813572D01*
X10069761Y25718334D01*
X10022142Y25670715D01*
X9926904Y25623096D01*
X9736428Y25575477D01*
X9498333Y25575477D01*
X9307857Y25623096D01*
X9212619Y25670715D01*
X9165000Y25718334D01*
X9117380Y25813572D01*
%TO.C,R25*%
X-23377858Y23832620D02*
X-23711191Y24308810D01*
X-23949286Y23832620D02*
X-23949286Y24832620D01*
X-23568334Y24832620D01*
X-23473096Y24785000D01*
X-23425477Y24737381D01*
X-23377858Y24642143D01*
X-23377858Y24499286D01*
X-23425477Y24404048D01*
X-23473096Y24356429D01*
X-23568334Y24308810D01*
X-23949286Y24308810D01*
X-22996905Y24737381D02*
X-22949286Y24785000D01*
X-22854048Y24832620D01*
X-22615953Y24832620D01*
X-22520715Y24785000D01*
X-22473096Y24737381D01*
X-22425477Y24642143D01*
X-22425477Y24546905D01*
X-22473096Y24404048D01*
X-23044524Y23832620D01*
X-22425477Y23832620D01*
X-21520715Y24832620D02*
X-21996905Y24832620D01*
X-22044524Y24356429D01*
X-21996905Y24404048D01*
X-21901667Y24451667D01*
X-21663572Y24451667D01*
X-21568334Y24404048D01*
X-21520715Y24356429D01*
X-21473096Y24261191D01*
X-21473096Y24023096D01*
X-21520715Y23927858D01*
X-21568334Y23880239D01*
X-21663572Y23832620D01*
X-21901667Y23832620D01*
X-21996905Y23880239D01*
X-22044524Y23927858D01*
%TO.C,L2*%
X1107380Y24678334D02*
X1107380Y24202143D01*
X107380Y24202143D01*
X202619Y24964048D02*
X155000Y25011667D01*
X107380Y25106905D01*
X107380Y25345000D01*
X155000Y25440239D01*
X202619Y25487858D01*
X297857Y25535477D01*
X393095Y25535477D01*
X535952Y25487858D01*
X1107380Y24916429D01*
X1107380Y25535477D01*
%TO.C,TP1*%
X16874514Y23587385D02*
X16922133Y23635004D01*
X17017371Y23682624D01*
X17255467Y23682624D01*
X17350705Y23635004D01*
X17398324Y23587385D01*
X17445943Y23492147D01*
X17445943Y23396909D01*
X17398324Y23254052D01*
X16826895Y22682624D01*
X17445943Y22682624D01*
X17731657Y23682624D02*
X18064991Y22682624D01*
X18398324Y23682624D01*
X19207848Y23682624D02*
X18731657Y23682624D01*
X18684038Y23206433D01*
X18731657Y23254052D01*
X18826895Y23301671D01*
X19064991Y23301671D01*
X19160229Y23254052D01*
X19207848Y23206433D01*
X19255467Y23111195D01*
X19255467Y22873100D01*
X19207848Y22777862D01*
X19160229Y22730243D01*
X19064991Y22682624D01*
X18826895Y22682624D01*
X18731657Y22730243D01*
X18684038Y22777862D01*
%TO.C,C3*%
X19248333Y27227858D02*
X19200714Y27180239D01*
X19057857Y27132620D01*
X18962619Y27132620D01*
X18819761Y27180239D01*
X18724523Y27275477D01*
X18676904Y27370715D01*
X18629285Y27561191D01*
X18629285Y27704048D01*
X18676904Y27894524D01*
X18724523Y27989762D01*
X18819761Y28085000D01*
X18962619Y28132620D01*
X19057857Y28132620D01*
X19200714Y28085000D01*
X19248333Y28037381D01*
X19581666Y28132620D02*
X20200714Y28132620D01*
X19867380Y27751667D01*
X20010238Y27751667D01*
X20105476Y27704048D01*
X20153095Y27656429D01*
X20200714Y27561191D01*
X20200714Y27323096D01*
X20153095Y27227858D01*
X20105476Y27180239D01*
X20010238Y27132620D01*
X19724523Y27132620D01*
X19629285Y27180239D01*
X19581666Y27227858D01*
%TO.C,L6*%
X9498333Y21432620D02*
X9022142Y21432620D01*
X9022142Y22432620D01*
X10260238Y22432620D02*
X10069761Y22432620D01*
X9974523Y22385000D01*
X9926904Y22337381D01*
X9831666Y22194524D01*
X9784047Y22004048D01*
X9784047Y21623096D01*
X9831666Y21527858D01*
X9879285Y21480239D01*
X9974523Y21432620D01*
X10165000Y21432620D01*
X10260238Y21480239D01*
X10307857Y21527858D01*
X10355476Y21623096D01*
X10355476Y21861191D01*
X10307857Y21956429D01*
X10260238Y22004048D01*
X10165000Y22051667D01*
X9974523Y22051667D01*
X9879285Y22004048D01*
X9831666Y21956429D01*
X9784047Y21861191D01*
%TO.C,TP4*%
X-8711191Y46285000D02*
X-8806429Y46332620D01*
X-8949286Y46332620D01*
X-9092143Y46285000D01*
X-9187381Y46189762D01*
X-9235000Y46094524D01*
X-9282620Y45904048D01*
X-9282620Y45761191D01*
X-9235000Y45570715D01*
X-9187381Y45475477D01*
X-9092143Y45380239D01*
X-8949286Y45332620D01*
X-8854048Y45332620D01*
X-8711191Y45380239D01*
X-8663572Y45427858D01*
X-8663572Y45761191D01*
X-8854048Y45761191D01*
X-8235000Y45332620D02*
X-8235000Y46332620D01*
X-7854048Y46332620D01*
X-7758810Y46285000D01*
X-7711191Y46237381D01*
X-7663572Y46142143D01*
X-7663572Y45999286D01*
X-7711191Y45904048D01*
X-7758810Y45856429D01*
X-7854048Y45808810D01*
X-8235000Y45808810D01*
X-7235000Y45332620D02*
X-7235000Y46332620D01*
X-6568334Y46332620D02*
X-6377858Y46332620D01*
X-6282620Y46285000D01*
X-6187381Y46189762D01*
X-6139762Y45999286D01*
X-6139762Y45665953D01*
X-6187381Y45475477D01*
X-6282620Y45380239D01*
X-6377858Y45332620D01*
X-6568334Y45332620D01*
X-6663572Y45380239D01*
X-6758810Y45475477D01*
X-6806429Y45665953D01*
X-6806429Y45999286D01*
X-6758810Y46189762D01*
X-6663572Y46285000D01*
X-6568334Y46332620D01*
X-5758810Y46237381D02*
X-5711191Y46285000D01*
X-5615953Y46332620D01*
X-5377858Y46332620D01*
X-5282620Y46285000D01*
X-5235000Y46237381D01*
X-5187381Y46142143D01*
X-5187381Y46046905D01*
X-5235000Y45904048D01*
X-5806429Y45332620D01*
X-5187381Y45332620D01*
%TO.C,U1*%
X4803095Y30932620D02*
X4803095Y30123096D01*
X4850714Y30027858D01*
X4898333Y29980239D01*
X4993571Y29932620D01*
X5184047Y29932620D01*
X5279285Y29980239D01*
X5326904Y30027858D01*
X5374523Y30123096D01*
X5374523Y30932620D01*
X6374523Y29932620D02*
X5803095Y29932620D01*
X6088809Y29932620D02*
X6088809Y30932620D01*
X5993571Y30789762D01*
X5898333Y30694524D01*
X5803095Y30646905D01*
%TO.C,C4*%
X12398333Y23327858D02*
X12350714Y23280239D01*
X12207857Y23232620D01*
X12112619Y23232620D01*
X11969761Y23280239D01*
X11874523Y23375477D01*
X11826904Y23470715D01*
X11779285Y23661191D01*
X11779285Y23804048D01*
X11826904Y23994524D01*
X11874523Y24089762D01*
X11969761Y24185000D01*
X12112619Y24232620D01*
X12207857Y24232620D01*
X12350714Y24185000D01*
X12398333Y24137381D01*
X13255476Y23899286D02*
X13255476Y23232620D01*
X13017380Y24280239D02*
X12779285Y23565953D01*
X13398333Y23565953D01*
%TO.C,R22*%
X-20957258Y31622920D02*
X-21290591Y32099110D01*
X-21528686Y31622920D02*
X-21528686Y32622920D01*
X-21147734Y32622920D01*
X-21052496Y32575300D01*
X-21004877Y32527681D01*
X-20957258Y32432443D01*
X-20957258Y32289586D01*
X-21004877Y32194348D01*
X-21052496Y32146729D01*
X-21147734Y32099110D01*
X-21528686Y32099110D01*
X-20576305Y32527681D02*
X-20528686Y32575300D01*
X-20433448Y32622920D01*
X-20195353Y32622920D01*
X-20100115Y32575300D01*
X-20052496Y32527681D01*
X-20004877Y32432443D01*
X-20004877Y32337205D01*
X-20052496Y32194348D01*
X-20623924Y31622920D01*
X-20004877Y31622920D01*
X-19623924Y32527681D02*
X-19576305Y32575300D01*
X-19481067Y32622920D01*
X-19242972Y32622920D01*
X-19147734Y32575300D01*
X-19100115Y32527681D01*
X-19052496Y32432443D01*
X-19052496Y32337205D01*
X-19100115Y32194348D01*
X-19671543Y31622920D01*
X-19052496Y31622920D01*
%TO.C,L1*%
X14098333Y22132620D02*
X13622142Y22132620D01*
X13622142Y23132620D01*
X14955476Y22132620D02*
X14384047Y22132620D01*
X14669761Y22132620D02*
X14669761Y23132620D01*
X14574523Y22989762D01*
X14479285Y22894524D01*
X14384047Y22846905D01*
%TO.C,R15*%
X7647142Y42232620D02*
X7313809Y42708810D01*
X7075714Y42232620D02*
X7075714Y43232620D01*
X7456666Y43232620D01*
X7551904Y43185000D01*
X7599523Y43137381D01*
X7647142Y43042143D01*
X7647142Y42899286D01*
X7599523Y42804048D01*
X7551904Y42756429D01*
X7456666Y42708810D01*
X7075714Y42708810D01*
X8599523Y42232620D02*
X8028095Y42232620D01*
X8313809Y42232620D02*
X8313809Y43232620D01*
X8218571Y43089762D01*
X8123333Y42994524D01*
X8028095Y42946905D01*
X9504285Y43232620D02*
X9028095Y43232620D01*
X8980476Y42756429D01*
X9028095Y42804048D01*
X9123333Y42851667D01*
X9361428Y42851667D01*
X9456666Y42804048D01*
X9504285Y42756429D01*
X9551904Y42661191D01*
X9551904Y42423096D01*
X9504285Y42327858D01*
X9456666Y42280239D01*
X9361428Y42232620D01*
X9123333Y42232620D01*
X9028095Y42280239D01*
X8980476Y42327858D01*
%TO.C,R6*%
X4798333Y22232620D02*
X4465000Y22708810D01*
X4226904Y22232620D02*
X4226904Y23232620D01*
X4607857Y23232620D01*
X4703095Y23185000D01*
X4750714Y23137381D01*
X4798333Y23042143D01*
X4798333Y22899286D01*
X4750714Y22804048D01*
X4703095Y22756429D01*
X4607857Y22708810D01*
X4226904Y22708810D01*
X5655476Y23232620D02*
X5465000Y23232620D01*
X5369761Y23185000D01*
X5322142Y23137381D01*
X5226904Y22994524D01*
X5179285Y22804048D01*
X5179285Y22423096D01*
X5226904Y22327858D01*
X5274523Y22280239D01*
X5369761Y22232620D01*
X5560238Y22232620D01*
X5655476Y22280239D01*
X5703095Y22327858D01*
X5750714Y22423096D01*
X5750714Y22661191D01*
X5703095Y22756429D01*
X5655476Y22804048D01*
X5560238Y22851667D01*
X5369761Y22851667D01*
X5274523Y22804048D01*
X5226904Y22756429D01*
X5179285Y22661191D01*
%TO.C,X1*%
X5955476Y41832620D02*
X6622142Y40832620D01*
X6622142Y41832620D02*
X5955476Y40832620D01*
X7526904Y40832620D02*
X6955476Y40832620D01*
X7241190Y40832620D02*
X7241190Y41832620D01*
X7145952Y41689762D01*
X7050714Y41594524D01*
X6955476Y41546905D01*
%TO.C,TP15*%
X7926904Y41832620D02*
X8498333Y41832620D01*
X8212619Y40832620D02*
X8212619Y41832620D01*
X8831666Y40832620D02*
X8831666Y41832620D01*
X9212619Y41832620D01*
X9307857Y41785000D01*
X9355476Y41737381D01*
X9403095Y41642143D01*
X9403095Y41499286D01*
X9355476Y41404048D01*
X9307857Y41356429D01*
X9212619Y41308810D01*
X8831666Y41308810D01*
X10355476Y40832620D02*
X9784047Y40832620D01*
X10069761Y40832620D02*
X10069761Y41832620D01*
X9974523Y41689762D01*
X9879285Y41594524D01*
X9784047Y41546905D01*
X11260238Y41832620D02*
X10784047Y41832620D01*
X10736428Y41356429D01*
X10784047Y41404048D01*
X10879285Y41451667D01*
X11117380Y41451667D01*
X11212619Y41404048D01*
X11260238Y41356429D01*
X11307857Y41261191D01*
X11307857Y41023096D01*
X11260238Y40927858D01*
X11212619Y40880239D01*
X11117380Y40832620D01*
X10879285Y40832620D01*
X10784047Y40880239D01*
X10736428Y40927858D01*
%TO.C,TR1*%
X-13696905Y22032620D02*
X-13125477Y22032620D01*
X-13411191Y21032620D02*
X-13411191Y22032620D01*
X-12220715Y21032620D02*
X-12554048Y21508810D01*
X-12792143Y21032620D02*
X-12792143Y22032620D01*
X-12411191Y22032620D01*
X-12315953Y21985000D01*
X-12268334Y21937381D01*
X-12220715Y21842143D01*
X-12220715Y21699286D01*
X-12268334Y21604048D01*
X-12315953Y21556429D01*
X-12411191Y21508810D01*
X-12792143Y21508810D01*
X-11268334Y21032620D02*
X-11839762Y21032620D01*
X-11554048Y21032620D02*
X-11554048Y22032620D01*
X-11649286Y21889762D01*
X-11744524Y21794524D01*
X-11839762Y21746905D01*
%TO.C,C27*%
X-5937258Y31088158D02*
X-5984877Y31040539D01*
X-6127734Y30992920D01*
X-6222972Y30992920D01*
X-6365829Y31040539D01*
X-6461067Y31135777D01*
X-6508686Y31231015D01*
X-6556305Y31421491D01*
X-6556305Y31564348D01*
X-6508686Y31754824D01*
X-6461067Y31850062D01*
X-6365829Y31945300D01*
X-6222972Y31992920D01*
X-6127734Y31992920D01*
X-5984877Y31945300D01*
X-5937258Y31897681D01*
X-5556305Y31897681D02*
X-5508686Y31945300D01*
X-5413448Y31992920D01*
X-5175353Y31992920D01*
X-5080115Y31945300D01*
X-5032496Y31897681D01*
X-4984877Y31802443D01*
X-4984877Y31707205D01*
X-5032496Y31564348D01*
X-5603924Y30992920D01*
X-4984877Y30992920D01*
X-4651543Y31992920D02*
X-3984877Y31992920D01*
X-4413448Y30992920D01*
%TO.C,J4*%
X-23061191Y46832620D02*
X-23061191Y47832620D01*
X-22585000Y47356429D02*
X-22251667Y47356429D01*
X-22108810Y46832620D02*
X-22585000Y46832620D01*
X-22585000Y47832620D01*
X-22108810Y47832620D01*
X-21680239Y47213572D02*
X-20918334Y47213572D01*
X-19870715Y46927858D02*
X-19918334Y46880239D01*
X-20061191Y46832620D01*
X-20156429Y46832620D01*
X-20299286Y46880239D01*
X-20394524Y46975477D01*
X-20442143Y47070715D01*
X-20489762Y47261191D01*
X-20489762Y47404048D01*
X-20442143Y47594524D01*
X-20394524Y47689762D01*
X-20299286Y47785000D01*
X-20156429Y47832620D01*
X-20061191Y47832620D01*
X-19918334Y47785000D01*
X-19870715Y47737381D01*
X-18965953Y46832620D02*
X-19442143Y46832620D01*
X-19442143Y47832620D01*
X-18632620Y46832620D02*
X-18632620Y47832620D01*
X-18061191Y46832620D02*
X-18489762Y47404048D01*
X-18061191Y47832620D02*
X-18632620Y47261191D01*
%TO.C,TP10*%
X-6849286Y14532620D02*
X-6849286Y15532620D01*
X-6468334Y15532620D01*
X-6373096Y15485000D01*
X-6325477Y15437381D01*
X-6277858Y15342143D01*
X-6277858Y15199286D01*
X-6325477Y15104048D01*
X-6373096Y15056429D01*
X-6468334Y15008810D01*
X-6849286Y15008810D01*
X-5277858Y14627858D02*
X-5325477Y14580239D01*
X-5468334Y14532620D01*
X-5563572Y14532620D01*
X-5706429Y14580239D01*
X-5801667Y14675477D01*
X-5849286Y14770715D01*
X-5896905Y14961191D01*
X-5896905Y15104048D01*
X-5849286Y15294524D01*
X-5801667Y15389762D01*
X-5706429Y15485000D01*
X-5563572Y15532620D01*
X-5468334Y15532620D01*
X-5325477Y15485000D01*
X-5277858Y15437381D01*
X-4849286Y14532620D02*
X-4849286Y15532620D01*
X-4373096Y15056429D02*
X-4039762Y15056429D01*
X-3896905Y14532620D02*
X-4373096Y14532620D01*
X-4373096Y15532620D01*
X-3896905Y15532620D01*
X-3706429Y14437381D02*
X-2944524Y14437381D01*
X-2801667Y15532620D02*
X-2182620Y15532620D01*
X-2515953Y15151667D01*
X-2373096Y15151667D01*
X-2277858Y15104048D01*
X-2230239Y15056429D01*
X-2182620Y14961191D01*
X-2182620Y14723096D01*
X-2230239Y14627858D01*
X-2277858Y14580239D01*
X-2373096Y14532620D01*
X-2658810Y14532620D01*
X-2754048Y14580239D01*
X-2801667Y14627858D01*
X-1896905Y15532620D02*
X-1563572Y14532620D01*
X-1230239Y15532620D01*
X-992143Y15532620D02*
X-373096Y15532620D01*
X-706429Y15151667D01*
X-563572Y15151667D01*
X-468334Y15104048D01*
X-420715Y15056429D01*
X-373096Y14961191D01*
X-373096Y14723096D01*
X-420715Y14627858D01*
X-468334Y14580239D01*
X-563572Y14532620D01*
X-849286Y14532620D01*
X-944524Y14580239D01*
X-992143Y14627858D01*
%TO.C,R3*%
X4073333Y35407620D02*
X3740000Y35883810D01*
X3501904Y35407620D02*
X3501904Y36407620D01*
X3882857Y36407620D01*
X3978095Y36360000D01*
X4025714Y36312381D01*
X4073333Y36217143D01*
X4073333Y36074286D01*
X4025714Y35979048D01*
X3978095Y35931429D01*
X3882857Y35883810D01*
X3501904Y35883810D01*
X4406666Y36407620D02*
X5025714Y36407620D01*
X4692380Y36026667D01*
X4835238Y36026667D01*
X4930476Y35979048D01*
X4978095Y35931429D01*
X5025714Y35836191D01*
X5025714Y35598096D01*
X4978095Y35502858D01*
X4930476Y35455239D01*
X4835238Y35407620D01*
X4549523Y35407620D01*
X4454285Y35455239D01*
X4406666Y35502858D01*
%TO.C,TP2*%
X19445952Y36132620D02*
X18874523Y36132620D01*
X19160238Y36132620D02*
X19160238Y37132620D01*
X19065000Y36989762D01*
X18969761Y36894524D01*
X18874523Y36846905D01*
X19731666Y37132620D02*
X20065000Y36132620D01*
X20398333Y37132620D01*
X20684047Y37037381D02*
X20731666Y37085000D01*
X20826904Y37132620D01*
X21065000Y37132620D01*
X21160238Y37085000D01*
X21207857Y37037381D01*
X21255476Y36942143D01*
X21255476Y36846905D01*
X21207857Y36704048D01*
X20636428Y36132620D01*
X21255476Y36132620D01*
%TO.C,TP12*%
X13926905Y39582608D02*
X14498334Y39582608D01*
X14212620Y38582608D02*
X14212620Y39582608D01*
X14831667Y38582608D02*
X14831667Y39582608D01*
X15212620Y39582608D01*
X15307858Y39534988D01*
X15355477Y39487369D01*
X15403096Y39392131D01*
X15403096Y39249274D01*
X15355477Y39154036D01*
X15307858Y39106417D01*
X15212620Y39058798D01*
X14831667Y39058798D01*
X16355477Y38582608D02*
X15784048Y38582608D01*
X16069762Y38582608D02*
X16069762Y39582608D01*
X15974524Y39439750D01*
X15879286Y39344512D01*
X15784048Y39296893D01*
X16736429Y39487369D02*
X16784048Y39534988D01*
X16879286Y39582608D01*
X17117381Y39582608D01*
X17212620Y39534988D01*
X17260239Y39487369D01*
X17307858Y39392131D01*
X17307858Y39296893D01*
X17260239Y39154036D01*
X16688810Y38582608D01*
X17307858Y38582608D01*
%TO.C,C28*%
X-5887258Y34038158D02*
X-5934877Y33990539D01*
X-6077734Y33942920D01*
X-6172972Y33942920D01*
X-6315829Y33990539D01*
X-6411067Y34085777D01*
X-6458686Y34181015D01*
X-6506305Y34371491D01*
X-6506305Y34514348D01*
X-6458686Y34704824D01*
X-6411067Y34800062D01*
X-6315829Y34895300D01*
X-6172972Y34942920D01*
X-6077734Y34942920D01*
X-5934877Y34895300D01*
X-5887258Y34847681D01*
X-5506305Y34847681D02*
X-5458686Y34895300D01*
X-5363448Y34942920D01*
X-5125353Y34942920D01*
X-5030115Y34895300D01*
X-4982496Y34847681D01*
X-4934877Y34752443D01*
X-4934877Y34657205D01*
X-4982496Y34514348D01*
X-5553924Y33942920D01*
X-4934877Y33942920D01*
X-4363448Y34514348D02*
X-4458686Y34561967D01*
X-4506305Y34609586D01*
X-4553924Y34704824D01*
X-4553924Y34752443D01*
X-4506305Y34847681D01*
X-4458686Y34895300D01*
X-4363448Y34942920D01*
X-4172972Y34942920D01*
X-4077734Y34895300D01*
X-4030115Y34847681D01*
X-3982496Y34752443D01*
X-3982496Y34704824D01*
X-4030115Y34609586D01*
X-4077734Y34561967D01*
X-4172972Y34514348D01*
X-4363448Y34514348D01*
X-4458686Y34466729D01*
X-4506305Y34419110D01*
X-4553924Y34323872D01*
X-4553924Y34133396D01*
X-4506305Y34038158D01*
X-4458686Y33990539D01*
X-4363448Y33942920D01*
X-4172972Y33942920D01*
X-4077734Y33990539D01*
X-4030115Y34038158D01*
X-3982496Y34133396D01*
X-3982496Y34323872D01*
X-4030115Y34419110D01*
X-4077734Y34466729D01*
X-4172972Y34514348D01*
%TO.C,D1*%
X9126904Y13632620D02*
X9126904Y14632620D01*
X9365000Y14632620D01*
X9507857Y14585000D01*
X9603095Y14489762D01*
X9650714Y14394524D01*
X9698333Y14204048D01*
X9698333Y14061191D01*
X9650714Y13870715D01*
X9603095Y13775477D01*
X9507857Y13680239D01*
X9365000Y13632620D01*
X9126904Y13632620D01*
X10650714Y13632620D02*
X10079285Y13632620D01*
X10365000Y13632620D02*
X10365000Y14632620D01*
X10269761Y14489762D01*
X10174523Y14394524D01*
X10079285Y14346905D01*
%TO.C,R11*%
X-7877858Y39932620D02*
X-8211191Y40408810D01*
X-8449286Y39932620D02*
X-8449286Y40932620D01*
X-8068334Y40932620D01*
X-7973096Y40885000D01*
X-7925477Y40837381D01*
X-7877858Y40742143D01*
X-7877858Y40599286D01*
X-7925477Y40504048D01*
X-7973096Y40456429D01*
X-8068334Y40408810D01*
X-8449286Y40408810D01*
X-6925477Y39932620D02*
X-7496905Y39932620D01*
X-7211191Y39932620D02*
X-7211191Y40932620D01*
X-7306429Y40789762D01*
X-7401667Y40694524D01*
X-7496905Y40646905D01*
X-5973096Y39932620D02*
X-6544524Y39932620D01*
X-6258810Y39932620D02*
X-6258810Y40932620D01*
X-6354048Y40789762D01*
X-6449286Y40694524D01*
X-6544524Y40646905D01*
%TO.C,R5*%
X15898333Y39932620D02*
X15565000Y40408810D01*
X15326904Y39932620D02*
X15326904Y40932620D01*
X15707857Y40932620D01*
X15803095Y40885000D01*
X15850714Y40837381D01*
X15898333Y40742143D01*
X15898333Y40599286D01*
X15850714Y40504048D01*
X15803095Y40456429D01*
X15707857Y40408810D01*
X15326904Y40408810D01*
X16803095Y40932620D02*
X16326904Y40932620D01*
X16279285Y40456429D01*
X16326904Y40504048D01*
X16422142Y40551667D01*
X16660238Y40551667D01*
X16755476Y40504048D01*
X16803095Y40456429D01*
X16850714Y40361191D01*
X16850714Y40123096D01*
X16803095Y40027858D01*
X16755476Y39980239D01*
X16660238Y39932620D01*
X16422142Y39932620D01*
X16326904Y39980239D01*
X16279285Y40027858D01*
%TO.C,J7*%
X5706666Y49482620D02*
X5706666Y48768334D01*
X5659047Y48625477D01*
X5563809Y48530239D01*
X5420952Y48482620D01*
X5325714Y48482620D01*
X6087619Y49482620D02*
X6754285Y49482620D01*
X6325714Y48482620D01*
X5573333Y44457620D02*
X5573333Y43743334D01*
X5525714Y43600477D01*
X5430476Y43505239D01*
X5287619Y43457620D01*
X5192380Y43457620D01*
X5906666Y44457620D02*
X6478095Y44457620D01*
X6192380Y43457620D02*
X6192380Y44457620D01*
X6763809Y43743334D02*
X7240000Y43743334D01*
X6668571Y43457620D02*
X7001904Y44457620D01*
X7335238Y43457620D01*
X8192380Y44410000D02*
X8097142Y44457620D01*
X7954285Y44457620D01*
X7811428Y44410000D01*
X7716190Y44314762D01*
X7668571Y44219524D01*
X7620952Y44029048D01*
X7620952Y43886191D01*
X7668571Y43695715D01*
X7716190Y43600477D01*
X7811428Y43505239D01*
X7954285Y43457620D01*
X8049523Y43457620D01*
X8192380Y43505239D01*
X8240000Y43552858D01*
X8240000Y43886191D01*
X8049523Y43886191D01*
%TO.C,R23*%
X-20952258Y28652920D02*
X-21285591Y29129110D01*
X-21523686Y28652920D02*
X-21523686Y29652920D01*
X-21142734Y29652920D01*
X-21047496Y29605300D01*
X-20999877Y29557681D01*
X-20952258Y29462443D01*
X-20952258Y29319586D01*
X-20999877Y29224348D01*
X-21047496Y29176729D01*
X-21142734Y29129110D01*
X-21523686Y29129110D01*
X-20571305Y29557681D02*
X-20523686Y29605300D01*
X-20428448Y29652920D01*
X-20190353Y29652920D01*
X-20095115Y29605300D01*
X-20047496Y29557681D01*
X-19999877Y29462443D01*
X-19999877Y29367205D01*
X-20047496Y29224348D01*
X-20618924Y28652920D01*
X-19999877Y28652920D01*
X-19666543Y29652920D02*
X-19047496Y29652920D01*
X-19380829Y29271967D01*
X-19237972Y29271967D01*
X-19142734Y29224348D01*
X-19095115Y29176729D01*
X-19047496Y29081491D01*
X-19047496Y28843396D01*
X-19095115Y28748158D01*
X-19142734Y28700539D01*
X-19237972Y28652920D01*
X-19523686Y28652920D01*
X-19618924Y28700539D01*
X-19666543Y28748158D01*
%TO.C,C24*%
X12522142Y16127858D02*
X12474523Y16080239D01*
X12331666Y16032620D01*
X12236428Y16032620D01*
X12093571Y16080239D01*
X11998333Y16175477D01*
X11950714Y16270715D01*
X11903095Y16461191D01*
X11903095Y16604048D01*
X11950714Y16794524D01*
X11998333Y16889762D01*
X12093571Y16985000D01*
X12236428Y17032620D01*
X12331666Y17032620D01*
X12474523Y16985000D01*
X12522142Y16937381D01*
X12903095Y16937381D02*
X12950714Y16985000D01*
X13045952Y17032620D01*
X13284047Y17032620D01*
X13379285Y16985000D01*
X13426904Y16937381D01*
X13474523Y16842143D01*
X13474523Y16746905D01*
X13426904Y16604048D01*
X12855476Y16032620D01*
X13474523Y16032620D01*
X14331666Y16699286D02*
X14331666Y16032620D01*
X14093571Y17080239D02*
X13855476Y16365953D01*
X14474523Y16365953D01*
%TO.C,C26*%
X-5937858Y28117858D02*
X-5985477Y28070239D01*
X-6128334Y28022620D01*
X-6223572Y28022620D01*
X-6366429Y28070239D01*
X-6461667Y28165477D01*
X-6509286Y28260715D01*
X-6556905Y28451191D01*
X-6556905Y28594048D01*
X-6509286Y28784524D01*
X-6461667Y28879762D01*
X-6366429Y28975000D01*
X-6223572Y29022620D01*
X-6128334Y29022620D01*
X-5985477Y28975000D01*
X-5937858Y28927381D01*
X-5556905Y28927381D02*
X-5509286Y28975000D01*
X-5414048Y29022620D01*
X-5175953Y29022620D01*
X-5080715Y28975000D01*
X-5033096Y28927381D01*
X-4985477Y28832143D01*
X-4985477Y28736905D01*
X-5033096Y28594048D01*
X-5604524Y28022620D01*
X-4985477Y28022620D01*
X-4128334Y29022620D02*
X-4318810Y29022620D01*
X-4414048Y28975000D01*
X-4461667Y28927381D01*
X-4556905Y28784524D01*
X-4604524Y28594048D01*
X-4604524Y28213096D01*
X-4556905Y28117858D01*
X-4509286Y28070239D01*
X-4414048Y28022620D01*
X-4223572Y28022620D01*
X-4128334Y28070239D01*
X-4080715Y28117858D01*
X-4033096Y28213096D01*
X-4033096Y28451191D01*
X-4080715Y28546429D01*
X-4128334Y28594048D01*
X-4223572Y28641667D01*
X-4414048Y28641667D01*
X-4509286Y28594048D01*
X-4556905Y28546429D01*
X-4604524Y28451191D01*
%TO.C,R26*%
X16422142Y36932620D02*
X16088809Y37408810D01*
X15850714Y36932620D02*
X15850714Y37932620D01*
X16231666Y37932620D01*
X16326904Y37885000D01*
X16374523Y37837381D01*
X16422142Y37742143D01*
X16422142Y37599286D01*
X16374523Y37504048D01*
X16326904Y37456429D01*
X16231666Y37408810D01*
X15850714Y37408810D01*
X16803095Y37837381D02*
X16850714Y37885000D01*
X16945952Y37932620D01*
X17184047Y37932620D01*
X17279285Y37885000D01*
X17326904Y37837381D01*
X17374523Y37742143D01*
X17374523Y37646905D01*
X17326904Y37504048D01*
X16755476Y36932620D01*
X17374523Y36932620D01*
X18231666Y37932620D02*
X18041190Y37932620D01*
X17945952Y37885000D01*
X17898333Y37837381D01*
X17803095Y37694524D01*
X17755476Y37504048D01*
X17755476Y37123096D01*
X17803095Y37027858D01*
X17850714Y36980239D01*
X17945952Y36932620D01*
X18136428Y36932620D01*
X18231666Y36980239D01*
X18279285Y37027858D01*
X18326904Y37123096D01*
X18326904Y37361191D01*
X18279285Y37456429D01*
X18231666Y37504048D01*
X18136428Y37551667D01*
X17945952Y37551667D01*
X17850714Y37504048D01*
X17803095Y37456429D01*
X17755476Y37361191D01*
%TO.C,C14*%
X2262142Y28827858D02*
X2214523Y28780239D01*
X2071666Y28732620D01*
X1976428Y28732620D01*
X1833571Y28780239D01*
X1738333Y28875477D01*
X1690714Y28970715D01*
X1643095Y29161191D01*
X1643095Y29304048D01*
X1690714Y29494524D01*
X1738333Y29589762D01*
X1833571Y29685000D01*
X1976428Y29732620D01*
X2071666Y29732620D01*
X2214523Y29685000D01*
X2262142Y29637381D01*
X3214523Y28732620D02*
X2643095Y28732620D01*
X2928809Y28732620D02*
X2928809Y29732620D01*
X2833571Y29589762D01*
X2738333Y29494524D01*
X2643095Y29446905D01*
X4071666Y29399286D02*
X4071666Y28732620D01*
X3833571Y29780239D02*
X3595476Y29065953D01*
X4214523Y29065953D01*
%TO.C,TP5*%
X-2511191Y41785000D02*
X-2606429Y41832620D01*
X-2749286Y41832620D01*
X-2892143Y41785000D01*
X-2987381Y41689762D01*
X-3035000Y41594524D01*
X-3082620Y41404048D01*
X-3082620Y41261191D01*
X-3035000Y41070715D01*
X-2987381Y40975477D01*
X-2892143Y40880239D01*
X-2749286Y40832620D01*
X-2654048Y40832620D01*
X-2511191Y40880239D01*
X-2463572Y40927858D01*
X-2463572Y41261191D01*
X-2654048Y41261191D01*
X-2035000Y40832620D02*
X-2035000Y41832620D01*
X-1654048Y41832620D01*
X-1558810Y41785000D01*
X-1511191Y41737381D01*
X-1463572Y41642143D01*
X-1463572Y41499286D01*
X-1511191Y41404048D01*
X-1558810Y41356429D01*
X-1654048Y41308810D01*
X-2035000Y41308810D01*
X-1035000Y40832620D02*
X-1035000Y41832620D01*
X-368334Y41832620D02*
X-177858Y41832620D01*
X-82620Y41785000D01*
X12619Y41689762D01*
X60238Y41499286D01*
X60238Y41165953D01*
X12619Y40975477D01*
X-82620Y40880239D01*
X-177858Y40832620D01*
X-368334Y40832620D01*
X-463572Y40880239D01*
X-558810Y40975477D01*
X-606429Y41165953D01*
X-606429Y41499286D01*
X-558810Y41689762D01*
X-463572Y41785000D01*
X-368334Y41832620D01*
X1012619Y40832620D02*
X441190Y40832620D01*
X726904Y40832620D02*
X726904Y41832620D01*
X631666Y41689762D01*
X536428Y41594524D01*
X441190Y41546905D01*
%TO.C,TP13*%
X-2544524Y38515000D02*
X-1544524Y38515000D01*
X-2306429Y37232620D02*
X-2306429Y38232620D01*
X-1925477Y38232620D01*
X-1830239Y38185000D01*
X-1782620Y38137381D01*
X-1735000Y38042143D01*
X-1735000Y37899286D01*
X-1782620Y37804048D01*
X-1830239Y37756429D01*
X-1925477Y37708810D01*
X-2306429Y37708810D01*
X-1544524Y38515000D02*
X-639762Y38515000D01*
X-1306429Y37756429D02*
X-973096Y37756429D01*
X-830239Y37232620D02*
X-1306429Y37232620D01*
X-1306429Y38232620D01*
X-830239Y38232620D01*
X-639762Y38515000D02*
X360238Y38515000D01*
X169761Y37232620D02*
X-163572Y37708810D01*
X-401667Y37232620D02*
X-401667Y38232620D01*
X-20715Y38232620D01*
X74523Y38185000D01*
X122142Y38137381D01*
X169761Y38042143D01*
X169761Y37899286D01*
X122142Y37804048D01*
X74523Y37756429D01*
X-20715Y37708810D01*
X-401667Y37708810D01*
X360238Y38515000D02*
X1312619Y38515000D01*
X550714Y37280239D02*
X693571Y37232620D01*
X931666Y37232620D01*
X1026904Y37280239D01*
X1074523Y37327858D01*
X1122142Y37423096D01*
X1122142Y37518334D01*
X1074523Y37613572D01*
X1026904Y37661191D01*
X931666Y37708810D01*
X741190Y37756429D01*
X645952Y37804048D01*
X598333Y37851667D01*
X550714Y37946905D01*
X550714Y38042143D01*
X598333Y38137381D01*
X645952Y38185000D01*
X741190Y38232620D01*
X979285Y38232620D01*
X1122142Y38185000D01*
X1312619Y38515000D02*
X2074523Y38515000D01*
X1407857Y38232620D02*
X1979285Y38232620D01*
X1693571Y37232620D02*
X1693571Y38232620D01*
%TO.C,C16*%
X11222142Y24242143D02*
X11269761Y24194524D01*
X11317380Y24051667D01*
X11317380Y23956429D01*
X11269761Y23813572D01*
X11174523Y23718334D01*
X11079285Y23670715D01*
X10888809Y23623096D01*
X10745952Y23623096D01*
X10555476Y23670715D01*
X10460238Y23718334D01*
X10365000Y23813572D01*
X10317380Y23956429D01*
X10317380Y24051667D01*
X10365000Y24194524D01*
X10412619Y24242143D01*
X11317380Y25194524D02*
X11317380Y24623096D01*
X11317380Y24908810D02*
X10317380Y24908810D01*
X10460238Y24813572D01*
X10555476Y24718334D01*
X10603095Y24623096D01*
X10317380Y26051667D02*
X10317380Y25861191D01*
X10365000Y25765953D01*
X10412619Y25718334D01*
X10555476Y25623096D01*
X10745952Y25575477D01*
X11126904Y25575477D01*
X11222142Y25623096D01*
X11269761Y25670715D01*
X11317380Y25765953D01*
X11317380Y25956429D01*
X11269761Y26051667D01*
X11222142Y26099286D01*
X11126904Y26146905D01*
X10888809Y26146905D01*
X10793571Y26099286D01*
X10745952Y26051667D01*
X10698333Y25956429D01*
X10698333Y25765953D01*
X10745952Y25670715D01*
X10793571Y25623096D01*
X10888809Y25575477D01*
%TO.C,L4*%
X2307380Y24718334D02*
X2307380Y24242143D01*
X1307380Y24242143D01*
X1640714Y25480239D02*
X2307380Y25480239D01*
X1259761Y25242143D02*
X1974047Y25004048D01*
X1974047Y25623096D01*
%TO.C,C32*%
X11212142Y37187858D02*
X11164523Y37140239D01*
X11021666Y37092620D01*
X10926428Y37092620D01*
X10783571Y37140239D01*
X10688333Y37235477D01*
X10640714Y37330715D01*
X10593095Y37521191D01*
X10593095Y37664048D01*
X10640714Y37854524D01*
X10688333Y37949762D01*
X10783571Y38045000D01*
X10926428Y38092620D01*
X11021666Y38092620D01*
X11164523Y38045000D01*
X11212142Y37997381D01*
X11545476Y38092620D02*
X12164523Y38092620D01*
X11831190Y37711667D01*
X11974047Y37711667D01*
X12069285Y37664048D01*
X12116904Y37616429D01*
X12164523Y37521191D01*
X12164523Y37283096D01*
X12116904Y37187858D01*
X12069285Y37140239D01*
X11974047Y37092620D01*
X11688333Y37092620D01*
X11593095Y37140239D01*
X11545476Y37187858D01*
X12545476Y37997381D02*
X12593095Y38045000D01*
X12688333Y38092620D01*
X12926428Y38092620D01*
X13021666Y38045000D01*
X13069285Y37997381D01*
X13116904Y37902143D01*
X13116904Y37806905D01*
X13069285Y37664048D01*
X12497857Y37092620D01*
X13116904Y37092620D01*
%TO.C,C7*%
X3498333Y27027858D02*
X3450714Y26980239D01*
X3307857Y26932620D01*
X3212619Y26932620D01*
X3069761Y26980239D01*
X2974523Y27075477D01*
X2926904Y27170715D01*
X2879285Y27361191D01*
X2879285Y27504048D01*
X2926904Y27694524D01*
X2974523Y27789762D01*
X3069761Y27885000D01*
X3212619Y27932620D01*
X3307857Y27932620D01*
X3450714Y27885000D01*
X3498333Y27837381D01*
X3831666Y27932620D02*
X4498333Y27932620D01*
X4069761Y26932620D01*
%TO.C,C25*%
X-5917258Y25138158D02*
X-5964877Y25090539D01*
X-6107734Y25042920D01*
X-6202972Y25042920D01*
X-6345829Y25090539D01*
X-6441067Y25185777D01*
X-6488686Y25281015D01*
X-6536305Y25471491D01*
X-6536305Y25614348D01*
X-6488686Y25804824D01*
X-6441067Y25900062D01*
X-6345829Y25995300D01*
X-6202972Y26042920D01*
X-6107734Y26042920D01*
X-5964877Y25995300D01*
X-5917258Y25947681D01*
X-5536305Y25947681D02*
X-5488686Y25995300D01*
X-5393448Y26042920D01*
X-5155353Y26042920D01*
X-5060115Y25995300D01*
X-5012496Y25947681D01*
X-4964877Y25852443D01*
X-4964877Y25757205D01*
X-5012496Y25614348D01*
X-5583924Y25042920D01*
X-4964877Y25042920D01*
X-4060115Y26042920D02*
X-4536305Y26042920D01*
X-4583924Y25566729D01*
X-4536305Y25614348D01*
X-4441067Y25661967D01*
X-4202972Y25661967D01*
X-4107734Y25614348D01*
X-4060115Y25566729D01*
X-4012496Y25471491D01*
X-4012496Y25233396D01*
X-4060115Y25138158D01*
X-4107734Y25090539D01*
X-4202972Y25042920D01*
X-4441067Y25042920D01*
X-4536305Y25090539D01*
X-4583924Y25138158D01*
%TO.C,C5*%
X3038333Y32887858D02*
X2990714Y32840239D01*
X2847857Y32792620D01*
X2752619Y32792620D01*
X2609761Y32840239D01*
X2514523Y32935477D01*
X2466904Y33030715D01*
X2419285Y33221191D01*
X2419285Y33364048D01*
X2466904Y33554524D01*
X2514523Y33649762D01*
X2609761Y33745000D01*
X2752619Y33792620D01*
X2847857Y33792620D01*
X2990714Y33745000D01*
X3038333Y33697381D01*
X3943095Y33792620D02*
X3466904Y33792620D01*
X3419285Y33316429D01*
X3466904Y33364048D01*
X3562142Y33411667D01*
X3800238Y33411667D01*
X3895476Y33364048D01*
X3943095Y33316429D01*
X3990714Y33221191D01*
X3990714Y32983096D01*
X3943095Y32887858D01*
X3895476Y32840239D01*
X3800238Y32792620D01*
X3562142Y32792620D01*
X3466904Y32840239D01*
X3419285Y32887858D01*
%TO.C,C12*%
X1712142Y31227858D02*
X1664523Y31180239D01*
X1521666Y31132620D01*
X1426428Y31132620D01*
X1283571Y31180239D01*
X1188333Y31275477D01*
X1140714Y31370715D01*
X1093095Y31561191D01*
X1093095Y31704048D01*
X1140714Y31894524D01*
X1188333Y31989762D01*
X1283571Y32085000D01*
X1426428Y32132620D01*
X1521666Y32132620D01*
X1664523Y32085000D01*
X1712142Y32037381D01*
X2664523Y31132620D02*
X2093095Y31132620D01*
X2378809Y31132620D02*
X2378809Y32132620D01*
X2283571Y31989762D01*
X2188333Y31894524D01*
X2093095Y31846905D01*
X3045476Y32037381D02*
X3093095Y32085000D01*
X3188333Y32132620D01*
X3426428Y32132620D01*
X3521666Y32085000D01*
X3569285Y32037381D01*
X3616904Y31942143D01*
X3616904Y31846905D01*
X3569285Y31704048D01*
X2997857Y31132620D01*
X3616904Y31132620D01*
%TO.C,J3*%
X-29773096Y46832620D02*
X-29773096Y47832620D01*
X-29392143Y47832620D01*
X-29296905Y47785000D01*
X-29249286Y47737381D01*
X-29201667Y47642143D01*
X-29201667Y47499286D01*
X-29249286Y47404048D01*
X-29296905Y47356429D01*
X-29392143Y47308810D01*
X-29773096Y47308810D01*
X-28773096Y46832620D02*
X-28773096Y47832620D01*
X-28392143Y47832620D01*
X-28296905Y47785000D01*
X-28249286Y47737381D01*
X-28201667Y47642143D01*
X-28201667Y47499286D01*
X-28249286Y47404048D01*
X-28296905Y47356429D01*
X-28392143Y47308810D01*
X-28773096Y47308810D01*
X-27820715Y46880239D02*
X-27677858Y46832620D01*
X-27439762Y46832620D01*
X-27344524Y46880239D01*
X-27296905Y46927858D01*
X-27249286Y47023096D01*
X-27249286Y47118334D01*
X-27296905Y47213572D01*
X-27344524Y47261191D01*
X-27439762Y47308810D01*
X-27630239Y47356429D01*
X-27725477Y47404048D01*
X-27773096Y47451667D01*
X-27820715Y47546905D01*
X-27820715Y47642143D01*
X-27773096Y47737381D01*
X-27725477Y47785000D01*
X-27630239Y47832620D01*
X-27392143Y47832620D01*
X-27249286Y47785000D01*
%TO.C,C29*%
X-20573458Y22186558D02*
X-20621077Y22138939D01*
X-20763934Y22091320D01*
X-20859172Y22091320D01*
X-21002029Y22138939D01*
X-21097267Y22234177D01*
X-21144886Y22329415D01*
X-21192505Y22519891D01*
X-21192505Y22662748D01*
X-21144886Y22853224D01*
X-21097267Y22948462D01*
X-21002029Y23043700D01*
X-20859172Y23091320D01*
X-20763934Y23091320D01*
X-20621077Y23043700D01*
X-20573458Y22996081D01*
X-20192505Y22996081D02*
X-20144886Y23043700D01*
X-20049648Y23091320D01*
X-19811553Y23091320D01*
X-19716315Y23043700D01*
X-19668696Y22996081D01*
X-19621077Y22900843D01*
X-19621077Y22805605D01*
X-19668696Y22662748D01*
X-20240124Y22091320D01*
X-19621077Y22091320D01*
X-19144886Y22091320D02*
X-18954410Y22091320D01*
X-18859172Y22138939D01*
X-18811553Y22186558D01*
X-18716315Y22329415D01*
X-18668696Y22519891D01*
X-18668696Y22900843D01*
X-18716315Y22996081D01*
X-18763934Y23043700D01*
X-18859172Y23091320D01*
X-19049648Y23091320D01*
X-19144886Y23043700D01*
X-19192505Y22996081D01*
X-19240124Y22900843D01*
X-19240124Y22662748D01*
X-19192505Y22567510D01*
X-19144886Y22519891D01*
X-19049648Y22472272D01*
X-18859172Y22472272D01*
X-18763934Y22519891D01*
X-18716315Y22567510D01*
X-18668696Y22662748D01*
%TO.C,C23*%
X16222142Y18242143D02*
X16269761Y18194524D01*
X16317380Y18051667D01*
X16317380Y17956429D01*
X16269761Y17813572D01*
X16174523Y17718334D01*
X16079285Y17670715D01*
X15888809Y17623096D01*
X15745952Y17623096D01*
X15555476Y17670715D01*
X15460238Y17718334D01*
X15365000Y17813572D01*
X15317380Y17956429D01*
X15317380Y18051667D01*
X15365000Y18194524D01*
X15412619Y18242143D01*
X15412619Y18623096D02*
X15365000Y18670715D01*
X15317380Y18765953D01*
X15317380Y19004048D01*
X15365000Y19099286D01*
X15412619Y19146905D01*
X15507857Y19194524D01*
X15603095Y19194524D01*
X15745952Y19146905D01*
X16317380Y18575477D01*
X16317380Y19194524D01*
X15317380Y19527858D02*
X15317380Y20146905D01*
X15698333Y19813572D01*
X15698333Y19956429D01*
X15745952Y20051667D01*
X15793571Y20099286D01*
X15888809Y20146905D01*
X16126904Y20146905D01*
X16222142Y20099286D01*
X16269761Y20051667D01*
X16317380Y19956429D01*
X16317380Y19670715D01*
X16269761Y19575477D01*
X16222142Y19527858D01*
%TO.C,C6*%
X19248333Y28477858D02*
X19200714Y28430239D01*
X19057857Y28382620D01*
X18962619Y28382620D01*
X18819761Y28430239D01*
X18724523Y28525477D01*
X18676904Y28620715D01*
X18629285Y28811191D01*
X18629285Y28954048D01*
X18676904Y29144524D01*
X18724523Y29239762D01*
X18819761Y29335000D01*
X18962619Y29382620D01*
X19057857Y29382620D01*
X19200714Y29335000D01*
X19248333Y29287381D01*
X20105476Y29382620D02*
X19915000Y29382620D01*
X19819761Y29335000D01*
X19772142Y29287381D01*
X19676904Y29144524D01*
X19629285Y28954048D01*
X19629285Y28573096D01*
X19676904Y28477858D01*
X19724523Y28430239D01*
X19819761Y28382620D01*
X20010238Y28382620D01*
X20105476Y28430239D01*
X20153095Y28477858D01*
X20200714Y28573096D01*
X20200714Y28811191D01*
X20153095Y28906429D01*
X20105476Y28954048D01*
X20010238Y29001667D01*
X19819761Y29001667D01*
X19724523Y28954048D01*
X19676904Y28906429D01*
X19629285Y28811191D01*
%TO.C,TP6*%
X-2511191Y39785000D02*
X-2606429Y39832620D01*
X-2749286Y39832620D01*
X-2892143Y39785000D01*
X-2987381Y39689762D01*
X-3035000Y39594524D01*
X-3082620Y39404048D01*
X-3082620Y39261191D01*
X-3035000Y39070715D01*
X-2987381Y38975477D01*
X-2892143Y38880239D01*
X-2749286Y38832620D01*
X-2654048Y38832620D01*
X-2511191Y38880239D01*
X-2463572Y38927858D01*
X-2463572Y39261191D01*
X-2654048Y39261191D01*
X-2035000Y38832620D02*
X-2035000Y39832620D01*
X-1654048Y39832620D01*
X-1558810Y39785000D01*
X-1511191Y39737381D01*
X-1463572Y39642143D01*
X-1463572Y39499286D01*
X-1511191Y39404048D01*
X-1558810Y39356429D01*
X-1654048Y39308810D01*
X-2035000Y39308810D01*
X-1035000Y38832620D02*
X-1035000Y39832620D01*
X-368334Y39832620D02*
X-177858Y39832620D01*
X-82620Y39785000D01*
X12619Y39689762D01*
X60238Y39499286D01*
X60238Y39165953D01*
X12619Y38975477D01*
X-82620Y38880239D01*
X-177858Y38832620D01*
X-368334Y38832620D01*
X-463572Y38880239D01*
X-558810Y38975477D01*
X-606429Y39165953D01*
X-606429Y39499286D01*
X-558810Y39689762D01*
X-463572Y39785000D01*
X-368334Y39832620D01*
X679285Y39832620D02*
X774523Y39832620D01*
X869761Y39785000D01*
X917380Y39737381D01*
X965000Y39642143D01*
X1012619Y39451667D01*
X1012619Y39213572D01*
X965000Y39023096D01*
X917380Y38927858D01*
X869761Y38880239D01*
X774523Y38832620D01*
X679285Y38832620D01*
X584047Y38880239D01*
X536428Y38927858D01*
X488809Y39023096D01*
X441190Y39213572D01*
X441190Y39451667D01*
X488809Y39642143D01*
X536428Y39737381D01*
X584047Y39785000D01*
X679285Y39832620D01*
D11*
%TO.C,TP14*%
X1365000Y17184993D02*
G75*
G03*
X1365000Y17184993I-700000J0D01*
G01*
%TO.C,J5*%
X-38610000Y21225000D02*
X-38110000Y20725000D01*
X-30050000Y21420000D02*
X-35610000Y21420000D01*
X-30050000Y21420000D02*
X-30050000Y38150000D01*
X-38110000Y20725000D02*
X-39110000Y20725000D01*
X-30050000Y38150000D02*
X-35610000Y38150000D01*
X-39110000Y20725000D02*
X-38610000Y21225000D01*
%TO.C,C22*%
X5635000Y38702836D02*
X5635000Y38487164D01*
X4915000Y38702836D02*
X4915000Y38487164D01*
%TO.C,U2*%
X14405000Y44985000D02*
X14405000Y41535000D01*
X19525000Y44985000D02*
X19525000Y43035000D01*
X19525000Y44985000D02*
X19525000Y46935000D01*
X14405000Y44985000D02*
X14405000Y46935000D01*
%TO.C,L5*%
X19825000Y34450000D02*
X19825000Y29600000D01*
X15125000Y29550000D02*
X15125000Y34450000D01*
%TO.C,C17*%
X9735000Y35367164D02*
X9735000Y35582836D01*
X9015000Y35367164D02*
X9015000Y35582836D01*
%TO.C,J6*%
X2075000Y46995000D02*
X2075000Y48200000D01*
X-145000Y46995000D02*
X-145000Y48200000D01*
X401529Y46995000D02*
X-145000Y46995000D01*
X2075000Y48200000D02*
X1272530Y48200000D01*
X657470Y48200000D02*
X-145000Y48200000D01*
X2075000Y46235000D02*
X2075000Y45475000D01*
X2075000Y46995000D02*
X1528471Y46995000D01*
X2075000Y45475000D02*
X965000Y45475000D01*
%TO.C,R24*%
X-20170759Y27685300D02*
X-20478041Y27685300D01*
X-20170759Y26925300D02*
X-20478041Y26925300D01*
%TO.C,TP3*%
X-1835000Y47235000D02*
G75*
G03*
X-1835000Y47235000I-700000J0D01*
G01*
%TO.C,R12*%
X-9897742Y38962500D02*
X-10372258Y38962500D01*
X-9897742Y40007500D02*
X-10372258Y40007500D01*
%TO.C,D2*%
X1865000Y20335000D02*
X1865000Y14935000D01*
X5165000Y20335000D02*
X1865000Y20335000D01*
X5165000Y20335000D02*
X5165000Y14935000D01*
%TO.C,C30*%
X7065000Y25382836D02*
X7065000Y25167164D01*
X7785000Y25382836D02*
X7785000Y25167164D01*
%TO.C,R25*%
X-20175759Y23955300D02*
X-20483041Y23955300D01*
X-20175759Y24715300D02*
X-20483041Y24715300D01*
%TO.C,L2*%
X3875000Y24622221D02*
X3875000Y24947779D01*
X2855000Y24622221D02*
X2855000Y24947779D01*
%TO.C,TP1*%
X18764991Y24685004D02*
G75*
G03*
X18764991Y24685004I-700000J0D01*
G01*
%TO.C,C3*%
X17487164Y28250000D02*
X17702836Y28250000D01*
X17487164Y27530000D02*
X17702836Y27530000D01*
%TO.C,L6*%
X7655000Y22662221D02*
X7655000Y22987779D01*
X8675000Y22662221D02*
X8675000Y22987779D01*
%TO.C,TP4*%
X-6535000Y47185000D02*
G75*
G03*
X-6535000Y47185000I-700000J0D01*
G01*
%TO.C,U1*%
X13810000Y26765000D02*
X14285000Y26765000D01*
X14285000Y26765000D02*
X14285000Y27240000D01*
X14285000Y33985000D02*
X14285000Y33510000D01*
X13810000Y33985000D02*
X14285000Y33985000D01*
X7540000Y33985000D02*
X7065000Y33985000D01*
X7065000Y26765000D02*
X7065000Y27240000D01*
X7540000Y26765000D02*
X7065000Y26765000D01*
%TO.C,R19*%
X13542500Y35847742D02*
X13542500Y36322258D01*
X14587500Y35847742D02*
X14587500Y36322258D01*
%TO.C,C4*%
X13285000Y25382836D02*
X13285000Y25167164D01*
X12565000Y25382836D02*
X12565000Y25167164D01*
%TO.C,R22*%
X-20160759Y33625300D02*
X-20468041Y33625300D01*
X-20160759Y32865300D02*
X-20468041Y32865300D01*
%TO.C,L1*%
X14735000Y24562221D02*
X14735000Y24887779D01*
X13715000Y24562221D02*
X13715000Y24887779D01*
%TO.C,R15*%
X10927742Y43807500D02*
X11402258Y43807500D01*
X10927742Y42762500D02*
X11402258Y42762500D01*
%TO.C,R6*%
X4727742Y20962500D02*
X5202258Y20962500D01*
X4727742Y22007500D02*
X5202258Y22007500D01*
%TO.C,X1*%
X9075000Y40675000D02*
X5975000Y40675000D01*
X5975000Y40675000D02*
X5975000Y36825000D01*
%TO.C,TP15*%
X10965000Y39785000D02*
G75*
G03*
X10965000Y39785000I-700000J0D01*
G01*
%TO.C,TR1*%
X-8465000Y22405000D02*
X-8465000Y23275000D01*
X-8625000Y37015000D02*
X-16465000Y37015000D01*
X-8635000Y22575000D02*
X-8635000Y23765000D01*
X-8625000Y35825000D02*
X-8625000Y37015000D01*
X-9345000Y22405000D02*
X-8465000Y22405000D01*
X-8635000Y22575000D02*
X-16455000Y22575000D01*
X-16465000Y22575000D02*
X-16465000Y23775000D01*
X-16465000Y35825000D02*
X-16465000Y37015000D01*
%TO.C,C27*%
X-5402236Y30645300D02*
X-5186564Y30645300D01*
X-5402236Y29925300D02*
X-5186564Y29925300D01*
%TO.C,J4*%
X-15150000Y45835000D02*
X-15150000Y46475000D01*
X-15150000Y46475000D02*
X-14520000Y46475000D01*
X-15150000Y48635000D02*
X-15150000Y47995000D01*
X-17870000Y45885000D02*
X-17870000Y48585000D01*
%TO.C,TP10*%
X1365000Y14984998D02*
G75*
G03*
X1365000Y14984998I-700000J0D01*
G01*
%TO.C,R3*%
X6452742Y35387500D02*
X6927258Y35387500D01*
X6452742Y36432500D02*
X6927258Y36432500D01*
%TO.C,TP2*%
X20164988Y38285002D02*
G75*
G03*
X20164988Y38285002I-700000J0D01*
G01*
%TO.C,TP12*%
X13865001Y38934988D02*
G75*
G03*
X13865001Y38934988I-700000J0D01*
G01*
%TO.C,C28*%
X-5352236Y33595300D02*
X-5136564Y33595300D01*
X-5352236Y32875300D02*
X-5136564Y32875300D01*
%TO.C,D1*%
X8815000Y20335000D02*
X5515000Y20335000D01*
X5515000Y20335000D02*
X5515000Y14935000D01*
X8815000Y20335000D02*
X8815000Y14935000D01*
%TO.C,R11*%
X-9897742Y41907500D02*
X-10372258Y41907500D01*
X-9897742Y40862500D02*
X-10372258Y40862500D01*
%TO.C,R5*%
X18702258Y39862500D02*
X18227742Y39862500D01*
X18702258Y40907500D02*
X18227742Y40907500D01*
%TO.C,J7*%
X10408463Y46350003D02*
X10551521Y46350003D01*
X10354992Y48240003D02*
X5339992Y48240003D01*
X10354992Y46546532D02*
X10354992Y46403474D01*
X11809992Y46350003D02*
X11809992Y46147533D01*
X5339992Y46802473D02*
X5339992Y46147533D01*
X11874992Y48240003D02*
X11874992Y47110003D01*
X5339992Y48240003D02*
X5339992Y47417533D01*
X11678463Y46350003D02*
X11809992Y46350003D01*
X11809992Y44710003D02*
X5339992Y44710003D01*
X10354992Y48240003D02*
X10354992Y47673474D01*
X11809992Y45532473D02*
X11809992Y44710003D01*
X5339992Y45532473D02*
X5339992Y44710003D01*
X11114992Y48240003D02*
X11874992Y48240003D01*
%TO.C,R23*%
X-20155759Y30655300D02*
X-20463041Y30655300D01*
X-20155759Y29895300D02*
X-20463041Y29895300D01*
%TO.C,C24*%
X13875000Y18825580D02*
X13875000Y18544420D01*
X12855000Y18825580D02*
X12855000Y18544420D01*
%TO.C,C26*%
X-5402836Y27675000D02*
X-5187164Y27675000D01*
X-5402836Y26955000D02*
X-5187164Y26955000D01*
%TO.C,R26*%
X17302258Y35562500D02*
X16827742Y35562500D01*
X17302258Y36607500D02*
X16827742Y36607500D01*
%TO.C,C14*%
X5272836Y29485000D02*
X5057164Y29485000D01*
X5272836Y28765000D02*
X5057164Y28765000D01*
%TO.C,TP5*%
X-3335000Y41485000D02*
G75*
G03*
X-3335000Y41485000I-700000J0D01*
G01*
%TO.C,TP13*%
X3565000Y37685000D02*
G75*
G03*
X3565000Y37685000I-700000J0D01*
G01*
%TO.C,C16*%
X8785000Y25382836D02*
X8785000Y25167164D01*
X8065000Y25382836D02*
X8065000Y25167164D01*
%TO.C,L4*%
X4355000Y24662221D02*
X4355000Y24987779D01*
X5375000Y24662221D02*
X5375000Y24987779D01*
%TO.C,C32*%
X11555000Y35877164D02*
X11555000Y36092836D01*
X12275000Y35877164D02*
X12275000Y36092836D01*
%TO.C,C7*%
X5682836Y27015000D02*
X5467164Y27015000D01*
X5682836Y27735000D02*
X5467164Y27735000D01*
%TO.C,C25*%
X-5382236Y24695300D02*
X-5166564Y24695300D01*
X-5382236Y23975300D02*
X-5166564Y23975300D01*
%TO.C,C5*%
X5172836Y33645000D02*
X4957164Y33645000D01*
X5172836Y32925000D02*
X4957164Y32925000D01*
%TO.C,C12*%
X4822836Y31985000D02*
X4607164Y31985000D01*
X4822836Y31265000D02*
X4607164Y31265000D01*
%TO.C,J3*%
X-24070000Y46525000D02*
X-23440000Y46525000D01*
X-26790000Y45935000D02*
X-26790000Y48635000D01*
X-24070000Y45885000D02*
X-24070000Y46525000D01*
X-24070000Y48685000D02*
X-24070000Y48045000D01*
%TO.C,C29*%
X-21475000Y22692836D02*
X-21475000Y22477164D01*
X-22195000Y22692836D02*
X-22195000Y22477164D01*
%TO.C,C23*%
X14305000Y19092836D02*
X14305000Y18877164D01*
X15025000Y19092836D02*
X15025000Y18877164D01*
%TO.C,C6*%
X17507164Y28540000D02*
X17722836Y28540000D01*
X17507164Y29260000D02*
X17722836Y29260000D01*
%TO.C,TP6*%
X-3335000Y39385000D02*
G75*
G03*
X-3335000Y39385000I-700000J0D01*
G01*
%TD*%
%LPC*%
%TO.C,J2*%
G36*
X20250000Y50000D02*
G01*
X-250000Y50000D01*
X-250000Y5550000D01*
X20250000Y5550000D01*
X20250000Y50000D01*
G37*
D12*
X20250000Y50000D02*
X-250000Y50000D01*
X-250000Y5550000D01*
X20250000Y5550000D01*
X20250000Y50000D01*
G36*
X-3800000Y4550000D02*
G01*
X-11800000Y4550000D01*
X-11800000Y8050000D01*
X-3800000Y8050000D01*
X-3800000Y4550000D01*
G37*
%TD*%
D13*
%TO.C,TP14*%
X665000Y17184993D03*
%TD*%
%TO.C,FID8*%
X13465000Y40985000D03*
%TD*%
D14*
%TO.C,J5*%
X-40450000Y36135000D03*
X-40450000Y23435000D03*
D15*
X-37910000Y26225000D03*
D16*
X-36130000Y27241000D03*
X-37910000Y28257000D03*
X-36130000Y29273000D03*
X-37910000Y30289000D03*
X-36130000Y31305000D03*
X-37910000Y32321000D03*
X-36130000Y33337000D03*
X-31310000Y22925000D03*
X-31310000Y25215000D03*
X-31310000Y34355000D03*
X-31310000Y36645000D03*
D17*
X-37020000Y37915000D03*
X-37020000Y21655000D03*
%TD*%
D18*
%TO.C,C22*%
X5275000Y39075000D03*
X5275000Y38115000D03*
%TD*%
D19*
%TO.C,FID1*%
X20965000Y48785000D03*
%TD*%
D20*
%TO.C,U2*%
X15060000Y42410000D03*
X16330000Y42410000D03*
X17600000Y42410000D03*
X18870000Y42410000D03*
X18870000Y47560000D03*
X17600000Y47560000D03*
X16330000Y47560000D03*
X15060000Y47560000D03*
%TD*%
D21*
%TO.C,L5*%
X17475000Y30400000D03*
X17475000Y33650000D03*
%TD*%
D22*
%TO.C,C17*%
X9375000Y34995000D03*
X9375000Y35955000D03*
%TD*%
D13*
%TO.C,FID7*%
X5865000Y34485000D03*
%TD*%
D23*
%TO.C,J6*%
X965000Y46235000D03*
D24*
X965000Y47505000D03*
%TD*%
D25*
%TO.C,R24*%
X-19814400Y27305300D03*
X-20834400Y27305300D03*
%TD*%
D13*
%TO.C,TP3*%
X-2535000Y47235000D03*
%TD*%
D26*
%TO.C,R12*%
X-9310000Y39485000D03*
X-10960000Y39485000D03*
%TD*%
D27*
%TO.C,D2*%
X3515000Y18935000D03*
X3515000Y14935000D03*
%TD*%
D18*
%TO.C,C30*%
X7425000Y25755000D03*
X7425000Y24795000D03*
%TD*%
D19*
%TO.C,FID6*%
X-42185000Y48785000D03*
%TD*%
D25*
%TO.C,R25*%
X-19819400Y24335300D03*
X-20839400Y24335300D03*
%TD*%
D28*
%TO.C,L2*%
X3365000Y23997500D03*
X3365000Y25572500D03*
%TD*%
D13*
%TO.C,TP1*%
X18064991Y24685004D03*
%TD*%
D29*
%TO.C,C3*%
X17115000Y27890000D03*
X18075000Y27890000D03*
%TD*%
D28*
%TO.C,L6*%
X8165000Y22037500D03*
X8165000Y23612500D03*
%TD*%
D13*
%TO.C,TP4*%
X-7235000Y47185000D03*
%TD*%
D30*
%TO.C,U1*%
X7225000Y33125000D03*
X7225000Y32625000D03*
X7225000Y32125000D03*
X7225000Y31625000D03*
X7225000Y31125000D03*
X7225000Y30625000D03*
X7225000Y30125000D03*
X7225000Y29625000D03*
X7225000Y29125000D03*
X7225000Y28625000D03*
X7225000Y28125000D03*
X7225000Y27625000D03*
D31*
X7925000Y26925000D03*
X8425000Y26925000D03*
X8925000Y26925000D03*
X9425000Y26925000D03*
X9925000Y26925000D03*
X10425000Y26925000D03*
X10925000Y26925000D03*
X11425000Y26925000D03*
X11925000Y26925000D03*
X12425000Y26925000D03*
X12925000Y26925000D03*
X13425000Y26925000D03*
D30*
X14125000Y27625000D03*
X14125000Y28125000D03*
X14125000Y28625000D03*
X14125000Y29125000D03*
X14125000Y29625000D03*
X14125000Y30125000D03*
X14125000Y30625000D03*
X14125000Y31125000D03*
X14125000Y31625000D03*
X14125000Y32125000D03*
X14125000Y32625000D03*
X14125000Y33125000D03*
D31*
X13425000Y33825000D03*
X12925000Y33825000D03*
X12425000Y33825000D03*
X11925000Y33825000D03*
X11425000Y33825000D03*
X10925000Y33825000D03*
X10425000Y33825000D03*
X9925000Y33825000D03*
X9425000Y33825000D03*
X8925000Y33825000D03*
X8425000Y33825000D03*
X7925000Y33825000D03*
D32*
X10675000Y30375000D03*
%TD*%
D33*
%TO.C,R19*%
X14065000Y35260000D03*
X14065000Y36910000D03*
%TD*%
D18*
%TO.C,C4*%
X12925000Y25755000D03*
X12925000Y24795000D03*
%TD*%
D25*
%TO.C,R22*%
X-19804400Y33245300D03*
X-20824400Y33245300D03*
%TD*%
D34*
%TO.C,H2*%
X-37685000Y45585000D03*
%TD*%
D28*
%TO.C,L1*%
X14225000Y23937500D03*
X14225000Y25512500D03*
%TD*%
D35*
%TO.C,R15*%
X10340000Y43285000D03*
X11990000Y43285000D03*
%TD*%
%TO.C,R6*%
X4140000Y21485000D03*
X5790000Y21485000D03*
%TD*%
D36*
%TO.C,X1*%
X6725000Y39850000D03*
X6725000Y37600000D03*
X8425000Y37600000D03*
X8425000Y39850000D03*
%TD*%
D13*
%TO.C,TP15*%
X10265000Y39785000D03*
%TD*%
D37*
%TO.C,TR1*%
X-7846000Y24346700D03*
X-7846000Y25337300D03*
X-7846000Y26327900D03*
X-7846000Y27318500D03*
X-7846000Y28309100D03*
X-7846000Y29299700D03*
X-7846000Y30290300D03*
X-7846000Y31280900D03*
X-7846000Y32271500D03*
X-7846000Y33262100D03*
X-7846000Y34252700D03*
X-7846000Y35243300D03*
X-17244000Y35243300D03*
X-17244000Y34252700D03*
X-17244000Y33262100D03*
X-17244000Y32271500D03*
X-17244000Y31280900D03*
X-17244000Y30290300D03*
X-17244000Y29299700D03*
X-17244000Y28309100D03*
X-17244000Y27318500D03*
X-17244000Y26327900D03*
X-17244000Y25337300D03*
X-17244000Y24346700D03*
%TD*%
D29*
%TO.C,C27*%
X-5774400Y30285300D03*
X-4814400Y30285300D03*
%TD*%
D38*
%TO.C,J4*%
X-14985000Y47235000D03*
D39*
X-16510000Y48710000D03*
X-16510000Y45760000D03*
%TD*%
D13*
%TO.C,TP10*%
X665000Y14984998D03*
%TD*%
D35*
%TO.C,R3*%
X5865000Y35910000D03*
X7515000Y35910000D03*
%TD*%
D13*
%TO.C,TP2*%
X19464988Y38285002D03*
%TD*%
%TO.C,TP12*%
X13165001Y38934988D03*
%TD*%
D29*
%TO.C,C28*%
X-5724400Y33235300D03*
X-4764400Y33235300D03*
%TD*%
D27*
%TO.C,D1*%
X7165000Y18935000D03*
X7165000Y14935000D03*
%TD*%
D26*
%TO.C,R11*%
X-9310000Y41385000D03*
X-10960000Y41385000D03*
%TD*%
%TO.C,R5*%
X19290000Y40385000D03*
X17640000Y40385000D03*
%TD*%
D23*
%TO.C,J7*%
X11114992Y47110003D03*
D24*
X11114992Y45840003D03*
X9844992Y47110003D03*
X9844992Y45840003D03*
X8574992Y47110003D03*
X8574992Y45840003D03*
X7304992Y47110003D03*
X7304992Y45840003D03*
X6034992Y47110003D03*
X6034992Y45840003D03*
%TD*%
D25*
%TO.C,R23*%
X-19799400Y30275300D03*
X-20819400Y30275300D03*
%TD*%
D40*
%TO.C,C24*%
X13365000Y19460000D03*
X13365000Y17910000D03*
%TD*%
D34*
%TO.C,H1*%
X-37650000Y9350000D03*
%TD*%
D29*
%TO.C,C26*%
X-5775000Y27315000D03*
X-4815000Y27315000D03*
%TD*%
D26*
%TO.C,R26*%
X17890000Y36085000D03*
X16240000Y36085000D03*
%TD*%
D41*
%TO.C,C14*%
X5645000Y29125000D03*
X4685000Y29125000D03*
%TD*%
D19*
%TO.C,FID5*%
X20465000Y16285000D03*
%TD*%
D13*
%TO.C,TP5*%
X-4035000Y41485000D03*
%TD*%
%TO.C,TP13*%
X2865000Y37685000D03*
%TD*%
D18*
%TO.C,C16*%
X8425000Y25755000D03*
X8425000Y24795000D03*
%TD*%
D28*
%TO.C,L4*%
X4865000Y24037500D03*
X4865000Y25612500D03*
%TD*%
D22*
%TO.C,C32*%
X11915000Y35505000D03*
X11915000Y36465000D03*
%TD*%
D41*
%TO.C,C7*%
X6055000Y27375000D03*
X5095000Y27375000D03*
%TD*%
D29*
%TO.C,C25*%
X-5754400Y24335300D03*
X-4794400Y24335300D03*
%TD*%
D41*
%TO.C,C5*%
X5545000Y33285000D03*
X4585000Y33285000D03*
%TD*%
%TO.C,C12*%
X5195000Y31625000D03*
X4235000Y31625000D03*
%TD*%
D38*
%TO.C,J3*%
X-23905000Y47285000D03*
D39*
X-25430000Y45810000D03*
X-25430000Y48760000D03*
%TD*%
D18*
%TO.C,C29*%
X-21835000Y23065000D03*
X-21835000Y22105000D03*
%TD*%
%TO.C,C23*%
X14665000Y19465000D03*
X14665000Y18505000D03*
%TD*%
D29*
%TO.C,C6*%
X17135000Y28900000D03*
X18095000Y28900000D03*
%TD*%
D13*
%TO.C,TP6*%
X-4035000Y39385000D03*
%TD*%
M02*
