%TF.GenerationSoftware,KiCad,Pcbnew,(6.0.9)*%
%TF.CreationDate,2023-01-20T20:48:01+01:00*%
%TF.ProjectId,pallas-ethernet-adapter,70616c6c-6173-42d6-9574-6865726e6574,rev?*%
%TF.SameCoordinates,Original*%
%TF.FileFunction,Profile,NP*%
%FSLAX46Y46*%
G04 Gerber Fmt 4.6, Leading zero omitted, Abs format (unit mm)*
G04 Created by KiCad (PCBNEW (6.0.9)) date 2023-01-20 20:48:01*
%MOMM*%
%LPD*%
G01*
G04 APERTURE LIST*
%TA.AperFunction,Profile*%
%ADD10C,0.150000*%
%TD*%
G04 APERTURE END LIST*
D10*
X12950000Y7450000D02*
X12950000Y500000D01*
X19650000Y0D02*
X13450000Y0D01*
X-150000Y10925000D02*
G75*
G03*
X-3800000Y10925000I-1825000J0D01*
G01*
X350000Y0D02*
X10550000Y0D01*
X-30150000Y4500000D02*
X-30150000Y12750000D01*
X-30835000Y51785000D02*
X-45150000Y51785000D01*
X24165000Y51785000D02*
X-30835000Y51785000D01*
X-150000Y500000D02*
X350000Y0D01*
X-30150000Y12750000D02*
X-11800000Y12750000D01*
X-11800000Y4500000D02*
X-3800000Y4500000D01*
X-45150000Y51785000D02*
X-45150000Y4500000D01*
X10550000Y0D02*
X11050000Y500000D01*
X20150000Y500000D02*
X19650000Y0D01*
X-45150000Y4500000D02*
X-30150000Y4500000D01*
X12950000Y7450000D02*
G75*
G03*
X11050000Y7450000I-950000J0D01*
G01*
X-3800000Y4500000D02*
X-3800000Y10925000D01*
X24165000Y12750000D02*
X24165000Y51785000D01*
X-11800000Y12750000D02*
X-11800000Y4500000D01*
X12950000Y500000D02*
X13450000Y0D01*
X24165000Y12750000D02*
X20150000Y12750000D01*
X-150000Y10925000D02*
X-150000Y500000D01*
X11050000Y500000D02*
X11050000Y7450000D01*
X20150000Y12750000D02*
X20150000Y500000D01*
M02*
