%TF.GenerationSoftware,KiCad,Pcbnew,(6.0.9)*%
%TF.CreationDate,2023-01-29T21:13:32+01:00*%
%TF.ProjectId,pallas-ethernet-adapter,70616c6c-6173-42d6-9574-6865726e6574,rev?*%
%TF.SameCoordinates,Original*%
%TF.FileFunction,Other,Comment*%
%FSLAX46Y46*%
G04 Gerber Fmt 4.6, Leading zero omitted, Abs format (unit mm)*
G04 Created by KiCad (PCBNEW (6.0.9)) date 2023-01-29 21:13:32*
%MOMM*%
%LPD*%
G01*
G04 APERTURE LIST*
%ADD10C,0.200000*%
%ADD11C,0.400000*%
%ADD12C,0.150000*%
%ADD13C,0.250000*%
%ADD14C,0.120000*%
G04 APERTURE END LIST*
D10*
X-11448572Y-20213571D02*
X-10448572Y-20213571D01*
X-11091429Y-21713571D01*
X-9234286Y-20213571D02*
X-9520000Y-20213571D01*
X-9662857Y-20285000D01*
X-9734286Y-20356428D01*
X-9877143Y-20570714D01*
X-9948572Y-20856428D01*
X-9948572Y-21427857D01*
X-9877143Y-21570714D01*
X-9805715Y-21642142D01*
X-9662857Y-21713571D01*
X-9377143Y-21713571D01*
X-9234286Y-21642142D01*
X-9162857Y-21570714D01*
X-9091429Y-21427857D01*
X-9091429Y-21070714D01*
X-9162857Y-20927857D01*
X-9234286Y-20856428D01*
X-9377143Y-20785000D01*
X-9662857Y-20785000D01*
X-9805715Y-20856428D01*
X-9877143Y-20927857D01*
X-9948572Y-21070714D01*
X-8448572Y-21570714D02*
X-8377143Y-21642142D01*
X-8448572Y-21713571D01*
X-8520000Y-21642142D01*
X-8448572Y-21570714D01*
X-8448572Y-21713571D01*
X-7805715Y-20356428D02*
X-7734286Y-20285000D01*
X-7591429Y-20213571D01*
X-7234286Y-20213571D01*
X-7091429Y-20285000D01*
X-7020000Y-20356428D01*
X-6948572Y-20499285D01*
X-6948572Y-20642142D01*
X-7020000Y-20856428D01*
X-7877143Y-21713571D01*
X-6948572Y-21713571D01*
X-5591429Y-20213571D02*
X-6305715Y-20213571D01*
X-6377143Y-20927857D01*
X-6305715Y-20856428D01*
X-6162857Y-20785000D01*
X-5805715Y-20785000D01*
X-5662857Y-20856428D01*
X-5591429Y-20927857D01*
X-5520000Y-21070714D01*
X-5520000Y-21427857D01*
X-5591429Y-21570714D01*
X-5662857Y-21642142D01*
X-5805715Y-21713571D01*
X-6162857Y-21713571D01*
X-6305715Y-21642142D01*
X-6377143Y-21570714D01*
X-4591429Y-20213571D02*
X-4448572Y-20213571D01*
X-4305715Y-20285000D01*
X-4234286Y-20356428D01*
X-4162857Y-20499285D01*
X-4091429Y-20785000D01*
X-4091429Y-21142142D01*
X-4162857Y-21427857D01*
X-4234286Y-21570714D01*
X-4305715Y-21642142D01*
X-4448572Y-21713571D01*
X-4591429Y-21713571D01*
X-4734286Y-21642142D01*
X-4805715Y-21570714D01*
X-4877143Y-21427857D01*
X-4948572Y-21142142D01*
X-4948572Y-20785000D01*
X-4877143Y-20499285D01*
X-4805715Y-20356428D01*
X-4734286Y-20285000D01*
X-4591429Y-20213571D01*
X-3162857Y-20213571D02*
X-3020000Y-20213571D01*
X-2877143Y-20285000D01*
X-2805715Y-20356428D01*
X-2734286Y-20499285D01*
X-2662857Y-20785000D01*
X-2662857Y-21142142D01*
X-2734286Y-21427857D01*
X-2805715Y-21570714D01*
X-2877143Y-21642142D01*
X-3020000Y-21713571D01*
X-3162857Y-21713571D01*
X-3305715Y-21642142D01*
X-3377143Y-21570714D01*
X-3448572Y-21427857D01*
X-3520000Y-21142142D01*
X-3520000Y-20785000D01*
X-3448572Y-20499285D01*
X-3377143Y-20356428D01*
X-3305715Y-20285000D01*
X-3162857Y-20213571D01*
X-877143Y-21713571D02*
X-877143Y-20713571D01*
X-877143Y-20856428D02*
X-805715Y-20785000D01*
X-662857Y-20713571D01*
X-448572Y-20713571D01*
X-305715Y-20785000D01*
X-234286Y-20927857D01*
X-234286Y-21713571D01*
X-234286Y-20927857D02*
X-162857Y-20785000D01*
X-20000Y-20713571D01*
X194285Y-20713571D01*
X337143Y-20785000D01*
X408571Y-20927857D01*
X408571Y-21713571D01*
X1122857Y-21713571D02*
X1122857Y-20713571D01*
X1122857Y-20856428D02*
X1194285Y-20785000D01*
X1337143Y-20713571D01*
X1551428Y-20713571D01*
X1694285Y-20785000D01*
X1765714Y-20927857D01*
X1765714Y-21713571D01*
X1765714Y-20927857D02*
X1837143Y-20785000D01*
X1980000Y-20713571D01*
X2194285Y-20713571D01*
X2337143Y-20785000D01*
X2408571Y-20927857D01*
X2408571Y-21713571D01*
X4122857Y-21713571D02*
X4908571Y-20713571D01*
X4122857Y-20713571D02*
X4908571Y-21713571D01*
X7265714Y-20213571D02*
X6980000Y-20213571D01*
X6837143Y-20285000D01*
X6765714Y-20356428D01*
X6622857Y-20570714D01*
X6551428Y-20856428D01*
X6551428Y-21427857D01*
X6622857Y-21570714D01*
X6694285Y-21642142D01*
X6837143Y-21713571D01*
X7122857Y-21713571D01*
X7265714Y-21642142D01*
X7337143Y-21570714D01*
X7408571Y-21427857D01*
X7408571Y-21070714D01*
X7337143Y-20927857D01*
X7265714Y-20856428D01*
X7122857Y-20785000D01*
X6837143Y-20785000D01*
X6694285Y-20856428D01*
X6622857Y-20927857D01*
X6551428Y-21070714D01*
X8265714Y-20856428D02*
X8122857Y-20785000D01*
X8051428Y-20713571D01*
X7980000Y-20570714D01*
X7980000Y-20499285D01*
X8051428Y-20356428D01*
X8122857Y-20285000D01*
X8265714Y-20213571D01*
X8551428Y-20213571D01*
X8694285Y-20285000D01*
X8765714Y-20356428D01*
X8837143Y-20499285D01*
X8837143Y-20570714D01*
X8765714Y-20713571D01*
X8694285Y-20785000D01*
X8551428Y-20856428D01*
X8265714Y-20856428D01*
X8122857Y-20927857D01*
X8051428Y-20999285D01*
X7980000Y-21142142D01*
X7980000Y-21427857D01*
X8051428Y-21570714D01*
X8122857Y-21642142D01*
X8265714Y-21713571D01*
X8551428Y-21713571D01*
X8694285Y-21642142D01*
X8765714Y-21570714D01*
X8837143Y-21427857D01*
X8837143Y-21142142D01*
X8765714Y-20999285D01*
X8694285Y-20927857D01*
X8551428Y-20856428D01*
X9480000Y-21570714D02*
X9551428Y-21642142D01*
X9480000Y-21713571D01*
X9408571Y-21642142D01*
X9480000Y-21570714D01*
X9480000Y-21713571D01*
X10265714Y-21713571D02*
X10551428Y-21713571D01*
X10694285Y-21642142D01*
X10765714Y-21570714D01*
X10908571Y-21356428D01*
X10980000Y-21070714D01*
X10980000Y-20499285D01*
X10908571Y-20356428D01*
X10837143Y-20285000D01*
X10694285Y-20213571D01*
X10408571Y-20213571D01*
X10265714Y-20285000D01*
X10194285Y-20356428D01*
X10122857Y-20499285D01*
X10122857Y-20856428D01*
X10194285Y-20999285D01*
X10265714Y-21070714D01*
X10408571Y-21142142D01*
X10694285Y-21142142D01*
X10837143Y-21070714D01*
X10908571Y-20999285D01*
X10980000Y-20856428D01*
X11908571Y-20213571D02*
X12051428Y-20213571D01*
X12194285Y-20285000D01*
X12265714Y-20356428D01*
X12337143Y-20499285D01*
X12408571Y-20785000D01*
X12408571Y-21142142D01*
X12337143Y-21427857D01*
X12265714Y-21570714D01*
X12194285Y-21642142D01*
X12051428Y-21713571D01*
X11908571Y-21713571D01*
X11765714Y-21642142D01*
X11694285Y-21570714D01*
X11622857Y-21427857D01*
X11551428Y-21142142D01*
X11551428Y-20785000D01*
X11622857Y-20499285D01*
X11694285Y-20356428D01*
X11765714Y-20285000D01*
X11908571Y-20213571D01*
X13337143Y-20213571D02*
X13480000Y-20213571D01*
X13622857Y-20285000D01*
X13694285Y-20356428D01*
X13765714Y-20499285D01*
X13837143Y-20785000D01*
X13837143Y-21142142D01*
X13765714Y-21427857D01*
X13694285Y-21570714D01*
X13622857Y-21642142D01*
X13480000Y-21713571D01*
X13337143Y-21713571D01*
X13194285Y-21642142D01*
X13122857Y-21570714D01*
X13051428Y-21427857D01*
X12980000Y-21142142D01*
X12980000Y-20785000D01*
X13051428Y-20499285D01*
X13122857Y-20356428D01*
X13194285Y-20285000D01*
X13337143Y-20213571D01*
X14765714Y-20213571D02*
X14908571Y-20213571D01*
X15051428Y-20285000D01*
X15122857Y-20356428D01*
X15194285Y-20499285D01*
X15265714Y-20785000D01*
X15265714Y-21142142D01*
X15194285Y-21427857D01*
X15122857Y-21570714D01*
X15051428Y-21642142D01*
X14908571Y-21713571D01*
X14765714Y-21713571D01*
X14622857Y-21642142D01*
X14551428Y-21570714D01*
X14480000Y-21427857D01*
X14408571Y-21142142D01*
X14408571Y-20785000D01*
X14480000Y-20499285D01*
X14551428Y-20356428D01*
X14622857Y-20285000D01*
X14765714Y-20213571D01*
X17051428Y-21713571D02*
X17051428Y-20713571D01*
X17051428Y-20856428D02*
X17122857Y-20785000D01*
X17265714Y-20713571D01*
X17480000Y-20713571D01*
X17622857Y-20785000D01*
X17694285Y-20927857D01*
X17694285Y-21713571D01*
X17694285Y-20927857D02*
X17765714Y-20785000D01*
X17908571Y-20713571D01*
X18122857Y-20713571D01*
X18265714Y-20785000D01*
X18337143Y-20927857D01*
X18337143Y-21713571D01*
X19051428Y-21713571D02*
X19051428Y-20713571D01*
X19051428Y-20856428D02*
X19122857Y-20785000D01*
X19265714Y-20713571D01*
X19480000Y-20713571D01*
X19622857Y-20785000D01*
X19694285Y-20927857D01*
X19694285Y-21713571D01*
X19694285Y-20927857D02*
X19765714Y-20785000D01*
X19908571Y-20713571D01*
X20122857Y-20713571D01*
X20265714Y-20785000D01*
X20337143Y-20927857D01*
X20337143Y-21713571D01*
X48380000Y-17498571D02*
X47522857Y-17498571D01*
X47951428Y-17498571D02*
X47951428Y-15998571D01*
X47808571Y-16212857D01*
X47665714Y-16355714D01*
X47522857Y-16427142D01*
X49022857Y-17355714D02*
X49094285Y-17427142D01*
X49022857Y-17498571D01*
X48951428Y-17427142D01*
X49022857Y-17355714D01*
X49022857Y-17498571D01*
X50380000Y-15998571D02*
X50094285Y-15998571D01*
X49951428Y-16070000D01*
X49880000Y-16141428D01*
X49737143Y-16355714D01*
X49665714Y-16641428D01*
X49665714Y-17212857D01*
X49737143Y-17355714D01*
X49808571Y-17427142D01*
X49951428Y-17498571D01*
X50237143Y-17498571D01*
X50380000Y-17427142D01*
X50451428Y-17355714D01*
X50522857Y-17212857D01*
X50522857Y-16855714D01*
X50451428Y-16712857D01*
X50380000Y-16641428D01*
X50237143Y-16570000D01*
X49951428Y-16570000D01*
X49808571Y-16641428D01*
X49737143Y-16712857D01*
X49665714Y-16855714D01*
X51451428Y-15998571D02*
X51594285Y-15998571D01*
X51737143Y-16070000D01*
X51808571Y-16141428D01*
X51880000Y-16284285D01*
X51951428Y-16570000D01*
X51951428Y-16927142D01*
X51880000Y-17212857D01*
X51808571Y-17355714D01*
X51737143Y-17427142D01*
X51594285Y-17498571D01*
X51451428Y-17498571D01*
X51308571Y-17427142D01*
X51237143Y-17355714D01*
X51165714Y-17212857D01*
X51094285Y-16927142D01*
X51094285Y-16570000D01*
X51165714Y-16284285D01*
X51237143Y-16141428D01*
X51308571Y-16070000D01*
X51451428Y-15998571D01*
X53737143Y-17498571D02*
X53737143Y-16498571D01*
X53737143Y-16641428D02*
X53808571Y-16570000D01*
X53951428Y-16498571D01*
X54165714Y-16498571D01*
X54308571Y-16570000D01*
X54380000Y-16712857D01*
X54380000Y-17498571D01*
X54380000Y-16712857D02*
X54451428Y-16570000D01*
X54594285Y-16498571D01*
X54808571Y-16498571D01*
X54951428Y-16570000D01*
X55022857Y-16712857D01*
X55022857Y-17498571D01*
X55737143Y-17498571D02*
X55737143Y-16498571D01*
X55737143Y-16641428D02*
X55808571Y-16570000D01*
X55951428Y-16498571D01*
X56165714Y-16498571D01*
X56308571Y-16570000D01*
X56380000Y-16712857D01*
X56380000Y-17498571D01*
X56380000Y-16712857D02*
X56451428Y-16570000D01*
X56594285Y-16498571D01*
X56808571Y-16498571D01*
X56951428Y-16570000D01*
X57022857Y-16712857D01*
X57022857Y-17498571D01*
X47880000Y-33644285D02*
X47880000Y-34358571D01*
X47380000Y-32858571D02*
X47880000Y-33644285D01*
X48380000Y-32858571D01*
X49451428Y-34287142D02*
X49308571Y-34358571D01*
X49022857Y-34358571D01*
X48880000Y-34287142D01*
X48808571Y-34144285D01*
X48808571Y-33572857D01*
X48880000Y-33430000D01*
X49022857Y-33358571D01*
X49308571Y-33358571D01*
X49451428Y-33430000D01*
X49522857Y-33572857D01*
X49522857Y-33715714D01*
X48808571Y-33858571D01*
X50094285Y-34287142D02*
X50237143Y-34358571D01*
X50522857Y-34358571D01*
X50665714Y-34287142D01*
X50737143Y-34144285D01*
X50737143Y-34072857D01*
X50665714Y-33930000D01*
X50522857Y-33858571D01*
X50308571Y-33858571D01*
X50165714Y-33787142D01*
X50094285Y-33644285D01*
X50094285Y-33572857D01*
X50165714Y-33430000D01*
X50308571Y-33358571D01*
X50522857Y-33358571D01*
X50665714Y-33430000D01*
X22751428Y-25928571D02*
X22751428Y-24428571D01*
X23251428Y-25500000D01*
X23751428Y-24428571D01*
X23751428Y-25928571D01*
X24465714Y-25928571D02*
X24465714Y-24928571D01*
X24465714Y-24428571D02*
X24394286Y-24500000D01*
X24465714Y-24571428D01*
X24537143Y-24500000D01*
X24465714Y-24428571D01*
X24465714Y-24571428D01*
X25180000Y-24928571D02*
X25180000Y-25928571D01*
X25180000Y-25071428D02*
X25251428Y-25000000D01*
X25394286Y-24928571D01*
X25608571Y-24928571D01*
X25751428Y-25000000D01*
X25822857Y-25142857D01*
X25822857Y-25928571D01*
X27680000Y-25928571D02*
X27680000Y-24428571D01*
X28322857Y-25928571D02*
X28322857Y-25142857D01*
X28251428Y-25000000D01*
X28108571Y-24928571D01*
X27894286Y-24928571D01*
X27751428Y-25000000D01*
X27680000Y-25071428D01*
X29251428Y-25928571D02*
X29108571Y-25857142D01*
X29037143Y-25785714D01*
X28965714Y-25642857D01*
X28965714Y-25214285D01*
X29037143Y-25071428D01*
X29108571Y-25000000D01*
X29251428Y-24928571D01*
X29465714Y-24928571D01*
X29608571Y-25000000D01*
X29680000Y-25071428D01*
X29751428Y-25214285D01*
X29751428Y-25642857D01*
X29680000Y-25785714D01*
X29608571Y-25857142D01*
X29465714Y-25928571D01*
X29251428Y-25928571D01*
X30608571Y-25928571D02*
X30465714Y-25857142D01*
X30394286Y-25714285D01*
X30394286Y-24428571D01*
X31751428Y-25857142D02*
X31608571Y-25928571D01*
X31322857Y-25928571D01*
X31180000Y-25857142D01*
X31108571Y-25714285D01*
X31108571Y-25142857D01*
X31180000Y-25000000D01*
X31322857Y-24928571D01*
X31608571Y-24928571D01*
X31751428Y-25000000D01*
X31822857Y-25142857D01*
X31822857Y-25285714D01*
X31108571Y-25428571D01*
X34251428Y-25928571D02*
X34251428Y-24428571D01*
X34251428Y-25857142D02*
X34108571Y-25928571D01*
X33822857Y-25928571D01*
X33680000Y-25857142D01*
X33608571Y-25785714D01*
X33537143Y-25642857D01*
X33537143Y-25214285D01*
X33608571Y-25071428D01*
X33680000Y-25000000D01*
X33822857Y-24928571D01*
X34108571Y-24928571D01*
X34251428Y-25000000D01*
X34965714Y-25928571D02*
X34965714Y-24928571D01*
X34965714Y-24428571D02*
X34894286Y-24500000D01*
X34965714Y-24571428D01*
X35037143Y-24500000D01*
X34965714Y-24428571D01*
X34965714Y-24571428D01*
X36322857Y-25928571D02*
X36322857Y-25142857D01*
X36251428Y-25000000D01*
X36108571Y-24928571D01*
X35822857Y-24928571D01*
X35680000Y-25000000D01*
X36322857Y-25857142D02*
X36180000Y-25928571D01*
X35822857Y-25928571D01*
X35680000Y-25857142D01*
X35608571Y-25714285D01*
X35608571Y-25571428D01*
X35680000Y-25428571D01*
X35822857Y-25357142D01*
X36180000Y-25357142D01*
X36322857Y-25285714D01*
X37037143Y-25928571D02*
X37037143Y-24928571D01*
X37037143Y-25071428D02*
X37108571Y-25000000D01*
X37251428Y-24928571D01*
X37465714Y-24928571D01*
X37608571Y-25000000D01*
X37680000Y-25142857D01*
X37680000Y-25928571D01*
X37680000Y-25142857D02*
X37751428Y-25000000D01*
X37894286Y-24928571D01*
X38108571Y-24928571D01*
X38251428Y-25000000D01*
X38322857Y-25142857D01*
X38322857Y-25928571D01*
X39608571Y-25857142D02*
X39465714Y-25928571D01*
X39180000Y-25928571D01*
X39037143Y-25857142D01*
X38965714Y-25714285D01*
X38965714Y-25142857D01*
X39037143Y-25000000D01*
X39180000Y-24928571D01*
X39465714Y-24928571D01*
X39608571Y-25000000D01*
X39680000Y-25142857D01*
X39680000Y-25285714D01*
X38965714Y-25428571D01*
X40108571Y-24928571D02*
X40680000Y-24928571D01*
X40322857Y-24428571D02*
X40322857Y-25714285D01*
X40394286Y-25857142D01*
X40537143Y-25928571D01*
X40680000Y-25928571D01*
X41751428Y-25857142D02*
X41608571Y-25928571D01*
X41322857Y-25928571D01*
X41180000Y-25857142D01*
X41108571Y-25714285D01*
X41108571Y-25142857D01*
X41180000Y-25000000D01*
X41322857Y-24928571D01*
X41608571Y-24928571D01*
X41751428Y-25000000D01*
X41822857Y-25142857D01*
X41822857Y-25285714D01*
X41108571Y-25428571D01*
X42465714Y-25928571D02*
X42465714Y-24928571D01*
X42465714Y-25214285D02*
X42537143Y-25071428D01*
X42608571Y-25000000D01*
X42751428Y-24928571D01*
X42894286Y-24928571D01*
X43394286Y-25785714D02*
X43465714Y-25857142D01*
X43394286Y-25928571D01*
X43322857Y-25857142D01*
X43394286Y-25785714D01*
X43394286Y-25928571D01*
X43394286Y-25000000D02*
X43465714Y-25071428D01*
X43394286Y-25142857D01*
X43322857Y-25071428D01*
X43394286Y-25000000D01*
X43394286Y-25142857D01*
X47880000Y-29429285D02*
X47880000Y-30143571D01*
X47380000Y-28643571D02*
X47880000Y-29429285D01*
X48380000Y-28643571D01*
X49451428Y-30072142D02*
X49308571Y-30143571D01*
X49022857Y-30143571D01*
X48880000Y-30072142D01*
X48808571Y-29929285D01*
X48808571Y-29357857D01*
X48880000Y-29215000D01*
X49022857Y-29143571D01*
X49308571Y-29143571D01*
X49451428Y-29215000D01*
X49522857Y-29357857D01*
X49522857Y-29500714D01*
X48808571Y-29643571D01*
X50094285Y-30072142D02*
X50237143Y-30143571D01*
X50522857Y-30143571D01*
X50665714Y-30072142D01*
X50737143Y-29929285D01*
X50737143Y-29857857D01*
X50665714Y-29715000D01*
X50522857Y-29643571D01*
X50308571Y-29643571D01*
X50165714Y-29572142D01*
X50094285Y-29429285D01*
X50094285Y-29357857D01*
X50165714Y-29215000D01*
X50308571Y-29143571D01*
X50522857Y-29143571D01*
X50665714Y-29215000D01*
X-43862858Y-37787857D02*
X-43362858Y-37787857D01*
X-43148572Y-38573571D02*
X-43862858Y-38573571D01*
X-43862858Y-37073571D01*
X-43148572Y-37073571D01*
X-41862858Y-38573571D02*
X-41862858Y-37073571D01*
X-41862858Y-38502142D02*
X-42005715Y-38573571D01*
X-42291429Y-38573571D01*
X-42434286Y-38502142D01*
X-42505715Y-38430714D01*
X-42577143Y-38287857D01*
X-42577143Y-37859285D01*
X-42505715Y-37716428D01*
X-42434286Y-37645000D01*
X-42291429Y-37573571D01*
X-42005715Y-37573571D01*
X-41862858Y-37645000D01*
X-40505715Y-37573571D02*
X-40505715Y-38787857D01*
X-40577143Y-38930714D01*
X-40648572Y-39002142D01*
X-40791429Y-39073571D01*
X-41005715Y-39073571D01*
X-41148572Y-39002142D01*
X-40505715Y-38502142D02*
X-40648572Y-38573571D01*
X-40934286Y-38573571D01*
X-41077143Y-38502142D01*
X-41148572Y-38430714D01*
X-41220000Y-38287857D01*
X-41220000Y-37859285D01*
X-41148572Y-37716428D01*
X-41077143Y-37645000D01*
X-40934286Y-37573571D01*
X-40648572Y-37573571D01*
X-40505715Y-37645000D01*
X-39220000Y-38502142D02*
X-39362858Y-38573571D01*
X-39648572Y-38573571D01*
X-39791429Y-38502142D01*
X-39862858Y-38359285D01*
X-39862858Y-37787857D01*
X-39791429Y-37645000D01*
X-39648572Y-37573571D01*
X-39362858Y-37573571D01*
X-39220000Y-37645000D01*
X-39148572Y-37787857D01*
X-39148572Y-37930714D01*
X-39862858Y-38073571D01*
X-36720000Y-38502142D02*
X-36862858Y-38573571D01*
X-37148572Y-38573571D01*
X-37291429Y-38502142D01*
X-37362858Y-38430714D01*
X-37434286Y-38287857D01*
X-37434286Y-37859285D01*
X-37362858Y-37716428D01*
X-37291429Y-37645000D01*
X-37148572Y-37573571D01*
X-36862858Y-37573571D01*
X-36720000Y-37645000D01*
X-35434286Y-38573571D02*
X-35434286Y-37787857D01*
X-35505715Y-37645000D01*
X-35648572Y-37573571D01*
X-35934286Y-37573571D01*
X-36077143Y-37645000D01*
X-35434286Y-38502142D02*
X-35577143Y-38573571D01*
X-35934286Y-38573571D01*
X-36077143Y-38502142D01*
X-36148572Y-38359285D01*
X-36148572Y-38216428D01*
X-36077143Y-38073571D01*
X-35934286Y-38002142D01*
X-35577143Y-38002142D01*
X-35434286Y-37930714D01*
X-34720000Y-38573571D02*
X-34720000Y-37573571D01*
X-34720000Y-37859285D02*
X-34648572Y-37716428D01*
X-34577143Y-37645000D01*
X-34434286Y-37573571D01*
X-34291429Y-37573571D01*
X-33148572Y-38573571D02*
X-33148572Y-37073571D01*
X-33148572Y-38502142D02*
X-33291429Y-38573571D01*
X-33577143Y-38573571D01*
X-33720000Y-38502142D01*
X-33791429Y-38430714D01*
X-33862858Y-38287857D01*
X-33862858Y-37859285D01*
X-33791429Y-37716428D01*
X-33720000Y-37645000D01*
X-33577143Y-37573571D01*
X-33291429Y-37573571D01*
X-33148572Y-37645000D01*
X-30648572Y-38502142D02*
X-30791429Y-38573571D01*
X-31077143Y-38573571D01*
X-31220000Y-38502142D01*
X-31291429Y-38430714D01*
X-31362858Y-38287857D01*
X-31362858Y-37859285D01*
X-31291429Y-37716428D01*
X-31220000Y-37645000D01*
X-31077143Y-37573571D01*
X-30791429Y-37573571D01*
X-30648572Y-37645000D01*
X-29791429Y-38573571D02*
X-29934286Y-38502142D01*
X-30005715Y-38430714D01*
X-30077143Y-38287857D01*
X-30077143Y-37859285D01*
X-30005715Y-37716428D01*
X-29934286Y-37645000D01*
X-29791429Y-37573571D01*
X-29577143Y-37573571D01*
X-29434286Y-37645000D01*
X-29362858Y-37716428D01*
X-29291429Y-37859285D01*
X-29291429Y-38287857D01*
X-29362858Y-38430714D01*
X-29434286Y-38502142D01*
X-29577143Y-38573571D01*
X-29791429Y-38573571D01*
X-28648572Y-37573571D02*
X-28648572Y-38573571D01*
X-28648572Y-37716428D02*
X-28577143Y-37645000D01*
X-28434286Y-37573571D01*
X-28220000Y-37573571D01*
X-28077143Y-37645000D01*
X-28005715Y-37787857D01*
X-28005715Y-38573571D01*
X-27291429Y-37573571D02*
X-27291429Y-38573571D01*
X-27291429Y-37716428D02*
X-27220000Y-37645000D01*
X-27077143Y-37573571D01*
X-26862858Y-37573571D01*
X-26720000Y-37645000D01*
X-26648572Y-37787857D01*
X-26648572Y-38573571D01*
X-25362858Y-38502142D02*
X-25505715Y-38573571D01*
X-25791429Y-38573571D01*
X-25934286Y-38502142D01*
X-26005715Y-38359285D01*
X-26005715Y-37787857D01*
X-25934286Y-37645000D01*
X-25791429Y-37573571D01*
X-25505715Y-37573571D01*
X-25362858Y-37645000D01*
X-25291429Y-37787857D01*
X-25291429Y-37930714D01*
X-26005715Y-38073571D01*
X-24005715Y-38502142D02*
X-24148572Y-38573571D01*
X-24434286Y-38573571D01*
X-24577143Y-38502142D01*
X-24648572Y-38430714D01*
X-24720000Y-38287857D01*
X-24720000Y-37859285D01*
X-24648572Y-37716428D01*
X-24577143Y-37645000D01*
X-24434286Y-37573571D01*
X-24148572Y-37573571D01*
X-24005715Y-37645000D01*
X-23577143Y-37573571D02*
X-23005715Y-37573571D01*
X-23362858Y-37073571D02*
X-23362858Y-38359285D01*
X-23291429Y-38502142D01*
X-23148572Y-38573571D01*
X-23005715Y-38573571D01*
X-22291429Y-38573571D02*
X-22434286Y-38502142D01*
X-22505715Y-38430714D01*
X-22577143Y-38287857D01*
X-22577143Y-37859285D01*
X-22505715Y-37716428D01*
X-22434286Y-37645000D01*
X-22291429Y-37573571D01*
X-22077143Y-37573571D01*
X-21934286Y-37645000D01*
X-21862858Y-37716428D01*
X-21791429Y-37859285D01*
X-21791429Y-38287857D01*
X-21862858Y-38430714D01*
X-21934286Y-38502142D01*
X-22077143Y-38573571D01*
X-22291429Y-38573571D01*
X-21148572Y-38573571D02*
X-21148572Y-37573571D01*
X-21148572Y-37859285D02*
X-21077143Y-37716428D01*
X-21005715Y-37645000D01*
X-20862858Y-37573571D01*
X-20720000Y-37573571D01*
X-20291429Y-38502142D02*
X-20148572Y-38573571D01*
X-19862858Y-38573571D01*
X-19720000Y-38502142D01*
X-19648572Y-38359285D01*
X-19648572Y-38287857D01*
X-19720000Y-38145000D01*
X-19862858Y-38073571D01*
X-20077143Y-38073571D01*
X-20220000Y-38002142D01*
X-20291429Y-37859285D01*
X-20291429Y-37787857D01*
X-20220000Y-37645000D01*
X-20077143Y-37573571D01*
X-19862858Y-37573571D01*
X-19720000Y-37645000D01*
X-19005715Y-38430714D02*
X-18934286Y-38502142D01*
X-19005715Y-38573571D01*
X-19077143Y-38502142D01*
X-19005715Y-38430714D01*
X-19005715Y-38573571D01*
X-19005715Y-37645000D02*
X-18934286Y-37716428D01*
X-19005715Y-37787857D01*
X-19077143Y-37716428D01*
X-19005715Y-37645000D01*
X-19005715Y-37787857D01*
X-11305715Y-34358571D02*
X-11305715Y-32858571D01*
X-10448572Y-34358571D01*
X-10448572Y-32858571D01*
X-9520000Y-34358571D02*
X-9662857Y-34287142D01*
X-9734286Y-34215714D01*
X-9805715Y-34072857D01*
X-9805715Y-33644285D01*
X-9734286Y-33501428D01*
X-9662857Y-33430000D01*
X-9520000Y-33358571D01*
X-9305715Y-33358571D01*
X-9162857Y-33430000D01*
X-9091429Y-33501428D01*
X-9020000Y-33644285D01*
X-9020000Y-34072857D01*
X-9091429Y-34215714D01*
X-9162857Y-34287142D01*
X-9305715Y-34358571D01*
X-9520000Y-34358571D01*
X-43862858Y-25928571D02*
X-43862858Y-24428571D01*
X-43362858Y-25500000D01*
X-42862858Y-24428571D01*
X-42862858Y-25928571D01*
X-42148572Y-25928571D02*
X-42148572Y-24928571D01*
X-42148572Y-24428571D02*
X-42220000Y-24500000D01*
X-42148572Y-24571428D01*
X-42077143Y-24500000D01*
X-42148572Y-24428571D01*
X-42148572Y-24571428D01*
X-41434286Y-24928571D02*
X-41434286Y-25928571D01*
X-41434286Y-25071428D02*
X-41362858Y-25000000D01*
X-41220000Y-24928571D01*
X-41005715Y-24928571D01*
X-40862858Y-25000000D01*
X-40791429Y-25142857D01*
X-40791429Y-25928571D01*
X-39148572Y-24928571D02*
X-38577143Y-24928571D01*
X-38934286Y-24428571D02*
X-38934286Y-25714285D01*
X-38862858Y-25857142D01*
X-38720000Y-25928571D01*
X-38577143Y-25928571D01*
X-38077143Y-25928571D02*
X-38077143Y-24928571D01*
X-38077143Y-25214285D02*
X-38005715Y-25071428D01*
X-37934286Y-25000000D01*
X-37791429Y-24928571D01*
X-37648572Y-24928571D01*
X-36505715Y-25928571D02*
X-36505715Y-25142857D01*
X-36577143Y-25000000D01*
X-36720000Y-24928571D01*
X-37005715Y-24928571D01*
X-37148572Y-25000000D01*
X-36505715Y-25857142D02*
X-36648572Y-25928571D01*
X-37005715Y-25928571D01*
X-37148572Y-25857142D01*
X-37220000Y-25714285D01*
X-37220000Y-25571428D01*
X-37148572Y-25428571D01*
X-37005715Y-25357142D01*
X-36648572Y-25357142D01*
X-36505715Y-25285714D01*
X-35148572Y-25857142D02*
X-35291429Y-25928571D01*
X-35577143Y-25928571D01*
X-35720000Y-25857142D01*
X-35791429Y-25785714D01*
X-35862858Y-25642857D01*
X-35862858Y-25214285D01*
X-35791429Y-25071428D01*
X-35720000Y-25000000D01*
X-35577143Y-24928571D01*
X-35291429Y-24928571D01*
X-35148572Y-25000000D01*
X-34505715Y-25928571D02*
X-34505715Y-24428571D01*
X-34362858Y-25357142D02*
X-33934286Y-25928571D01*
X-33934286Y-24928571D02*
X-34505715Y-25500000D01*
X-32220000Y-24357142D02*
X-33505715Y-26285714D01*
X-31791429Y-25857142D02*
X-31648572Y-25928571D01*
X-31362858Y-25928571D01*
X-31220000Y-25857142D01*
X-31148572Y-25714285D01*
X-31148572Y-25642857D01*
X-31220000Y-25500000D01*
X-31362858Y-25428571D01*
X-31577143Y-25428571D01*
X-31720000Y-25357142D01*
X-31791429Y-25214285D01*
X-31791429Y-25142857D01*
X-31720000Y-25000000D01*
X-31577143Y-24928571D01*
X-31362858Y-24928571D01*
X-31220000Y-25000000D01*
X-30505715Y-24928571D02*
X-30505715Y-26428571D01*
X-30505715Y-25000000D02*
X-30362858Y-24928571D01*
X-30077143Y-24928571D01*
X-29934286Y-25000000D01*
X-29862858Y-25071428D01*
X-29791429Y-25214285D01*
X-29791429Y-25642857D01*
X-29862858Y-25785714D01*
X-29934286Y-25857142D01*
X-30077143Y-25928571D01*
X-30362858Y-25928571D01*
X-30505715Y-25857142D01*
X-28505715Y-25928571D02*
X-28505715Y-25142857D01*
X-28577143Y-25000000D01*
X-28720000Y-24928571D01*
X-29005715Y-24928571D01*
X-29148572Y-25000000D01*
X-28505715Y-25857142D02*
X-28648572Y-25928571D01*
X-29005715Y-25928571D01*
X-29148572Y-25857142D01*
X-29220000Y-25714285D01*
X-29220000Y-25571428D01*
X-29148572Y-25428571D01*
X-29005715Y-25357142D01*
X-28648572Y-25357142D01*
X-28505715Y-25285714D01*
X-27148572Y-25857142D02*
X-27291429Y-25928571D01*
X-27577143Y-25928571D01*
X-27720000Y-25857142D01*
X-27791429Y-25785714D01*
X-27862858Y-25642857D01*
X-27862858Y-25214285D01*
X-27791429Y-25071428D01*
X-27720000Y-25000000D01*
X-27577143Y-24928571D01*
X-27291429Y-24928571D01*
X-27148572Y-25000000D01*
X-26505715Y-25928571D02*
X-26505715Y-24928571D01*
X-26505715Y-24428571D02*
X-26577143Y-24500000D01*
X-26505715Y-24571428D01*
X-26434286Y-24500000D01*
X-26505715Y-24428571D01*
X-26505715Y-24571428D01*
X-25791429Y-24928571D02*
X-25791429Y-25928571D01*
X-25791429Y-25071428D02*
X-25720000Y-25000000D01*
X-25577143Y-24928571D01*
X-25362858Y-24928571D01*
X-25220000Y-25000000D01*
X-25148572Y-25142857D01*
X-25148572Y-25928571D01*
X-23791429Y-24928571D02*
X-23791429Y-26142857D01*
X-23862858Y-26285714D01*
X-23934286Y-26357142D01*
X-24077143Y-26428571D01*
X-24291429Y-26428571D01*
X-24434286Y-26357142D01*
X-23791429Y-25857142D02*
X-23934286Y-25928571D01*
X-24220000Y-25928571D01*
X-24362858Y-25857142D01*
X-24434286Y-25785714D01*
X-24505715Y-25642857D01*
X-24505715Y-25214285D01*
X-24434286Y-25071428D01*
X-24362858Y-25000000D01*
X-24220000Y-24928571D01*
X-23934286Y-24928571D01*
X-23791429Y-25000000D01*
X-23077143Y-25785714D02*
X-23005715Y-25857142D01*
X-23077143Y-25928571D01*
X-23148572Y-25857142D01*
X-23077143Y-25785714D01*
X-23077143Y-25928571D01*
X-23077143Y-25000000D02*
X-23005715Y-25071428D01*
X-23077143Y-25142857D01*
X-23148572Y-25071428D01*
X-23077143Y-25000000D01*
X-23077143Y-25142857D01*
X-10662857Y-16498571D02*
X-10662857Y-17498571D01*
X-11020000Y-15927142D02*
X-11377143Y-16998571D01*
X-10448572Y-16998571D01*
D11*
X-43697143Y-11357142D02*
X-43411429Y-11452380D01*
X-43316191Y-11547619D01*
X-43220953Y-11738095D01*
X-43220953Y-12023809D01*
X-43316191Y-12214285D01*
X-43411429Y-12309523D01*
X-43601905Y-12404761D01*
X-44363810Y-12404761D01*
X-44363810Y-10404761D01*
X-43697143Y-10404761D01*
X-43506667Y-10500000D01*
X-43411429Y-10595238D01*
X-43316191Y-10785714D01*
X-43316191Y-10976190D01*
X-43411429Y-11166666D01*
X-43506667Y-11261904D01*
X-43697143Y-11357142D01*
X-44363810Y-11357142D01*
X-41982858Y-10404761D02*
X-41601905Y-10404761D01*
X-41411429Y-10500000D01*
X-41220953Y-10690476D01*
X-41125715Y-11071428D01*
X-41125715Y-11738095D01*
X-41220953Y-12119047D01*
X-41411429Y-12309523D01*
X-41601905Y-12404761D01*
X-41982858Y-12404761D01*
X-42173334Y-12309523D01*
X-42363810Y-12119047D01*
X-42459048Y-11738095D01*
X-42459048Y-11071428D01*
X-42363810Y-10690476D01*
X-42173334Y-10500000D01*
X-41982858Y-10404761D01*
X-40363810Y-11833333D02*
X-39411429Y-11833333D01*
X-40554286Y-12404761D02*
X-39887620Y-10404761D01*
X-39220953Y-12404761D01*
X-37411429Y-12404761D02*
X-38078096Y-11452380D01*
X-38554286Y-12404761D02*
X-38554286Y-10404761D01*
X-37792381Y-10404761D01*
X-37601905Y-10500000D01*
X-37506667Y-10595238D01*
X-37411429Y-10785714D01*
X-37411429Y-11071428D01*
X-37506667Y-11261904D01*
X-37601905Y-11357142D01*
X-37792381Y-11452380D01*
X-38554286Y-11452380D01*
X-36554286Y-12404761D02*
X-36554286Y-10404761D01*
X-36078096Y-10404761D01*
X-35792381Y-10500000D01*
X-35601905Y-10690476D01*
X-35506667Y-10880952D01*
X-35411429Y-11261904D01*
X-35411429Y-11547619D01*
X-35506667Y-11928571D01*
X-35601905Y-12119047D01*
X-35792381Y-12309523D01*
X-36078096Y-12404761D01*
X-36554286Y-12404761D01*
X-31887620Y-12214285D02*
X-31982858Y-12309523D01*
X-32268572Y-12404761D01*
X-32459048Y-12404761D01*
X-32744762Y-12309523D01*
X-32935239Y-12119047D01*
X-33030477Y-11928571D01*
X-33125715Y-11547619D01*
X-33125715Y-11261904D01*
X-33030477Y-10880952D01*
X-32935239Y-10690476D01*
X-32744762Y-10500000D01*
X-32459048Y-10404761D01*
X-32268572Y-10404761D01*
X-31982858Y-10500000D01*
X-31887620Y-10595238D01*
X-31030477Y-12404761D02*
X-31030477Y-10404761D01*
X-31030477Y-11357142D02*
X-29887620Y-11357142D01*
X-29887620Y-12404761D02*
X-29887620Y-10404761D01*
X-29030477Y-11833333D02*
X-28078096Y-11833333D01*
X-29220953Y-12404761D02*
X-28554286Y-10404761D01*
X-27887620Y-12404761D01*
X-26078096Y-12404761D02*
X-26744762Y-11452380D01*
X-27220953Y-12404761D02*
X-27220953Y-10404761D01*
X-26459048Y-10404761D01*
X-26268572Y-10500000D01*
X-26173334Y-10595238D01*
X-26078096Y-10785714D01*
X-26078096Y-11071428D01*
X-26173334Y-11261904D01*
X-26268572Y-11357142D01*
X-26459048Y-11452380D01*
X-27220953Y-11452380D01*
X-25316191Y-11833333D02*
X-24363810Y-11833333D01*
X-25506667Y-12404761D02*
X-24840000Y-10404761D01*
X-24173334Y-12404761D01*
X-22363810Y-12214285D02*
X-22459048Y-12309523D01*
X-22744762Y-12404761D01*
X-22935239Y-12404761D01*
X-23220953Y-12309523D01*
X-23411429Y-12119047D01*
X-23506667Y-11928571D01*
X-23601905Y-11547619D01*
X-23601905Y-11261904D01*
X-23506667Y-10880952D01*
X-23411429Y-10690476D01*
X-23220953Y-10500000D01*
X-22935239Y-10404761D01*
X-22744762Y-10404761D01*
X-22459048Y-10500000D01*
X-22363810Y-10595238D01*
X-21792381Y-10404761D02*
X-20649524Y-10404761D01*
X-21220953Y-12404761D02*
X-21220953Y-10404761D01*
X-19982858Y-11357142D02*
X-19316191Y-11357142D01*
X-19030477Y-12404761D02*
X-19982858Y-12404761D01*
X-19982858Y-10404761D01*
X-19030477Y-10404761D01*
X-17030477Y-12404761D02*
X-17697143Y-11452380D01*
X-18173334Y-12404761D02*
X-18173334Y-10404761D01*
X-17411429Y-10404761D01*
X-17220953Y-10500000D01*
X-17125715Y-10595238D01*
X-17030477Y-10785714D01*
X-17030477Y-11071428D01*
X-17125715Y-11261904D01*
X-17220953Y-11357142D01*
X-17411429Y-11452380D01*
X-18173334Y-11452380D01*
X-16173334Y-12404761D02*
X-16173334Y-10404761D01*
X-15316191Y-12309523D02*
X-15030477Y-12404761D01*
X-14554286Y-12404761D01*
X-14363810Y-12309523D01*
X-14268572Y-12214285D01*
X-14173334Y-12023809D01*
X-14173334Y-11833333D01*
X-14268572Y-11642857D01*
X-14363810Y-11547619D01*
X-14554286Y-11452380D01*
X-14935239Y-11357142D01*
X-15125715Y-11261904D01*
X-15220953Y-11166666D01*
X-15316191Y-10976190D01*
X-15316191Y-10785714D01*
X-15220953Y-10595238D01*
X-15125715Y-10500000D01*
X-14935239Y-10404761D01*
X-14459048Y-10404761D01*
X-14173334Y-10500000D01*
X-13601905Y-10404761D02*
X-12459048Y-10404761D01*
X-13030477Y-12404761D02*
X-13030477Y-10404761D01*
X-11792381Y-12404761D02*
X-11792381Y-10404761D01*
X-9697143Y-12214285D02*
X-9792381Y-12309523D01*
X-10078096Y-12404761D01*
X-10268572Y-12404761D01*
X-10554286Y-12309523D01*
X-10744762Y-12119047D01*
X-10840000Y-11928571D01*
X-10935239Y-11547619D01*
X-10935239Y-11261904D01*
X-10840000Y-10880952D01*
X-10744762Y-10690476D01*
X-10554286Y-10500000D01*
X-10268572Y-10404761D01*
X-10078096Y-10404761D01*
X-9792381Y-10500000D01*
X-9697143Y-10595238D01*
X-8935239Y-12309523D02*
X-8649524Y-12404761D01*
X-8173334Y-12404761D01*
X-7982858Y-12309523D01*
X-7887620Y-12214285D01*
X-7792381Y-12023809D01*
X-7792381Y-11833333D01*
X-7887620Y-11642857D01*
X-7982858Y-11547619D01*
X-8173334Y-11452380D01*
X-8554286Y-11357142D01*
X-8744762Y-11261904D01*
X-8840000Y-11166666D01*
X-8935239Y-10976190D01*
X-8935239Y-10785714D01*
X-8840000Y-10595238D01*
X-8744762Y-10500000D01*
X-8554286Y-10404761D01*
X-8078096Y-10404761D01*
X-7792381Y-10500000D01*
D10*
X47880000Y-24428571D02*
X48022857Y-24428571D01*
X48165714Y-24500000D01*
X48237143Y-24571428D01*
X48308571Y-24714285D01*
X48380000Y-25000000D01*
X48380000Y-25357142D01*
X48308571Y-25642857D01*
X48237143Y-25785714D01*
X48165714Y-25857142D01*
X48022857Y-25928571D01*
X47880000Y-25928571D01*
X47737143Y-25857142D01*
X47665714Y-25785714D01*
X47594285Y-25642857D01*
X47522857Y-25357142D01*
X47522857Y-25000000D01*
X47594285Y-24714285D01*
X47665714Y-24571428D01*
X47737143Y-24500000D01*
X47880000Y-24428571D01*
X49022857Y-25785714D02*
X49094285Y-25857142D01*
X49022857Y-25928571D01*
X48951428Y-25857142D01*
X49022857Y-25785714D01*
X49022857Y-25928571D01*
X49665714Y-24571428D02*
X49737143Y-24500000D01*
X49880000Y-24428571D01*
X50237143Y-24428571D01*
X50380000Y-24500000D01*
X50451428Y-24571428D01*
X50522857Y-24714285D01*
X50522857Y-24857142D01*
X50451428Y-25071428D01*
X49594285Y-25928571D01*
X50522857Y-25928571D01*
X51451428Y-24428571D02*
X51594285Y-24428571D01*
X51737143Y-24500000D01*
X51808571Y-24571428D01*
X51880000Y-24714285D01*
X51951428Y-25000000D01*
X51951428Y-25357142D01*
X51880000Y-25642857D01*
X51808571Y-25785714D01*
X51737143Y-25857142D01*
X51594285Y-25928571D01*
X51451428Y-25928571D01*
X51308571Y-25857142D01*
X51237143Y-25785714D01*
X51165714Y-25642857D01*
X51094285Y-25357142D01*
X51094285Y-25000000D01*
X51165714Y-24714285D01*
X51237143Y-24571428D01*
X51308571Y-24500000D01*
X51451428Y-24428571D01*
X52880000Y-24428571D02*
X53022857Y-24428571D01*
X53165714Y-24500000D01*
X53237143Y-24571428D01*
X53308571Y-24714285D01*
X53380000Y-25000000D01*
X53380000Y-25357142D01*
X53308571Y-25642857D01*
X53237143Y-25785714D01*
X53165714Y-25857142D01*
X53022857Y-25928571D01*
X52880000Y-25928571D01*
X52737143Y-25857142D01*
X52665714Y-25785714D01*
X52594285Y-25642857D01*
X52522857Y-25357142D01*
X52522857Y-25000000D01*
X52594285Y-24714285D01*
X52665714Y-24571428D01*
X52737143Y-24500000D01*
X52880000Y-24428571D01*
X54308571Y-24428571D02*
X54451428Y-24428571D01*
X54594285Y-24500000D01*
X54665714Y-24571428D01*
X54737143Y-24714285D01*
X54808571Y-25000000D01*
X54808571Y-25357142D01*
X54737143Y-25642857D01*
X54665714Y-25785714D01*
X54594285Y-25857142D01*
X54451428Y-25928571D01*
X54308571Y-25928571D01*
X54165714Y-25857142D01*
X54094285Y-25785714D01*
X54022857Y-25642857D01*
X53951428Y-25357142D01*
X53951428Y-25000000D01*
X54022857Y-24714285D01*
X54094285Y-24571428D01*
X54165714Y-24500000D01*
X54308571Y-24428571D01*
X56594285Y-25928571D02*
X56594285Y-24928571D01*
X56594285Y-25071428D02*
X56665714Y-25000000D01*
X56808571Y-24928571D01*
X57022857Y-24928571D01*
X57165714Y-25000000D01*
X57237143Y-25142857D01*
X57237143Y-25928571D01*
X57237143Y-25142857D02*
X57308571Y-25000000D01*
X57451428Y-24928571D01*
X57665714Y-24928571D01*
X57808571Y-25000000D01*
X57880000Y-25142857D01*
X57880000Y-25928571D01*
X58594285Y-25928571D02*
X58594285Y-24928571D01*
X58594285Y-25071428D02*
X58665714Y-25000000D01*
X58808571Y-24928571D01*
X59022857Y-24928571D01*
X59165714Y-25000000D01*
X59237143Y-25142857D01*
X59237143Y-25928571D01*
X59237143Y-25142857D02*
X59308571Y-25000000D01*
X59451428Y-24928571D01*
X59665714Y-24928571D01*
X59808571Y-25000000D01*
X59880000Y-25142857D01*
X59880000Y-25928571D01*
X-11020000Y-37859285D02*
X-11020000Y-38573571D01*
X-11520000Y-37073571D02*
X-11020000Y-37859285D01*
X-10520000Y-37073571D01*
X-9448572Y-38502142D02*
X-9591429Y-38573571D01*
X-9877143Y-38573571D01*
X-10020000Y-38502142D01*
X-10091429Y-38359285D01*
X-10091429Y-37787857D01*
X-10020000Y-37645000D01*
X-9877143Y-37573571D01*
X-9591429Y-37573571D01*
X-9448572Y-37645000D01*
X-9377143Y-37787857D01*
X-9377143Y-37930714D01*
X-10091429Y-38073571D01*
X-8805715Y-38502142D02*
X-8662857Y-38573571D01*
X-8377143Y-38573571D01*
X-8234286Y-38502142D01*
X-8162857Y-38359285D01*
X-8162857Y-38287857D01*
X-8234286Y-38145000D01*
X-8377143Y-38073571D01*
X-8591429Y-38073571D01*
X-8734286Y-38002142D01*
X-8805715Y-37859285D01*
X-8805715Y-37787857D01*
X-8734286Y-37645000D01*
X-8591429Y-37573571D01*
X-8377143Y-37573571D01*
X-8234286Y-37645000D01*
X-7448572Y-38502142D02*
X-7448572Y-38573571D01*
X-7520000Y-38716428D01*
X-7591429Y-38787857D01*
X-5162857Y-37787857D02*
X-4948572Y-37859285D01*
X-4877143Y-37930714D01*
X-4805715Y-38073571D01*
X-4805715Y-38287857D01*
X-4877143Y-38430714D01*
X-4948572Y-38502142D01*
X-5091429Y-38573571D01*
X-5662857Y-38573571D01*
X-5662857Y-37073571D01*
X-5162857Y-37073571D01*
X-5020000Y-37145000D01*
X-4948572Y-37216428D01*
X-4877143Y-37359285D01*
X-4877143Y-37502142D01*
X-4948572Y-37645000D01*
X-5020000Y-37716428D01*
X-5162857Y-37787857D01*
X-5662857Y-37787857D01*
X-3591429Y-38502142D02*
X-3734286Y-38573571D01*
X-4020000Y-38573571D01*
X-4162857Y-38502142D01*
X-4234286Y-38359285D01*
X-4234286Y-37787857D01*
X-4162857Y-37645000D01*
X-4020000Y-37573571D01*
X-3734286Y-37573571D01*
X-3591429Y-37645000D01*
X-3520000Y-37787857D01*
X-3520000Y-37930714D01*
X-4234286Y-38073571D01*
X-3020000Y-37573571D02*
X-2662857Y-38573571D01*
X-2305715Y-37573571D01*
X-1162857Y-38502142D02*
X-1305715Y-38573571D01*
X-1591429Y-38573571D01*
X-1734286Y-38502142D01*
X-1805715Y-38359285D01*
X-1805715Y-37787857D01*
X-1734286Y-37645000D01*
X-1591429Y-37573571D01*
X-1305715Y-37573571D01*
X-1162857Y-37645000D01*
X-1091429Y-37787857D01*
X-1091429Y-37930714D01*
X-1805715Y-38073571D01*
X-234286Y-38573571D02*
X-377143Y-38502142D01*
X-448572Y-38359285D01*
X-448572Y-37073571D01*
X551428Y-38573571D02*
X408571Y-38502142D01*
X337143Y-38359285D01*
X337143Y-37073571D01*
X1694285Y-38502142D02*
X1551428Y-38573571D01*
X1265714Y-38573571D01*
X1122857Y-38502142D01*
X1051428Y-38359285D01*
X1051428Y-37787857D01*
X1122857Y-37645000D01*
X1265714Y-37573571D01*
X1551428Y-37573571D01*
X1694285Y-37645000D01*
X1765714Y-37787857D01*
X1765714Y-37930714D01*
X1051428Y-38073571D01*
X3051428Y-38573571D02*
X3051428Y-37073571D01*
X3051428Y-38502142D02*
X2908571Y-38573571D01*
X2622857Y-38573571D01*
X2480000Y-38502142D01*
X2408571Y-38430714D01*
X2337143Y-38287857D01*
X2337143Y-37859285D01*
X2408571Y-37716428D01*
X2480000Y-37645000D01*
X2622857Y-37573571D01*
X2908571Y-37573571D01*
X3051428Y-37645000D01*
X22751428Y-30143571D02*
X22751428Y-28643571D01*
X23465714Y-30143571D02*
X23465714Y-29143571D01*
X23465714Y-29286428D02*
X23537143Y-29215000D01*
X23680000Y-29143571D01*
X23894286Y-29143571D01*
X24037143Y-29215000D01*
X24108571Y-29357857D01*
X24108571Y-30143571D01*
X24108571Y-29357857D02*
X24180000Y-29215000D01*
X24322857Y-29143571D01*
X24537143Y-29143571D01*
X24680000Y-29215000D01*
X24751428Y-29357857D01*
X24751428Y-30143571D01*
X25465714Y-29143571D02*
X25465714Y-30643571D01*
X25465714Y-29215000D02*
X25608571Y-29143571D01*
X25894286Y-29143571D01*
X26037143Y-29215000D01*
X26108571Y-29286428D01*
X26180000Y-29429285D01*
X26180000Y-29857857D01*
X26108571Y-30000714D01*
X26037143Y-30072142D01*
X25894286Y-30143571D01*
X25608571Y-30143571D01*
X25465714Y-30072142D01*
X27394286Y-30072142D02*
X27251428Y-30143571D01*
X26965714Y-30143571D01*
X26822857Y-30072142D01*
X26751428Y-29929285D01*
X26751428Y-29357857D01*
X26822857Y-29215000D01*
X26965714Y-29143571D01*
X27251428Y-29143571D01*
X27394286Y-29215000D01*
X27465714Y-29357857D01*
X27465714Y-29500714D01*
X26751428Y-29643571D01*
X28751428Y-30143571D02*
X28751428Y-28643571D01*
X28751428Y-30072142D02*
X28608571Y-30143571D01*
X28322857Y-30143571D01*
X28180000Y-30072142D01*
X28108571Y-30000714D01*
X28037143Y-29857857D01*
X28037143Y-29429285D01*
X28108571Y-29286428D01*
X28180000Y-29215000D01*
X28322857Y-29143571D01*
X28608571Y-29143571D01*
X28751428Y-29215000D01*
X30108571Y-30143571D02*
X30108571Y-29357857D01*
X30037143Y-29215000D01*
X29894286Y-29143571D01*
X29608571Y-29143571D01*
X29465714Y-29215000D01*
X30108571Y-30072142D02*
X29965714Y-30143571D01*
X29608571Y-30143571D01*
X29465714Y-30072142D01*
X29394286Y-29929285D01*
X29394286Y-29786428D01*
X29465714Y-29643571D01*
X29608571Y-29572142D01*
X29965714Y-29572142D01*
X30108571Y-29500714D01*
X30822857Y-29143571D02*
X30822857Y-30143571D01*
X30822857Y-29286428D02*
X30894286Y-29215000D01*
X31037143Y-29143571D01*
X31251428Y-29143571D01*
X31394286Y-29215000D01*
X31465714Y-29357857D01*
X31465714Y-30143571D01*
X32822857Y-30072142D02*
X32680000Y-30143571D01*
X32394286Y-30143571D01*
X32251428Y-30072142D01*
X32180000Y-30000714D01*
X32108571Y-29857857D01*
X32108571Y-29429285D01*
X32180000Y-29286428D01*
X32251428Y-29215000D01*
X32394286Y-29143571D01*
X32680000Y-29143571D01*
X32822857Y-29215000D01*
X34037143Y-30072142D02*
X33894286Y-30143571D01*
X33608571Y-30143571D01*
X33465714Y-30072142D01*
X33394286Y-29929285D01*
X33394286Y-29357857D01*
X33465714Y-29215000D01*
X33608571Y-29143571D01*
X33894286Y-29143571D01*
X34037143Y-29215000D01*
X34108571Y-29357857D01*
X34108571Y-29500714D01*
X33394286Y-29643571D01*
X36751428Y-30000714D02*
X36680000Y-30072142D01*
X36465714Y-30143571D01*
X36322857Y-30143571D01*
X36108571Y-30072142D01*
X35965714Y-29929285D01*
X35894286Y-29786428D01*
X35822857Y-29500714D01*
X35822857Y-29286428D01*
X35894286Y-29000714D01*
X35965714Y-28857857D01*
X36108571Y-28715000D01*
X36322857Y-28643571D01*
X36465714Y-28643571D01*
X36680000Y-28715000D01*
X36751428Y-28786428D01*
X37608571Y-30143571D02*
X37465714Y-30072142D01*
X37394286Y-30000714D01*
X37322857Y-29857857D01*
X37322857Y-29429285D01*
X37394286Y-29286428D01*
X37465714Y-29215000D01*
X37608571Y-29143571D01*
X37822857Y-29143571D01*
X37965714Y-29215000D01*
X38037143Y-29286428D01*
X38108571Y-29429285D01*
X38108571Y-29857857D01*
X38037143Y-30000714D01*
X37965714Y-30072142D01*
X37822857Y-30143571D01*
X37608571Y-30143571D01*
X38751428Y-29143571D02*
X38751428Y-30143571D01*
X38751428Y-29286428D02*
X38822857Y-29215000D01*
X38965714Y-29143571D01*
X39180000Y-29143571D01*
X39322857Y-29215000D01*
X39394286Y-29357857D01*
X39394286Y-30143571D01*
X39894286Y-29143571D02*
X40465714Y-29143571D01*
X40108571Y-28643571D02*
X40108571Y-29929285D01*
X40180000Y-30072142D01*
X40322857Y-30143571D01*
X40465714Y-30143571D01*
X40965714Y-30143571D02*
X40965714Y-29143571D01*
X40965714Y-29429285D02*
X41037143Y-29286428D01*
X41108571Y-29215000D01*
X41251428Y-29143571D01*
X41394286Y-29143571D01*
X42108571Y-30143571D02*
X41965714Y-30072142D01*
X41894286Y-30000714D01*
X41822857Y-29857857D01*
X41822857Y-29429285D01*
X41894286Y-29286428D01*
X41965714Y-29215000D01*
X42108571Y-29143571D01*
X42322857Y-29143571D01*
X42465714Y-29215000D01*
X42537143Y-29286428D01*
X42608571Y-29429285D01*
X42608571Y-29857857D01*
X42537143Y-30000714D01*
X42465714Y-30072142D01*
X42322857Y-30143571D01*
X42108571Y-30143571D01*
X43465714Y-30143571D02*
X43322857Y-30072142D01*
X43251428Y-29929285D01*
X43251428Y-28643571D01*
X44037143Y-30000714D02*
X44108571Y-30072142D01*
X44037143Y-30143571D01*
X43965714Y-30072142D01*
X44037143Y-30000714D01*
X44037143Y-30143571D01*
X44037143Y-29215000D02*
X44108571Y-29286428D01*
X44037143Y-29357857D01*
X43965714Y-29286428D01*
X44037143Y-29215000D01*
X44037143Y-29357857D01*
X-43005715Y-34215714D02*
X-43077143Y-34287142D01*
X-43291429Y-34358571D01*
X-43434286Y-34358571D01*
X-43648572Y-34287142D01*
X-43791429Y-34144285D01*
X-43862858Y-34001428D01*
X-43934286Y-33715714D01*
X-43934286Y-33501428D01*
X-43862858Y-33215714D01*
X-43791429Y-33072857D01*
X-43648572Y-32930000D01*
X-43434286Y-32858571D01*
X-43291429Y-32858571D01*
X-43077143Y-32930000D01*
X-43005715Y-33001428D01*
X-41720000Y-34358571D02*
X-41720000Y-33572857D01*
X-41791429Y-33430000D01*
X-41934286Y-33358571D01*
X-42220000Y-33358571D01*
X-42362858Y-33430000D01*
X-41720000Y-34287142D02*
X-41862858Y-34358571D01*
X-42220000Y-34358571D01*
X-42362858Y-34287142D01*
X-42434286Y-34144285D01*
X-42434286Y-34001428D01*
X-42362858Y-33858571D01*
X-42220000Y-33787142D01*
X-41862858Y-33787142D01*
X-41720000Y-33715714D01*
X-41077143Y-34287142D02*
X-40934286Y-34358571D01*
X-40648572Y-34358571D01*
X-40505715Y-34287142D01*
X-40434286Y-34144285D01*
X-40434286Y-34072857D01*
X-40505715Y-33930000D01*
X-40648572Y-33858571D01*
X-40862858Y-33858571D01*
X-41005715Y-33787142D01*
X-41077143Y-33644285D01*
X-41077143Y-33572857D01*
X-41005715Y-33430000D01*
X-40862858Y-33358571D01*
X-40648572Y-33358571D01*
X-40505715Y-33430000D01*
X-40005715Y-33358571D02*
X-39434286Y-33358571D01*
X-39791429Y-32858571D02*
X-39791429Y-34144285D01*
X-39720000Y-34287142D01*
X-39577143Y-34358571D01*
X-39434286Y-34358571D01*
X-38362858Y-34287142D02*
X-38505715Y-34358571D01*
X-38791429Y-34358571D01*
X-38934286Y-34287142D01*
X-39005715Y-34144285D01*
X-39005715Y-33572857D01*
X-38934286Y-33430000D01*
X-38791429Y-33358571D01*
X-38505715Y-33358571D01*
X-38362858Y-33430000D01*
X-38291429Y-33572857D01*
X-38291429Y-33715714D01*
X-39005715Y-33858571D01*
X-37434286Y-34358571D02*
X-37577143Y-34287142D01*
X-37648572Y-34144285D01*
X-37648572Y-32858571D01*
X-36648572Y-34358571D02*
X-36791429Y-34287142D01*
X-36862858Y-34144285D01*
X-36862858Y-32858571D01*
X-35434286Y-34358571D02*
X-35434286Y-33572857D01*
X-35505715Y-33430000D01*
X-35648572Y-33358571D01*
X-35934286Y-33358571D01*
X-36077143Y-33430000D01*
X-35434286Y-34287142D02*
X-35577143Y-34358571D01*
X-35934286Y-34358571D01*
X-36077143Y-34287142D01*
X-36148572Y-34144285D01*
X-36148572Y-34001428D01*
X-36077143Y-33858571D01*
X-35934286Y-33787142D01*
X-35577143Y-33787142D01*
X-35434286Y-33715714D01*
X-34934286Y-33358571D02*
X-34362858Y-33358571D01*
X-34720000Y-32858571D02*
X-34720000Y-34144285D01*
X-34648572Y-34287142D01*
X-34505715Y-34358571D01*
X-34362858Y-34358571D01*
X-33291429Y-34287142D02*
X-33434286Y-34358571D01*
X-33720000Y-34358571D01*
X-33862858Y-34287142D01*
X-33934286Y-34144285D01*
X-33934286Y-33572857D01*
X-33862858Y-33430000D01*
X-33720000Y-33358571D01*
X-33434286Y-33358571D01*
X-33291429Y-33430000D01*
X-33220000Y-33572857D01*
X-33220000Y-33715714D01*
X-33934286Y-33858571D01*
X-31934286Y-34358571D02*
X-31934286Y-32858571D01*
X-31934286Y-34287142D02*
X-32077143Y-34358571D01*
X-32362858Y-34358571D01*
X-32505715Y-34287142D01*
X-32577143Y-34215714D01*
X-32648572Y-34072857D01*
X-32648572Y-33644285D01*
X-32577143Y-33501428D01*
X-32505715Y-33430000D01*
X-32362858Y-33358571D01*
X-32077143Y-33358571D01*
X-31934286Y-33430000D01*
X-30077143Y-33358571D02*
X-30077143Y-34858571D01*
X-30077143Y-33430000D02*
X-29934286Y-33358571D01*
X-29648572Y-33358571D01*
X-29505715Y-33430000D01*
X-29434286Y-33501428D01*
X-29362858Y-33644285D01*
X-29362858Y-34072857D01*
X-29434286Y-34215714D01*
X-29505715Y-34287142D01*
X-29648572Y-34358571D01*
X-29934286Y-34358571D01*
X-30077143Y-34287142D01*
X-28077143Y-34358571D02*
X-28077143Y-33572857D01*
X-28148572Y-33430000D01*
X-28291429Y-33358571D01*
X-28577143Y-33358571D01*
X-28720000Y-33430000D01*
X-28077143Y-34287142D02*
X-28220000Y-34358571D01*
X-28577143Y-34358571D01*
X-28720000Y-34287142D01*
X-28791429Y-34144285D01*
X-28791429Y-34001428D01*
X-28720000Y-33858571D01*
X-28577143Y-33787142D01*
X-28220000Y-33787142D01*
X-28077143Y-33715714D01*
X-26720000Y-34358571D02*
X-26720000Y-32858571D01*
X-26720000Y-34287142D02*
X-26862858Y-34358571D01*
X-27148572Y-34358571D01*
X-27291429Y-34287142D01*
X-27362858Y-34215714D01*
X-27434286Y-34072857D01*
X-27434286Y-33644285D01*
X-27362858Y-33501428D01*
X-27291429Y-33430000D01*
X-27148572Y-33358571D01*
X-26862858Y-33358571D01*
X-26720000Y-33430000D01*
X-26077143Y-34287142D02*
X-25934286Y-34358571D01*
X-25648572Y-34358571D01*
X-25505715Y-34287142D01*
X-25434286Y-34144285D01*
X-25434286Y-34072857D01*
X-25505715Y-33930000D01*
X-25648572Y-33858571D01*
X-25862858Y-33858571D01*
X-26005715Y-33787142D01*
X-26077143Y-33644285D01*
X-26077143Y-33572857D01*
X-26005715Y-33430000D01*
X-25862858Y-33358571D01*
X-25648572Y-33358571D01*
X-25505715Y-33430000D01*
X-24791429Y-34215714D02*
X-24720000Y-34287142D01*
X-24791429Y-34358571D01*
X-24862858Y-34287142D01*
X-24791429Y-34215714D01*
X-24791429Y-34358571D01*
X-24791429Y-33430000D02*
X-24720000Y-33501428D01*
X-24791429Y-33572857D01*
X-24862858Y-33501428D01*
X-24791429Y-33430000D01*
X-24791429Y-33572857D01*
X-43005715Y-17355714D02*
X-43077143Y-17427142D01*
X-43291429Y-17498571D01*
X-43434286Y-17498571D01*
X-43648572Y-17427142D01*
X-43791429Y-17284285D01*
X-43862858Y-17141428D01*
X-43934286Y-16855714D01*
X-43934286Y-16641428D01*
X-43862858Y-16355714D01*
X-43791429Y-16212857D01*
X-43648572Y-16070000D01*
X-43434286Y-15998571D01*
X-43291429Y-15998571D01*
X-43077143Y-16070000D01*
X-43005715Y-16141428D01*
X-42148572Y-17498571D02*
X-42291429Y-17427142D01*
X-42362858Y-17355714D01*
X-42434286Y-17212857D01*
X-42434286Y-16784285D01*
X-42362858Y-16641428D01*
X-42291429Y-16570000D01*
X-42148572Y-16498571D01*
X-41934286Y-16498571D01*
X-41791429Y-16570000D01*
X-41720000Y-16641428D01*
X-41648572Y-16784285D01*
X-41648572Y-17212857D01*
X-41720000Y-17355714D01*
X-41791429Y-17427142D01*
X-41934286Y-17498571D01*
X-42148572Y-17498571D01*
X-41005715Y-16498571D02*
X-41005715Y-17998571D01*
X-41005715Y-16570000D02*
X-40862858Y-16498571D01*
X-40577143Y-16498571D01*
X-40434286Y-16570000D01*
X-40362858Y-16641428D01*
X-40291429Y-16784285D01*
X-40291429Y-17212857D01*
X-40362858Y-17355714D01*
X-40434286Y-17427142D01*
X-40577143Y-17498571D01*
X-40862858Y-17498571D01*
X-41005715Y-17427142D01*
X-39648572Y-16498571D02*
X-39648572Y-17998571D01*
X-39648572Y-16570000D02*
X-39505715Y-16498571D01*
X-39220000Y-16498571D01*
X-39077143Y-16570000D01*
X-39005715Y-16641428D01*
X-38934286Y-16784285D01*
X-38934286Y-17212857D01*
X-39005715Y-17355714D01*
X-39077143Y-17427142D01*
X-39220000Y-17498571D01*
X-39505715Y-17498571D01*
X-39648572Y-17427142D01*
X-37720000Y-17427142D02*
X-37862858Y-17498571D01*
X-38148572Y-17498571D01*
X-38291429Y-17427142D01*
X-38362858Y-17284285D01*
X-38362858Y-16712857D01*
X-38291429Y-16570000D01*
X-38148572Y-16498571D01*
X-37862858Y-16498571D01*
X-37720000Y-16570000D01*
X-37648572Y-16712857D01*
X-37648572Y-16855714D01*
X-38362858Y-16998571D01*
X-37005715Y-17498571D02*
X-37005715Y-16498571D01*
X-37005715Y-16784285D02*
X-36934286Y-16641428D01*
X-36862858Y-16570000D01*
X-36720000Y-16498571D01*
X-36577143Y-16498571D01*
X-34220000Y-17498571D02*
X-34934286Y-17498571D01*
X-34934286Y-15998571D01*
X-33077143Y-17498571D02*
X-33077143Y-16712857D01*
X-33148572Y-16570000D01*
X-33291429Y-16498571D01*
X-33577143Y-16498571D01*
X-33720000Y-16570000D01*
X-33077143Y-17427142D02*
X-33220000Y-17498571D01*
X-33577143Y-17498571D01*
X-33720000Y-17427142D01*
X-33791429Y-17284285D01*
X-33791429Y-17141428D01*
X-33720000Y-16998571D01*
X-33577143Y-16927142D01*
X-33220000Y-16927142D01*
X-33077143Y-16855714D01*
X-32505715Y-16498571D02*
X-32148572Y-17498571D01*
X-31791429Y-16498571D02*
X-32148572Y-17498571D01*
X-32291429Y-17855714D01*
X-32362858Y-17927142D01*
X-32505715Y-17998571D01*
X-30648572Y-17427142D02*
X-30791429Y-17498571D01*
X-31077143Y-17498571D01*
X-31220000Y-17427142D01*
X-31291429Y-17284285D01*
X-31291429Y-16712857D01*
X-31220000Y-16570000D01*
X-31077143Y-16498571D01*
X-30791429Y-16498571D01*
X-30648572Y-16570000D01*
X-30577143Y-16712857D01*
X-30577143Y-16855714D01*
X-31291429Y-16998571D01*
X-29934286Y-17498571D02*
X-29934286Y-16498571D01*
X-29934286Y-16784285D02*
X-29862858Y-16641428D01*
X-29791429Y-16570000D01*
X-29648572Y-16498571D01*
X-29505715Y-16498571D01*
X-27005715Y-17355714D02*
X-27077143Y-17427142D01*
X-27291429Y-17498571D01*
X-27434286Y-17498571D01*
X-27648572Y-17427142D01*
X-27791429Y-17284285D01*
X-27862858Y-17141428D01*
X-27934286Y-16855714D01*
X-27934286Y-16641428D01*
X-27862858Y-16355714D01*
X-27791429Y-16212857D01*
X-27648572Y-16070000D01*
X-27434286Y-15998571D01*
X-27291429Y-15998571D01*
X-27077143Y-16070000D01*
X-27005715Y-16141428D01*
X-26148572Y-17498571D02*
X-26291429Y-17427142D01*
X-26362858Y-17355714D01*
X-26434286Y-17212857D01*
X-26434286Y-16784285D01*
X-26362858Y-16641428D01*
X-26291429Y-16570000D01*
X-26148572Y-16498571D01*
X-25934286Y-16498571D01*
X-25791429Y-16570000D01*
X-25720000Y-16641428D01*
X-25648572Y-16784285D01*
X-25648572Y-17212857D01*
X-25720000Y-17355714D01*
X-25791429Y-17427142D01*
X-25934286Y-17498571D01*
X-26148572Y-17498571D01*
X-24362858Y-16498571D02*
X-24362858Y-17498571D01*
X-25005715Y-16498571D02*
X-25005715Y-17284285D01*
X-24934286Y-17427142D01*
X-24791429Y-17498571D01*
X-24577143Y-17498571D01*
X-24434286Y-17427142D01*
X-24362858Y-17355714D01*
X-23648572Y-16498571D02*
X-23648572Y-17498571D01*
X-23648572Y-16641428D02*
X-23577143Y-16570000D01*
X-23434286Y-16498571D01*
X-23220000Y-16498571D01*
X-23077143Y-16570000D01*
X-23005715Y-16712857D01*
X-23005715Y-17498571D01*
X-22505715Y-16498571D02*
X-21934286Y-16498571D01*
X-22291429Y-15998571D02*
X-22291429Y-17284285D01*
X-22220000Y-17427142D01*
X-22077143Y-17498571D01*
X-21934286Y-17498571D01*
X-21434286Y-17355714D02*
X-21362858Y-17427142D01*
X-21434286Y-17498571D01*
X-21505715Y-17427142D01*
X-21434286Y-17355714D01*
X-21434286Y-17498571D01*
X-21434286Y-16570000D02*
X-21362858Y-16641428D01*
X-21434286Y-16712857D01*
X-21505715Y-16641428D01*
X-21434286Y-16570000D01*
X-21434286Y-16712857D01*
X22751428Y-34358571D02*
X22751428Y-32858571D01*
X23322857Y-32858571D01*
X23465714Y-32930000D01*
X23537143Y-33001428D01*
X23608571Y-33144285D01*
X23608571Y-33358571D01*
X23537143Y-33501428D01*
X23465714Y-33572857D01*
X23322857Y-33644285D01*
X22751428Y-33644285D01*
X24465714Y-34358571D02*
X24322857Y-34287142D01*
X24251428Y-34144285D01*
X24251428Y-32858571D01*
X25680000Y-34358571D02*
X25680000Y-33572857D01*
X25608571Y-33430000D01*
X25465714Y-33358571D01*
X25180000Y-33358571D01*
X25037143Y-33430000D01*
X25680000Y-34287142D02*
X25537143Y-34358571D01*
X25180000Y-34358571D01*
X25037143Y-34287142D01*
X24965714Y-34144285D01*
X24965714Y-34001428D01*
X25037143Y-33858571D01*
X25180000Y-33787142D01*
X25537143Y-33787142D01*
X25680000Y-33715714D01*
X26180000Y-33358571D02*
X26751428Y-33358571D01*
X26394286Y-32858571D02*
X26394286Y-34144285D01*
X26465714Y-34287142D01*
X26608571Y-34358571D01*
X26751428Y-34358571D01*
X27822857Y-34287142D02*
X27680000Y-34358571D01*
X27394286Y-34358571D01*
X27251428Y-34287142D01*
X27180000Y-34144285D01*
X27180000Y-33572857D01*
X27251428Y-33430000D01*
X27394286Y-33358571D01*
X27680000Y-33358571D01*
X27822857Y-33430000D01*
X27894286Y-33572857D01*
X27894286Y-33715714D01*
X27180000Y-33858571D01*
X29180000Y-34358571D02*
X29180000Y-32858571D01*
X29180000Y-34287142D02*
X29037143Y-34358571D01*
X28751428Y-34358571D01*
X28608571Y-34287142D01*
X28537143Y-34215714D01*
X28465714Y-34072857D01*
X28465714Y-33644285D01*
X28537143Y-33501428D01*
X28608571Y-33430000D01*
X28751428Y-33358571D01*
X29037143Y-33358571D01*
X29180000Y-33430000D01*
X31537143Y-33572857D02*
X31751428Y-33644285D01*
X31822857Y-33715714D01*
X31894286Y-33858571D01*
X31894286Y-34072857D01*
X31822857Y-34215714D01*
X31751428Y-34287142D01*
X31608571Y-34358571D01*
X31037143Y-34358571D01*
X31037143Y-32858571D01*
X31537143Y-32858571D01*
X31680000Y-32930000D01*
X31751428Y-33001428D01*
X31822857Y-33144285D01*
X31822857Y-33287142D01*
X31751428Y-33430000D01*
X31680000Y-33501428D01*
X31537143Y-33572857D01*
X31037143Y-33572857D01*
X32751428Y-34358571D02*
X32608571Y-34287142D01*
X32537143Y-34215714D01*
X32465714Y-34072857D01*
X32465714Y-33644285D01*
X32537143Y-33501428D01*
X32608571Y-33430000D01*
X32751428Y-33358571D01*
X32965714Y-33358571D01*
X33108571Y-33430000D01*
X33180000Y-33501428D01*
X33251428Y-33644285D01*
X33251428Y-34072857D01*
X33180000Y-34215714D01*
X33108571Y-34287142D01*
X32965714Y-34358571D01*
X32751428Y-34358571D01*
X34537143Y-34358571D02*
X34537143Y-33572857D01*
X34465714Y-33430000D01*
X34322857Y-33358571D01*
X34037143Y-33358571D01*
X33894286Y-33430000D01*
X34537143Y-34287142D02*
X34394286Y-34358571D01*
X34037143Y-34358571D01*
X33894286Y-34287142D01*
X33822857Y-34144285D01*
X33822857Y-34001428D01*
X33894286Y-33858571D01*
X34037143Y-33787142D01*
X34394286Y-33787142D01*
X34537143Y-33715714D01*
X35251428Y-34358571D02*
X35251428Y-33358571D01*
X35251428Y-33644285D02*
X35322857Y-33501428D01*
X35394286Y-33430000D01*
X35537143Y-33358571D01*
X35680000Y-33358571D01*
X36822857Y-34358571D02*
X36822857Y-32858571D01*
X36822857Y-34287142D02*
X36680000Y-34358571D01*
X36394286Y-34358571D01*
X36251428Y-34287142D01*
X36180000Y-34215714D01*
X36108571Y-34072857D01*
X36108571Y-33644285D01*
X36180000Y-33501428D01*
X36251428Y-33430000D01*
X36394286Y-33358571D01*
X36680000Y-33358571D01*
X36822857Y-33430000D01*
X38680000Y-33572857D02*
X39180000Y-33572857D01*
X39394286Y-34358571D02*
X38680000Y-34358571D01*
X38680000Y-32858571D01*
X39394286Y-32858571D01*
X40680000Y-34358571D02*
X40680000Y-32858571D01*
X40680000Y-34287142D02*
X40537143Y-34358571D01*
X40251428Y-34358571D01*
X40108571Y-34287142D01*
X40037143Y-34215714D01*
X39965714Y-34072857D01*
X39965714Y-33644285D01*
X40037143Y-33501428D01*
X40108571Y-33430000D01*
X40251428Y-33358571D01*
X40537143Y-33358571D01*
X40680000Y-33430000D01*
X42037143Y-33358571D02*
X42037143Y-34572857D01*
X41965714Y-34715714D01*
X41894286Y-34787142D01*
X41751428Y-34858571D01*
X41537143Y-34858571D01*
X41394286Y-34787142D01*
X42037143Y-34287142D02*
X41894286Y-34358571D01*
X41608571Y-34358571D01*
X41465714Y-34287142D01*
X41394286Y-34215714D01*
X41322857Y-34072857D01*
X41322857Y-33644285D01*
X41394286Y-33501428D01*
X41465714Y-33430000D01*
X41608571Y-33358571D01*
X41894286Y-33358571D01*
X42037143Y-33430000D01*
X43322857Y-34287142D02*
X43180000Y-34358571D01*
X42894286Y-34358571D01*
X42751428Y-34287142D01*
X42680000Y-34144285D01*
X42680000Y-33572857D01*
X42751428Y-33430000D01*
X42894286Y-33358571D01*
X43180000Y-33358571D01*
X43322857Y-33430000D01*
X43394286Y-33572857D01*
X43394286Y-33715714D01*
X42680000Y-33858571D01*
X44037143Y-34215714D02*
X44108571Y-34287142D01*
X44037143Y-34358571D01*
X43965714Y-34287142D01*
X44037143Y-34215714D01*
X44037143Y-34358571D01*
X44037143Y-33430000D02*
X44108571Y-33501428D01*
X44037143Y-33572857D01*
X43965714Y-33501428D01*
X44037143Y-33430000D01*
X44037143Y-33572857D01*
X-11020000Y-24428571D02*
X-10877143Y-24428571D01*
X-10734286Y-24500000D01*
X-10662857Y-24571428D01*
X-10591429Y-24714285D01*
X-10520000Y-25000000D01*
X-10520000Y-25357142D01*
X-10591429Y-25642857D01*
X-10662857Y-25785714D01*
X-10734286Y-25857142D01*
X-10877143Y-25928571D01*
X-11020000Y-25928571D01*
X-11162857Y-25857142D01*
X-11234286Y-25785714D01*
X-11305715Y-25642857D01*
X-11377143Y-25357142D01*
X-11377143Y-25000000D01*
X-11305715Y-24714285D01*
X-11234286Y-24571428D01*
X-11162857Y-24500000D01*
X-11020000Y-24428571D01*
X-9877143Y-25785714D02*
X-9805715Y-25857142D01*
X-9877143Y-25928571D01*
X-9948572Y-25857142D01*
X-9877143Y-25785714D01*
X-9877143Y-25928571D01*
X-8877143Y-24428571D02*
X-8734286Y-24428571D01*
X-8591429Y-24500000D01*
X-8520000Y-24571428D01*
X-8448572Y-24714285D01*
X-8377143Y-25000000D01*
X-8377143Y-25357142D01*
X-8448572Y-25642857D01*
X-8520000Y-25785714D01*
X-8591429Y-25857142D01*
X-8734286Y-25928571D01*
X-8877143Y-25928571D01*
X-9020000Y-25857142D01*
X-9091429Y-25785714D01*
X-9162857Y-25642857D01*
X-9234286Y-25357142D01*
X-9234286Y-25000000D01*
X-9162857Y-24714285D01*
X-9091429Y-24571428D01*
X-9020000Y-24500000D01*
X-8877143Y-24428571D01*
X-7520000Y-25071428D02*
X-7662857Y-25000000D01*
X-7734286Y-24928571D01*
X-7805715Y-24785714D01*
X-7805715Y-24714285D01*
X-7734286Y-24571428D01*
X-7662857Y-24500000D01*
X-7520000Y-24428571D01*
X-7234286Y-24428571D01*
X-7091429Y-24500000D01*
X-7020000Y-24571428D01*
X-6948572Y-24714285D01*
X-6948572Y-24785714D01*
X-7020000Y-24928571D01*
X-7091429Y-25000000D01*
X-7234286Y-25071428D01*
X-7520000Y-25071428D01*
X-7662857Y-25142857D01*
X-7734286Y-25214285D01*
X-7805715Y-25357142D01*
X-7805715Y-25642857D01*
X-7734286Y-25785714D01*
X-7662857Y-25857142D01*
X-7520000Y-25928571D01*
X-7234286Y-25928571D01*
X-7091429Y-25857142D01*
X-7020000Y-25785714D01*
X-6948572Y-25642857D01*
X-6948572Y-25357142D01*
X-7020000Y-25214285D01*
X-7091429Y-25142857D01*
X-7234286Y-25071428D01*
X-6091429Y-25071428D02*
X-6234286Y-25000000D01*
X-6305715Y-24928571D01*
X-6377143Y-24785714D01*
X-6377143Y-24714285D01*
X-6305715Y-24571428D01*
X-6234286Y-24500000D01*
X-6091429Y-24428571D01*
X-5805715Y-24428571D01*
X-5662857Y-24500000D01*
X-5591429Y-24571428D01*
X-5520000Y-24714285D01*
X-5520000Y-24785714D01*
X-5591429Y-24928571D01*
X-5662857Y-25000000D01*
X-5805715Y-25071428D01*
X-6091429Y-25071428D01*
X-6234286Y-25142857D01*
X-6305715Y-25214285D01*
X-6377143Y-25357142D01*
X-6377143Y-25642857D01*
X-6305715Y-25785714D01*
X-6234286Y-25857142D01*
X-6091429Y-25928571D01*
X-5805715Y-25928571D01*
X-5662857Y-25857142D01*
X-5591429Y-25785714D01*
X-5520000Y-25642857D01*
X-5520000Y-25357142D01*
X-5591429Y-25214285D01*
X-5662857Y-25142857D01*
X-5805715Y-25071428D01*
X-4805715Y-25928571D02*
X-4520000Y-25928571D01*
X-4377143Y-25857142D01*
X-4305715Y-25785714D01*
X-4162857Y-25571428D01*
X-4091429Y-25285714D01*
X-4091429Y-24714285D01*
X-4162857Y-24571428D01*
X-4234286Y-24500000D01*
X-4377143Y-24428571D01*
X-4662857Y-24428571D01*
X-4805715Y-24500000D01*
X-4877143Y-24571428D01*
X-4948572Y-24714285D01*
X-4948572Y-25071428D01*
X-4877143Y-25214285D01*
X-4805715Y-25285714D01*
X-4662857Y-25357142D01*
X-4377143Y-25357142D01*
X-4234286Y-25285714D01*
X-4162857Y-25214285D01*
X-4091429Y-25071428D01*
X-2305715Y-25928571D02*
X-2305715Y-24928571D01*
X-2305715Y-25071428D02*
X-2234286Y-25000000D01*
X-2091429Y-24928571D01*
X-1877143Y-24928571D01*
X-1734286Y-25000000D01*
X-1662857Y-25142857D01*
X-1662857Y-25928571D01*
X-1662857Y-25142857D02*
X-1591429Y-25000000D01*
X-1448572Y-24928571D01*
X-1234286Y-24928571D01*
X-1091429Y-25000000D01*
X-1020000Y-25142857D01*
X-1020000Y-25928571D01*
X-305715Y-25928571D02*
X-305715Y-24928571D01*
X-305715Y-25071428D02*
X-234286Y-25000000D01*
X-91429Y-24928571D01*
X122857Y-24928571D01*
X265714Y-25000000D01*
X337143Y-25142857D01*
X337143Y-25928571D01*
X337143Y-25142857D02*
X408571Y-25000000D01*
X551428Y-24928571D01*
X765714Y-24928571D01*
X908571Y-25000000D01*
X980000Y-25142857D01*
X980000Y-25928571D01*
X3908571Y-24357142D02*
X2622857Y-26285714D01*
X5837143Y-24428571D02*
X5980000Y-24428571D01*
X6122857Y-24500000D01*
X6194285Y-24571428D01*
X6265714Y-24714285D01*
X6337143Y-25000000D01*
X6337143Y-25357142D01*
X6265714Y-25642857D01*
X6194285Y-25785714D01*
X6122857Y-25857142D01*
X5980000Y-25928571D01*
X5837143Y-25928571D01*
X5694285Y-25857142D01*
X5622857Y-25785714D01*
X5551428Y-25642857D01*
X5480000Y-25357142D01*
X5480000Y-25000000D01*
X5551428Y-24714285D01*
X5622857Y-24571428D01*
X5694285Y-24500000D01*
X5837143Y-24428571D01*
X6980000Y-25785714D02*
X7051428Y-25857142D01*
X6980000Y-25928571D01*
X6908571Y-25857142D01*
X6980000Y-25785714D01*
X6980000Y-25928571D01*
X7980000Y-24428571D02*
X8122857Y-24428571D01*
X8265714Y-24500000D01*
X8337143Y-24571428D01*
X8408571Y-24714285D01*
X8480000Y-25000000D01*
X8480000Y-25357142D01*
X8408571Y-25642857D01*
X8337143Y-25785714D01*
X8265714Y-25857142D01*
X8122857Y-25928571D01*
X7980000Y-25928571D01*
X7837143Y-25857142D01*
X7765714Y-25785714D01*
X7694285Y-25642857D01*
X7622857Y-25357142D01*
X7622857Y-25000000D01*
X7694285Y-24714285D01*
X7765714Y-24571428D01*
X7837143Y-24500000D01*
X7980000Y-24428571D01*
X9408571Y-24428571D02*
X9551428Y-24428571D01*
X9694285Y-24500000D01*
X9765714Y-24571428D01*
X9837143Y-24714285D01*
X9908571Y-25000000D01*
X9908571Y-25357142D01*
X9837143Y-25642857D01*
X9765714Y-25785714D01*
X9694285Y-25857142D01*
X9551428Y-25928571D01*
X9408571Y-25928571D01*
X9265714Y-25857142D01*
X9194285Y-25785714D01*
X9122857Y-25642857D01*
X9051428Y-25357142D01*
X9051428Y-25000000D01*
X9122857Y-24714285D01*
X9194285Y-24571428D01*
X9265714Y-24500000D01*
X9408571Y-24428571D01*
X10837143Y-24428571D02*
X10980000Y-24428571D01*
X11122857Y-24500000D01*
X11194285Y-24571428D01*
X11265714Y-24714285D01*
X11337143Y-25000000D01*
X11337143Y-25357142D01*
X11265714Y-25642857D01*
X11194285Y-25785714D01*
X11122857Y-25857142D01*
X10980000Y-25928571D01*
X10837143Y-25928571D01*
X10694285Y-25857142D01*
X10622857Y-25785714D01*
X10551428Y-25642857D01*
X10480000Y-25357142D01*
X10480000Y-25000000D01*
X10551428Y-24714285D01*
X10622857Y-24571428D01*
X10694285Y-24500000D01*
X10837143Y-24428571D01*
X12265714Y-24428571D02*
X12408571Y-24428571D01*
X12551428Y-24500000D01*
X12622857Y-24571428D01*
X12694285Y-24714285D01*
X12765714Y-25000000D01*
X12765714Y-25357142D01*
X12694285Y-25642857D01*
X12622857Y-25785714D01*
X12551428Y-25857142D01*
X12408571Y-25928571D01*
X12265714Y-25928571D01*
X12122857Y-25857142D01*
X12051428Y-25785714D01*
X11980000Y-25642857D01*
X11908571Y-25357142D01*
X11908571Y-25000000D01*
X11980000Y-24714285D01*
X12051428Y-24571428D01*
X12122857Y-24500000D01*
X12265714Y-24428571D01*
X14551428Y-25928571D02*
X14551428Y-24928571D01*
X14551428Y-25071428D02*
X14622857Y-25000000D01*
X14765714Y-24928571D01*
X14980000Y-24928571D01*
X15122857Y-25000000D01*
X15194285Y-25142857D01*
X15194285Y-25928571D01*
X15194285Y-25142857D02*
X15265714Y-25000000D01*
X15408571Y-24928571D01*
X15622857Y-24928571D01*
X15765714Y-25000000D01*
X15837143Y-25142857D01*
X15837143Y-25928571D01*
X16551428Y-25928571D02*
X16551428Y-24928571D01*
X16551428Y-25071428D02*
X16622857Y-25000000D01*
X16765714Y-24928571D01*
X16980000Y-24928571D01*
X17122857Y-25000000D01*
X17194285Y-25142857D01*
X17194285Y-25928571D01*
X17194285Y-25142857D02*
X17265714Y-25000000D01*
X17408571Y-24928571D01*
X17622857Y-24928571D01*
X17765714Y-25000000D01*
X17837143Y-25142857D01*
X17837143Y-25928571D01*
X-11305715Y-29357857D02*
X-10805715Y-29357857D01*
X-10591429Y-30143571D02*
X-11305715Y-30143571D01*
X-11305715Y-28643571D01*
X-10591429Y-28643571D01*
X-9948572Y-30143571D02*
X-9948572Y-28643571D01*
X-9091429Y-30143571D01*
X-9091429Y-28643571D01*
X-8377143Y-30143571D02*
X-8377143Y-28643571D01*
X-6877143Y-28715000D02*
X-7020000Y-28643571D01*
X-7234286Y-28643571D01*
X-7448572Y-28715000D01*
X-7591429Y-28857857D01*
X-7662857Y-29000714D01*
X-7734286Y-29286428D01*
X-7734286Y-29500714D01*
X-7662857Y-29786428D01*
X-7591429Y-29929285D01*
X-7448572Y-30072142D01*
X-7234286Y-30143571D01*
X-7091429Y-30143571D01*
X-6877143Y-30072142D01*
X-6805715Y-30000714D01*
X-6805715Y-29500714D01*
X-7091429Y-29500714D01*
X-43362858Y-20927857D02*
X-43148572Y-20999285D01*
X-43077143Y-21070714D01*
X-43005715Y-21213571D01*
X-43005715Y-21427857D01*
X-43077143Y-21570714D01*
X-43148572Y-21642142D01*
X-43291429Y-21713571D01*
X-43862858Y-21713571D01*
X-43862858Y-20213571D01*
X-43362858Y-20213571D01*
X-43220000Y-20285000D01*
X-43148572Y-20356428D01*
X-43077143Y-20499285D01*
X-43077143Y-20642142D01*
X-43148572Y-20785000D01*
X-43220000Y-20856428D01*
X-43362858Y-20927857D01*
X-43862858Y-20927857D01*
X-42148572Y-21713571D02*
X-42291429Y-21642142D01*
X-42362858Y-21570714D01*
X-42434286Y-21427857D01*
X-42434286Y-20999285D01*
X-42362858Y-20856428D01*
X-42291429Y-20785000D01*
X-42148572Y-20713571D01*
X-41934286Y-20713571D01*
X-41791429Y-20785000D01*
X-41720000Y-20856428D01*
X-41648572Y-20999285D01*
X-41648572Y-21427857D01*
X-41720000Y-21570714D01*
X-41791429Y-21642142D01*
X-41934286Y-21713571D01*
X-42148572Y-21713571D01*
X-40362858Y-21713571D02*
X-40362858Y-20927857D01*
X-40434286Y-20785000D01*
X-40577143Y-20713571D01*
X-40862858Y-20713571D01*
X-41005715Y-20785000D01*
X-40362858Y-21642142D02*
X-40505715Y-21713571D01*
X-40862858Y-21713571D01*
X-41005715Y-21642142D01*
X-41077143Y-21499285D01*
X-41077143Y-21356428D01*
X-41005715Y-21213571D01*
X-40862858Y-21142142D01*
X-40505715Y-21142142D01*
X-40362858Y-21070714D01*
X-39648572Y-21713571D02*
X-39648572Y-20713571D01*
X-39648572Y-20999285D02*
X-39577143Y-20856428D01*
X-39505715Y-20785000D01*
X-39362858Y-20713571D01*
X-39220000Y-20713571D01*
X-38077143Y-21713571D02*
X-38077143Y-20213571D01*
X-38077143Y-21642142D02*
X-38220000Y-21713571D01*
X-38505715Y-21713571D01*
X-38648572Y-21642142D01*
X-38720000Y-21570714D01*
X-38791429Y-21427857D01*
X-38791429Y-20999285D01*
X-38720000Y-20856428D01*
X-38648572Y-20785000D01*
X-38505715Y-20713571D01*
X-38220000Y-20713571D01*
X-38077143Y-20785000D01*
X-36005715Y-21713571D02*
X-36148572Y-21642142D01*
X-36220000Y-21570714D01*
X-36291429Y-21427857D01*
X-36291429Y-20999285D01*
X-36220000Y-20856428D01*
X-36148572Y-20785000D01*
X-36005715Y-20713571D01*
X-35791429Y-20713571D01*
X-35648572Y-20785000D01*
X-35577143Y-20856428D01*
X-35505715Y-20999285D01*
X-35505715Y-21427857D01*
X-35577143Y-21570714D01*
X-35648572Y-21642142D01*
X-35791429Y-21713571D01*
X-36005715Y-21713571D01*
X-35005715Y-20713571D02*
X-34648572Y-21713571D01*
X-34291429Y-20713571D01*
X-33148572Y-21642142D02*
X-33291429Y-21713571D01*
X-33577143Y-21713571D01*
X-33720000Y-21642142D01*
X-33791429Y-21499285D01*
X-33791429Y-20927857D01*
X-33720000Y-20785000D01*
X-33577143Y-20713571D01*
X-33291429Y-20713571D01*
X-33148572Y-20785000D01*
X-33077143Y-20927857D01*
X-33077143Y-21070714D01*
X-33791429Y-21213571D01*
X-32434286Y-21713571D02*
X-32434286Y-20713571D01*
X-32434286Y-20999285D02*
X-32362858Y-20856428D01*
X-32291429Y-20785000D01*
X-32148572Y-20713571D01*
X-32005715Y-20713571D01*
X-30862858Y-21713571D02*
X-30862858Y-20927857D01*
X-30934286Y-20785000D01*
X-31077143Y-20713571D01*
X-31362858Y-20713571D01*
X-31505715Y-20785000D01*
X-30862858Y-21642142D02*
X-31005715Y-21713571D01*
X-31362858Y-21713571D01*
X-31505715Y-21642142D01*
X-31577143Y-21499285D01*
X-31577143Y-21356428D01*
X-31505715Y-21213571D01*
X-31362858Y-21142142D01*
X-31005715Y-21142142D01*
X-30862858Y-21070714D01*
X-29934286Y-21713571D02*
X-30077143Y-21642142D01*
X-30148572Y-21499285D01*
X-30148572Y-20213571D01*
X-29148572Y-21713571D02*
X-29291429Y-21642142D01*
X-29362858Y-21499285D01*
X-29362858Y-20213571D01*
X-26791429Y-21713571D02*
X-26791429Y-20213571D01*
X-26791429Y-21642142D02*
X-26934286Y-21713571D01*
X-27220000Y-21713571D01*
X-27362858Y-21642142D01*
X-27434286Y-21570714D01*
X-27505715Y-21427857D01*
X-27505715Y-20999285D01*
X-27434286Y-20856428D01*
X-27362858Y-20785000D01*
X-27220000Y-20713571D01*
X-26934286Y-20713571D01*
X-26791429Y-20785000D01*
X-26077143Y-21713571D02*
X-26077143Y-20713571D01*
X-26077143Y-20213571D02*
X-26148572Y-20285000D01*
X-26077143Y-20356428D01*
X-26005715Y-20285000D01*
X-26077143Y-20213571D01*
X-26077143Y-20356428D01*
X-25362858Y-21713571D02*
X-25362858Y-20713571D01*
X-25362858Y-20856428D02*
X-25291429Y-20785000D01*
X-25148572Y-20713571D01*
X-24934286Y-20713571D01*
X-24791429Y-20785000D01*
X-24720000Y-20927857D01*
X-24720000Y-21713571D01*
X-24720000Y-20927857D02*
X-24648572Y-20785000D01*
X-24505715Y-20713571D01*
X-24291429Y-20713571D01*
X-24148572Y-20785000D01*
X-24077143Y-20927857D01*
X-24077143Y-21713571D01*
X-22791429Y-21642142D02*
X-22934286Y-21713571D01*
X-23220000Y-21713571D01*
X-23362858Y-21642142D01*
X-23434286Y-21499285D01*
X-23434286Y-20927857D01*
X-23362858Y-20785000D01*
X-23220000Y-20713571D01*
X-22934286Y-20713571D01*
X-22791429Y-20785000D01*
X-22720000Y-20927857D01*
X-22720000Y-21070714D01*
X-23434286Y-21213571D01*
X-22077143Y-20713571D02*
X-22077143Y-21713571D01*
X-22077143Y-20856428D02*
X-22005715Y-20785000D01*
X-21862858Y-20713571D01*
X-21648572Y-20713571D01*
X-21505715Y-20785000D01*
X-21434286Y-20927857D01*
X-21434286Y-21713571D01*
X-20791429Y-21642142D02*
X-20648572Y-21713571D01*
X-20362858Y-21713571D01*
X-20220000Y-21642142D01*
X-20148572Y-21499285D01*
X-20148572Y-21427857D01*
X-20220000Y-21285000D01*
X-20362858Y-21213571D01*
X-20577143Y-21213571D01*
X-20720000Y-21142142D01*
X-20791429Y-20999285D01*
X-20791429Y-20927857D01*
X-20720000Y-20785000D01*
X-20577143Y-20713571D01*
X-20362858Y-20713571D01*
X-20220000Y-20785000D01*
X-19505715Y-21713571D02*
X-19505715Y-20713571D01*
X-19505715Y-20213571D02*
X-19577143Y-20285000D01*
X-19505715Y-20356428D01*
X-19434286Y-20285000D01*
X-19505715Y-20213571D01*
X-19505715Y-20356428D01*
X-18577143Y-21713571D02*
X-18720000Y-21642142D01*
X-18791429Y-21570714D01*
X-18862858Y-21427857D01*
X-18862858Y-20999285D01*
X-18791429Y-20856428D01*
X-18720000Y-20785000D01*
X-18577143Y-20713571D01*
X-18362858Y-20713571D01*
X-18220000Y-20785000D01*
X-18148572Y-20856428D01*
X-18077143Y-20999285D01*
X-18077143Y-21427857D01*
X-18148572Y-21570714D01*
X-18220000Y-21642142D01*
X-18362858Y-21713571D01*
X-18577143Y-21713571D01*
X-17434286Y-20713571D02*
X-17434286Y-21713571D01*
X-17434286Y-20856428D02*
X-17362858Y-20785000D01*
X-17220000Y-20713571D01*
X-17005715Y-20713571D01*
X-16862858Y-20785000D01*
X-16791429Y-20927857D01*
X-16791429Y-21713571D01*
X-16148572Y-21642142D02*
X-16005715Y-21713571D01*
X-15720000Y-21713571D01*
X-15577143Y-21642142D01*
X-15505715Y-21499285D01*
X-15505715Y-21427857D01*
X-15577143Y-21285000D01*
X-15720000Y-21213571D01*
X-15934286Y-21213571D01*
X-16077143Y-21142142D01*
X-16148572Y-20999285D01*
X-16148572Y-20927857D01*
X-16077143Y-20785000D01*
X-15934286Y-20713571D01*
X-15720000Y-20713571D01*
X-15577143Y-20785000D01*
X-14862858Y-21570714D02*
X-14791429Y-21642142D01*
X-14862858Y-21713571D01*
X-14934286Y-21642142D01*
X-14862858Y-21570714D01*
X-14862858Y-21713571D01*
X-14862858Y-20785000D02*
X-14791429Y-20856428D01*
X-14862858Y-20927857D01*
X-14934286Y-20856428D01*
X-14862858Y-20785000D01*
X-14862858Y-20927857D01*
X-43005715Y-30000714D02*
X-43077143Y-30072142D01*
X-43291429Y-30143571D01*
X-43434286Y-30143571D01*
X-43648572Y-30072142D01*
X-43791429Y-29929285D01*
X-43862858Y-29786428D01*
X-43934286Y-29500714D01*
X-43934286Y-29286428D01*
X-43862858Y-29000714D01*
X-43791429Y-28857857D01*
X-43648572Y-28715000D01*
X-43434286Y-28643571D01*
X-43291429Y-28643571D01*
X-43077143Y-28715000D01*
X-43005715Y-28786428D01*
X-42148572Y-30143571D02*
X-42291429Y-30072142D01*
X-42362858Y-30000714D01*
X-42434286Y-29857857D01*
X-42434286Y-29429285D01*
X-42362858Y-29286428D01*
X-42291429Y-29215000D01*
X-42148572Y-29143571D01*
X-41934286Y-29143571D01*
X-41791429Y-29215000D01*
X-41720000Y-29286428D01*
X-41648572Y-29429285D01*
X-41648572Y-29857857D01*
X-41720000Y-30000714D01*
X-41791429Y-30072142D01*
X-41934286Y-30143571D01*
X-42148572Y-30143571D01*
X-41005715Y-29143571D02*
X-41005715Y-30643571D01*
X-41005715Y-29215000D02*
X-40862858Y-29143571D01*
X-40577143Y-29143571D01*
X-40434286Y-29215000D01*
X-40362858Y-29286428D01*
X-40291429Y-29429285D01*
X-40291429Y-29857857D01*
X-40362858Y-30000714D01*
X-40434286Y-30072142D01*
X-40577143Y-30143571D01*
X-40862858Y-30143571D01*
X-41005715Y-30072142D01*
X-39648572Y-29143571D02*
X-39648572Y-30643571D01*
X-39648572Y-29215000D02*
X-39505715Y-29143571D01*
X-39220000Y-29143571D01*
X-39077143Y-29215000D01*
X-39005715Y-29286428D01*
X-38934286Y-29429285D01*
X-38934286Y-29857857D01*
X-39005715Y-30000714D01*
X-39077143Y-30072142D01*
X-39220000Y-30143571D01*
X-39505715Y-30143571D01*
X-39648572Y-30072142D01*
X-37720000Y-30072142D02*
X-37862858Y-30143571D01*
X-38148572Y-30143571D01*
X-38291429Y-30072142D01*
X-38362858Y-29929285D01*
X-38362858Y-29357857D01*
X-38291429Y-29215000D01*
X-38148572Y-29143571D01*
X-37862858Y-29143571D01*
X-37720000Y-29215000D01*
X-37648572Y-29357857D01*
X-37648572Y-29500714D01*
X-38362858Y-29643571D01*
X-37005715Y-30143571D02*
X-37005715Y-29143571D01*
X-37005715Y-29429285D02*
X-36934286Y-29286428D01*
X-36862858Y-29215000D01*
X-36720000Y-29143571D01*
X-36577143Y-29143571D01*
X-34434286Y-29357857D02*
X-34934286Y-29357857D01*
X-34934286Y-30143571D02*
X-34934286Y-28643571D01*
X-34220000Y-28643571D01*
X-33648572Y-30143571D02*
X-33648572Y-29143571D01*
X-33648572Y-28643571D02*
X-33720000Y-28715000D01*
X-33648572Y-28786428D01*
X-33577143Y-28715000D01*
X-33648572Y-28643571D01*
X-33648572Y-28786428D01*
X-32934286Y-29143571D02*
X-32934286Y-30143571D01*
X-32934286Y-29286428D02*
X-32862858Y-29215000D01*
X-32720000Y-29143571D01*
X-32505715Y-29143571D01*
X-32362858Y-29215000D01*
X-32291429Y-29357857D01*
X-32291429Y-30143571D01*
X-31577143Y-30143571D02*
X-31577143Y-29143571D01*
X-31577143Y-28643571D02*
X-31648572Y-28715000D01*
X-31577143Y-28786428D01*
X-31505715Y-28715000D01*
X-31577143Y-28643571D01*
X-31577143Y-28786428D01*
X-30934286Y-30072142D02*
X-30791429Y-30143571D01*
X-30505715Y-30143571D01*
X-30362858Y-30072142D01*
X-30291429Y-29929285D01*
X-30291429Y-29857857D01*
X-30362858Y-29715000D01*
X-30505715Y-29643571D01*
X-30720000Y-29643571D01*
X-30862858Y-29572142D01*
X-30934286Y-29429285D01*
X-30934286Y-29357857D01*
X-30862858Y-29215000D01*
X-30720000Y-29143571D01*
X-30505715Y-29143571D01*
X-30362858Y-29215000D01*
X-29648572Y-30143571D02*
X-29648572Y-28643571D01*
X-29005715Y-30143571D02*
X-29005715Y-29357857D01*
X-29077143Y-29215000D01*
X-29220000Y-29143571D01*
X-29434286Y-29143571D01*
X-29577143Y-29215000D01*
X-29648572Y-29286428D01*
X-28291429Y-30000714D02*
X-28220000Y-30072142D01*
X-28291429Y-30143571D01*
X-28362858Y-30072142D01*
X-28291429Y-30000714D01*
X-28291429Y-30143571D01*
X-28291429Y-29215000D02*
X-28220000Y-29286428D01*
X-28291429Y-29357857D01*
X-28362858Y-29286428D01*
X-28291429Y-29215000D01*
X-28291429Y-29357857D01*
X23251428Y-16712857D02*
X23465714Y-16784285D01*
X23537143Y-16855714D01*
X23608571Y-16998571D01*
X23608571Y-17212857D01*
X23537143Y-17355714D01*
X23465714Y-17427142D01*
X23322857Y-17498571D01*
X22751428Y-17498571D01*
X22751428Y-15998571D01*
X23251428Y-15998571D01*
X23394286Y-16070000D01*
X23465714Y-16141428D01*
X23537143Y-16284285D01*
X23537143Y-16427142D01*
X23465714Y-16570000D01*
X23394286Y-16641428D01*
X23251428Y-16712857D01*
X22751428Y-16712857D01*
X24465714Y-17498571D02*
X24322857Y-17427142D01*
X24251428Y-17355714D01*
X24180000Y-17212857D01*
X24180000Y-16784285D01*
X24251428Y-16641428D01*
X24322857Y-16570000D01*
X24465714Y-16498571D01*
X24680000Y-16498571D01*
X24822857Y-16570000D01*
X24894286Y-16641428D01*
X24965714Y-16784285D01*
X24965714Y-17212857D01*
X24894286Y-17355714D01*
X24822857Y-17427142D01*
X24680000Y-17498571D01*
X24465714Y-17498571D01*
X26251428Y-17498571D02*
X26251428Y-16712857D01*
X26180000Y-16570000D01*
X26037143Y-16498571D01*
X25751428Y-16498571D01*
X25608571Y-16570000D01*
X26251428Y-17427142D02*
X26108571Y-17498571D01*
X25751428Y-17498571D01*
X25608571Y-17427142D01*
X25537143Y-17284285D01*
X25537143Y-17141428D01*
X25608571Y-16998571D01*
X25751428Y-16927142D01*
X26108571Y-16927142D01*
X26251428Y-16855714D01*
X26965714Y-17498571D02*
X26965714Y-16498571D01*
X26965714Y-16784285D02*
X27037143Y-16641428D01*
X27108571Y-16570000D01*
X27251428Y-16498571D01*
X27394286Y-16498571D01*
X28537143Y-17498571D02*
X28537143Y-15998571D01*
X28537143Y-17427142D02*
X28394286Y-17498571D01*
X28108571Y-17498571D01*
X27965714Y-17427142D01*
X27894286Y-17355714D01*
X27822857Y-17212857D01*
X27822857Y-16784285D01*
X27894286Y-16641428D01*
X27965714Y-16570000D01*
X28108571Y-16498571D01*
X28394286Y-16498571D01*
X28537143Y-16570000D01*
X30180000Y-15998571D02*
X31037143Y-15998571D01*
X30608571Y-17498571D02*
X30608571Y-15998571D01*
X31537143Y-17498571D02*
X31537143Y-15998571D01*
X32180000Y-17498571D02*
X32180000Y-16712857D01*
X32108571Y-16570000D01*
X31965714Y-16498571D01*
X31751428Y-16498571D01*
X31608571Y-16570000D01*
X31537143Y-16641428D01*
X32894286Y-17498571D02*
X32894286Y-16498571D01*
X32894286Y-15998571D02*
X32822857Y-16070000D01*
X32894286Y-16141428D01*
X32965714Y-16070000D01*
X32894286Y-15998571D01*
X32894286Y-16141428D01*
X34251428Y-17427142D02*
X34108571Y-17498571D01*
X33822857Y-17498571D01*
X33680000Y-17427142D01*
X33608571Y-17355714D01*
X33537143Y-17212857D01*
X33537143Y-16784285D01*
X33608571Y-16641428D01*
X33680000Y-16570000D01*
X33822857Y-16498571D01*
X34108571Y-16498571D01*
X34251428Y-16570000D01*
X34894286Y-17498571D02*
X34894286Y-15998571D01*
X35037143Y-16927142D02*
X35465714Y-17498571D01*
X35465714Y-16498571D02*
X34894286Y-17070000D01*
X36108571Y-16498571D02*
X36108571Y-17498571D01*
X36108571Y-16641428D02*
X36180000Y-16570000D01*
X36322857Y-16498571D01*
X36537143Y-16498571D01*
X36680000Y-16570000D01*
X36751428Y-16712857D01*
X36751428Y-17498571D01*
X38037143Y-17427142D02*
X37894286Y-17498571D01*
X37608571Y-17498571D01*
X37465714Y-17427142D01*
X37394286Y-17284285D01*
X37394286Y-16712857D01*
X37465714Y-16570000D01*
X37608571Y-16498571D01*
X37894286Y-16498571D01*
X38037143Y-16570000D01*
X38108571Y-16712857D01*
X38108571Y-16855714D01*
X37394286Y-16998571D01*
X38680000Y-17427142D02*
X38822857Y-17498571D01*
X39108571Y-17498571D01*
X39251428Y-17427142D01*
X39322857Y-17284285D01*
X39322857Y-17212857D01*
X39251428Y-17070000D01*
X39108571Y-16998571D01*
X38894286Y-16998571D01*
X38751428Y-16927142D01*
X38680000Y-16784285D01*
X38680000Y-16712857D01*
X38751428Y-16570000D01*
X38894286Y-16498571D01*
X39108571Y-16498571D01*
X39251428Y-16570000D01*
X39894286Y-17427142D02*
X40037143Y-17498571D01*
X40322857Y-17498571D01*
X40465714Y-17427142D01*
X40537143Y-17284285D01*
X40537143Y-17212857D01*
X40465714Y-17070000D01*
X40322857Y-16998571D01*
X40108571Y-16998571D01*
X39965714Y-16927142D01*
X39894286Y-16784285D01*
X39894286Y-16712857D01*
X39965714Y-16570000D01*
X40108571Y-16498571D01*
X40322857Y-16498571D01*
X40465714Y-16570000D01*
X41180000Y-17355714D02*
X41251428Y-17427142D01*
X41180000Y-17498571D01*
X41108571Y-17427142D01*
X41180000Y-17355714D01*
X41180000Y-17498571D01*
X41180000Y-16570000D02*
X41251428Y-16641428D01*
X41180000Y-16712857D01*
X41108571Y-16641428D01*
X41180000Y-16570000D01*
X41180000Y-16712857D01*
D12*
%TO.C,J2*%
X122345623Y23423022D02*
X121345623Y23423022D01*
X122345623Y23994450D02*
X121774195Y23565879D01*
X121345623Y23994450D02*
X121917052Y23423022D01*
X122298004Y24803974D02*
X122345623Y24708736D01*
X122345623Y24518260D01*
X122298004Y24423022D01*
X122202766Y24375403D01*
X121821814Y24375403D01*
X121726576Y24423022D01*
X121678957Y24518260D01*
X121678957Y24708736D01*
X121726576Y24803974D01*
X121821814Y24851593D01*
X121917052Y24851593D01*
X122012290Y24375403D01*
X122298004Y25661117D02*
X122345623Y25565879D01*
X122345623Y25375403D01*
X122298004Y25280165D01*
X122202766Y25232546D01*
X121821814Y25232546D01*
X121726576Y25280165D01*
X121678957Y25375403D01*
X121678957Y25565879D01*
X121726576Y25661117D01*
X121821814Y25708736D01*
X121917052Y25708736D01*
X122012290Y25232546D01*
X121678957Y26137307D02*
X122678957Y26137307D01*
X121726576Y26137307D02*
X121678957Y26232546D01*
X121678957Y26423022D01*
X121726576Y26518260D01*
X121774195Y26565879D01*
X121869433Y26613498D01*
X122155147Y26613498D01*
X122250385Y26565879D01*
X122298004Y26518260D01*
X122345623Y26423022D01*
X122345623Y26232546D01*
X122298004Y26137307D01*
X122345623Y27946831D02*
X122298004Y27851593D01*
X122250385Y27803974D01*
X122155147Y27756355D01*
X121869433Y27756355D01*
X121774195Y27803974D01*
X121726576Y27851593D01*
X121678957Y27946831D01*
X121678957Y28089688D01*
X121726576Y28184926D01*
X121774195Y28232546D01*
X121869433Y28280165D01*
X122155147Y28280165D01*
X122250385Y28232546D01*
X122298004Y28184926D01*
X122345623Y28089688D01*
X122345623Y27946831D01*
X121678957Y29137307D02*
X122345623Y29137307D01*
X121678957Y28708736D02*
X122202766Y28708736D01*
X122298004Y28756355D01*
X122345623Y28851593D01*
X122345623Y28994450D01*
X122298004Y29089688D01*
X122250385Y29137307D01*
X121678957Y29470641D02*
X121678957Y29851593D01*
X121345623Y29613498D02*
X122202766Y29613498D01*
X122298004Y29661117D01*
X122345623Y29756355D01*
X122345623Y29851593D01*
X122298004Y31375403D02*
X122345623Y31280165D01*
X122345623Y31089688D01*
X122298004Y30994450D01*
X122250385Y30946831D01*
X122155147Y30899212D01*
X121869433Y30899212D01*
X121774195Y30946831D01*
X121726576Y30994450D01*
X121678957Y31089688D01*
X121678957Y31280165D01*
X121726576Y31375403D01*
X122345623Y31946831D02*
X122298004Y31851593D01*
X122250385Y31803974D01*
X122155147Y31756355D01*
X121869433Y31756355D01*
X121774195Y31803974D01*
X121726576Y31851593D01*
X121678957Y31946831D01*
X121678957Y32089688D01*
X121726576Y32184926D01*
X121774195Y32232546D01*
X121869433Y32280165D01*
X122155147Y32280165D01*
X122250385Y32232546D01*
X122298004Y32184926D01*
X122345623Y32089688D01*
X122345623Y31946831D01*
X122345623Y32708736D02*
X121678957Y32708736D01*
X121774195Y32708736D02*
X121726576Y32756355D01*
X121678957Y32851593D01*
X121678957Y32994450D01*
X121726576Y33089688D01*
X121821814Y33137307D01*
X122345623Y33137307D01*
X121821814Y33137307D02*
X121726576Y33184926D01*
X121678957Y33280165D01*
X121678957Y33423022D01*
X121726576Y33518260D01*
X121821814Y33565879D01*
X122345623Y33565879D01*
X121678957Y34042069D02*
X122678957Y34042069D01*
X121726576Y34042069D02*
X121678957Y34137307D01*
X121678957Y34327784D01*
X121726576Y34423022D01*
X121774195Y34470641D01*
X121869433Y34518260D01*
X122155147Y34518260D01*
X122250385Y34470641D01*
X122298004Y34423022D01*
X122345623Y34327784D01*
X122345623Y34137307D01*
X122298004Y34042069D01*
X122345623Y35089688D02*
X122298004Y34994450D01*
X122250385Y34946831D01*
X122155147Y34899212D01*
X121869433Y34899212D01*
X121774195Y34946831D01*
X121726576Y34994450D01*
X121678957Y35089688D01*
X121678957Y35232546D01*
X121726576Y35327784D01*
X121774195Y35375403D01*
X121869433Y35423022D01*
X122155147Y35423022D01*
X122250385Y35375403D01*
X122298004Y35327784D01*
X122345623Y35232546D01*
X122345623Y35089688D01*
X121678957Y35851593D02*
X122345623Y35851593D01*
X121774195Y35851593D02*
X121726576Y35899212D01*
X121678957Y35994450D01*
X121678957Y36137307D01*
X121726576Y36232546D01*
X121821814Y36280165D01*
X122345623Y36280165D01*
X122298004Y37137307D02*
X122345623Y37042069D01*
X122345623Y36851593D01*
X122298004Y36756355D01*
X122202766Y36708736D01*
X121821814Y36708736D01*
X121726576Y36756355D01*
X121678957Y36851593D01*
X121678957Y37042069D01*
X121726576Y37137307D01*
X121821814Y37184926D01*
X121917052Y37184926D01*
X122012290Y36708736D01*
X121678957Y37613498D02*
X122345623Y37613498D01*
X121774195Y37613498D02*
X121726576Y37661117D01*
X121678957Y37756355D01*
X121678957Y37899212D01*
X121726576Y37994450D01*
X121821814Y38042069D01*
X122345623Y38042069D01*
X121678957Y38375403D02*
X121678957Y38756355D01*
X121345623Y38518260D02*
X122202766Y38518260D01*
X122298004Y38565879D01*
X122345623Y38661117D01*
X122345623Y38756355D01*
X122298004Y39042069D02*
X122345623Y39137307D01*
X122345623Y39327784D01*
X122298004Y39423022D01*
X122202766Y39470641D01*
X122155147Y39470641D01*
X122059909Y39423022D01*
X122012290Y39327784D01*
X122012290Y39184926D01*
X121964671Y39089688D01*
X121869433Y39042069D01*
X121821814Y39042069D01*
X121726576Y39089688D01*
X121678957Y39184926D01*
X121678957Y39327784D01*
X121726576Y39423022D01*
X122345623Y41089688D02*
X121821814Y41089688D01*
X121726576Y41042069D01*
X121678957Y40946831D01*
X121678957Y40756355D01*
X121726576Y40661117D01*
X122298004Y41089688D02*
X122345623Y40994450D01*
X122345623Y40756355D01*
X122298004Y40661117D01*
X122202766Y40613498D01*
X122107528Y40613498D01*
X122012290Y40661117D01*
X121964671Y40756355D01*
X121964671Y40994450D01*
X121917052Y41089688D01*
X121678957Y41565879D02*
X122345623Y41565879D01*
X121774195Y41565879D02*
X121726576Y41613498D01*
X121678957Y41708736D01*
X121678957Y41851593D01*
X121726576Y41946831D01*
X121821814Y41994450D01*
X122345623Y41994450D01*
X122345623Y42899212D02*
X121345623Y42899212D01*
X122298004Y42899212D02*
X122345623Y42803974D01*
X122345623Y42613498D01*
X122298004Y42518260D01*
X122250385Y42470641D01*
X122155147Y42423022D01*
X121869433Y42423022D01*
X121774195Y42470641D01*
X121726576Y42518260D01*
X121678957Y42613498D01*
X121678957Y42803974D01*
X121726576Y42899212D01*
X121678957Y43994450D02*
X121678957Y44375403D01*
X121345623Y44137307D02*
X122202766Y44137307D01*
X122298004Y44184926D01*
X122345623Y44280165D01*
X122345623Y44375403D01*
X122345623Y44708736D02*
X121678957Y44708736D01*
X121869433Y44708736D02*
X121774195Y44756355D01*
X121726576Y44803974D01*
X121678957Y44899212D01*
X121678957Y44994450D01*
X122345623Y45756355D02*
X121821814Y45756355D01*
X121726576Y45708736D01*
X121678957Y45613498D01*
X121678957Y45423022D01*
X121726576Y45327784D01*
X122298004Y45756355D02*
X122345623Y45661117D01*
X122345623Y45423022D01*
X122298004Y45327784D01*
X122202766Y45280165D01*
X122107528Y45280165D01*
X122012290Y45327784D01*
X121964671Y45423022D01*
X121964671Y45661117D01*
X121917052Y45756355D01*
X122298004Y46661117D02*
X122345623Y46565879D01*
X122345623Y46375403D01*
X122298004Y46280165D01*
X122250385Y46232546D01*
X122155147Y46184926D01*
X121869433Y46184926D01*
X121774195Y46232546D01*
X121726576Y46280165D01*
X121678957Y46375403D01*
X121678957Y46565879D01*
X121726576Y46661117D01*
X122298004Y47470641D02*
X122345623Y47375403D01*
X122345623Y47184926D01*
X122298004Y47089688D01*
X122202766Y47042069D01*
X121821814Y47042069D01*
X121726576Y47089688D01*
X121678957Y47184926D01*
X121678957Y47375403D01*
X121726576Y47470641D01*
X121821814Y47518260D01*
X121917052Y47518260D01*
X122012290Y47042069D01*
X122298004Y47899212D02*
X122345623Y47994450D01*
X122345623Y48184926D01*
X122298004Y48280165D01*
X122202766Y48327784D01*
X122155147Y48327784D01*
X122059909Y48280165D01*
X122012290Y48184926D01*
X122012290Y48042069D01*
X121964671Y47946831D01*
X121869433Y47899212D01*
X121821814Y47899212D01*
X121726576Y47946831D01*
X121678957Y48042069D01*
X121678957Y48184926D01*
X121726576Y48280165D01*
X122345623Y49518260D02*
X121345623Y49518260D01*
X121726576Y49518260D02*
X121678957Y49613498D01*
X121678957Y49803974D01*
X121726576Y49899212D01*
X121774195Y49946831D01*
X121869433Y49994450D01*
X122155147Y49994450D01*
X122250385Y49946831D01*
X122298004Y49899212D01*
X122345623Y49803974D01*
X122345623Y49613498D01*
X122298004Y49518260D01*
X122345623Y50565879D02*
X122298004Y50470641D01*
X122250385Y50423022D01*
X122155147Y50375403D01*
X121869433Y50375403D01*
X121774195Y50423022D01*
X121726576Y50470641D01*
X121678957Y50565879D01*
X121678957Y50708736D01*
X121726576Y50803974D01*
X121774195Y50851593D01*
X121869433Y50899212D01*
X122155147Y50899212D01*
X122250385Y50851593D01*
X122298004Y50803974D01*
X122345623Y50708736D01*
X122345623Y50565879D01*
X121678957Y51184926D02*
X121678957Y51565879D01*
X121345623Y51327784D02*
X122202766Y51327784D01*
X122298004Y51375403D01*
X122345623Y51470641D01*
X122345623Y51565879D01*
X122345623Y51899212D02*
X121345623Y51899212D01*
X122345623Y52327784D02*
X121821814Y52327784D01*
X121726576Y52280165D01*
X121678957Y52184926D01*
X121678957Y52042069D01*
X121726576Y51946831D01*
X121774195Y51899212D01*
X122298004Y53518260D02*
X122345623Y53613498D01*
X122345623Y53803974D01*
X122298004Y53899212D01*
X122202766Y53946831D01*
X122155147Y53946831D01*
X122059909Y53899212D01*
X122012290Y53803974D01*
X122012290Y53661117D01*
X121964671Y53565879D01*
X121869433Y53518260D01*
X121821814Y53518260D01*
X121726576Y53565879D01*
X121678957Y53661117D01*
X121678957Y53803974D01*
X121726576Y53899212D01*
X122345623Y54375403D02*
X121678957Y54375403D01*
X121345623Y54375403D02*
X121393243Y54327784D01*
X121440862Y54375403D01*
X121393243Y54423022D01*
X121345623Y54375403D01*
X121440862Y54375403D01*
X122345623Y55280165D02*
X121345623Y55280165D01*
X122298004Y55280165D02*
X122345623Y55184926D01*
X122345623Y54994450D01*
X122298004Y54899212D01*
X122250385Y54851593D01*
X122155147Y54803974D01*
X121869433Y54803974D01*
X121774195Y54851593D01*
X121726576Y54899212D01*
X121678957Y54994450D01*
X121678957Y55184926D01*
X121726576Y55280165D01*
X122298004Y56137307D02*
X122345623Y56042069D01*
X122345623Y55851593D01*
X122298004Y55756355D01*
X122202766Y55708736D01*
X121821814Y55708736D01*
X121726576Y55756355D01*
X121678957Y55851593D01*
X121678957Y56042069D01*
X121726576Y56137307D01*
X121821814Y56184926D01*
X121917052Y56184926D01*
X122012290Y55708736D01*
X122298004Y56565879D02*
X122345623Y56661117D01*
X122345623Y56851593D01*
X122298004Y56946831D01*
X122202766Y56994450D01*
X122155147Y56994450D01*
X122059909Y56946831D01*
X122012290Y56851593D01*
X122012290Y56708736D01*
X121964671Y56613498D01*
X121869433Y56565879D01*
X121821814Y56565879D01*
X121726576Y56613498D01*
X121678957Y56708736D01*
X121678957Y56851593D01*
X121726576Y56946831D01*
X-44297620Y19026191D02*
X-45297620Y19026191D01*
X-44297620Y19597620D02*
X-44869048Y19169048D01*
X-45297620Y19597620D02*
X-44726191Y19026191D01*
X-44345239Y20407143D02*
X-44297620Y20311905D01*
X-44297620Y20121429D01*
X-44345239Y20026191D01*
X-44440477Y19978572D01*
X-44821429Y19978572D01*
X-44916667Y20026191D01*
X-44964286Y20121429D01*
X-44964286Y20311905D01*
X-44916667Y20407143D01*
X-44821429Y20454762D01*
X-44726191Y20454762D01*
X-44630953Y19978572D01*
X-44345239Y21264286D02*
X-44297620Y21169048D01*
X-44297620Y20978572D01*
X-44345239Y20883334D01*
X-44440477Y20835715D01*
X-44821429Y20835715D01*
X-44916667Y20883334D01*
X-44964286Y20978572D01*
X-44964286Y21169048D01*
X-44916667Y21264286D01*
X-44821429Y21311905D01*
X-44726191Y21311905D01*
X-44630953Y20835715D01*
X-44964286Y21740477D02*
X-43964286Y21740477D01*
X-44916667Y21740477D02*
X-44964286Y21835715D01*
X-44964286Y22026191D01*
X-44916667Y22121429D01*
X-44869048Y22169048D01*
X-44773810Y22216667D01*
X-44488096Y22216667D01*
X-44392858Y22169048D01*
X-44345239Y22121429D01*
X-44297620Y22026191D01*
X-44297620Y21835715D01*
X-44345239Y21740477D01*
X-44297620Y23550000D02*
X-44345239Y23454762D01*
X-44392858Y23407143D01*
X-44488096Y23359524D01*
X-44773810Y23359524D01*
X-44869048Y23407143D01*
X-44916667Y23454762D01*
X-44964286Y23550000D01*
X-44964286Y23692858D01*
X-44916667Y23788096D01*
X-44869048Y23835715D01*
X-44773810Y23883334D01*
X-44488096Y23883334D01*
X-44392858Y23835715D01*
X-44345239Y23788096D01*
X-44297620Y23692858D01*
X-44297620Y23550000D01*
X-44964286Y24740477D02*
X-44297620Y24740477D01*
X-44964286Y24311905D02*
X-44440477Y24311905D01*
X-44345239Y24359524D01*
X-44297620Y24454762D01*
X-44297620Y24597620D01*
X-44345239Y24692858D01*
X-44392858Y24740477D01*
X-44964286Y25073810D02*
X-44964286Y25454762D01*
X-45297620Y25216667D02*
X-44440477Y25216667D01*
X-44345239Y25264286D01*
X-44297620Y25359524D01*
X-44297620Y25454762D01*
X-44345239Y26978572D02*
X-44297620Y26883334D01*
X-44297620Y26692858D01*
X-44345239Y26597620D01*
X-44392858Y26550000D01*
X-44488096Y26502381D01*
X-44773810Y26502381D01*
X-44869048Y26550000D01*
X-44916667Y26597620D01*
X-44964286Y26692858D01*
X-44964286Y26883334D01*
X-44916667Y26978572D01*
X-44297620Y27550000D02*
X-44345239Y27454762D01*
X-44392858Y27407143D01*
X-44488096Y27359524D01*
X-44773810Y27359524D01*
X-44869048Y27407143D01*
X-44916667Y27454762D01*
X-44964286Y27550000D01*
X-44964286Y27692858D01*
X-44916667Y27788096D01*
X-44869048Y27835715D01*
X-44773810Y27883334D01*
X-44488096Y27883334D01*
X-44392858Y27835715D01*
X-44345239Y27788096D01*
X-44297620Y27692858D01*
X-44297620Y27550000D01*
X-44297620Y28311905D02*
X-44964286Y28311905D01*
X-44869048Y28311905D02*
X-44916667Y28359524D01*
X-44964286Y28454762D01*
X-44964286Y28597620D01*
X-44916667Y28692858D01*
X-44821429Y28740477D01*
X-44297620Y28740477D01*
X-44821429Y28740477D02*
X-44916667Y28788096D01*
X-44964286Y28883334D01*
X-44964286Y29026191D01*
X-44916667Y29121429D01*
X-44821429Y29169048D01*
X-44297620Y29169048D01*
X-44964286Y29645239D02*
X-43964286Y29645239D01*
X-44916667Y29645239D02*
X-44964286Y29740477D01*
X-44964286Y29930953D01*
X-44916667Y30026191D01*
X-44869048Y30073810D01*
X-44773810Y30121429D01*
X-44488096Y30121429D01*
X-44392858Y30073810D01*
X-44345239Y30026191D01*
X-44297620Y29930953D01*
X-44297620Y29740477D01*
X-44345239Y29645239D01*
X-44297620Y30692858D02*
X-44345239Y30597620D01*
X-44392858Y30550000D01*
X-44488096Y30502381D01*
X-44773810Y30502381D01*
X-44869048Y30550000D01*
X-44916667Y30597620D01*
X-44964286Y30692858D01*
X-44964286Y30835715D01*
X-44916667Y30930953D01*
X-44869048Y30978572D01*
X-44773810Y31026191D01*
X-44488096Y31026191D01*
X-44392858Y30978572D01*
X-44345239Y30930953D01*
X-44297620Y30835715D01*
X-44297620Y30692858D01*
X-44964286Y31454762D02*
X-44297620Y31454762D01*
X-44869048Y31454762D02*
X-44916667Y31502381D01*
X-44964286Y31597620D01*
X-44964286Y31740477D01*
X-44916667Y31835715D01*
X-44821429Y31883334D01*
X-44297620Y31883334D01*
X-44345239Y32740477D02*
X-44297620Y32645239D01*
X-44297620Y32454762D01*
X-44345239Y32359524D01*
X-44440477Y32311905D01*
X-44821429Y32311905D01*
X-44916667Y32359524D01*
X-44964286Y32454762D01*
X-44964286Y32645239D01*
X-44916667Y32740477D01*
X-44821429Y32788096D01*
X-44726191Y32788096D01*
X-44630953Y32311905D01*
X-44964286Y33216667D02*
X-44297620Y33216667D01*
X-44869048Y33216667D02*
X-44916667Y33264286D01*
X-44964286Y33359524D01*
X-44964286Y33502381D01*
X-44916667Y33597620D01*
X-44821429Y33645239D01*
X-44297620Y33645239D01*
X-44964286Y33978572D02*
X-44964286Y34359524D01*
X-45297620Y34121429D02*
X-44440477Y34121429D01*
X-44345239Y34169048D01*
X-44297620Y34264286D01*
X-44297620Y34359524D01*
X-44345239Y34645239D02*
X-44297620Y34740477D01*
X-44297620Y34930953D01*
X-44345239Y35026191D01*
X-44440477Y35073810D01*
X-44488096Y35073810D01*
X-44583334Y35026191D01*
X-44630953Y34930953D01*
X-44630953Y34788096D01*
X-44678572Y34692858D01*
X-44773810Y34645239D01*
X-44821429Y34645239D01*
X-44916667Y34692858D01*
X-44964286Y34788096D01*
X-44964286Y34930953D01*
X-44916667Y35026191D01*
X-44297620Y36692858D02*
X-44821429Y36692858D01*
X-44916667Y36645239D01*
X-44964286Y36550000D01*
X-44964286Y36359524D01*
X-44916667Y36264286D01*
X-44345239Y36692858D02*
X-44297620Y36597620D01*
X-44297620Y36359524D01*
X-44345239Y36264286D01*
X-44440477Y36216667D01*
X-44535715Y36216667D01*
X-44630953Y36264286D01*
X-44678572Y36359524D01*
X-44678572Y36597620D01*
X-44726191Y36692858D01*
X-44964286Y37169048D02*
X-44297620Y37169048D01*
X-44869048Y37169048D02*
X-44916667Y37216667D01*
X-44964286Y37311905D01*
X-44964286Y37454762D01*
X-44916667Y37550000D01*
X-44821429Y37597620D01*
X-44297620Y37597620D01*
X-44297620Y38502381D02*
X-45297620Y38502381D01*
X-44345239Y38502381D02*
X-44297620Y38407143D01*
X-44297620Y38216667D01*
X-44345239Y38121429D01*
X-44392858Y38073810D01*
X-44488096Y38026191D01*
X-44773810Y38026191D01*
X-44869048Y38073810D01*
X-44916667Y38121429D01*
X-44964286Y38216667D01*
X-44964286Y38407143D01*
X-44916667Y38502381D01*
X-44964286Y39597620D02*
X-44964286Y39978572D01*
X-45297620Y39740477D02*
X-44440477Y39740477D01*
X-44345239Y39788096D01*
X-44297620Y39883334D01*
X-44297620Y39978572D01*
X-44297620Y40311905D02*
X-44964286Y40311905D01*
X-44773810Y40311905D02*
X-44869048Y40359524D01*
X-44916667Y40407143D01*
X-44964286Y40502381D01*
X-44964286Y40597620D01*
X-44297620Y41359524D02*
X-44821429Y41359524D01*
X-44916667Y41311905D01*
X-44964286Y41216667D01*
X-44964286Y41026191D01*
X-44916667Y40930953D01*
X-44345239Y41359524D02*
X-44297620Y41264286D01*
X-44297620Y41026191D01*
X-44345239Y40930953D01*
X-44440477Y40883334D01*
X-44535715Y40883334D01*
X-44630953Y40930953D01*
X-44678572Y41026191D01*
X-44678572Y41264286D01*
X-44726191Y41359524D01*
X-44345239Y42264286D02*
X-44297620Y42169048D01*
X-44297620Y41978572D01*
X-44345239Y41883334D01*
X-44392858Y41835715D01*
X-44488096Y41788096D01*
X-44773810Y41788096D01*
X-44869048Y41835715D01*
X-44916667Y41883334D01*
X-44964286Y41978572D01*
X-44964286Y42169048D01*
X-44916667Y42264286D01*
X-44345239Y43073810D02*
X-44297620Y42978572D01*
X-44297620Y42788096D01*
X-44345239Y42692858D01*
X-44440477Y42645239D01*
X-44821429Y42645239D01*
X-44916667Y42692858D01*
X-44964286Y42788096D01*
X-44964286Y42978572D01*
X-44916667Y43073810D01*
X-44821429Y43121429D01*
X-44726191Y43121429D01*
X-44630953Y42645239D01*
X-44345239Y43502381D02*
X-44297620Y43597620D01*
X-44297620Y43788096D01*
X-44345239Y43883334D01*
X-44440477Y43930953D01*
X-44488096Y43930953D01*
X-44583334Y43883334D01*
X-44630953Y43788096D01*
X-44630953Y43645239D01*
X-44678572Y43550000D01*
X-44773810Y43502381D01*
X-44821429Y43502381D01*
X-44916667Y43550000D01*
X-44964286Y43645239D01*
X-44964286Y43788096D01*
X-44916667Y43883334D01*
X-44345239Y45073810D02*
X-44297620Y45169048D01*
X-44297620Y45359524D01*
X-44345239Y45454762D01*
X-44440477Y45502381D01*
X-44488096Y45502381D01*
X-44583334Y45454762D01*
X-44630953Y45359524D01*
X-44630953Y45216667D01*
X-44678572Y45121429D01*
X-44773810Y45073810D01*
X-44821429Y45073810D01*
X-44916667Y45121429D01*
X-44964286Y45216667D01*
X-44964286Y45359524D01*
X-44916667Y45454762D01*
X-44297620Y46073810D02*
X-44345239Y45978572D01*
X-44392858Y45930953D01*
X-44488096Y45883334D01*
X-44773810Y45883334D01*
X-44869048Y45930953D01*
X-44916667Y45978572D01*
X-44964286Y46073810D01*
X-44964286Y46216667D01*
X-44916667Y46311905D01*
X-44869048Y46359524D01*
X-44773810Y46407143D01*
X-44488096Y46407143D01*
X-44392858Y46359524D01*
X-44345239Y46311905D01*
X-44297620Y46216667D01*
X-44297620Y46073810D01*
X-44297620Y46978572D02*
X-44345239Y46883334D01*
X-44440477Y46835715D01*
X-45297620Y46835715D01*
X-44297620Y47788096D02*
X-45297620Y47788096D01*
X-44345239Y47788096D02*
X-44297620Y47692858D01*
X-44297620Y47502381D01*
X-44345239Y47407143D01*
X-44392858Y47359524D01*
X-44488096Y47311905D01*
X-44773810Y47311905D01*
X-44869048Y47359524D01*
X-44916667Y47407143D01*
X-44964286Y47502381D01*
X-44964286Y47692858D01*
X-44916667Y47788096D01*
X-44345239Y48645239D02*
X-44297620Y48550000D01*
X-44297620Y48359524D01*
X-44345239Y48264286D01*
X-44440477Y48216667D01*
X-44821429Y48216667D01*
X-44916667Y48264286D01*
X-44964286Y48359524D01*
X-44964286Y48550000D01*
X-44916667Y48645239D01*
X-44821429Y48692858D01*
X-44726191Y48692858D01*
X-44630953Y48216667D01*
X-44297620Y49121429D02*
X-44964286Y49121429D01*
X-44773810Y49121429D02*
X-44869048Y49169048D01*
X-44916667Y49216667D01*
X-44964286Y49311905D01*
X-44964286Y49407143D01*
X-44345239Y50454762D02*
X-44297620Y50550000D01*
X-44297620Y50740477D01*
X-44345239Y50835715D01*
X-44440477Y50883334D01*
X-44488096Y50883334D01*
X-44583334Y50835715D01*
X-44630953Y50740477D01*
X-44630953Y50597620D01*
X-44678572Y50502381D01*
X-44773810Y50454762D01*
X-44821429Y50454762D01*
X-44916667Y50502381D01*
X-44964286Y50597620D01*
X-44964286Y50740477D01*
X-44916667Y50835715D01*
X-44297620Y51311905D02*
X-44964286Y51311905D01*
X-45297620Y51311905D02*
X-45250000Y51264286D01*
X-45202381Y51311905D01*
X-45250000Y51359524D01*
X-45297620Y51311905D01*
X-45202381Y51311905D01*
X-44297620Y52216667D02*
X-45297620Y52216667D01*
X-44345239Y52216667D02*
X-44297620Y52121429D01*
X-44297620Y51930953D01*
X-44345239Y51835715D01*
X-44392858Y51788096D01*
X-44488096Y51740477D01*
X-44773810Y51740477D01*
X-44869048Y51788096D01*
X-44916667Y51835715D01*
X-44964286Y51930953D01*
X-44964286Y52121429D01*
X-44916667Y52216667D01*
X-44345239Y53073810D02*
X-44297620Y52978572D01*
X-44297620Y52788096D01*
X-44345239Y52692858D01*
X-44440477Y52645239D01*
X-44821429Y52645239D01*
X-44916667Y52692858D01*
X-44964286Y52788096D01*
X-44964286Y52978572D01*
X-44916667Y53073810D01*
X-44821429Y53121429D01*
X-44726191Y53121429D01*
X-44630953Y52645239D01*
D13*
X23107142Y70145239D02*
X22154761Y70145239D01*
X22154761Y72145239D01*
X24059523Y70145239D02*
X23869047Y70240477D01*
X23773809Y70335715D01*
X23678571Y70526191D01*
X23678571Y71097620D01*
X23773809Y71288096D01*
X23869047Y71383334D01*
X24059523Y71478572D01*
X24345238Y71478572D01*
X24535714Y71383334D01*
X24630952Y71288096D01*
X24726190Y71097620D01*
X24726190Y70526191D01*
X24630952Y70335715D01*
X24535714Y70240477D01*
X24345238Y70145239D01*
X24059523Y70145239D01*
X25392857Y71478572D02*
X25773809Y70145239D01*
X26154761Y71097620D01*
X26535714Y70145239D01*
X26916666Y71478572D01*
X29202380Y71478572D02*
X29202380Y69478572D01*
X29202380Y71383334D02*
X29392857Y71478572D01*
X29773809Y71478572D01*
X29964285Y71383334D01*
X30059523Y71288096D01*
X30154761Y71097620D01*
X30154761Y70526191D01*
X30059523Y70335715D01*
X29964285Y70240477D01*
X29773809Y70145239D01*
X29392857Y70145239D01*
X29202380Y70240477D01*
X31011904Y70145239D02*
X31011904Y71478572D01*
X31011904Y71097620D02*
X31107142Y71288096D01*
X31202380Y71383334D01*
X31392857Y71478572D01*
X31583333Y71478572D01*
X32535714Y70145239D02*
X32345238Y70240477D01*
X32250000Y70335715D01*
X32154761Y70526191D01*
X32154761Y71097620D01*
X32250000Y71288096D01*
X32345238Y71383334D01*
X32535714Y71478572D01*
X32821428Y71478572D01*
X33011904Y71383334D01*
X33107142Y71288096D01*
X33202380Y71097620D01*
X33202380Y70526191D01*
X33107142Y70335715D01*
X33011904Y70240477D01*
X32821428Y70145239D01*
X32535714Y70145239D01*
X33773809Y71478572D02*
X34535714Y71478572D01*
X34059523Y70145239D02*
X34059523Y71859524D01*
X34154761Y72050000D01*
X34345238Y72145239D01*
X34535714Y72145239D01*
X35202380Y70145239D02*
X35202380Y71478572D01*
X35202380Y72145239D02*
X35107142Y72050000D01*
X35202380Y71954762D01*
X35297619Y72050000D01*
X35202380Y72145239D01*
X35202380Y71954762D01*
X36440476Y70145239D02*
X36250000Y70240477D01*
X36154761Y70430953D01*
X36154761Y72145239D01*
X37964285Y70240477D02*
X37773809Y70145239D01*
X37392857Y70145239D01*
X37202380Y70240477D01*
X37107142Y70430953D01*
X37107142Y71192858D01*
X37202380Y71383334D01*
X37392857Y71478572D01*
X37773809Y71478572D01*
X37964285Y71383334D01*
X38059523Y71192858D01*
X38059523Y71002381D01*
X37107142Y70811905D01*
X40440476Y70145239D02*
X40440476Y71478572D01*
X40440476Y71288096D02*
X40535714Y71383334D01*
X40726190Y71478572D01*
X41011904Y71478572D01*
X41202380Y71383334D01*
X41297619Y71192858D01*
X41297619Y70145239D01*
X41297619Y71192858D02*
X41392857Y71383334D01*
X41583333Y71478572D01*
X41869047Y71478572D01*
X42059523Y71383334D01*
X42154761Y71192858D01*
X42154761Y70145239D01*
X43964285Y70145239D02*
X43964285Y71192858D01*
X43869047Y71383334D01*
X43678571Y71478572D01*
X43297619Y71478572D01*
X43107142Y71383334D01*
X43964285Y70240477D02*
X43773809Y70145239D01*
X43297619Y70145239D01*
X43107142Y70240477D01*
X43011904Y70430953D01*
X43011904Y70621429D01*
X43107142Y70811905D01*
X43297619Y70907143D01*
X43773809Y70907143D01*
X43964285Y71002381D01*
X44726190Y70145239D02*
X45773809Y71478572D01*
X44726190Y71478572D02*
X45773809Y70145239D01*
X48059523Y70145239D02*
X48059523Y72145239D01*
X48916666Y70145239D02*
X48916666Y71192858D01*
X48821428Y71383334D01*
X48630952Y71478572D01*
X48345238Y71478572D01*
X48154761Y71383334D01*
X48059523Y71288096D01*
X50630952Y70240477D02*
X50440476Y70145239D01*
X50059523Y70145239D01*
X49869047Y70240477D01*
X49773809Y70430953D01*
X49773809Y71192858D01*
X49869047Y71383334D01*
X50059523Y71478572D01*
X50440476Y71478572D01*
X50630952Y71383334D01*
X50726190Y71192858D01*
X50726190Y71002381D01*
X49773809Y70811905D01*
X51583333Y70145239D02*
X51583333Y71478572D01*
X51583333Y72145239D02*
X51488095Y72050000D01*
X51583333Y71954762D01*
X51678571Y72050000D01*
X51583333Y72145239D01*
X51583333Y71954762D01*
X53392857Y71478572D02*
X53392857Y69859524D01*
X53297619Y69669048D01*
X53202380Y69573810D01*
X53011904Y69478572D01*
X52726190Y69478572D01*
X52535714Y69573810D01*
X53392857Y70240477D02*
X53202380Y70145239D01*
X52821428Y70145239D01*
X52630952Y70240477D01*
X52535714Y70335715D01*
X52440476Y70526191D01*
X52440476Y71097620D01*
X52535714Y71288096D01*
X52630952Y71383334D01*
X52821428Y71478572D01*
X53202380Y71478572D01*
X53392857Y71383334D01*
X54345238Y70145239D02*
X54345238Y72145239D01*
X55202380Y70145239D02*
X55202380Y71192858D01*
X55107142Y71383334D01*
X54916666Y71478572D01*
X54630952Y71478572D01*
X54440476Y71383334D01*
X54345238Y71288096D01*
X55869047Y71478572D02*
X56630952Y71478572D01*
X56154761Y72145239D02*
X56154761Y70430953D01*
X56250000Y70240477D01*
X56440476Y70145239D01*
X56630952Y70145239D01*
X-13523810Y43395239D02*
X-13523810Y45395239D01*
X-12857143Y43966667D01*
X-12190477Y45395239D01*
X-12190477Y43395239D01*
X-10380953Y43395239D02*
X-10380953Y44442858D01*
X-10476191Y44633334D01*
X-10666667Y44728572D01*
X-11047620Y44728572D01*
X-11238096Y44633334D01*
X-10380953Y43490477D02*
X-10571429Y43395239D01*
X-11047620Y43395239D01*
X-11238096Y43490477D01*
X-11333334Y43680953D01*
X-11333334Y43871429D01*
X-11238096Y44061905D01*
X-11047620Y44157143D01*
X-10571429Y44157143D01*
X-10380953Y44252381D01*
X-9619048Y43395239D02*
X-8571429Y44728572D01*
X-9619048Y44728572D02*
X-8571429Y43395239D01*
X-5428572Y43490477D02*
X-5619048Y43395239D01*
X-6000000Y43395239D01*
X-6190477Y43490477D01*
X-6285715Y43585715D01*
X-6380953Y43776191D01*
X-6380953Y44347620D01*
X-6285715Y44538096D01*
X-6190477Y44633334D01*
X-6000000Y44728572D01*
X-5619048Y44728572D01*
X-5428572Y44633334D01*
X-4285715Y43395239D02*
X-4476191Y43490477D01*
X-4571429Y43585715D01*
X-4666667Y43776191D01*
X-4666667Y44347620D01*
X-4571429Y44538096D01*
X-4476191Y44633334D01*
X-4285715Y44728572D01*
X-4000000Y44728572D01*
X-3809524Y44633334D01*
X-3714286Y44538096D01*
X-3619048Y44347620D01*
X-3619048Y43776191D01*
X-3714286Y43585715D01*
X-3809524Y43490477D01*
X-4000000Y43395239D01*
X-4285715Y43395239D01*
X-2761905Y43395239D02*
X-2761905Y44728572D01*
X-2761905Y44538096D02*
X-2666667Y44633334D01*
X-2476191Y44728572D01*
X-2190477Y44728572D01*
X-2000000Y44633334D01*
X-1904762Y44442858D01*
X-1904762Y43395239D01*
X-1904762Y44442858D02*
X-1809524Y44633334D01*
X-1619048Y44728572D01*
X-1333334Y44728572D01*
X-1142858Y44633334D01*
X-1047620Y44442858D01*
X-1047620Y43395239D01*
X-95239Y44728572D02*
X-95239Y42728572D01*
X-95239Y44633334D02*
X95238Y44728572D01*
X476190Y44728572D01*
X666666Y44633334D01*
X761904Y44538096D01*
X857142Y44347620D01*
X857142Y43776191D01*
X761904Y43585715D01*
X666666Y43490477D01*
X476190Y43395239D01*
X95238Y43395239D01*
X-95239Y43490477D01*
X2000000Y43395239D02*
X1809523Y43490477D01*
X1714285Y43585715D01*
X1619047Y43776191D01*
X1619047Y44347620D01*
X1714285Y44538096D01*
X1809523Y44633334D01*
X2000000Y44728572D01*
X2285714Y44728572D01*
X2476190Y44633334D01*
X2571428Y44538096D01*
X2666666Y44347620D01*
X2666666Y43776191D01*
X2571428Y43585715D01*
X2476190Y43490477D01*
X2285714Y43395239D01*
X2000000Y43395239D01*
X3523809Y44728572D02*
X3523809Y43395239D01*
X3523809Y44538096D02*
X3619047Y44633334D01*
X3809523Y44728572D01*
X4095238Y44728572D01*
X4285714Y44633334D01*
X4380952Y44442858D01*
X4380952Y43395239D01*
X6095238Y43490477D02*
X5904761Y43395239D01*
X5523809Y43395239D01*
X5333333Y43490477D01*
X5238095Y43680953D01*
X5238095Y44442858D01*
X5333333Y44633334D01*
X5523809Y44728572D01*
X5904761Y44728572D01*
X6095238Y44633334D01*
X6190476Y44442858D01*
X6190476Y44252381D01*
X5238095Y44061905D01*
X7047619Y44728572D02*
X7047619Y43395239D01*
X7047619Y44538096D02*
X7142857Y44633334D01*
X7333333Y44728572D01*
X7619047Y44728572D01*
X7809523Y44633334D01*
X7904761Y44442858D01*
X7904761Y43395239D01*
X8571428Y44728572D02*
X9333333Y44728572D01*
X8857142Y45395239D02*
X8857142Y43680953D01*
X8952380Y43490477D01*
X9142857Y43395239D01*
X9333333Y43395239D01*
X11523809Y43395239D02*
X11523809Y45395239D01*
X12380952Y43395239D02*
X12380952Y44442858D01*
X12285714Y44633334D01*
X12095238Y44728572D01*
X11809523Y44728572D01*
X11619047Y44633334D01*
X11523809Y44538096D01*
X14095238Y43490477D02*
X13904761Y43395239D01*
X13523809Y43395239D01*
X13333333Y43490477D01*
X13238095Y43680953D01*
X13238095Y44442858D01*
X13333333Y44633334D01*
X13523809Y44728572D01*
X13904761Y44728572D01*
X14095238Y44633334D01*
X14190476Y44442858D01*
X14190476Y44252381D01*
X13238095Y44061905D01*
X15047619Y43395239D02*
X15047619Y44728572D01*
X15047619Y45395239D02*
X14952380Y45300000D01*
X15047619Y45204762D01*
X15142857Y45300000D01*
X15047619Y45395239D01*
X15047619Y45204762D01*
X16857142Y44728572D02*
X16857142Y43109524D01*
X16761904Y42919048D01*
X16666666Y42823810D01*
X16476190Y42728572D01*
X16190476Y42728572D01*
X16000000Y42823810D01*
X16857142Y43490477D02*
X16666666Y43395239D01*
X16285714Y43395239D01*
X16095238Y43490477D01*
X16000000Y43585715D01*
X15904761Y43776191D01*
X15904761Y44347620D01*
X16000000Y44538096D01*
X16095238Y44633334D01*
X16285714Y44728572D01*
X16666666Y44728572D01*
X16857142Y44633334D01*
X17809523Y43395239D02*
X17809523Y45395239D01*
X18666666Y43395239D02*
X18666666Y44442858D01*
X18571428Y44633334D01*
X18380952Y44728572D01*
X18095238Y44728572D01*
X17904761Y44633334D01*
X17809523Y44538096D01*
X19333333Y44728572D02*
X20095238Y44728572D01*
X19619047Y45395239D02*
X19619047Y43680953D01*
X19714285Y43490477D01*
X19904761Y43395239D01*
X20095238Y43395239D01*
X20761904Y43585715D02*
X20857142Y43490477D01*
X20761904Y43395239D01*
X20666666Y43490477D01*
X20761904Y43585715D01*
X20761904Y43395239D01*
X20761904Y44633334D02*
X20857142Y44538096D01*
X20761904Y44442858D01*
X20666666Y44538096D01*
X20761904Y44633334D01*
X20761904Y44442858D01*
X23142857Y43490477D02*
X23333333Y43395239D01*
X23714285Y43395239D01*
X23904761Y43490477D01*
X24000000Y43680953D01*
X24000000Y43776191D01*
X23904761Y43966667D01*
X23714285Y44061905D01*
X23428571Y44061905D01*
X23238095Y44157143D01*
X23142857Y44347620D01*
X23142857Y44442858D01*
X23238095Y44633334D01*
X23428571Y44728572D01*
X23714285Y44728572D01*
X23904761Y44633334D01*
X25142857Y43395239D02*
X24952380Y43490477D01*
X24857142Y43585715D01*
X24761904Y43776191D01*
X24761904Y44347620D01*
X24857142Y44538096D01*
X24952380Y44633334D01*
X25142857Y44728572D01*
X25428571Y44728572D01*
X25619047Y44633334D01*
X25714285Y44538096D01*
X25809523Y44347620D01*
X25809523Y43776191D01*
X25714285Y43585715D01*
X25619047Y43490477D01*
X25428571Y43395239D01*
X25142857Y43395239D01*
X26952380Y43395239D02*
X26761904Y43490477D01*
X26666666Y43680953D01*
X26666666Y45395239D01*
X28571428Y43395239D02*
X28571428Y45395239D01*
X28571428Y43490477D02*
X28380952Y43395239D01*
X28000000Y43395239D01*
X27809523Y43490477D01*
X27714285Y43585715D01*
X27619047Y43776191D01*
X27619047Y44347620D01*
X27714285Y44538096D01*
X27809523Y44633334D01*
X28000000Y44728572D01*
X28380952Y44728572D01*
X28571428Y44633334D01*
X30285714Y43490477D02*
X30095238Y43395239D01*
X29714285Y43395239D01*
X29523809Y43490477D01*
X29428571Y43680953D01*
X29428571Y44442858D01*
X29523809Y44633334D01*
X29714285Y44728572D01*
X30095238Y44728572D01*
X30285714Y44633334D01*
X30380952Y44442858D01*
X30380952Y44252381D01*
X29428571Y44061905D01*
X31238095Y43395239D02*
X31238095Y44728572D01*
X31238095Y44347620D02*
X31333333Y44538096D01*
X31428571Y44633334D01*
X31619047Y44728572D01*
X31809523Y44728572D01*
X33904761Y43490477D02*
X34095238Y43395239D01*
X34476190Y43395239D01*
X34666666Y43490477D01*
X34761904Y43680953D01*
X34761904Y43776191D01*
X34666666Y43966667D01*
X34476190Y44061905D01*
X34190476Y44061905D01*
X34000000Y44157143D01*
X33904761Y44347620D01*
X33904761Y44442858D01*
X34000000Y44633334D01*
X34190476Y44728572D01*
X34476190Y44728572D01*
X34666666Y44633334D01*
X35619047Y43395239D02*
X35619047Y44728572D01*
X35619047Y45395239D02*
X35523809Y45300000D01*
X35619047Y45204762D01*
X35714285Y45300000D01*
X35619047Y45395239D01*
X35619047Y45204762D01*
X37428571Y43395239D02*
X37428571Y45395239D01*
X37428571Y43490477D02*
X37238095Y43395239D01*
X36857142Y43395239D01*
X36666666Y43490477D01*
X36571428Y43585715D01*
X36476190Y43776191D01*
X36476190Y44347620D01*
X36571428Y44538096D01*
X36666666Y44633334D01*
X36857142Y44728572D01*
X37238095Y44728572D01*
X37428571Y44633334D01*
X39142857Y43490477D02*
X38952380Y43395239D01*
X38571428Y43395239D01*
X38380952Y43490477D01*
X38285714Y43680953D01*
X38285714Y44442858D01*
X38380952Y44633334D01*
X38571428Y44728572D01*
X38952380Y44728572D01*
X39142857Y44633334D01*
X39238095Y44442858D01*
X39238095Y44252381D01*
X38285714Y44061905D01*
X41523809Y45204762D02*
X41619047Y45300000D01*
X41809523Y45395239D01*
X42285714Y45395239D01*
X42476190Y45300000D01*
X42571428Y45204762D01*
X42666666Y45014286D01*
X42666666Y44823810D01*
X42571428Y44538096D01*
X41428571Y43395239D01*
X42666666Y43395239D01*
X43619047Y43490477D02*
X43619047Y43395239D01*
X43523809Y43204762D01*
X43428571Y43109524D01*
X45333333Y45395239D02*
X44952380Y45395239D01*
X44761904Y45300000D01*
X44666666Y45204762D01*
X44476190Y44919048D01*
X44380952Y44538096D01*
X44380952Y43776191D01*
X44476190Y43585715D01*
X44571428Y43490477D01*
X44761904Y43395239D01*
X45142857Y43395239D01*
X45333333Y43490477D01*
X45428571Y43585715D01*
X45523809Y43776191D01*
X45523809Y44252381D01*
X45428571Y44442858D01*
X45333333Y44538096D01*
X45142857Y44633334D01*
X44761904Y44633334D01*
X44571428Y44538096D01*
X44476190Y44442858D01*
X44380952Y44252381D01*
X46190476Y45395239D02*
X47523809Y45395239D01*
X46666666Y43395239D01*
X48285714Y43395239D02*
X48285714Y44728572D01*
X48285714Y44538096D02*
X48380952Y44633334D01*
X48571428Y44728572D01*
X48857142Y44728572D01*
X49047619Y44633334D01*
X49142857Y44442858D01*
X49142857Y43395239D01*
X49142857Y44442858D02*
X49238095Y44633334D01*
X49428571Y44728572D01*
X49714285Y44728572D01*
X49904761Y44633334D01*
X50000000Y44442858D01*
X50000000Y43395239D01*
X50952380Y43395239D02*
X50952380Y44728572D01*
X50952380Y44538096D02*
X51047619Y44633334D01*
X51238095Y44728572D01*
X51523809Y44728572D01*
X51714285Y44633334D01*
X51809523Y44442858D01*
X51809523Y43395239D01*
X51809523Y44442858D02*
X51904761Y44633334D01*
X52095238Y44728572D01*
X52380952Y44728572D01*
X52571428Y44633334D01*
X52666666Y44442858D01*
X52666666Y43395239D01*
X56000000Y43490477D02*
X55809523Y43395239D01*
X55428571Y43395239D01*
X55238095Y43490477D01*
X55142857Y43585715D01*
X55047619Y43776191D01*
X55047619Y44347620D01*
X55142857Y44538096D01*
X55238095Y44633334D01*
X55428571Y44728572D01*
X55809523Y44728572D01*
X56000000Y44633334D01*
X57142857Y43395239D02*
X56952380Y43490477D01*
X56857142Y43585715D01*
X56761904Y43776191D01*
X56761904Y44347620D01*
X56857142Y44538096D01*
X56952380Y44633334D01*
X57142857Y44728572D01*
X57428571Y44728572D01*
X57619047Y44633334D01*
X57714285Y44538096D01*
X57809523Y44347620D01*
X57809523Y43776191D01*
X57714285Y43585715D01*
X57619047Y43490477D01*
X57428571Y43395239D01*
X57142857Y43395239D01*
X58666666Y43395239D02*
X58666666Y44728572D01*
X58666666Y44538096D02*
X58761904Y44633334D01*
X58952380Y44728572D01*
X59238095Y44728572D01*
X59428571Y44633334D01*
X59523809Y44442858D01*
X59523809Y43395239D01*
X59523809Y44442858D02*
X59619047Y44633334D01*
X59809523Y44728572D01*
X60095238Y44728572D01*
X60285714Y44633334D01*
X60380952Y44442858D01*
X60380952Y43395239D01*
X61333333Y44728572D02*
X61333333Y42728572D01*
X61333333Y44633334D02*
X61523809Y44728572D01*
X61904761Y44728572D01*
X62095238Y44633334D01*
X62190476Y44538096D01*
X62285714Y44347620D01*
X62285714Y43776191D01*
X62190476Y43585715D01*
X62095238Y43490477D01*
X61904761Y43395239D01*
X61523809Y43395239D01*
X61333333Y43490477D01*
X63428571Y43395239D02*
X63238095Y43490477D01*
X63142857Y43585715D01*
X63047619Y43776191D01*
X63047619Y44347620D01*
X63142857Y44538096D01*
X63238095Y44633334D01*
X63428571Y44728572D01*
X63714285Y44728572D01*
X63904761Y44633334D01*
X64000000Y44538096D01*
X64095238Y44347620D01*
X64095238Y43776191D01*
X64000000Y43585715D01*
X63904761Y43490477D01*
X63714285Y43395239D01*
X63428571Y43395239D01*
X64952380Y44728572D02*
X64952380Y43395239D01*
X64952380Y44538096D02*
X65047619Y44633334D01*
X65238095Y44728572D01*
X65523809Y44728572D01*
X65714285Y44633334D01*
X65809523Y44442858D01*
X65809523Y43395239D01*
X67523809Y43490477D02*
X67333333Y43395239D01*
X66952380Y43395239D01*
X66761904Y43490477D01*
X66666666Y43680953D01*
X66666666Y44442858D01*
X66761904Y44633334D01*
X66952380Y44728572D01*
X67333333Y44728572D01*
X67523809Y44633334D01*
X67619047Y44442858D01*
X67619047Y44252381D01*
X66666666Y44061905D01*
X68476190Y44728572D02*
X68476190Y43395239D01*
X68476190Y44538096D02*
X68571428Y44633334D01*
X68761904Y44728572D01*
X69047619Y44728572D01*
X69238095Y44633334D01*
X69333333Y44442858D01*
X69333333Y43395239D01*
X70000000Y44728572D02*
X70761904Y44728572D01*
X70285714Y45395239D02*
X70285714Y43680953D01*
X70380952Y43490477D01*
X70571428Y43395239D01*
X70761904Y43395239D01*
X72857142Y43490477D02*
X73047619Y43395239D01*
X73428571Y43395239D01*
X73619047Y43490477D01*
X73714285Y43680953D01*
X73714285Y43776191D01*
X73619047Y43966667D01*
X73428571Y44061905D01*
X73142857Y44061905D01*
X72952380Y44157143D01*
X72857142Y44347620D01*
X72857142Y44442858D01*
X72952380Y44633334D01*
X73142857Y44728572D01*
X73428571Y44728572D01*
X73619047Y44633334D01*
X74571428Y43395239D02*
X74571428Y44728572D01*
X74571428Y45395239D02*
X74476190Y45300000D01*
X74571428Y45204762D01*
X74666666Y45300000D01*
X74571428Y45395239D01*
X74571428Y45204762D01*
X76380952Y43395239D02*
X76380952Y45395239D01*
X76380952Y43490477D02*
X76190476Y43395239D01*
X75809523Y43395239D01*
X75619047Y43490477D01*
X75523809Y43585715D01*
X75428571Y43776191D01*
X75428571Y44347620D01*
X75523809Y44538096D01*
X75619047Y44633334D01*
X75809523Y44728572D01*
X76190476Y44728572D01*
X76380952Y44633334D01*
X78095238Y43490477D02*
X77904761Y43395239D01*
X77523809Y43395239D01*
X77333333Y43490477D01*
X77238095Y43680953D01*
X77238095Y44442858D01*
X77333333Y44633334D01*
X77523809Y44728572D01*
X77904761Y44728572D01*
X78095238Y44633334D01*
X78190476Y44442858D01*
X78190476Y44252381D01*
X77238095Y44061905D01*
X81619047Y43395239D02*
X80476190Y43395239D01*
X81047619Y43395239D02*
X81047619Y45395239D01*
X80857142Y45109524D01*
X80666666Y44919048D01*
X80476190Y44823810D01*
X83333333Y44728572D02*
X83333333Y43395239D01*
X82857142Y45490477D02*
X82380952Y44061905D01*
X83619047Y44061905D01*
X84476190Y43490477D02*
X84476190Y43395239D01*
X84380952Y43204762D01*
X84285714Y43109524D01*
X86190476Y44728572D02*
X86190476Y43395239D01*
X85714285Y45490477D02*
X85238095Y44061905D01*
X86476190Y44061905D01*
X87333333Y43395239D02*
X87714285Y43395239D01*
X87904761Y43490477D01*
X88000000Y43585715D01*
X88190476Y43871429D01*
X88285714Y44252381D01*
X88285714Y45014286D01*
X88190476Y45204762D01*
X88095238Y45300000D01*
X87904761Y45395239D01*
X87523809Y45395239D01*
X87333333Y45300000D01*
X87238095Y45204762D01*
X87142857Y45014286D01*
X87142857Y44538096D01*
X87238095Y44347620D01*
X87333333Y44252381D01*
X87523809Y44157143D01*
X87904761Y44157143D01*
X88095238Y44252381D01*
X88190476Y44347620D01*
X88285714Y44538096D01*
X89142857Y43395239D02*
X89142857Y44728572D01*
X89142857Y44538096D02*
X89238095Y44633334D01*
X89428571Y44728572D01*
X89714285Y44728572D01*
X89904761Y44633334D01*
X90000000Y44442858D01*
X90000000Y43395239D01*
X90000000Y44442858D02*
X90095238Y44633334D01*
X90285714Y44728572D01*
X90571428Y44728572D01*
X90761904Y44633334D01*
X90857142Y44442858D01*
X90857142Y43395239D01*
X91809523Y43395239D02*
X91809523Y44728572D01*
X91809523Y44538096D02*
X91904761Y44633334D01*
X92095238Y44728572D01*
X92380952Y44728572D01*
X92571428Y44633334D01*
X92666666Y44442858D01*
X92666666Y43395239D01*
X92666666Y44442858D02*
X92761904Y44633334D01*
X92952380Y44728572D01*
X93238095Y44728572D01*
X93428571Y44633334D01*
X93523809Y44442858D01*
X93523809Y43395239D01*
D12*
X88964285Y8597620D02*
X88964285Y9597620D01*
X89535714Y8597620D02*
X89107142Y9169048D01*
X89535714Y9597620D02*
X88964285Y9026191D01*
X90345238Y8645239D02*
X90250000Y8597620D01*
X90059523Y8597620D01*
X89964285Y8645239D01*
X89916666Y8740477D01*
X89916666Y9121429D01*
X89964285Y9216667D01*
X90059523Y9264286D01*
X90250000Y9264286D01*
X90345238Y9216667D01*
X90392857Y9121429D01*
X90392857Y9026191D01*
X89916666Y8930953D01*
X91202380Y8645239D02*
X91107142Y8597620D01*
X90916666Y8597620D01*
X90821428Y8645239D01*
X90773809Y8740477D01*
X90773809Y9121429D01*
X90821428Y9216667D01*
X90916666Y9264286D01*
X91107142Y9264286D01*
X91202380Y9216667D01*
X91250000Y9121429D01*
X91250000Y9026191D01*
X90773809Y8930953D01*
X91678571Y9264286D02*
X91678571Y8264286D01*
X91678571Y9216667D02*
X91773809Y9264286D01*
X91964285Y9264286D01*
X92059523Y9216667D01*
X92107142Y9169048D01*
X92154761Y9073810D01*
X92154761Y8788096D01*
X92107142Y8692858D01*
X92059523Y8645239D01*
X91964285Y8597620D01*
X91773809Y8597620D01*
X91678571Y8645239D01*
X93488095Y8597620D02*
X93392857Y8645239D01*
X93345238Y8692858D01*
X93297619Y8788096D01*
X93297619Y9073810D01*
X93345238Y9169048D01*
X93392857Y9216667D01*
X93488095Y9264286D01*
X93630952Y9264286D01*
X93726190Y9216667D01*
X93773809Y9169048D01*
X93821428Y9073810D01*
X93821428Y8788096D01*
X93773809Y8692858D01*
X93726190Y8645239D01*
X93630952Y8597620D01*
X93488095Y8597620D01*
X94678571Y9264286D02*
X94678571Y8597620D01*
X94250000Y9264286D02*
X94250000Y8740477D01*
X94297619Y8645239D01*
X94392857Y8597620D01*
X94535714Y8597620D01*
X94630952Y8645239D01*
X94678571Y8692858D01*
X95011904Y9264286D02*
X95392857Y9264286D01*
X95154761Y9597620D02*
X95154761Y8740477D01*
X95202380Y8645239D01*
X95297619Y8597620D01*
X95392857Y8597620D01*
X96916666Y8645239D02*
X96821428Y8597620D01*
X96630952Y8597620D01*
X96535714Y8645239D01*
X96488095Y8692858D01*
X96440476Y8788096D01*
X96440476Y9073810D01*
X96488095Y9169048D01*
X96535714Y9216667D01*
X96630952Y9264286D01*
X96821428Y9264286D01*
X96916666Y9216667D01*
X97488095Y8597620D02*
X97392857Y8645239D01*
X97345238Y8692858D01*
X97297619Y8788096D01*
X97297619Y9073810D01*
X97345238Y9169048D01*
X97392857Y9216667D01*
X97488095Y9264286D01*
X97630952Y9264286D01*
X97726190Y9216667D01*
X97773809Y9169048D01*
X97821428Y9073810D01*
X97821428Y8788096D01*
X97773809Y8692858D01*
X97726190Y8645239D01*
X97630952Y8597620D01*
X97488095Y8597620D01*
X98250000Y8597620D02*
X98250000Y9264286D01*
X98250000Y9169048D02*
X98297619Y9216667D01*
X98392857Y9264286D01*
X98535714Y9264286D01*
X98630952Y9216667D01*
X98678571Y9121429D01*
X98678571Y8597620D01*
X98678571Y9121429D02*
X98726190Y9216667D01*
X98821428Y9264286D01*
X98964285Y9264286D01*
X99059523Y9216667D01*
X99107142Y9121429D01*
X99107142Y8597620D01*
X99583333Y9264286D02*
X99583333Y8264286D01*
X99583333Y9216667D02*
X99678571Y9264286D01*
X99869047Y9264286D01*
X99964285Y9216667D01*
X100011904Y9169048D01*
X100059523Y9073810D01*
X100059523Y8788096D01*
X100011904Y8692858D01*
X99964285Y8645239D01*
X99869047Y8597620D01*
X99678571Y8597620D01*
X99583333Y8645239D01*
X100630952Y8597620D02*
X100535714Y8645239D01*
X100488095Y8692858D01*
X100440476Y8788096D01*
X100440476Y9073810D01*
X100488095Y9169048D01*
X100535714Y9216667D01*
X100630952Y9264286D01*
X100773809Y9264286D01*
X100869047Y9216667D01*
X100916666Y9169048D01*
X100964285Y9073810D01*
X100964285Y8788096D01*
X100916666Y8692858D01*
X100869047Y8645239D01*
X100773809Y8597620D01*
X100630952Y8597620D01*
X101392857Y9264286D02*
X101392857Y8597620D01*
X101392857Y9169048D02*
X101440476Y9216667D01*
X101535714Y9264286D01*
X101678571Y9264286D01*
X101773809Y9216667D01*
X101821428Y9121429D01*
X101821428Y8597620D01*
X102678571Y8645239D02*
X102583333Y8597620D01*
X102392857Y8597620D01*
X102297619Y8645239D01*
X102250000Y8740477D01*
X102250000Y9121429D01*
X102297619Y9216667D01*
X102392857Y9264286D01*
X102583333Y9264286D01*
X102678571Y9216667D01*
X102726190Y9121429D01*
X102726190Y9026191D01*
X102250000Y8930953D01*
X103154761Y9264286D02*
X103154761Y8597620D01*
X103154761Y9169048D02*
X103202380Y9216667D01*
X103297619Y9264286D01*
X103440476Y9264286D01*
X103535714Y9216667D01*
X103583333Y9121429D01*
X103583333Y8597620D01*
X103916666Y9264286D02*
X104297619Y9264286D01*
X104059523Y9597620D02*
X104059523Y8740477D01*
X104107142Y8645239D01*
X104202380Y8597620D01*
X104297619Y8597620D01*
X104583333Y8645239D02*
X104678571Y8597620D01*
X104869047Y8597620D01*
X104964285Y8645239D01*
X105011904Y8740477D01*
X105011904Y8788096D01*
X104964285Y8883334D01*
X104869047Y8930953D01*
X104726190Y8930953D01*
X104630952Y8978572D01*
X104583333Y9073810D01*
X104583333Y9121429D01*
X104630952Y9216667D01*
X104726190Y9264286D01*
X104869047Y9264286D01*
X104964285Y9216667D01*
X106630952Y8597620D02*
X106630952Y9121429D01*
X106583333Y9216667D01*
X106488095Y9264286D01*
X106297619Y9264286D01*
X106202380Y9216667D01*
X106630952Y8645239D02*
X106535714Y8597620D01*
X106297619Y8597620D01*
X106202380Y8645239D01*
X106154761Y8740477D01*
X106154761Y8835715D01*
X106202380Y8930953D01*
X106297619Y8978572D01*
X106535714Y8978572D01*
X106630952Y9026191D01*
X107107142Y9264286D02*
X107107142Y8597620D01*
X107107142Y9169048D02*
X107154761Y9216667D01*
X107250000Y9264286D01*
X107392857Y9264286D01*
X107488095Y9216667D01*
X107535714Y9121429D01*
X107535714Y8597620D01*
X108440476Y8597620D02*
X108440476Y9597620D01*
X108440476Y8645239D02*
X108345238Y8597620D01*
X108154761Y8597620D01*
X108059523Y8645239D01*
X108011904Y8692858D01*
X107964285Y8788096D01*
X107964285Y9073810D01*
X108011904Y9169048D01*
X108059523Y9216667D01*
X108154761Y9264286D01*
X108345238Y9264286D01*
X108440476Y9216667D01*
X109535714Y9264286D02*
X109916666Y9264286D01*
X109678571Y9597620D02*
X109678571Y8740477D01*
X109726190Y8645239D01*
X109821428Y8597620D01*
X109916666Y8597620D01*
X110250000Y8597620D02*
X110250000Y9264286D01*
X110250000Y9073810D02*
X110297619Y9169048D01*
X110345238Y9216667D01*
X110440476Y9264286D01*
X110535714Y9264286D01*
X111297619Y8597620D02*
X111297619Y9121429D01*
X111250000Y9216667D01*
X111154761Y9264286D01*
X110964285Y9264286D01*
X110869047Y9216667D01*
X111297619Y8645239D02*
X111202380Y8597620D01*
X110964285Y8597620D01*
X110869047Y8645239D01*
X110821428Y8740477D01*
X110821428Y8835715D01*
X110869047Y8930953D01*
X110964285Y8978572D01*
X111202380Y8978572D01*
X111297619Y9026191D01*
X112202380Y8645239D02*
X112107142Y8597620D01*
X111916666Y8597620D01*
X111821428Y8645239D01*
X111773809Y8692858D01*
X111726190Y8788096D01*
X111726190Y9073810D01*
X111773809Y9169048D01*
X111821428Y9216667D01*
X111916666Y9264286D01*
X112107142Y9264286D01*
X112202380Y9216667D01*
X113011904Y8645239D02*
X112916666Y8597620D01*
X112726190Y8597620D01*
X112630952Y8645239D01*
X112583333Y8740477D01*
X112583333Y9121429D01*
X112630952Y9216667D01*
X112726190Y9264286D01*
X112916666Y9264286D01*
X113011904Y9216667D01*
X113059523Y9121429D01*
X113059523Y9026191D01*
X112583333Y8930953D01*
X113440476Y8645239D02*
X113535714Y8597620D01*
X113726190Y8597620D01*
X113821428Y8645239D01*
X113869047Y8740477D01*
X113869047Y8788096D01*
X113821428Y8883334D01*
X113726190Y8930953D01*
X113583333Y8930953D01*
X113488095Y8978572D01*
X113440476Y9073810D01*
X113440476Y9121429D01*
X113488095Y9216667D01*
X113583333Y9264286D01*
X113726190Y9264286D01*
X113821428Y9216667D01*
X115488095Y8645239D02*
X115392857Y8597620D01*
X115202380Y8597620D01*
X115107142Y8645239D01*
X115059523Y8692858D01*
X115011904Y8788096D01*
X115011904Y9073810D01*
X115059523Y9169048D01*
X115107142Y9216667D01*
X115202380Y9264286D01*
X115392857Y9264286D01*
X115488095Y9216667D01*
X116059523Y8597620D02*
X115964285Y8645239D01*
X115916666Y8692858D01*
X115869047Y8788096D01*
X115869047Y9073810D01*
X115916666Y9169048D01*
X115964285Y9216667D01*
X116059523Y9264286D01*
X116202380Y9264286D01*
X116297619Y9216667D01*
X116345238Y9169048D01*
X116392857Y9073810D01*
X116392857Y8788096D01*
X116345238Y8692858D01*
X116297619Y8645239D01*
X116202380Y8597620D01*
X116059523Y8597620D01*
X116821428Y8597620D02*
X116821428Y9264286D01*
X116821428Y9169048D02*
X116869047Y9216667D01*
X116964285Y9264286D01*
X117107142Y9264286D01*
X117202380Y9216667D01*
X117250000Y9121429D01*
X117250000Y8597620D01*
X117250000Y9121429D02*
X117297619Y9216667D01*
X117392857Y9264286D01*
X117535714Y9264286D01*
X117630952Y9216667D01*
X117678571Y9121429D01*
X117678571Y8597620D01*
X118154761Y9264286D02*
X118154761Y8264286D01*
X118154761Y9216667D02*
X118250000Y9264286D01*
X118440476Y9264286D01*
X118535714Y9216667D01*
X118583333Y9169048D01*
X118630952Y9073810D01*
X118630952Y8788096D01*
X118583333Y8692858D01*
X118535714Y8645239D01*
X118440476Y8597620D01*
X118250000Y8597620D01*
X118154761Y8645239D01*
X119202380Y8597620D02*
X119107142Y8645239D01*
X119059523Y8692858D01*
X119011904Y8788096D01*
X119011904Y9073810D01*
X119059523Y9169048D01*
X119107142Y9216667D01*
X119202380Y9264286D01*
X119345238Y9264286D01*
X119440476Y9216667D01*
X119488095Y9169048D01*
X119535714Y9073810D01*
X119535714Y8788096D01*
X119488095Y8692858D01*
X119440476Y8645239D01*
X119345238Y8597620D01*
X119202380Y8597620D01*
X119964285Y9264286D02*
X119964285Y8597620D01*
X119964285Y9169048D02*
X120011904Y9216667D01*
X120107142Y9264286D01*
X120250000Y9264286D01*
X120345238Y9216667D01*
X120392857Y9121429D01*
X120392857Y8597620D01*
X121250000Y8645239D02*
X121154761Y8597620D01*
X120964285Y8597620D01*
X120869047Y8645239D01*
X120821428Y8740477D01*
X120821428Y9121429D01*
X120869047Y9216667D01*
X120964285Y9264286D01*
X121154761Y9264286D01*
X121250000Y9216667D01*
X121297619Y9121429D01*
X121297619Y9026191D01*
X120821428Y8930953D01*
X121726190Y9264286D02*
X121726190Y8597620D01*
X121726190Y9169048D02*
X121773809Y9216667D01*
X121869047Y9264286D01*
X122011904Y9264286D01*
X122107142Y9216667D01*
X122154761Y9121429D01*
X122154761Y8597620D01*
X122488095Y9264286D02*
X122869047Y9264286D01*
X122630952Y9597620D02*
X122630952Y8740477D01*
X122678571Y8645239D01*
X122773809Y8597620D01*
X122869047Y8597620D01*
X123916666Y8645239D02*
X124011904Y8597620D01*
X124202380Y8597620D01*
X124297619Y8645239D01*
X124345238Y8740477D01*
X124345238Y8788096D01*
X124297619Y8883334D01*
X124202380Y8930953D01*
X124059523Y8930953D01*
X123964285Y8978572D01*
X123916666Y9073810D01*
X123916666Y9121429D01*
X123964285Y9216667D01*
X124059523Y9264286D01*
X124202380Y9264286D01*
X124297619Y9216667D01*
X124773809Y8597620D02*
X124773809Y9264286D01*
X124773809Y9597620D02*
X124726190Y9550000D01*
X124773809Y9502381D01*
X124821428Y9550000D01*
X124773809Y9597620D01*
X124773809Y9502381D01*
X125678571Y8597620D02*
X125678571Y9597620D01*
X125678571Y8645239D02*
X125583333Y8597620D01*
X125392857Y8597620D01*
X125297619Y8645239D01*
X125250000Y8692858D01*
X125202380Y8788096D01*
X125202380Y9073810D01*
X125250000Y9169048D01*
X125297619Y9216667D01*
X125392857Y9264286D01*
X125583333Y9264286D01*
X125678571Y9216667D01*
X126535714Y8645239D02*
X126440476Y8597620D01*
X126250000Y8597620D01*
X126154761Y8645239D01*
X126107142Y8740477D01*
X126107142Y9121429D01*
X126154761Y9216667D01*
X126250000Y9264286D01*
X126440476Y9264286D01*
X126535714Y9216667D01*
X126583333Y9121429D01*
X126583333Y9026191D01*
X126107142Y8930953D01*
X-12297620Y3097620D02*
X-12297620Y4097620D01*
X-11726191Y3097620D02*
X-12154762Y3669048D01*
X-11726191Y4097620D02*
X-12297620Y3526191D01*
X-10916667Y3145239D02*
X-11011905Y3097620D01*
X-11202381Y3097620D01*
X-11297620Y3145239D01*
X-11345239Y3240477D01*
X-11345239Y3621429D01*
X-11297620Y3716667D01*
X-11202381Y3764286D01*
X-11011905Y3764286D01*
X-10916667Y3716667D01*
X-10869048Y3621429D01*
X-10869048Y3526191D01*
X-11345239Y3430953D01*
X-10059524Y3145239D02*
X-10154762Y3097620D01*
X-10345239Y3097620D01*
X-10440477Y3145239D01*
X-10488096Y3240477D01*
X-10488096Y3621429D01*
X-10440477Y3716667D01*
X-10345239Y3764286D01*
X-10154762Y3764286D01*
X-10059524Y3716667D01*
X-10011905Y3621429D01*
X-10011905Y3526191D01*
X-10488096Y3430953D01*
X-9583334Y3764286D02*
X-9583334Y2764286D01*
X-9583334Y3716667D02*
X-9488096Y3764286D01*
X-9297620Y3764286D01*
X-9202381Y3716667D01*
X-9154762Y3669048D01*
X-9107143Y3573810D01*
X-9107143Y3288096D01*
X-9154762Y3192858D01*
X-9202381Y3145239D01*
X-9297620Y3097620D01*
X-9488096Y3097620D01*
X-9583334Y3145239D01*
X-7726191Y4097620D02*
X-7535715Y4097620D01*
X-7440477Y4050000D01*
X-7345239Y3954762D01*
X-7297620Y3764286D01*
X-7297620Y3430953D01*
X-7345239Y3240477D01*
X-7440477Y3145239D01*
X-7535715Y3097620D01*
X-7726191Y3097620D01*
X-7821429Y3145239D01*
X-7916667Y3240477D01*
X-7964286Y3430953D01*
X-7964286Y3764286D01*
X-7916667Y3954762D01*
X-7821429Y4050000D01*
X-7726191Y4097620D01*
X-6440477Y3764286D02*
X-6440477Y3097620D01*
X-6869048Y3764286D02*
X-6869048Y3240477D01*
X-6821429Y3145239D01*
X-6726191Y3097620D01*
X-6583334Y3097620D01*
X-6488096Y3145239D01*
X-6440477Y3192858D01*
X-6107143Y3764286D02*
X-5726191Y3764286D01*
X-5964286Y4097620D02*
X-5964286Y3240477D01*
X-5916667Y3145239D01*
X-5821429Y3097620D01*
X-5726191Y3097620D01*
X-4059524Y3192858D02*
X-4107143Y3145239D01*
X-4250000Y3097620D01*
X-4345239Y3097620D01*
X-4488096Y3145239D01*
X-4583334Y3240477D01*
X-4630953Y3335715D01*
X-4678572Y3526191D01*
X-4678572Y3669048D01*
X-4630953Y3859524D01*
X-4583334Y3954762D01*
X-4488096Y4050000D01*
X-4345239Y4097620D01*
X-4250000Y4097620D01*
X-4107143Y4050000D01*
X-4059524Y4002381D01*
X-3202381Y3764286D02*
X-3202381Y3097620D01*
X-3630953Y3764286D02*
X-3630953Y3240477D01*
X-3583334Y3145239D01*
X-3488096Y3097620D01*
X-3345239Y3097620D01*
X-3250000Y3145239D01*
X-3202381Y3192858D01*
X-38511905Y11597620D02*
X-38511905Y12597620D01*
X-37940477Y11597620D02*
X-38369048Y12169048D01*
X-37940477Y12597620D02*
X-38511905Y12026191D01*
X-37130953Y11645239D02*
X-37226191Y11597620D01*
X-37416667Y11597620D01*
X-37511905Y11645239D01*
X-37559524Y11740477D01*
X-37559524Y12121429D01*
X-37511905Y12216667D01*
X-37416667Y12264286D01*
X-37226191Y12264286D01*
X-37130953Y12216667D01*
X-37083334Y12121429D01*
X-37083334Y12026191D01*
X-37559524Y11930953D01*
X-36273810Y11645239D02*
X-36369048Y11597620D01*
X-36559524Y11597620D01*
X-36654762Y11645239D01*
X-36702381Y11740477D01*
X-36702381Y12121429D01*
X-36654762Y12216667D01*
X-36559524Y12264286D01*
X-36369048Y12264286D01*
X-36273810Y12216667D01*
X-36226191Y12121429D01*
X-36226191Y12026191D01*
X-36702381Y11930953D01*
X-35797620Y12264286D02*
X-35797620Y11264286D01*
X-35797620Y12216667D02*
X-35702381Y12264286D01*
X-35511905Y12264286D01*
X-35416667Y12216667D01*
X-35369048Y12169048D01*
X-35321429Y12073810D01*
X-35321429Y11788096D01*
X-35369048Y11692858D01*
X-35416667Y11645239D01*
X-35511905Y11597620D01*
X-35702381Y11597620D01*
X-35797620Y11645239D01*
X-33988096Y11597620D02*
X-34083334Y11645239D01*
X-34130953Y11692858D01*
X-34178572Y11788096D01*
X-34178572Y12073810D01*
X-34130953Y12169048D01*
X-34083334Y12216667D01*
X-33988096Y12264286D01*
X-33845239Y12264286D01*
X-33750000Y12216667D01*
X-33702381Y12169048D01*
X-33654762Y12073810D01*
X-33654762Y11788096D01*
X-33702381Y11692858D01*
X-33750000Y11645239D01*
X-33845239Y11597620D01*
X-33988096Y11597620D01*
X-32797620Y12264286D02*
X-32797620Y11597620D01*
X-33226191Y12264286D02*
X-33226191Y11740477D01*
X-33178572Y11645239D01*
X-33083334Y11597620D01*
X-32940477Y11597620D01*
X-32845239Y11645239D01*
X-32797620Y11692858D01*
X-32464286Y12264286D02*
X-32083334Y12264286D01*
X-32321429Y12597620D02*
X-32321429Y11740477D01*
X-32273810Y11645239D01*
X-32178572Y11597620D01*
X-32083334Y11597620D01*
X-30559524Y11645239D02*
X-30654762Y11597620D01*
X-30845239Y11597620D01*
X-30940477Y11645239D01*
X-30988096Y11692858D01*
X-31035715Y11788096D01*
X-31035715Y12073810D01*
X-30988096Y12169048D01*
X-30940477Y12216667D01*
X-30845239Y12264286D01*
X-30654762Y12264286D01*
X-30559524Y12216667D01*
X-29988096Y11597620D02*
X-30083334Y11645239D01*
X-30130953Y11692858D01*
X-30178572Y11788096D01*
X-30178572Y12073810D01*
X-30130953Y12169048D01*
X-30083334Y12216667D01*
X-29988096Y12264286D01*
X-29845239Y12264286D01*
X-29750000Y12216667D01*
X-29702381Y12169048D01*
X-29654762Y12073810D01*
X-29654762Y11788096D01*
X-29702381Y11692858D01*
X-29750000Y11645239D01*
X-29845239Y11597620D01*
X-29988096Y11597620D01*
X-29226191Y11597620D02*
X-29226191Y12264286D01*
X-29226191Y12169048D02*
X-29178572Y12216667D01*
X-29083334Y12264286D01*
X-28940477Y12264286D01*
X-28845239Y12216667D01*
X-28797620Y12121429D01*
X-28797620Y11597620D01*
X-28797620Y12121429D02*
X-28750000Y12216667D01*
X-28654762Y12264286D01*
X-28511905Y12264286D01*
X-28416667Y12216667D01*
X-28369048Y12121429D01*
X-28369048Y11597620D01*
X-27892858Y12264286D02*
X-27892858Y11264286D01*
X-27892858Y12216667D02*
X-27797620Y12264286D01*
X-27607143Y12264286D01*
X-27511905Y12216667D01*
X-27464286Y12169048D01*
X-27416667Y12073810D01*
X-27416667Y11788096D01*
X-27464286Y11692858D01*
X-27511905Y11645239D01*
X-27607143Y11597620D01*
X-27797620Y11597620D01*
X-27892858Y11645239D01*
X-26845239Y11597620D02*
X-26940477Y11645239D01*
X-26988096Y11692858D01*
X-27035715Y11788096D01*
X-27035715Y12073810D01*
X-26988096Y12169048D01*
X-26940477Y12216667D01*
X-26845239Y12264286D01*
X-26702381Y12264286D01*
X-26607143Y12216667D01*
X-26559524Y12169048D01*
X-26511905Y12073810D01*
X-26511905Y11788096D01*
X-26559524Y11692858D01*
X-26607143Y11645239D01*
X-26702381Y11597620D01*
X-26845239Y11597620D01*
X-26083334Y12264286D02*
X-26083334Y11597620D01*
X-26083334Y12169048D02*
X-26035715Y12216667D01*
X-25940477Y12264286D01*
X-25797620Y12264286D01*
X-25702381Y12216667D01*
X-25654762Y12121429D01*
X-25654762Y11597620D01*
X-24797620Y11645239D02*
X-24892858Y11597620D01*
X-25083334Y11597620D01*
X-25178572Y11645239D01*
X-25226191Y11740477D01*
X-25226191Y12121429D01*
X-25178572Y12216667D01*
X-25083334Y12264286D01*
X-24892858Y12264286D01*
X-24797620Y12216667D01*
X-24750000Y12121429D01*
X-24750000Y12026191D01*
X-25226191Y11930953D01*
X-24321429Y12264286D02*
X-24321429Y11597620D01*
X-24321429Y12169048D02*
X-24273810Y12216667D01*
X-24178572Y12264286D01*
X-24035715Y12264286D01*
X-23940477Y12216667D01*
X-23892858Y12121429D01*
X-23892858Y11597620D01*
X-23559524Y12264286D02*
X-23178572Y12264286D01*
X-23416667Y12597620D02*
X-23416667Y11740477D01*
X-23369048Y11645239D01*
X-23273810Y11597620D01*
X-23178572Y11597620D01*
X-22892858Y11645239D02*
X-22797620Y11597620D01*
X-22607143Y11597620D01*
X-22511905Y11645239D01*
X-22464286Y11740477D01*
X-22464286Y11788096D01*
X-22511905Y11883334D01*
X-22607143Y11930953D01*
X-22750000Y11930953D01*
X-22845239Y11978572D01*
X-22892858Y12073810D01*
X-22892858Y12121429D01*
X-22845239Y12216667D01*
X-22750000Y12264286D01*
X-22607143Y12264286D01*
X-22511905Y12216667D01*
X-20845239Y11597620D02*
X-20845239Y12121429D01*
X-20892858Y12216667D01*
X-20988096Y12264286D01*
X-21178572Y12264286D01*
X-21273810Y12216667D01*
X-20845239Y11645239D02*
X-20940477Y11597620D01*
X-21178572Y11597620D01*
X-21273810Y11645239D01*
X-21321429Y11740477D01*
X-21321429Y11835715D01*
X-21273810Y11930953D01*
X-21178572Y11978572D01*
X-20940477Y11978572D01*
X-20845239Y12026191D01*
X-20369048Y12264286D02*
X-20369048Y11597620D01*
X-20369048Y12169048D02*
X-20321429Y12216667D01*
X-20226191Y12264286D01*
X-20083334Y12264286D01*
X-19988096Y12216667D01*
X-19940477Y12121429D01*
X-19940477Y11597620D01*
X-19035715Y11597620D02*
X-19035715Y12597620D01*
X-19035715Y11645239D02*
X-19130953Y11597620D01*
X-19321429Y11597620D01*
X-19416667Y11645239D01*
X-19464286Y11692858D01*
X-19511905Y11788096D01*
X-19511905Y12073810D01*
X-19464286Y12169048D01*
X-19416667Y12216667D01*
X-19321429Y12264286D01*
X-19130953Y12264286D01*
X-19035715Y12216667D01*
X-17940477Y12264286D02*
X-17559524Y12264286D01*
X-17797620Y12597620D02*
X-17797620Y11740477D01*
X-17750000Y11645239D01*
X-17654762Y11597620D01*
X-17559524Y11597620D01*
X-17226191Y11597620D02*
X-17226191Y12264286D01*
X-17226191Y12073810D02*
X-17178572Y12169048D01*
X-17130953Y12216667D01*
X-17035715Y12264286D01*
X-16940477Y12264286D01*
X-16178572Y11597620D02*
X-16178572Y12121429D01*
X-16226191Y12216667D01*
X-16321429Y12264286D01*
X-16511905Y12264286D01*
X-16607143Y12216667D01*
X-16178572Y11645239D02*
X-16273810Y11597620D01*
X-16511905Y11597620D01*
X-16607143Y11645239D01*
X-16654762Y11740477D01*
X-16654762Y11835715D01*
X-16607143Y11930953D01*
X-16511905Y11978572D01*
X-16273810Y11978572D01*
X-16178572Y12026191D01*
X-15273810Y11645239D02*
X-15369048Y11597620D01*
X-15559524Y11597620D01*
X-15654762Y11645239D01*
X-15702381Y11692858D01*
X-15750000Y11788096D01*
X-15750000Y12073810D01*
X-15702381Y12169048D01*
X-15654762Y12216667D01*
X-15559524Y12264286D01*
X-15369048Y12264286D01*
X-15273810Y12216667D01*
X-14464286Y11645239D02*
X-14559524Y11597620D01*
X-14750000Y11597620D01*
X-14845239Y11645239D01*
X-14892858Y11740477D01*
X-14892858Y12121429D01*
X-14845239Y12216667D01*
X-14750000Y12264286D01*
X-14559524Y12264286D01*
X-14464286Y12216667D01*
X-14416667Y12121429D01*
X-14416667Y12026191D01*
X-14892858Y11930953D01*
X-14035715Y11645239D02*
X-13940477Y11597620D01*
X-13750000Y11597620D01*
X-13654762Y11645239D01*
X-13607143Y11740477D01*
X-13607143Y11788096D01*
X-13654762Y11883334D01*
X-13750000Y11930953D01*
X-13892858Y11930953D01*
X-13988096Y11978572D01*
X-14035715Y12073810D01*
X-14035715Y12121429D01*
X-13988096Y12216667D01*
X-13892858Y12264286D01*
X-13750000Y12264286D01*
X-13654762Y12216667D01*
X-12416667Y11597620D02*
X-12416667Y12597620D01*
X-12416667Y12216667D02*
X-12321429Y12264286D01*
X-12130953Y12264286D01*
X-12035715Y12216667D01*
X-11988096Y12169048D01*
X-11940477Y12073810D01*
X-11940477Y11788096D01*
X-11988096Y11692858D01*
X-12035715Y11645239D01*
X-12130953Y11597620D01*
X-12321429Y11597620D01*
X-12416667Y11645239D01*
X-11369048Y11597620D02*
X-11464286Y11645239D01*
X-11511905Y11692858D01*
X-11559524Y11788096D01*
X-11559524Y12073810D01*
X-11511905Y12169048D01*
X-11464286Y12216667D01*
X-11369048Y12264286D01*
X-11226191Y12264286D01*
X-11130953Y12216667D01*
X-11083334Y12169048D01*
X-11035715Y12073810D01*
X-11035715Y11788096D01*
X-11083334Y11692858D01*
X-11130953Y11645239D01*
X-11226191Y11597620D01*
X-11369048Y11597620D01*
X-10750000Y12264286D02*
X-10369048Y12264286D01*
X-10607143Y12597620D02*
X-10607143Y11740477D01*
X-10559524Y11645239D01*
X-10464286Y11597620D01*
X-10369048Y11597620D01*
X-10035715Y11597620D02*
X-10035715Y12597620D01*
X-9607143Y11597620D02*
X-9607143Y12121429D01*
X-9654762Y12216667D01*
X-9750001Y12264286D01*
X-9892858Y12264286D01*
X-9988096Y12216667D01*
X-10035715Y12169048D01*
X-8416667Y11645239D02*
X-8321429Y11597620D01*
X-8130953Y11597620D01*
X-8035715Y11645239D01*
X-7988096Y11740477D01*
X-7988096Y11788096D01*
X-8035715Y11883334D01*
X-8130953Y11930953D01*
X-8273810Y11930953D01*
X-8369048Y11978572D01*
X-8416667Y12073810D01*
X-8416667Y12121429D01*
X-8369048Y12216667D01*
X-8273810Y12264286D01*
X-8130953Y12264286D01*
X-8035715Y12216667D01*
X-7559524Y11597620D02*
X-7559524Y12264286D01*
X-7559524Y12597620D02*
X-7607143Y12550000D01*
X-7559524Y12502381D01*
X-7511905Y12550000D01*
X-7559524Y12597620D01*
X-7559524Y12502381D01*
X-6654762Y11597620D02*
X-6654762Y12597620D01*
X-6654762Y11645239D02*
X-6750001Y11597620D01*
X-6940477Y11597620D01*
X-7035715Y11645239D01*
X-7083334Y11692858D01*
X-7130953Y11788096D01*
X-7130953Y12073810D01*
X-7083334Y12169048D01*
X-7035715Y12216667D01*
X-6940477Y12264286D01*
X-6750001Y12264286D01*
X-6654762Y12216667D01*
X-5797620Y11645239D02*
X-5892858Y11597620D01*
X-6083334Y11597620D01*
X-6178572Y11645239D01*
X-6226191Y11740477D01*
X-6226191Y12121429D01*
X-6178572Y12216667D01*
X-6083334Y12264286D01*
X-5892858Y12264286D01*
X-5797620Y12216667D01*
X-5750001Y12121429D01*
X-5750001Y12026191D01*
X-6226191Y11930953D01*
X-5369048Y11645239D02*
X-5273810Y11597620D01*
X-5083334Y11597620D01*
X-4988096Y11645239D01*
X-4940477Y11740477D01*
X-4940477Y11788096D01*
X-4988096Y11883334D01*
X-5083334Y11930953D01*
X-5226191Y11930953D01*
X-5321429Y11978572D01*
X-5369048Y12073810D01*
X-5369048Y12121429D01*
X-5321429Y12216667D01*
X-5226191Y12264286D01*
X-5083334Y12264286D01*
X-4988096Y12216667D01*
D14*
X107500000Y15050000D02*
X107000000Y14550000D01*
X107500000Y10050000D02*
X107500000Y15050000D01*
X107500000Y15050000D02*
X108000000Y14550000D01*
D12*
%TO.C,H2*%
X-34885000Y45585000D02*
G75*
G03*
X-34885000Y45585000I-2800000J0D01*
G01*
%TO.C,H1*%
X-34850000Y9350000D02*
G75*
G03*
X-34850000Y9350000I-2800000J0D01*
G01*
%TD*%
M02*
