%TF.GenerationSoftware,KiCad,Pcbnew,(6.0.9)*%
%TF.CreationDate,2023-02-16T17:53:30+01:00*%
%TF.ProjectId,pallas-ethernet-adapter,70616c6c-6173-42d6-9574-6865726e6574,rev?*%
%TF.SameCoordinates,Original*%
%TF.FileFunction,Legend,Bot*%
%TF.FilePolarity,Positive*%
%FSLAX46Y46*%
G04 Gerber Fmt 4.6, Leading zero omitted, Abs format (unit mm)*
G04 Created by KiCad (PCBNEW (6.0.9)) date 2023-02-16 17:53:30*
%MOMM*%
%LPD*%
G01*
G04 APERTURE LIST*
G04 Aperture macros list*
%AMRoundRect*
0 Rectangle with rounded corners*
0 $1 Rounding radius*
0 $2 $3 $4 $5 $6 $7 $8 $9 X,Y pos of 4 corners*
0 Add a 4 corners polygon primitive as box body*
4,1,4,$2,$3,$4,$5,$6,$7,$8,$9,$2,$3,0*
0 Add four circle primitives for the rounded corners*
1,1,$1+$1,$2,$3*
1,1,$1+$1,$4,$5*
1,1,$1+$1,$6,$7*
1,1,$1+$1,$8,$9*
0 Add four rect primitives between the rounded corners*
20,1,$1+$1,$2,$3,$4,$5,0*
20,1,$1+$1,$4,$5,$6,$7,0*
20,1,$1+$1,$6,$7,$8,$9,0*
20,1,$1+$1,$8,$9,$2,$3,0*%
G04 Aperture macros list end*
%ADD10C,0.000000*%
%ADD11C,0.150000*%
%ADD12C,0.120000*%
%ADD13C,0.200000*%
%ADD14C,3.250000*%
%ADD15C,1.509000*%
%ADD16C,1.650000*%
%ADD17C,2.475000*%
%ADD18R,1.000000X1.000000*%
%ADD19O,1.000000X1.000000*%
%ADD20C,5.600000*%
%ADD21RoundRect,0.200000X-0.275000X0.200000X-0.275000X-0.200000X0.275000X-0.200000X0.275000X0.200000X0*%
%ADD22RoundRect,0.140000X-0.140000X-0.170000X0.140000X-0.170000X0.140000X0.170000X-0.140000X0.170000X0*%
%ADD23RoundRect,0.218750X0.256250X-0.218750X0.256250X0.218750X-0.256250X0.218750X-0.256250X-0.218750X0*%
%ADD24RoundRect,0.200000X0.275000X-0.200000X0.275000X0.200000X-0.275000X0.200000X-0.275000X-0.200000X0*%
%ADD25C,2.000000*%
%ADD26RoundRect,0.218750X0.218750X0.256250X-0.218750X0.256250X-0.218750X-0.256250X0.218750X-0.256250X0*%
%ADD27RoundRect,0.150000X0.512500X0.150000X-0.512500X0.150000X-0.512500X-0.150000X0.512500X-0.150000X0*%
%ADD28RoundRect,0.140000X-0.170000X0.140000X-0.170000X-0.140000X0.170000X-0.140000X0.170000X0.140000X0*%
%ADD29RoundRect,0.225000X0.250000X-0.225000X0.250000X0.225000X-0.250000X0.225000X-0.250000X-0.225000X0*%
%ADD30RoundRect,0.140000X0.170000X-0.140000X0.170000X0.140000X-0.170000X0.140000X-0.170000X-0.140000X0*%
G04 APERTURE END LIST*
D10*
G36*
X-12050887Y38157238D02*
G01*
X-11922249Y38106693D01*
X-11790149Y38051061D01*
X-11654889Y37990016D01*
X-11516772Y37923228D01*
X-11376098Y37850370D01*
X-11233171Y37771113D01*
X-11088291Y37685130D01*
X-10941761Y37592093D01*
X-10793883Y37491673D01*
X-10644959Y37383542D01*
X-10495290Y37267373D01*
X-10345179Y37142837D01*
X-10194927Y37009606D01*
X-10044837Y36867353D01*
X-9895210Y36715748D01*
X-9886363Y36702020D01*
X-9878724Y36688024D01*
X-9872267Y36673808D01*
X-9866966Y36659420D01*
X-9862794Y36644907D01*
X-9859725Y36630318D01*
X-9857733Y36615699D01*
X-9856790Y36601100D01*
X-9856872Y36586566D01*
X-9857950Y36572148D01*
X-9859999Y36557891D01*
X-9862992Y36543845D01*
X-9866903Y36530056D01*
X-9871706Y36516572D01*
X-9877374Y36503442D01*
X-9883880Y36490713D01*
X-9891198Y36478433D01*
X-9899302Y36466649D01*
X-9908166Y36455409D01*
X-9917763Y36444762D01*
X-9928065Y36434755D01*
X-9939049Y36425435D01*
X-9950685Y36416851D01*
X-9962949Y36409051D01*
X-9975814Y36402081D01*
X-9989253Y36395990D01*
X-10003240Y36390825D01*
X-10017748Y36386635D01*
X-10032752Y36383468D01*
X-10048224Y36381370D01*
X-10064139Y36380389D01*
X-10080469Y36380575D01*
X-10225125Y36562277D01*
X-10369287Y36731334D01*
X-10512770Y36888298D01*
X-10655386Y37033721D01*
X-10796949Y37168154D01*
X-10937271Y37292148D01*
X-11076167Y37406255D01*
X-11213450Y37511027D01*
X-11348932Y37607015D01*
X-11482428Y37694770D01*
X-11613750Y37774844D01*
X-11742711Y37847789D01*
X-11869125Y37914157D01*
X-11992805Y37974497D01*
X-12113565Y38029363D01*
X-12231217Y38079306D01*
X-12223926Y38093985D01*
X-12216738Y38108891D01*
X-12209654Y38124023D01*
X-12202673Y38139380D01*
X-12195793Y38154959D01*
X-12189015Y38170761D01*
X-12182337Y38186783D01*
X-12175759Y38203024D01*
X-12050887Y38157238D01*
G37*
G36*
X-16156751Y35732844D02*
G01*
X-16128249Y35725860D01*
X-16129747Y35715152D01*
X-16131309Y35701783D01*
X-16132572Y35688363D01*
X-16133539Y35674898D01*
X-16134209Y35661396D01*
X-16134584Y35647864D01*
X-16134665Y35634311D01*
X-16134453Y35620742D01*
X-16133938Y35607119D01*
X-16133126Y35593479D01*
X-16132019Y35579832D01*
X-16130618Y35566183D01*
X-16126938Y35538913D01*
X-16123700Y35520721D01*
X-16206048Y35538119D01*
X-16329958Y35556442D01*
X-16330504Y35561895D01*
X-16331929Y35579937D01*
X-16332972Y35598004D01*
X-16333631Y35616087D01*
X-16333922Y35634199D01*
X-16333820Y35652295D01*
X-16333325Y35670366D01*
X-16332435Y35688400D01*
X-16331148Y35706389D01*
X-16329463Y35724322D01*
X-16327379Y35742189D01*
X-16324893Y35759981D01*
X-16324379Y35763135D01*
X-16156751Y35732844D01*
G37*
G36*
X-15484862Y39267615D02*
G01*
X-15465028Y39262871D01*
X-15447403Y39255447D01*
X-15431920Y39245565D01*
X-15418514Y39233449D01*
X-15407119Y39219321D01*
X-15397668Y39203406D01*
X-15390097Y39185926D01*
X-15384338Y39167105D01*
X-15380327Y39147166D01*
X-15377998Y39126332D01*
X-15377283Y39104827D01*
X-15378119Y39082874D01*
X-15380438Y39060696D01*
X-15384176Y39038516D01*
X-15389265Y39016559D01*
X-15395641Y38995046D01*
X-15403237Y38974202D01*
X-15411988Y38954249D01*
X-15421827Y38935412D01*
X-15432689Y38917912D01*
X-15444508Y38901975D01*
X-15457219Y38887822D01*
X-15470754Y38875677D01*
X-15485049Y38865763D01*
X-15500038Y38858305D01*
X-15515654Y38853524D01*
X-15531832Y38851644D01*
X-15548506Y38852889D01*
X-15565610Y38857482D01*
X-15583078Y38865646D01*
X-15600845Y38877605D01*
X-15616963Y38890737D01*
X-15631951Y38904138D01*
X-15645800Y38917774D01*
X-15658501Y38931613D01*
X-15670042Y38945622D01*
X-15680415Y38959770D01*
X-15689608Y38974022D01*
X-15697612Y38988347D01*
X-15704417Y39002713D01*
X-15710013Y39017086D01*
X-15714390Y39031435D01*
X-15717538Y39045726D01*
X-15719447Y39059928D01*
X-15720107Y39074007D01*
X-15719507Y39087931D01*
X-15717639Y39101668D01*
X-15714491Y39115186D01*
X-15710054Y39128451D01*
X-15704318Y39141431D01*
X-15697273Y39154093D01*
X-15688908Y39166406D01*
X-15679214Y39178336D01*
X-15668181Y39189852D01*
X-15655799Y39200920D01*
X-15642058Y39211508D01*
X-15626947Y39221583D01*
X-15610458Y39231114D01*
X-15592578Y39240067D01*
X-15573300Y39248410D01*
X-15552612Y39256111D01*
X-15530505Y39263136D01*
X-15506969Y39269454D01*
X-15484862Y39267615D01*
G37*
G36*
X-10354528Y29828210D02*
G01*
X-10361789Y29796209D01*
X-10349181Y29865104D01*
X-10354528Y29828210D01*
G37*
G36*
X-24756092Y28994799D02*
G01*
X-24724620Y29163088D01*
X-24684472Y29325293D01*
X-24635897Y29481968D01*
X-24579141Y29633668D01*
X-24514452Y29780946D01*
X-24442078Y29924358D01*
X-24362267Y30064456D01*
X-24275267Y30201795D01*
X-24181324Y30336930D01*
X-24080687Y30470414D01*
X-24070930Y30558637D01*
X-24057438Y30646299D01*
X-24040333Y30733316D01*
X-24019740Y30819600D01*
X-23995779Y30905067D01*
X-23968576Y30989630D01*
X-23938252Y31073203D01*
X-23904931Y31155700D01*
X-23868736Y31237034D01*
X-23829789Y31317121D01*
X-23788214Y31395873D01*
X-23744134Y31473206D01*
X-23697672Y31549031D01*
X-23648951Y31623265D01*
X-23598093Y31695820D01*
X-23545223Y31766611D01*
X-23493619Y31966536D01*
X-23428180Y32164623D01*
X-23349612Y32360112D01*
X-23258622Y32552244D01*
X-23155919Y32740258D01*
X-23042208Y32923395D01*
X-22918197Y33100894D01*
X-22784593Y33271996D01*
X-22642103Y33435940D01*
X-22491435Y33591967D01*
X-22333296Y33739317D01*
X-22168393Y33877230D01*
X-21997432Y34004945D01*
X-21821122Y34121703D01*
X-21640169Y34226744D01*
X-21455281Y34319308D01*
X-21385897Y34599271D01*
X-21306494Y34877729D01*
X-21216774Y35154603D01*
X-21116442Y35429818D01*
X-21005200Y35703296D01*
X-20913725Y35906247D01*
X-20825819Y35906247D01*
X-20821797Y35708187D01*
X-20807682Y35508768D01*
X-20800821Y35449742D01*
X-20722578Y35635941D01*
X-20624753Y35852412D01*
X-20622286Y36002013D01*
X-20617834Y36161900D01*
X-20611418Y36332076D01*
X-20603056Y36512546D01*
X-20748804Y36244737D01*
X-20818954Y36103453D01*
X-20825819Y35906247D01*
X-20913725Y35906247D01*
X-20882753Y35974962D01*
X-20818954Y36103453D01*
X-20818951Y36103545D01*
X-20800394Y36300680D01*
X-20769351Y36498250D01*
X-20725023Y36696854D01*
X-20666612Y36897089D01*
X-20593320Y37099553D01*
X-20504349Y37304846D01*
X-20398901Y37513565D01*
X-20446058Y37475803D01*
X-20492927Y37434812D01*
X-20539464Y37390956D01*
X-20585629Y37344600D01*
X-20631379Y37296106D01*
X-20676672Y37245839D01*
X-20721466Y37194164D01*
X-20765720Y37141443D01*
X-20852436Y37034323D01*
X-20936484Y36927392D01*
X-21017528Y36823561D01*
X-21095233Y36725742D01*
X-21045688Y37072095D01*
X-20990381Y37408722D01*
X-20958232Y37573147D01*
X-20921841Y37734850D01*
X-20880275Y37893735D01*
X-20832600Y38049703D01*
X-20777883Y38202660D01*
X-20715189Y38352507D01*
X-20643585Y38499147D01*
X-20562138Y38642484D01*
X-20469913Y38782422D01*
X-20365977Y38918862D01*
X-20249397Y39051708D01*
X-20119238Y39180864D01*
X-20184545Y39311815D01*
X-20241333Y39443556D01*
X-20290008Y39576078D01*
X-20330978Y39709369D01*
X-20364648Y39843420D01*
X-20391425Y39978218D01*
X-20411715Y40113755D01*
X-20425923Y40250019D01*
X-20434457Y40387000D01*
X-20437722Y40524687D01*
X-20436126Y40663070D01*
X-20430073Y40802138D01*
X-20419970Y40941881D01*
X-20406225Y41082288D01*
X-20369428Y41365052D01*
X-20035603Y41402595D01*
X-19871893Y41415980D01*
X-19709917Y41425633D01*
X-19549377Y41431448D01*
X-19389971Y41433317D01*
X-19231401Y41431136D01*
X-19073366Y41424796D01*
X-18915567Y41414193D01*
X-18757703Y41399219D01*
X-18599476Y41379769D01*
X-18440585Y41355736D01*
X-18280730Y41327013D01*
X-18119612Y41293495D01*
X-17956931Y41255075D01*
X-17792386Y41211647D01*
X-17727500Y41236742D01*
X-17660310Y41260400D01*
X-17591101Y41282657D01*
X-17520159Y41303547D01*
X-17374217Y41341372D01*
X-17224769Y41374160D01*
X-17074097Y41402199D01*
X-16924487Y41425774D01*
X-16778222Y41445170D01*
X-16637586Y41460673D01*
X-16652759Y41488595D01*
X-16669795Y41516508D01*
X-16688593Y41544393D01*
X-16709051Y41572234D01*
X-16754546Y41627708D01*
X-16805472Y41682787D01*
X-16861019Y41737325D01*
X-16920379Y41791180D01*
X-16982745Y41844207D01*
X-17047306Y41896263D01*
X-17113256Y41947203D01*
X-17179784Y41996883D01*
X-17311346Y42091890D01*
X-17435523Y42180131D01*
X-17545847Y42260455D01*
X-17065371Y42182988D01*
X-16841775Y42141964D01*
X-16732754Y42118890D01*
X-16625057Y42093352D01*
X-16518290Y42064781D01*
X-16412056Y42032608D01*
X-16305960Y41996266D01*
X-16199607Y41955188D01*
X-16092602Y41908803D01*
X-15984549Y41856546D01*
X-15875054Y41797846D01*
X-15763720Y41732138D01*
X-15766628Y41762955D01*
X-15770404Y41793445D01*
X-15775065Y41823680D01*
X-15780630Y41853734D01*
X-15787116Y41883678D01*
X-15794542Y41913587D01*
X-15802925Y41943533D01*
X-15812284Y41973589D01*
X-15822636Y42003828D01*
X-15834000Y42034323D01*
X-15846393Y42065147D01*
X-15859833Y42096372D01*
X-15874338Y42128073D01*
X-15889927Y42160321D01*
X-15906617Y42193189D01*
X-15924427Y42226751D01*
X-15827587Y42200578D01*
X-15737884Y42174836D01*
X-15654598Y42148976D01*
X-15577013Y42122450D01*
X-15504410Y42094711D01*
X-15436071Y42065211D01*
X-15371277Y42033400D01*
X-15309311Y41998732D01*
X-15249455Y41960659D01*
X-15190991Y41918631D01*
X-15133199Y41872102D01*
X-15075363Y41820523D01*
X-15016765Y41763347D01*
X-14956685Y41700024D01*
X-14894407Y41630008D01*
X-14829211Y41552749D01*
X-14742740Y41563973D01*
X-14654552Y41571794D01*
X-14565200Y41576489D01*
X-14475239Y41578336D01*
X-14385224Y41577614D01*
X-14295709Y41574599D01*
X-14207247Y41569570D01*
X-14120394Y41562804D01*
X-14062012Y41626768D01*
X-14002260Y41685703D01*
X-13941140Y41739985D01*
X-13878654Y41789991D01*
X-13814804Y41836100D01*
X-13749594Y41878687D01*
X-13683025Y41918132D01*
X-13615100Y41954810D01*
X-13545821Y41989100D01*
X-13475191Y42021378D01*
X-13403211Y42052023D01*
X-13329886Y42081410D01*
X-13179205Y42137925D01*
X-13023166Y42193941D01*
X-13069104Y42065315D01*
X-13093129Y41998215D01*
X-13116193Y41930111D01*
X-13137044Y41861645D01*
X-13146249Y41827477D01*
X-13154432Y41793458D01*
X-13161437Y41759670D01*
X-13167108Y41726192D01*
X-13171288Y41693104D01*
X-13173821Y41660487D01*
X-13124268Y41689583D01*
X-13075440Y41716598D01*
X-13027184Y41741707D01*
X-12979347Y41765081D01*
X-12931775Y41786894D01*
X-12884316Y41807319D01*
X-12836816Y41826527D01*
X-12789123Y41844691D01*
X-12692544Y41878581D01*
X-12593353Y41910370D01*
X-12382240Y41973172D01*
X-12440249Y41797187D01*
X-12466557Y41713542D01*
X-12478593Y41672106D01*
X-12489715Y41630662D01*
X-12499794Y41589008D01*
X-12508705Y41546946D01*
X-12516320Y41504274D01*
X-12522512Y41460793D01*
X-12527154Y41416303D01*
X-12530120Y41370604D01*
X-12531283Y41323495D01*
X-12530514Y41274777D01*
X-12440976Y41254967D01*
X-12353324Y41233062D01*
X-12267181Y41208969D01*
X-12182171Y41182596D01*
X-12097917Y41153852D01*
X-12014043Y41122645D01*
X-11930174Y41088883D01*
X-11845931Y41052474D01*
X-11531120Y41134440D01*
X-11213939Y41205093D01*
X-10894674Y41263740D01*
X-10573609Y41309690D01*
X-10412490Y41327687D01*
X-10251028Y41342250D01*
X-10089258Y41353292D01*
X-9927216Y41360728D01*
X-9764938Y41364471D01*
X-9602459Y41364433D01*
X-9439814Y41360529D01*
X-9277039Y41352672D01*
X-9119559Y41343093D01*
X-9111519Y41185136D01*
X-9106110Y41039487D01*
X-9104801Y40894708D01*
X-9107791Y40750872D01*
X-9115277Y40608054D01*
X-9127458Y40466328D01*
X-9144530Y40325766D01*
X-9166694Y40186444D01*
X-9194146Y40048435D01*
X-9227085Y39911812D01*
X-9265709Y39776649D01*
X-9310216Y39643020D01*
X-9360804Y39511000D01*
X-9417672Y39380661D01*
X-9481017Y39252078D01*
X-9551037Y39125324D01*
X-9627931Y39000473D01*
X-9478589Y38842020D01*
X-9348127Y38686792D01*
X-9289606Y38610113D01*
X-9235360Y38533912D01*
X-9185243Y38458079D01*
X-9139105Y38382504D01*
X-9096799Y38307078D01*
X-9058176Y38231691D01*
X-9023089Y38156234D01*
X-8991389Y38080596D01*
X-8937560Y37928344D01*
X-8895504Y37774056D01*
X-8864036Y37616857D01*
X-8841972Y37455870D01*
X-8828128Y37290218D01*
X-8821319Y37119025D01*
X-8820360Y36941414D01*
X-8824067Y36756509D01*
X-8840742Y36361307D01*
X-8963698Y36515771D01*
X-9025672Y36593438D01*
X-9088624Y36670433D01*
X-9153042Y36746034D01*
X-9219414Y36819519D01*
X-9253484Y36855243D01*
X-9288225Y36890167D01*
X-9323698Y36924201D01*
X-9359963Y36957255D01*
X-9315199Y36823473D01*
X-9275497Y36688090D01*
X-9240911Y36551307D01*
X-9211493Y36413329D01*
X-9187298Y36274357D01*
X-9168378Y36134596D01*
X-9154786Y35994246D01*
X-9146576Y35853513D01*
X-9143800Y35712598D01*
X-9146512Y35571703D01*
X-9154766Y35431033D01*
X-9168613Y35290790D01*
X-9188108Y35151177D01*
X-9213304Y35012396D01*
X-9244254Y34874651D01*
X-9281010Y34738144D01*
X-9301625Y34667608D01*
X-9278429Y34601792D01*
X-9229457Y34449712D01*
X-9184143Y34295174D01*
X-9142628Y34138866D01*
X-8987847Y34037356D01*
X-8837095Y33927360D01*
X-8690847Y33809386D01*
X-8549579Y33683946D01*
X-8413765Y33551551D01*
X-8283882Y33412711D01*
X-8160404Y33267937D01*
X-8043807Y33117739D01*
X-7934567Y32962627D01*
X-7833159Y32803113D01*
X-7740057Y32639708D01*
X-7655739Y32472920D01*
X-7580678Y32303262D01*
X-7515350Y32131244D01*
X-7460232Y31957375D01*
X-7415797Y31782168D01*
X-7362928Y31711386D01*
X-7312072Y31638838D01*
X-7263354Y31564610D01*
X-7216895Y31488787D01*
X-7172818Y31411457D01*
X-7131247Y31332706D01*
X-7092304Y31252620D01*
X-7056112Y31171285D01*
X-7022793Y31088789D01*
X-6992471Y31005217D01*
X-6965267Y30920655D01*
X-6941306Y30835190D01*
X-6920710Y30748909D01*
X-6903601Y30661897D01*
X-6890103Y30574242D01*
X-6880337Y30486029D01*
X-6779700Y30352544D01*
X-6685756Y30217407D01*
X-6598756Y30080065D01*
X-6518945Y29939964D01*
X-6446572Y29796548D01*
X-6381884Y29649265D01*
X-6325130Y29497561D01*
X-6276556Y29340880D01*
X-6236411Y29178671D01*
X-6204943Y29010377D01*
X-6182399Y28835446D01*
X-6169026Y28653323D01*
X-6165074Y28463455D01*
X-6170788Y28265287D01*
X-6186418Y28058266D01*
X-6212211Y27841837D01*
X-6216838Y27520467D01*
X-6223504Y27363706D01*
X-6233667Y27209595D01*
X-6247777Y27058161D01*
X-6266280Y26909431D01*
X-6289626Y26763429D01*
X-6318262Y26620182D01*
X-6352635Y26479717D01*
X-6393195Y26342058D01*
X-6440388Y26207234D01*
X-6494664Y26075268D01*
X-6556469Y25946189D01*
X-6626252Y25820021D01*
X-6704460Y25696791D01*
X-6791543Y25576525D01*
X-6815655Y25469173D01*
X-6842273Y25362288D01*
X-6871311Y25255942D01*
X-6902682Y25150204D01*
X-6936299Y25045146D01*
X-6972075Y24940838D01*
X-7049755Y24734756D01*
X-7135028Y24532523D01*
X-7227199Y24334705D01*
X-7325572Y24141869D01*
X-7429452Y23954579D01*
X-7508191Y23750444D01*
X-7601727Y23551320D01*
X-7709221Y23357530D01*
X-7829833Y23169397D01*
X-7962723Y22987242D01*
X-8107052Y22811388D01*
X-8261979Y22642157D01*
X-8426666Y22479872D01*
X-8585073Y22338426D01*
X-8840658Y22331417D01*
X-9146204Y22314697D01*
X-9221275Y22308665D01*
X-9267231Y22277496D01*
X-9421079Y22182063D01*
X-9561808Y22102265D01*
X-9850097Y22069777D01*
X-10170543Y22025707D01*
X-10486279Y21974619D01*
X-10795487Y21917130D01*
X-10795482Y21917128D01*
X-10755603Y21789265D01*
X-10744079Y21746971D01*
X-10902704Y21715714D01*
X-11201597Y21649281D01*
X-11488823Y21577885D01*
X-11762445Y21502181D01*
X-12020525Y21422827D01*
X-12261123Y21340477D01*
X-12482302Y21255788D01*
X-12624642Y21194263D01*
X-12619811Y21147086D01*
X-12610703Y21034853D01*
X-12604210Y20924879D01*
X-12600332Y20817165D01*
X-12599069Y20711711D01*
X-12600421Y20608515D01*
X-12604387Y20507579D01*
X-12610968Y20408902D01*
X-12620163Y20312484D01*
X-12631971Y20218324D01*
X-12646394Y20126424D01*
X-12663431Y20036783D01*
X-12674580Y19987207D01*
X-12955715Y19929816D01*
X-13292780Y19855340D01*
X-13620606Y19778544D01*
X-14255384Y19622450D01*
X-15093459Y19418870D01*
X-15510965Y19327190D01*
X-15932764Y19246118D01*
X-16362836Y19178555D01*
X-16582221Y19150746D01*
X-16805168Y19127401D01*
X-17032175Y19108885D01*
X-17263741Y19095558D01*
X-17500364Y19087784D01*
X-17742540Y19085926D01*
X-17742547Y19085926D01*
X-18025430Y19094217D01*
X-18230520Y19108346D01*
X-18226889Y19121697D01*
X-18197107Y19247069D01*
X-18171502Y19372968D01*
X-18150074Y19499394D01*
X-18132821Y19626348D01*
X-18119745Y19753828D01*
X-18110844Y19881836D01*
X-18106119Y20010370D01*
X-18105570Y20139432D01*
X-18109196Y20269021D01*
X-18116997Y20399137D01*
X-18128974Y20529780D01*
X-18129621Y20535034D01*
X-18075698Y20535034D01*
X-18075698Y20535033D01*
X-18072900Y20529268D01*
X-18070062Y20523523D01*
X-18067184Y20517799D01*
X-18070062Y20523524D01*
X-18072900Y20529269D01*
X-18075698Y20535034D01*
X-18129621Y20535034D01*
X-18130333Y20540818D01*
X-18145125Y20660950D01*
X-18165451Y20792647D01*
X-18172212Y20821349D01*
X-18178536Y20850293D01*
X-18184442Y20879465D01*
X-18189951Y20908850D01*
X-18585064Y20913532D01*
X-18987830Y20942853D01*
X-19394857Y20996810D01*
X-19765573Y21068238D01*
X-19764435Y21091258D01*
X-19971368Y21179970D01*
X-20335218Y21359019D01*
X-20808394Y21610224D01*
X-21343308Y21915407D01*
X-21619045Y22082559D01*
X-21892371Y22256388D01*
X-22157336Y22434622D01*
X-22407993Y22614988D01*
X-22638392Y22795214D01*
X-22842586Y22973027D01*
X-22993519Y23124917D01*
X-23002224Y23161858D01*
X-23051785Y23422363D01*
X-23090918Y23689316D01*
X-23119462Y23962567D01*
X-23531571Y23939020D01*
X-23635451Y24126309D01*
X-23733825Y24319145D01*
X-23825998Y24516962D01*
X-23911274Y24719195D01*
X-23951110Y24821790D01*
X-23988961Y24925277D01*
X-24024741Y25029586D01*
X-24058363Y25134644D01*
X-24089740Y25240382D01*
X-24118786Y25346729D01*
X-24145413Y25453615D01*
X-24169534Y25560968D01*
X-24256607Y25681233D01*
X-24334807Y25804463D01*
X-24404583Y25930631D01*
X-24466382Y26059710D01*
X-24520653Y26191676D01*
X-24567843Y26326500D01*
X-24608401Y26464158D01*
X-24642774Y26604624D01*
X-24671410Y26747871D01*
X-24694758Y26893872D01*
X-24713264Y27042603D01*
X-24727378Y27194037D01*
X-24737548Y27348147D01*
X-24744220Y27504908D01*
X-24748865Y27826278D01*
X-24774648Y28042705D01*
X-24790269Y28249725D01*
X-24795977Y28447890D01*
X-24792018Y28637754D01*
X-24789783Y28668180D01*
X-24473011Y28668180D01*
X-24430939Y28749069D01*
X-24382537Y28834479D01*
X-24328327Y28923526D01*
X-24268829Y29015323D01*
X-24204562Y29108987D01*
X-24136046Y29203631D01*
X-24063801Y29298372D01*
X-23988348Y29392325D01*
X-23910205Y29484603D01*
X-23829894Y29574323D01*
X-23747934Y29660600D01*
X-23664845Y29742547D01*
X-23581147Y29819281D01*
X-23497361Y29889917D01*
X-23414005Y29953569D01*
X-23331600Y30009352D01*
X-23482805Y29846267D01*
X-23626183Y29666854D01*
X-23760752Y29472898D01*
X-23885530Y29266188D01*
X-23999535Y29048512D01*
X-24101784Y28821655D01*
X-24191295Y28587406D01*
X-24267087Y28347552D01*
X-24328177Y28103879D01*
X-24373584Y27858176D01*
X-24402324Y27612229D01*
X-24413416Y27367826D01*
X-24405879Y27126754D01*
X-24394816Y27008025D01*
X-24378728Y26890800D01*
X-24357492Y26775301D01*
X-24330984Y26661752D01*
X-24299082Y26550375D01*
X-24261663Y26441396D01*
X-24258010Y26549216D01*
X-24249141Y26661524D01*
X-24235127Y26777492D01*
X-24216039Y26896295D01*
X-24191947Y27017105D01*
X-24162922Y27139095D01*
X-24129033Y27261440D01*
X-24090352Y27383311D01*
X-24046948Y27503883D01*
X-23998893Y27622328D01*
X-23946256Y27737820D01*
X-23889109Y27849532D01*
X-23827521Y27956636D01*
X-23761563Y28058307D01*
X-23691306Y28153718D01*
X-23616820Y28242041D01*
X-23659314Y28171093D01*
X-23698904Y28096003D01*
X-23769492Y27934354D01*
X-23828810Y27759000D01*
X-23877083Y27571850D01*
X-23914539Y27374811D01*
X-23941404Y27169792D01*
X-23957904Y26958700D01*
X-23964264Y26743443D01*
X-23960712Y26525929D01*
X-23947474Y26308065D01*
X-23924776Y26091759D01*
X-23892844Y25878920D01*
X-23851904Y25671454D01*
X-23802184Y25471271D01*
X-23743908Y25280276D01*
X-23677303Y25100380D01*
X-23659221Y25279603D01*
X-23633854Y25465423D01*
X-23600770Y25654772D01*
X-23581200Y25749810D01*
X-23559537Y25844581D01*
X-23535730Y25938699D01*
X-23509722Y26031782D01*
X-23481461Y26123447D01*
X-23450891Y26213309D01*
X-23417960Y26300985D01*
X-23382612Y26386093D01*
X-23344795Y26468247D01*
X-23304453Y26547066D01*
X-23332618Y26368027D01*
X-23355494Y26191966D01*
X-23373132Y26018882D01*
X-23385581Y25848773D01*
X-23392893Y25681640D01*
X-23395119Y25517480D01*
X-23392310Y25356292D01*
X-23384516Y25198076D01*
X-23371789Y25042830D01*
X-23354178Y24890554D01*
X-23331736Y24741245D01*
X-23304513Y24594904D01*
X-23272559Y24451529D01*
X-23235926Y24311118D01*
X-23194665Y24173671D01*
X-23148826Y24039187D01*
X-23080937Y23868608D01*
X-23002687Y23702774D01*
X-22914560Y23541758D01*
X-22817039Y23385629D01*
X-22710607Y23234461D01*
X-22595748Y23088324D01*
X-22472944Y22947290D01*
X-22342680Y22811430D01*
X-22205438Y22680816D01*
X-22061701Y22555518D01*
X-21911954Y22435609D01*
X-21756680Y22321161D01*
X-21596360Y22212243D01*
X-21431480Y22108929D01*
X-21262522Y22011289D01*
X-21089970Y21919394D01*
X-20914307Y21833317D01*
X-20736015Y21753128D01*
X-20373482Y21610702D01*
X-20006238Y21492688D01*
X-19638149Y21399657D01*
X-19273080Y21332180D01*
X-18914900Y21290830D01*
X-18739600Y21280131D01*
X-18567473Y21276178D01*
X-18399001Y21279042D01*
X-18234667Y21288794D01*
X-18234667Y21288797D01*
X-18238105Y21334832D01*
X-18249925Y21486659D01*
X-18263368Y21636488D01*
X-18278567Y21784529D01*
X-18295659Y21930991D01*
X-18314777Y22076084D01*
X-18336057Y22220017D01*
X-18359632Y22363000D01*
X-18385637Y22505242D01*
X-18414211Y22647055D01*
X-18445454Y22788510D01*
X-18479497Y22929814D01*
X-18516473Y23071173D01*
X-18556515Y23212795D01*
X-18599756Y23354888D01*
X-18646328Y23497657D01*
X-18696363Y23641310D01*
X-18752603Y23793107D01*
X-18811137Y23942301D01*
X-18934533Y24233678D01*
X-19065448Y24517035D01*
X-19202776Y24793967D01*
X-19345412Y25066067D01*
X-19492252Y25334929D01*
X-19794119Y25869313D01*
X-20107897Y26424974D01*
X-20416237Y27001155D01*
X-20565532Y27301335D01*
X-20710065Y27611917D01*
X-20848701Y27934659D01*
X-20980306Y28271320D01*
X-21103747Y28623655D01*
X-21217888Y28993424D01*
X-21321595Y29382383D01*
X-21413734Y29792290D01*
X-21493172Y30224902D01*
X-21558772Y30681978D01*
X-21609402Y31165274D01*
X-21643928Y31676548D01*
X-21658724Y32002297D01*
X-21668156Y32296991D01*
X-21671046Y32568898D01*
X-21670243Y32611740D01*
X-21404686Y32611740D01*
X-21403555Y32315858D01*
X-21394439Y32003762D01*
X-21379027Y31668766D01*
X-21344383Y31170587D01*
X-21294092Y30699545D01*
X-21229256Y30253935D01*
X-21150977Y29832052D01*
X-21060357Y29432192D01*
X-20958501Y29052650D01*
X-20846509Y28691720D01*
X-20725486Y28347699D01*
X-20596533Y28018881D01*
X-20460753Y27703561D01*
X-20319249Y27400035D01*
X-20173124Y27106599D01*
X-19871419Y26543174D01*
X-19564460Y25999647D01*
X-19258730Y25458284D01*
X-19109860Y25185527D01*
X-18965074Y24909028D01*
X-18825438Y24627021D01*
X-18692017Y24337736D01*
X-18565875Y24039406D01*
X-18505867Y23886297D01*
X-18448079Y23730263D01*
X-18395998Y23580783D01*
X-18347573Y23432473D01*
X-18302664Y23285113D01*
X-18261131Y23138484D01*
X-18222836Y22992365D01*
X-18187637Y22846538D01*
X-18155397Y22700783D01*
X-18125975Y22554879D01*
X-18099213Y22408448D01*
X-18074953Y22261385D01*
X-18053060Y22113469D01*
X-18033397Y21964482D01*
X-18015828Y21814202D01*
X-18000215Y21662410D01*
X-17986423Y21508885D01*
X-17974315Y21353408D01*
X-17966085Y21247629D01*
X-17956076Y21142913D01*
X-17943393Y21040293D01*
X-17935769Y20990092D01*
X-17927140Y20940802D01*
X-17917396Y20892552D01*
X-17906423Y20845473D01*
X-17894110Y20799692D01*
X-17880346Y20755339D01*
X-17865017Y20712543D01*
X-17848012Y20671434D01*
X-17829220Y20632140D01*
X-17808528Y20594790D01*
X-17790591Y20565876D01*
X-17771939Y20538288D01*
X-17752356Y20512088D01*
X-17731628Y20487337D01*
X-17720766Y20475524D01*
X-17709537Y20464096D01*
X-17697914Y20453062D01*
X-17685870Y20442428D01*
X-17673378Y20432202D01*
X-17660411Y20422393D01*
X-17646941Y20413007D01*
X-17632943Y20404052D01*
X-17618390Y20395537D01*
X-17603253Y20387468D01*
X-17587507Y20379854D01*
X-17571124Y20372702D01*
X-17554078Y20366019D01*
X-17536342Y20359814D01*
X-17517888Y20354094D01*
X-17498690Y20348867D01*
X-17478720Y20344140D01*
X-17457953Y20339922D01*
X-17436360Y20336219D01*
X-17413916Y20333039D01*
X-17390592Y20330391D01*
X-17366363Y20328282D01*
X-17341201Y20326719D01*
X-17315080Y20325710D01*
X-17296133Y20390604D01*
X-17281485Y20464911D01*
X-17270877Y20547081D01*
X-17264049Y20635563D01*
X-17260741Y20728808D01*
X-17260693Y20825265D01*
X-17263646Y20923383D01*
X-17269340Y21021612D01*
X-17277515Y21118402D01*
X-17287911Y21212202D01*
X-17300269Y21301462D01*
X-17314328Y21384631D01*
X-17329830Y21460160D01*
X-17346514Y21526497D01*
X-17364121Y21582093D01*
X-17382390Y21625397D01*
X-17349116Y21584209D01*
X-17317652Y21541711D01*
X-17259971Y21453275D01*
X-17208971Y21361074D01*
X-17164279Y21266093D01*
X-17125520Y21169316D01*
X-17092318Y21071729D01*
X-17064300Y20974315D01*
X-17041090Y20878061D01*
X-17022315Y20783950D01*
X-17007598Y20692968D01*
X-16996566Y20606099D01*
X-16988843Y20524329D01*
X-16981829Y20380022D01*
X-16983557Y20267926D01*
X-16936806Y20249948D01*
X-16890734Y20233647D01*
X-16845219Y20219035D01*
X-16800142Y20206127D01*
X-16755383Y20194935D01*
X-16710823Y20185474D01*
X-16666341Y20177756D01*
X-16621818Y20171795D01*
X-16577133Y20167605D01*
X-16532168Y20165199D01*
X-16486801Y20164589D01*
X-16440914Y20165791D01*
X-16394387Y20168816D01*
X-16347098Y20173679D01*
X-16298930Y20180393D01*
X-16249762Y20188971D01*
X-16242930Y20257759D01*
X-16241883Y20335676D01*
X-16246261Y20421267D01*
X-16255708Y20513080D01*
X-16269865Y20609660D01*
X-16288375Y20709553D01*
X-16310879Y20811305D01*
X-16337021Y20913462D01*
X-16366442Y21014571D01*
X-16398784Y21113177D01*
X-16433689Y21207827D01*
X-16470801Y21297067D01*
X-16509760Y21379441D01*
X-16550210Y21453498D01*
X-16591792Y21517783D01*
X-16634148Y21570841D01*
X-16590702Y21541464D01*
X-16549058Y21510767D01*
X-16509173Y21478801D01*
X-16471005Y21445620D01*
X-16434514Y21411275D01*
X-16399657Y21375818D01*
X-16366392Y21339302D01*
X-16334678Y21301779D01*
X-16304472Y21263301D01*
X-16275733Y21223921D01*
X-16222488Y21142660D01*
X-16174607Y21058416D01*
X-16131757Y20971605D01*
X-16093603Y20882645D01*
X-16059809Y20791954D01*
X-16030041Y20699950D01*
X-16003965Y20607051D01*
X-15981245Y20513673D01*
X-15961547Y20420235D01*
X-15944537Y20327155D01*
X-15929879Y20234851D01*
X-15880319Y20241831D01*
X-15856112Y20245987D01*
X-15832287Y20250588D01*
X-15808845Y20255633D01*
X-15785786Y20261122D01*
X-15763108Y20267056D01*
X-15740813Y20273435D01*
X-15718901Y20280258D01*
X-15697372Y20287525D01*
X-15676225Y20295238D01*
X-15655461Y20303395D01*
X-15635080Y20311998D01*
X-15615082Y20321045D01*
X-15595468Y20330537D01*
X-15576236Y20340475D01*
X-15575016Y20339539D01*
X-15573775Y20338637D01*
X-15572515Y20337768D01*
X-15571236Y20336929D01*
X-15569936Y20336120D01*
X-15568616Y20335339D01*
X-15567277Y20334586D01*
X-15565918Y20333858D01*
X-15623700Y20381866D01*
X-15678504Y20434144D01*
X-15730003Y20490321D01*
X-15777875Y20550028D01*
X-15821796Y20612894D01*
X-15861440Y20678550D01*
X-15896485Y20746625D01*
X-15926605Y20816750D01*
X-15939718Y20852465D01*
X-15951478Y20888553D01*
X-15961845Y20924969D01*
X-15970778Y20961666D01*
X-15978237Y20998598D01*
X-15984182Y21035718D01*
X-15988572Y21072981D01*
X-15991366Y21110340D01*
X-15992524Y21147748D01*
X-15992005Y21185160D01*
X-15989770Y21222529D01*
X-15985776Y21259809D01*
X-15979985Y21296954D01*
X-15972355Y21333918D01*
X-15962845Y21370653D01*
X-15951417Y21407115D01*
X-15941374Y21434775D01*
X-15930256Y21462134D01*
X-15918061Y21489192D01*
X-15904791Y21515950D01*
X-15890444Y21542407D01*
X-15875020Y21568564D01*
X-15858519Y21594421D01*
X-15840940Y21619978D01*
X-15822284Y21645236D01*
X-15802549Y21670194D01*
X-15781736Y21694854D01*
X-15759845Y21719215D01*
X-15736874Y21743277D01*
X-15712824Y21767041D01*
X-15687695Y21790507D01*
X-15661485Y21813675D01*
X-15666937Y21808912D01*
X-15835706Y23027013D01*
X-15930299Y23598839D01*
X-15985604Y23877842D01*
X-16048326Y24153153D01*
X-16120024Y24425456D01*
X-16202257Y24695435D01*
X-16296585Y24963776D01*
X-16404565Y25231163D01*
X-16527757Y25498282D01*
X-16667720Y25765816D01*
X-16826012Y26034451D01*
X-17004193Y26304872D01*
X-16811127Y26053228D01*
X-16636462Y25803974D01*
X-16478977Y25556249D01*
X-16337450Y25309194D01*
X-16210660Y25061945D01*
X-16097386Y24813642D01*
X-15996405Y24563424D01*
X-15906496Y24310429D01*
X-15826438Y24053797D01*
X-15755009Y23792666D01*
X-15690987Y23526175D01*
X-15633151Y23253463D01*
X-15531151Y22685931D01*
X-15439236Y22083179D01*
X-15371357Y22471983D01*
X-15295027Y22958100D01*
X-15197309Y23514430D01*
X-15136387Y23810455D01*
X-15065267Y24113870D01*
X-14982332Y24421287D01*
X-14885964Y24729318D01*
X-14774548Y25034577D01*
X-14646465Y25333675D01*
X-14500099Y25623224D01*
X-14419555Y25763359D01*
X-14333833Y25899837D01*
X-14242732Y26032233D01*
X-14146050Y26160126D01*
X-14043584Y26283090D01*
X-13935132Y26400703D01*
X-14123221Y26114394D01*
X-14287604Y25816009D01*
X-14430318Y25508071D01*
X-14553398Y25193103D01*
X-14658881Y24873627D01*
X-14748804Y24552166D01*
X-14825203Y24231244D01*
X-14890115Y23913381D01*
X-14993620Y23296931D01*
X-15075612Y22722996D01*
X-15152381Y22211761D01*
X-15193898Y21985962D01*
X-15240219Y21783406D01*
X-15286890Y21755889D01*
X-15327557Y21731165D01*
X-15366253Y21706124D01*
X-15402978Y21680766D01*
X-15437732Y21655093D01*
X-15470516Y21629102D01*
X-15501329Y21602795D01*
X-15530172Y21576171D01*
X-15557043Y21549230D01*
X-15581944Y21521972D01*
X-15604875Y21494398D01*
X-15625834Y21466506D01*
X-15644823Y21438297D01*
X-15661841Y21409771D01*
X-15676888Y21380928D01*
X-15689964Y21351767D01*
X-15701070Y21322289D01*
X-15705564Y21308479D01*
X-15709642Y21294552D01*
X-15713304Y21280509D01*
X-15716548Y21266350D01*
X-15719377Y21252075D01*
X-15721789Y21237683D01*
X-15723785Y21223176D01*
X-15725364Y21208552D01*
X-15726528Y21193813D01*
X-15727275Y21178957D01*
X-15727607Y21163986D01*
X-15727522Y21148899D01*
X-15727022Y21133697D01*
X-15726106Y21118379D01*
X-15724774Y21102945D01*
X-15723027Y21087397D01*
X-15703613Y21120865D01*
X-15680393Y21157920D01*
X-15653397Y21197830D01*
X-15622654Y21239863D01*
X-15588194Y21283288D01*
X-15550047Y21327375D01*
X-15508240Y21371391D01*
X-15462804Y21414605D01*
X-15413769Y21456286D01*
X-15387910Y21476324D01*
X-15361163Y21495703D01*
X-15333530Y21514334D01*
X-15305016Y21532125D01*
X-15275624Y21548984D01*
X-15245357Y21564820D01*
X-15214220Y21579541D01*
X-15182216Y21593056D01*
X-15149349Y21605274D01*
X-15115623Y21616104D01*
X-15081040Y21625453D01*
X-15045605Y21633231D01*
X-15009322Y21639345D01*
X-14972194Y21643705D01*
X-14987005Y21635950D01*
X-15003467Y21625758D01*
X-15040806Y21598512D01*
X-15083127Y21562872D01*
X-15129350Y21519742D01*
X-15178392Y21470027D01*
X-15229173Y21414630D01*
X-15280611Y21354455D01*
X-15331625Y21290408D01*
X-15381131Y21223391D01*
X-15428051Y21154310D01*
X-15471300Y21084067D01*
X-15509799Y21013568D01*
X-15526929Y20978505D01*
X-15542465Y20943717D01*
X-15556273Y20909316D01*
X-15568218Y20875417D01*
X-15578163Y20842131D01*
X-15585974Y20809572D01*
X-15591516Y20777854D01*
X-15594654Y20747088D01*
X-15536858Y20675208D01*
X-15510047Y20642980D01*
X-15484070Y20613132D01*
X-15458507Y20585591D01*
X-15432939Y20560287D01*
X-15406948Y20537147D01*
X-15380115Y20516099D01*
X-15366251Y20506338D01*
X-15352020Y20497073D01*
X-15337368Y20488295D01*
X-15322245Y20479995D01*
X-15306596Y20472165D01*
X-15290370Y20464796D01*
X-15273515Y20457878D01*
X-15255978Y20451402D01*
X-15237707Y20445360D01*
X-15218649Y20439742D01*
X-15198752Y20434541D01*
X-15177964Y20429745D01*
X-15133505Y20421339D01*
X-15084852Y20414452D01*
X-15027193Y20580043D01*
X-14961974Y20753521D01*
X-14926217Y20840930D01*
X-14888194Y20927564D01*
X-14847781Y21012509D01*
X-14804852Y21094848D01*
X-14759281Y21173667D01*
X-14710944Y21248050D01*
X-14659716Y21317082D01*
X-14605471Y21379848D01*
X-14548085Y21435432D01*
X-14518174Y21460244D01*
X-14487431Y21482918D01*
X-14455840Y21503338D01*
X-14423385Y21521391D01*
X-14390051Y21536962D01*
X-14355822Y21549937D01*
X-14377205Y21529522D01*
X-14398080Y21507289D01*
X-14438269Y21457657D01*
X-14476312Y21401621D01*
X-14512136Y21339760D01*
X-14545664Y21272654D01*
X-14576824Y21200881D01*
X-14605538Y21125022D01*
X-14631734Y21045655D01*
X-14655336Y20963360D01*
X-14676269Y20878716D01*
X-14694459Y20792302D01*
X-14709830Y20704699D01*
X-14722308Y20616484D01*
X-14731819Y20528239D01*
X-14738286Y20440541D01*
X-14741636Y20353970D01*
X-14619793Y20332277D01*
X-14565777Y20324191D01*
X-14515388Y20317956D01*
X-14467896Y20313577D01*
X-14422566Y20311061D01*
X-14378669Y20310416D01*
X-14335470Y20311648D01*
X-14292238Y20314764D01*
X-14248242Y20319771D01*
X-14202748Y20326675D01*
X-14155025Y20335484D01*
X-14104340Y20346204D01*
X-14049962Y20358842D01*
X-13927197Y20389900D01*
X-13926594Y20473617D01*
X-13924263Y20554289D01*
X-13919868Y20632177D01*
X-13913073Y20707544D01*
X-13903543Y20780654D01*
X-13890939Y20851770D01*
X-13874927Y20921153D01*
X-13855171Y20989068D01*
X-13831333Y21055777D01*
X-13803078Y21121542D01*
X-13770070Y21186627D01*
X-13731972Y21251294D01*
X-13688449Y21315807D01*
X-13639163Y21380428D01*
X-13583780Y21445420D01*
X-13521962Y21511045D01*
X-13547669Y21465254D01*
X-13571345Y21413884D01*
X-13592768Y21357565D01*
X-13611717Y21296928D01*
X-13627971Y21232600D01*
X-13641309Y21165211D01*
X-13651510Y21095392D01*
X-13658353Y21023770D01*
X-13661616Y20950975D01*
X-13661080Y20877638D01*
X-13656521Y20804386D01*
X-13647720Y20731849D01*
X-13634456Y20660658D01*
X-13616506Y20591440D01*
X-13593651Y20524825D01*
X-13580315Y20492691D01*
X-13565669Y20461444D01*
X-13513261Y20465251D01*
X-13463789Y20472147D01*
X-13417162Y20482026D01*
X-13373290Y20494781D01*
X-13332082Y20510307D01*
X-13293447Y20528498D01*
X-13257295Y20549247D01*
X-13223536Y20572448D01*
X-13192079Y20597996D01*
X-13162833Y20625784D01*
X-13135708Y20655706D01*
X-13110614Y20687657D01*
X-13087459Y20721529D01*
X-13066154Y20757218D01*
X-13046607Y20794617D01*
X-13028729Y20833620D01*
X-13012428Y20874120D01*
X-12997615Y20916012D01*
X-12984198Y20959191D01*
X-12972088Y21003548D01*
X-12961193Y21048980D01*
X-12951423Y21095379D01*
X-12934897Y21190656D01*
X-12921785Y21288530D01*
X-12911363Y21388154D01*
X-12903472Y21489402D01*
X-12829709Y21489402D01*
X-12682123Y21169416D01*
X-12624642Y21194263D01*
X-12631534Y21261578D01*
X-12645873Y21378331D01*
X-12645873Y21378383D01*
X-12638571Y21475088D01*
X-12631904Y21571635D01*
X-12631652Y21575217D01*
X-12620525Y21579882D01*
X-12389490Y21668501D01*
X-12138624Y21754571D01*
X-11869946Y21837409D01*
X-11585478Y21916327D01*
X-11287239Y21990640D01*
X-10977250Y22059662D01*
X-10657531Y22122707D01*
X-10362406Y22173872D01*
X-10062225Y22219159D01*
X-9758473Y22258062D01*
X-9452637Y22290077D01*
X-9221275Y22308665D01*
X-9119693Y22377562D01*
X-8978514Y22482248D01*
X-8843743Y22591539D01*
X-8715427Y22705423D01*
X-8593614Y22823888D01*
X-8478354Y22946920D01*
X-8369693Y23074506D01*
X-8267680Y23206633D01*
X-8172363Y23343289D01*
X-8083791Y23484460D01*
X-8002011Y23630134D01*
X-7927071Y23780296D01*
X-7859020Y23934935D01*
X-7797906Y24094038D01*
X-7743777Y24257590D01*
X-7696681Y24425581D01*
X-7656666Y24597995D01*
X-7623780Y24774821D01*
X-7598072Y24956046D01*
X-7579590Y25141656D01*
X-7568381Y25331638D01*
X-7564494Y25525980D01*
X-7567978Y25724669D01*
X-7578879Y25927690D01*
X-7597247Y26135033D01*
X-7623129Y26346683D01*
X-7656574Y26562628D01*
X-7616232Y26483817D01*
X-7578416Y26401668D01*
X-7543070Y26316565D01*
X-7510142Y26228891D01*
X-7479577Y26139030D01*
X-7451320Y26047365D01*
X-7425317Y25954281D01*
X-7401514Y25860160D01*
X-7379856Y25765387D01*
X-7360290Y25670346D01*
X-7327215Y25480992D01*
X-7301854Y25295167D01*
X-7283774Y25115941D01*
X-7217160Y25295847D01*
X-7158876Y25486847D01*
X-7109149Y25687036D01*
X-7068203Y25894504D01*
X-7036266Y26107344D01*
X-7013563Y26323650D01*
X-7000321Y26541512D01*
X-6996767Y26759024D01*
X-7003125Y26974279D01*
X-7019623Y27185368D01*
X-7046486Y27390384D01*
X-7083941Y27587419D01*
X-7132214Y27774566D01*
X-7191531Y27949918D01*
X-7262119Y28111566D01*
X-7344203Y28257603D01*
X-7269717Y28169279D01*
X-7199462Y28073868D01*
X-7133506Y27972197D01*
X-7071921Y27865092D01*
X-7014777Y27753380D01*
X-6962144Y27637889D01*
X-6914092Y27519444D01*
X-6870691Y27398872D01*
X-6832012Y27277000D01*
X-6798125Y27154656D01*
X-6769099Y27032665D01*
X-6745006Y26911855D01*
X-6725916Y26793052D01*
X-6711898Y26677084D01*
X-6703022Y26564776D01*
X-6699360Y26456955D01*
X-6661946Y26565935D01*
X-6630049Y26677311D01*
X-6603545Y26790861D01*
X-6582313Y26906360D01*
X-6555170Y27142314D01*
X-6547637Y27383386D01*
X-6558734Y27627790D01*
X-6587478Y27873736D01*
X-6632886Y28119440D01*
X-6693977Y28363112D01*
X-6769768Y28602967D01*
X-6859277Y28837216D01*
X-6961523Y29064072D01*
X-7075523Y29281749D01*
X-7200296Y29488459D01*
X-7334858Y29682415D01*
X-7478228Y29861829D01*
X-7629424Y30024914D01*
X-7547019Y29969131D01*
X-7463663Y29905479D01*
X-7379876Y29834843D01*
X-7296179Y29758109D01*
X-7213090Y29676161D01*
X-7131131Y29589884D01*
X-7050822Y29500164D01*
X-6972681Y29407886D01*
X-6897231Y29313933D01*
X-6824989Y29219192D01*
X-6756478Y29124547D01*
X-6692215Y29030884D01*
X-6632723Y28939086D01*
X-6578520Y28850040D01*
X-6530127Y28764631D01*
X-6488064Y28683742D01*
X-6490574Y28779132D01*
X-6500069Y28876899D01*
X-6516203Y28976763D01*
X-6538631Y29078447D01*
X-6567009Y29181670D01*
X-6600991Y29286154D01*
X-6684389Y29497789D01*
X-6786067Y29711121D01*
X-6903266Y29923918D01*
X-7033227Y30133948D01*
X-7173191Y30338980D01*
X-7320399Y30536782D01*
X-7472092Y30725122D01*
X-7625512Y30901769D01*
X-7777899Y31064492D01*
X-7926495Y31211059D01*
X-8068540Y31339238D01*
X-8201277Y31446797D01*
X-8321945Y31531506D01*
X-8250851Y31508972D01*
X-8179159Y31481927D01*
X-8107260Y31450874D01*
X-8035548Y31416313D01*
X-7964415Y31378746D01*
X-7894254Y31338675D01*
X-7825456Y31296600D01*
X-7758415Y31253024D01*
X-7693522Y31208448D01*
X-7631171Y31163373D01*
X-7571753Y31118300D01*
X-7515661Y31073731D01*
X-7415026Y30988112D01*
X-7332404Y30910527D01*
X-7376119Y31041333D01*
X-7434240Y31176751D01*
X-7504807Y31315226D01*
X-7585856Y31455202D01*
X-7675426Y31595125D01*
X-7771556Y31733440D01*
X-7872282Y31868591D01*
X-7975644Y31999024D01*
X-8079680Y32123184D01*
X-8182427Y32239515D01*
X-8281924Y32346464D01*
X-8376208Y32442475D01*
X-8463318Y32525993D01*
X-8541293Y32595462D01*
X-8608169Y32649329D01*
X-8661986Y32686039D01*
X-8621658Y32676616D01*
X-8579291Y32664221D01*
X-8535261Y32649152D01*
X-8489947Y32631703D01*
X-8443725Y32612172D01*
X-8396973Y32590854D01*
X-8350068Y32568046D01*
X-8303388Y32544044D01*
X-8212212Y32493646D01*
X-8126464Y32442028D01*
X-8049164Y32391563D01*
X-7983330Y32344620D01*
X-8028694Y32435320D01*
X-8077299Y32525324D01*
X-8129038Y32614496D01*
X-8183801Y32702701D01*
X-8241479Y32789805D01*
X-8301965Y32875673D01*
X-8365148Y32960170D01*
X-8430919Y33043160D01*
X-8499171Y33124510D01*
X-8569793Y33204085D01*
X-8642678Y33281748D01*
X-8717716Y33357366D01*
X-8794798Y33430804D01*
X-8873816Y33501927D01*
X-8954660Y33570600D01*
X-9037221Y33636688D01*
X-9029442Y33589076D01*
X-9022066Y33541582D01*
X-9015097Y33494228D01*
X-9008540Y33447033D01*
X-8957543Y32969019D01*
X-8932665Y32491798D01*
X-8933100Y32015991D01*
X-8958044Y31542218D01*
X-9006691Y31071098D01*
X-9078237Y30603251D01*
X-9171877Y30139297D01*
X-9286807Y29679857D01*
X-9422221Y29225551D01*
X-9577314Y28776997D01*
X-9751282Y28334817D01*
X-9943320Y27899630D01*
X-10152623Y27472056D01*
X-10378386Y27052716D01*
X-10619805Y26642228D01*
X-10876074Y26241214D01*
X-10876076Y26241214D01*
X-11163812Y25805094D01*
X-11444121Y25358990D01*
X-11579495Y25128587D01*
X-11710618Y24891360D01*
X-11836691Y24645867D01*
X-11956917Y24390664D01*
X-12070497Y24124309D01*
X-12176634Y23845359D01*
X-12274528Y23552371D01*
X-12363382Y23243903D01*
X-12442397Y22918512D01*
X-12510776Y22574755D01*
X-12567720Y22211190D01*
X-12612431Y21826374D01*
X-12617592Y21768162D01*
X-12622502Y21705355D01*
X-12631652Y21575217D01*
X-12727975Y21534832D01*
X-12829709Y21489402D01*
X-12903472Y21489402D01*
X-12895691Y21589254D01*
X-12886649Y21716750D01*
X-12881352Y21782589D01*
X-12875105Y21851191D01*
X-12829063Y22248116D01*
X-12770534Y22622906D01*
X-12700335Y22977063D01*
X-12619280Y23312089D01*
X-12528182Y23629487D01*
X-12427858Y23930759D01*
X-12319122Y24217407D01*
X-12202788Y24490933D01*
X-12079671Y24752840D01*
X-11950585Y25004631D01*
X-11816347Y25247806D01*
X-11677769Y25483870D01*
X-11390857Y25940670D01*
X-11096366Y26387048D01*
X-10843612Y26782473D01*
X-10605121Y27187768D01*
X-10381850Y27602264D01*
X-10174754Y28025292D01*
X-9984792Y28456184D01*
X-9812918Y28894272D01*
X-9660091Y29338886D01*
X-9527265Y29789359D01*
X-9415398Y30245022D01*
X-9325447Y30705205D01*
X-9258367Y31169242D01*
X-9215116Y31636462D01*
X-9196649Y32106198D01*
X-9203924Y32577781D01*
X-9237897Y33050542D01*
X-9299524Y33523814D01*
X-9339878Y33751208D01*
X-9387920Y33977467D01*
X-9443538Y34202116D01*
X-9506621Y34424686D01*
X-9537447Y34520973D01*
X-9614809Y34724387D01*
X-9660986Y34842724D01*
X-9706641Y34953496D01*
X-9729271Y35006044D01*
X-9751769Y35056698D01*
X-9774135Y35105458D01*
X-9796367Y35152324D01*
X-9811572Y35049698D01*
X-9829686Y34950322D01*
X-9850644Y34854068D01*
X-9874378Y34760808D01*
X-9900819Y34670415D01*
X-9929903Y34582761D01*
X-9995723Y34415159D01*
X-10071302Y34256979D01*
X-10156101Y34107198D01*
X-10249581Y33964795D01*
X-10351205Y33828747D01*
X-10460434Y33698032D01*
X-10576732Y33571628D01*
X-10699559Y33448513D01*
X-10828377Y33327663D01*
X-10962649Y33208057D01*
X-11101837Y33088673D01*
X-11392807Y32846481D01*
X-11300283Y33198890D01*
X-11259683Y33366705D01*
X-11241923Y33449848D01*
X-11226287Y33532988D01*
X-11213094Y33616508D01*
X-11202666Y33700788D01*
X-11195325Y33786208D01*
X-11191393Y33873149D01*
X-11191190Y33961993D01*
X-11195038Y34053120D01*
X-11203259Y34146910D01*
X-11216174Y34243745D01*
X-11332402Y34081518D01*
X-11450327Y33923775D01*
X-11570610Y33770977D01*
X-11693911Y33623586D01*
X-11820891Y33482063D01*
X-11952209Y33346869D01*
X-12088527Y33218465D01*
X-12230505Y33097313D01*
X-12378804Y32983872D01*
X-12534083Y32878606D01*
X-12697003Y32781974D01*
X-12868224Y32694438D01*
X-12957154Y32654224D01*
X-13048408Y32616458D01*
X-13142067Y32581197D01*
X-13238214Y32548497D01*
X-13336931Y32518417D01*
X-13438302Y32491015D01*
X-13542409Y32466348D01*
X-13649328Y32444474D01*
X-13527977Y32483864D01*
X-13411228Y32527036D01*
X-13298902Y32573856D01*
X-13190811Y32624190D01*
X-13086771Y32677903D01*
X-12986596Y32734860D01*
X-12890102Y32794929D01*
X-12797101Y32857974D01*
X-12707409Y32923862D01*
X-12620841Y32992457D01*
X-12537210Y33063627D01*
X-12456332Y33137236D01*
X-12302090Y33291238D01*
X-12156633Y33453388D01*
X-12018475Y33622613D01*
X-11886134Y33797839D01*
X-11758125Y33977993D01*
X-11632965Y34162001D01*
X-11385256Y34537285D01*
X-11131135Y34915100D01*
X-11059436Y34771553D01*
X-10996986Y34638613D01*
X-10969363Y34574634D01*
X-10944212Y34511522D01*
X-10921587Y34448683D01*
X-10901542Y34385522D01*
X-10884130Y34321445D01*
X-10869405Y34255857D01*
X-10857419Y34188162D01*
X-10848227Y34117767D01*
X-10841882Y34044076D01*
X-10838437Y33966496D01*
X-10837946Y33884430D01*
X-10840462Y33797285D01*
X-10721963Y33929056D01*
X-10615315Y34061402D01*
X-10520117Y34194654D01*
X-10435970Y34329145D01*
X-10362472Y34465206D01*
X-10299222Y34603169D01*
X-10245820Y34743365D01*
X-10201865Y34886127D01*
X-10166956Y35031785D01*
X-10140693Y35180673D01*
X-10128395Y35284722D01*
X-9831389Y35284722D01*
X-9739554Y35075193D01*
X-9654741Y34861696D01*
X-9577059Y34644703D01*
X-9537447Y34520973D01*
X-9428330Y34234061D01*
X-9301625Y34667608D01*
X-9330919Y34750726D01*
X-9386788Y34895825D01*
X-9445895Y35036402D01*
X-9508100Y35171767D01*
X-9573263Y35301232D01*
X-9831389Y35284722D01*
X-10128395Y35284722D01*
X-10122674Y35333122D01*
X-10112499Y35489462D01*
X-10109768Y35650027D01*
X-10114079Y35815148D01*
X-10125032Y35985157D01*
X-10142226Y36160385D01*
X-10091629Y36116285D01*
X-10043189Y36072700D01*
X-9996769Y36029376D01*
X-9952227Y35986062D01*
X-9909426Y35942506D01*
X-9868226Y35898458D01*
X-9828488Y35853664D01*
X-9790073Y35807874D01*
X-9752842Y35760835D01*
X-9716655Y35712297D01*
X-9681374Y35662007D01*
X-9646859Y35609713D01*
X-9612972Y35555164D01*
X-9579573Y35498109D01*
X-9546523Y35438295D01*
X-9513682Y35375471D01*
X-9499192Y35556423D01*
X-9493977Y35729719D01*
X-9497671Y35896208D01*
X-9509913Y36056742D01*
X-9530339Y36212168D01*
X-9558584Y36363338D01*
X-9594285Y36511101D01*
X-9637079Y36656306D01*
X-9686601Y36799803D01*
X-9742489Y36942442D01*
X-9804379Y37085073D01*
X-9871906Y37228545D01*
X-10022420Y37521413D01*
X-10191122Y37827842D01*
X-9919988Y37705341D01*
X-9788988Y37644381D01*
X-9660745Y37580872D01*
X-9597591Y37547518D01*
X-9535045Y37512756D01*
X-9473081Y37476328D01*
X-9411672Y37437978D01*
X-9350792Y37397447D01*
X-9290412Y37354479D01*
X-9230507Y37308817D01*
X-9171048Y37260204D01*
X-9183691Y37398392D01*
X-9202707Y37529472D01*
X-9228011Y37654044D01*
X-9259515Y37772706D01*
X-9297131Y37886061D01*
X-9340773Y37994706D01*
X-9390354Y38099242D01*
X-9445786Y38200268D01*
X-9506981Y38298385D01*
X-9573854Y38394192D01*
X-9646316Y38488290D01*
X-9724280Y38581277D01*
X-9807659Y38673754D01*
X-9896367Y38766320D01*
X-9990315Y38859575D01*
X-10089416Y38954120D01*
X-10003607Y39078270D01*
X-9924811Y39200421D01*
X-9852851Y39321123D01*
X-9787545Y39440927D01*
X-9728716Y39560381D01*
X-9676184Y39680036D01*
X-9629770Y39800442D01*
X-9589293Y39922149D01*
X-9554576Y40045706D01*
X-9525439Y40171663D01*
X-9501702Y40300571D01*
X-9483186Y40432979D01*
X-9469712Y40569437D01*
X-9461101Y40710494D01*
X-9457172Y40856702D01*
X-9457748Y41008609D01*
X-9612616Y41012168D01*
X-9766736Y41012038D01*
X-9920160Y41008317D01*
X-10072937Y41001102D01*
X-10225119Y40990492D01*
X-10376756Y40976585D01*
X-10678596Y40939273D01*
X-10978860Y40889951D01*
X-11277953Y40829404D01*
X-11576279Y40758416D01*
X-11874241Y40677774D01*
X-11997207Y40732418D01*
X-12116150Y40780569D01*
X-12232850Y40822985D01*
X-12349089Y40860421D01*
X-12466648Y40893633D01*
X-12587307Y40923376D01*
X-12712849Y40950407D01*
X-12845053Y40975481D01*
X-12854628Y41002566D01*
X-12862728Y41029922D01*
X-12869456Y41057516D01*
X-12874918Y41085315D01*
X-12879220Y41113284D01*
X-12882467Y41141391D01*
X-12884763Y41169601D01*
X-12886214Y41197882D01*
X-12886926Y41226199D01*
X-12887003Y41254519D01*
X-12885674Y41311035D01*
X-12880028Y41422626D01*
X-12922345Y41403287D01*
X-12963281Y41383401D01*
X-13002971Y41362928D01*
X-13041547Y41341829D01*
X-13079141Y41320062D01*
X-13115888Y41297588D01*
X-13151919Y41274366D01*
X-13187369Y41250356D01*
X-13222369Y41225517D01*
X-13257053Y41199810D01*
X-13326006Y41145627D01*
X-13395292Y41087486D01*
X-13465973Y41025063D01*
X-13486222Y41167441D01*
X-13505932Y41311747D01*
X-13514280Y41384098D01*
X-13520929Y41456300D01*
X-13525356Y41528145D01*
X-13527041Y41599421D01*
X-13562420Y41576999D01*
X-13595920Y41554841D01*
X-13627705Y41532802D01*
X-13657938Y41510734D01*
X-13686782Y41488493D01*
X-13714401Y41465934D01*
X-13740960Y41442909D01*
X-13766620Y41419274D01*
X-13791546Y41394884D01*
X-13815902Y41369591D01*
X-13839850Y41343252D01*
X-13863555Y41315719D01*
X-13887180Y41286848D01*
X-13910889Y41256493D01*
X-13934844Y41224507D01*
X-13959211Y41190746D01*
X-14093381Y41205192D01*
X-14220875Y41216290D01*
X-14343921Y41223129D01*
X-14404473Y41224667D01*
X-14464749Y41224798D01*
X-14525028Y41223408D01*
X-14585587Y41220384D01*
X-14646706Y41215612D01*
X-14708664Y41208977D01*
X-14771738Y41200366D01*
X-14836207Y41189664D01*
X-14902351Y41176759D01*
X-14970447Y41161535D01*
X-15016936Y41222194D01*
X-15063320Y41281301D01*
X-15110175Y41338920D01*
X-15158078Y41395117D01*
X-15207602Y41449958D01*
X-15233153Y41476890D01*
X-15259324Y41503507D01*
X-15286189Y41529817D01*
X-15313820Y41555829D01*
X-15342287Y41581550D01*
X-15371663Y41606990D01*
X-15361554Y41537909D01*
X-15353891Y41467519D01*
X-15348980Y41395955D01*
X-15347650Y41359774D01*
X-15347123Y41323350D01*
X-15347435Y41286700D01*
X-15348624Y41249840D01*
X-15350730Y41212788D01*
X-15353788Y41175560D01*
X-15357839Y41138172D01*
X-15362919Y41100642D01*
X-15369066Y41062987D01*
X-15376319Y41025224D01*
X-15604943Y41195202D01*
X-15719049Y41277707D01*
X-15834431Y41357461D01*
X-15892932Y41396050D01*
X-15952150Y41433643D01*
X-16012217Y41470138D01*
X-16073266Y41505432D01*
X-16135429Y41539423D01*
X-16198839Y41572007D01*
X-16263628Y41603083D01*
X-16329930Y41632548D01*
X-16313211Y41599290D01*
X-16298588Y41567182D01*
X-16285898Y41536040D01*
X-16274982Y41505678D01*
X-16265677Y41475914D01*
X-16257823Y41446563D01*
X-16251260Y41417441D01*
X-16245825Y41388364D01*
X-16241359Y41359148D01*
X-16237699Y41329610D01*
X-16232157Y41268827D01*
X-16223671Y41135289D01*
X-16418168Y41123623D01*
X-16615109Y41107940D01*
X-16813021Y41086615D01*
X-17010430Y41058023D01*
X-17108486Y41040495D01*
X-17205863Y41020539D01*
X-17302377Y40997955D01*
X-17397844Y40972538D01*
X-17492080Y40944085D01*
X-17584901Y40912394D01*
X-17676122Y40877260D01*
X-17765559Y40838481D01*
X-17908494Y40878116D01*
X-18050898Y40914352D01*
X-18192894Y40947163D01*
X-18334605Y40976520D01*
X-18476155Y41002397D01*
X-18617667Y41024767D01*
X-18759265Y41043601D01*
X-18901071Y41058873D01*
X-19043210Y41070554D01*
X-19185805Y41078619D01*
X-19328979Y41083039D01*
X-19472855Y41083787D01*
X-19617558Y41080836D01*
X-19763210Y41074158D01*
X-19909934Y41063726D01*
X-20057855Y41049512D01*
X-20072692Y40910664D01*
X-20083212Y40776300D01*
X-20089211Y40645950D01*
X-20090481Y40519144D01*
X-20086819Y40395412D01*
X-20078019Y40274284D01*
X-20063876Y40155289D01*
X-20044183Y40037958D01*
X-20018737Y39921819D01*
X-19987331Y39806404D01*
X-19949761Y39691241D01*
X-19905820Y39575861D01*
X-19855304Y39459793D01*
X-19798007Y39342568D01*
X-19733724Y39223714D01*
X-19662250Y39102761D01*
X-19743296Y39036111D01*
X-19819910Y38969364D01*
X-19892281Y38902211D01*
X-19960598Y38834342D01*
X-20025049Y38765450D01*
X-20085823Y38695224D01*
X-20143108Y38623356D01*
X-20197092Y38549537D01*
X-20247965Y38473457D01*
X-20295915Y38394808D01*
X-20341130Y38313281D01*
X-20383799Y38228566D01*
X-20424110Y38140354D01*
X-20462252Y38048337D01*
X-20498413Y37952205D01*
X-20532783Y37851650D01*
X-20467976Y37893165D01*
X-20401257Y37931630D01*
X-20332818Y37967285D01*
X-20262849Y38000374D01*
X-20191541Y38031135D01*
X-20119086Y38059812D01*
X-20045673Y38086645D01*
X-19971494Y38111875D01*
X-19821601Y38158493D01*
X-19670932Y38201598D01*
X-19373377Y38284986D01*
X-19515859Y38115118D01*
X-19650222Y37949128D01*
X-19776062Y37785828D01*
X-19892977Y37624031D01*
X-20000564Y37462546D01*
X-20098420Y37300185D01*
X-20186143Y37135759D01*
X-20263330Y36968081D01*
X-20329578Y36795961D01*
X-20384485Y36618210D01*
X-20407559Y36526851D01*
X-20427647Y36433639D01*
X-20444698Y36338426D01*
X-20458662Y36241061D01*
X-20469488Y36141398D01*
X-20477127Y36039287D01*
X-20481527Y35934579D01*
X-20482639Y35827127D01*
X-20480412Y35716781D01*
X-20474796Y35603393D01*
X-20453195Y35366896D01*
X-20396554Y35458745D01*
X-20337002Y35547422D01*
X-20274747Y35633196D01*
X-20209998Y35716331D01*
X-20142961Y35797095D01*
X-20073846Y35875756D01*
X-20002861Y35952578D01*
X-19930214Y36027830D01*
X-19780764Y36174688D01*
X-19627162Y36318464D01*
X-19314163Y36605302D01*
X-19420767Y36270606D01*
X-19468721Y36110056D01*
X-19512018Y35952972D01*
X-19549840Y35798554D01*
X-19581368Y35646003D01*
X-19605785Y35494518D01*
X-19622271Y35343301D01*
X-19630009Y35191550D01*
X-19628180Y35038468D01*
X-19615965Y34883253D01*
X-19592547Y34725106D01*
X-19557106Y34563228D01*
X-19508825Y34396819D01*
X-19446885Y34225078D01*
X-19370467Y34047207D01*
X-19363442Y34074770D01*
X-19359841Y34088485D01*
X-19356180Y34102134D01*
X-19343980Y34155502D01*
X-19330645Y34207897D01*
X-19316132Y34259473D01*
X-19300397Y34310386D01*
X-19283396Y34360789D01*
X-19265085Y34410839D01*
X-19245421Y34460688D01*
X-19224358Y34510491D01*
X-19201854Y34560404D01*
X-19177864Y34610581D01*
X-19152344Y34661176D01*
X-19125251Y34712344D01*
X-19066168Y34817016D01*
X-19000262Y34925836D01*
X-18901677Y34667663D01*
X-18794179Y34425953D01*
X-18677414Y34200122D01*
X-18551025Y33989582D01*
X-18414657Y33793747D01*
X-18267954Y33612030D01*
X-18190616Y33526283D01*
X-18110561Y33443845D01*
X-17942121Y33288606D01*
X-17762278Y33145726D01*
X-17570679Y33014618D01*
X-17366965Y32894696D01*
X-17150782Y32785374D01*
X-16921775Y32686065D01*
X-16679586Y32596183D01*
X-16423862Y32515140D01*
X-16154245Y32442352D01*
X-16357162Y32476361D01*
X-16562319Y32519293D01*
X-16768477Y32571299D01*
X-16974397Y32632526D01*
X-17178841Y32703123D01*
X-17380569Y32783240D01*
X-17578342Y32873026D01*
X-17770921Y32972629D01*
X-17957069Y33082199D01*
X-18135544Y33201884D01*
X-18305110Y33331834D01*
X-18464526Y33472197D01*
X-18612554Y33623123D01*
X-18747955Y33784760D01*
X-18869490Y33957258D01*
X-18924671Y34047626D01*
X-18975921Y34140765D01*
X-18998528Y34068436D01*
X-19017878Y33997531D01*
X-19034223Y33927825D01*
X-19047811Y33859093D01*
X-19058892Y33791113D01*
X-19067717Y33723660D01*
X-19074536Y33656509D01*
X-19079597Y33589438D01*
X-19085449Y33454636D01*
X-19087273Y33317461D01*
X-19086832Y33028827D01*
X-19199680Y33172782D01*
X-19305657Y33313111D01*
X-19404592Y33450808D01*
X-19496311Y33586867D01*
X-19580643Y33722281D01*
X-19657414Y33858044D01*
X-19726451Y33995150D01*
X-19787582Y34134593D01*
X-19840634Y34277367D01*
X-19885434Y34424465D01*
X-19921810Y34576882D01*
X-19949590Y34735610D01*
X-19968599Y34901645D01*
X-19978666Y35075979D01*
X-19979618Y35259607D01*
X-19971282Y35453522D01*
X-19985309Y35434965D01*
X-19999202Y35416281D01*
X-20012946Y35397458D01*
X-20026526Y35378485D01*
X-20071583Y35312655D01*
X-20114046Y35246002D01*
X-20154130Y35178570D01*
X-20192047Y35110399D01*
X-20228011Y35041534D01*
X-20262236Y34972015D01*
X-20326319Y34831186D01*
X-20386005Y34688252D01*
X-20443000Y34543550D01*
X-20555747Y34250194D01*
X-20666261Y34685527D01*
X-20712765Y34896368D01*
X-20752368Y35103456D01*
X-20784273Y35307390D01*
X-20800821Y35449742D01*
X-20814121Y35418090D01*
X-20899385Y35198860D01*
X-20978368Y34978248D01*
X-21051071Y34756255D01*
X-21117493Y34532880D01*
X-21177635Y34308121D01*
X-21231496Y34081980D01*
X-21265710Y33921852D01*
X-21295607Y33766866D01*
X-21321398Y33616184D01*
X-21343294Y33468971D01*
X-21361505Y33324392D01*
X-21376244Y33181610D01*
X-21387720Y33039790D01*
X-21396145Y32898095D01*
X-21404686Y32611740D01*
X-21670243Y32611740D01*
X-21666219Y32826282D01*
X-21652497Y33077410D01*
X-21628702Y33330549D01*
X-21593659Y33593964D01*
X-21546190Y33875922D01*
X-21658987Y33807617D01*
X-21769719Y33734231D01*
X-21878163Y33656044D01*
X-21984094Y33573332D01*
X-22087288Y33486373D01*
X-22187522Y33395446D01*
X-22284572Y33300827D01*
X-22378212Y33202796D01*
X-22468220Y33101629D01*
X-22554372Y32997605D01*
X-22636443Y32891001D01*
X-22714209Y32782095D01*
X-22787446Y32671165D01*
X-22855931Y32558488D01*
X-22919438Y32444344D01*
X-22977746Y32329008D01*
X-22911909Y32375968D01*
X-22834602Y32426446D01*
X-22748845Y32478073D01*
X-22703741Y32503576D01*
X-22657659Y32528478D01*
X-22610974Y32552481D01*
X-22564064Y32575291D01*
X-22517308Y32596610D01*
X-22471082Y32616142D01*
X-22425764Y32633591D01*
X-22381732Y32648662D01*
X-22339363Y32661056D01*
X-22299035Y32670479D01*
X-22352852Y32633769D01*
X-22419729Y32579901D01*
X-22497703Y32510431D01*
X-22584814Y32426912D01*
X-22679098Y32330900D01*
X-22778595Y32223950D01*
X-22881343Y32107617D01*
X-22985378Y31983454D01*
X-23088740Y31853019D01*
X-23189467Y31717864D01*
X-23285597Y31579546D01*
X-23375167Y31439618D01*
X-23456217Y31299636D01*
X-23492933Y31230111D01*
X-23526784Y31161155D01*
X-23557523Y31092963D01*
X-23584905Y31025730D01*
X-23608686Y30959649D01*
X-23628620Y30894915D01*
X-23589758Y30932452D01*
X-23546000Y30972501D01*
X-23497740Y31014559D01*
X-23445370Y31058125D01*
X-23389281Y31102697D01*
X-23329867Y31147774D01*
X-23267518Y31192854D01*
X-23202628Y31237435D01*
X-23135589Y31281016D01*
X-23066792Y31323096D01*
X-22996631Y31363171D01*
X-22925497Y31400742D01*
X-22853782Y31435306D01*
X-22781879Y31466362D01*
X-22710181Y31493408D01*
X-22639078Y31515942D01*
X-22759747Y31431234D01*
X-22892483Y31323675D01*
X-23034529Y31195497D01*
X-23183126Y31048931D01*
X-23335514Y30886208D01*
X-23488935Y30709561D01*
X-23640630Y30521221D01*
X-23787840Y30323420D01*
X-23927807Y30118388D01*
X-24057771Y29908358D01*
X-24174974Y29695561D01*
X-24227928Y29588823D01*
X-24276657Y29482229D01*
X-24320816Y29376060D01*
X-24360061Y29270593D01*
X-24394046Y29166109D01*
X-24422427Y29062886D01*
X-24444859Y28961202D01*
X-24460997Y28861338D01*
X-24470496Y28763571D01*
X-24473011Y28668180D01*
X-24789783Y28668180D01*
X-24778640Y28819873D01*
X-24756092Y28994799D01*
G37*
G36*
X-12683231Y35585906D02*
G01*
X-12479686Y35569161D01*
X-12277593Y35541083D01*
X-12078069Y35501741D01*
X-11882232Y35451207D01*
X-11691200Y35389552D01*
X-11506090Y35316848D01*
X-11328021Y35233164D01*
X-11158110Y35138573D01*
X-10997476Y35033145D01*
X-10956847Y35001723D01*
X-10993986Y35028623D01*
X-11153052Y35128312D01*
X-11322948Y35216168D01*
X-11502188Y35292340D01*
X-11689284Y35356981D01*
X-11882750Y35410239D01*
X-12081099Y35452264D01*
X-12282846Y35483207D01*
X-12486503Y35503218D01*
X-12690584Y35512447D01*
X-12893603Y35511045D01*
X-13094072Y35499160D01*
X-13290507Y35476945D01*
X-13405976Y35457350D01*
X-13402471Y35476127D01*
X-13398716Y35499936D01*
X-13395681Y35523443D01*
X-13393279Y35547037D01*
X-13392877Y35552416D01*
X-13291393Y35567423D01*
X-13090202Y35585107D01*
X-12887108Y35591245D01*
X-12683231Y35585906D01*
G37*
G36*
X-20673514Y32819788D02*
G01*
X-20638540Y32712460D01*
X-20588207Y32595011D01*
X-20524321Y32469635D01*
X-20448689Y32338531D01*
X-20363118Y32203893D01*
X-20269414Y32067920D01*
X-20169385Y31932807D01*
X-20064837Y31800752D01*
X-19957577Y31673950D01*
X-19849411Y31554599D01*
X-19742148Y31444894D01*
X-19637592Y31347033D01*
X-19537552Y31263213D01*
X-19443834Y31195629D01*
X-19358245Y31146479D01*
X-19351120Y31257641D01*
X-19341705Y31368541D01*
X-19329547Y31478733D01*
X-19314192Y31587771D01*
X-19295185Y31695209D01*
X-19272074Y31800601D01*
X-19258837Y31852391D01*
X-19244403Y31903502D01*
X-19228716Y31953878D01*
X-19211719Y32003465D01*
X-18830205Y31585794D01*
X-18629301Y31374142D01*
X-18526208Y31269594D01*
X-18421316Y31166654D01*
X-18314595Y31065888D01*
X-18206014Y30967863D01*
X-18095545Y30873145D01*
X-17983158Y30782300D01*
X-17868823Y30695896D01*
X-17752511Y30614498D01*
X-17634191Y30538674D01*
X-17513835Y30468988D01*
X-17533165Y30575846D01*
X-17548044Y30672887D01*
X-17558872Y30763247D01*
X-17566050Y30850061D01*
X-17569979Y30936467D01*
X-17571059Y31025599D01*
X-17569691Y31120593D01*
X-17566275Y31224587D01*
X-17508217Y31131564D01*
X-17440706Y31032056D01*
X-17364341Y30927279D01*
X-17279720Y30818444D01*
X-17187443Y30706767D01*
X-17088109Y30593462D01*
X-16982317Y30479741D01*
X-16870665Y30366820D01*
X-16753753Y30255911D01*
X-16632179Y30148230D01*
X-16506542Y30044989D01*
X-16377442Y29947402D01*
X-16245478Y29856684D01*
X-16111247Y29774048D01*
X-15975350Y29700709D01*
X-15906964Y29667905D01*
X-15838386Y29637880D01*
X-15978968Y29688027D01*
X-16108205Y29736562D01*
X-16226940Y29783799D01*
X-16336016Y29830052D01*
X-16436277Y29875636D01*
X-16528565Y29920864D01*
X-16613726Y29966051D01*
X-16692601Y30011510D01*
X-16766035Y30057555D01*
X-16834871Y30104502D01*
X-16899952Y30152663D01*
X-16962121Y30202354D01*
X-17022223Y30253887D01*
X-17081101Y30307577D01*
X-17198557Y30422686D01*
X-17187810Y30387812D01*
X-17176964Y30354797D01*
X-17165998Y30323390D01*
X-17154888Y30293338D01*
X-17132147Y30236292D01*
X-17108560Y30181645D01*
X-17058123Y30071491D01*
X-17030912Y30011953D01*
X-17002131Y29946756D01*
X-17171848Y30011841D01*
X-17330697Y30078060D01*
X-17479805Y30145896D01*
X-17620300Y30215834D01*
X-17753311Y30288359D01*
X-17879966Y30363955D01*
X-18001392Y30443106D01*
X-18118718Y30526297D01*
X-18233072Y30614013D01*
X-18345582Y30706737D01*
X-18457375Y30804955D01*
X-18569581Y30909151D01*
X-18683326Y31019808D01*
X-18799740Y31137413D01*
X-19045084Y31395399D01*
X-19052691Y31333842D01*
X-19058840Y31274590D01*
X-19063610Y31217328D01*
X-19067085Y31161742D01*
X-19070469Y31054335D01*
X-19069643Y30949848D01*
X-19065258Y30845760D01*
X-19057965Y30739551D01*
X-19037253Y30510686D01*
X-19192743Y30631050D01*
X-19342528Y30751045D01*
X-19486342Y30871605D01*
X-19623919Y30993664D01*
X-19754991Y31118153D01*
X-19879293Y31246005D01*
X-19996558Y31378155D01*
X-20106519Y31515534D01*
X-20208911Y31659076D01*
X-20303467Y31809714D01*
X-20389920Y31968380D01*
X-20430025Y32051016D01*
X-20468004Y32136008D01*
X-20503824Y32223474D01*
X-20537452Y32313531D01*
X-20568855Y32406294D01*
X-20597999Y32501881D01*
X-20624851Y32600408D01*
X-20649378Y32701991D01*
X-20671545Y32806749D01*
X-20675673Y32829301D01*
X-20673514Y32819788D01*
G37*
G36*
X-15471051Y40665690D02*
G01*
X-15448944Y40658665D01*
X-15428256Y40650963D01*
X-15408977Y40642620D01*
X-15391097Y40633665D01*
X-15374606Y40624134D01*
X-15359494Y40614057D01*
X-15345751Y40603467D01*
X-15333368Y40592397D01*
X-15322334Y40580880D01*
X-15312638Y40568948D01*
X-15304272Y40556634D01*
X-15297226Y40543970D01*
X-15291488Y40530988D01*
X-15287050Y40517722D01*
X-15283901Y40504203D01*
X-15282031Y40490465D01*
X-15281431Y40476540D01*
X-15282090Y40462460D01*
X-15283998Y40448258D01*
X-15287145Y40433966D01*
X-15291523Y40419618D01*
X-15297119Y40405245D01*
X-15303925Y40390881D01*
X-15311931Y40376557D01*
X-15321125Y40362306D01*
X-15331500Y40348161D01*
X-15343044Y40334155D01*
X-15355747Y40320319D01*
X-15369600Y40306687D01*
X-15384593Y40293291D01*
X-15400715Y40280163D01*
X-15418477Y40268204D01*
X-15435942Y40260040D01*
X-15453042Y40255447D01*
X-15469713Y40254201D01*
X-15485889Y40256081D01*
X-15501503Y40260861D01*
X-15516490Y40268320D01*
X-15530784Y40278233D01*
X-15544319Y40290378D01*
X-15557029Y40304530D01*
X-15568848Y40320468D01*
X-15579710Y40337967D01*
X-15589550Y40356805D01*
X-15598301Y40376757D01*
X-15605898Y40397601D01*
X-15612275Y40419114D01*
X-15617366Y40441071D01*
X-15621104Y40463251D01*
X-15623425Y40485429D01*
X-15624262Y40507382D01*
X-15623549Y40528887D01*
X-15621221Y40549720D01*
X-15617211Y40569659D01*
X-15611454Y40588481D01*
X-15603884Y40605960D01*
X-15594435Y40621876D01*
X-15583040Y40636003D01*
X-15569635Y40648120D01*
X-15554153Y40658002D01*
X-15536528Y40665426D01*
X-15516694Y40670169D01*
X-15494587Y40672008D01*
X-15471051Y40665690D01*
G37*
G36*
X-10365101Y29778116D02*
G01*
X-10382946Y29693776D01*
X-10402691Y29611992D01*
X-10424307Y29532670D01*
X-10447769Y29455714D01*
X-10473050Y29381033D01*
X-10500123Y29308531D01*
X-10528960Y29238114D01*
X-10559535Y29169690D01*
X-10591822Y29103163D01*
X-10661422Y28975428D01*
X-10737545Y28854158D01*
X-10819977Y28738601D01*
X-10908502Y28628007D01*
X-11002907Y28521623D01*
X-11102976Y28418699D01*
X-11208495Y28318483D01*
X-11319249Y28220224D01*
X-11435024Y28123171D01*
X-11555605Y28026573D01*
X-11680777Y27929677D01*
X-11671021Y28078106D01*
X-11667267Y28162649D01*
X-11664752Y28252520D01*
X-11663848Y28346548D01*
X-11664922Y28443564D01*
X-11668344Y28542399D01*
X-11674482Y28641882D01*
X-11762990Y28542042D01*
X-11850686Y28446720D01*
X-11938152Y28355718D01*
X-12025970Y28268839D01*
X-12114723Y28185883D01*
X-12204992Y28106653D01*
X-12297359Y28030950D01*
X-12392407Y27958577D01*
X-12490717Y27889334D01*
X-12592872Y27823024D01*
X-12699453Y27759449D01*
X-12811043Y27698410D01*
X-12928224Y27639709D01*
X-13051577Y27583148D01*
X-13181686Y27528529D01*
X-13319131Y27475653D01*
X-13295977Y27528140D01*
X-13274081Y27576071D01*
X-13233486Y27664757D01*
X-13214495Y27708754D01*
X-13196184Y27754682D01*
X-13187237Y27778878D01*
X-13178405Y27804164D01*
X-13169671Y27830744D01*
X-13161015Y27858820D01*
X-13255568Y27766158D01*
X-13302968Y27722936D01*
X-13351354Y27681450D01*
X-13401407Y27641447D01*
X-13453804Y27602674D01*
X-13509225Y27564879D01*
X-13568348Y27527808D01*
X-13631852Y27491209D01*
X-13700416Y27454829D01*
X-13774719Y27418416D01*
X-13855440Y27381716D01*
X-13943256Y27344477D01*
X-14038848Y27306446D01*
X-14142894Y27267370D01*
X-14256060Y27227001D01*
X-14200858Y27251165D01*
X-14145801Y27277571D01*
X-14036391Y27336609D01*
X-13928324Y27403133D01*
X-13822082Y27476165D01*
X-13718146Y27554728D01*
X-13616999Y27637845D01*
X-13519124Y27724537D01*
X-13425001Y27813828D01*
X-13335114Y27904740D01*
X-13249945Y27996296D01*
X-13169975Y28087517D01*
X-13095687Y28177427D01*
X-13027563Y28265049D01*
X-12966086Y28349403D01*
X-12911736Y28429514D01*
X-12864998Y28504404D01*
X-12862243Y28420680D01*
X-12861140Y28344196D01*
X-12862011Y28272430D01*
X-12865176Y28202859D01*
X-12870959Y28132961D01*
X-12879680Y28060212D01*
X-12891662Y27982091D01*
X-12907226Y27896075D01*
X-12810333Y27952177D01*
X-12715080Y28013222D01*
X-12621442Y28078753D01*
X-12529395Y28148315D01*
X-12438916Y28221451D01*
X-12349980Y28297706D01*
X-12262565Y28376622D01*
X-12176645Y28457745D01*
X-12092198Y28540618D01*
X-12009199Y28624785D01*
X-11847450Y28795176D01*
X-11540282Y29131414D01*
X-11521954Y29093656D01*
X-11505211Y29054703D01*
X-11490025Y29014660D01*
X-11476372Y28973629D01*
X-11464224Y28931711D01*
X-11453554Y28889011D01*
X-11444337Y28845630D01*
X-11436547Y28801670D01*
X-11430155Y28757235D01*
X-11425137Y28712427D01*
X-11421466Y28667348D01*
X-11419115Y28622102D01*
X-11418059Y28576790D01*
X-11418269Y28531515D01*
X-11419721Y28486380D01*
X-11422387Y28441487D01*
X-11353483Y28481066D01*
X-11278034Y28535483D01*
X-11197494Y28602969D01*
X-11113320Y28681756D01*
X-11026964Y28770077D01*
X-10939883Y28866162D01*
X-10853531Y28968244D01*
X-10769362Y29074554D01*
X-10688831Y29183326D01*
X-10613393Y29292790D01*
X-10544503Y29401178D01*
X-10483615Y29506723D01*
X-10432184Y29607656D01*
X-10391665Y29702209D01*
X-10363513Y29788615D01*
X-10361789Y29796209D01*
X-10365101Y29778116D01*
G37*
G36*
X-15819933Y39920036D02*
G01*
X-15797826Y39913006D01*
X-15777137Y39905302D01*
X-15757858Y39896955D01*
X-15739978Y39887999D01*
X-15723487Y39878465D01*
X-15708375Y39868386D01*
X-15694632Y39857796D01*
X-15682248Y39846726D01*
X-15671213Y39835208D01*
X-15661517Y39823276D01*
X-15653150Y39810962D01*
X-15646102Y39798298D01*
X-15640364Y39785318D01*
X-15635924Y39772052D01*
X-15632774Y39758535D01*
X-15630903Y39744798D01*
X-15630301Y39730874D01*
X-15630958Y39716795D01*
X-15632865Y39702595D01*
X-15636010Y39688305D01*
X-15640385Y39673958D01*
X-15645979Y39659587D01*
X-15652782Y39645224D01*
X-15660784Y39630902D01*
X-15669976Y39616652D01*
X-15680347Y39602508D01*
X-15691887Y39588503D01*
X-15704586Y39574668D01*
X-15718435Y39561036D01*
X-15733423Y39547640D01*
X-15749540Y39534513D01*
X-15767307Y39522554D01*
X-15784776Y39514389D01*
X-15801880Y39509795D01*
X-15818554Y39508549D01*
X-15834733Y39510427D01*
X-15850349Y39515206D01*
X-15865338Y39522663D01*
X-15879633Y39532575D01*
X-15893169Y39544718D01*
X-15905880Y39558869D01*
X-15917700Y39574805D01*
X-15928562Y39592303D01*
X-15938402Y39611139D01*
X-15947154Y39631089D01*
X-15954751Y39651932D01*
X-15961128Y39673443D01*
X-15966219Y39695399D01*
X-15969957Y39717578D01*
X-15972278Y39739755D01*
X-15973116Y39761707D01*
X-15972403Y39783212D01*
X-15970076Y39804046D01*
X-15966067Y39823985D01*
X-15960311Y39842807D01*
X-15952742Y39860288D01*
X-15943295Y39876205D01*
X-15931903Y39890335D01*
X-15918500Y39902454D01*
X-15903022Y39912339D01*
X-15885401Y39919767D01*
X-15865572Y39924514D01*
X-15843469Y39926358D01*
X-15819933Y39920036D01*
G37*
G36*
X-12567394Y36145914D02*
G01*
X-12300164Y36129256D01*
X-12033070Y36098918D01*
X-11768621Y36054999D01*
X-11509323Y35997597D01*
X-11257682Y35926812D01*
X-11016206Y35842741D01*
X-10787400Y35745484D01*
X-10573773Y35635139D01*
X-10377829Y35511805D01*
X-10311735Y35460576D01*
X-10360433Y35494947D01*
X-10545303Y35603707D01*
X-10753256Y35701588D01*
X-10980861Y35788320D01*
X-11224687Y35863630D01*
X-11481304Y35927247D01*
X-11747281Y35978898D01*
X-12019187Y36018313D01*
X-12293592Y36045220D01*
X-12567064Y36059346D01*
X-12836173Y36060421D01*
X-13097489Y36048172D01*
X-13347580Y36022329D01*
X-13472283Y36001295D01*
X-13486241Y36028948D01*
X-13502416Y36057670D01*
X-13519383Y36084743D01*
X-13344845Y36112822D01*
X-13092242Y36137796D01*
X-12832256Y36148793D01*
X-12567394Y36145914D01*
G37*
G36*
X-10277726Y35436573D02*
G01*
X-10202076Y35375581D01*
X-10311735Y35460576D01*
X-10277726Y35436573D01*
G37*
G36*
X-11236086Y35826103D02*
G01*
X-11164774Y35805791D01*
X-11094585Y35784489D01*
X-11025600Y35762198D01*
X-10957904Y35738923D01*
X-10891577Y35714667D01*
X-10826703Y35689432D01*
X-10763364Y35663223D01*
X-10701643Y35636042D01*
X-10641623Y35607893D01*
X-10583387Y35578778D01*
X-10527016Y35548702D01*
X-10472593Y35517667D01*
X-10420202Y35485677D01*
X-10369925Y35452735D01*
X-10364493Y35416884D01*
X-10360717Y35379758D01*
X-10358599Y35341355D01*
X-10358138Y35301675D01*
X-10359333Y35260720D01*
X-10362186Y35218488D01*
X-10366695Y35174980D01*
X-10372861Y35130195D01*
X-10380684Y35084135D01*
X-10390165Y35036798D01*
X-10401302Y34988185D01*
X-10414096Y34938296D01*
X-10428547Y34887131D01*
X-10444656Y34834690D01*
X-10462421Y34780972D01*
X-10481843Y34725979D01*
X-10617749Y34914069D01*
X-10758670Y35102269D01*
X-10904224Y35289992D01*
X-10978619Y35383493D01*
X-11054030Y35476655D01*
X-11020455Y35460300D01*
X-10987249Y35443374D01*
X-10954429Y35425868D01*
X-10922012Y35407771D01*
X-10890015Y35389074D01*
X-10858455Y35369767D01*
X-10827348Y35349840D01*
X-10796711Y35329282D01*
X-10766562Y35308085D01*
X-10736917Y35286237D01*
X-10707794Y35263730D01*
X-10679208Y35240554D01*
X-10651178Y35216697D01*
X-10623719Y35192151D01*
X-10596849Y35166906D01*
X-10570585Y35140951D01*
X-10601733Y35174309D01*
X-10633512Y35206804D01*
X-10665906Y35238444D01*
X-10698901Y35269239D01*
X-10732481Y35299198D01*
X-10766631Y35328331D01*
X-10801335Y35356646D01*
X-10836578Y35384154D01*
X-10872346Y35410862D01*
X-10908622Y35436782D01*
X-10945391Y35461921D01*
X-10982639Y35486289D01*
X-11020350Y35509896D01*
X-11058508Y35532751D01*
X-11097099Y35554863D01*
X-11136107Y35576242D01*
X-11196737Y35648667D01*
X-11257894Y35720744D01*
X-11319566Y35792445D01*
X-11381745Y35863739D01*
X-11236086Y35826103D01*
G37*
G36*
X-13119571Y38717599D02*
G01*
X-13097416Y38715914D01*
X-13075583Y38713140D01*
X-13054099Y38709303D01*
X-13032992Y38704432D01*
X-13012289Y38698553D01*
X-12992017Y38691694D01*
X-12972205Y38683883D01*
X-12952879Y38675146D01*
X-12934067Y38665512D01*
X-12915796Y38655007D01*
X-12898094Y38643659D01*
X-12880988Y38631495D01*
X-12864505Y38618544D01*
X-12848674Y38604831D01*
X-12833521Y38590385D01*
X-12819074Y38575233D01*
X-12805360Y38559403D01*
X-12792407Y38542921D01*
X-12780242Y38525815D01*
X-12768892Y38508113D01*
X-12758386Y38489842D01*
X-12748750Y38471030D01*
X-12740012Y38451703D01*
X-12732199Y38431889D01*
X-12725339Y38411617D01*
X-12719459Y38390912D01*
X-12714586Y38369802D01*
X-12710749Y38348315D01*
X-12707974Y38326479D01*
X-12706289Y38304320D01*
X-12705721Y38281866D01*
X-12706289Y38259417D01*
X-12707974Y38237262D01*
X-12710749Y38215430D01*
X-12714586Y38193946D01*
X-12719459Y38172839D01*
X-12725339Y38152136D01*
X-12732199Y38131865D01*
X-12740012Y38112052D01*
X-12748750Y38092726D01*
X-12758386Y38073914D01*
X-12768893Y38055643D01*
X-12780242Y38037941D01*
X-12792407Y38020835D01*
X-12805361Y38004353D01*
X-12819075Y37988521D01*
X-12833522Y37973368D01*
X-12848675Y37958921D01*
X-12864506Y37945207D01*
X-12880989Y37932254D01*
X-12898095Y37920089D01*
X-12915797Y37908739D01*
X-12934068Y37898233D01*
X-12952880Y37888596D01*
X-12972206Y37879858D01*
X-12992018Y37872045D01*
X-13012290Y37865185D01*
X-13024262Y37861785D01*
X-13056654Y37857900D01*
X-13106791Y37855156D01*
X-13157863Y37855432D01*
X-13209772Y37858607D01*
X-13262421Y37864556D01*
X-13276704Y37866862D01*
X-13292022Y37872046D01*
X-13311834Y37879859D01*
X-13331160Y37888597D01*
X-13349972Y37898233D01*
X-13368243Y37908740D01*
X-13385945Y37920089D01*
X-13403051Y37932254D01*
X-13419534Y37945208D01*
X-13435365Y37958922D01*
X-13450519Y37973369D01*
X-13464966Y37988522D01*
X-13478680Y38004354D01*
X-13491633Y38020836D01*
X-13503798Y38037942D01*
X-13515148Y38055644D01*
X-13525654Y38073915D01*
X-13535290Y38092727D01*
X-13544028Y38112053D01*
X-13551841Y38131866D01*
X-13558701Y38152137D01*
X-13564582Y38172840D01*
X-13569454Y38193947D01*
X-13573291Y38215430D01*
X-13576066Y38237263D01*
X-13577751Y38259417D01*
X-13578319Y38281866D01*
X-13577751Y38304320D01*
X-13576066Y38326479D01*
X-13573291Y38348315D01*
X-13569454Y38369802D01*
X-13564581Y38390912D01*
X-13558701Y38411617D01*
X-13551841Y38431889D01*
X-13544028Y38451703D01*
X-13535290Y38471030D01*
X-13525654Y38489842D01*
X-13515147Y38508113D01*
X-13503797Y38525815D01*
X-13491632Y38542921D01*
X-13478679Y38559403D01*
X-13464965Y38575233D01*
X-13450518Y38590385D01*
X-13435365Y38604831D01*
X-13419533Y38618544D01*
X-13403051Y38631495D01*
X-13385944Y38643659D01*
X-13368242Y38655007D01*
X-13349971Y38665512D01*
X-13331159Y38675146D01*
X-13311833Y38683883D01*
X-13292021Y38691694D01*
X-13271750Y38698553D01*
X-13251047Y38704432D01*
X-13229940Y38709303D01*
X-13208456Y38713140D01*
X-13186624Y38715914D01*
X-13164469Y38717599D01*
X-13142020Y38718167D01*
X-13119571Y38717599D01*
G37*
G36*
X-23086727Y23230253D02*
G01*
X-23014625Y23146156D01*
X-22993519Y23124917D01*
X-22942392Y22907949D01*
X-22929238Y22861466D01*
X-22953721Y22890837D01*
X-23073144Y23050156D01*
X-23122258Y23123541D01*
X-23148560Y23312327D01*
X-23086727Y23230253D01*
G37*
G36*
X-18321534Y18757033D02*
G01*
X-17743922Y18734242D01*
X-17493449Y18736117D01*
X-17249118Y18744016D01*
X-17010388Y18757570D01*
X-17000313Y18758382D01*
X-17091440Y18749164D01*
X-17427479Y18729062D01*
X-17774345Y18723235D01*
X-17917320Y18725368D01*
X-18059506Y18730334D01*
X-18200849Y18738127D01*
X-18341293Y18748744D01*
X-18337932Y18758576D01*
X-18321534Y18757033D01*
G37*
G36*
X-12667891Y37425158D02*
G01*
X-12441814Y37299736D01*
X-12224450Y37171889D01*
X-12016284Y37042278D01*
X-11817796Y36911566D01*
X-11629470Y36780415D01*
X-11451788Y36649486D01*
X-11285233Y36519442D01*
X-11130287Y36390944D01*
X-10987433Y36264655D01*
X-10857152Y36141237D01*
X-10739929Y36021351D01*
X-10636245Y35905659D01*
X-10546583Y35794824D01*
X-10471425Y35689508D01*
X-10411254Y35590372D01*
X-10407074Y35580791D01*
X-10467809Y35619634D01*
X-10530287Y35657206D01*
X-10594435Y35693504D01*
X-10660182Y35728529D01*
X-10727455Y35762279D01*
X-10796182Y35794753D01*
X-10866290Y35825951D01*
X-10937708Y35855872D01*
X-11010361Y35884515D01*
X-11084179Y35911879D01*
X-11159089Y35937963D01*
X-11235017Y35962766D01*
X-11311893Y35986288D01*
X-11389644Y36008528D01*
X-11547478Y36049156D01*
X-11746513Y36262971D01*
X-11948735Y36470562D01*
X-12153443Y36670875D01*
X-12359934Y36862856D01*
X-12567507Y37045451D01*
X-12775459Y37217606D01*
X-12879358Y37299439D01*
X-12983089Y37378267D01*
X-13086563Y37453957D01*
X-13189694Y37526379D01*
X-13154695Y37525999D01*
X-13119427Y37526486D01*
X-13083892Y37527837D01*
X-13048088Y37530050D01*
X-13012017Y37533124D01*
X-12975678Y37537057D01*
X-12939072Y37541847D01*
X-12902200Y37547492D01*
X-12667891Y37425158D01*
G37*
G36*
X-14029183Y38261371D02*
G01*
X-13947386Y38404307D01*
X-13855606Y38534277D01*
X-13805774Y38593786D01*
X-13753208Y38649317D01*
X-13697829Y38700624D01*
X-13639558Y38747464D01*
X-13578314Y38789589D01*
X-13514020Y38826754D01*
X-13446595Y38858715D01*
X-13375960Y38885225D01*
X-13294000Y38908692D01*
X-13213119Y38925139D01*
X-13133371Y38934806D01*
X-13054811Y38937933D01*
X-12977495Y38934762D01*
X-12901478Y38925532D01*
X-12826815Y38910483D01*
X-12753560Y38889855D01*
X-12681770Y38863890D01*
X-12611500Y38832827D01*
X-12542803Y38796907D01*
X-12475736Y38756370D01*
X-12410354Y38711455D01*
X-12346711Y38662405D01*
X-12284863Y38609458D01*
X-12224865Y38552854D01*
X-12239870Y38482350D01*
X-12256635Y38412398D01*
X-12275503Y38343354D01*
X-12296816Y38275570D01*
X-12320918Y38209401D01*
X-12348148Y38145200D01*
X-12378851Y38083321D01*
X-12413367Y38024117D01*
X-12452039Y37967943D01*
X-12495210Y37915152D01*
X-12518589Y37890136D01*
X-12543220Y37866098D01*
X-12569148Y37843082D01*
X-12596414Y37821134D01*
X-12625061Y37800296D01*
X-12655131Y37780613D01*
X-12686669Y37762130D01*
X-12719716Y37744891D01*
X-12754315Y37728940D01*
X-12790510Y37714320D01*
X-12828342Y37701077D01*
X-12867854Y37689255D01*
X-12944620Y37675891D01*
X-13019301Y37666764D01*
X-13092108Y37661733D01*
X-13163248Y37660660D01*
X-13232929Y37663404D01*
X-13301360Y37669825D01*
X-13368750Y37679785D01*
X-13435306Y37693144D01*
X-13501236Y37709763D01*
X-13566750Y37729501D01*
X-13632056Y37752219D01*
X-13697362Y37777778D01*
X-13762876Y37806039D01*
X-13828807Y37836861D01*
X-13895362Y37870105D01*
X-13962752Y37905632D01*
X-13986045Y37855655D01*
X-14010006Y37792294D01*
X-14034366Y37716998D01*
X-14058856Y37631214D01*
X-14083207Y37536389D01*
X-14107151Y37433971D01*
X-14152743Y37212146D01*
X-14193480Y36977317D01*
X-14227212Y36741067D01*
X-14251791Y36514974D01*
X-14259976Y36409355D01*
X-14265066Y36310618D01*
X-14263904Y36304854D01*
X-14262879Y36299111D01*
X-14261987Y36293392D01*
X-14261228Y36287699D01*
X-14260597Y36282033D01*
X-14260093Y36276396D01*
X-14259712Y36270790D01*
X-14259453Y36265216D01*
X-14259294Y36255374D01*
X-14259505Y36245638D01*
X-14260083Y36236010D01*
X-14261022Y36226496D01*
X-14262319Y36217099D01*
X-14263968Y36207824D01*
X-14265965Y36198675D01*
X-14268305Y36189657D01*
X-14270984Y36180773D01*
X-14273996Y36172028D01*
X-14277338Y36163426D01*
X-14281005Y36154971D01*
X-14284992Y36146668D01*
X-14289294Y36138521D01*
X-14293907Y36130534D01*
X-14298826Y36122711D01*
X-14303773Y36115441D01*
X-14308987Y36108341D01*
X-14314465Y36101413D01*
X-14320201Y36094661D01*
X-14326191Y36088090D01*
X-14332431Y36081702D01*
X-14338917Y36075503D01*
X-14345644Y36069495D01*
X-14352608Y36063682D01*
X-14359804Y36058068D01*
X-14367229Y36052658D01*
X-14374877Y36047454D01*
X-14382745Y36042461D01*
X-14390828Y36037682D01*
X-14399122Y36033121D01*
X-14407622Y36028782D01*
X-14511120Y35978016D01*
X-14558708Y35953393D01*
X-14581743Y35940764D01*
X-14604379Y35927732D01*
X-14626696Y35914150D01*
X-14648775Y35899876D01*
X-14670696Y35884762D01*
X-14692539Y35868666D01*
X-14714384Y35851442D01*
X-14736312Y35832946D01*
X-14758404Y35813033D01*
X-14780739Y35791558D01*
X-14789370Y35782786D01*
X-14797315Y35774273D01*
X-14804600Y35765995D01*
X-14811252Y35757928D01*
X-14817299Y35750046D01*
X-14822766Y35742325D01*
X-14827682Y35734740D01*
X-14832074Y35727267D01*
X-14835968Y35719882D01*
X-14839392Y35712559D01*
X-14842373Y35705274D01*
X-14844937Y35698003D01*
X-14847112Y35690720D01*
X-14848926Y35683402D01*
X-14850404Y35676023D01*
X-14851575Y35668559D01*
X-14853101Y35653278D01*
X-14853720Y35637361D01*
X-14853650Y35620613D01*
X-14853107Y35602835D01*
X-14851468Y35563406D01*
X-14850805Y35541361D01*
X-14850536Y35517503D01*
X-14819771Y35503053D01*
X-14788551Y35489682D01*
X-14756958Y35477243D01*
X-14725068Y35465586D01*
X-14692957Y35454561D01*
X-14660701Y35444020D01*
X-14596061Y35423790D01*
X-14521279Y35400326D01*
X-14447260Y35375243D01*
X-14410646Y35361547D01*
X-14374351Y35346792D01*
X-14338422Y35330758D01*
X-14302899Y35313226D01*
X-14267827Y35293978D01*
X-14233250Y35272797D01*
X-14199210Y35249462D01*
X-14165750Y35223756D01*
X-14132915Y35195460D01*
X-14100747Y35164356D01*
X-14069290Y35130225D01*
X-14038587Y35092849D01*
X-14009919Y35096154D01*
X-13982292Y35100665D01*
X-13955696Y35106342D01*
X-13930124Y35113148D01*
X-13905568Y35121042D01*
X-13882019Y35129986D01*
X-13859470Y35139940D01*
X-13837912Y35150865D01*
X-13817338Y35162723D01*
X-13797740Y35175473D01*
X-13779108Y35189077D01*
X-13761436Y35203495D01*
X-13744716Y35218689D01*
X-13728938Y35234620D01*
X-13714096Y35251247D01*
X-13700181Y35268533D01*
X-13689878Y35282551D01*
X-13680099Y35296949D01*
X-13670843Y35311710D01*
X-13662104Y35326813D01*
X-13653881Y35342242D01*
X-13646168Y35357976D01*
X-13638963Y35373997D01*
X-13632263Y35390287D01*
X-13626064Y35406827D01*
X-13624460Y35411547D01*
X-13481419Y35444547D01*
X-13405976Y35457350D01*
X-13406893Y35452441D01*
X-13411987Y35428902D01*
X-13417758Y35405534D01*
X-13424211Y35382362D01*
X-13431350Y35359410D01*
X-13439181Y35336703D01*
X-13447709Y35314266D01*
X-13456938Y35292122D01*
X-13466873Y35270297D01*
X-13477519Y35248815D01*
X-13488882Y35227700D01*
X-13500965Y35206977D01*
X-13513774Y35186670D01*
X-13527313Y35166804D01*
X-13541588Y35147404D01*
X-13563738Y35119980D01*
X-13587410Y35093719D01*
X-13612619Y35068697D01*
X-13639377Y35044990D01*
X-13667696Y35022675D01*
X-13697590Y35001828D01*
X-13729072Y34982524D01*
X-13762153Y34964841D01*
X-13796847Y34948855D01*
X-13833167Y34934642D01*
X-13871125Y34922278D01*
X-13910735Y34911839D01*
X-13952009Y34903402D01*
X-13994959Y34897043D01*
X-14017068Y34894667D01*
X-14039600Y34892838D01*
X-14085943Y34890864D01*
X-14139760Y34889913D01*
X-14169922Y34934205D01*
X-14182119Y34951502D01*
X-14194586Y34968038D01*
X-14207314Y34983837D01*
X-14220295Y34998924D01*
X-14233523Y35013325D01*
X-14246988Y35027064D01*
X-14274599Y35052654D01*
X-14303067Y35075895D01*
X-14332329Y35096982D01*
X-14362320Y35116117D01*
X-14392979Y35133495D01*
X-14424242Y35149317D01*
X-14456045Y35163780D01*
X-14488326Y35177082D01*
X-14521022Y35189422D01*
X-14554070Y35200999D01*
X-14587406Y35212010D01*
X-14654691Y35233131D01*
X-14728311Y35256215D01*
X-14765246Y35268386D01*
X-14802243Y35281279D01*
X-14839287Y35295122D01*
X-14876363Y35310142D01*
X-14913455Y35326568D01*
X-14950548Y35344626D01*
X-14987639Y35326567D01*
X-15024726Y35310142D01*
X-15061796Y35295121D01*
X-15098834Y35281278D01*
X-15135828Y35268385D01*
X-15172763Y35256214D01*
X-15246406Y35233131D01*
X-15313675Y35212010D01*
X-15380051Y35189423D01*
X-15412745Y35177082D01*
X-15445026Y35163780D01*
X-15476829Y35149317D01*
X-15508091Y35133496D01*
X-15538750Y35116118D01*
X-15568741Y35096983D01*
X-15598001Y35075896D01*
X-15626468Y35052655D01*
X-15654076Y35027065D01*
X-15680764Y34998925D01*
X-15706467Y34968038D01*
X-15731122Y34934205D01*
X-15774514Y34870597D01*
X-15846744Y34896315D01*
X-15885275Y34911359D01*
X-15922336Y34928488D01*
X-15957911Y34947608D01*
X-15991984Y34968622D01*
X-16024539Y34991436D01*
X-16055562Y35015954D01*
X-16085037Y35042081D01*
X-16112948Y35069723D01*
X-16139280Y35098783D01*
X-16164016Y35129167D01*
X-16187142Y35160779D01*
X-16208642Y35193525D01*
X-16228500Y35227309D01*
X-16246700Y35262035D01*
X-16263228Y35297609D01*
X-16278068Y35333936D01*
X-16284289Y35350791D01*
X-16290153Y35367795D01*
X-16295657Y35384936D01*
X-16300799Y35402207D01*
X-16305578Y35419598D01*
X-16309992Y35437098D01*
X-16314039Y35454700D01*
X-16315501Y35461737D01*
X-16214208Y35444547D01*
X-16095831Y35417237D01*
X-16091330Y35405055D01*
X-16082147Y35382304D01*
X-16072108Y35359959D01*
X-16061220Y35338061D01*
X-16049489Y35316654D01*
X-16036925Y35295781D01*
X-16023533Y35275485D01*
X-16009322Y35255809D01*
X-15994299Y35236795D01*
X-15978472Y35218487D01*
X-15961848Y35200928D01*
X-15944435Y35184160D01*
X-15926241Y35168227D01*
X-15907272Y35153171D01*
X-15887536Y35139036D01*
X-15867041Y35125864D01*
X-15845794Y35113698D01*
X-15815753Y35148108D01*
X-15785028Y35179596D01*
X-15753658Y35208358D01*
X-15721682Y35234592D01*
X-15689140Y35258493D01*
X-15656071Y35280259D01*
X-15622513Y35300087D01*
X-15588507Y35318174D01*
X-15554090Y35334716D01*
X-15519303Y35349910D01*
X-15484184Y35363953D01*
X-15448773Y35377041D01*
X-15377229Y35401143D01*
X-15304986Y35423790D01*
X-15240371Y35444020D01*
X-15208119Y35454561D01*
X-15176009Y35465586D01*
X-15144120Y35477243D01*
X-15112530Y35489682D01*
X-15081319Y35503053D01*
X-15050565Y35517505D01*
X-14850541Y35517505D01*
X-14850539Y35517504D01*
X-14850537Y35517502D01*
X-14850537Y35517501D01*
X-14850536Y35517501D01*
X-14850536Y35517503D01*
X-14850539Y35517504D01*
X-14850540Y35517505D01*
X-14850541Y35517505D01*
X-15050565Y35517505D01*
X-15050294Y35541361D01*
X-15049626Y35563391D01*
X-15047964Y35602771D01*
X-15047403Y35620515D01*
X-15047311Y35637227D01*
X-15047904Y35653104D01*
X-15049400Y35668343D01*
X-15052014Y35683144D01*
X-15053809Y35690441D01*
X-15055964Y35697703D01*
X-15058507Y35704954D01*
X-15061466Y35712220D01*
X-15064866Y35719524D01*
X-15068736Y35726891D01*
X-15073101Y35734347D01*
X-15077991Y35741915D01*
X-15083430Y35749621D01*
X-15089447Y35757490D01*
X-15103322Y35773814D01*
X-15119832Y35791084D01*
X-15143147Y35813601D01*
X-15165909Y35834262D01*
X-15188238Y35853247D01*
X-15210258Y35870735D01*
X-15232091Y35886904D01*
X-15253861Y35901935D01*
X-15275689Y35916006D01*
X-15297698Y35929297D01*
X-15320011Y35941987D01*
X-15342750Y35954255D01*
X-15389999Y35978244D01*
X-15495010Y36029051D01*
X-15503362Y36033287D01*
X-15511527Y36037758D01*
X-15519500Y36042459D01*
X-15527277Y36047387D01*
X-15534854Y36052539D01*
X-15542225Y36057910D01*
X-15549387Y36063496D01*
X-15556334Y36069295D01*
X-15563063Y36075302D01*
X-15569568Y36081514D01*
X-15575845Y36087927D01*
X-15581889Y36094537D01*
X-15587696Y36101340D01*
X-15593262Y36108333D01*
X-15598581Y36115511D01*
X-15603649Y36122872D01*
X-15603754Y36122822D01*
X-15608749Y36130683D01*
X-15613431Y36138708D01*
X-15617796Y36146892D01*
X-15621840Y36155231D01*
X-15625557Y36163722D01*
X-15628943Y36172359D01*
X-15631993Y36181139D01*
X-15634702Y36190058D01*
X-15637067Y36199111D01*
X-15639081Y36208295D01*
X-15640740Y36217605D01*
X-15642039Y36227038D01*
X-15642975Y36236589D01*
X-15643541Y36246254D01*
X-15643659Y36252250D01*
X-15444654Y36252250D01*
X-15444206Y36245784D01*
X-15443016Y36239441D01*
X-15441123Y36233244D01*
X-15438570Y36227213D01*
X-15435395Y36221370D01*
X-15431639Y36215736D01*
X-15427342Y36210332D01*
X-15422546Y36205180D01*
X-15417289Y36200300D01*
X-15411613Y36195715D01*
X-15405558Y36191446D01*
X-15399164Y36187513D01*
X-15392471Y36183938D01*
X-15385520Y36180743D01*
X-15378352Y36177948D01*
X-15371005Y36175575D01*
X-15363522Y36173646D01*
X-15355942Y36172181D01*
X-15348305Y36171203D01*
X-15340653Y36170731D01*
X-15333024Y36170788D01*
X-15325460Y36171394D01*
X-15318001Y36172572D01*
X-15310687Y36174342D01*
X-15303558Y36176726D01*
X-15296656Y36179745D01*
X-15290020Y36183419D01*
X-15283690Y36187772D01*
X-15277707Y36192824D01*
X-15272111Y36198595D01*
X-15266943Y36205108D01*
X-15405211Y36311200D01*
X-15393683Y36325059D01*
X-15381507Y36337540D01*
X-15368746Y36348662D01*
X-15355463Y36358447D01*
X-15341722Y36366914D01*
X-15327586Y36374084D01*
X-15313119Y36379976D01*
X-15298385Y36384611D01*
X-15283446Y36388009D01*
X-15268367Y36390191D01*
X-15253211Y36391176D01*
X-15238041Y36390986D01*
X-15222921Y36389639D01*
X-15207915Y36387157D01*
X-15193086Y36383559D01*
X-15178497Y36378866D01*
X-15164212Y36373098D01*
X-15150294Y36366276D01*
X-15136808Y36358418D01*
X-15123816Y36349547D01*
X-15111382Y36339682D01*
X-15099570Y36328842D01*
X-15088443Y36317050D01*
X-15078065Y36304323D01*
X-15068498Y36290684D01*
X-15059808Y36276152D01*
X-15052056Y36260747D01*
X-15045307Y36244490D01*
X-15039625Y36227400D01*
X-15035072Y36209499D01*
X-15031712Y36190806D01*
X-15029609Y36171341D01*
X-15029177Y36164538D01*
X-15028894Y36157644D01*
X-15028774Y36143583D01*
X-15029249Y36129159D01*
X-15030316Y36114376D01*
X-15031977Y36099236D01*
X-15034229Y36083741D01*
X-15037073Y36067894D01*
X-15040508Y36051697D01*
X-15042020Y36045242D01*
X-15043618Y36038738D01*
X-15045303Y36032184D01*
X-15047079Y36025581D01*
X-15048946Y36018928D01*
X-15050906Y36012226D01*
X-15052962Y36005474D01*
X-15055115Y35998673D01*
X-15044657Y35990468D01*
X-15034476Y35982243D01*
X-15024570Y35973998D01*
X-15014938Y35965733D01*
X-15005579Y35957448D01*
X-14996491Y35949144D01*
X-14987673Y35940819D01*
X-14979124Y35932474D01*
X-14975379Y35928715D01*
X-14971684Y35924938D01*
X-14968038Y35921146D01*
X-14964442Y35917342D01*
X-14960895Y35913527D01*
X-14957397Y35909705D01*
X-14950551Y35902048D01*
X-14947093Y35905935D01*
X-14943584Y35909816D01*
X-14940023Y35913691D01*
X-14936409Y35917560D01*
X-14932740Y35921420D01*
X-14929015Y35925273D01*
X-14925233Y35929117D01*
X-14921393Y35932952D01*
X-14912905Y35941236D01*
X-14904150Y35949501D01*
X-14895126Y35957746D01*
X-14885834Y35965971D01*
X-14876274Y35974177D01*
X-14866447Y35982362D01*
X-14856351Y35990527D01*
X-14845988Y35998673D01*
X-14850175Y36012226D01*
X-14852135Y36018928D01*
X-14854005Y36025581D01*
X-14855786Y36032184D01*
X-14857478Y36038738D01*
X-14859080Y36045242D01*
X-14860593Y36051697D01*
X-14864011Y36067894D01*
X-14866843Y36083741D01*
X-14869088Y36099236D01*
X-14870746Y36114376D01*
X-14871817Y36129159D01*
X-14872298Y36143583D01*
X-14872190Y36157644D01*
X-14871493Y36171341D01*
X-14870534Y36181949D01*
X-14869250Y36192283D01*
X-14867650Y36202343D01*
X-14865743Y36212133D01*
X-14863537Y36221652D01*
X-14861042Y36230901D01*
X-14858265Y36239883D01*
X-14855216Y36248599D01*
X-14851903Y36257049D01*
X-14848336Y36265234D01*
X-14844522Y36273157D01*
X-14840471Y36280819D01*
X-14836192Y36288219D01*
X-14831693Y36295361D01*
X-14826983Y36302245D01*
X-14822070Y36308872D01*
X-14816521Y36315782D01*
X-14810774Y36322364D01*
X-14804839Y36328622D01*
X-14798726Y36334557D01*
X-14792444Y36340173D01*
X-14786002Y36345472D01*
X-14779411Y36350456D01*
X-14772679Y36355128D01*
X-14765816Y36359491D01*
X-14758832Y36363547D01*
X-14751737Y36367298D01*
X-14744539Y36370748D01*
X-14737248Y36373899D01*
X-14729874Y36376752D01*
X-14722426Y36379312D01*
X-14714914Y36381581D01*
X-14707519Y36383523D01*
X-14700085Y36385184D01*
X-14692621Y36386566D01*
X-14685136Y36387673D01*
X-14677639Y36388507D01*
X-14670140Y36389071D01*
X-14662647Y36389367D01*
X-14655170Y36389399D01*
X-14647718Y36389170D01*
X-14640299Y36388681D01*
X-14632924Y36387936D01*
X-14625601Y36386938D01*
X-14618340Y36385690D01*
X-14611149Y36384193D01*
X-14604038Y36382452D01*
X-14597015Y36380468D01*
X-14589684Y36378107D01*
X-14582443Y36375469D01*
X-14575300Y36372559D01*
X-14568266Y36369378D01*
X-14561351Y36365930D01*
X-14554563Y36362217D01*
X-14547914Y36358244D01*
X-14541412Y36354011D01*
X-14535068Y36349524D01*
X-14528892Y36344783D01*
X-14522892Y36339793D01*
X-14517079Y36334557D01*
X-14511463Y36329076D01*
X-14506054Y36323355D01*
X-14500860Y36317396D01*
X-14495893Y36311202D01*
X-14634428Y36204893D01*
X-14627981Y36198452D01*
X-14621308Y36192718D01*
X-14614439Y36187673D01*
X-14607402Y36183299D01*
X-14600226Y36179578D01*
X-14592939Y36176491D01*
X-14585571Y36174021D01*
X-14578149Y36172148D01*
X-14570703Y36170855D01*
X-14563262Y36170123D01*
X-14555853Y36169933D01*
X-14548506Y36170269D01*
X-14541249Y36171111D01*
X-14534111Y36172441D01*
X-14527121Y36174240D01*
X-14520307Y36176491D01*
X-14513699Y36179175D01*
X-14507324Y36182275D01*
X-14501212Y36185770D01*
X-14495391Y36189644D01*
X-14489889Y36193878D01*
X-14484737Y36198453D01*
X-14479961Y36203352D01*
X-14475592Y36208556D01*
X-14471657Y36214047D01*
X-14468186Y36219807D01*
X-14465206Y36225816D01*
X-14462747Y36232058D01*
X-14460838Y36238513D01*
X-14459506Y36245163D01*
X-14458782Y36251991D01*
X-14458693Y36258977D01*
X-14462370Y36285472D01*
X-14471286Y36310388D01*
X-14485090Y36333713D01*
X-14503434Y36355432D01*
X-14525969Y36375533D01*
X-14552347Y36394003D01*
X-14582218Y36410829D01*
X-14615235Y36425997D01*
X-14651047Y36439495D01*
X-14689308Y36451309D01*
X-14729666Y36461427D01*
X-14771775Y36469835D01*
X-14859847Y36481470D01*
X-14950733Y36486109D01*
X-15041643Y36483647D01*
X-15129787Y36473981D01*
X-15171950Y36466413D01*
X-15212376Y36457005D01*
X-15250714Y36445743D01*
X-15286618Y36432615D01*
X-15319737Y36417607D01*
X-15349723Y36400706D01*
X-15376228Y36381899D01*
X-15398902Y36361173D01*
X-15417397Y36338515D01*
X-15431364Y36313912D01*
X-15440455Y36287351D01*
X-15444320Y36258819D01*
X-15444654Y36252250D01*
X-15643659Y36252250D01*
X-15643734Y36256029D01*
X-15643548Y36265910D01*
X-15643260Y36271198D01*
X-15642873Y36276511D01*
X-15642387Y36281855D01*
X-15641801Y36287233D01*
X-15638831Y36390598D01*
X-15639276Y36494976D01*
X-15642974Y36600050D01*
X-15649760Y36705502D01*
X-15659472Y36811011D01*
X-15671944Y36916259D01*
X-15687015Y37020928D01*
X-15704521Y37124698D01*
X-15724297Y37227250D01*
X-15746180Y37328267D01*
X-15795615Y37524417D01*
X-15851516Y37710597D01*
X-15912575Y37884255D01*
X-16062716Y37811907D01*
X-16210372Y37752387D01*
X-16354820Y37706207D01*
X-16425613Y37688280D01*
X-16495331Y37673879D01*
X-16563884Y37663070D01*
X-16631181Y37655915D01*
X-16697131Y37652480D01*
X-16761643Y37652828D01*
X-16824627Y37657024D01*
X-16885991Y37665130D01*
X-16945645Y37677212D01*
X-17003499Y37693333D01*
X-17059461Y37713557D01*
X-17113441Y37737949D01*
X-17165348Y37766572D01*
X-17215091Y37799490D01*
X-17262579Y37836768D01*
X-17307722Y37878469D01*
X-17350429Y37924658D01*
X-17390610Y37975398D01*
X-17428172Y38030754D01*
X-17463026Y38090790D01*
X-17495082Y38155568D01*
X-17524247Y38225155D01*
X-17550432Y38299613D01*
X-17573545Y38379007D01*
X-17593496Y38463401D01*
X-17597669Y38485759D01*
X-17392494Y38485759D01*
X-17381582Y38442572D01*
X-17369689Y38400916D01*
X-17356826Y38360791D01*
X-17343004Y38322194D01*
X-17328235Y38285126D01*
X-17312529Y38249584D01*
X-17295898Y38215567D01*
X-17278353Y38183074D01*
X-17250258Y38137113D01*
X-17220463Y38095095D01*
X-17189055Y38056900D01*
X-17156124Y38022410D01*
X-17121756Y37991506D01*
X-17086042Y37964069D01*
X-17049068Y37939980D01*
X-17010922Y37919120D01*
X-16971694Y37901369D01*
X-16931471Y37886610D01*
X-16890341Y37874722D01*
X-16848393Y37865587D01*
X-16805714Y37859087D01*
X-16798025Y37858379D01*
X-16780927Y37854433D01*
X-16759440Y37850595D01*
X-16737604Y37847820D01*
X-16715445Y37846135D01*
X-16692991Y37845567D01*
X-16670542Y37846135D01*
X-16648387Y37847820D01*
X-16626555Y37850595D01*
X-16605071Y37854433D01*
X-16583964Y37859305D01*
X-16563261Y37865185D01*
X-16561188Y37865887D01*
X-16493920Y37877337D01*
X-16403289Y37899474D01*
X-16313263Y37927388D01*
X-16224548Y37960127D01*
X-16137849Y37996738D01*
X-16053873Y38036270D01*
X-15973323Y38077770D01*
X-15983752Y38118126D01*
X-15995792Y38157590D01*
X-16009405Y38196121D01*
X-16024550Y38233680D01*
X-16041188Y38270227D01*
X-16059277Y38305721D01*
X-16078780Y38340123D01*
X-16099654Y38373392D01*
X-16121861Y38405489D01*
X-16145361Y38436373D01*
X-16170114Y38466004D01*
X-16196079Y38494343D01*
X-16223217Y38521350D01*
X-16251488Y38546984D01*
X-16280852Y38571205D01*
X-16311269Y38593974D01*
X-16342699Y38615250D01*
X-16375102Y38634994D01*
X-16408439Y38653164D01*
X-16442669Y38669722D01*
X-16477752Y38684628D01*
X-16513649Y38697841D01*
X-16550319Y38709321D01*
X-16587723Y38719028D01*
X-16625821Y38726922D01*
X-16664572Y38732964D01*
X-16703937Y38737113D01*
X-16743876Y38739329D01*
X-16784349Y38739572D01*
X-16825316Y38737803D01*
X-16866738Y38733980D01*
X-16908573Y38728065D01*
X-16939577Y38722316D01*
X-16970602Y38715363D01*
X-17001620Y38707195D01*
X-17032606Y38697802D01*
X-17063535Y38687173D01*
X-17094379Y38675298D01*
X-17125114Y38662168D01*
X-17155713Y38647770D01*
X-17186150Y38632096D01*
X-17216399Y38615135D01*
X-17246434Y38596876D01*
X-17276229Y38577309D01*
X-17305759Y38556425D01*
X-17334997Y38534212D01*
X-17363918Y38510660D01*
X-17392494Y38485759D01*
X-17597669Y38485759D01*
X-17610194Y38552858D01*
X-17550642Y38608817D01*
X-17489731Y38660526D01*
X-17427619Y38707984D01*
X-17364459Y38751188D01*
X-17300409Y38790138D01*
X-17235623Y38824829D01*
X-17170257Y38855262D01*
X-17104466Y38881434D01*
X-17038407Y38903342D01*
X-16972234Y38920986D01*
X-16906103Y38934362D01*
X-16840170Y38943470D01*
X-16774591Y38948307D01*
X-16709520Y38948871D01*
X-16645114Y38945160D01*
X-16581528Y38937172D01*
X-16518917Y38924906D01*
X-16457438Y38908359D01*
X-16397245Y38887530D01*
X-16338495Y38862416D01*
X-16281343Y38833016D01*
X-16225943Y38799327D01*
X-16172453Y38761348D01*
X-16121028Y38719076D01*
X-16071822Y38672511D01*
X-16024992Y38621649D01*
X-15980694Y38566489D01*
X-15939082Y38507029D01*
X-15900312Y38443267D01*
X-15864541Y38375201D01*
X-15831923Y38302829D01*
X-15802614Y38226150D01*
X-15738828Y38036275D01*
X-15676068Y37832988D01*
X-15616312Y37620606D01*
X-15561539Y37403448D01*
X-15513725Y37185830D01*
X-15474850Y36972072D01*
X-15459382Y36867989D01*
X-15446891Y36766490D01*
X-15437624Y36668114D01*
X-15431827Y36573402D01*
X-15422547Y36579604D01*
X-15413040Y36585752D01*
X-15403295Y36591850D01*
X-15393302Y36597904D01*
X-15352168Y36619316D01*
X-15305349Y36637872D01*
X-15253657Y36653572D01*
X-15197903Y36666417D01*
X-15138901Y36676406D01*
X-15077462Y36683540D01*
X-15014399Y36687819D01*
X-14950524Y36689244D01*
X-14886649Y36687814D01*
X-14823585Y36683530D01*
X-14762147Y36676393D01*
X-14703144Y36666401D01*
X-14647391Y36653556D01*
X-14595698Y36637858D01*
X-14548879Y36619307D01*
X-14507744Y36597904D01*
X-14498267Y36592147D01*
X-14489005Y36586347D01*
X-14479952Y36580509D01*
X-14471104Y36574633D01*
X-14462457Y36568722D01*
X-14454007Y36562779D01*
X-14445749Y36556806D01*
X-14437679Y36550807D01*
X-14400309Y36886702D01*
X-14375533Y37062687D01*
X-14345851Y37241412D01*
X-14310628Y37420915D01*
X-14269228Y37599232D01*
X-14221019Y37774400D01*
X-14165365Y37944454D01*
X-14113127Y38078035D01*
X-13862268Y38078035D01*
X-13753324Y38022718D01*
X-13643411Y37973590D01*
X-13533314Y37931632D01*
X-13423819Y37897827D01*
X-13315710Y37873158D01*
X-13276704Y37866862D01*
X-13271751Y37865185D01*
X-13251048Y37859305D01*
X-13229941Y37854433D01*
X-13208457Y37850595D01*
X-13186624Y37847820D01*
X-13164469Y37846135D01*
X-13142020Y37845567D01*
X-13119571Y37846135D01*
X-13097416Y37847820D01*
X-13075583Y37850595D01*
X-13054100Y37854433D01*
X-13032993Y37859305D01*
X-13024262Y37861785D01*
X-13007551Y37863789D01*
X-12959579Y37872943D01*
X-12912837Y37885487D01*
X-12867422Y37901543D01*
X-12823434Y37921234D01*
X-12780970Y37944683D01*
X-12740128Y37972012D01*
X-12701006Y38003345D01*
X-12663702Y38038803D01*
X-12628316Y38078511D01*
X-12594943Y38122591D01*
X-12563684Y38171165D01*
X-12534636Y38224357D01*
X-12507896Y38282290D01*
X-12483564Y38345085D01*
X-12461737Y38412866D01*
X-12442514Y38485757D01*
X-12488431Y38524806D01*
X-12536086Y38560934D01*
X-12585350Y38594026D01*
X-12636097Y38623967D01*
X-12688199Y38650639D01*
X-12741527Y38673929D01*
X-12795955Y38693720D01*
X-12851355Y38709898D01*
X-12907598Y38722346D01*
X-12964558Y38730949D01*
X-13022107Y38735592D01*
X-13080117Y38736159D01*
X-13138460Y38732535D01*
X-13197008Y38724604D01*
X-13255635Y38712250D01*
X-13314213Y38695359D01*
X-13336772Y38687595D01*
X-13359080Y38679171D01*
X-13381122Y38670094D01*
X-13402883Y38660370D01*
X-13424351Y38650004D01*
X-13445511Y38639004D01*
X-13466349Y38627375D01*
X-13486852Y38615123D01*
X-13507004Y38602255D01*
X-13526793Y38588777D01*
X-13546204Y38574695D01*
X-13565224Y38560015D01*
X-13583838Y38544743D01*
X-13602033Y38528886D01*
X-13619794Y38512450D01*
X-13637108Y38495441D01*
X-13656747Y38474839D01*
X-13675746Y38453464D01*
X-13694083Y38431323D01*
X-13711735Y38408425D01*
X-13728682Y38384781D01*
X-13744901Y38360399D01*
X-13760370Y38335288D01*
X-13775068Y38309459D01*
X-13788973Y38282919D01*
X-13802062Y38255678D01*
X-13814316Y38227746D01*
X-13825710Y38199132D01*
X-13836225Y38169844D01*
X-13845837Y38139892D01*
X-13854525Y38109286D01*
X-13862268Y38078035D01*
X-14113127Y38078035D01*
X-14101631Y38107432D01*
X-14029183Y38261371D01*
G37*
G36*
X-13809320Y36302928D02*
G01*
X-13794781Y36300968D01*
X-13779312Y36297469D01*
X-13762914Y36292337D01*
X-13745586Y36285481D01*
X-13727328Y36276807D01*
X-13699876Y36261582D01*
X-13673490Y36244672D01*
X-13648183Y36226151D01*
X-13623969Y36206094D01*
X-13600862Y36184576D01*
X-13578876Y36161670D01*
X-13558025Y36137453D01*
X-13538322Y36111997D01*
X-13519781Y36085378D01*
X-13519383Y36084743D01*
X-13587559Y36073774D01*
X-13737568Y36039111D01*
X-13753979Y36054735D01*
X-13771784Y36069530D01*
X-13790402Y36082885D01*
X-13809820Y36094724D01*
X-13830022Y36104973D01*
X-13850993Y36113559D01*
X-13861504Y36118033D01*
X-13871088Y36123478D01*
X-13879746Y36129799D01*
X-13887478Y36136903D01*
X-13894283Y36144699D01*
X-13900161Y36153093D01*
X-13905112Y36161991D01*
X-13909137Y36171302D01*
X-13912234Y36180932D01*
X-13914404Y36190788D01*
X-13915647Y36200778D01*
X-13915962Y36210808D01*
X-13915349Y36220786D01*
X-13913809Y36230618D01*
X-13911342Y36240212D01*
X-13907946Y36249475D01*
X-13903622Y36258314D01*
X-13898371Y36266635D01*
X-13892191Y36274347D01*
X-13885082Y36281355D01*
X-13877045Y36287568D01*
X-13868080Y36292892D01*
X-13858186Y36297234D01*
X-13847363Y36300502D01*
X-13835611Y36302602D01*
X-13822930Y36303442D01*
X-13809320Y36302928D01*
G37*
G36*
X-13015188Y40273294D02*
G01*
X-12995354Y40268551D01*
X-12977729Y40261128D01*
X-12962246Y40251247D01*
X-12948839Y40239131D01*
X-12937444Y40225005D01*
X-12927993Y40209091D01*
X-12920421Y40191613D01*
X-12914663Y40172793D01*
X-12910651Y40152856D01*
X-12908322Y40132024D01*
X-12907607Y40110520D01*
X-12908443Y40088569D01*
X-12910762Y40066392D01*
X-12914499Y40044214D01*
X-12919589Y40022258D01*
X-12925964Y40000747D01*
X-12933560Y39979904D01*
X-12942311Y39959952D01*
X-12952150Y39941115D01*
X-12963013Y39923616D01*
X-12974832Y39907678D01*
X-12987542Y39893525D01*
X-13001078Y39881379D01*
X-13015373Y39871465D01*
X-13030362Y39864005D01*
X-13045978Y39859222D01*
X-13062157Y39857341D01*
X-13078831Y39858583D01*
X-13095935Y39863173D01*
X-13113404Y39871333D01*
X-13131171Y39883287D01*
X-13147293Y39896420D01*
X-13162285Y39909820D01*
X-13176138Y39923456D01*
X-13188841Y39937295D01*
X-13200385Y39951304D01*
X-13210759Y39965451D01*
X-13219954Y39979703D01*
X-13227959Y39994028D01*
X-13234765Y40008393D01*
X-13240361Y40022767D01*
X-13244738Y40037115D01*
X-13247886Y40051406D01*
X-13249794Y40065608D01*
X-13250453Y40079687D01*
X-13249853Y40093611D01*
X-13247983Y40107348D01*
X-13244834Y40120865D01*
X-13240395Y40134130D01*
X-13234658Y40147110D01*
X-13227611Y40159773D01*
X-13219245Y40172086D01*
X-13209550Y40184016D01*
X-13198515Y40195531D01*
X-13186132Y40206599D01*
X-13172389Y40217187D01*
X-13157277Y40227263D01*
X-13140786Y40236793D01*
X-13122906Y40245746D01*
X-13103627Y40254089D01*
X-13082939Y40261790D01*
X-13060831Y40268815D01*
X-13037295Y40275133D01*
X-13015188Y40273294D01*
G37*
G36*
X-20315456Y29796311D02*
G01*
X-20322698Y29828210D01*
X-20328049Y29865104D01*
X-20315456Y29796311D01*
G37*
G36*
X-14256070Y27226996D02*
G01*
X-14256073Y27226996D01*
X-14256060Y27227001D01*
X-14256070Y27226996D01*
G37*
G36*
X-22826041Y22737670D02*
G01*
X-22690528Y22590655D01*
X-22547605Y22449793D01*
X-22397696Y22315084D01*
X-22078615Y22064126D01*
X-21736676Y21837784D01*
X-21375269Y21636060D01*
X-20997783Y21458957D01*
X-20607609Y21306478D01*
X-20208137Y21178626D01*
X-19802756Y21075402D01*
X-19765573Y21068238D01*
X-19772004Y20938244D01*
X-19783367Y20792517D01*
X-19798594Y20653780D01*
X-19817751Y20521737D01*
X-19840908Y20396092D01*
X-19868134Y20276549D01*
X-19899496Y20162810D01*
X-19935064Y20054581D01*
X-19974906Y19951564D01*
X-20019089Y19853464D01*
X-20067684Y19759983D01*
X-20120759Y19670827D01*
X-20177783Y19586582D01*
X-20290364Y19636701D01*
X-20507887Y19746211D01*
X-20718000Y19865019D01*
X-20920545Y19992974D01*
X-21115361Y20129926D01*
X-21302291Y20275725D01*
X-21481175Y20430222D01*
X-21651855Y20593265D01*
X-21814171Y20764705D01*
X-21967966Y20944392D01*
X-22113079Y21132177D01*
X-22249351Y21327908D01*
X-22376625Y21531437D01*
X-22494742Y21742613D01*
X-22603541Y21961286D01*
X-22702864Y22187306D01*
X-22792553Y22420523D01*
X-22872449Y22660787D01*
X-22929238Y22861466D01*
X-22826041Y22737670D01*
G37*
G36*
X-10918978Y34974294D02*
G01*
X-10847235Y34916951D01*
X-10956847Y35001723D01*
X-10918978Y34974294D01*
G37*
G36*
X-9939195Y32864034D02*
G01*
X-9948179Y32824447D01*
X-9932573Y32909721D01*
X-9939195Y32864034D01*
G37*
G36*
X-15201385Y39847286D02*
G01*
X-15196948Y39860551D01*
X-15191212Y39873531D01*
X-15184167Y39886194D01*
X-15175803Y39898506D01*
X-15166110Y39910437D01*
X-15155078Y39921952D01*
X-15142697Y39933020D01*
X-15128958Y39943608D01*
X-15113849Y39953683D01*
X-15097361Y39963214D01*
X-15079485Y39972167D01*
X-15060210Y39980510D01*
X-15039526Y39988210D01*
X-15017423Y39995235D01*
X-14993892Y40001553D01*
X-14971779Y39999714D01*
X-14951941Y39994970D01*
X-14934312Y39987546D01*
X-14918826Y39977664D01*
X-14905417Y39965548D01*
X-14894019Y39951420D01*
X-14884567Y39935505D01*
X-14876994Y39918025D01*
X-14871234Y39899204D01*
X-14867222Y39879265D01*
X-14864891Y39858431D01*
X-14864177Y39836926D01*
X-14865012Y39814973D01*
X-14867331Y39792795D01*
X-14871068Y39770616D01*
X-14876157Y39748658D01*
X-14882533Y39727146D01*
X-14890129Y39706301D01*
X-14898880Y39686349D01*
X-14908719Y39667512D01*
X-14919581Y39650012D01*
X-14931399Y39634075D01*
X-14944109Y39619922D01*
X-14957644Y39607777D01*
X-14971937Y39597864D01*
X-14986924Y39590405D01*
X-15002538Y39585624D01*
X-15018714Y39583745D01*
X-15035385Y39584990D01*
X-15052486Y39589583D01*
X-15069950Y39597747D01*
X-15087713Y39609706D01*
X-15103835Y39622839D01*
X-15118827Y39636239D01*
X-15132680Y39649875D01*
X-15145384Y39663714D01*
X-15156928Y39677723D01*
X-15167302Y39691870D01*
X-15176497Y39706123D01*
X-15184503Y39720448D01*
X-15191309Y39734813D01*
X-15196906Y39749186D01*
X-15201284Y39763535D01*
X-15204432Y39777826D01*
X-15206341Y39792028D01*
X-15207001Y39806107D01*
X-15206401Y39820032D01*
X-15205880Y39823861D01*
X-15156135Y39823861D01*
X-15151663Y39841362D01*
X-15149482Y39850142D01*
X-15147350Y39858942D01*
X-15156135Y39823861D01*
X-15205880Y39823861D01*
X-15204533Y39833769D01*
X-15201385Y39847286D01*
G37*
G36*
X-17160787Y40145626D02*
G01*
X-17138679Y40138600D01*
X-17117991Y40130900D01*
X-17098712Y40122557D01*
X-17080832Y40113604D01*
X-17064341Y40104074D01*
X-17049229Y40093999D01*
X-17035487Y40083411D01*
X-17023103Y40072343D01*
X-17012069Y40060827D01*
X-17002373Y40048897D01*
X-16994007Y40036585D01*
X-16986961Y40023922D01*
X-16981223Y40010942D01*
X-16976785Y39997677D01*
X-16973636Y39984160D01*
X-16971766Y39970423D01*
X-16971166Y39956499D01*
X-16971825Y39942419D01*
X-16973733Y39928218D01*
X-16976880Y39913927D01*
X-16981258Y39899578D01*
X-16986854Y39885205D01*
X-16993660Y39870839D01*
X-17001665Y39856514D01*
X-17010860Y39842262D01*
X-17021235Y39828115D01*
X-17032778Y39814106D01*
X-17045482Y39800267D01*
X-17059335Y39786631D01*
X-17074327Y39773230D01*
X-17090449Y39760097D01*
X-17108216Y39748143D01*
X-17125685Y39739983D01*
X-17142789Y39735394D01*
X-17159463Y39734151D01*
X-17175641Y39736033D01*
X-17191257Y39740816D01*
X-17206246Y39748276D01*
X-17220541Y39758190D01*
X-17234076Y39770336D01*
X-17246786Y39784489D01*
X-17258606Y39800427D01*
X-17269468Y39817926D01*
X-17279307Y39836763D01*
X-17288058Y39856715D01*
X-17295654Y39877558D01*
X-17302029Y39899069D01*
X-17307119Y39921025D01*
X-17310856Y39943203D01*
X-17313175Y39965380D01*
X-17314011Y39987331D01*
X-17313296Y40008834D01*
X-17310967Y40029666D01*
X-17306955Y40049604D01*
X-17301197Y40068423D01*
X-17293625Y40085902D01*
X-17284174Y40101815D01*
X-17272779Y40115942D01*
X-17259372Y40128057D01*
X-17243890Y40137938D01*
X-17226264Y40145361D01*
X-17206431Y40150104D01*
X-17184323Y40151943D01*
X-17160787Y40145626D01*
G37*
G36*
X-13471269Y35999287D02*
G01*
X-13457514Y35968760D01*
X-13444990Y35937443D01*
X-13433712Y35905410D01*
X-13423691Y35872735D01*
X-13417694Y35850502D01*
X-13416497Y35845540D01*
X-13542475Y35825423D01*
X-13613663Y35809574D01*
X-13615941Y35818018D01*
X-13623844Y35843783D01*
X-13632719Y35868922D01*
X-13642553Y35893360D01*
X-13653331Y35917022D01*
X-13665037Y35939835D01*
X-13676370Y35959489D01*
X-13583016Y35982618D01*
X-13472283Y36001295D01*
X-13471269Y35999287D01*
G37*
G36*
X-12175759Y38203024D02*
G01*
X-12175761Y38203025D01*
X-12175759Y38203025D01*
X-12175759Y38203024D01*
G37*
G36*
X-12635499Y35893089D02*
G01*
X-12400983Y35879587D01*
X-12167630Y35853530D01*
X-11937575Y35814727D01*
X-11712954Y35762985D01*
X-11495903Y35698110D01*
X-11288558Y35619910D01*
X-11093055Y35528192D01*
X-10911529Y35422762D01*
X-10826674Y35364845D01*
X-10746115Y35303428D01*
X-10670118Y35238487D01*
X-10598951Y35169997D01*
X-10667886Y35235706D01*
X-10742333Y35297637D01*
X-10821964Y35355838D01*
X-10906451Y35410354D01*
X-10995467Y35461231D01*
X-11088684Y35508514D01*
X-11286409Y35592487D01*
X-11497004Y35662639D01*
X-11717847Y35719340D01*
X-11946317Y35762957D01*
X-12179790Y35793858D01*
X-12415645Y35812412D01*
X-12651260Y35818985D01*
X-12884013Y35813947D01*
X-13111281Y35797666D01*
X-13330443Y35770509D01*
X-13399296Y35758067D01*
X-13399453Y35759247D01*
X-13403142Y35782360D01*
X-13407415Y35805290D01*
X-13412267Y35828012D01*
X-13416497Y35845540D01*
X-13324666Y35860205D01*
X-13099476Y35883206D01*
X-12869042Y35894231D01*
X-12635499Y35893089D01*
G37*
G36*
X-18848340Y34916951D02*
G01*
X-18776597Y34974294D01*
X-18738724Y35001726D01*
X-18848340Y34916951D01*
G37*
G36*
X-17640798Y38182740D02*
G01*
X-17634661Y38166818D01*
X-17628343Y38150979D01*
X-17621843Y38135231D01*
X-17615156Y38119579D01*
X-17608280Y38104030D01*
X-17601212Y38088592D01*
X-17593949Y38073272D01*
X-17711050Y38023153D01*
X-17831190Y37968126D01*
X-17954188Y37907650D01*
X-18079859Y37841188D01*
X-18208022Y37768200D01*
X-18338495Y37688148D01*
X-18471093Y37600493D01*
X-18605636Y37504696D01*
X-18741939Y37400219D01*
X-18879821Y37286523D01*
X-19019099Y37163069D01*
X-19159591Y37029318D01*
X-19301113Y36884732D01*
X-19443482Y36728772D01*
X-19586518Y36560899D01*
X-19730036Y36380575D01*
X-19746362Y36380389D01*
X-19762272Y36381370D01*
X-19777740Y36383468D01*
X-19792740Y36386636D01*
X-19807245Y36390826D01*
X-19821229Y36395990D01*
X-19834665Y36402081D01*
X-19847527Y36409051D01*
X-19859788Y36416852D01*
X-19871422Y36425436D01*
X-19882403Y36434756D01*
X-19892704Y36444763D01*
X-19902299Y36455410D01*
X-19911161Y36466650D01*
X-19919264Y36478434D01*
X-19926581Y36490714D01*
X-19933086Y36503443D01*
X-19938753Y36516574D01*
X-19943554Y36530057D01*
X-19947465Y36543846D01*
X-19950457Y36557893D01*
X-19952506Y36572149D01*
X-19953583Y36586568D01*
X-19953664Y36601101D01*
X-19952721Y36615701D01*
X-19950729Y36630319D01*
X-19947660Y36644908D01*
X-19943488Y36659421D01*
X-19938187Y36673809D01*
X-19931730Y36688025D01*
X-19924091Y36702020D01*
X-19915244Y36715748D01*
X-19766534Y36866456D01*
X-19617365Y37007924D01*
X-19468034Y37140472D01*
X-19318836Y37264425D01*
X-19170068Y37380104D01*
X-19022027Y37487832D01*
X-18875009Y37587931D01*
X-18729309Y37680724D01*
X-18585225Y37766533D01*
X-18443052Y37845681D01*
X-18303088Y37918490D01*
X-18165628Y37985283D01*
X-18030969Y38046381D01*
X-17899407Y38102109D01*
X-17646759Y38198739D01*
X-17640798Y38182740D01*
G37*
G36*
X-14850868Y39286504D02*
G01*
X-14831034Y39281761D01*
X-14813409Y39274337D01*
X-14797926Y39264455D01*
X-14784520Y39252338D01*
X-14773124Y39238211D01*
X-14763673Y39222295D01*
X-14756102Y39204815D01*
X-14750343Y39185994D01*
X-14746332Y39166055D01*
X-14744002Y39145222D01*
X-14743288Y39123717D01*
X-14744123Y39101763D01*
X-14746442Y39079586D01*
X-14750179Y39057406D01*
X-14755269Y39035449D01*
X-14761645Y39013936D01*
X-14769241Y38993092D01*
X-14777991Y38973139D01*
X-14787831Y38954302D01*
X-14798693Y38936803D01*
X-14810512Y38920865D01*
X-14823223Y38906712D01*
X-14836758Y38894567D01*
X-14851054Y38884654D01*
X-14866042Y38877195D01*
X-14881659Y38872415D01*
X-14897837Y38870535D01*
X-14914511Y38871781D01*
X-14931616Y38876374D01*
X-14949084Y38884538D01*
X-14966852Y38896497D01*
X-14982969Y38909624D01*
X-14997957Y38923021D01*
X-15011807Y38936653D01*
X-15024507Y38950489D01*
X-15036049Y38964496D01*
X-15046421Y38978641D01*
X-15055614Y38992891D01*
X-15063618Y39007215D01*
X-15070423Y39021580D01*
X-15076019Y39035953D01*
X-15080396Y39050301D01*
X-15083544Y39064593D01*
X-15085453Y39078795D01*
X-15086112Y39092875D01*
X-15085513Y39106800D01*
X-15083644Y39120539D01*
X-15080496Y39134057D01*
X-15076059Y39147323D01*
X-15070323Y39160305D01*
X-15063278Y39172969D01*
X-15054914Y39185284D01*
X-15045220Y39197216D01*
X-15034187Y39208733D01*
X-15021805Y39219802D01*
X-15008064Y39230392D01*
X-14992953Y39240469D01*
X-14976463Y39250001D01*
X-14958584Y39258955D01*
X-14939306Y39267299D01*
X-14918619Y39275000D01*
X-14896512Y39282026D01*
X-14872976Y39288343D01*
X-14850868Y39286504D01*
G37*
G36*
X-19474357Y35238159D02*
G01*
X-19476166Y35271775D01*
X-19476902Y35304566D01*
X-19476565Y35336530D01*
X-19466828Y35344943D01*
X-19421947Y35382131D01*
X-19374519Y35418306D01*
X-19324636Y35453463D01*
X-19272391Y35487600D01*
X-19217875Y35520713D01*
X-19161182Y35552797D01*
X-19102402Y35583849D01*
X-19041629Y35613866D01*
X-18978955Y35642843D01*
X-18914472Y35670778D01*
X-18848272Y35697665D01*
X-18780448Y35723502D01*
X-18711091Y35748285D01*
X-18640294Y35772010D01*
X-18568149Y35794673D01*
X-18494749Y35816271D01*
X-18576339Y35721669D01*
X-18657011Y35626421D01*
X-18736721Y35530597D01*
X-18815425Y35434266D01*
X-18856782Y35401988D01*
X-18897286Y35368357D01*
X-18936904Y35333344D01*
X-18975604Y35296921D01*
X-19013351Y35259060D01*
X-19031856Y35239581D01*
X-19050112Y35219732D01*
X-19068112Y35199508D01*
X-19078525Y35187417D01*
X-19025458Y35238487D01*
X-18949461Y35303428D01*
X-18868902Y35364845D01*
X-18784048Y35422762D01*
X-18602522Y35528192D01*
X-18407018Y35619910D01*
X-18199674Y35698110D01*
X-17982624Y35762985D01*
X-17758005Y35814727D01*
X-17527952Y35853530D01*
X-17294601Y35879587D01*
X-17060088Y35893089D01*
X-16826550Y35894231D01*
X-16596120Y35883206D01*
X-16370937Y35860205D01*
X-16305730Y35849792D01*
X-16306401Y35847456D01*
X-16310913Y35830192D01*
X-16315017Y35812802D01*
X-16318714Y35795297D01*
X-16322006Y35777687D01*
X-16324379Y35763135D01*
X-16365182Y35770509D01*
X-16584341Y35797666D01*
X-16811605Y35813947D01*
X-17044353Y35818985D01*
X-17279964Y35812412D01*
X-17515814Y35793858D01*
X-17749282Y35762957D01*
X-17977747Y35719340D01*
X-18198586Y35662639D01*
X-18409177Y35592487D01*
X-18606899Y35508514D01*
X-18700114Y35461231D01*
X-18789128Y35410354D01*
X-18873615Y35355838D01*
X-18953245Y35297637D01*
X-19027691Y35235706D01*
X-19079323Y35186490D01*
X-19085853Y35178908D01*
X-19103331Y35157926D01*
X-19120542Y35136560D01*
X-19095957Y35161120D01*
X-19070869Y35185041D01*
X-19045290Y35208332D01*
X-19019233Y35231002D01*
X-18992708Y35253062D01*
X-18965731Y35274522D01*
X-18938311Y35295392D01*
X-18910463Y35315681D01*
X-19025506Y35168608D01*
X-19137780Y35021108D01*
X-19247097Y34873469D01*
X-19353269Y34725979D01*
X-19383689Y34813862D01*
X-19409822Y34898440D01*
X-19431668Y34979715D01*
X-19449226Y35057686D01*
X-19456397Y35095433D01*
X-19462495Y35132353D01*
X-19467522Y35168448D01*
X-19467695Y35169997D01*
X-19096626Y35169997D01*
X-19079323Y35186490D01*
X-19078525Y35187417D01*
X-19096626Y35169997D01*
X-19467695Y35169997D01*
X-19471476Y35203716D01*
X-19474357Y35238159D01*
G37*
G36*
X-14602270Y40649638D02*
G01*
X-14582441Y40644895D01*
X-14564820Y40637471D01*
X-14549341Y40627590D01*
X-14535939Y40615475D01*
X-14524547Y40601349D01*
X-14515099Y40585435D01*
X-14507530Y40567956D01*
X-14501775Y40549137D01*
X-14497766Y40529199D01*
X-14495438Y40508367D01*
X-14494726Y40486864D01*
X-14495563Y40464912D01*
X-14497884Y40442736D01*
X-14501623Y40420558D01*
X-14506714Y40398602D01*
X-14513091Y40377090D01*
X-14520688Y40356247D01*
X-14529440Y40336295D01*
X-14539280Y40317458D01*
X-14550143Y40299959D01*
X-14561962Y40284022D01*
X-14574673Y40269868D01*
X-14588209Y40257723D01*
X-14602504Y40247809D01*
X-14617493Y40240348D01*
X-14633109Y40235566D01*
X-14649287Y40233684D01*
X-14665961Y40234927D01*
X-14683065Y40239516D01*
X-14700533Y40247677D01*
X-14718300Y40259631D01*
X-14734417Y40272763D01*
X-14749406Y40286164D01*
X-14763255Y40299800D01*
X-14775956Y40313638D01*
X-14787497Y40327648D01*
X-14797870Y40341794D01*
X-14807063Y40356047D01*
X-14815067Y40370372D01*
X-14821872Y40384737D01*
X-14827467Y40399111D01*
X-14831844Y40413459D01*
X-14834991Y40427750D01*
X-14836899Y40441952D01*
X-14837558Y40456031D01*
X-14836957Y40469955D01*
X-14835088Y40483693D01*
X-14831939Y40497210D01*
X-14827500Y40510475D01*
X-14821762Y40523455D01*
X-14814715Y40536117D01*
X-14806349Y40548430D01*
X-14796653Y40560360D01*
X-14785618Y40571876D01*
X-14773233Y40582944D01*
X-14759489Y40593532D01*
X-14744375Y40603607D01*
X-14727882Y40613138D01*
X-14709999Y40622091D01*
X-14690717Y40630433D01*
X-14670025Y40638134D01*
X-14647914Y40645159D01*
X-14624373Y40651477D01*
X-14602270Y40649638D01*
G37*
G36*
X-19493501Y35375581D02*
G01*
X-19417856Y35436573D01*
X-19383779Y35460626D01*
X-19493501Y35375581D01*
G37*
G36*
X-16605397Y35585107D02*
G01*
X-16404212Y35567423D01*
X-16329958Y35556442D01*
X-16328699Y35543887D01*
X-16326516Y35525924D01*
X-16323957Y35508014D01*
X-16321023Y35490167D01*
X-16317716Y35472393D01*
X-16315501Y35461737D01*
X-16405118Y35476945D01*
X-16601549Y35499160D01*
X-16802014Y35511045D01*
X-17005029Y35512447D01*
X-17209105Y35503218D01*
X-17412757Y35483207D01*
X-17614498Y35452264D01*
X-17812843Y35410239D01*
X-18006304Y35356981D01*
X-18193396Y35292340D01*
X-18372631Y35216168D01*
X-18542525Y35128312D01*
X-18701590Y35028623D01*
X-18738724Y35001726D01*
X-18698099Y35033145D01*
X-18537465Y35138573D01*
X-18367555Y35233164D01*
X-18189486Y35316848D01*
X-18004378Y35389552D01*
X-17813347Y35451207D01*
X-17617512Y35501741D01*
X-17417990Y35541083D01*
X-17215900Y35569161D01*
X-17012359Y35585906D01*
X-16808485Y35591245D01*
X-16605397Y35585107D01*
G37*
G36*
X-13396352Y35735975D02*
G01*
X-13393845Y35712570D01*
X-13391935Y35689054D01*
X-13390627Y35665454D01*
X-13389925Y35641793D01*
X-13389836Y35618097D01*
X-13390362Y35594389D01*
X-13391508Y35570694D01*
X-13392877Y35552416D01*
X-13489564Y35538119D01*
X-13598439Y35515118D01*
X-13596412Y35528035D01*
X-13594052Y35546293D01*
X-13592186Y35564623D01*
X-13590811Y35583006D01*
X-13589924Y35601421D01*
X-13589520Y35619851D01*
X-13589596Y35638275D01*
X-13590148Y35656675D01*
X-13591173Y35675031D01*
X-13592667Y35693325D01*
X-13594626Y35711537D01*
X-13595615Y35718940D01*
X-13538876Y35732844D01*
X-13399296Y35758067D01*
X-13396352Y35735975D01*
G37*
G36*
X-23531571Y23939019D02*
G01*
X-23459790Y23748945D01*
X-23377633Y23565022D01*
X-23285524Y23387249D01*
X-23183886Y23215627D01*
X-23122258Y23123541D01*
X-23097464Y22945587D01*
X-23026785Y22596116D01*
X-22937232Y22263619D01*
X-22829518Y21947801D01*
X-22704354Y21648366D01*
X-22562450Y21365020D01*
X-22404519Y21097468D01*
X-22231270Y20845414D01*
X-22043416Y20608564D01*
X-21841667Y20386621D01*
X-21626736Y20179292D01*
X-21399332Y19986281D01*
X-21160167Y19807293D01*
X-20909953Y19642033D01*
X-20649400Y19490205D01*
X-20379220Y19351516D01*
X-20307543Y19426339D01*
X-20240619Y19504301D01*
X-20178381Y19585698D01*
X-20177783Y19586582D01*
X-20065590Y19536637D01*
X-19833724Y19446170D01*
X-19594925Y19365450D01*
X-19349351Y19294627D01*
X-19097162Y19233851D01*
X-18838517Y19183272D01*
X-18573573Y19143040D01*
X-18302492Y19113305D01*
X-18230520Y19108346D01*
X-18260847Y18996852D01*
X-18298981Y18872534D01*
X-18337932Y18758576D01*
X-18601215Y18783349D01*
X-18874660Y18819629D01*
X-19141753Y18865890D01*
X-19402379Y18922144D01*
X-19656424Y18988406D01*
X-19903771Y19064690D01*
X-20144306Y19151010D01*
X-20377913Y19247381D01*
X-20604478Y19353816D01*
X-20823885Y19470331D01*
X-21036020Y19596938D01*
X-21240766Y19733653D01*
X-21438009Y19880489D01*
X-21627634Y20037460D01*
X-21809525Y20204582D01*
X-21983567Y20381867D01*
X-22149646Y20569330D01*
X-22307646Y20766986D01*
X-22457452Y20974849D01*
X-22598949Y21192931D01*
X-22732021Y21421249D01*
X-22856554Y21659816D01*
X-22972432Y21908646D01*
X-23079540Y22167754D01*
X-23177763Y22437153D01*
X-23266987Y22716858D01*
X-23347095Y23006883D01*
X-23417972Y23307242D01*
X-23479504Y23617949D01*
X-23531576Y23939019D01*
X-23531571Y23939020D01*
X-23531571Y23939019D01*
G37*
G36*
X-15944850Y35779051D02*
G01*
X-15748218Y35721284D01*
X-15743136Y35718867D01*
X-15738534Y35716083D01*
X-15734401Y35712966D01*
X-15730731Y35709548D01*
X-15727514Y35705864D01*
X-15724743Y35701946D01*
X-15722410Y35697828D01*
X-15720507Y35693543D01*
X-15719025Y35689125D01*
X-15717956Y35684607D01*
X-15717293Y35680022D01*
X-15717026Y35675405D01*
X-15717149Y35670787D01*
X-15717652Y35666203D01*
X-15718528Y35661686D01*
X-15719769Y35657269D01*
X-15721366Y35652985D01*
X-15723311Y35648869D01*
X-15725596Y35644953D01*
X-15728214Y35641271D01*
X-15731155Y35637856D01*
X-15734412Y35634741D01*
X-15737977Y35631960D01*
X-15741841Y35629547D01*
X-15745996Y35627534D01*
X-15750435Y35625955D01*
X-15755149Y35624844D01*
X-15760130Y35624233D01*
X-15765370Y35624156D01*
X-15770860Y35624647D01*
X-15776594Y35625738D01*
X-15782561Y35627464D01*
X-15961671Y35685040D01*
X-16128249Y35725860D01*
X-16127885Y35728463D01*
X-16125723Y35741706D01*
X-16123259Y35754876D01*
X-16120491Y35767965D01*
X-16117420Y35780965D01*
X-16114043Y35793869D01*
X-16110360Y35806670D01*
X-16107647Y35815296D01*
X-15944850Y35779051D01*
G37*
G36*
X-16337039Y40463178D02*
G01*
X-16314937Y40456153D01*
X-16294253Y40448452D01*
X-16274978Y40440109D01*
X-16257101Y40431156D01*
X-16240614Y40421626D01*
X-16225505Y40411551D01*
X-16211765Y40400963D01*
X-16199383Y40389895D01*
X-16188351Y40378380D01*
X-16178657Y40366450D01*
X-16170293Y40354138D01*
X-16163247Y40341476D01*
X-16157510Y40328497D01*
X-16153072Y40315233D01*
X-16149923Y40301717D01*
X-16148054Y40287981D01*
X-16147453Y40274058D01*
X-16148111Y40259980D01*
X-16150018Y40245780D01*
X-16153164Y40231491D01*
X-16157539Y40217145D01*
X-16163134Y40202774D01*
X-16169937Y40188411D01*
X-16177940Y40174089D01*
X-16187132Y40159840D01*
X-16197503Y40145696D01*
X-16209043Y40131691D01*
X-16221743Y40117856D01*
X-16235591Y40104224D01*
X-16250579Y40090828D01*
X-16266697Y40077701D01*
X-16284463Y40065742D01*
X-16301932Y40057577D01*
X-16319036Y40052984D01*
X-16335710Y40051737D01*
X-16351888Y40053616D01*
X-16367504Y40058395D01*
X-16382493Y40065852D01*
X-16396788Y40075764D01*
X-16410323Y40087907D01*
X-16423033Y40102058D01*
X-16434853Y40117993D01*
X-16445715Y40135490D01*
X-16455554Y40154325D01*
X-16464305Y40174276D01*
X-16471901Y40195117D01*
X-16478276Y40216627D01*
X-16483366Y40238583D01*
X-16487103Y40260760D01*
X-16489422Y40282935D01*
X-16490258Y40304886D01*
X-16489544Y40326389D01*
X-16487214Y40347221D01*
X-16483203Y40367158D01*
X-16477444Y40385977D01*
X-16469872Y40403455D01*
X-16460422Y40419369D01*
X-16449026Y40433495D01*
X-16435620Y40445610D01*
X-16420137Y40455491D01*
X-16402512Y40462914D01*
X-16382678Y40467657D01*
X-16360570Y40469496D01*
X-16337039Y40463178D01*
G37*
G36*
X-13747179Y40533327D02*
G01*
X-13727341Y40528584D01*
X-13709713Y40521160D01*
X-13694227Y40511279D01*
X-13680818Y40499164D01*
X-13669421Y40485038D01*
X-13659968Y40469124D01*
X-13652396Y40451646D01*
X-13646636Y40432826D01*
X-13642625Y40412889D01*
X-13640295Y40392057D01*
X-13639581Y40370553D01*
X-13640417Y40348602D01*
X-13642737Y40326425D01*
X-13646475Y40304247D01*
X-13651565Y40282291D01*
X-13657942Y40260779D01*
X-13665540Y40239936D01*
X-13674292Y40219985D01*
X-13684133Y40201148D01*
X-13694997Y40183649D01*
X-13706818Y40167711D01*
X-13719530Y40153558D01*
X-13733067Y40141412D01*
X-13747363Y40131498D01*
X-13762353Y40124038D01*
X-13777971Y40119255D01*
X-13794150Y40117373D01*
X-13810825Y40118616D01*
X-13827929Y40123205D01*
X-13845398Y40131366D01*
X-13863165Y40143320D01*
X-13879283Y40156453D01*
X-13894271Y40169853D01*
X-13908120Y40183489D01*
X-13920820Y40197328D01*
X-13932360Y40211337D01*
X-13942732Y40225484D01*
X-13951924Y40239736D01*
X-13959927Y40254061D01*
X-13966730Y40268426D01*
X-13972325Y40282800D01*
X-13976700Y40297148D01*
X-13979846Y40311439D01*
X-13981754Y40325641D01*
X-13982412Y40339720D01*
X-13981811Y40353645D01*
X-13979941Y40367382D01*
X-13976792Y40380899D01*
X-13972354Y40394164D01*
X-13966617Y40407144D01*
X-13959571Y40419806D01*
X-13951206Y40432119D01*
X-13941513Y40444050D01*
X-13930480Y40455565D01*
X-13918099Y40466633D01*
X-13904358Y40477221D01*
X-13889249Y40487296D01*
X-13872762Y40496827D01*
X-13854885Y40505780D01*
X-13835610Y40514123D01*
X-13814926Y40521823D01*
X-13792823Y40528848D01*
X-13769291Y40535166D01*
X-13747179Y40533327D01*
G37*
G36*
X-9952285Y32802006D02*
G01*
X-9974382Y32697572D01*
X-9998831Y32596301D01*
X-10025598Y32498077D01*
X-10054650Y32402785D01*
X-10085953Y32310308D01*
X-10119475Y32220530D01*
X-10155183Y32133334D01*
X-10193042Y32048605D01*
X-10233020Y31966225D01*
X-10319201Y31808050D01*
X-10413459Y31657880D01*
X-10515528Y31514784D01*
X-10625142Y31377833D01*
X-10742037Y31246095D01*
X-10865946Y31118641D01*
X-10996603Y30994540D01*
X-11133742Y30872863D01*
X-11277099Y30752679D01*
X-11426407Y30633059D01*
X-11581401Y30513071D01*
X-11560785Y30741223D01*
X-11553522Y30847097D01*
X-11549154Y30950856D01*
X-11548332Y31055014D01*
X-11551703Y31162086D01*
X-11555164Y31217501D01*
X-11559917Y31274587D01*
X-11566043Y31333659D01*
X-11573623Y31395031D01*
X-11818206Y31137847D01*
X-11934258Y31020609D01*
X-12047649Y30910296D01*
X-12159505Y30806425D01*
X-12270950Y30708513D01*
X-12383107Y30616077D01*
X-12497103Y30528634D01*
X-12614061Y30445701D01*
X-12735106Y30366795D01*
X-12861363Y30291434D01*
X-12993955Y30219133D01*
X-13134007Y30149411D01*
X-13282645Y30081783D01*
X-13440992Y30015768D01*
X-13610173Y29950882D01*
X-13581470Y30015875D01*
X-13554338Y30075230D01*
X-13504061Y30185052D01*
X-13480553Y30239533D01*
X-13457891Y30296403D01*
X-13446821Y30326360D01*
X-13435894Y30357667D01*
X-13425088Y30390575D01*
X-13414380Y30425334D01*
X-13531466Y30310601D01*
X-13590159Y30257085D01*
X-13650073Y30205717D01*
X-13712049Y30156186D01*
X-13776928Y30108179D01*
X-13845550Y30061381D01*
X-13918756Y30015480D01*
X-13997387Y29970164D01*
X-14082284Y29925118D01*
X-14174286Y29880031D01*
X-14274236Y29834589D01*
X-14382973Y29788479D01*
X-14501339Y29741388D01*
X-14630173Y29693003D01*
X-14770318Y29643011D01*
X-14770318Y29643016D01*
X-14701952Y29672942D01*
X-14633779Y29705640D01*
X-14498305Y29778744D01*
X-14364492Y29861116D01*
X-14232938Y29951547D01*
X-14104240Y30048826D01*
X-13978994Y30151742D01*
X-13857798Y30259087D01*
X-13741248Y30369649D01*
X-13629942Y30482219D01*
X-13524477Y30595585D01*
X-13425450Y30708539D01*
X-13333457Y30819869D01*
X-13249096Y30928365D01*
X-13172964Y31032817D01*
X-13105657Y31132015D01*
X-13047773Y31224749D01*
X-13044391Y31121077D01*
X-13043042Y31026379D01*
X-13044127Y30937526D01*
X-13048047Y30851394D01*
X-13055204Y30764855D01*
X-13066000Y30674783D01*
X-13080834Y30578050D01*
X-13100110Y30471531D01*
X-12980127Y30540998D01*
X-12862174Y30616586D01*
X-12746221Y30697728D01*
X-12632238Y30783862D01*
X-12520197Y30874421D01*
X-12410067Y30968842D01*
X-12301820Y31066560D01*
X-12195426Y31167009D01*
X-12090856Y31269626D01*
X-11988081Y31373845D01*
X-11787795Y31584833D01*
X-11407464Y32001194D01*
X-11390534Y31951767D01*
X-11374908Y31901551D01*
X-11360529Y31850602D01*
X-11347341Y31798975D01*
X-11324315Y31693911D01*
X-11305376Y31586804D01*
X-11290073Y31478099D01*
X-11277955Y31368242D01*
X-11268572Y31257679D01*
X-11261470Y31146854D01*
X-11176143Y31195863D01*
X-11082714Y31263245D01*
X-10982984Y31346811D01*
X-10878754Y31444373D01*
X-10771825Y31553739D01*
X-10663998Y31672721D01*
X-10557075Y31799129D01*
X-10452855Y31930775D01*
X-10353140Y32065467D01*
X-10259732Y32201017D01*
X-10174431Y32335236D01*
X-10099039Y32465933D01*
X-10035355Y32590920D01*
X-9985183Y32708006D01*
X-9950321Y32815003D01*
X-9948179Y32824447D01*
X-9952285Y32802006D01*
G37*
G36*
X-16603334Y36137796D02*
G01*
X-16350730Y36112822D01*
X-16188126Y36086663D01*
X-16202476Y36067664D01*
X-16220464Y36041226D01*
X-16237106Y36014008D01*
X-16242316Y36004498D01*
X-16348029Y36022329D01*
X-16598117Y36048172D01*
X-16859431Y36060421D01*
X-17128539Y36059346D01*
X-17402011Y36045220D01*
X-17676415Y36018313D01*
X-17948321Y35978898D01*
X-18214298Y35927247D01*
X-18470914Y35863630D01*
X-18714739Y35788320D01*
X-18942341Y35701588D01*
X-19150289Y35603707D01*
X-19335153Y35494947D01*
X-19383779Y35460626D01*
X-19317748Y35511805D01*
X-19121804Y35635139D01*
X-18908176Y35745484D01*
X-18679370Y35842741D01*
X-18437894Y35926812D01*
X-18186253Y35997597D01*
X-17926955Y36054999D01*
X-17662506Y36098918D01*
X-17395412Y36129256D01*
X-17128181Y36145914D01*
X-16863320Y36148793D01*
X-16603334Y36137796D01*
G37*
G36*
X-13737001Y36038571D02*
G01*
X-13720866Y36021115D01*
X-13705587Y36002439D01*
X-13691180Y35982618D01*
X-13677659Y35961725D01*
X-13676370Y35959489D01*
X-13800367Y35928769D01*
X-13996200Y35860509D01*
X-14002965Y35858973D01*
X-14009367Y35858062D01*
X-14015408Y35857742D01*
X-14021087Y35857980D01*
X-14026404Y35858740D01*
X-14031359Y35859991D01*
X-14035953Y35861696D01*
X-14040185Y35863823D01*
X-14044056Y35866338D01*
X-14047564Y35869207D01*
X-14050712Y35872395D01*
X-14053497Y35875868D01*
X-14055921Y35879594D01*
X-14057983Y35883537D01*
X-14059684Y35887664D01*
X-14061023Y35891942D01*
X-14062001Y35896335D01*
X-14062617Y35900810D01*
X-14062871Y35905333D01*
X-14062765Y35909870D01*
X-14062296Y35914388D01*
X-14061466Y35918852D01*
X-14060275Y35923228D01*
X-14058723Y35927482D01*
X-14056809Y35931581D01*
X-14054533Y35935490D01*
X-14051896Y35939175D01*
X-14048898Y35942603D01*
X-14045539Y35945740D01*
X-14041818Y35948552D01*
X-14037736Y35951004D01*
X-14033293Y35953062D01*
X-14033293Y35953060D01*
X-13817877Y36020553D01*
X-13737568Y36039111D01*
X-13737001Y36038571D01*
G37*
G36*
X-13611268Y35800699D02*
G01*
X-13607039Y35783183D01*
X-13603257Y35765490D01*
X-13599925Y35747638D01*
X-13597046Y35729647D01*
X-13595615Y35718940D01*
X-13733958Y35685040D01*
X-13913068Y35627464D01*
X-13919031Y35625738D01*
X-13924760Y35624647D01*
X-13930246Y35624156D01*
X-13935482Y35624233D01*
X-13940459Y35624844D01*
X-13945170Y35625955D01*
X-13949606Y35627534D01*
X-13953759Y35629547D01*
X-13957621Y35631960D01*
X-13961184Y35634741D01*
X-13964439Y35637856D01*
X-13967379Y35641271D01*
X-13969995Y35644953D01*
X-13972280Y35648869D01*
X-13974224Y35652985D01*
X-13975821Y35657269D01*
X-13977062Y35661686D01*
X-13977938Y35666203D01*
X-13978442Y35670787D01*
X-13978566Y35675405D01*
X-13978301Y35680022D01*
X-13977639Y35684607D01*
X-13976572Y35689125D01*
X-13975093Y35693543D01*
X-13973192Y35697828D01*
X-13970862Y35701946D01*
X-13968094Y35705864D01*
X-13964882Y35709548D01*
X-13961215Y35712966D01*
X-13957086Y35716083D01*
X-13952488Y35718867D01*
X-13947412Y35721284D01*
X-13947410Y35721284D01*
X-13750768Y35779051D01*
X-13613663Y35809574D01*
X-13611268Y35800699D01*
G37*
G36*
X-13599200Y35510268D02*
G01*
X-13602464Y35492621D01*
X-13606210Y35475112D01*
X-13610439Y35457759D01*
X-13615155Y35440582D01*
X-13620363Y35423598D01*
X-13624460Y35411547D01*
X-13665323Y35402119D01*
X-13840732Y35349810D01*
X-13846823Y35348412D01*
X-13852694Y35347602D01*
X-13858335Y35347349D01*
X-13863736Y35347621D01*
X-13868884Y35348390D01*
X-13873769Y35349623D01*
X-13878380Y35351291D01*
X-13882705Y35353362D01*
X-13886735Y35355806D01*
X-13890458Y35358593D01*
X-13893862Y35361690D01*
X-13896937Y35365069D01*
X-13899673Y35368698D01*
X-13902057Y35372546D01*
X-13904078Y35376583D01*
X-13905727Y35380778D01*
X-13906992Y35385101D01*
X-13907861Y35389520D01*
X-13908324Y35394006D01*
X-13908370Y35398527D01*
X-13907988Y35403052D01*
X-13907166Y35407552D01*
X-13905895Y35411995D01*
X-13904162Y35416351D01*
X-13901957Y35420589D01*
X-13899269Y35424678D01*
X-13896086Y35428587D01*
X-13892398Y35432287D01*
X-13888195Y35435746D01*
X-13883463Y35438934D01*
X-13878194Y35441820D01*
X-13872375Y35444373D01*
X-13683598Y35497126D01*
X-13598439Y35515118D01*
X-13599200Y35510268D01*
G37*
G36*
X-15859894Y36296702D02*
G01*
X-15848519Y36295116D01*
X-15838015Y36292393D01*
X-15828375Y36288617D01*
X-15819592Y36283875D01*
X-15811661Y36278253D01*
X-15804576Y36271838D01*
X-15798330Y36264715D01*
X-15792918Y36256971D01*
X-15788332Y36248692D01*
X-15784568Y36239963D01*
X-15781618Y36230871D01*
X-15779477Y36221502D01*
X-15778139Y36211943D01*
X-15777597Y36202278D01*
X-15777845Y36192595D01*
X-15778877Y36182980D01*
X-15780688Y36173518D01*
X-15783270Y36164296D01*
X-15786618Y36155400D01*
X-15790725Y36146915D01*
X-15795586Y36138929D01*
X-15801194Y36131528D01*
X-15807544Y36124796D01*
X-15814628Y36118821D01*
X-15822441Y36113689D01*
X-15830977Y36109485D01*
X-15856526Y36098935D01*
X-15880892Y36087260D01*
X-15904082Y36074507D01*
X-15926103Y36060722D01*
X-15946963Y36045953D01*
X-15956101Y36038670D01*
X-16108016Y36073774D01*
X-16188126Y36086663D01*
X-16183135Y36093270D01*
X-16162432Y36117989D01*
X-16140359Y36141770D01*
X-16116907Y36164559D01*
X-16092067Y36186303D01*
X-16065831Y36206948D01*
X-16038191Y36226443D01*
X-16009137Y36244734D01*
X-15978662Y36261768D01*
X-15946756Y36277492D01*
X-15930032Y36284544D01*
X-15914215Y36289941D01*
X-15899299Y36293769D01*
X-15885277Y36296114D01*
X-15872144Y36297063D01*
X-15859894Y36296702D01*
G37*
G36*
X-20675673Y32829301D02*
G01*
X-20684676Y32868969D01*
X-20691321Y32914796D01*
X-20675673Y32829301D01*
G37*
G36*
X-13649332Y32444473D02*
G01*
X-13649334Y32444473D01*
X-13649328Y32444474D01*
X-13649332Y32444473D01*
G37*
G36*
X-14201633Y39304439D02*
G01*
X-14181800Y39299692D01*
X-14164176Y39292264D01*
X-14148694Y39282379D01*
X-14135289Y39270260D01*
X-14123894Y39256131D01*
X-14114445Y39240214D01*
X-14106875Y39222733D01*
X-14101118Y39203911D01*
X-14097109Y39183972D01*
X-14094780Y39163138D01*
X-14094068Y39141633D01*
X-14094905Y39119681D01*
X-14097226Y39097503D01*
X-14100965Y39075325D01*
X-14106056Y39053369D01*
X-14112433Y39031857D01*
X-14120030Y39011015D01*
X-14128781Y38991064D01*
X-14138621Y38972228D01*
X-14149484Y38954730D01*
X-14161303Y38938794D01*
X-14174013Y38924643D01*
X-14187548Y38912500D01*
X-14201842Y38902588D01*
X-14216829Y38895131D01*
X-14232443Y38890351D01*
X-14248619Y38888473D01*
X-14265290Y38889719D01*
X-14282390Y38894313D01*
X-14299855Y38902477D01*
X-14317617Y38914436D01*
X-14333739Y38927564D01*
X-14348732Y38940960D01*
X-14362585Y38954592D01*
X-14375288Y38968427D01*
X-14386832Y38982432D01*
X-14397207Y38996576D01*
X-14406402Y39010825D01*
X-14414407Y39025148D01*
X-14421213Y39039511D01*
X-14426809Y39053882D01*
X-14431186Y39068229D01*
X-14434334Y39082519D01*
X-14436242Y39096719D01*
X-14436901Y39110798D01*
X-14436301Y39124722D01*
X-14434431Y39138459D01*
X-14431282Y39151976D01*
X-14426843Y39165241D01*
X-14421106Y39178222D01*
X-14414059Y39190886D01*
X-14405693Y39203200D01*
X-14395997Y39215132D01*
X-14384963Y39226650D01*
X-14372579Y39237720D01*
X-14358836Y39248311D01*
X-14343724Y39258389D01*
X-14327233Y39267923D01*
X-14309352Y39276879D01*
X-14290073Y39285226D01*
X-14269385Y39292931D01*
X-14247277Y39299961D01*
X-14223741Y39306283D01*
X-14201633Y39304439D01*
G37*
G36*
X-16670542Y38717599D02*
G01*
X-16648387Y38715914D01*
X-16626555Y38713140D01*
X-16605071Y38709303D01*
X-16583964Y38704432D01*
X-16563261Y38698553D01*
X-16542990Y38691694D01*
X-16523177Y38683883D01*
X-16503851Y38675146D01*
X-16485039Y38665512D01*
X-16466768Y38655007D01*
X-16449066Y38643659D01*
X-16431960Y38631495D01*
X-16415478Y38618544D01*
X-16399646Y38604831D01*
X-16384493Y38590385D01*
X-16370046Y38575233D01*
X-16356332Y38559403D01*
X-16343379Y38542921D01*
X-16331214Y38525815D01*
X-16319864Y38508113D01*
X-16309357Y38489842D01*
X-16299721Y38471030D01*
X-16290983Y38451703D01*
X-16283170Y38431889D01*
X-16276310Y38411617D01*
X-16270430Y38390912D01*
X-16265558Y38369802D01*
X-16261720Y38348315D01*
X-16258945Y38326479D01*
X-16257260Y38304320D01*
X-16256692Y38281866D01*
X-16257260Y38259417D01*
X-16258945Y38237263D01*
X-16261720Y38215430D01*
X-16265558Y38193947D01*
X-16270430Y38172840D01*
X-16276310Y38152137D01*
X-16283170Y38131866D01*
X-16290983Y38112053D01*
X-16299721Y38092727D01*
X-16309357Y38073915D01*
X-16319864Y38055644D01*
X-16331214Y38037942D01*
X-16343379Y38020836D01*
X-16356332Y38004354D01*
X-16370046Y37988522D01*
X-16384493Y37973369D01*
X-16399646Y37958922D01*
X-16415478Y37945208D01*
X-16431960Y37932254D01*
X-16449066Y37920089D01*
X-16466768Y37908740D01*
X-16485039Y37898233D01*
X-16503851Y37888597D01*
X-16523177Y37879859D01*
X-16542990Y37872046D01*
X-16561188Y37865887D01*
X-16584451Y37861927D01*
X-16629459Y37857043D01*
X-16674177Y37854198D01*
X-16718518Y37853511D01*
X-16762393Y37855101D01*
X-16798025Y37858379D01*
X-16802036Y37859305D01*
X-16822741Y37865185D01*
X-16843014Y37872045D01*
X-16862827Y37879858D01*
X-16882154Y37888596D01*
X-16900966Y37898233D01*
X-16919237Y37908739D01*
X-16936939Y37920089D01*
X-16954045Y37932254D01*
X-16970526Y37945207D01*
X-16986357Y37958921D01*
X-17001508Y37973368D01*
X-17015954Y37988521D01*
X-17029667Y38004353D01*
X-17042618Y38020835D01*
X-17054782Y38037941D01*
X-17066129Y38055643D01*
X-17076634Y38073914D01*
X-17086269Y38092726D01*
X-17095005Y38112052D01*
X-17102816Y38131865D01*
X-17109675Y38152136D01*
X-17115554Y38172839D01*
X-17120425Y38193946D01*
X-17124262Y38215430D01*
X-17127036Y38237262D01*
X-17128721Y38259417D01*
X-17129288Y38281866D01*
X-17128721Y38304320D01*
X-17127036Y38326479D01*
X-17124262Y38348315D01*
X-17120425Y38369802D01*
X-17115554Y38390912D01*
X-17109675Y38411617D01*
X-17102816Y38431889D01*
X-17095005Y38451703D01*
X-17086269Y38471030D01*
X-17076634Y38489842D01*
X-17066129Y38508113D01*
X-17054782Y38525815D01*
X-17042618Y38542921D01*
X-17029667Y38559403D01*
X-17015954Y38575233D01*
X-17001508Y38590385D01*
X-16986357Y38604831D01*
X-16970526Y38618544D01*
X-16954045Y38631495D01*
X-16936939Y38643659D01*
X-16919237Y38655007D01*
X-16900966Y38665512D01*
X-16882154Y38675146D01*
X-16862827Y38683883D01*
X-16843014Y38691694D01*
X-16822741Y38698553D01*
X-16802036Y38704432D01*
X-16780927Y38709303D01*
X-16759440Y38713140D01*
X-16737604Y38715914D01*
X-16715445Y38717599D01*
X-16692991Y38718167D01*
X-16670542Y38717599D01*
G37*
G36*
X-16891537Y37544441D02*
G01*
X-16855324Y37539760D01*
X-16818949Y37536133D01*
X-16782433Y37533542D01*
X-16745792Y37531970D01*
X-16709046Y37531402D01*
X-16672212Y37531819D01*
X-16635311Y37533205D01*
X-16741862Y37458648D01*
X-16848787Y37380588D01*
X-16955988Y37299170D01*
X-17063369Y37214541D01*
X-17278280Y37036231D01*
X-17492746Y36846823D01*
X-17705992Y36647483D01*
X-17917242Y36439377D01*
X-18125722Y36223671D01*
X-18330656Y36001530D01*
X-18492201Y35952550D01*
X-18571403Y35925944D01*
X-18649447Y35897927D01*
X-18726248Y35868503D01*
X-18801724Y35837670D01*
X-18875791Y35805431D01*
X-18948365Y35771787D01*
X-19019362Y35736738D01*
X-19088700Y35700285D01*
X-19156294Y35662430D01*
X-19222061Y35623173D01*
X-19285918Y35582516D01*
X-19347780Y35540459D01*
X-19407565Y35497004D01*
X-19465189Y35452151D01*
X-19461644Y35470686D01*
X-19457637Y35488862D01*
X-19453166Y35506680D01*
X-19448229Y35524139D01*
X-19442826Y35541238D01*
X-19436956Y35557977D01*
X-19430616Y35574355D01*
X-19423807Y35590372D01*
X-19363537Y35689646D01*
X-19288240Y35795118D01*
X-19198402Y35906123D01*
X-19094507Y36021996D01*
X-18977038Y36142071D01*
X-18846481Y36265686D01*
X-18703319Y36392173D01*
X-18548037Y36520870D01*
X-18381119Y36651111D01*
X-18203049Y36782231D01*
X-18014312Y36913566D01*
X-17815392Y37044450D01*
X-17606774Y37174220D01*
X-17388941Y37302210D01*
X-17162379Y37427755D01*
X-16927570Y37550191D01*
X-16891537Y37544441D01*
G37*
G36*
X-20313709Y29788615D02*
G01*
X-20285549Y29702209D01*
X-20245023Y29607656D01*
X-20193587Y29506723D01*
X-20132695Y29401178D01*
X-20063802Y29292790D01*
X-19988363Y29183326D01*
X-19907831Y29074554D01*
X-19823663Y28968244D01*
X-19737313Y28866162D01*
X-19650234Y28770077D01*
X-19563883Y28681756D01*
X-19479714Y28602969D01*
X-19399182Y28535483D01*
X-19323740Y28481066D01*
X-19254845Y28441487D01*
X-19249104Y28530979D01*
X-19241521Y28620263D01*
X-19231729Y28708980D01*
X-19219366Y28796768D01*
X-19204065Y28883267D01*
X-19185463Y28968114D01*
X-19174810Y29009806D01*
X-19163195Y29050951D01*
X-19150572Y29091502D01*
X-19136895Y29131414D01*
X-18829750Y28795176D01*
X-18668004Y28624785D01*
X-18585006Y28540618D01*
X-18500558Y28457745D01*
X-18414639Y28376622D01*
X-18327224Y28297706D01*
X-18238289Y28221451D01*
X-18147812Y28148315D01*
X-18055769Y28078753D01*
X-17962135Y28013222D01*
X-17866888Y27952177D01*
X-17770004Y27896075D01*
X-17785566Y27982091D01*
X-17797542Y28060212D01*
X-17806257Y28132961D01*
X-17812033Y28202859D01*
X-17815195Y28272430D01*
X-17816066Y28344196D01*
X-17814970Y28420680D01*
X-17812232Y28504404D01*
X-17765483Y28429514D01*
X-17711125Y28349403D01*
X-17649640Y28265049D01*
X-17581511Y28177427D01*
X-17507219Y28087517D01*
X-17427246Y27996296D01*
X-17342075Y27904740D01*
X-17252187Y27813828D01*
X-17158066Y27724537D01*
X-17060192Y27637845D01*
X-16959049Y27554728D01*
X-16855117Y27476165D01*
X-16748880Y27403133D01*
X-16640820Y27336609D01*
X-16531418Y27277571D01*
X-16476365Y27251165D01*
X-16421158Y27226996D01*
X-16534336Y27267370D01*
X-16638380Y27306446D01*
X-16733969Y27344477D01*
X-16821783Y27381716D01*
X-16902499Y27418416D01*
X-16976798Y27454829D01*
X-17045357Y27491209D01*
X-17108856Y27527808D01*
X-17167975Y27564879D01*
X-17223391Y27602674D01*
X-17275783Y27641447D01*
X-17325832Y27681450D01*
X-17374215Y27722936D01*
X-17421612Y27766158D01*
X-17516163Y27858820D01*
X-17507517Y27830744D01*
X-17498790Y27804164D01*
X-17489966Y27778878D01*
X-17481025Y27754682D01*
X-17462721Y27708754D01*
X-17443734Y27664757D01*
X-17403128Y27576071D01*
X-17381220Y27528140D01*
X-17358049Y27475653D01*
X-17494679Y27528050D01*
X-17622559Y27581358D01*
X-17742598Y27635968D01*
X-17855703Y27692271D01*
X-17962784Y27750656D01*
X-18064748Y27811513D01*
X-18162503Y27875233D01*
X-18256957Y27942205D01*
X-18349019Y28012820D01*
X-18439597Y28087468D01*
X-18529599Y28166538D01*
X-18619933Y28250421D01*
X-18711507Y28339507D01*
X-18805229Y28434186D01*
X-19002752Y28641882D01*
X-19008871Y28592322D01*
X-19013816Y28544619D01*
X-19017652Y28498518D01*
X-19020446Y28453766D01*
X-19023168Y28367296D01*
X-19022503Y28283179D01*
X-19018977Y28199387D01*
X-19013111Y28113892D01*
X-18996456Y27929677D01*
X-19121628Y28026573D01*
X-19242207Y28123171D01*
X-19357980Y28220224D01*
X-19468731Y28318483D01*
X-19574247Y28418699D01*
X-19674313Y28521623D01*
X-19768715Y28628007D01*
X-19857237Y28738601D01*
X-19939666Y28854158D01*
X-20015788Y28975428D01*
X-20085388Y29103163D01*
X-20117675Y29169690D01*
X-20148251Y29238114D01*
X-20177089Y29308531D01*
X-20204163Y29381033D01*
X-20229445Y29455714D01*
X-20252909Y29532670D01*
X-20274529Y29611992D01*
X-20294276Y29693776D01*
X-20312125Y29778116D01*
X-20315456Y29796311D01*
X-20313709Y29788615D01*
G37*
G36*
X-11480860Y20182256D02*
G01*
X-11096844Y20223791D01*
X-10746437Y20249246D01*
X-10736657Y20276974D01*
X-10705183Y20383423D01*
X-10679198Y20491518D01*
X-10658700Y20601260D01*
X-10643691Y20712648D01*
X-10634171Y20825683D01*
X-10630139Y20940365D01*
X-10631596Y21056694D01*
X-10638542Y21174670D01*
X-10650976Y21294294D01*
X-10658258Y21343566D01*
X-10324997Y21343566D01*
X-10242119Y21373012D01*
X-10159414Y21403956D01*
X-10076937Y21436389D01*
X-9994744Y21470300D01*
X-9782209Y21565419D01*
X-9572716Y21670062D01*
X-9367105Y21783906D01*
X-9166216Y21906630D01*
X-9077682Y21966134D01*
X-9124328Y21963569D01*
X-9421947Y21939578D01*
X-9719186Y21908388D01*
X-10014591Y21870490D01*
X-10059563Y21863698D01*
X-10098622Y21846909D01*
X-10154382Y21824417D01*
X-10210698Y21802353D01*
X-10267570Y21780726D01*
X-10324997Y21759545D01*
X-10324997Y21343566D01*
X-10658258Y21343566D01*
X-10668899Y21415565D01*
X-10692312Y21538484D01*
X-10721213Y21663050D01*
X-10744079Y21746971D01*
X-10594085Y21776528D01*
X-10306709Y21826373D01*
X-10059563Y21863698D01*
X-9920010Y21923684D01*
X-9747517Y22005144D01*
X-9581191Y22091274D01*
X-9561808Y22102265D01*
X-9526763Y22106214D01*
X-9202360Y22134401D01*
X-8878707Y22153722D01*
X-8811262Y22155788D01*
X-8781960Y22177426D01*
X-8600273Y22324854D01*
X-8585073Y22338426D01*
X-8537488Y22339732D01*
X-8238179Y22339135D01*
X-8151388Y22336306D01*
X-8066741Y22330954D01*
X-7984247Y22323137D01*
X-7903916Y22312914D01*
X-7825761Y22300344D01*
X-7749791Y22285486D01*
X-7676017Y22268398D01*
X-7604449Y22249139D01*
X-7535100Y22227768D01*
X-7467978Y22204343D01*
X-7403096Y22178924D01*
X-7340463Y22151569D01*
X-7280090Y22122338D01*
X-7221988Y22091287D01*
X-7166168Y22058478D01*
X-7112641Y22023967D01*
X-7054358Y21982598D01*
X-6999057Y21939208D01*
X-6946750Y21893879D01*
X-6897449Y21846692D01*
X-6851167Y21797728D01*
X-6807916Y21747068D01*
X-6767708Y21694792D01*
X-6730557Y21640982D01*
X-6696474Y21585718D01*
X-6665472Y21529081D01*
X-6637562Y21471153D01*
X-6612759Y21412014D01*
X-6591073Y21351745D01*
X-6572517Y21290428D01*
X-6557105Y21228142D01*
X-6544847Y21164969D01*
X-6539156Y21127375D01*
X-6534667Y21089663D01*
X-6531387Y21051864D01*
X-6529323Y21014010D01*
X-6528482Y20976131D01*
X-6528870Y20938259D01*
X-6530495Y20900424D01*
X-6533364Y20862658D01*
X-6538412Y20817909D01*
X-6545248Y20773469D01*
X-6553885Y20729387D01*
X-6564333Y20685713D01*
X-6576605Y20642495D01*
X-6590711Y20599784D01*
X-6606663Y20557629D01*
X-6624473Y20516080D01*
X-6644152Y20475185D01*
X-6665712Y20434995D01*
X-6689163Y20395558D01*
X-6714518Y20356925D01*
X-6741788Y20319144D01*
X-6770984Y20282266D01*
X-6802118Y20246339D01*
X-6835202Y20211413D01*
X-6869097Y20178601D01*
X-6904808Y20146873D01*
X-6942344Y20116277D01*
X-6981713Y20086862D01*
X-7022925Y20058675D01*
X-7065988Y20031766D01*
X-7110911Y20006182D01*
X-7157703Y19981971D01*
X-7206372Y19959183D01*
X-7256928Y19937864D01*
X-7309380Y19918065D01*
X-7363735Y19899832D01*
X-7420004Y19883214D01*
X-7478194Y19868259D01*
X-7538316Y19855017D01*
X-7600377Y19843534D01*
X-7670986Y19833013D01*
X-7744112Y19824756D01*
X-7819769Y19818831D01*
X-7897968Y19815310D01*
X-7978721Y19814261D01*
X-8062042Y19815755D01*
X-8147942Y19819863D01*
X-8236435Y19826654D01*
X-8236435Y19826548D01*
X-8691413Y19854065D01*
X-9376530Y19893670D01*
X-9707716Y19907150D01*
X-10037593Y19913814D01*
X-10370865Y19911709D01*
X-10712238Y19898883D01*
X-11066416Y19873386D01*
X-11438105Y19833266D01*
X-11819743Y19780453D01*
X-12187009Y19720716D01*
X-12541376Y19655190D01*
X-12884319Y19585008D01*
X-13217309Y19511304D01*
X-13541822Y19435211D01*
X-14171306Y19280393D01*
X-15024921Y19073116D01*
X-15450829Y18979777D01*
X-15881890Y18897245D01*
X-16322415Y18828471D01*
X-16547576Y18800167D01*
X-16776720Y18776410D01*
X-17000313Y18758382D01*
X-16764813Y18782205D01*
X-16446178Y18826849D01*
X-16134120Y18881761D01*
X-15827221Y18945605D01*
X-15524065Y19017045D01*
X-15223233Y19094744D01*
X-14622876Y19263581D01*
X-14014813Y19441429D01*
X-13387708Y19617601D01*
X-13063471Y19701719D01*
X-12730223Y19781411D01*
X-12705346Y19864276D01*
X-12683082Y19949400D01*
X-12674580Y19987207D01*
X-12607700Y20000860D01*
X-12247026Y20067357D01*
X-12236807Y20069014D01*
X-10816070Y20069014D01*
X-10488659Y20084702D01*
X-10170313Y20090267D01*
X-9857034Y20087340D01*
X-9544826Y20077552D01*
X-8907631Y20043913D01*
X-8226751Y20002391D01*
X-8119513Y19994403D01*
X-8016475Y19990615D01*
X-7917606Y19990887D01*
X-7822873Y19995079D01*
X-7732243Y20003052D01*
X-7645684Y20014666D01*
X-7563165Y20029780D01*
X-7484653Y20048255D01*
X-7410115Y20069950D01*
X-7339520Y20094727D01*
X-7272835Y20122444D01*
X-7210028Y20152962D01*
X-7151067Y20186141D01*
X-7095919Y20221842D01*
X-7044553Y20259923D01*
X-6996935Y20300246D01*
X-6953035Y20342670D01*
X-6912819Y20387055D01*
X-6876255Y20433262D01*
X-6843312Y20481150D01*
X-6813956Y20530580D01*
X-6788156Y20581411D01*
X-6765880Y20633504D01*
X-6747094Y20686719D01*
X-6731768Y20740915D01*
X-6719868Y20795954D01*
X-6711363Y20851694D01*
X-6706220Y20907996D01*
X-6704407Y20964721D01*
X-6705892Y21021727D01*
X-6718625Y21136027D01*
X-6728676Y21188037D01*
X-6741239Y21239371D01*
X-6756305Y21289968D01*
X-6773866Y21339768D01*
X-6793911Y21388709D01*
X-6816432Y21436731D01*
X-6841420Y21483772D01*
X-6868865Y21529773D01*
X-6898759Y21574672D01*
X-6931092Y21618408D01*
X-6965854Y21660920D01*
X-7003038Y21702148D01*
X-7042633Y21742031D01*
X-7084630Y21780508D01*
X-7129020Y21817518D01*
X-7175795Y21853000D01*
X-7224945Y21886894D01*
X-7276460Y21919138D01*
X-7330332Y21949672D01*
X-7386551Y21978435D01*
X-7445108Y22005366D01*
X-7505994Y22030404D01*
X-7569200Y22053489D01*
X-7634717Y22074559D01*
X-7702535Y22093554D01*
X-7772646Y22110413D01*
X-7845040Y22125074D01*
X-7919707Y22137478D01*
X-7996640Y22147564D01*
X-8075828Y22155269D01*
X-8157263Y22160535D01*
X-8240935Y22163299D01*
X-8557625Y22163560D01*
X-8811262Y22155788D01*
X-8970887Y22037911D01*
X-9077682Y21966134D01*
X-8827784Y21979872D01*
X-8533769Y21987997D01*
X-8243736Y21987454D01*
X-8170682Y21985108D01*
X-8099560Y21980720D01*
X-8030373Y21974340D01*
X-7963130Y21966012D01*
X-7897834Y21955787D01*
X-7834493Y21943709D01*
X-7773112Y21929828D01*
X-7713697Y21914190D01*
X-7656254Y21896844D01*
X-7600789Y21877835D01*
X-7547308Y21857213D01*
X-7495816Y21835024D01*
X-7446320Y21811315D01*
X-7398825Y21786135D01*
X-7353338Y21759530D01*
X-7309864Y21731548D01*
X-7266864Y21701066D01*
X-7226078Y21669172D01*
X-7187513Y21635924D01*
X-7151179Y21601380D01*
X-7117084Y21565599D01*
X-7085238Y21528639D01*
X-7055649Y21490557D01*
X-7028326Y21451414D01*
X-7003279Y21411267D01*
X-6980516Y21370173D01*
X-6960046Y21328193D01*
X-6941878Y21285384D01*
X-6926021Y21241804D01*
X-6912483Y21197512D01*
X-6901275Y21152567D01*
X-6892404Y21107025D01*
X-6888303Y21080028D01*
X-6885051Y21053102D01*
X-6882653Y21026272D01*
X-6881115Y20999560D01*
X-6880443Y20972989D01*
X-6880641Y20946583D01*
X-6881717Y20920364D01*
X-6883674Y20894355D01*
X-6887046Y20864446D01*
X-6891609Y20834749D01*
X-6897372Y20805296D01*
X-6904341Y20776121D01*
X-6912525Y20747256D01*
X-6921930Y20718736D01*
X-6932564Y20690592D01*
X-6944435Y20662857D01*
X-6957550Y20635566D01*
X-6971916Y20608750D01*
X-6987541Y20582443D01*
X-7004432Y20556678D01*
X-7022597Y20531488D01*
X-7042043Y20506906D01*
X-7062778Y20482965D01*
X-7084809Y20459697D01*
X-7109284Y20436070D01*
X-7135230Y20413194D01*
X-7162656Y20391104D01*
X-7191572Y20369834D01*
X-7221988Y20349419D01*
X-7253913Y20329893D01*
X-7287358Y20311290D01*
X-7322331Y20293645D01*
X-7358843Y20276992D01*
X-7396903Y20261365D01*
X-7436522Y20246800D01*
X-7477707Y20233330D01*
X-7520470Y20220990D01*
X-7564820Y20209814D01*
X-7610767Y20199837D01*
X-7658320Y20191093D01*
X-7719200Y20182042D01*
X-7782392Y20174972D01*
X-7847911Y20169943D01*
X-7915772Y20167017D01*
X-7985989Y20166253D01*
X-8058577Y20167712D01*
X-8133552Y20171456D01*
X-8210928Y20177546D01*
X-8217119Y20178234D01*
X-8670722Y20205748D01*
X-9367173Y20245953D01*
X-9704406Y20259559D01*
X-10040983Y20266155D01*
X-10381912Y20263732D01*
X-10732197Y20250280D01*
X-10746437Y20249246D01*
X-10773620Y20172171D01*
X-10816070Y20069014D01*
X-12236807Y20069014D01*
X-11871983Y20128193D01*
X-11480860Y20182256D01*
G37*
G36*
X-13658286Y39869751D02*
G01*
X-13638452Y39865008D01*
X-13620827Y39857584D01*
X-13605344Y39847702D01*
X-13591937Y39835585D01*
X-13580541Y39821458D01*
X-13571091Y39805542D01*
X-13563519Y39788062D01*
X-13557760Y39769241D01*
X-13553749Y39749302D01*
X-13551419Y39728469D01*
X-13550704Y39706963D01*
X-13551540Y39685010D01*
X-13553859Y39662832D01*
X-13557596Y39640653D01*
X-13562686Y39618695D01*
X-13569062Y39597183D01*
X-13576658Y39576339D01*
X-13585408Y39556386D01*
X-13595248Y39537548D01*
X-13606110Y39520049D01*
X-13617929Y39504111D01*
X-13630640Y39489958D01*
X-13644175Y39477813D01*
X-13658470Y39467900D01*
X-13673459Y39460441D01*
X-13689075Y39455660D01*
X-13705253Y39453781D01*
X-13721928Y39455026D01*
X-13739032Y39459619D01*
X-13756500Y39467783D01*
X-13774267Y39479741D01*
X-13790385Y39492874D01*
X-13805374Y39506274D01*
X-13819223Y39519909D01*
X-13831924Y39533747D01*
X-13843465Y39547755D01*
X-13853838Y39561901D01*
X-13863031Y39576152D01*
X-13871035Y39590476D01*
X-13877841Y39604840D01*
X-13883437Y39619212D01*
X-13887814Y39633559D01*
X-13890962Y39647849D01*
X-13892870Y39662049D01*
X-13893530Y39676126D01*
X-13892931Y39690049D01*
X-13891062Y39703785D01*
X-13887914Y39717301D01*
X-13883477Y39730565D01*
X-13877741Y39743545D01*
X-13870696Y39756207D01*
X-13862331Y39768520D01*
X-13852638Y39780450D01*
X-13841605Y39791966D01*
X-13829223Y39803035D01*
X-13815482Y39813624D01*
X-13800371Y39823701D01*
X-13783881Y39833233D01*
X-13766002Y39842189D01*
X-13746724Y39850535D01*
X-13726037Y39858239D01*
X-13703930Y39865268D01*
X-13680394Y39871590D01*
X-13658286Y39869751D01*
G37*
G36*
X-16012022Y35497126D02*
G01*
X-15823254Y35444373D01*
X-15817435Y35441820D01*
X-15812166Y35438934D01*
X-15807435Y35435746D01*
X-15803231Y35432287D01*
X-15799543Y35428587D01*
X-15796361Y35424678D01*
X-15793672Y35420589D01*
X-15791467Y35416351D01*
X-15789735Y35411995D01*
X-15788463Y35407552D01*
X-15787642Y35403052D01*
X-15787259Y35398527D01*
X-15787305Y35394006D01*
X-15787768Y35389520D01*
X-15788638Y35385101D01*
X-15789902Y35380778D01*
X-15791551Y35376583D01*
X-15793573Y35372546D01*
X-15795957Y35368698D01*
X-15798692Y35365069D01*
X-15801767Y35361690D01*
X-15805172Y35358593D01*
X-15808894Y35355806D01*
X-15812924Y35353362D01*
X-15817250Y35351291D01*
X-15821861Y35349623D01*
X-15826746Y35348390D01*
X-15831894Y35347621D01*
X-15837294Y35347349D01*
X-15842935Y35347602D01*
X-15848807Y35348412D01*
X-15854897Y35349810D01*
X-16030306Y35402119D01*
X-16095831Y35417237D01*
X-16096161Y35418130D01*
X-16100713Y35431294D01*
X-16108976Y35457859D01*
X-16116108Y35484690D01*
X-16122099Y35511728D01*
X-16123700Y35520721D01*
X-16012022Y35497126D01*
G37*
G36*
X-16112598Y35982618D02*
G01*
X-16031333Y35962484D01*
X-16034131Y35958983D01*
X-16048192Y35939292D01*
X-16061147Y35918946D01*
X-16073005Y35897989D01*
X-16083773Y35876471D01*
X-16093458Y35854436D01*
X-16102069Y35831934D01*
X-16106369Y35819361D01*
X-16107647Y35815296D01*
X-16153135Y35825423D01*
X-16305730Y35849792D01*
X-16301479Y35864585D01*
X-16296146Y35881569D01*
X-16290400Y35898397D01*
X-16279051Y35928205D01*
X-16266392Y35957444D01*
X-16252413Y35986063D01*
X-16242316Y36004498D01*
X-16112598Y35982618D01*
G37*
G36*
X-15877698Y36020553D02*
G01*
X-15662282Y35953060D01*
X-15662282Y35953062D01*
X-15657843Y35951004D01*
X-15653765Y35948552D01*
X-15650048Y35945740D01*
X-15646692Y35942603D01*
X-15643697Y35939175D01*
X-15641062Y35935490D01*
X-15638789Y35931581D01*
X-15636876Y35927482D01*
X-15635325Y35923228D01*
X-15634134Y35918852D01*
X-15633305Y35914388D01*
X-15632838Y35909870D01*
X-15632731Y35905333D01*
X-15632986Y35900810D01*
X-15633602Y35896335D01*
X-15634580Y35891942D01*
X-15635919Y35887664D01*
X-15637620Y35883537D01*
X-15639682Y35879594D01*
X-15642106Y35875868D01*
X-15644892Y35872395D01*
X-15648040Y35869207D01*
X-15651549Y35866338D01*
X-15655421Y35863823D01*
X-15659654Y35861696D01*
X-15664250Y35859991D01*
X-15669208Y35858740D01*
X-15674527Y35857980D01*
X-15680209Y35857742D01*
X-15686254Y35858062D01*
X-15692660Y35858973D01*
X-15699429Y35860509D01*
X-15895254Y35928769D01*
X-16031333Y35962484D01*
X-16018956Y35977971D01*
X-16002659Y35996209D01*
X-15985234Y36013649D01*
X-15966671Y36030247D01*
X-15956101Y36038670D01*
X-15877698Y36020553D01*
G37*
G36*
X-14287629Y39944947D02*
G01*
X-14267799Y39940204D01*
X-14250178Y39932781D01*
X-14234699Y39922900D01*
X-14221296Y39910784D01*
X-14209904Y39896658D01*
X-14200456Y39880744D01*
X-14192888Y39863266D01*
X-14187132Y39844446D01*
X-14183123Y39824509D01*
X-14180795Y39803677D01*
X-14180083Y39782173D01*
X-14180920Y39760222D01*
X-14183241Y39738045D01*
X-14186980Y39715867D01*
X-14192071Y39693911D01*
X-14198448Y39672400D01*
X-14206045Y39651557D01*
X-14214796Y39631605D01*
X-14224637Y39612768D01*
X-14235500Y39595269D01*
X-14247319Y39579331D01*
X-14260030Y39565178D01*
X-14273566Y39553032D01*
X-14287861Y39543118D01*
X-14302850Y39535658D01*
X-14318467Y39530875D01*
X-14334645Y39528994D01*
X-14351319Y39530236D01*
X-14368423Y39534826D01*
X-14385891Y39542986D01*
X-14403658Y39554940D01*
X-14419775Y39568073D01*
X-14434763Y39581473D01*
X-14448612Y39595109D01*
X-14461312Y39608948D01*
X-14472852Y39622957D01*
X-14483223Y39637104D01*
X-14492414Y39651356D01*
X-14500417Y39665681D01*
X-14507220Y39680047D01*
X-14512814Y39694420D01*
X-14517189Y39708769D01*
X-14520335Y39723060D01*
X-14522241Y39737261D01*
X-14522898Y39751340D01*
X-14522297Y39765265D01*
X-14520426Y39779002D01*
X-14517275Y39792519D01*
X-14512836Y39805784D01*
X-14507098Y39818764D01*
X-14500050Y39831427D01*
X-14491683Y39843740D01*
X-14481988Y39855670D01*
X-14470953Y39867185D01*
X-14458569Y39878253D01*
X-14444826Y39888841D01*
X-14429714Y39898917D01*
X-14413223Y39908447D01*
X-14395343Y39917400D01*
X-14376063Y39925743D01*
X-14355375Y39933443D01*
X-14333268Y39940468D01*
X-14309732Y39946786D01*
X-14287629Y39944947D01*
G37*
G36*
X-16575000Y39795000D02*
G01*
X-16552894Y39787975D01*
X-16532206Y39780274D01*
X-16512928Y39771931D01*
X-16495049Y39762978D01*
X-16478559Y39753448D01*
X-16463449Y39743372D01*
X-16449707Y39732784D01*
X-16437325Y39721716D01*
X-16426292Y39710201D01*
X-16416599Y39698270D01*
X-16408234Y39685957D01*
X-16401189Y39673295D01*
X-16395453Y39660315D01*
X-16391016Y39647050D01*
X-16387868Y39633533D01*
X-16385999Y39619795D01*
X-16385400Y39605871D01*
X-16386059Y39591792D01*
X-16387968Y39577590D01*
X-16391116Y39563299D01*
X-16395493Y39548950D01*
X-16401089Y39534577D01*
X-16407894Y39520211D01*
X-16415898Y39505886D01*
X-16425091Y39491634D01*
X-16435464Y39477487D01*
X-16447005Y39463477D01*
X-16459705Y39449638D01*
X-16473555Y39436002D01*
X-16488543Y39422602D01*
X-16504661Y39409469D01*
X-16522427Y39397510D01*
X-16539896Y39389346D01*
X-16557000Y39384753D01*
X-16573674Y39383508D01*
X-16589852Y39385387D01*
X-16605469Y39390168D01*
X-16620457Y39397627D01*
X-16634752Y39407540D01*
X-16648288Y39419685D01*
X-16660998Y39433838D01*
X-16672817Y39449776D01*
X-16683680Y39467275D01*
X-16693519Y39486113D01*
X-16702270Y39506065D01*
X-16709866Y39526910D01*
X-16716241Y39548422D01*
X-16721331Y39570380D01*
X-16725068Y39592560D01*
X-16727387Y39614738D01*
X-16728223Y39636691D01*
X-16727509Y39658196D01*
X-16725179Y39679030D01*
X-16721168Y39698969D01*
X-16715409Y39717790D01*
X-16707837Y39735270D01*
X-16698387Y39751185D01*
X-16686991Y39765313D01*
X-16673585Y39777429D01*
X-16658103Y39787311D01*
X-16640477Y39794736D01*
X-16620644Y39799479D01*
X-16598536Y39801318D01*
X-16575000Y39795000D01*
G37*
D11*
%TO.C,R20*%
X13087380Y36727858D02*
X12611190Y37061191D01*
X13087380Y37299286D02*
X12087380Y37299286D01*
X12087380Y36918334D01*
X12135000Y36823096D01*
X12182619Y36775477D01*
X12277857Y36727858D01*
X12420714Y36727858D01*
X12515952Y36775477D01*
X12563571Y36823096D01*
X12611190Y36918334D01*
X12611190Y37299286D01*
X12182619Y36346905D02*
X12135000Y36299286D01*
X12087380Y36204048D01*
X12087380Y35965953D01*
X12135000Y35870715D01*
X12182619Y35823096D01*
X12277857Y35775477D01*
X12373095Y35775477D01*
X12515952Y35823096D01*
X13087380Y36394524D01*
X13087380Y35775477D01*
X12087380Y35156429D02*
X12087380Y35061191D01*
X12135000Y34965953D01*
X12182619Y34918334D01*
X12277857Y34870715D01*
X12468333Y34823096D01*
X12706428Y34823096D01*
X12896904Y34870715D01*
X12992142Y34918334D01*
X13039761Y34965953D01*
X13087380Y35061191D01*
X13087380Y35156429D01*
X13039761Y35251667D01*
X12992142Y35299286D01*
X12896904Y35346905D01*
X12706428Y35394524D01*
X12468333Y35394524D01*
X12277857Y35346905D01*
X12182619Y35299286D01*
X12135000Y35251667D01*
X12087380Y35156429D01*
%TO.C,C31*%
X16907857Y28927858D02*
X16955476Y28880239D01*
X17098333Y28832620D01*
X17193571Y28832620D01*
X17336428Y28880239D01*
X17431666Y28975477D01*
X17479285Y29070715D01*
X17526904Y29261191D01*
X17526904Y29404048D01*
X17479285Y29594524D01*
X17431666Y29689762D01*
X17336428Y29785000D01*
X17193571Y29832620D01*
X17098333Y29832620D01*
X16955476Y29785000D01*
X16907857Y29737381D01*
X16574523Y29832620D02*
X15955476Y29832620D01*
X16288809Y29451667D01*
X16145952Y29451667D01*
X16050714Y29404048D01*
X16003095Y29356429D01*
X15955476Y29261191D01*
X15955476Y29023096D01*
X16003095Y28927858D01*
X16050714Y28880239D01*
X16145952Y28832620D01*
X16431666Y28832620D01*
X16526904Y28880239D01*
X16574523Y28927858D01*
X15003095Y28832620D02*
X15574523Y28832620D01*
X15288809Y28832620D02*
X15288809Y29832620D01*
X15384047Y29689762D01*
X15479285Y29594524D01*
X15574523Y29546905D01*
%TO.C,L3*%
X14617380Y22651667D02*
X14617380Y23127858D01*
X13617380Y23127858D01*
X13617380Y22413572D02*
X13617380Y21794524D01*
X13998333Y22127858D01*
X13998333Y21985000D01*
X14045952Y21889762D01*
X14093571Y21842143D01*
X14188809Y21794524D01*
X14426904Y21794524D01*
X14522142Y21842143D01*
X14569761Y21889762D01*
X14617380Y21985000D01*
X14617380Y22270715D01*
X14569761Y22365953D01*
X14522142Y22413572D01*
%TO.C,R4*%
X16107380Y24891667D02*
X15631190Y25225000D01*
X16107380Y25463096D02*
X15107380Y25463096D01*
X15107380Y25082143D01*
X15155000Y24986905D01*
X15202619Y24939286D01*
X15297857Y24891667D01*
X15440714Y24891667D01*
X15535952Y24939286D01*
X15583571Y24986905D01*
X15631190Y25082143D01*
X15631190Y25463096D01*
X15440714Y24034524D02*
X16107380Y24034524D01*
X15059761Y24272620D02*
X15774047Y24510715D01*
X15774047Y23891667D01*
%TO.C,L7*%
X10341666Y38252620D02*
X10817857Y38252620D01*
X10817857Y39252620D01*
X10103571Y39252620D02*
X9436904Y39252620D01*
X9865476Y38252620D01*
%TO.C,U3*%
X-3353096Y30792620D02*
X-3353096Y29983096D01*
X-3400715Y29887858D01*
X-3448334Y29840239D01*
X-3543572Y29792620D01*
X-3734048Y29792620D01*
X-3829286Y29840239D01*
X-3876905Y29887858D01*
X-3924524Y29983096D01*
X-3924524Y30792620D01*
X-4305477Y30792620D02*
X-4924524Y30792620D01*
X-4591191Y30411667D01*
X-4734048Y30411667D01*
X-4829286Y30364048D01*
X-4876905Y30316429D01*
X-4924524Y30221191D01*
X-4924524Y29983096D01*
X-4876905Y29887858D01*
X-4829286Y29840239D01*
X-4734048Y29792620D01*
X-4448334Y29792620D01*
X-4353096Y29840239D01*
X-4305477Y29887858D01*
%TO.C,C9*%
X14331666Y31327858D02*
X14379285Y31280239D01*
X14522142Y31232620D01*
X14617380Y31232620D01*
X14760238Y31280239D01*
X14855476Y31375477D01*
X14903095Y31470715D01*
X14950714Y31661191D01*
X14950714Y31804048D01*
X14903095Y31994524D01*
X14855476Y32089762D01*
X14760238Y32185000D01*
X14617380Y32232620D01*
X14522142Y32232620D01*
X14379285Y32185000D01*
X14331666Y32137381D01*
X13855476Y31232620D02*
X13665000Y31232620D01*
X13569761Y31280239D01*
X13522142Y31327858D01*
X13426904Y31470715D01*
X13379285Y31661191D01*
X13379285Y32042143D01*
X13426904Y32137381D01*
X13474523Y32185000D01*
X13569761Y32232620D01*
X13760238Y32232620D01*
X13855476Y32185000D01*
X13903095Y32137381D01*
X13950714Y32042143D01*
X13950714Y31804048D01*
X13903095Y31708810D01*
X13855476Y31661191D01*
X13760238Y31613572D01*
X13569761Y31613572D01*
X13474523Y31661191D01*
X13426904Y31708810D01*
X13379285Y31804048D01*
%TO.C,C1*%
X17512142Y11951667D02*
X17559761Y11999286D01*
X17607380Y12142143D01*
X17607380Y12237381D01*
X17559761Y12380239D01*
X17464523Y12475477D01*
X17369285Y12523096D01*
X17178809Y12570715D01*
X17035952Y12570715D01*
X16845476Y12523096D01*
X16750238Y12475477D01*
X16655000Y12380239D01*
X16607380Y12237381D01*
X16607380Y12142143D01*
X16655000Y11999286D01*
X16702619Y11951667D01*
X17607380Y10999286D02*
X17607380Y11570715D01*
X17607380Y11285000D02*
X16607380Y11285000D01*
X16750238Y11380239D01*
X16845476Y11475477D01*
X16893095Y11570715D01*
%TO.C,C19*%
X19222142Y27727858D02*
X19269761Y27775477D01*
X19317380Y27918334D01*
X19317380Y28013572D01*
X19269761Y28156429D01*
X19174523Y28251667D01*
X19079285Y28299286D01*
X18888809Y28346905D01*
X18745952Y28346905D01*
X18555476Y28299286D01*
X18460238Y28251667D01*
X18365000Y28156429D01*
X18317380Y28013572D01*
X18317380Y27918334D01*
X18365000Y27775477D01*
X18412619Y27727858D01*
X19317380Y26775477D02*
X19317380Y27346905D01*
X19317380Y27061191D02*
X18317380Y27061191D01*
X18460238Y27156429D01*
X18555476Y27251667D01*
X18603095Y27346905D01*
X19317380Y26299286D02*
X19317380Y26108810D01*
X19269761Y26013572D01*
X19222142Y25965953D01*
X19079285Y25870715D01*
X18888809Y25823096D01*
X18507857Y25823096D01*
X18412619Y25870715D01*
X18365000Y25918334D01*
X18317380Y26013572D01*
X18317380Y26204048D01*
X18365000Y26299286D01*
X18412619Y26346905D01*
X18507857Y26394524D01*
X18745952Y26394524D01*
X18841190Y26346905D01*
X18888809Y26299286D01*
X18936428Y26204048D01*
X18936428Y26013572D01*
X18888809Y25918334D01*
X18841190Y25870715D01*
X18745952Y25823096D01*
%TO.C,L8*%
X12091666Y31502620D02*
X12567857Y31502620D01*
X12567857Y32502620D01*
X11615476Y32074048D02*
X11710714Y32121667D01*
X11758333Y32169286D01*
X11805952Y32264524D01*
X11805952Y32312143D01*
X11758333Y32407381D01*
X11710714Y32455000D01*
X11615476Y32502620D01*
X11425000Y32502620D01*
X11329761Y32455000D01*
X11282142Y32407381D01*
X11234523Y32312143D01*
X11234523Y32264524D01*
X11282142Y32169286D01*
X11329761Y32121667D01*
X11425000Y32074048D01*
X11615476Y32074048D01*
X11710714Y32026429D01*
X11758333Y31978810D01*
X11805952Y31883572D01*
X11805952Y31693096D01*
X11758333Y31597858D01*
X11710714Y31550239D01*
X11615476Y31502620D01*
X11425000Y31502620D01*
X11329761Y31550239D01*
X11282142Y31597858D01*
X11234523Y31693096D01*
X11234523Y31883572D01*
X11282142Y31978810D01*
X11329761Y32026429D01*
X11425000Y32074048D01*
%TO.C,C13*%
X18722142Y34727858D02*
X18769761Y34775477D01*
X18817380Y34918334D01*
X18817380Y35013572D01*
X18769761Y35156429D01*
X18674523Y35251667D01*
X18579285Y35299286D01*
X18388809Y35346905D01*
X18245952Y35346905D01*
X18055476Y35299286D01*
X17960238Y35251667D01*
X17865000Y35156429D01*
X17817380Y35013572D01*
X17817380Y34918334D01*
X17865000Y34775477D01*
X17912619Y34727858D01*
X18817380Y33775477D02*
X18817380Y34346905D01*
X18817380Y34061191D02*
X17817380Y34061191D01*
X17960238Y34156429D01*
X18055476Y34251667D01*
X18103095Y34346905D01*
X17817380Y33442143D02*
X17817380Y32823096D01*
X18198333Y33156429D01*
X18198333Y33013572D01*
X18245952Y32918334D01*
X18293571Y32870715D01*
X18388809Y32823096D01*
X18626904Y32823096D01*
X18722142Y32870715D01*
X18769761Y32918334D01*
X18817380Y33013572D01*
X18817380Y33299286D01*
X18769761Y33394524D01*
X18722142Y33442143D01*
%TO.C,C10*%
X18022142Y27727858D02*
X18069761Y27775477D01*
X18117380Y27918334D01*
X18117380Y28013572D01*
X18069761Y28156429D01*
X17974523Y28251667D01*
X17879285Y28299286D01*
X17688809Y28346905D01*
X17545952Y28346905D01*
X17355476Y28299286D01*
X17260238Y28251667D01*
X17165000Y28156429D01*
X17117380Y28013572D01*
X17117380Y27918334D01*
X17165000Y27775477D01*
X17212619Y27727858D01*
X18117380Y26775477D02*
X18117380Y27346905D01*
X18117380Y27061191D02*
X17117380Y27061191D01*
X17260238Y27156429D01*
X17355476Y27251667D01*
X17403095Y27346905D01*
X17117380Y26156429D02*
X17117380Y26061191D01*
X17165000Y25965953D01*
X17212619Y25918334D01*
X17307857Y25870715D01*
X17498333Y25823096D01*
X17736428Y25823096D01*
X17926904Y25870715D01*
X18022142Y25918334D01*
X18069761Y25965953D01*
X18117380Y26061191D01*
X18117380Y26156429D01*
X18069761Y26251667D01*
X18022142Y26299286D01*
X17926904Y26346905D01*
X17736428Y26394524D01*
X17498333Y26394524D01*
X17307857Y26346905D01*
X17212619Y26299286D01*
X17165000Y26251667D01*
X17117380Y26156429D01*
%TO.C,U4*%
X-3403096Y35892620D02*
X-3403096Y35083096D01*
X-3450715Y34987858D01*
X-3498334Y34940239D01*
X-3593572Y34892620D01*
X-3784048Y34892620D01*
X-3879286Y34940239D01*
X-3926905Y34987858D01*
X-3974524Y35083096D01*
X-3974524Y35892620D01*
X-4879286Y35559286D02*
X-4879286Y34892620D01*
X-4641191Y35940239D02*
X-4403096Y35225953D01*
X-5022143Y35225953D01*
%TO.C,C15*%
X14357857Y33602858D02*
X14405476Y33555239D01*
X14548333Y33507620D01*
X14643571Y33507620D01*
X14786428Y33555239D01*
X14881666Y33650477D01*
X14929285Y33745715D01*
X14976904Y33936191D01*
X14976904Y34079048D01*
X14929285Y34269524D01*
X14881666Y34364762D01*
X14786428Y34460000D01*
X14643571Y34507620D01*
X14548333Y34507620D01*
X14405476Y34460000D01*
X14357857Y34412381D01*
X13405476Y33507620D02*
X13976904Y33507620D01*
X13691190Y33507620D02*
X13691190Y34507620D01*
X13786428Y34364762D01*
X13881666Y34269524D01*
X13976904Y34221905D01*
X12500714Y34507620D02*
X12976904Y34507620D01*
X13024523Y34031429D01*
X12976904Y34079048D01*
X12881666Y34126667D01*
X12643571Y34126667D01*
X12548333Y34079048D01*
X12500714Y34031429D01*
X12453095Y33936191D01*
X12453095Y33698096D01*
X12500714Y33602858D01*
X12548333Y33555239D01*
X12643571Y33507620D01*
X12881666Y33507620D01*
X12976904Y33555239D01*
X13024523Y33602858D01*
%TO.C,C2*%
X19312142Y11951667D02*
X19359761Y11999286D01*
X19407380Y12142143D01*
X19407380Y12237381D01*
X19359761Y12380239D01*
X19264523Y12475477D01*
X19169285Y12523096D01*
X18978809Y12570715D01*
X18835952Y12570715D01*
X18645476Y12523096D01*
X18550238Y12475477D01*
X18455000Y12380239D01*
X18407380Y12237381D01*
X18407380Y12142143D01*
X18455000Y11999286D01*
X18502619Y11951667D01*
X18502619Y11570715D02*
X18455000Y11523096D01*
X18407380Y11427858D01*
X18407380Y11189762D01*
X18455000Y11094524D01*
X18502619Y11046905D01*
X18597857Y10999286D01*
X18693095Y10999286D01*
X18835952Y11046905D01*
X19407380Y11618334D01*
X19407380Y10999286D01*
%TO.C,C18*%
X17907857Y46667858D02*
X17955476Y46620239D01*
X18098333Y46572620D01*
X18193571Y46572620D01*
X18336428Y46620239D01*
X18431666Y46715477D01*
X18479285Y46810715D01*
X18526904Y47001191D01*
X18526904Y47144048D01*
X18479285Y47334524D01*
X18431666Y47429762D01*
X18336428Y47525000D01*
X18193571Y47572620D01*
X18098333Y47572620D01*
X17955476Y47525000D01*
X17907857Y47477381D01*
X16955476Y46572620D02*
X17526904Y46572620D01*
X17241190Y46572620D02*
X17241190Y47572620D01*
X17336428Y47429762D01*
X17431666Y47334524D01*
X17526904Y47286905D01*
X16384047Y47144048D02*
X16479285Y47191667D01*
X16526904Y47239286D01*
X16574523Y47334524D01*
X16574523Y47382143D01*
X16526904Y47477381D01*
X16479285Y47525000D01*
X16384047Y47572620D01*
X16193571Y47572620D01*
X16098333Y47525000D01*
X16050714Y47477381D01*
X16003095Y47382143D01*
X16003095Y47334524D01*
X16050714Y47239286D01*
X16098333Y47191667D01*
X16193571Y47144048D01*
X16384047Y47144048D01*
X16479285Y47096429D01*
X16526904Y47048810D01*
X16574523Y46953572D01*
X16574523Y46763096D01*
X16526904Y46667858D01*
X16479285Y46620239D01*
X16384047Y46572620D01*
X16193571Y46572620D01*
X16098333Y46620239D01*
X16050714Y46667858D01*
X16003095Y46763096D01*
X16003095Y46953572D01*
X16050714Y47048810D01*
X16098333Y47096429D01*
X16193571Y47144048D01*
%TO.C,C8*%
X20131666Y31227858D02*
X20179285Y31180239D01*
X20322142Y31132620D01*
X20417380Y31132620D01*
X20560238Y31180239D01*
X20655476Y31275477D01*
X20703095Y31370715D01*
X20750714Y31561191D01*
X20750714Y31704048D01*
X20703095Y31894524D01*
X20655476Y31989762D01*
X20560238Y32085000D01*
X20417380Y32132620D01*
X20322142Y32132620D01*
X20179285Y32085000D01*
X20131666Y32037381D01*
X19560238Y31704048D02*
X19655476Y31751667D01*
X19703095Y31799286D01*
X19750714Y31894524D01*
X19750714Y31942143D01*
X19703095Y32037381D01*
X19655476Y32085000D01*
X19560238Y32132620D01*
X19369761Y32132620D01*
X19274523Y32085000D01*
X19226904Y32037381D01*
X19179285Y31942143D01*
X19179285Y31894524D01*
X19226904Y31799286D01*
X19274523Y31751667D01*
X19369761Y31704048D01*
X19560238Y31704048D01*
X19655476Y31656429D01*
X19703095Y31608810D01*
X19750714Y31513572D01*
X19750714Y31323096D01*
X19703095Y31227858D01*
X19655476Y31180239D01*
X19560238Y31132620D01*
X19369761Y31132620D01*
X19274523Y31180239D01*
X19226904Y31227858D01*
X19179285Y31323096D01*
X19179285Y31513572D01*
X19226904Y31608810D01*
X19274523Y31656429D01*
X19369761Y31704048D01*
%TO.C,C11*%
X10622142Y25727858D02*
X10669761Y25775477D01*
X10717380Y25918334D01*
X10717380Y26013572D01*
X10669761Y26156429D01*
X10574523Y26251667D01*
X10479285Y26299286D01*
X10288809Y26346905D01*
X10145952Y26346905D01*
X9955476Y26299286D01*
X9860238Y26251667D01*
X9765000Y26156429D01*
X9717380Y26013572D01*
X9717380Y25918334D01*
X9765000Y25775477D01*
X9812619Y25727858D01*
X10717380Y24775477D02*
X10717380Y25346905D01*
X10717380Y25061191D02*
X9717380Y25061191D01*
X9860238Y25156429D01*
X9955476Y25251667D01*
X10003095Y25346905D01*
X10717380Y23823096D02*
X10717380Y24394524D01*
X10717380Y24108810D02*
X9717380Y24108810D01*
X9860238Y24204048D01*
X9955476Y24299286D01*
X10003095Y24394524D01*
D12*
%TO.C,R20*%
X13542500Y36322258D02*
X13542500Y35847742D01*
X14587500Y36322258D02*
X14587500Y35847742D01*
%TO.C,C31*%
X15967164Y30215000D02*
X16182836Y30215000D01*
X15967164Y30935000D02*
X16182836Y30935000D01*
%TO.C,L3*%
X13185000Y22662221D02*
X13185000Y22987779D01*
X12165000Y22662221D02*
X12165000Y22987779D01*
%TO.C,R4*%
X14747500Y24487742D02*
X14747500Y24962258D01*
X13702500Y24487742D02*
X13702500Y24962258D01*
%TO.C,L7*%
X10337779Y36765000D02*
X10012221Y36765000D01*
X10337779Y37785000D02*
X10012221Y37785000D01*
%TO.C,U3*%
X-4115000Y29405000D02*
X-2315000Y29405000D01*
X-4115000Y26285000D02*
X-4915000Y26285000D01*
X-4115000Y26285000D02*
X-3315000Y26285000D01*
X-4115000Y29405000D02*
X-4915000Y29405000D01*
%TO.C,C9*%
X15967164Y31985000D02*
X16182836Y31985000D01*
X15967164Y31265000D02*
X16182836Y31265000D01*
%TO.C,C1*%
X17145000Y9992836D02*
X17145000Y9777164D01*
X17865000Y9992836D02*
X17865000Y9777164D01*
%TO.C,C19*%
X16885000Y27532836D02*
X16885000Y27317164D01*
X16165000Y27532836D02*
X16165000Y27317164D01*
%TO.C,L8*%
X12087779Y31035000D02*
X11762221Y31035000D01*
X12087779Y30015000D02*
X11762221Y30015000D01*
%TO.C,C13*%
X17335000Y33984420D02*
X17335000Y34265580D01*
X16315000Y33984420D02*
X16315000Y34265580D01*
%TO.C,C10*%
X15785000Y27532836D02*
X15785000Y27317164D01*
X15065000Y27532836D02*
X15065000Y27317164D01*
%TO.C,U4*%
X-4165000Y34505000D02*
X-4965000Y34505000D01*
X-4165000Y31385000D02*
X-4965000Y31385000D01*
X-4165000Y34505000D02*
X-2365000Y34505000D01*
X-4165000Y31385000D02*
X-3365000Y31385000D01*
%TO.C,C15*%
X15935000Y33467164D02*
X15935000Y33682836D01*
X15215000Y33467164D02*
X15215000Y33682836D01*
%TO.C,C2*%
X18855000Y9777164D02*
X18855000Y9992836D01*
X18135000Y9777164D02*
X18135000Y9992836D01*
%TO.C,C18*%
X17157164Y48545000D02*
X17372836Y48545000D01*
X17157164Y47825000D02*
X17372836Y47825000D01*
%TO.C,C8*%
X17917164Y31265000D02*
X18132836Y31265000D01*
X17917164Y31985000D02*
X18132836Y31985000D01*
%TO.C,C11*%
X11785000Y25192836D02*
X11785000Y24977164D01*
X11065000Y25192836D02*
X11065000Y24977164D01*
%TD*%
%LPC*%
%TO.C,J2*%
G36*
X-3800000Y4550000D02*
G01*
X-11800000Y4550000D01*
X-11800000Y8050000D01*
X-3800000Y8050000D01*
X-3800000Y4550000D01*
G37*
G36*
X20250000Y50000D02*
G01*
X-250000Y50000D01*
X-250000Y5550000D01*
X20250000Y5550000D01*
X20250000Y50000D01*
G37*
D13*
X20250000Y50000D02*
X-250000Y50000D01*
X-250000Y5550000D01*
X20250000Y5550000D01*
X20250000Y50000D01*
%TD*%
D14*
%TO.C,J5*%
X-37070000Y35465000D03*
X-37070000Y24035000D03*
D15*
X-30720000Y34195000D03*
X-28180000Y32925000D03*
X-30720000Y31655000D03*
X-28180000Y30385000D03*
X-30720000Y29115000D03*
X-28180000Y27845000D03*
X-30720000Y26575000D03*
X-28180000Y25305000D03*
D16*
X-41130000Y33840000D03*
X-41130000Y36380000D03*
X-41130000Y23120000D03*
X-41130000Y25660000D03*
D17*
X-34020000Y37495000D03*
X-34020000Y22005000D03*
%TD*%
D18*
%TO.C,J6*%
X965000Y46235000D03*
D19*
X965000Y47505000D03*
%TD*%
D20*
%TO.C,H2*%
X-37685000Y45585000D03*
%TD*%
D18*
%TO.C,J7*%
X11114992Y47110003D03*
D19*
X11114992Y45840003D03*
X9844992Y47110003D03*
X9844992Y45840003D03*
X8574992Y47110003D03*
X8574992Y45840003D03*
X7304992Y47110003D03*
X7304992Y45840003D03*
X6034992Y47110003D03*
X6034992Y45840003D03*
%TD*%
D20*
%TO.C,H1*%
X-37650000Y9350000D03*
%TD*%
D21*
%TO.C,R20*%
X14065000Y36910000D03*
X14065000Y35260000D03*
%TD*%
D22*
%TO.C,C31*%
X15595000Y30575000D03*
X16555000Y30575000D03*
%TD*%
D23*
%TO.C,L3*%
X12675000Y22037500D03*
X12675000Y23612500D03*
%TD*%
D24*
%TO.C,R4*%
X14225000Y23900000D03*
X14225000Y25550000D03*
%TD*%
D25*
%TO.C,FID2*%
X20465000Y16285000D03*
%TD*%
D26*
%TO.C,L7*%
X10962500Y37275000D03*
X9387500Y37275000D03*
%TD*%
D27*
%TO.C,U3*%
X-2977500Y28795000D03*
X-2977500Y27845000D03*
X-2977500Y26895000D03*
X-5252500Y26895000D03*
X-5252500Y27845000D03*
X-5252500Y28795000D03*
%TD*%
D22*
%TO.C,C9*%
X15595000Y31625000D03*
X16555000Y31625000D03*
%TD*%
D28*
%TO.C,C1*%
X17505000Y10365000D03*
X17505000Y9405000D03*
%TD*%
%TO.C,C19*%
X16525000Y27905000D03*
X16525000Y26945000D03*
%TD*%
D26*
%TO.C,L8*%
X12712500Y30525000D03*
X11137500Y30525000D03*
%TD*%
D29*
%TO.C,C13*%
X16825000Y33350000D03*
X16825000Y34900000D03*
%TD*%
D25*
%TO.C,FID3*%
X-42185000Y48785000D03*
%TD*%
D28*
%TO.C,C10*%
X15425000Y27905000D03*
X15425000Y26945000D03*
%TD*%
D27*
%TO.C,U4*%
X-3027500Y33895000D03*
X-3027500Y32945000D03*
X-3027500Y31995000D03*
X-5302500Y31995000D03*
X-5302500Y32945000D03*
X-5302500Y33895000D03*
%TD*%
D30*
%TO.C,C15*%
X15575000Y33095000D03*
X15575000Y34055000D03*
%TD*%
%TO.C,C2*%
X18495000Y9405000D03*
X18495000Y10365000D03*
%TD*%
D22*
%TO.C,C18*%
X16785000Y48185000D03*
X17745000Y48185000D03*
%TD*%
%TO.C,C8*%
X17545000Y31625000D03*
X18505000Y31625000D03*
%TD*%
D28*
%TO.C,C11*%
X11425000Y25565000D03*
X11425000Y24605000D03*
%TD*%
D25*
%TO.C,FID4*%
X20965000Y48785000D03*
%TD*%
M02*
