M48
; DRILL file {KiCad (6.0.9)} date Thu Jan 12 20:26:10 2023
; FORMAT={-:-/ absolute / inch / decimal}
; #@! TF.CreationDate,2023-01-12T20:26:10+01:00
; #@! TF.GenerationSoftware,Kicad,Pcbnew,(6.0.9)
; #@! TF.FileFunction,Plated,1,4,PTH
FMAT,2
INCH
; #@! TA.AperFunction,Plated,PTH,ViaDrill
T1C0.0079
; #@! TA.AperFunction,Plated,PTH,ViaDrill
T2C0.0098
; #@! TA.AperFunction,Plated,PTH,ViaDrill
T3C0.0118
; #@! TA.AperFunction,Plated,PTH,ComponentDrill
T4C0.0256
; #@! TA.AperFunction,Plated,PTH,ComponentDrill
T5C0.0350
; #@! TA.AperFunction,Plated,PTH,ComponentDrill
T6C0.0618
; #@! TA.AperFunction,Plated,PTH,ComponentDrill
T7C0.1260
%
G90
G05
T1
X-1.7219Y1.9797
X-1.7219Y1.9167
X-1.7219Y1.8419
X-1.7219Y1.7632
X-1.7219Y1.6451
X-1.7219Y1.5663
X-1.7219Y1.4876
X-1.7219Y1.4089
X-1.7219Y1.3301
X-1.7219Y1.2514
X-1.7219Y1.1726
X-1.7219Y1.0939
X-1.7219Y1.0152
X-1.7219Y0.9364
X-1.7219Y0.8577
X-1.7219Y0.7789
X-1.7219Y0.7002
X-1.7219Y0.6215
X-1.7219Y0.5663
X-1.6864Y0.8065
X-1.6746Y1.9797
X-1.6549Y0.5663
X-1.5959Y1.9797
X-1.588Y1.2504
X-1.5841Y1.0457
X-1.5841Y0.8065
X-1.5565Y0.5663
X-1.5171Y1.9797
X-1.5093Y1.3921
X-1.5093Y0.8183
X-1.4778Y0.5663
X-1.4384Y1.9797
X-1.403Y1.3911
X-1.399Y0.8183
X-1.399Y0.5663
X-1.3921Y1.0142
X-1.3724Y1.0949
X-1.3715Y1.527
X-1.3626Y1.3311
X-1.3596Y1.9797
X-1.3419Y1.1549
X-1.3321Y1.2396
X-1.3321Y1.2147
X-1.3321Y0.8616
X-1.3262Y1.2819
X-1.3203Y0.5663
X-1.3006Y1.9797
X-1.3006Y1.9207
X-1.3006Y1.8419
X-1.3006Y1.7632
X-1.3006Y1.6451
X-1.3006Y1.527
X-1.3006Y0.8183
X-1.2967Y1.2632
X-1.2947Y1.29
X-1.2219Y1.6451
X-1.2219Y1.527
X-1.2219Y1.3104
X-1.2219Y1.2671
X-1.2219Y1.1333
X-1.2219Y1.0545
X-1.2219Y0.8183
X-1.2219Y0.5663
X-1.2022Y1.9797
X-1.2022Y1.9207
X-1.2022Y1.8419
X-1.2022Y1.7632
X-1.2022Y0.8577
X-1.1982Y0.9404
X-1.1947Y1.242
X-1.1889Y1.2731
X-1.1746Y1.2238
X-1.1431Y1.6451
X-1.1431Y0.8183
X-1.1431Y0.5663
X-1.143Y1.3615
X-1.1264Y1.3449
X-1.1254Y1.1608
X-1.1234Y1.9797
X-1.1234Y1.7435
X-1.1234Y1.2238
X-1.1136Y1.0506
X-1.0998Y1.1411
X-1.0841Y1.4089
X-1.0802Y1.1598
X-1.0644Y1.6451
X-1.0644Y0.8183
X-1.0644Y0.5663
X-1.0604Y1.1008
X-1.0575Y1.8035
X-1.0565Y1.9217
X-1.0516Y1.2789
X-1.0447Y1.9797
X-1.0447Y1.7435
X-1.025Y1.4089
X-0.9856Y1.6451
X-0.9856Y0.9758
X-0.9856Y0.8183
X-0.9856Y0.5663
X-0.9659Y1.9797
X-0.9659Y1.7435
X-0.9502Y1.1018
X-0.9463Y1.3104
X-0.9071Y1.5274
X-0.9069Y1.6451
X-0.9069Y1.4089
X-0.9069Y0.8183
X-0.9069Y0.5663
X-0.899Y1.3104
X-0.899Y1.212
X-0.899Y1.1018
X-0.899Y0.9758
X-0.8872Y1.9797
X-0.8872Y1.7435
X-0.8596Y1.1923
X-0.8596Y1.0742
X-0.8596Y0.96
X-0.8281Y1.6451
X-0.8281Y1.527
X-0.8281Y1.4089
X-0.8281Y0.8183
X-0.8281Y0.5663
X-0.8085Y1.9797
X-0.8085Y1.7435
X-0.7494Y1.6451
X-0.7494Y1.527
X-0.7494Y0.8183
X-0.7494Y0.5663
X-0.7297Y1.9797
X-0.7297Y1.7435
X-0.7297Y0.897
X-0.7081Y1.8006
X-0.7071Y1.9217
X-0.6707Y1.527
X-0.6707Y0.8183
X-0.6707Y0.5663
X-0.6705Y1.6454
X-0.6509Y1.98
X-0.6509Y1.7438
X-0.5919Y1.6451
X-0.5919Y1.527
X-0.5919Y1.4482
X-0.5919Y1.3695
X-0.5919Y1.2907
X-0.5919Y1.212
X-0.5919Y1.1333
X-0.5919Y1.0545
X-0.5919Y0.9758
X-0.5919Y0.897
X-0.5919Y0.8183
X-0.5919Y0.7396
X-0.5919Y0.6608
X-0.5919Y0.5663
X-0.5915Y1.5872
X-0.5722Y1.9797
X-0.5722Y1.7435
X-0.4935Y1.9797
X-0.4669Y1.6756
X-0.4659Y1.5152
X-0.4544Y1.3696
X-0.4544Y0.8184
X-0.4541Y1.4482
X-0.4541Y1.2907
X-0.4541Y1.212
X-0.4541Y1.1333
X-0.4541Y1.0545
X-0.4541Y0.9758
X-0.4541Y0.897
X-0.4541Y0.7396
X-0.4541Y0.6608
X-0.4541Y0.5663
X-0.4148Y1.9797
X-0.3754Y0.5663
X-0.336Y1.9797
X-0.2967Y0.5663
X-0.2573Y1.9797
X-0.2179Y0.5663
X-0.1785Y1.9797
X-0.1392Y0.5663
X-0.0997Y1.98
X-0.0634Y1.211
X-0.0628Y1.4502
X-0.0628Y1.4254
X-0.0628Y1.2349
X-0.0628Y1.1798
X-0.0628Y0.9514
X-0.0628Y0.9246
X-0.0624Y1.1559
X-0.0604Y0.5663
X-0.0526Y1.7002
X-0.0211Y1.9797
X0.0183Y0.3774
X0.0577Y1.9797
X0.0583Y0.2431
X0.0695Y0.9404
X0.0695Y0.8774
X0.097Y1.4482
X0.1167Y0.8301
X0.1364Y1.9797
X0.1876Y1.4669
X0.2093Y0.5742
X0.2112Y0.7573
X0.2152Y1.9797
X0.2939Y1.9797
X0.3249Y0.4979
X0.3293Y1.2907
X0.3293Y1.2435
X0.3293Y1.1963
X0.3293Y1.149
X0.3372Y0.6234
X0.3392Y0.6549
X0.3392Y0.5821
X0.353Y1.1018
X0.3726Y1.9797
X0.3766Y1.2907
X0.3766Y1.2435
X0.3766Y1.1963
X0.3805Y1.5171
X0.3805Y0.5348
X0.3844Y0.7514
X0.3844Y0.7081
X0.3864Y0.9719
X0.4026Y1.3947
X0.4104Y1.3711
X0.4159Y1.149
X0.4159Y1.1018
X0.4238Y1.4285
X0.4278Y0.4876
X0.4494Y1.0289
X0.4515Y1.98
X0.4553Y0.46
X0.4573Y1.5919
X0.4573Y1.527
X0.4593Y0.5427
X0.4593Y0.3636
X0.4632Y1.2907
X0.4632Y1.2514
X0.4789Y1.1018
X0.4789Y0.4167
X0.4809Y0.6608
X0.4809Y0.6274
X0.4868Y1.462
X0.4888Y1.4148
X0.4907Y1.6254
X0.5124Y0.3833
X0.5242Y1.3636
X0.5291Y0.5762
X0.5301Y1.9797
X0.538Y0.4659
X0.5478Y1.3577
X0.5478Y1.0407
X0.5557Y0.5467
X0.5596Y0.3301
X0.5695Y1.4226
X0.5715Y1.5919
X0.5833Y1.2061
X0.5852Y1.1628
X0.5872Y0.4128
X0.599Y1.3931
X0.601Y0.8301
X0.603Y1.5348
X0.603Y0.4463
X0.6049Y1.023
X0.6089Y0.6411
X0.609Y1.98
X0.6128Y0.9856
X0.6148Y0.9266
X0.6187Y1.3754
X0.6344Y0.3636
X0.6502Y0.4719
X0.66Y0.3144
X0.664Y0.5368
X0.6699Y0.7967
X0.6719Y1.4226
X0.6758Y1.4778
X0.6797Y0.4404
X0.6876Y1.9797
X0.6955Y0.9167
X0.6984Y1.5467
X0.7014Y0.4974
X0.7368Y0.4404
X0.74Y1.1374
X0.7468Y1.98
X0.7545Y1.8242
X0.7841Y1.3734
X0.786Y1.0053
X0.7939Y1.212
X0.8057Y0.5821
X0.8254Y1.9797
X0.8841Y0.8578
X0.8844Y1.9797
X0.8844Y1.9404
X0.8844Y1.8026
X0.8844Y1.2514
X0.8844Y0.9364
X0.8844Y0.7789
X0.8844Y0.7002
X0.8844Y0.6392
X0.8844Y0.5821
X0.8848Y1.8812
X0.8848Y1.7237
X0.8848Y1.645
X0.8848Y1.5662
X0.8848Y1.4875
X0.8848Y1.4087
X0.8848Y1.33
X0.8848Y1.1725
X0.8848Y1.0938
X0.8848Y1.015
T2
X0.2644Y1.0033
X0.351Y1.3931
X0.5439Y1.4187
X0.56Y0.9026
X0.5856Y1.2451
X0.6049Y1.8222
X0.6128Y1.1234
X0.7041Y1.377
X0.7348Y1.4203
X0.7545Y1.9207
X0.79Y1.34
X0.79Y1.2986
T3
X-0.8596Y1.3104
X-0.1888Y1.3419
X-0.1888Y1.2789
X-0.1888Y1.2238
X-0.1888Y1.1057
X-0.1888Y0.9246
X-0.1884Y1.1618
X-0.1884Y1.0437
X-0.1573Y1.3087
X-0.1573Y1.1923
X-0.1573Y1.0742
X-0.1573Y0.9585
X-0.0663Y1.3248
X-0.0626Y1.0549
X0.0238Y1.3813
X0.0238Y1.3183
X0.0238Y1.2553
X0.0238Y1.1372
X0.0238Y1.0742
X0.0238Y1.0112
X0.0911Y1.2474
X0.0911Y1.1431
X0.1404Y0.275
X0.1404Y0.2435
X0.1581Y0.5014
X0.1644Y0.9026
X0.1703Y1.0758
X0.1719Y1.0427
X0.1778Y0.4817
X0.1955Y1.34
X0.2274Y1.0089
X0.2364Y1.2451
X0.2368Y1.0486
X0.2447Y1.3085
X0.2447Y1.147
X0.2565Y0.275
X0.2565Y0.2435
X0.2841Y0.8695
X0.2998Y1.5211
X0.3372Y0.7789
X0.3372Y0.7553
X0.3648Y0.9246
X0.3648Y0.8695
X0.3648Y0.8104
X0.3687Y0.4758
X0.3844Y0.5033
X0.4829Y0.7789
X0.4829Y0.7474
X0.4829Y0.7041
X0.4907Y0.8104
X0.5104Y1.8262
X0.5262Y0.6608
X0.5301Y0.8978
X0.5537Y1.3321
X0.5537Y0.275
X0.5642Y0.5755
X0.5741Y0.4528
X0.5774Y1.5014
X0.5774Y0.6923
X0.5852Y0.5545
X0.5931Y0.7947
X0.597Y0.4758
X0.6089Y0.7789
X0.6128Y0.7278
X0.6285Y0.5545
X0.6699Y0.275
X0.6797Y1.0033
X0.7132Y1.0545
X0.7663Y0.275
X0.7663Y0.2435
T4
X0.038Y1.8703
X0.038Y1.8203
X0.2376Y1.8547
X0.2376Y1.8047
X0.2876Y1.8547
X0.2876Y1.8047
X0.3376Y1.8547
X0.3376Y1.8047
X0.3876Y1.8547
X0.3876Y1.8047
X0.4376Y1.8547
X0.4376Y1.8047
T5
X-1.4925Y1.2725
X-1.4925Y1.1925
X-1.4925Y1.1125
X-1.4925Y1.0325
X-1.4224Y1.3125
X-1.4224Y1.2325
X-1.4224Y1.1525
X-1.4224Y1.0725
X-1.2327Y1.4427
X-1.2327Y1.3526
X-1.2327Y0.9927
X-1.2327Y0.9026
T6
X-1.4575Y1.4927
X-1.4575Y0.8526
T7
X-1.4837Y1.7947
X-1.4823Y0.3681
T0
M30
