M48
; DRILL file {KiCad (6.0.9)} date Fri Jan 20 20:48:01 2023
; FORMAT={-:-/ absolute / inch / decimal}
; #@! TF.CreationDate,2023-01-20T20:48:01+01:00
; #@! TF.GenerationSoftware,Kicad,Pcbnew,(6.0.9)
; #@! TF.FileFunction,Plated,1,4,PTH
FMAT,2
INCH
; #@! TA.AperFunction,Plated,PTH,ViaDrill
T1C0.0079
; #@! TA.AperFunction,Plated,PTH,ViaDrill
T2C0.0098
; #@! TA.AperFunction,Plated,PTH,ViaDrill
T3C0.0118
; #@! TA.AperFunction,Plated,PTH,ComponentDrill
T4C0.0256
; #@! TA.AperFunction,Plated,PTH,ComponentDrill
T5C0.0382
; #@! TA.AperFunction,Plated,PTH,ComponentDrill
T6C0.0433
; #@! TA.AperFunction,Plated,PTH,ComponentDrill
T7C0.0650
; #@! TA.AperFunction,Plated,PTH,ComponentDrill
T8C0.1260
%
G90
G05
T1
X-1.7219Y1.9797
X-1.7219Y1.9167
X-1.7219Y1.8419
X-1.7219Y1.7632
X-1.7219Y1.6451
X-1.7219Y1.5663
X-1.7219Y1.4876
X-1.7219Y1.4089
X-1.7219Y1.3301
X-1.7219Y1.2514
X-1.7219Y1.1726
X-1.7219Y1.0939
X-1.7219Y1.0152
X-1.7219Y0.9364
X-1.7219Y0.8577
X-1.7219Y0.7789
X-1.7219Y0.7002
X-1.7219Y0.6215
X-1.7219Y0.5663
X-1.6864Y0.8065
X-1.6746Y1.9797
X-1.6549Y0.5663
X-1.5959Y1.9797
X-1.5841Y0.8065
X-1.5565Y0.5663
X-1.5171Y1.9797
X-1.5093Y0.8183
X-1.4778Y0.5663
X-1.4384Y1.9797
X-1.399Y0.8183
X-1.399Y0.5663
X-1.3596Y1.9797
X-1.3203Y0.5663
X-1.3006Y1.9797
X-1.3006Y1.9207
X-1.3006Y1.8419
X-1.3006Y1.7632
X-1.3006Y1.6451
X-1.2526Y1.297
X-1.2329Y0.9663
X-1.2219Y1.6451
X-1.2219Y0.8183
X-1.2219Y0.5663
X-1.2022Y1.9797
X-1.2022Y1.9207
X-1.2022Y1.8419
X-1.2022Y1.7632
X-1.1431Y1.6451
X-1.1431Y0.8183
X-1.1431Y0.5663
X-1.1234Y1.9797
X-1.1234Y1.7435
X-1.0644Y1.6451
X-1.0644Y0.8183
X-1.0644Y0.5663
X-1.0636Y0.8797
X-1.0575Y1.8035
X-1.0565Y1.9217
X-1.0447Y1.9797
X-1.0447Y1.7435
X-1.0129Y1.2503
X-1.0085Y0.9742
X-1.0045Y1.1002
X-1.0045Y0.8797
X-1.0006Y1.3285
X-0.9962Y1.2336
X-0.9856Y1.6451
X-0.9856Y0.8183
X-0.9856Y0.5663
X-0.9687Y1.1923
X-0.9687Y1.0742
X-0.9687Y0.96
X-0.9659Y1.9797
X-0.9659Y1.7435
X-0.9364Y0.8797
X-0.9071Y1.5274
X-0.9069Y1.6451
X-0.9069Y0.8183
X-0.9069Y0.5663
X-0.9061Y0.8797
X-0.8872Y1.9797
X-0.8872Y1.7435
X-0.8281Y1.6451
X-0.8281Y1.527
X-0.8281Y0.8183
X-0.8281Y0.5663
X-0.8274Y0.8797
X-0.8085Y1.9797
X-0.8085Y1.7435
X-0.7494Y1.6451
X-0.7494Y1.527
X-0.7494Y0.8183
X-0.7494Y0.5663
X-0.7486Y0.8797
X-0.7297Y1.9797
X-0.7297Y1.7435
X-0.7081Y1.8006
X-0.7071Y1.9217
X-0.6707Y1.527
X-0.6707Y0.8183
X-0.6707Y0.5663
X-0.6705Y1.6454
X-0.6699Y0.8797
X-0.6509Y1.98
X-0.6509Y1.7438
X-0.5919Y1.649
X-0.5919Y1.527
X-0.5919Y0.8183
X-0.5919Y0.7396
X-0.5919Y0.6608
X-0.5919Y0.5663
X-0.5915Y1.5872
X-0.5911Y1.4482
X-0.5911Y0.8797
X-0.5722Y1.9797
X-0.5722Y1.7435
X-0.4935Y1.9797
X-0.4669Y1.6756
X-0.4659Y1.5152
X-0.4652Y1.4467
X-0.4573Y0.8184
X-0.4561Y0.8797
X-0.4541Y0.7396
X-0.4541Y0.6608
X-0.4541Y0.5663
X-0.4148Y1.9797
X-0.41Y1.4467
X-0.401Y0.8797
X-0.3754Y0.5663
X-0.3549Y1.4467
X-0.336Y1.9797
X-0.2967Y0.5663
X-0.2573Y1.9797
X-0.2329Y0.8797
X-0.225Y1.4073
X-0.2179Y0.5663
X-0.1785Y1.9797
X-0.1659Y1.3798
X-0.1659Y1.3562
X-0.1638Y1.211
X-0.1632Y1.2349
X-0.1632Y1.1798
X-0.1628Y1.1559
X-0.162Y1.0288
X-0.162Y1.0052
X-0.1392Y0.5663
X-0.0997Y1.98
X-0.0604Y0.5663
X-0.0526Y1.7002
X-0.0211Y1.9797
X0.0183Y0.3774
X0.0577Y1.9797
X0.0583Y0.2431
X0.097Y1.4482
X0.1167Y0.8301
X0.1364Y1.9797
X0.1876Y1.4669
X0.2093Y0.5742
X0.2112Y0.7573
X0.2152Y1.9797
X0.2939Y1.9797
X0.3249Y0.4979
X0.3293Y1.2907
X0.3293Y1.2435
X0.3293Y1.1963
X0.3293Y1.149
X0.3309Y0.651
X0.3317Y0.5825
X0.3325Y0.6116
X0.3589Y1.1018
X0.3616Y1.5215
X0.3616Y0.5935
X0.3617Y0.6817
X0.3617Y0.6384
X0.3618Y0.5494
X0.3726Y1.9797
X0.3766Y1.2907
X0.3766Y1.2435
X0.3766Y1.1963
X0.3774Y1.5451
X0.4026Y1.3947
X0.4104Y1.3711
X0.4159Y1.1018
X0.4238Y1.4285
X0.4494Y1.0289
X0.4515Y1.98
X0.4532Y1.253
X0.4541Y0.4451
X0.4573Y1.5919
X0.4573Y1.527
X0.4593Y0.3636
X0.4632Y1.2907
X0.4789Y1.1018
X0.4789Y0.4167
X0.4824Y0.7183
X0.4824Y0.6093
X0.4829Y0.6596
X0.4868Y1.462
X0.4888Y1.4148
X0.4907Y1.6254
X0.5101Y0.5747
X0.5124Y0.3833
X0.5242Y1.3636
X0.5301Y1.9797
X0.5344Y0.9793
X0.5478Y1.3577
X0.5478Y1.0407
X0.5498Y0.46
X0.5498Y0.3459
X0.5506Y0.5356
X0.553Y0.8679
X0.5695Y1.4226
X0.5715Y1.5919
X0.5833Y1.2061
X0.5852Y1.1628
X0.5939Y0.6317
X0.5976Y1.0354
X0.599Y1.3931
X0.603Y1.5348
X0.6089Y0.8352
X0.609Y1.98
X0.6093Y0.9888
X0.6093Y0.9293
X0.6187Y1.3754
X0.6258Y0.6191
X0.6289Y0.5333
X0.6293Y0.4562
X0.6301Y0.4211
X0.6325Y0.3813
X0.6439Y0.6009
X0.6608Y0.3915
X0.662Y0.4411
X0.6679Y0.3262
X0.6715Y0.5332
X0.6719Y1.4226
X0.6758Y1.4778
X0.6864Y0.4706
X0.6864Y0.9053
X0.6876Y1.9797
X0.6876Y0.6376
X0.6984Y1.5467
X0.703Y0.5907
X0.7046Y0.4888
X0.7159Y0.5246
X0.7337Y1.375
X0.74Y1.1374
X0.7468Y1.98
X0.7545Y1.8242
X0.7642Y0.336
X0.7699Y0.3699
X0.7703Y0.4085
X0.7754Y1.1368
X0.7841Y1.3734
X0.786Y1.0053
X0.7907Y1.2242
X0.7907Y1.1947
X0.7907Y1.1652
X0.8057Y0.5821
X0.8254Y1.9797
X0.8841Y0.8578
X0.8844Y1.9797
X0.8844Y1.9404
X0.8844Y1.8026
X0.8844Y1.2514
X0.8844Y0.9364
X0.8844Y0.7789
X0.8844Y0.7002
X0.8844Y0.6392
X0.8844Y0.5821
X0.8848Y1.8812
X0.8848Y1.7237
X0.8848Y1.645
X0.8848Y1.5662
X0.8848Y1.4875
X0.8848Y1.4087
X0.8848Y1.33
X0.8848Y1.1725
X0.8848Y1.0938
X0.8848Y1.015
T2
X0.2644Y1.0033
X0.351Y1.3931
X0.5439Y1.4187
X0.56Y0.9026
X0.5856Y1.2451
X0.6049Y1.8222
X0.6128Y1.1234
X0.7041Y1.377
X0.7348Y1.4203
X0.7545Y1.9207
X0.79Y1.34
X0.79Y1.2986
T3
X-0.9687Y1.3104
X-0.288Y1.2793
X-0.2872Y1.3419
X-0.2868Y0.925
X-0.2864Y1.2222
X-0.286Y1.1057
X-0.2857Y1.1622
X-0.2857Y0.9903
X-0.2852Y1.0463
X-0.2557Y1.3087
X-0.2553Y0.9589
X-0.2545Y1.1927
X-0.2545Y1.0742
X-0.1876Y1.1947
X-0.1659Y1.297
X-0.162Y1.0963
X-0.0636Y1.4191
X-0.0596Y0.9703
X0.0459Y1.247
X0.0467Y1.1474
X0.0667Y1.3057
X0.0719Y1.0813
X0.1372Y1.2459
X0.1404Y0.275
X0.1404Y0.2435
X0.1549Y1.1474
X0.1581Y0.5014
X0.1644Y0.9026
X0.1707Y1.0766
X0.1719Y1.0427
X0.1778Y0.4817
X0.1955Y1.34
X0.2274Y1.0089
X0.2364Y1.2451
X0.2368Y1.0486
X0.2447Y1.3085
X0.2447Y1.147
X0.2565Y0.275
X0.2565Y0.2435
X0.2841Y0.8695
X0.2998Y1.5211
X0.3372Y0.7789
X0.3372Y0.7553
X0.3596Y0.925
X0.3597Y0.8675
X0.3648Y0.8104
X0.3687Y0.4758
X0.3844Y0.5033
X0.4829Y0.7789
X0.4829Y0.7474
X0.4848Y0.814
X0.5104Y1.8262
X0.525Y0.6687
X0.5301Y0.8978
X0.5467Y0.2754
X0.5537Y1.3321
X0.5774Y1.5014
X0.5833Y0.6911
X0.5931Y0.7947
X0.6069Y0.7423
X0.6089Y0.7789
X0.6699Y0.275
X0.6797Y1.0033
X0.7132Y1.0545
X0.7663Y0.275
X0.7663Y0.2435
T4
X0.038Y1.8703
X0.038Y1.8203
X0.2376Y1.8547
X0.2376Y1.8047
X0.2876Y1.8547
X0.2876Y1.8047
X0.3376Y1.8547
X0.3376Y1.8047
X0.3876Y1.8547
X0.3876Y1.8047
X0.4376Y1.8547
X0.4376Y1.8047
T5
X-1.2094Y1.3463
X-1.2094Y1.2463
X-1.2094Y1.1463
X-1.2094Y1.0463
X-1.1094Y1.2963
X-1.1094Y1.1963
X-1.1094Y1.0963
X-1.1094Y0.9963
T6
X-1.6193Y1.4323
X-1.6193Y1.3323
X-1.6193Y1.0102
X-1.6193Y0.9102
T7
X-1.3394Y1.4762
X-1.3394Y0.8663
T8
X-1.4837Y1.7947
X-1.4823Y0.3681
T0
M30
