%TF.GenerationSoftware,KiCad,Pcbnew,(6.0.9)*%
%TF.CreationDate,2023-02-16T18:06:58+01:00*%
%TF.ProjectId,pallas-ethernet-adapter,70616c6c-6173-42d6-9574-6865726e6574,rev?*%
%TF.SameCoordinates,Original*%
%TF.FileFunction,Soldermask,Bot*%
%TF.FilePolarity,Negative*%
%FSLAX46Y46*%
G04 Gerber Fmt 4.6, Leading zero omitted, Abs format (unit mm)*
G04 Created by KiCad (PCBNEW (6.0.9)) date 2023-02-16 18:06:58*
%MOMM*%
%LPD*%
G01*
G04 APERTURE LIST*
G04 Aperture macros list*
%AMRoundRect*
0 Rectangle with rounded corners*
0 $1 Rounding radius*
0 $2 $3 $4 $5 $6 $7 $8 $9 X,Y pos of 4 corners*
0 Add a 4 corners polygon primitive as box body*
4,1,4,$2,$3,$4,$5,$6,$7,$8,$9,$2,$3,0*
0 Add four circle primitives for the rounded corners*
1,1,$1+$1,$2,$3*
1,1,$1+$1,$4,$5*
1,1,$1+$1,$6,$7*
1,1,$1+$1,$8,$9*
0 Add four rect primitives between the rounded corners*
20,1,$1+$1,$2,$3,$4,$5,0*
20,1,$1+$1,$4,$5,$6,$7,0*
20,1,$1+$1,$6,$7,$8,$9,0*
20,1,$1+$1,$8,$9,$2,$3,0*%
G04 Aperture macros list end*
%ADD10C,0.200000*%
%ADD11C,3.350000*%
%ADD12C,1.509000*%
%ADD13C,1.650000*%
%ADD14C,2.475000*%
%ADD15R,1.000000X1.000000*%
%ADD16O,1.000000X1.000000*%
%ADD17C,5.600000*%
%ADD18RoundRect,0.200000X-0.275000X0.200000X-0.275000X-0.200000X0.275000X-0.200000X0.275000X0.200000X0*%
%ADD19RoundRect,0.140000X-0.140000X-0.170000X0.140000X-0.170000X0.140000X0.170000X-0.140000X0.170000X0*%
%ADD20RoundRect,0.218750X0.256250X-0.218750X0.256250X0.218750X-0.256250X0.218750X-0.256250X-0.218750X0*%
%ADD21RoundRect,0.200000X0.275000X-0.200000X0.275000X0.200000X-0.275000X0.200000X-0.275000X-0.200000X0*%
%ADD22C,2.000000*%
%ADD23RoundRect,0.218750X0.218750X0.256250X-0.218750X0.256250X-0.218750X-0.256250X0.218750X-0.256250X0*%
%ADD24RoundRect,0.150000X0.512500X0.150000X-0.512500X0.150000X-0.512500X-0.150000X0.512500X-0.150000X0*%
%ADD25RoundRect,0.140000X-0.170000X0.140000X-0.170000X-0.140000X0.170000X-0.140000X0.170000X0.140000X0*%
%ADD26RoundRect,0.225000X0.250000X-0.225000X0.250000X0.225000X-0.250000X0.225000X-0.250000X-0.225000X0*%
%ADD27RoundRect,0.140000X0.170000X-0.140000X0.170000X0.140000X-0.170000X0.140000X-0.170000X-0.140000X0*%
G04 APERTURE END LIST*
%TO.C,J2*%
G36*
X-3800000Y4550000D02*
G01*
X-11800000Y4550000D01*
X-11800000Y8050000D01*
X-3800000Y8050000D01*
X-3800000Y4550000D01*
G37*
G36*
X20250000Y50000D02*
G01*
X-250000Y50000D01*
X-250000Y5550000D01*
X20250000Y5550000D01*
X20250000Y50000D01*
G37*
D10*
X20250000Y50000D02*
X-250000Y50000D01*
X-250000Y5550000D01*
X20250000Y5550000D01*
X20250000Y50000D01*
%TD*%
D11*
%TO.C,J5*%
X-37070000Y35465000D03*
X-37070000Y24035000D03*
D12*
X-30720000Y34195000D03*
X-28180000Y32925000D03*
X-30720000Y31655000D03*
X-28180000Y30385000D03*
X-30720000Y29115000D03*
X-28180000Y27845000D03*
X-30720000Y26575000D03*
X-28180000Y25305000D03*
D13*
X-41130000Y33840000D03*
X-41130000Y36380000D03*
X-41130000Y23120000D03*
X-41130000Y25660000D03*
D14*
X-34020000Y37495000D03*
X-34020000Y22005000D03*
%TD*%
D15*
%TO.C,J6*%
X965000Y46235000D03*
D16*
X965000Y47505000D03*
%TD*%
D17*
%TO.C,H2*%
X-37685000Y45585000D03*
%TD*%
D15*
%TO.C,J7*%
X11114992Y47110003D03*
D16*
X11114992Y45840003D03*
X9844992Y47110003D03*
X9844992Y45840003D03*
X8574992Y47110003D03*
X8574992Y45840003D03*
X7304992Y47110003D03*
X7304992Y45840003D03*
X6034992Y47110003D03*
X6034992Y45840003D03*
%TD*%
D17*
%TO.C,H1*%
X-37650000Y9350000D03*
%TD*%
D18*
%TO.C,R20*%
X14065000Y36910000D03*
X14065000Y35260000D03*
%TD*%
D19*
%TO.C,C31*%
X15595000Y30575000D03*
X16555000Y30575000D03*
%TD*%
D20*
%TO.C,L3*%
X12675000Y22037500D03*
X12675000Y23612500D03*
%TD*%
D21*
%TO.C,R4*%
X14225000Y23900000D03*
X14225000Y25550000D03*
%TD*%
D22*
%TO.C,FID2*%
X20465000Y16285000D03*
%TD*%
D23*
%TO.C,L7*%
X10962500Y37275000D03*
X9387500Y37275000D03*
%TD*%
D24*
%TO.C,U3*%
X-2977500Y28795000D03*
X-2977500Y27845000D03*
X-2977500Y26895000D03*
X-5252500Y26895000D03*
X-5252500Y27845000D03*
X-5252500Y28795000D03*
%TD*%
D19*
%TO.C,C9*%
X15595000Y31625000D03*
X16555000Y31625000D03*
%TD*%
D25*
%TO.C,C1*%
X17505000Y10365000D03*
X17505000Y9405000D03*
%TD*%
%TO.C,C19*%
X16525000Y27905000D03*
X16525000Y26945000D03*
%TD*%
D23*
%TO.C,L8*%
X12712500Y30525000D03*
X11137500Y30525000D03*
%TD*%
D26*
%TO.C,C13*%
X16825000Y33350000D03*
X16825000Y34900000D03*
%TD*%
D22*
%TO.C,FID3*%
X-42185000Y48785000D03*
%TD*%
D25*
%TO.C,C10*%
X15425000Y27905000D03*
X15425000Y26945000D03*
%TD*%
D24*
%TO.C,U4*%
X-3027500Y33895000D03*
X-3027500Y32945000D03*
X-3027500Y31995000D03*
X-5302500Y31995000D03*
X-5302500Y32945000D03*
X-5302500Y33895000D03*
%TD*%
D27*
%TO.C,C15*%
X15575000Y33095000D03*
X15575000Y34055000D03*
%TD*%
%TO.C,C2*%
X18495000Y9405000D03*
X18495000Y10365000D03*
%TD*%
D19*
%TO.C,C18*%
X16785000Y48185000D03*
X17745000Y48185000D03*
%TD*%
%TO.C,C8*%
X17545000Y31625000D03*
X18505000Y31625000D03*
%TD*%
D25*
%TO.C,C11*%
X11425000Y25565000D03*
X11425000Y24605000D03*
%TD*%
D22*
%TO.C,FID4*%
X20965000Y48785000D03*
%TD*%
M02*
